  0
SECTION
  2
BLOCKS
  0
ENDSEC
  0
SECTION
  2
ENTITIES
  0
LINE
  8
0
 10
-47.8043
 20
-77.9174
 11
-47.6796
 21
-77.9016
  0
LINE
  8
0
 10
-47.6796
 20
-77.9016
 11
-47.5562
 21
-77.8781
  0
LINE
  8
0
 10
-47.5562
 20
-77.8781
 11
-47.4345
 21
-77.8468
  0
LINE
  8
0
 10
-47.4345
 20
-77.8468
 11
-47.315
 21
-77.808
  0
LINE
  8
0
 10
-47.315
 20
-77.808
 11
-47.1982
 21
-77.7618
  0
LINE
  8
0
 10
-47.1982
 20
-77.7618
 11
-47.0845
 21
-77.7083
  0
LINE
  8
0
 10
-47.0845
 20
-77.7083
 11
-46.9744
 21
-77.6477
  0
LINE
  8
0
 10
-46.9744
 20
-77.6477
 11
-46.8683
 21
-77.5804
  0
LINE
  8
0
 10
-46.8683
 20
-77.5804
 11
-46.7667
 21
-77.5066
  0
LINE
  8
0
 10
-46.7667
 20
-77.5066
 11
-46.6699
 21
-77.4265
  0
LINE
  8
0
 10
-46.6699
 20
-77.4265
 11
-46.5783
 21
-77.3405
  0
LINE
  8
0
 10
-46.5783
 20
-77.3405
 11
-34.982
 21
-65.7442
  0
LINE
  8
0
 10
-34.982
 20
-65.7442
 11
-31.9899
 21
-62.9344
  0
LINE
  8
0
 10
-31.9899
 20
-62.9344
 11
-28.9232
 21
-60.3974
  0
LINE
  8
0
 10
-28.9232
 20
-60.3974
 11
-25.7042
 21
-58.0587
  0
LINE
  8
0
 10
-25.7042
 20
-58.0587
 11
-22.3442
 21
-55.9263
  0
LINE
  8
0
 10
-22.3442
 20
-55.9263
 11
-18.8567
 21
-54.0091
  0
LINE
  8
0
 10
-18.8567
 20
-54.0091
 11
-15.2562
 21
-52.3148
  0
LINE
  8
0
 10
-15.2562
 20
-52.3148
 11
-11.5561
 21
-50.8499
  0
LINE
  8
0
 10
-11.5561
 20
-50.8499
 11
-7.77149
 21
-49.6202
  0
LINE
  8
0
 10
-7.77149
 20
-49.6202
 11
-3.91677
 21
-48.6304
  0
LINE
  8
0
 10
-3.91677
 20
-48.6304
 11
-0.00795593
 21
-47.8848
  0
LINE
  8
0
 10
-0.00795593
 20
-47.8848
 11
3.94003
 21
-47.386
  0
LINE
  8
0
 10
3.94003
 20
-47.386
 11
7.91161
 21
-47.1362
  0
LINE
  8
0
 10
7.91161
 20
-47.1362
 11
11.0104
 21
-47.1362
  0
LINE
  8
0
 10
11.0104
 20
-47.1362
 11
11.1359
 21
-47.1322
  0
LINE
  8
0
 10
11.1359
 20
-47.1322
 11
11.261
 21
-47.1204
  0
LINE
  8
0
 10
11.261
 20
-47.1204
 11
11.3838
 21
-47.101
  0
LINE
  8
0
 10
11.3838
 20
-47.101
 11
45.4765
 21
-47.101
  0
LINE
  8
0
 10
45.4765
 20
-47.101
 11
45.6021
 21
-47.097
  0
LINE
  8
0
 10
45.6021
 20
-47.097
 11
45.7272
 21
-47.0852
  0
LINE
  8
0
 10
45.7272
 20
-47.0852
 11
45.8513
 21
-47.0655
  0
LINE
  8
0
 10
45.8513
 20
-47.0655
 11
45.9739
 21
-47.0381
  0
LINE
  8
0
 10
45.9739
 20
-47.0381
 11
46.0945
 21
-47.0031
  0
LINE
  8
0
 10
46.0945
 20
-47.0031
 11
46.2128
 21
-46.9605
  0
LINE
  8
0
 10
46.2128
 20
-46.9605
 11
46.3281
 21
-46.9106
  0
LINE
  8
0
 10
46.3281
 20
-46.9106
 11
46.44
 21
-46.8536
  0
LINE
  8
0
 10
46.44
 20
-46.8536
 11
46.5482
 21
-46.7896
  0
LINE
  8
0
 10
46.5482
 20
-46.7896
 11
46.6521
 21
-46.719
  0
LINE
  8
0
 10
46.6521
 20
-46.719
 11
46.7514
 21
-46.642
  0
LINE
  8
0
 10
46.7514
 20
-46.642
 11
46.8456
 21
-46.5589
  0
LINE
  8
0
 10
46.8456
 20
-46.5589
 11
46.9344
 21
-46.4701
  0
LINE
  8
0
 10
46.9344
 20
-46.4701
 11
47.0175
 21
-46.3758
  0
LINE
  8
0
 10
47.0175
 20
-46.3758
 11
47.0945
 21
-46.2765
  0
LINE
  8
0
 10
47.0945
 20
-46.2765
 11
47.1652
 21
-46.1726
  0
LINE
  8
0
 10
47.1652
 20
-46.1726
 11
47.2291
 21
-46.0645
  0
LINE
  8
0
 10
47.2291
 20
-46.0645
 11
47.2862
 21
-45.9525
  0
LINE
  8
0
 10
47.2862
 20
-45.9525
 11
47.3361
 21
-45.8372
  0
LINE
  8
0
 10
47.3361
 20
-45.8372
 11
47.3786
 21
-45.719
  0
LINE
  8
0
 10
47.3786
 20
-45.719
 11
47.4137
 21
-45.5983
  0
LINE
  8
0
 10
47.4137
 20
-45.5983
 11
47.4411
 21
-45.4757
  0
LINE
  8
0
 10
47.4411
 20
-45.4757
 11
47.4607
 21
-45.3516
  0
LINE
  8
0
 10
47.4607
 20
-45.3516
 11
47.4726
 21
-45.2265
  0
LINE
  8
0
 10
47.4726
 20
-45.2265
 11
47.4765
 21
-45.101
  0
LINE
  8
0
 10
47.4765
 20
-45.101
 11
47.4765
 21
-39.531
  0
LINE
  8
0
 10
47.4765
 20
-39.531
 11
69.9375
 21
-39.531
  0
LINE
  8
0
 10
69.9375
 20
-39.531
 11
70.0631
 21
-39.527
  0
LINE
  8
0
 10
70.0631
 20
-39.527
 11
70.1882
 21
-39.5152
  0
LINE
  8
0
 10
70.1882
 20
-39.5152
 11
70.3122
 21
-39.4955
  0
LINE
  8
0
 10
70.3122
 20
-39.4955
 11
70.4349
 21
-39.4681
  0
LINE
  8
0
 10
70.4349
 20
-39.4681
 11
70.5555
 21
-39.4331
  0
LINE
  8
0
 10
70.5555
 20
-39.4331
 11
70.6737
 21
-39.3905
  0
LINE
  8
0
 10
70.6737
 20
-39.3905
 11
70.7891
 21
-39.3406
  0
LINE
  8
0
 10
70.7891
 20
-39.3406
 11
70.901
 21
-39.2836
  0
LINE
  8
0
 10
70.901
 20
-39.2836
 11
71.0091
 21
-39.2196
  0
LINE
  8
0
 10
71.0091
 20
-39.2196
 11
71.1131
 21
-39.149
  0
LINE
  8
0
 10
71.1131
 20
-39.149
 11
71.2123
 21
-39.072
  0
LINE
  8
0
 10
71.2123
 20
-39.072
 11
71.3066
 21
-38.9889
  0
LINE
  8
0
 10
71.3066
 20
-38.9889
 11
71.3954
 21
-38.9001
  0
LINE
  8
0
 10
71.3954
 20
-38.9001
 11
71.4785
 21
-38.8058
  0
LINE
  8
0
 10
71.4785
 20
-38.8058
 11
71.5555
 21
-38.7065
  0
LINE
  8
0
 10
71.5555
 20
-38.7065
 11
71.6262
 21
-38.6026
  0
LINE
  8
0
 10
71.6262
 20
-38.6026
 11
71.6901
 21
-38.4945
  0
LINE
  8
0
 10
71.6901
 20
-38.4945
 11
71.7471
 21
-38.3825
  0
LINE
  8
0
 10
71.7471
 20
-38.3825
 11
71.7971
 21
-38.2672
  0
LINE
  8
0
 10
71.7971
 20
-38.2672
 11
71.8396
 21
-38.149
  0
LINE
  8
0
 10
71.8396
 20
-38.149
 11
71.8747
 21
-38.0283
  0
LINE
  8
0
 10
71.8747
 20
-38.0283
 11
71.9021
 21
-37.9057
  0
LINE
  8
0
 10
71.9021
 20
-37.9057
 11
71.9217
 21
-37.7816
  0
LINE
  8
0
 10
71.9217
 20
-37.7816
 11
71.9335
 21
-37.6566
  0
LINE
  8
0
 10
71.9335
 20
-37.6566
 11
71.9375
 21
-37.531
  0
LINE
  8
0
 10
71.9375
 20
-37.531
 11
71.9375
 21
41.2079
  0
LINE
  8
0
 10
71.9375
 20
41.2079
 11
71.9335
 21
41.3335
  0
LINE
  8
0
 10
71.9335
 20
41.3335
 11
71.9217
 21
41.4586
  0
LINE
  8
0
 10
71.9217
 20
41.4586
 11
71.9021
 21
41.5827
  0
LINE
  8
0
 10
71.9021
 20
41.5827
 11
71.8747
 21
41.7053
  0
LINE
  8
0
 10
71.8747
 20
41.7053
 11
71.8396
 21
41.8259
  0
LINE
  8
0
 10
71.8396
 20
41.8259
 11
71.7971
 21
41.9442
  0
LINE
  8
0
 10
71.7971
 20
41.9442
 11
71.7471
 21
42.0595
  0
LINE
  8
0
 10
71.7471
 20
42.0595
 11
71.6901
 21
42.1714
  0
LINE
  8
0
 10
71.6901
 20
42.1714
 11
71.6262
 21
42.2796
  0
LINE
  8
0
 10
71.6262
 20
42.2796
 11
71.5555
 21
42.3835
  0
LINE
  8
0
 10
71.5555
 20
42.3835
 11
71.4785
 21
42.4828
  0
LINE
  8
0
 10
71.4785
 20
42.4828
 11
71.3954
 21
42.577
  0
LINE
  8
0
 10
71.3954
 20
42.577
 11
71.3066
 21
42.6659
  0
LINE
  8
0
 10
71.3066
 20
42.6659
 11
71.2123
 21
42.7489
  0
LINE
  8
0
 10
71.2123
 20
42.7489
 11
71.1131
 21
42.8259
  0
LINE
  8
0
 10
71.1131
 20
42.8259
 11
71.0091
 21
42.8966
  0
LINE
  8
0
 10
71.0091
 20
42.8966
 11
70.901
 21
42.9605
  0
LINE
  8
0
 10
70.901
 20
42.9605
 11
70.7891
 21
43.0176
  0
LINE
  8
0
 10
70.7891
 20
43.0176
 11
70.6737
 21
43.0675
  0
LINE
  8
0
 10
70.6737
 20
43.0675
 11
70.615
 21
43.0897
  0
LINE
  8
0
 10
70.615
 20
43.0897
 11
60.9824
 21
46.5576
  0
LINE
  8
0
 10
60.9824
 20
46.5576
 11
60.8629
 21
46.5964
  0
LINE
  8
0
 10
60.8629
 20
46.5964
 11
51.023
 21
49.4552
  0
LINE
  8
0
 10
51.023
 20
49.4552
 11
50.9013
 21
49.4864
  0
LINE
  8
0
 10
50.9013
 20
49.4864
 11
40.9014
 21
51.7217
  0
LINE
  8
0
 10
40.9014
 20
51.7217
 11
40.7779
 21
51.7452
  0
LINE
  8
0
 10
40.7779
 20
51.7452
 11
30.6573
 21
53.3482
  0
LINE
  8
0
 10
30.6573
 20
53.3482
 11
30.5327
 21
53.3639
  0
LINE
  8
0
 10
30.5327
 20
53.3639
 11
20.3314
 21
54.3282
  0
LINE
  8
0
 10
20.3314
 20
54.3282
 11
20.206
 21
54.3361
  0
LINE
  8
0
 10
20.206
 20
54.3361
 11
9.96433
 21
54.658
  0
LINE
  8
0
 10
9.96433
 20
54.658
 11
9.83869
 21
54.658
  0
LINE
  8
0
 10
9.83869
 20
54.658
 11
-0.403006
 21
54.3361
  0
LINE
  8
0
 10
-0.403006
 20
54.3361
 11
-0.528403
 21
54.3282
  0
LINE
  8
0
 10
-0.528403
 20
54.3282
 11
-10.7297
 21
53.3639
  0
LINE
  8
0
 10
-10.7297
 20
53.3639
 11
-10.8543
 21
53.3482
  0
LINE
  8
0
 10
-10.8543
 20
53.3482
 11
-20.9749
 21
51.7452
  0
LINE
  8
0
 10
-20.9749
 20
51.7452
 11
-21.0984
 21
51.7217
  0
LINE
  8
0
 10
-21.0984
 20
51.7217
 11
-31.0983
 21
49.4864
  0
LINE
  8
0
 10
-31.0983
 20
49.4864
 11
-31.22
 21
49.4552
  0
LINE
  8
0
 10
-31.22
 20
49.4552
 11
-41.0599
 21
46.5964
  0
LINE
  8
0
 10
-41.0599
 20
46.5964
 11
-41.1794
 21
46.5576
  0
LINE
  8
0
 10
-41.1794
 20
46.5576
 11
-50.8204
 21
43.0866
  0
LINE
  8
0
 10
-50.8204
 20
43.0866
 11
-50.9372
 21
43.0404
  0
LINE
  8
0
 10
-50.9372
 20
43.0404
 11
-60.3412
 21
38.9709
  0
LINE
  8
0
 10
-60.3412
 20
38.9709
 11
-60.4549
 21
38.9174
  0
LINE
  8
0
 10
-60.4549
 20
38.9174
 11
-70.8455
 21
33.6232
  0
LINE
  8
0
 10
-70.8455
 20
33.6232
 11
-70.9556
 21
33.5627
  0
LINE
  8
0
 10
-70.9556
 20
33.5627
 11
-71.0617
 21
33.4953
  0
LINE
  8
0
 10
-71.0617
 20
33.4953
 11
-71.1633
 21
33.4215
  0
LINE
  8
0
 10
-71.1633
 20
33.4215
 11
-71.2601
 21
33.3414
  0
LINE
  8
0
 10
-71.2601
 20
33.3414
 11
-71.3517
 21
33.2554
  0
LINE
  8
0
 10
-71.3517
 20
33.2554
 11
-71.4377
 21
33.1638
  0
LINE
  8
0
 10
-71.4377
 20
33.1638
 11
-71.5178
 21
33.067
  0
LINE
  8
0
 10
-71.5178
 20
33.067
 11
-71.5917
 21
32.9654
  0
LINE
  8
0
 10
-71.5917
 20
32.9654
 11
-71.659
 21
32.8593
  0
LINE
  8
0
 10
-71.659
 20
32.8593
 11
-71.7195
 21
32.7492
  0
LINE
  8
0
 10
-71.7195
 20
32.7492
 11
-71.773
 21
32.6355
  0
LINE
  8
0
 10
-71.773
 20
32.6355
 11
-71.8193
 21
32.5186
  0
LINE
  8
0
 10
-71.8193
 20
32.5186
 11
-71.8581
 21
32.3992
  0
LINE
  8
0
 10
-71.8581
 20
32.3992
 11
-71.8893
 21
32.2775
  0
LINE
  8
0
 10
-71.8893
 20
32.2775
 11
-71.9129
 21
32.154
  0
LINE
  8
0
 10
-71.9129
 20
32.154
 11
-71.9286
 21
32.0294
  0
LINE
  8
0
 10
-71.9286
 20
32.0294
 11
-71.9365
 21
31.904
  0
LINE
  8
0
 10
-71.9365
 20
31.904
 11
-71.9375
 21
31.8412
  0
LINE
  8
0
 10
-71.9375
 20
31.8412
 11
-71.9375
 21
-23.3623
  0
LINE
  8
0
 10
-71.9375
 20
-23.3623
 11
-86.247
 21
-37.6718
  0
LINE
  8
0
 10
-86.247
 20
-37.6718
 11
-86.333
 21
-37.7634
  0
LINE
  8
0
 10
-86.333
 20
-37.7634
 11
-86.4131
 21
-37.8602
  0
LINE
  8
0
 10
-86.4131
 20
-37.8602
 11
-86.4869
 21
-37.9618
  0
LINE
  8
0
 10
-86.4869
 20
-37.9618
 11
-86.5542
 21
-38.0679
  0
LINE
  8
0
 10
-86.5542
 20
-38.0679
 11
-86.6148
 21
-38.178
  0
LINE
  8
0
 10
-86.6148
 20
-38.178
 11
-86.6683
 21
-38.2917
  0
LINE
  8
0
 10
-86.6683
 20
-38.2917
 11
-86.7145
 21
-38.4085
  0
LINE
  8
0
 10
-86.7145
 20
-38.4085
 11
-86.7533
 21
-38.528
  0
LINE
  8
0
 10
-86.7533
 20
-38.528
 11
-86.7846
 21
-38.6497
  0
LINE
  8
0
 10
-86.7846
 20
-38.6497
 11
-86.8081
 21
-38.7731
  0
LINE
  8
0
 10
-86.8081
 20
-38.7731
 11
-86.8239
 21
-38.8978
  0
LINE
  8
0
 10
-86.8239
 20
-38.8978
 11
-86.8318
 21
-39.0232
  0
LINE
  8
0
 10
-86.8318
 20
-39.0232
 11
-86.8318
 21
-39.1488
  0
LINE
  8
0
 10
-86.8318
 20
-39.1488
 11
-86.8239
 21
-39.2742
  0
LINE
  8
0
 10
-86.8239
 20
-39.2742
 11
-86.8081
 21
-39.3989
  0
LINE
  8
0
 10
-86.8081
 20
-39.3989
 11
-86.7846
 21
-39.5223
  0
LINE
  8
0
 10
-86.7846
 20
-39.5223
 11
-86.7533
 21
-39.644
  0
LINE
  8
0
 10
-86.7533
 20
-39.644
 11
-86.7145
 21
-39.7635
  0
LINE
  8
0
 10
-86.7145
 20
-39.7635
 11
-86.6683
 21
-39.8803
  0
LINE
  8
0
 10
-86.6683
 20
-39.8803
 11
-86.6148
 21
-39.994
  0
LINE
  8
0
 10
-86.6148
 20
-39.994
 11
-86.5542
 21
-40.1041
  0
LINE
  8
0
 10
-86.5542
 20
-40.1041
 11
-86.4869
 21
-40.2102
  0
LINE
  8
0
 10
-86.4869
 20
-40.2102
 11
-86.4131
 21
-40.3118
  0
LINE
  8
0
 10
-86.4131
 20
-40.3118
 11
-86.333
 21
-40.4086
  0
LINE
  8
0
 10
-86.333
 20
-40.4086
 11
-86.247
 21
-40.5002
  0
LINE
  8
0
 10
-86.247
 20
-40.5002
 11
-49.4067
 21
-77.3405
  0
LINE
  8
0
 10
-49.4067
 20
-77.3405
 11
-49.3151
 21
-77.4265
  0
LINE
  8
0
 10
-49.3151
 20
-77.4265
 11
-49.2183
 21
-77.5066
  0
LINE
  8
0
 10
-49.2183
 20
-77.5066
 11
-49.1167
 21
-77.5804
  0
LINE
  8
0
 10
-49.1167
 20
-77.5804
 11
-49.0106
 21
-77.6477
  0
LINE
  8
0
 10
-49.0106
 20
-77.6477
 11
-48.9005
 21
-77.7083
  0
LINE
  8
0
 10
-48.9005
 20
-77.7083
 11
-48.7868
 21
-77.7618
  0
LINE
  8
0
 10
-48.7868
 20
-77.7618
 11
-48.67
 21
-77.808
  0
LINE
  8
0
 10
-48.67
 20
-77.808
 11
-48.5505
 21
-77.8468
  0
LINE
  8
0
 10
-48.5505
 20
-77.8468
 11
-48.4288
 21
-77.8781
  0
LINE
  8
0
 10
-48.4288
 20
-77.8781
 11
-48.3054
 21
-77.9016
  0
LINE
  8
0
 10
-48.3054
 20
-77.9016
 11
-48.1807
 21
-77.9174
  0
LINE
  8
0
 10
-48.1807
 20
-77.9174
 11
-48.0553
 21
-77.9253
  0
LINE
  8
0
 10
-48.0553
 20
-77.9253
 11
-47.9297
 21
-77.9253
  0
LINE
  8
0
 10
-47.9297
 20
-77.9253
 11
-47.8043
 21
-77.9174
  0
LINE
  8
0
 10
36.077
 20
46.9549
 11
35.9488
 21
46.9671
  0
LINE
  8
0
 10
35.9488
 20
46.9671
 11
35.8216
 21
46.9872
  0
LINE
  8
0
 10
35.8216
 20
46.9872
 11
35.6959
 21
47.0153
  0
LINE
  8
0
 10
35.6959
 20
47.0153
 11
35.5723
 21
47.0512
  0
LINE
  8
0
 10
35.5723
 20
47.0512
 11
35.4511
 21
47.0949
  0
LINE
  8
0
 10
35.4511
 20
47.0949
 11
35.3329
 21
47.146
  0
LINE
  8
0
 10
35.3329
 20
47.146
 11
35.2182
 21
47.2045
  0
LINE
  8
0
 10
35.2182
 20
47.2045
 11
35.1073
 21
47.27
  0
LINE
  8
0
 10
35.1073
 20
47.27
 11
35.0008
 21
47.3424
  0
LINE
  8
0
 10
35.0008
 20
47.3424
 11
34.899
 21
47.4213
  0
LINE
  8
0
 10
34.899
 20
47.4213
 11
34.8024
 21
47.5065
  0
LINE
  8
0
 10
34.8024
 20
47.5065
 11
34.7114
 21
47.5976
  0
LINE
  8
0
 10
34.7114
 20
47.5976
 11
34.6262
 21
47.6942
  0
LINE
  8
0
 10
34.6262
 20
47.6942
 11
34.5473
 21
47.7959
  0
LINE
  8
0
 10
34.5473
 20
47.7959
 11
34.4749
 21
47.9025
  0
LINE
  8
0
 10
34.4749
 20
47.9025
 11
34.4093
 21
48.0133
  0
LINE
  8
0
 10
34.4093
 20
48.0133
 11
34.3509
 21
48.1281
  0
LINE
  8
0
 10
34.3509
 20
48.1281
 11
34.2997
 21
48.2462
  0
LINE
  8
0
 10
34.2997
 20
48.2462
 11
34.2561
 21
48.3674
  0
LINE
  8
0
 10
34.2561
 20
48.3674
 11
34.2202
 21
48.4911
  0
LINE
  8
0
 10
34.2202
 20
48.4911
 11
34.1921
 21
48.6168
  0
LINE
  8
0
 10
34.1921
 20
48.6168
 11
34.1719
 21
48.744
  0
LINE
  8
0
 10
34.1719
 20
48.744
 11
34.1598
 21
48.8722
  0
LINE
  8
0
 10
34.1598
 20
48.8722
 11
34.1558
 21
49.0009
  0
LINE
  8
0
 10
34.1558
 20
49.0009
 11
34.1598
 21
49.1296
  0
LINE
  8
0
 10
34.1598
 20
49.1296
 11
34.1719
 21
49.2578
  0
LINE
  8
0
 10
34.1719
 20
49.2578
 11
34.1921
 21
49.385
  0
LINE
  8
0
 10
34.1921
 20
49.385
 11
34.2202
 21
49.5107
  0
LINE
  8
0
 10
34.2202
 20
49.5107
 11
34.2561
 21
49.6344
  0
LINE
  8
0
 10
34.2561
 20
49.6344
 11
34.2997
 21
49.7556
  0
LINE
  8
0
 10
34.2997
 20
49.7556
 11
34.3509
 21
49.8738
  0
LINE
  8
0
 10
34.3509
 20
49.8738
 11
34.4093
 21
49.9885
  0
LINE
  8
0
 10
34.4093
 20
49.9885
 11
34.4749
 21
50.0994
  0
LINE
  8
0
 10
34.4749
 20
50.0994
 11
34.5473
 21
50.2059
  0
LINE
  8
0
 10
34.5473
 20
50.2059
 11
34.6262
 21
50.3076
  0
LINE
  8
0
 10
34.6262
 20
50.3076
 11
34.7114
 21
50.4042
  0
LINE
  8
0
 10
34.7114
 20
50.4042
 11
34.8024
 21
50.4953
  0
LINE
  8
0
 10
34.8024
 20
50.4953
 11
34.899
 21
50.5804
  0
LINE
  8
0
 10
34.899
 20
50.5804
 11
35.0008
 21
50.6594
  0
LINE
  8
0
 10
35.0008
 20
50.6594
 11
35.1073
 21
50.7318
  0
LINE
  8
0
 10
35.1073
 20
50.7318
 11
35.2182
 21
50.7973
  0
LINE
  8
0
 10
35.2182
 20
50.7973
 11
35.3329
 21
50.8558
  0
LINE
  8
0
 10
35.3329
 20
50.8558
 11
35.4511
 21
50.9069
  0
LINE
  8
0
 10
35.4511
 20
50.9069
 11
35.5723
 21
50.9506
  0
LINE
  8
0
 10
35.5723
 20
50.9506
 11
35.6959
 21
50.9865
  0
LINE
  8
0
 10
35.6959
 20
50.9865
 11
35.8216
 21
51.0146
  0
LINE
  8
0
 10
35.8216
 20
51.0146
 11
35.9488
 21
51.0347
  0
LINE
  8
0
 10
35.9488
 20
51.0347
 11
36.077
 21
51.0469
  0
LINE
  8
0
 10
36.077
 20
51.0469
 11
36.2058
 21
51.0509
  0
LINE
  8
0
 10
36.2058
 20
51.0509
 11
36.3345
 21
51.0469
  0
LINE
  8
0
 10
36.3345
 20
51.0469
 11
36.4627
 21
51.0347
  0
LINE
  8
0
 10
36.4627
 20
51.0347
 11
36.5899
 21
51.0146
  0
LINE
  8
0
 10
36.5899
 20
51.0146
 11
36.7156
 21
50.9865
  0
LINE
  8
0
 10
36.7156
 20
50.9865
 11
36.8392
 21
50.9506
  0
LINE
  8
0
 10
36.8392
 20
50.9506
 11
36.9604
 21
50.9069
  0
LINE
  8
0
 10
36.9604
 20
50.9069
 11
37.0786
 21
50.8558
  0
LINE
  8
0
 10
37.0786
 20
50.8558
 11
37.1934
 21
50.7973
  0
LINE
  8
0
 10
37.1934
 20
50.7973
 11
37.3042
 21
50.7318
  0
LINE
  8
0
 10
37.3042
 20
50.7318
 11
37.4107
 21
50.6594
  0
LINE
  8
0
 10
37.4107
 20
50.6594
 11
37.5125
 21
50.5804
  0
LINE
  8
0
 10
37.5125
 20
50.5804
 11
37.6091
 21
50.4953
  0
LINE
  8
0
 10
37.6091
 20
50.4953
 11
37.7001
 21
50.4042
  0
LINE
  8
0
 10
37.7001
 20
50.4042
 11
37.7853
 21
50.3076
  0
LINE
  8
0
 10
37.7853
 20
50.3076
 11
37.8642
 21
50.2059
  0
LINE
  8
0
 10
37.8642
 20
50.2059
 11
37.9366
 21
50.0994
  0
LINE
  8
0
 10
37.9366
 20
50.0994
 11
38.0022
 21
49.9885
  0
LINE
  8
0
 10
38.0022
 20
49.9885
 11
38.0606
 21
49.8738
  0
LINE
  8
0
 10
38.0606
 20
49.8738
 11
38.1118
 21
49.7556
  0
LINE
  8
0
 10
38.1118
 20
49.7556
 11
38.1554
 21
49.6344
  0
LINE
  8
0
 10
38.1554
 20
49.6344
 11
38.1914
 21
49.5107
  0
LINE
  8
0
 10
38.1914
 20
49.5107
 11
38.2194
 21
49.385
  0
LINE
  8
0
 10
38.2194
 20
49.385
 11
38.2396
 21
49.2578
  0
LINE
  8
0
 10
38.2396
 20
49.2578
 11
38.2517
 21
49.1296
  0
LINE
  8
0
 10
38.2517
 20
49.1296
 11
38.2557
 21
49.0009
  0
LINE
  8
0
 10
38.2557
 20
49.0009
 11
38.2517
 21
48.8722
  0
LINE
  8
0
 10
38.2517
 20
48.8722
 11
38.2396
 21
48.744
  0
LINE
  8
0
 10
38.2396
 20
48.744
 11
38.2194
 21
48.6168
  0
LINE
  8
0
 10
38.2194
 20
48.6168
 11
38.1914
 21
48.4911
  0
LINE
  8
0
 10
38.1914
 20
48.4911
 11
38.1554
 21
48.3674
  0
LINE
  8
0
 10
38.1554
 20
48.3674
 11
38.1118
 21
48.2462
  0
LINE
  8
0
 10
38.1118
 20
48.2462
 11
38.0606
 21
48.1281
  0
LINE
  8
0
 10
38.0606
 20
48.1281
 11
38.0022
 21
48.0133
  0
LINE
  8
0
 10
38.0022
 20
48.0133
 11
37.9366
 21
47.9025
  0
LINE
  8
0
 10
37.9366
 20
47.9025
 11
37.8642
 21
47.7959
  0
LINE
  8
0
 10
37.8642
 20
47.7959
 11
37.7853
 21
47.6942
  0
LINE
  8
0
 10
37.7853
 20
47.6942
 11
37.7001
 21
47.5976
  0
LINE
  8
0
 10
37.7001
 20
47.5976
 11
37.6091
 21
47.5065
  0
LINE
  8
0
 10
37.6091
 20
47.5065
 11
37.5125
 21
47.4213
  0
LINE
  8
0
 10
37.5125
 20
47.4213
 11
37.4107
 21
47.3424
  0
LINE
  8
0
 10
37.4107
 20
47.3424
 11
37.3042
 21
47.27
  0
LINE
  8
0
 10
37.3042
 20
47.27
 11
37.1934
 21
47.2045
  0
LINE
  8
0
 10
37.1934
 20
47.2045
 11
37.0786
 21
47.146
  0
LINE
  8
0
 10
37.0786
 20
47.146
 11
36.9604
 21
47.0949
  0
LINE
  8
0
 10
36.9604
 20
47.0949
 11
36.8392
 21
47.0512
  0
LINE
  8
0
 10
36.8392
 20
47.0512
 11
36.7156
 21
47.0153
  0
LINE
  8
0
 10
36.7156
 20
47.0153
 11
36.5899
 21
46.9872
  0
LINE
  8
0
 10
36.5899
 20
46.9872
 11
36.4627
 21
46.9671
  0
LINE
  8
0
 10
36.4627
 20
46.9671
 11
36.3345
 21
46.9549
  0
LINE
  8
0
 10
36.3345
 20
46.9549
 11
36.2058
 21
46.9509
  0
LINE
  8
0
 10
36.2058
 20
46.9509
 11
36.077
 21
46.9549
  0
LINE
  8
0
 10
-31.3162
 20
43.7993
 11
-31.4444
 21
43.8114
  0
LINE
  8
0
 10
-31.4444
 20
43.8114
 11
-31.5716
 21
43.8315
  0
LINE
  8
0
 10
-31.5716
 20
43.8315
 11
-31.6973
 21
43.8596
  0
LINE
  8
0
 10
-31.6973
 20
43.8596
 11
-31.821
 21
43.8956
  0
LINE
  8
0
 10
-31.821
 20
43.8956
 11
-31.9421
 21
43.9392
  0
LINE
  8
0
 10
-31.9421
 20
43.9392
 11
-32.0603
 21
43.9903
  0
LINE
  8
0
 10
-32.0603
 20
43.9903
 11
-32.1751
 21
44.0488
  0
LINE
  8
0
 10
-32.1751
 20
44.0488
 11
-32.2859
 21
44.1144
  0
LINE
  8
0
 10
-32.2859
 20
44.1144
 11
-32.3924
 21
44.1867
  0
LINE
  8
0
 10
-32.3924
 20
44.1867
 11
-32.4942
 21
44.2657
  0
LINE
  8
0
 10
-32.4942
 20
44.2657
 11
-32.5908
 21
44.3508
  0
LINE
  8
0
 10
-32.5908
 20
44.3508
 11
-32.6819
 21
44.4419
  0
LINE
  8
0
 10
-32.6819
 20
44.4419
 11
-32.7671
 21
44.5385
  0
LINE
  8
0
 10
-32.7671
 20
44.5385
 11
-32.846
 21
44.6403
  0
LINE
  8
0
 10
-32.846
 20
44.6403
 11
-32.9184
 21
44.7468
  0
LINE
  8
0
 10
-32.9184
 20
44.7468
 11
-32.9839
 21
44.8576
  0
LINE
  8
0
 10
-32.9839
 20
44.8576
 11
-33.0424
 21
44.9724
  0
LINE
  8
0
 10
-33.0424
 20
44.9724
 11
-33.0935
 21
45.0906
  0
LINE
  8
0
 10
-33.0935
 20
45.0906
 11
-33.1372
 21
45.2117
  0
LINE
  8
0
 10
-33.1372
 20
45.2117
 11
-33.1731
 21
45.3354
  0
LINE
  8
0
 10
-33.1731
 20
45.3354
 11
-33.2012
 21
45.4611
  0
LINE
  8
0
 10
-33.2012
 20
45.4611
 11
-33.2213
 21
45.5883
  0
LINE
  8
0
 10
-33.2213
 20
45.5883
 11
-33.2335
 21
45.7165
  0
LINE
  8
0
 10
-33.2335
 20
45.7165
 11
-33.2375
 21
45.8452
  0
LINE
  8
0
 10
-33.2375
 20
45.8452
 11
-33.2335
 21
45.9739
  0
LINE
  8
0
 10
-33.2335
 20
45.9739
 11
-33.2213
 21
46.1022
  0
LINE
  8
0
 10
-33.2213
 20
46.1022
 11
-33.2012
 21
46.2294
  0
LINE
  8
0
 10
-33.2012
 20
46.2294
 11
-33.1731
 21
46.355
  0
LINE
  8
0
 10
-33.1731
 20
46.355
 11
-33.1372
 21
46.4787
  0
LINE
  8
0
 10
-33.1372
 20
46.4787
 11
-33.0935
 21
46.5999
  0
LINE
  8
0
 10
-33.0935
 20
46.5999
 11
-33.0424
 21
46.7181
  0
LINE
  8
0
 10
-33.0424
 20
46.7181
 11
-32.9839
 21
46.8328
  0
LINE
  8
0
 10
-32.9839
 20
46.8328
 11
-32.9184
 21
46.9437
  0
LINE
  8
0
 10
-32.9184
 20
46.9437
 11
-32.846
 21
47.0502
  0
LINE
  8
0
 10
-32.846
 20
47.0502
 11
-32.7671
 21
47.1519
  0
LINE
  8
0
 10
-32.7671
 20
47.1519
 11
-32.6819
 21
47.2486
  0
LINE
  8
0
 10
-32.6819
 20
47.2486
 11
-32.5908
 21
47.3396
  0
LINE
  8
0
 10
-32.5908
 20
47.3396
 11
-32.4942
 21
47.4248
  0
LINE
  8
0
 10
-32.4942
 20
47.4248
 11
-32.3924
 21
47.5037
  0
LINE
  8
0
 10
-32.3924
 20
47.5037
 11
-32.2859
 21
47.5761
  0
LINE
  8
0
 10
-32.2859
 20
47.5761
 11
-32.1751
 21
47.6417
  0
LINE
  8
0
 10
-32.1751
 20
47.6417
 11
-32.0603
 21
47.7001
  0
LINE
  8
0
 10
-32.0603
 20
47.7001
 11
-31.9421
 21
47.7513
  0
LINE
  8
0
 10
-31.9421
 20
47.7513
 11
-31.821
 21
47.7949
  0
LINE
  8
0
 10
-31.821
 20
47.7949
 11
-31.6973
 21
47.8308
  0
LINE
  8
0
 10
-31.6973
 20
47.8308
 11
-31.5716
 21
47.8589
  0
LINE
  8
0
 10
-31.5716
 20
47.8589
 11
-31.4444
 21
47.8791
  0
LINE
  8
0
 10
-31.4444
 20
47.8791
 11
-31.3162
 21
47.8912
  0
LINE
  8
0
 10
-31.3162
 20
47.8912
 11
-31.1875
 21
47.8952
  0
LINE
  8
0
 10
-31.1875
 20
47.8952
 11
-31.0588
 21
47.8912
  0
LINE
  8
0
 10
-31.0588
 20
47.8912
 11
-30.9306
 21
47.8791
  0
LINE
  8
0
 10
-30.9306
 20
47.8791
 11
-30.8034
 21
47.8589
  0
LINE
  8
0
 10
-30.8034
 20
47.8589
 11
-30.6777
 21
47.8308
  0
LINE
  8
0
 10
-30.6777
 20
47.8308
 11
-30.554
 21
47.7949
  0
LINE
  8
0
 10
-30.554
 20
47.7949
 11
-30.4328
 21
47.7513
  0
LINE
  8
0
 10
-30.4328
 20
47.7513
 11
-30.3146
 21
47.7001
  0
LINE
  8
0
 10
-30.3146
 20
47.7001
 11
-30.1999
 21
47.6417
  0
LINE
  8
0
 10
-30.1999
 20
47.6417
 11
-30.089
 21
47.5761
  0
LINE
  8
0
 10
-30.089
 20
47.5761
 11
-29.9825
 21
47.5037
  0
LINE
  8
0
 10
-29.9825
 20
47.5037
 11
-29.8808
 21
47.4248
  0
LINE
  8
0
 10
-29.8808
 20
47.4248
 11
-29.7842
 21
47.3396
  0
LINE
  8
0
 10
-29.7842
 20
47.3396
 11
-29.6931
 21
47.2486
  0
LINE
  8
0
 10
-29.6931
 20
47.2486
 11
-29.6079
 21
47.1519
  0
LINE
  8
0
 10
-29.6079
 20
47.1519
 11
-29.529
 21
47.0502
  0
LINE
  8
0
 10
-29.529
 20
47.0502
 11
-29.4566
 21
46.9437
  0
LINE
  8
0
 10
-29.4566
 20
46.9437
 11
-29.3911
 21
46.8328
  0
LINE
  8
0
 10
-29.3911
 20
46.8328
 11
-29.3326
 21
46.7181
  0
LINE
  8
0
 10
-29.3326
 20
46.7181
 11
-29.2815
 21
46.5999
  0
LINE
  8
0
 10
-29.2815
 20
46.5999
 11
-29.2378
 21
46.4787
  0
LINE
  8
0
 10
-29.2378
 20
46.4787
 11
-29.2019
 21
46.355
  0
LINE
  8
0
 10
-29.2019
 20
46.355
 11
-29.1738
 21
46.2294
  0
LINE
  8
0
 10
-29.1738
 20
46.2294
 11
-29.1537
 21
46.1022
  0
LINE
  8
0
 10
-29.1537
 20
46.1022
 11
-29.1415
 21
45.9739
  0
LINE
  8
0
 10
-29.1415
 20
45.9739
 11
-29.1375
 21
45.8452
  0
LINE
  8
0
 10
-29.1375
 20
45.8452
 11
-29.1415
 21
45.7165
  0
LINE
  8
0
 10
-29.1415
 20
45.7165
 11
-29.1537
 21
45.5883
  0
LINE
  8
0
 10
-29.1537
 20
45.5883
 11
-29.1738
 21
45.4611
  0
LINE
  8
0
 10
-29.1738
 20
45.4611
 11
-29.2019
 21
45.3354
  0
LINE
  8
0
 10
-29.2019
 20
45.3354
 11
-29.2378
 21
45.2117
  0
LINE
  8
0
 10
-29.2378
 20
45.2117
 11
-29.2815
 21
45.0906
  0
LINE
  8
0
 10
-29.2815
 20
45.0906
 11
-29.3326
 21
44.9724
  0
LINE
  8
0
 10
-29.3326
 20
44.9724
 11
-29.3911
 21
44.8576
  0
LINE
  8
0
 10
-29.3911
 20
44.8576
 11
-29.4566
 21
44.7468
  0
LINE
  8
0
 10
-29.4566
 20
44.7468
 11
-29.529
 21
44.6403
  0
LINE
  8
0
 10
-29.529
 20
44.6403
 11
-29.6079
 21
44.5385
  0
LINE
  8
0
 10
-29.6079
 20
44.5385
 11
-29.6931
 21
44.4419
  0
LINE
  8
0
 10
-29.6931
 20
44.4419
 11
-29.7842
 21
44.3508
  0
LINE
  8
0
 10
-29.7842
 20
44.3508
 11
-29.8808
 21
44.2657
  0
LINE
  8
0
 10
-29.8808
 20
44.2657
 11
-29.9825
 21
44.1867
  0
LINE
  8
0
 10
-29.9825
 20
44.1867
 11
-30.089
 21
44.1144
  0
LINE
  8
0
 10
-30.089
 20
44.1144
 11
-30.1999
 21
44.0488
  0
LINE
  8
0
 10
-30.1999
 20
44.0488
 11
-30.3146
 21
43.9903
  0
LINE
  8
0
 10
-30.3146
 20
43.9903
 11
-30.4328
 21
43.9392
  0
LINE
  8
0
 10
-30.4328
 20
43.9392
 11
-30.554
 21
43.8956
  0
LINE
  8
0
 10
-30.554
 20
43.8956
 11
-30.6777
 21
43.8596
  0
LINE
  8
0
 10
-30.6777
 20
43.8596
 11
-30.8034
 21
43.8315
  0
LINE
  8
0
 10
-30.8034
 20
43.8315
 11
-30.9306
 21
43.8114
  0
LINE
  8
0
 10
-30.9306
 20
43.8114
 11
-31.0588
 21
43.7993
  0
LINE
  8
0
 10
-31.0588
 20
43.7993
 11
-31.1875
 21
43.7952
  0
LINE
  8
0
 10
-31.1875
 20
43.7952
 11
-31.3162
 21
43.7993
  0
LINE
  8
0
 10
68.359
 20
38.9346
 11
68.2808
 21
38.942
  0
LINE
  8
0
 10
68.2808
 20
38.942
 11
68.2033
 21
38.9543
  0
LINE
  8
0
 10
68.2033
 20
38.9543
 11
68.1266
 21
38.9714
  0
LINE
  8
0
 10
68.1266
 20
38.9714
 11
68.0512
 21
38.9933
  0
LINE
  8
0
 10
68.0512
 20
38.9933
 11
67.9773
 21
39.0199
  0
LINE
  8
0
 10
67.9773
 20
39.0199
 11
67.9053
 21
39.0511
  0
LINE
  8
0
 10
67.9053
 20
39.0511
 11
67.8353
 21
39.0867
  0
LINE
  8
0
 10
67.8353
 20
39.0867
 11
67.7677
 21
39.1267
  0
LINE
  8
0
 10
67.7677
 20
39.1267
 11
67.7028
 21
39.1709
  0
LINE
  8
0
 10
67.7028
 20
39.1709
 11
67.6407
 21
39.219
  0
LINE
  8
0
 10
67.6407
 20
39.219
 11
67.5818
 21
39.2709
  0
LINE
  8
0
 10
67.5818
 20
39.2709
 11
67.5263
 21
39.3264
  0
LINE
  8
0
 10
67.5263
 20
39.3264
 11
67.4743
 21
39.3853
  0
LINE
  8
0
 10
67.4743
 20
39.3853
 11
67.4262
 21
39.4474
  0
LINE
  8
0
 10
67.4262
 20
39.4474
 11
67.3821
 21
39.5123
  0
LINE
  8
0
 10
67.3821
 20
39.5123
 11
67.3421
 21
39.5799
  0
LINE
  8
0
 10
67.3421
 20
39.5799
 11
67.3065
 21
39.6499
  0
LINE
  8
0
 10
67.3065
 20
39.6499
 11
67.2753
 21
39.722
  0
LINE
  8
0
 10
67.2753
 20
39.722
 11
67.2487
 21
39.7959
  0
LINE
  8
0
 10
67.2487
 20
39.7959
 11
67.2268
 21
39.8713
  0
LINE
  8
0
 10
67.2268
 20
39.8713
 11
67.2096
 21
39.9479
  0
LINE
  8
0
 10
67.2096
 20
39.9479
 11
67.1974
 21
40.0255
  0
LINE
  8
0
 10
67.1974
 20
40.0255
 11
67.19
 21
40.1036
  0
LINE
  8
0
 10
67.19
 20
40.1036
 11
67.1875
 21
40.1821
  0
LINE
  8
0
 10
67.1875
 20
40.1821
 11
67.19
 21
40.2606
  0
LINE
  8
0
 10
67.19
 20
40.2606
 11
67.1974
 21
40.3388
  0
LINE
  8
0
 10
67.1974
 20
40.3388
 11
67.2096
 21
40.4164
  0
LINE
  8
0
 10
67.2096
 20
40.4164
 11
67.2268
 21
40.493
  0
LINE
  8
0
 10
67.2268
 20
40.493
 11
67.2487
 21
40.5684
  0
LINE
  8
0
 10
67.2487
 20
40.5684
 11
67.2753
 21
40.6423
  0
LINE
  8
0
 10
67.2753
 20
40.6423
 11
67.3065
 21
40.7144
  0
LINE
  8
0
 10
67.3065
 20
40.7144
 11
67.3421
 21
40.7843
  0
LINE
  8
0
 10
67.3421
 20
40.7843
 11
67.3821
 21
40.8519
  0
LINE
  8
0
 10
67.3821
 20
40.8519
 11
67.4262
 21
40.9169
  0
LINE
  8
0
 10
67.4262
 20
40.9169
 11
67.4743
 21
40.9789
  0
LINE
  8
0
 10
67.4743
 20
40.9789
 11
67.5263
 21
41.0378
  0
LINE
  8
0
 10
67.5263
 20
41.0378
 11
67.5818
 21
41.0933
  0
LINE
  8
0
 10
67.5818
 20
41.0933
 11
67.6407
 21
41.1453
  0
LINE
  8
0
 10
67.6407
 20
41.1453
 11
67.7028
 21
41.1934
  0
LINE
  8
0
 10
67.7028
 20
41.1934
 11
67.7677
 21
41.2376
  0
LINE
  8
0
 10
67.7677
 20
41.2376
 11
67.8353
 21
41.2775
  0
LINE
  8
0
 10
67.8353
 20
41.2775
 11
67.9053
 21
41.3132
  0
LINE
  8
0
 10
67.9053
 20
41.3132
 11
67.9773
 21
41.3444
  0
LINE
  8
0
 10
67.9773
 20
41.3444
 11
68.0512
 21
41.371
  0
LINE
  8
0
 10
68.0512
 20
41.371
 11
68.1266
 21
41.3929
  0
LINE
  8
0
 10
68.1266
 20
41.3929
 11
68.2033
 21
41.41
  0
LINE
  8
0
 10
68.2033
 20
41.41
 11
68.2808
 21
41.4223
  0
LINE
  8
0
 10
68.2808
 20
41.4223
 11
68.359
 21
41.4297
  0
LINE
  8
0
 10
68.359
 20
41.4297
 11
68.4375
 21
41.4321
  0
LINE
  8
0
 10
68.4375
 20
41.4321
 11
68.516
 21
41.4297
  0
LINE
  8
0
 10
68.516
 20
41.4297
 11
68.5942
 21
41.4223
  0
LINE
  8
0
 10
68.5942
 20
41.4223
 11
68.6717
 21
41.41
  0
LINE
  8
0
 10
68.6717
 20
41.41
 11
68.7484
 21
41.3929
  0
LINE
  8
0
 10
68.7484
 20
41.3929
 11
68.8238
 21
41.371
  0
LINE
  8
0
 10
68.8238
 20
41.371
 11
68.8977
 21
41.3444
  0
LINE
  8
0
 10
68.8977
 20
41.3444
 11
68.9697
 21
41.3132
  0
LINE
  8
0
 10
68.9697
 20
41.3132
 11
69.0397
 21
41.2775
  0
LINE
  8
0
 10
69.0397
 20
41.2775
 11
69.1073
 21
41.2376
  0
LINE
  8
0
 10
69.1073
 20
41.2376
 11
69.1722
 21
41.1934
  0
LINE
  8
0
 10
69.1722
 20
41.1934
 11
69.2343
 21
41.1453
  0
LINE
  8
0
 10
69.2343
 20
41.1453
 11
69.2932
 21
41.0933
  0
LINE
  8
0
 10
69.2932
 20
41.0933
 11
69.3487
 21
41.0378
  0
LINE
  8
0
 10
69.3487
 20
41.0378
 11
69.4006
 21
40.9789
  0
LINE
  8
0
 10
69.4006
 20
40.9789
 11
69.4488
 21
40.9169
  0
LINE
  8
0
 10
69.4488
 20
40.9169
 11
69.4929
 21
40.8519
  0
LINE
  8
0
 10
69.4929
 20
40.8519
 11
69.5329
 21
40.7843
  0
LINE
  8
0
 10
69.5329
 20
40.7843
 11
69.5685
 21
40.7144
  0
LINE
  8
0
 10
69.5685
 20
40.7144
 11
69.5997
 21
40.6423
  0
LINE
  8
0
 10
69.5997
 20
40.6423
 11
69.6263
 21
40.5684
  0
LINE
  8
0
 10
69.6263
 20
40.5684
 11
69.6482
 21
40.493
  0
LINE
  8
0
 10
69.6482
 20
40.493
 11
69.6654
 21
40.4164
  0
LINE
  8
0
 10
69.6654
 20
40.4164
 11
69.6776
 21
40.3388
  0
LINE
  8
0
 10
69.6776
 20
40.3388
 11
69.685
 21
40.2606
  0
LINE
  8
0
 10
69.685
 20
40.2606
 11
69.6875
 21
40.1821
  0
LINE
  8
0
 10
69.6875
 20
40.1821
 11
69.685
 21
40.1036
  0
LINE
  8
0
 10
69.685
 20
40.1036
 11
69.6776
 21
40.0255
  0
LINE
  8
0
 10
69.6776
 20
40.0255
 11
69.6654
 21
39.9479
  0
LINE
  8
0
 10
69.6654
 20
39.9479
 11
69.6482
 21
39.8713
  0
LINE
  8
0
 10
69.6482
 20
39.8713
 11
69.6263
 21
39.7959
  0
LINE
  8
0
 10
69.6263
 20
39.7959
 11
69.5997
 21
39.722
  0
LINE
  8
0
 10
69.5997
 20
39.722
 11
69.5685
 21
39.6499
  0
LINE
  8
0
 10
69.5685
 20
39.6499
 11
69.5329
 21
39.5799
  0
LINE
  8
0
 10
69.5329
 20
39.5799
 11
69.4929
 21
39.5123
  0
LINE
  8
0
 10
69.4929
 20
39.5123
 11
69.4488
 21
39.4474
  0
LINE
  8
0
 10
69.4488
 20
39.4474
 11
69.4006
 21
39.3853
  0
LINE
  8
0
 10
69.4006
 20
39.3853
 11
69.3487
 21
39.3264
  0
LINE
  8
0
 10
69.3487
 20
39.3264
 11
69.2932
 21
39.2709
  0
LINE
  8
0
 10
69.2932
 20
39.2709
 11
69.2343
 21
39.219
  0
LINE
  8
0
 10
69.2343
 20
39.219
 11
69.1722
 21
39.1709
  0
LINE
  8
0
 10
69.1722
 20
39.1709
 11
69.1073
 21
39.1267
  0
LINE
  8
0
 10
69.1073
 20
39.1267
 11
69.0397
 21
39.0867
  0
LINE
  8
0
 10
69.0397
 20
39.0867
 11
68.9697
 21
39.0511
  0
LINE
  8
0
 10
68.9697
 20
39.0511
 11
68.8977
 21
39.0199
  0
LINE
  8
0
 10
68.8977
 20
39.0199
 11
68.8238
 21
38.9933
  0
LINE
  8
0
 10
68.8238
 20
38.9933
 11
68.7484
 21
38.9714
  0
LINE
  8
0
 10
68.7484
 20
38.9714
 11
68.6717
 21
38.9543
  0
LINE
  8
0
 10
68.6717
 20
38.9543
 11
68.5942
 21
38.942
  0
LINE
  8
0
 10
68.5942
 20
38.942
 11
68.516
 21
38.9346
  0
LINE
  8
0
 10
68.516
 20
38.9346
 11
68.4375
 21
38.9321
  0
LINE
  8
0
 10
68.4375
 20
38.9321
 11
68.359
 21
38.9346
  0
LINE
  8
0
 10
-68.516
 20
29.6513
 11
-68.5942
 21
29.6587
  0
LINE
  8
0
 10
-68.5942
 20
29.6587
 11
-68.6717
 21
29.671
  0
LINE
  8
0
 10
-68.6717
 20
29.671
 11
-68.7484
 21
29.6881
  0
LINE
  8
0
 10
-68.7484
 20
29.6881
 11
-68.8238
 21
29.7101
  0
LINE
  8
0
 10
-68.8238
 20
29.7101
 11
-68.8977
 21
29.7367
  0
LINE
  8
0
 10
-68.8977
 20
29.7367
 11
-68.9697
 21
29.7678
  0
LINE
  8
0
 10
-68.9697
 20
29.7678
 11
-69.0397
 21
29.8035
  0
LINE
  8
0
 10
-69.0397
 20
29.8035
 11
-69.1073
 21
29.8435
  0
LINE
  8
0
 10
-69.1073
 20
29.8435
 11
-69.1722
 21
29.8876
  0
LINE
  8
0
 10
-69.1722
 20
29.8876
 11
-69.2343
 21
29.9357
  0
LINE
  8
0
 10
-69.2343
 20
29.9357
 11
-69.2932
 21
29.9877
  0
LINE
  8
0
 10
-69.2932
 20
29.9877
 11
-69.3487
 21
30.0432
  0
LINE
  8
0
 10
-69.3487
 20
30.0432
 11
-69.4006
 21
30.1021
  0
LINE
  8
0
 10
-69.4006
 20
30.1021
 11
-69.4488
 21
30.1641
  0
LINE
  8
0
 10
-69.4488
 20
30.1641
 11
-69.4929
 21
30.2291
  0
LINE
  8
0
 10
-69.4929
 20
30.2291
 11
-69.5329
 21
30.2967
  0
LINE
  8
0
 10
-69.5329
 20
30.2967
 11
-69.5685
 21
30.3667
  0
LINE
  8
0
 10
-69.5685
 20
30.3667
 11
-69.5997
 21
30.4387
  0
LINE
  8
0
 10
-69.5997
 20
30.4387
 11
-69.6263
 21
30.5126
  0
LINE
  8
0
 10
-69.6263
 20
30.5126
 11
-69.6482
 21
30.588
  0
LINE
  8
0
 10
-69.6482
 20
30.588
 11
-69.6654
 21
30.6646
  0
LINE
  8
0
 10
-69.6654
 20
30.6646
 11
-69.6776
 21
30.7422
  0
LINE
  8
0
 10
-69.6776
 20
30.7422
 11
-69.685
 21
30.8204
  0
LINE
  8
0
 10
-69.685
 20
30.8204
 11
-69.6875
 21
30.8989
  0
LINE
  8
0
 10
-69.6875
 20
30.8989
 11
-69.685
 21
30.9774
  0
LINE
  8
0
 10
-69.685
 20
30.9774
 11
-69.6776
 21
31.0555
  0
LINE
  8
0
 10
-69.6776
 20
31.0555
 11
-69.6654
 21
31.1331
  0
LINE
  8
0
 10
-69.6654
 20
31.1331
 11
-69.6482
 21
31.2097
  0
LINE
  8
0
 10
-69.6482
 20
31.2097
 11
-69.6263
 21
31.2851
  0
LINE
  8
0
 10
-69.6263
 20
31.2851
 11
-69.5997
 21
31.359
  0
LINE
  8
0
 10
-69.5997
 20
31.359
 11
-69.5685
 21
31.4311
  0
LINE
  8
0
 10
-69.5685
 20
31.4311
 11
-69.5329
 21
31.5011
  0
LINE
  8
0
 10
-69.5329
 20
31.5011
 11
-69.4929
 21
31.5687
  0
LINE
  8
0
 10
-69.4929
 20
31.5687
 11
-69.4488
 21
31.6336
  0
LINE
  8
0
 10
-69.4488
 20
31.6336
 11
-69.4006
 21
31.6957
  0
LINE
  8
0
 10
-69.4006
 20
31.6957
 11
-69.3487
 21
31.7546
  0
LINE
  8
0
 10
-69.3487
 20
31.7546
 11
-69.2932
 21
31.8101
  0
LINE
  8
0
 10
-69.2932
 20
31.8101
 11
-69.2343
 21
31.862
  0
LINE
  8
0
 10
-69.2343
 20
31.862
 11
-69.1722
 21
31.9101
  0
LINE
  8
0
 10
-69.1722
 20
31.9101
 11
-69.1073
 21
31.9543
  0
LINE
  8
0
 10
-69.1073
 20
31.9543
 11
-69.0397
 21
31.9943
  0
LINE
  8
0
 10
-69.0397
 20
31.9943
 11
-68.9697
 21
32.0299
  0
LINE
  8
0
 10
-68.9697
 20
32.0299
 11
-68.8977
 21
32.0611
  0
LINE
  8
0
 10
-68.8977
 20
32.0611
 11
-68.8238
 21
32.0877
  0
LINE
  8
0
 10
-68.8238
 20
32.0877
 11
-68.7484
 21
32.1096
  0
LINE
  8
0
 10
-68.7484
 20
32.1096
 11
-68.6717
 21
32.1267
  0
LINE
  8
0
 10
-68.6717
 20
32.1267
 11
-68.5942
 21
32.139
  0
LINE
  8
0
 10
-68.5942
 20
32.139
 11
-68.516
 21
32.1464
  0
LINE
  8
0
 10
-68.516
 20
32.1464
 11
-68.4375
 21
32.1489
  0
LINE
  8
0
 10
-68.4375
 20
32.1489
 11
-68.359
 21
32.1464
  0
LINE
  8
0
 10
-68.359
 20
32.1464
 11
-68.2808
 21
32.139
  0
LINE
  8
0
 10
-68.2808
 20
32.139
 11
-68.2033
 21
32.1267
  0
LINE
  8
0
 10
-68.2033
 20
32.1267
 11
-68.1266
 21
32.1096
  0
LINE
  8
0
 10
-68.1266
 20
32.1096
 11
-68.0512
 21
32.0877
  0
LINE
  8
0
 10
-68.0512
 20
32.0877
 11
-67.9773
 21
32.0611
  0
LINE
  8
0
 10
-67.9773
 20
32.0611
 11
-67.9053
 21
32.0299
  0
LINE
  8
0
 10
-67.9053
 20
32.0299
 11
-67.8353
 21
31.9943
  0
LINE
  8
0
 10
-67.8353
 20
31.9943
 11
-67.7677
 21
31.9543
  0
LINE
  8
0
 10
-67.7677
 20
31.9543
 11
-67.7028
 21
31.9101
  0
LINE
  8
0
 10
-67.7028
 20
31.9101
 11
-67.6407
 21
31.862
  0
LINE
  8
0
 10
-67.6407
 20
31.862
 11
-67.5818
 21
31.8101
  0
LINE
  8
0
 10
-67.5818
 20
31.8101
 11
-67.5263
 21
31.7546
  0
LINE
  8
0
 10
-67.5263
 20
31.7546
 11
-67.4744
 21
31.6957
  0
LINE
  8
0
 10
-67.4744
 20
31.6957
 11
-67.4262
 21
31.6336
  0
LINE
  8
0
 10
-67.4262
 20
31.6336
 11
-67.3821
 21
31.5687
  0
LINE
  8
0
 10
-67.3821
 20
31.5687
 11
-67.3421
 21
31.5011
  0
LINE
  8
0
 10
-67.3421
 20
31.5011
 11
-67.3065
 21
31.4311
  0
LINE
  8
0
 10
-67.3065
 20
31.4311
 11
-67.2753
 21
31.359
  0
LINE
  8
0
 10
-67.2753
 20
31.359
 11
-67.2487
 21
31.2851
  0
LINE
  8
0
 10
-67.2487
 20
31.2851
 11
-67.2268
 21
31.2097
  0
LINE
  8
0
 10
-67.2268
 20
31.2097
 11
-67.2096
 21
31.1331
  0
LINE
  8
0
 10
-67.2096
 20
31.1331
 11
-67.1973
 21
31.0555
  0
LINE
  8
0
 10
-67.1973
 20
31.0555
 11
-67.19
 21
30.9774
  0
LINE
  8
0
 10
-67.19
 20
30.9774
 11
-67.1875
 21
30.8989
  0
LINE
  8
0
 10
-67.1875
 20
30.8989
 11
-67.19
 21
30.8204
  0
LINE
  8
0
 10
-67.19
 20
30.8204
 11
-67.1973
 21
30.7422
  0
LINE
  8
0
 10
-67.1973
 20
30.7422
 11
-67.2096
 21
30.6646
  0
LINE
  8
0
 10
-67.2096
 20
30.6646
 11
-67.2268
 21
30.588
  0
LINE
  8
0
 10
-67.2268
 20
30.588
 11
-67.2487
 21
30.5126
  0
LINE
  8
0
 10
-67.2487
 20
30.5126
 11
-67.2753
 21
30.4387
  0
LINE
  8
0
 10
-67.2753
 20
30.4387
 11
-67.3065
 21
30.3667
  0
LINE
  8
0
 10
-67.3065
 20
30.3667
 11
-67.3421
 21
30.2967
  0
LINE
  8
0
 10
-67.3421
 20
30.2967
 11
-67.3821
 21
30.2291
  0
LINE
  8
0
 10
-67.3821
 20
30.2291
 11
-67.4262
 21
30.1641
  0
LINE
  8
0
 10
-67.4262
 20
30.1641
 11
-67.4744
 21
30.1021
  0
LINE
  8
0
 10
-67.4744
 20
30.1021
 11
-67.5263
 21
30.0432
  0
LINE
  8
0
 10
-67.5263
 20
30.0432
 11
-67.5818
 21
29.9877
  0
LINE
  8
0
 10
-67.5818
 20
29.9877
 11
-67.6407
 21
29.9357
  0
LINE
  8
0
 10
-67.6407
 20
29.9357
 11
-67.7028
 21
29.8876
  0
LINE
  8
0
 10
-67.7028
 20
29.8876
 11
-67.7677
 21
29.8435
  0
LINE
  8
0
 10
-67.7677
 20
29.8435
 11
-67.8353
 21
29.8035
  0
LINE
  8
0
 10
-67.8353
 20
29.8035
 11
-67.9053
 21
29.7678
  0
LINE
  8
0
 10
-67.9053
 20
29.7678
 11
-67.9773
 21
29.7367
  0
LINE
  8
0
 10
-67.9773
 20
29.7367
 11
-68.0512
 21
29.7101
  0
LINE
  8
0
 10
-68.0512
 20
29.7101
 11
-68.1266
 21
29.6881
  0
LINE
  8
0
 10
-68.1266
 20
29.6881
 11
-68.2033
 21
29.671
  0
LINE
  8
0
 10
-68.2033
 20
29.671
 11
-68.2808
 21
29.6587
  0
LINE
  8
0
 10
-68.2808
 20
29.6587
 11
-68.359
 21
29.6513
  0
LINE
  8
0
 10
-68.359
 20
29.6513
 11
-68.4375
 21
29.6489
  0
LINE
  8
0
 10
-68.4375
 20
29.6489
 11
-68.516
 21
29.6513
  0
LINE
  8
0
 10
68.3088
 20
19.0829
 11
68.1806
 21
19.095
  0
LINE
  8
0
 10
68.1806
 20
19.095
 11
68.0534
 21
19.1152
  0
LINE
  8
0
 10
68.0534
 20
19.1152
 11
67.9277
 21
19.1433
  0
LINE
  8
0
 10
67.9277
 20
19.1433
 11
67.804
 21
19.1792
  0
LINE
  8
0
 10
67.804
 20
19.1792
 11
67.6828
 21
19.2228
  0
LINE
  8
0
 10
67.6828
 20
19.2228
 11
67.5646
 21
19.274
  0
LINE
  8
0
 10
67.5646
 20
19.274
 11
67.4499
 21
19.3324
  0
LINE
  8
0
 10
67.4499
 20
19.3324
 11
67.339
 21
19.398
  0
LINE
  8
0
 10
67.339
 20
19.398
 11
67.2325
 21
19.4704
  0
LINE
  8
0
 10
67.2325
 20
19.4704
 11
67.1308
 21
19.5493
  0
LINE
  8
0
 10
67.1308
 20
19.5493
 11
67.0342
 21
19.6345
  0
LINE
  8
0
 10
67.0342
 20
19.6345
 11
66.9431
 21
19.7255
  0
LINE
  8
0
 10
66.9431
 20
19.7255
 11
66.8579
 21
19.8221
  0
LINE
  8
0
 10
66.8579
 20
19.8221
 11
66.779
 21
19.9239
  0
LINE
  8
0
 10
66.779
 20
19.9239
 11
66.7066
 21
20.0304
  0
LINE
  8
0
 10
66.7066
 20
20.0304
 11
66.6411
 21
20.1413
  0
LINE
  8
0
 10
66.6411
 20
20.1413
 11
66.5826
 21
20.256
  0
LINE
  8
0
 10
66.5826
 20
20.256
 11
66.5315
 21
20.3742
  0
LINE
  8
0
 10
66.5315
 20
20.3742
 11
66.4878
 21
20.4954
  0
LINE
  8
0
 10
66.4878
 20
20.4954
 11
66.4519
 21
20.619
  0
LINE
  8
0
 10
66.4519
 20
20.619
 11
66.4238
 21
20.7447
  0
LINE
  8
0
 10
66.4238
 20
20.7447
 11
66.4036
 21
20.8719
  0
LINE
  8
0
 10
66.4036
 20
20.8719
 11
66.3915
 21
21.0001
  0
LINE
  8
0
 10
66.3915
 20
21.0001
 11
66.3875
 21
21.1288
  0
LINE
  8
0
 10
66.3875
 20
21.1288
 11
66.3915
 21
21.2576
  0
LINE
  8
0
 10
66.3915
 20
21.2576
 11
66.4036
 21
21.3858
  0
LINE
  8
0
 10
66.4036
 20
21.3858
 11
66.4238
 21
21.513
  0
LINE
  8
0
 10
66.4238
 20
21.513
 11
66.4519
 21
21.6387
  0
LINE
  8
0
 10
66.4519
 20
21.6387
 11
66.4878
 21
21.7623
  0
LINE
  8
0
 10
66.4878
 20
21.7623
 11
66.5315
 21
21.8835
  0
LINE
  8
0
 10
66.5315
 20
21.8835
 11
66.5826
 21
22.0017
  0
LINE
  8
0
 10
66.5826
 20
22.0017
 11
66.6411
 21
22.1164
  0
LINE
  8
0
 10
66.6411
 20
22.1164
 11
66.7066
 21
22.2273
  0
LINE
  8
0
 10
66.7066
 20
22.2273
 11
66.779
 21
22.3338
  0
LINE
  8
0
 10
66.779
 20
22.3338
 11
66.8579
 21
22.4356
  0
LINE
  8
0
 10
66.8579
 20
22.4356
 11
66.9431
 21
22.5322
  0
LINE
  8
0
 10
66.9431
 20
22.5322
 11
67.0342
 21
22.6232
  0
LINE
  8
0
 10
67.0342
 20
22.6232
 11
67.1308
 21
22.7084
  0
LINE
  8
0
 10
67.1308
 20
22.7084
 11
67.2325
 21
22.7873
  0
LINE
  8
0
 10
67.2325
 20
22.7873
 11
67.339
 21
22.8597
  0
LINE
  8
0
 10
67.339
 20
22.8597
 11
67.4499
 21
22.9253
  0
LINE
  8
0
 10
67.4499
 20
22.9253
 11
67.5646
 21
22.9838
  0
LINE
  8
0
 10
67.5646
 20
22.9838
 11
67.6828
 21
23.0349
  0
LINE
  8
0
 10
67.6828
 20
23.0349
 11
67.804
 21
23.0785
  0
LINE
  8
0
 10
67.804
 20
23.0785
 11
67.9277
 21
23.1144
  0
LINE
  8
0
 10
67.9277
 20
23.1144
 11
68.0534
 21
23.1426
  0
LINE
  8
0
 10
68.0534
 20
23.1426
 11
68.1806
 21
23.1627
  0
LINE
  8
0
 10
68.1806
 20
23.1627
 11
68.3088
 21
23.1748
  0
LINE
  8
0
 10
68.3088
 20
23.1748
 11
68.4375
 21
23.1789
  0
LINE
  8
0
 10
68.4375
 20
23.1789
 11
68.5662
 21
23.1748
  0
LINE
  8
0
 10
68.5662
 20
23.1748
 11
68.6944
 21
23.1627
  0
LINE
  8
0
 10
68.6944
 20
23.1627
 11
68.8216
 21
23.1426
  0
LINE
  8
0
 10
68.8216
 20
23.1426
 11
68.9473
 21
23.1144
  0
LINE
  8
0
 10
68.9473
 20
23.1144
 11
69.071
 21
23.0785
  0
LINE
  8
0
 10
69.071
 20
23.0785
 11
69.1921
 21
23.0349
  0
LINE
  8
0
 10
69.1921
 20
23.0349
 11
69.3103
 21
22.9838
  0
LINE
  8
0
 10
69.3103
 20
22.9838
 11
69.4251
 21
22.9253
  0
LINE
  8
0
 10
69.4251
 20
22.9253
 11
69.5359
 21
22.8597
  0
LINE
  8
0
 10
69.5359
 20
22.8597
 11
69.6424
 21
22.7873
  0
LINE
  8
0
 10
69.6424
 20
22.7873
 11
69.7442
 21
22.7084
  0
LINE
  8
0
 10
69.7442
 20
22.7084
 11
69.8408
 21
22.6232
  0
LINE
  8
0
 10
69.8408
 20
22.6232
 11
69.9319
 21
22.5322
  0
LINE
  8
0
 10
69.9319
 20
22.5322
 11
70.017
 21
22.4356
  0
LINE
  8
0
 10
70.017
 20
22.4356
 11
70.096
 21
22.3338
  0
LINE
  8
0
 10
70.096
 20
22.3338
 11
70.1684
 21
22.2273
  0
LINE
  8
0
 10
70.1684
 20
22.2273
 11
70.2339
 21
22.1164
  0
LINE
  8
0
 10
70.2339
 20
22.1164
 11
70.2924
 21
22.0017
  0
LINE
  8
0
 10
70.2924
 20
22.0017
 11
70.3435
 21
21.8835
  0
LINE
  8
0
 10
70.3435
 20
21.8835
 11
70.3872
 21
21.7623
  0
LINE
  8
0
 10
70.3872
 20
21.7623
 11
70.4231
 21
21.6387
  0
LINE
  8
0
 10
70.4231
 20
21.6387
 11
70.4512
 21
21.513
  0
LINE
  8
0
 10
70.4512
 20
21.513
 11
70.4713
 21
21.3858
  0
LINE
  8
0
 10
70.4713
 20
21.3858
 11
70.4835
 21
21.2576
  0
LINE
  8
0
 10
70.4835
 20
21.2576
 11
70.4875
 21
21.1288
  0
LINE
  8
0
 10
70.4875
 20
21.1288
 11
70.4835
 21
21.0001
  0
LINE
  8
0
 10
70.4835
 20
21.0001
 11
70.4713
 21
20.8719
  0
LINE
  8
0
 10
70.4713
 20
20.8719
 11
70.4512
 21
20.7447
  0
LINE
  8
0
 10
70.4512
 20
20.7447
 11
70.4231
 21
20.619
  0
LINE
  8
0
 10
70.4231
 20
20.619
 11
70.3872
 21
20.4954
  0
LINE
  8
0
 10
70.3872
 20
20.4954
 11
70.3435
 21
20.3742
  0
LINE
  8
0
 10
70.3435
 20
20.3742
 11
70.2924
 21
20.256
  0
LINE
  8
0
 10
70.2924
 20
20.256
 11
70.2339
 21
20.1413
  0
LINE
  8
0
 10
70.2339
 20
20.1413
 11
70.1684
 21
20.0304
  0
LINE
  8
0
 10
70.1684
 20
20.0304
 11
70.096
 21
19.9239
  0
LINE
  8
0
 10
70.096
 20
19.9239
 11
70.017
 21
19.8221
  0
LINE
  8
0
 10
70.017
 20
19.8221
 11
69.9319
 21
19.7255
  0
LINE
  8
0
 10
69.9319
 20
19.7255
 11
69.8408
 21
19.6345
  0
LINE
  8
0
 10
69.8408
 20
19.6345
 11
69.7442
 21
19.5493
  0
LINE
  8
0
 10
69.7442
 20
19.5493
 11
69.6424
 21
19.4704
  0
LINE
  8
0
 10
69.6424
 20
19.4704
 11
69.5359
 21
19.398
  0
LINE
  8
0
 10
69.5359
 20
19.398
 11
69.4251
 21
19.3324
  0
LINE
  8
0
 10
69.4251
 20
19.3324
 11
69.3103
 21
19.274
  0
LINE
  8
0
 10
69.3103
 20
19.274
 11
69.1921
 21
19.2228
  0
LINE
  8
0
 10
69.1921
 20
19.2228
 11
69.071
 21
19.1792
  0
LINE
  8
0
 10
69.071
 20
19.1792
 11
68.9473
 21
19.1433
  0
LINE
  8
0
 10
68.9473
 20
19.1433
 11
68.8216
 21
19.1152
  0
LINE
  8
0
 10
68.8216
 20
19.1152
 11
68.6944
 21
19.095
  0
LINE
  8
0
 10
68.6944
 20
19.095
 11
68.5662
 21
19.0829
  0
LINE
  8
0
 10
68.5662
 20
19.0829
 11
68.4375
 21
19.0789
  0
LINE
  8
0
 10
68.4375
 20
19.0789
 11
68.3088
 21
19.0829
  0
LINE
  8
0
 10
-68.5662
 20
1.65647
 11
-68.6944
 21
1.66858
  0
LINE
  8
0
 10
-68.6944
 20
1.66858
 11
-68.8216
 21
1.68872
  0
LINE
  8
0
 10
-68.8216
 20
1.68872
 11
-68.9473
 21
1.71681
  0
LINE
  8
0
 10
-68.9473
 20
1.71681
 11
-69.071
 21
1.75275
  0
LINE
  8
0
 10
-69.071
 20
1.75275
 11
-69.1921
 21
1.79637
  0
LINE
  8
0
 10
-69.1921
 20
1.79637
 11
-69.3103
 21
1.84752
  0
LINE
  8
0
 10
-69.3103
 20
1.84752
 11
-69.4251
 21
1.90599
  0
LINE
  8
0
 10
-69.4251
 20
1.90599
 11
-69.5359
 21
1.97155
  0
LINE
  8
0
 10
-69.5359
 20
1.97155
 11
-69.6424
 21
2.04393
  0
LINE
  8
0
 10
-69.6424
 20
2.04393
 11
-69.7442
 21
2.12287
  0
LINE
  8
0
 10
-69.7442
 20
2.12287
 11
-69.8408
 21
2.20803
  0
LINE
  8
0
 10
-69.8408
 20
2.20803
 11
-69.9319
 21
2.29909
  0
LINE
  8
0
 10
-69.9319
 20
2.29909
 11
-70.0171
 21
2.39569
  0
LINE
  8
0
 10
-70.0171
 20
2.39569
 11
-70.096
 21
2.49745
  0
LINE
  8
0
 10
-70.096
 20
2.49745
 11
-70.1684
 21
2.60398
  0
LINE
  8
0
 10
-70.1684
 20
2.60398
 11
-70.2339
 21
2.71482
  0
LINE
  8
0
 10
-70.2339
 20
2.71482
 11
-70.2924
 21
2.82956
  0
LINE
  8
0
 10
-70.2924
 20
2.82956
 11
-70.3435
 21
2.94776
  0
LINE
  8
0
 10
-70.3435
 20
2.94776
 11
-70.3872
 21
3.06893
  0
LINE
  8
0
 10
-70.3872
 20
3.06893
 11
-70.4231
 21
3.1926
  0
LINE
  8
0
 10
-70.4231
 20
3.1926
 11
-70.4512
 21
3.31829
  0
LINE
  8
0
 10
-70.4512
 20
3.31829
 11
-70.4713
 21
3.44548
  0
LINE
  8
0
 10
-70.4713
 20
3.44548
 11
-70.4835
 21
3.5737
  0
LINE
  8
0
 10
-70.4835
 20
3.5737
 11
-70.4875
 21
3.70241
  0
LINE
  8
0
 10
-70.4875
 20
3.70241
 11
-70.4835
 21
3.83113
  0
LINE
  8
0
 10
-70.4835
 20
3.83113
 11
-70.4713
 21
3.95935
  0
LINE
  8
0
 10
-70.4713
 20
3.95935
 11
-70.4512
 21
4.08655
  0
LINE
  8
0
 10
-70.4512
 20
4.08655
 11
-70.4231
 21
4.21224
  0
LINE
  8
0
 10
-70.4231
 20
4.21224
 11
-70.3872
 21
4.33589
  0
LINE
  8
0
 10
-70.3872
 20
4.33589
 11
-70.3435
 21
4.45706
  0
LINE
  8
0
 10
-70.3435
 20
4.45706
 11
-70.2924
 21
4.57526
  0
LINE
  8
0
 10
-70.2924
 20
4.57526
 11
-70.2339
 21
4.69001
  0
LINE
  8
0
 10
-70.2339
 20
4.69001
 11
-70.1684
 21
4.80086
  0
LINE
  8
0
 10
-70.1684
 20
4.80086
 11
-70.096
 21
4.90738
  0
LINE
  8
0
 10
-70.096
 20
4.90738
 11
-70.0171
 21
5.00914
  0
LINE
  8
0
 10
-70.0171
 20
5.00914
 11
-69.9319
 21
5.10573
  0
LINE
  8
0
 10
-69.9319
 20
5.10573
 11
-69.8408
 21
5.1968
  0
LINE
  8
0
 10
-69.8408
 20
5.1968
 11
-69.7442
 21
5.28197
  0
LINE
  8
0
 10
-69.7442
 20
5.28197
 11
-69.6424
 21
5.3609
  0
LINE
  8
0
 10
-69.6424
 20
5.3609
 11
-69.5359
 21
5.43329
  0
LINE
  8
0
 10
-69.5359
 20
5.43329
 11
-69.4251
 21
5.49884
  0
LINE
  8
0
 10
-69.4251
 20
5.49884
 11
-69.3103
 21
5.55731
  0
LINE
  8
0
 10
-69.3103
 20
5.55731
 11
-69.1921
 21
5.60846
  0
LINE
  8
0
 10
-69.1921
 20
5.60846
 11
-69.071
 21
5.65209
  0
LINE
  8
0
 10
-69.071
 20
5.65209
 11
-68.9473
 21
5.68801
  0
LINE
  8
0
 10
-68.9473
 20
5.68801
 11
-68.8216
 21
5.7161
  0
LINE
  8
0
 10
-68.8216
 20
5.7161
 11
-68.6944
 21
5.73625
  0
LINE
  8
0
 10
-68.6944
 20
5.73625
 11
-68.5662
 21
5.74837
  0
LINE
  8
0
 10
-68.5662
 20
5.74837
 11
-68.4375
 21
5.75241
  0
LINE
  8
0
 10
-68.4375
 20
5.75241
 11
-68.3088
 21
5.74837
  0
LINE
  8
0
 10
-68.3088
 20
5.74837
 11
-68.1806
 21
5.73625
  0
LINE
  8
0
 10
-68.1806
 20
5.73625
 11
-68.0534
 21
5.7161
  0
LINE
  8
0
 10
-68.0534
 20
5.7161
 11
-67.9277
 21
5.68801
  0
LINE
  8
0
 10
-67.9277
 20
5.68801
 11
-67.804
 21
5.65209
  0
LINE
  8
0
 10
-67.804
 20
5.65209
 11
-67.6828
 21
5.60846
  0
LINE
  8
0
 10
-67.6828
 20
5.60846
 11
-67.5646
 21
5.55731
  0
LINE
  8
0
 10
-67.5646
 20
5.55731
 11
-67.4499
 21
5.49884
  0
LINE
  8
0
 10
-67.4499
 20
5.49884
 11
-67.339
 21
5.43329
  0
LINE
  8
0
 10
-67.339
 20
5.43329
 11
-67.2325
 21
5.3609
  0
LINE
  8
0
 10
-67.2325
 20
5.3609
 11
-67.1308
 21
5.28197
  0
LINE
  8
0
 10
-67.1308
 20
5.28197
 11
-67.0342
 21
5.1968
  0
LINE
  8
0
 10
-67.0342
 20
5.1968
 11
-66.9431
 21
5.10573
  0
LINE
  8
0
 10
-66.9431
 20
5.10573
 11
-66.8579
 21
5.00914
  0
LINE
  8
0
 10
-66.8579
 20
5.00914
 11
-66.779
 21
4.90738
  0
LINE
  8
0
 10
-66.779
 20
4.90738
 11
-66.7066
 21
4.80086
  0
LINE
  8
0
 10
-66.7066
 20
4.80086
 11
-66.6411
 21
4.69001
  0
LINE
  8
0
 10
-66.6411
 20
4.69001
 11
-66.5826
 21
4.57526
  0
LINE
  8
0
 10
-66.5826
 20
4.57526
 11
-66.5315
 21
4.45706
  0
LINE
  8
0
 10
-66.5315
 20
4.45706
 11
-66.4878
 21
4.33589
  0
LINE
  8
0
 10
-66.4878
 20
4.33589
 11
-66.4519
 21
4.21224
  0
LINE
  8
0
 10
-66.4519
 20
4.21224
 11
-66.4238
 21
4.08655
  0
LINE
  8
0
 10
-66.4238
 20
4.08655
 11
-66.4037
 21
3.95935
  0
LINE
  8
0
 10
-66.4037
 20
3.95935
 11
-66.3915
 21
3.83113
  0
LINE
  8
0
 10
-66.3915
 20
3.83113
 11
-66.3875
 21
3.70241
  0
LINE
  8
0
 10
-66.3875
 20
3.70241
 11
-66.3915
 21
3.5737
  0
LINE
  8
0
 10
-66.3915
 20
3.5737
 11
-66.4037
 21
3.44548
  0
LINE
  8
0
 10
-66.4037
 20
3.44548
 11
-66.4238
 21
3.31829
  0
LINE
  8
0
 10
-66.4238
 20
3.31829
 11
-66.4519
 21
3.1926
  0
LINE
  8
0
 10
-66.4519
 20
3.1926
 11
-66.4878
 21
3.06893
  0
LINE
  8
0
 10
-66.4878
 20
3.06893
 11
-66.5315
 21
2.94776
  0
LINE
  8
0
 10
-66.5315
 20
2.94776
 11
-66.5826
 21
2.82956
  0
LINE
  8
0
 10
-66.5826
 20
2.82956
 11
-66.6411
 21
2.71482
  0
LINE
  8
0
 10
-66.6411
 20
2.71482
 11
-66.7066
 21
2.60398
  0
LINE
  8
0
 10
-66.7066
 20
2.60398
 11
-66.779
 21
2.49745
  0
LINE
  8
0
 10
-66.779
 20
2.49745
 11
-66.8579
 21
2.39569
  0
LINE
  8
0
 10
-66.8579
 20
2.39569
 11
-66.9431
 21
2.29909
  0
LINE
  8
0
 10
-66.9431
 20
2.29909
 11
-67.0342
 21
2.20803
  0
LINE
  8
0
 10
-67.0342
 20
2.20803
 11
-67.1308
 21
2.12287
  0
LINE
  8
0
 10
-67.1308
 20
2.12287
 11
-67.2325
 21
2.04393
  0
LINE
  8
0
 10
-67.2325
 20
2.04393
 11
-67.339
 21
1.97155
  0
LINE
  8
0
 10
-67.339
 20
1.97155
 11
-67.4499
 21
1.90599
  0
LINE
  8
0
 10
-67.4499
 20
1.90599
 11
-67.5646
 21
1.84752
  0
LINE
  8
0
 10
-67.5646
 20
1.84752
 11
-67.6828
 21
1.79637
  0
LINE
  8
0
 10
-67.6828
 20
1.79637
 11
-67.804
 21
1.75275
  0
LINE
  8
0
 10
-67.804
 20
1.75275
 11
-67.9277
 21
1.71681
  0
LINE
  8
0
 10
-67.9277
 20
1.71681
 11
-68.0534
 21
1.68872
  0
LINE
  8
0
 10
-68.0534
 20
1.68872
 11
-68.1806
 21
1.66858
  0
LINE
  8
0
 10
-68.1806
 20
1.66858
 11
-68.3088
 21
1.65647
  0
LINE
  8
0
 10
-68.3088
 20
1.65647
 11
-68.4375
 21
1.65242
  0
LINE
  8
0
 10
-68.4375
 20
1.65242
 11
-68.5662
 21
1.65647
  0
LINE
  8
0
 10
-0.160269
 20
-2.54747
 11
-0.319907
 21
-2.53238
  0
LINE
  8
0
 10
-0.319907
 20
-2.53238
 11
-0.478278
 21
-2.50729
  0
LINE
  8
0
 10
-0.478278
 20
-2.50729
 11
-0.634772
 21
-2.47232
  0
LINE
  8
0
 10
-0.634772
 20
-2.47232
 11
-0.788763
 21
-2.42758
  0
LINE
  8
0
 10
-0.788763
 20
-2.42758
 11
-0.939627
 21
-2.37326
  0
LINE
  8
0
 10
-0.939627
 20
-2.37326
 11
-1.0868
 21
-2.30958
  0
LINE
  8
0
 10
-1.0868
 20
-2.30958
 11
-1.22967
 21
-2.23678
  0
LINE
  8
0
 10
-1.22967
 20
-2.23678
 11
-1.3677
 21
-2.15515
  0
LINE
  8
0
 10
-1.3677
 20
-2.15515
 11
-1.50031
 21
-2.06503
  0
LINE
  8
0
 10
-1.50031
 20
-2.06503
 11
-1.62702
 21
-1.96675
  0
LINE
  8
0
 10
-1.62702
 20
-1.96675
 11
-1.74731
 21
-1.8607
  0
LINE
  8
0
 10
-1.74731
 20
-1.8607
 11
-1.86068
 21
-1.74731
  0
LINE
  8
0
 10
-1.86068
 20
-1.74731
 11
-1.96673
 21
-1.62703
  0
LINE
  8
0
 10
-1.96673
 20
-1.62703
 11
-2.06501
 21
-1.50033
  0
LINE
  8
0
 10
-2.06501
 20
-1.50033
 11
-2.15514
 21
-1.3677
  0
LINE
  8
0
 10
-2.15514
 20
-1.3677
 11
-2.23676
 21
-1.22969
  0
LINE
  8
0
 10
-2.23676
 20
-1.22969
 11
-2.30956
 21
-1.0868
  0
LINE
  8
0
 10
-2.30956
 20
-1.0868
 11
-2.37325
 21
-0.939649
  0
LINE
  8
0
 10
-2.37325
 20
-0.939649
 11
-2.42756
 21
-0.78877
  0
LINE
  8
0
 10
-2.42756
 20
-0.78877
 11
-2.4723
 21
-0.634793
  0
LINE
  8
0
 10
-2.4723
 20
-0.634793
 11
-2.50728
 21
-0.478299
  0
LINE
  8
0
 10
-2.50728
 20
-0.478299
 11
-2.53237
 21
-0.319928
  0
LINE
  8
0
 10
-2.53237
 20
-0.319928
 11
-2.54746
 21
-0.160275
  0
LINE
  8
0
 10
-2.54746
 20
-0.160275
 11
-2.5525
 21
-1.24169e-05
  0
LINE
  8
0
 10
-2.5525
 20
-1.24169e-05
 11
-2.54746
 21
0.160266
  0
LINE
  8
0
 10
-2.54746
 20
0.160266
 11
-2.53237
 21
0.319903
  0
LINE
  8
0
 10
-2.53237
 20
0.319903
 11
-2.50728
 21
0.47829
  0
LINE
  8
0
 10
-2.50728
 20
0.47829
 11
-2.4723
 21
0.634768
  0
LINE
  8
0
 10
-2.4723
 20
0.634768
 11
-2.42756
 21
0.78876
  0
LINE
  8
0
 10
-2.42756
 20
0.78876
 11
-2.37325
 21
0.939624
  0
LINE
  8
0
 10
-2.37325
 20
0.939624
 11
-2.30956
 21
1.08679
  0
LINE
  8
0
 10
-2.30956
 20
1.08679
 11
-2.23676
 21
1.22966
  0
LINE
  8
0
 10
-2.23676
 20
1.22966
 11
-2.15514
 21
1.36769
  0
LINE
  8
0
 10
-2.15514
 20
1.36769
 11
-2.06501
 21
1.50031
  0
LINE
  8
0
 10
-2.06501
 20
1.50031
 11
-1.96673
 21
1.62702
  0
LINE
  8
0
 10
-1.96673
 20
1.62702
 11
-1.86068
 21
1.7473
  0
LINE
  8
0
 10
-1.86068
 20
1.7473
 11
-1.74731
 21
1.86069
  0
LINE
  8
0
 10
-1.74731
 20
1.86069
 11
-1.62702
 21
1.96672
  0
LINE
  8
0
 10
-1.62702
 20
1.96672
 11
-1.50031
 21
2.06501
  0
LINE
  8
0
 10
-1.50031
 20
2.06501
 11
-1.3677
 21
2.15514
  0
LINE
  8
0
 10
-1.3677
 20
2.15514
 11
-1.22967
 21
2.23676
  0
LINE
  8
0
 10
-1.22967
 20
2.23676
 11
-1.0868
 21
2.30956
  0
LINE
  8
0
 10
-1.0868
 20
2.30956
 11
-0.939627
 21
2.37325
  0
LINE
  8
0
 10
-0.939627
 20
2.37325
 11
-0.788763
 21
2.42757
  0
LINE
  8
0
 10
-0.788763
 20
2.42757
 11
-0.634772
 21
2.47231
  0
LINE
  8
0
 10
-0.634772
 20
2.47231
 11
-0.478278
 21
2.50728
  0
LINE
  8
0
 10
-0.478278
 20
2.50728
 11
-0.319907
 21
2.53237
  0
LINE
  8
0
 10
-0.319907
 20
2.53237
 11
-0.160269
 21
2.54746
  0
LINE
  8
0
 10
-0.160269
 20
2.54746
 11
9.15527e-06
 21
2.55249
  0
LINE
  8
0
 10
9.15527e-06
 20
2.55249
 11
0.160287
 21
2.54746
  0
LINE
  8
0
 10
0.160287
 20
2.54746
 11
0.319925
 21
2.53237
  0
LINE
  8
0
 10
0.319925
 20
2.53237
 11
0.478296
 21
2.50728
  0
LINE
  8
0
 10
0.478296
 20
2.50728
 11
0.63479
 21
2.47231
  0
LINE
  8
0
 10
0.63479
 20
2.47231
 11
0.788766
 21
2.42757
  0
LINE
  8
0
 10
0.788766
 20
2.42757
 11
0.939645
 21
2.37325
  0
LINE
  8
0
 10
0.939645
 20
2.37325
 11
1.08682
 21
2.30956
  0
LINE
  8
0
 10
1.08682
 20
2.30956
 11
1.22968
 21
2.23676
  0
LINE
  8
0
 10
1.22968
 20
2.23676
 11
1.3677
 21
2.15514
  0
LINE
  8
0
 10
1.3677
 20
2.15514
 11
1.50033
 21
2.06501
  0
LINE
  8
0
 10
1.50033
 20
2.06501
 11
1.62704
 21
1.96672
  0
LINE
  8
0
 10
1.62704
 20
1.96672
 11
1.74731
 21
1.86069
  0
LINE
  8
0
 10
1.74731
 20
1.86069
 11
1.8607
 21
1.7473
  0
LINE
  8
0
 10
1.8607
 20
1.7473
 11
1.96674
 21
1.62702
  0
LINE
  8
0
 10
1.96674
 20
1.62702
 11
2.06503
 21
1.50031
  0
LINE
  8
0
 10
2.06503
 20
1.50031
 11
2.15516
 21
1.36769
  0
LINE
  8
0
 10
2.15516
 20
1.36769
 11
2.23678
 21
1.22966
  0
LINE
  8
0
 10
2.23678
 20
1.22966
 11
2.30958
 21
1.08679
  0
LINE
  8
0
 10
2.30958
 20
1.08679
 11
2.37327
 21
0.939624
  0
LINE
  8
0
 10
2.37327
 20
0.939624
 11
2.42758
 21
0.78876
  0
LINE
  8
0
 10
2.42758
 20
0.78876
 11
2.47231
 21
0.634768
  0
LINE
  8
0
 10
2.47231
 20
0.634768
 11
2.5073
 21
0.47829
  0
LINE
  8
0
 10
2.5073
 20
0.47829
 11
2.53237
 21
0.319903
  0
LINE
  8
0
 10
2.53237
 20
0.319903
 11
2.54746
 21
0.160266
  0
LINE
  8
0
 10
2.54746
 20
0.160266
 11
2.55251
 21
-1.24169e-05
  0
LINE
  8
0
 10
2.55251
 20
-1.24169e-05
 11
2.54746
 21
-0.160275
  0
LINE
  8
0
 10
2.54746
 20
-0.160275
 11
2.53237
 21
-0.319928
  0
LINE
  8
0
 10
2.53237
 20
-0.319928
 11
2.5073
 21
-0.478299
  0
LINE
  8
0
 10
2.5073
 20
-0.478299
 11
2.47231
 21
-0.634793
  0
LINE
  8
0
 10
2.47231
 20
-0.634793
 11
2.42758
 21
-0.78877
  0
LINE
  8
0
 10
2.42758
 20
-0.78877
 11
2.37327
 21
-0.939649
  0
LINE
  8
0
 10
2.37327
 20
-0.939649
 11
2.30958
 21
-1.0868
  0
LINE
  8
0
 10
2.30958
 20
-1.0868
 11
2.23678
 21
-1.22969
  0
LINE
  8
0
 10
2.23678
 20
-1.22969
 11
2.15516
 21
-1.3677
  0
LINE
  8
0
 10
2.15516
 20
-1.3677
 11
2.06503
 21
-1.50033
  0
LINE
  8
0
 10
2.06503
 20
-1.50033
 11
1.96674
 21
-1.62703
  0
LINE
  8
0
 10
1.96674
 20
-1.62703
 11
1.8607
 21
-1.74731
  0
LINE
  8
0
 10
1.8607
 20
-1.74731
 11
1.74731
 21
-1.8607
  0
LINE
  8
0
 10
1.74731
 20
-1.8607
 11
1.62704
 21
-1.96675
  0
LINE
  8
0
 10
1.62704
 20
-1.96675
 11
1.50033
 21
-2.06503
  0
LINE
  8
0
 10
1.50033
 20
-2.06503
 11
1.3677
 21
-2.15515
  0
LINE
  8
0
 10
1.3677
 20
-2.15515
 11
1.22968
 21
-2.23678
  0
LINE
  8
0
 10
1.22968
 20
-2.23678
 11
1.08682
 21
-2.30958
  0
LINE
  8
0
 10
1.08682
 20
-2.30958
 11
0.939645
 21
-2.37326
  0
LINE
  8
0
 10
0.939645
 20
-2.37326
 11
0.788766
 21
-2.42758
  0
LINE
  8
0
 10
0.788766
 20
-2.42758
 11
0.63479
 21
-2.47232
  0
LINE
  8
0
 10
0.63479
 20
-2.47232
 11
0.478296
 21
-2.50729
  0
LINE
  8
0
 10
0.478296
 20
-2.50729
 11
0.319925
 21
-2.53238
  0
LINE
  8
0
 10
0.319925
 20
-2.53238
 11
0.160287
 21
-2.54747
  0
LINE
  8
0
 10
0.160287
 20
-2.54747
 11
9.15527e-06
 21
-2.5525
  0
LINE
  8
0
 10
9.15527e-06
 20
-2.5525
 11
-0.160269
 21
-2.54747
  0
LINE
  8
0
 10
29.8397
 20
-2.54747
 11
29.6801
 21
-2.53238
  0
LINE
  8
0
 10
29.6801
 20
-2.53238
 11
29.5217
 21
-2.50729
  0
LINE
  8
0
 10
29.5217
 20
-2.50729
 11
29.3652
 21
-2.47232
  0
LINE
  8
0
 10
29.3652
 20
-2.47232
 11
29.2112
 21
-2.42758
  0
LINE
  8
0
 10
29.2112
 20
-2.42758
 11
29.0604
 21
-2.37326
  0
LINE
  8
0
 10
29.0604
 20
-2.37326
 11
28.9132
 21
-2.30958
  0
LINE
  8
0
 10
28.9132
 20
-2.30958
 11
28.7703
 21
-2.23678
  0
LINE
  8
0
 10
28.7703
 20
-2.23678
 11
28.6323
 21
-2.15515
  0
LINE
  8
0
 10
28.6323
 20
-2.15515
 11
28.4997
 21
-2.06503
  0
LINE
  8
0
 10
28.4997
 20
-2.06503
 11
28.373
 21
-1.96675
  0
LINE
  8
0
 10
28.373
 20
-1.96675
 11
28.2527
 21
-1.8607
  0
LINE
  8
0
 10
28.2527
 20
-1.8607
 11
28.1393
 21
-1.74731
  0
LINE
  8
0
 10
28.1393
 20
-1.74731
 11
28.0333
 21
-1.62703
  0
LINE
  8
0
 10
28.0333
 20
-1.62703
 11
27.935
 21
-1.50033
  0
LINE
  8
0
 10
27.935
 20
-1.50033
 11
27.8449
 21
-1.3677
  0
LINE
  8
0
 10
27.8449
 20
-1.3677
 11
27.7632
 21
-1.22969
  0
LINE
  8
0
 10
27.7632
 20
-1.22969
 11
27.6904
 21
-1.0868
  0
LINE
  8
0
 10
27.6904
 20
-1.0868
 11
27.6267
 21
-0.939649
  0
LINE
  8
0
 10
27.6267
 20
-0.939649
 11
27.5724
 21
-0.78877
  0
LINE
  8
0
 10
27.5724
 20
-0.78877
 11
27.5277
 21
-0.634793
  0
LINE
  8
0
 10
27.5277
 20
-0.634793
 11
27.4927
 21
-0.478299
  0
LINE
  8
0
 10
27.4927
 20
-0.478299
 11
27.4676
 21
-0.319928
  0
LINE
  8
0
 10
27.4676
 20
-0.319928
 11
27.4525
 21
-0.160275
  0
LINE
  8
0
 10
27.4525
 20
-0.160275
 11
27.4475
 21
-1.24169e-05
  0
LINE
  8
0
 10
27.4475
 20
-1.24169e-05
 11
27.4525
 21
0.160266
  0
LINE
  8
0
 10
27.4525
 20
0.160266
 11
27.4676
 21
0.319903
  0
LINE
  8
0
 10
27.4676
 20
0.319903
 11
27.4927
 21
0.47829
  0
LINE
  8
0
 10
27.4927
 20
0.47829
 11
27.5277
 21
0.634768
  0
LINE
  8
0
 10
27.5277
 20
0.634768
 11
27.5724
 21
0.78876
  0
LINE
  8
0
 10
27.5724
 20
0.78876
 11
27.6267
 21
0.939624
  0
LINE
  8
0
 10
27.6267
 20
0.939624
 11
27.6904
 21
1.08679
  0
LINE
  8
0
 10
27.6904
 20
1.08679
 11
27.7632
 21
1.22966
  0
LINE
  8
0
 10
27.7632
 20
1.22966
 11
27.8449
 21
1.36769
  0
LINE
  8
0
 10
27.8449
 20
1.36769
 11
27.935
 21
1.50031
  0
LINE
  8
0
 10
27.935
 20
1.50031
 11
28.0333
 21
1.62702
  0
LINE
  8
0
 10
28.0333
 20
1.62702
 11
28.1393
 21
1.7473
  0
LINE
  8
0
 10
28.1393
 20
1.7473
 11
28.2527
 21
1.86069
  0
LINE
  8
0
 10
28.2527
 20
1.86069
 11
28.373
 21
1.96672
  0
LINE
  8
0
 10
28.373
 20
1.96672
 11
28.4997
 21
2.06501
  0
LINE
  8
0
 10
28.4997
 20
2.06501
 11
28.6323
 21
2.15514
  0
LINE
  8
0
 10
28.6323
 20
2.15514
 11
28.7703
 21
2.23676
  0
LINE
  8
0
 10
28.7703
 20
2.23676
 11
28.9132
 21
2.30956
  0
LINE
  8
0
 10
28.9132
 20
2.30956
 11
29.0604
 21
2.37325
  0
LINE
  8
0
 10
29.0604
 20
2.37325
 11
29.2112
 21
2.42757
  0
LINE
  8
0
 10
29.2112
 20
2.42757
 11
29.3652
 21
2.47231
  0
LINE
  8
0
 10
29.3652
 20
2.47231
 11
29.5217
 21
2.50728
  0
LINE
  8
0
 10
29.5217
 20
2.50728
 11
29.6801
 21
2.53237
  0
LINE
  8
0
 10
29.6801
 20
2.53237
 11
29.8397
 21
2.54746
  0
LINE
  8
0
 10
29.8397
 20
2.54746
 11
30
 21
2.55249
  0
LINE
  8
0
 10
30
 20
2.55249
 11
30.1603
 21
2.54746
  0
LINE
  8
0
 10
30.1603
 20
2.54746
 11
30.3199
 21
2.53237
  0
LINE
  8
0
 10
30.3199
 20
2.53237
 11
30.4783
 21
2.50728
  0
LINE
  8
0
 10
30.4783
 20
2.50728
 11
30.6348
 21
2.47231
  0
LINE
  8
0
 10
30.6348
 20
2.47231
 11
30.7888
 21
2.42757
  0
LINE
  8
0
 10
30.7888
 20
2.42757
 11
30.9396
 21
2.37325
  0
LINE
  8
0
 10
30.9396
 20
2.37325
 11
31.0868
 21
2.30956
  0
LINE
  8
0
 10
31.0868
 20
2.30956
 11
31.2297
 21
2.23676
  0
LINE
  8
0
 10
31.2297
 20
2.23676
 11
31.3677
 21
2.15514
  0
LINE
  8
0
 10
31.3677
 20
2.15514
 11
31.5003
 21
2.06501
  0
LINE
  8
0
 10
31.5003
 20
2.06501
 11
31.627
 21
1.96672
  0
LINE
  8
0
 10
31.627
 20
1.96672
 11
31.7473
 21
1.86069
  0
LINE
  8
0
 10
31.7473
 20
1.86069
 11
31.8607
 21
1.7473
  0
LINE
  8
0
 10
31.8607
 20
1.7473
 11
31.9667
 21
1.62702
  0
LINE
  8
0
 10
31.9667
 20
1.62702
 11
32.065
 21
1.50031
  0
LINE
  8
0
 10
32.065
 20
1.50031
 11
32.1552
 21
1.36769
  0
LINE
  8
0
 10
32.1552
 20
1.36769
 11
32.2368
 21
1.22966
  0
LINE
  8
0
 10
32.2368
 20
1.22966
 11
32.3096
 21
1.08679
  0
LINE
  8
0
 10
32.3096
 20
1.08679
 11
32.3733
 21
0.939624
  0
LINE
  8
0
 10
32.3733
 20
0.939624
 11
32.4276
 21
0.78876
  0
LINE
  8
0
 10
32.4276
 20
0.78876
 11
32.4723
 21
0.634768
  0
LINE
  8
0
 10
32.4723
 20
0.634768
 11
32.5073
 21
0.47829
  0
LINE
  8
0
 10
32.5073
 20
0.47829
 11
32.5324
 21
0.319903
  0
LINE
  8
0
 10
32.5324
 20
0.319903
 11
32.5475
 21
0.160266
  0
LINE
  8
0
 10
32.5475
 20
0.160266
 11
32.5525
 21
-1.24169e-05
  0
LINE
  8
0
 10
32.5525
 20
-1.24169e-05
 11
32.5475
 21
-0.160275
  0
LINE
  8
0
 10
32.5475
 20
-0.160275
 11
32.5324
 21
-0.319928
  0
LINE
  8
0
 10
32.5324
 20
-0.319928
 11
32.5073
 21
-0.478299
  0
LINE
  8
0
 10
32.5073
 20
-0.478299
 11
32.4723
 21
-0.634793
  0
LINE
  8
0
 10
32.4723
 20
-0.634793
 11
32.4276
 21
-0.78877
  0
LINE
  8
0
 10
32.4276
 20
-0.78877
 11
32.3733
 21
-0.939649
  0
LINE
  8
0
 10
32.3733
 20
-0.939649
 11
32.3096
 21
-1.0868
  0
LINE
  8
0
 10
32.3096
 20
-1.0868
 11
32.2368
 21
-1.22969
  0
LINE
  8
0
 10
32.2368
 20
-1.22969
 11
32.1552
 21
-1.3677
  0
LINE
  8
0
 10
32.1552
 20
-1.3677
 11
32.065
 21
-1.50033
  0
LINE
  8
0
 10
32.065
 20
-1.50033
 11
31.9667
 21
-1.62703
  0
LINE
  8
0
 10
31.9667
 20
-1.62703
 11
31.8607
 21
-1.74731
  0
LINE
  8
0
 10
31.8607
 20
-1.74731
 11
31.7473
 21
-1.8607
  0
LINE
  8
0
 10
31.7473
 20
-1.8607
 11
31.627
 21
-1.96675
  0
LINE
  8
0
 10
31.627
 20
-1.96675
 11
31.5003
 21
-2.06503
  0
LINE
  8
0
 10
31.5003
 20
-2.06503
 11
31.3677
 21
-2.15515
  0
LINE
  8
0
 10
31.3677
 20
-2.15515
 11
31.2297
 21
-2.23678
  0
LINE
  8
0
 10
31.2297
 20
-2.23678
 11
31.0868
 21
-2.30958
  0
LINE
  8
0
 10
31.0868
 20
-2.30958
 11
30.9396
 21
-2.37326
  0
LINE
  8
0
 10
30.9396
 20
-2.37326
 11
30.7888
 21
-2.42758
  0
LINE
  8
0
 10
30.7888
 20
-2.42758
 11
30.6348
 21
-2.47232
  0
LINE
  8
0
 10
30.6348
 20
-2.47232
 11
30.4783
 21
-2.50729
  0
LINE
  8
0
 10
30.4783
 20
-2.50729
 11
30.3199
 21
-2.53238
  0
LINE
  8
0
 10
30.3199
 20
-2.53238
 11
30.1603
 21
-2.54747
  0
LINE
  8
0
 10
30.1603
 20
-2.54747
 11
30
 21
-2.5525
  0
LINE
  8
0
 10
30
 20
-2.5525
 11
29.8397
 21
-2.54747
  0
LINE
  8
0
 10
-30.1603
 20
-2.54747
 11
-30.3199
 21
-2.53238
  0
LINE
  8
0
 10
-30.3199
 20
-2.53238
 11
-30.4783
 21
-2.50729
  0
LINE
  8
0
 10
-30.4783
 20
-2.50729
 11
-30.6348
 21
-2.47232
  0
LINE
  8
0
 10
-30.6348
 20
-2.47232
 11
-30.7888
 21
-2.42758
  0
LINE
  8
0
 10
-30.7888
 20
-2.42758
 11
-30.9396
 21
-2.37326
  0
LINE
  8
0
 10
-30.9396
 20
-2.37326
 11
-31.0868
 21
-2.30958
  0
LINE
  8
0
 10
-31.0868
 20
-2.30958
 11
-31.2297
 21
-2.23678
  0
LINE
  8
0
 10
-31.2297
 20
-2.23678
 11
-31.3677
 21
-2.15515
  0
LINE
  8
0
 10
-31.3677
 20
-2.15515
 11
-31.5003
 21
-2.06503
  0
LINE
  8
0
 10
-31.5003
 20
-2.06503
 11
-31.627
 21
-1.96675
  0
LINE
  8
0
 10
-31.627
 20
-1.96675
 11
-31.7473
 21
-1.8607
  0
LINE
  8
0
 10
-31.7473
 20
-1.8607
 11
-31.8607
 21
-1.74731
  0
LINE
  8
0
 10
-31.8607
 20
-1.74731
 11
-31.9667
 21
-1.62703
  0
LINE
  8
0
 10
-31.9667
 20
-1.62703
 11
-32.065
 21
-1.50033
  0
LINE
  8
0
 10
-32.065
 20
-1.50033
 11
-32.1551
 21
-1.3677
  0
LINE
  8
0
 10
-32.1551
 20
-1.3677
 11
-32.2368
 21
-1.22969
  0
LINE
  8
0
 10
-32.2368
 20
-1.22969
 11
-32.3096
 21
-1.0868
  0
LINE
  8
0
 10
-32.3096
 20
-1.0868
 11
-32.3733
 21
-0.939649
  0
LINE
  8
0
 10
-32.3733
 20
-0.939649
 11
-32.4276
 21
-0.78877
  0
LINE
  8
0
 10
-32.4276
 20
-0.78877
 11
-32.4723
 21
-0.634793
  0
LINE
  8
0
 10
-32.4723
 20
-0.634793
 11
-32.5073
 21
-0.478299
  0
LINE
  8
0
 10
-32.5073
 20
-0.478299
 11
-32.5324
 21
-0.319928
  0
LINE
  8
0
 10
-32.5324
 20
-0.319928
 11
-32.5475
 21
-0.160275
  0
LINE
  8
0
 10
-32.5475
 20
-0.160275
 11
-32.5525
 21
-1.24169e-05
  0
LINE
  8
0
 10
-32.5525
 20
-1.24169e-05
 11
-32.5475
 21
0.160266
  0
LINE
  8
0
 10
-32.5475
 20
0.160266
 11
-32.5324
 21
0.319903
  0
LINE
  8
0
 10
-32.5324
 20
0.319903
 11
-32.5073
 21
0.47829
  0
LINE
  8
0
 10
-32.5073
 20
0.47829
 11
-32.4723
 21
0.634768
  0
LINE
  8
0
 10
-32.4723
 20
0.634768
 11
-32.4276
 21
0.78876
  0
LINE
  8
0
 10
-32.4276
 20
0.78876
 11
-32.3733
 21
0.939624
  0
LINE
  8
0
 10
-32.3733
 20
0.939624
 11
-32.3096
 21
1.08679
  0
LINE
  8
0
 10
-32.3096
 20
1.08679
 11
-32.2368
 21
1.22966
  0
LINE
  8
0
 10
-32.2368
 20
1.22966
 11
-32.1551
 21
1.36769
  0
LINE
  8
0
 10
-32.1551
 20
1.36769
 11
-32.065
 21
1.50031
  0
LINE
  8
0
 10
-32.065
 20
1.50031
 11
-31.9667
 21
1.62702
  0
LINE
  8
0
 10
-31.9667
 20
1.62702
 11
-31.8607
 21
1.7473
  0
LINE
  8
0
 10
-31.8607
 20
1.7473
 11
-31.7473
 21
1.86069
  0
LINE
  8
0
 10
-31.7473
 20
1.86069
 11
-31.627
 21
1.96672
  0
LINE
  8
0
 10
-31.627
 20
1.96672
 11
-31.5003
 21
2.06501
  0
LINE
  8
0
 10
-31.5003
 20
2.06501
 11
-31.3677
 21
2.15514
  0
LINE
  8
0
 10
-31.3677
 20
2.15514
 11
-31.2297
 21
2.23676
  0
LINE
  8
0
 10
-31.2297
 20
2.23676
 11
-31.0868
 21
2.30956
  0
LINE
  8
0
 10
-31.0868
 20
2.30956
 11
-30.9396
 21
2.37325
  0
LINE
  8
0
 10
-30.9396
 20
2.37325
 11
-30.7888
 21
2.42757
  0
LINE
  8
0
 10
-30.7888
 20
2.42757
 11
-30.6348
 21
2.47231
  0
LINE
  8
0
 10
-30.6348
 20
2.47231
 11
-30.4783
 21
2.50728
  0
LINE
  8
0
 10
-30.4783
 20
2.50728
 11
-30.3199
 21
2.53237
  0
LINE
  8
0
 10
-30.3199
 20
2.53237
 11
-30.1603
 21
2.54746
  0
LINE
  8
0
 10
-30.1603
 20
2.54746
 11
-30
 21
2.55249
  0
LINE
  8
0
 10
-30
 20
2.55249
 11
-29.8397
 21
2.54746
  0
LINE
  8
0
 10
-29.8397
 20
2.54746
 11
-29.6801
 21
2.53237
  0
LINE
  8
0
 10
-29.6801
 20
2.53237
 11
-29.5217
 21
2.50728
  0
LINE
  8
0
 10
-29.5217
 20
2.50728
 11
-29.3652
 21
2.47231
  0
LINE
  8
0
 10
-29.3652
 20
2.47231
 11
-29.2112
 21
2.42757
  0
LINE
  8
0
 10
-29.2112
 20
2.42757
 11
-29.0604
 21
2.37325
  0
LINE
  8
0
 10
-29.0604
 20
2.37325
 11
-28.9132
 21
2.30956
  0
LINE
  8
0
 10
-28.9132
 20
2.30956
 11
-28.7703
 21
2.23676
  0
LINE
  8
0
 10
-28.7703
 20
2.23676
 11
-28.6323
 21
2.15514
  0
LINE
  8
0
 10
-28.6323
 20
2.15514
 11
-28.4997
 21
2.06501
  0
LINE
  8
0
 10
-28.4997
 20
2.06501
 11
-28.373
 21
1.96672
  0
LINE
  8
0
 10
-28.373
 20
1.96672
 11
-28.2527
 21
1.86069
  0
LINE
  8
0
 10
-28.2527
 20
1.86069
 11
-28.1393
 21
1.7473
  0
LINE
  8
0
 10
-28.1393
 20
1.7473
 11
-28.0333
 21
1.62702
  0
LINE
  8
0
 10
-28.0333
 20
1.62702
 11
-27.935
 21
1.50031
  0
LINE
  8
0
 10
-27.935
 20
1.50031
 11
-27.8448
 21
1.36769
  0
LINE
  8
0
 10
-27.8448
 20
1.36769
 11
-27.7632
 21
1.22966
  0
LINE
  8
0
 10
-27.7632
 20
1.22966
 11
-27.6904
 21
1.08679
  0
LINE
  8
0
 10
-27.6904
 20
1.08679
 11
-27.6267
 21
0.939624
  0
LINE
  8
0
 10
-27.6267
 20
0.939624
 11
-27.5724
 21
0.78876
  0
LINE
  8
0
 10
-27.5724
 20
0.78876
 11
-27.5277
 21
0.634768
  0
LINE
  8
0
 10
-27.5277
 20
0.634768
 11
-27.4927
 21
0.47829
  0
LINE
  8
0
 10
-27.4927
 20
0.47829
 11
-27.4676
 21
0.319903
  0
LINE
  8
0
 10
-27.4676
 20
0.319903
 11
-27.4525
 21
0.160266
  0
LINE
  8
0
 10
-27.4525
 20
0.160266
 11
-27.4475
 21
-1.24169e-05
  0
LINE
  8
0
 10
-27.4475
 20
-1.24169e-05
 11
-27.4525
 21
-0.160275
  0
LINE
  8
0
 10
-27.4525
 20
-0.160275
 11
-27.4676
 21
-0.319928
  0
LINE
  8
0
 10
-27.4676
 20
-0.319928
 11
-27.4927
 21
-0.478299
  0
LINE
  8
0
 10
-27.4927
 20
-0.478299
 11
-27.5277
 21
-0.634793
  0
LINE
  8
0
 10
-27.5277
 20
-0.634793
 11
-27.5724
 21
-0.78877
  0
LINE
  8
0
 10
-27.5724
 20
-0.78877
 11
-27.6267
 21
-0.939649
  0
LINE
  8
0
 10
-27.6267
 20
-0.939649
 11
-27.6904
 21
-1.0868
  0
LINE
  8
0
 10
-27.6904
 20
-1.0868
 11
-27.7632
 21
-1.22969
  0
LINE
  8
0
 10
-27.7632
 20
-1.22969
 11
-27.8448
 21
-1.3677
  0
LINE
  8
0
 10
-27.8448
 20
-1.3677
 11
-27.935
 21
-1.50033
  0
LINE
  8
0
 10
-27.935
 20
-1.50033
 11
-28.0333
 21
-1.62703
  0
LINE
  8
0
 10
-28.0333
 20
-1.62703
 11
-28.1393
 21
-1.74731
  0
LINE
  8
0
 10
-28.1393
 20
-1.74731
 11
-28.2527
 21
-1.8607
  0
LINE
  8
0
 10
-28.2527
 20
-1.8607
 11
-28.373
 21
-1.96675
  0
LINE
  8
0
 10
-28.373
 20
-1.96675
 11
-28.4997
 21
-2.06503
  0
LINE
  8
0
 10
-28.4997
 20
-2.06503
 11
-28.6323
 21
-2.15515
  0
LINE
  8
0
 10
-28.6323
 20
-2.15515
 11
-28.7703
 21
-2.23678
  0
LINE
  8
0
 10
-28.7703
 20
-2.23678
 11
-28.9132
 21
-2.30958
  0
LINE
  8
0
 10
-28.9132
 20
-2.30958
 11
-29.0604
 21
-2.37326
  0
LINE
  8
0
 10
-29.0604
 20
-2.37326
 11
-29.2112
 21
-2.42758
  0
LINE
  8
0
 10
-29.2112
 20
-2.42758
 11
-29.3652
 21
-2.47232
  0
LINE
  8
0
 10
-29.3652
 20
-2.47232
 11
-29.5217
 21
-2.50729
  0
LINE
  8
0
 10
-29.5217
 20
-2.50729
 11
-29.6801
 21
-2.53238
  0
LINE
  8
0
 10
-29.6801
 20
-2.53238
 11
-29.8397
 21
-2.54747
  0
LINE
  8
0
 10
-29.8397
 20
-2.54747
 11
-30
 21
-2.5525
  0
LINE
  8
0
 10
-30
 20
-2.5525
 11
-30.1603
 21
-2.54747
  0
LINE
  8
0
 10
68.3088
 20
-19.0237
 11
68.1806
 21
-19.0115
  0
LINE
  8
0
 10
68.1806
 20
-19.0115
 11
68.0534
 21
-18.9914
  0
LINE
  8
0
 10
68.0534
 20
-18.9914
 11
67.9277
 21
-18.9633
  0
LINE
  8
0
 10
67.9277
 20
-18.9633
 11
67.804
 21
-18.9274
  0
LINE
  8
0
 10
67.804
 20
-18.9274
 11
67.6828
 21
-18.8837
  0
LINE
  8
0
 10
67.6828
 20
-18.8837
 11
67.5646
 21
-18.8326
  0
LINE
  8
0
 10
67.5646
 20
-18.8326
 11
67.4499
 21
-18.7741
  0
LINE
  8
0
 10
67.4499
 20
-18.7741
 11
67.339
 21
-18.7086
  0
LINE
  8
0
 10
67.339
 20
-18.7086
 11
67.2325
 21
-18.6362
  0
LINE
  8
0
 10
67.2325
 20
-18.6362
 11
67.1308
 21
-18.5573
  0
LINE
  8
0
 10
67.1308
 20
-18.5573
 11
67.0342
 21
-18.4721
  0
LINE
  8
0
 10
67.0342
 20
-18.4721
 11
66.9431
 21
-18.381
  0
LINE
  8
0
 10
66.9431
 20
-18.381
 11
66.8579
 21
-18.2844
  0
LINE
  8
0
 10
66.8579
 20
-18.2844
 11
66.779
 21
-18.1827
  0
LINE
  8
0
 10
66.779
 20
-18.1827
 11
66.7066
 21
-18.0762
  0
LINE
  8
0
 10
66.7066
 20
-18.0762
 11
66.6411
 21
-17.9653
  0
LINE
  8
0
 10
66.6411
 20
-17.9653
 11
66.5826
 21
-17.8506
  0
LINE
  8
0
 10
66.5826
 20
-17.8506
 11
66.5315
 21
-17.7324
  0
LINE
  8
0
 10
66.5315
 20
-17.7324
 11
66.4878
 21
-17.6112
  0
LINE
  8
0
 10
66.4878
 20
-17.6112
 11
66.4519
 21
-17.4875
  0
LINE
  8
0
 10
66.4519
 20
-17.4875
 11
66.4238
 21
-17.3618
  0
LINE
  8
0
 10
66.4238
 20
-17.3618
 11
66.4036
 21
-17.2346
  0
LINE
  8
0
 10
66.4036
 20
-17.2346
 11
66.3915
 21
-17.1064
  0
LINE
  8
0
 10
66.3915
 20
-17.1064
 11
66.3875
 21
-16.9777
  0
LINE
  8
0
 10
66.3875
 20
-16.9777
 11
66.3915
 21
-16.849
  0
LINE
  8
0
 10
66.3915
 20
-16.849
 11
66.4036
 21
-16.7208
  0
LINE
  8
0
 10
66.4036
 20
-16.7208
 11
66.4238
 21
-16.5936
  0
LINE
  8
0
 10
66.4238
 20
-16.5936
 11
66.4519
 21
-16.4679
  0
LINE
  8
0
 10
66.4519
 20
-16.4679
 11
66.4878
 21
-16.3442
  0
LINE
  8
0
 10
66.4878
 20
-16.3442
 11
66.5315
 21
-16.2231
  0
LINE
  8
0
 10
66.5315
 20
-16.2231
 11
66.5826
 21
-16.1049
  0
LINE
  8
0
 10
66.5826
 20
-16.1049
 11
66.6411
 21
-15.9901
  0
LINE
  8
0
 10
66.6411
 20
-15.9901
 11
66.7066
 21
-15.8793
  0
LINE
  8
0
 10
66.7066
 20
-15.8793
 11
66.779
 21
-15.7727
  0
LINE
  8
0
 10
66.779
 20
-15.7727
 11
66.8579
 21
-15.671
  0
LINE
  8
0
 10
66.8579
 20
-15.671
 11
66.9431
 21
-15.5744
  0
LINE
  8
0
 10
66.9431
 20
-15.5744
 11
67.0342
 21
-15.4833
  0
LINE
  8
0
 10
67.0342
 20
-15.4833
 11
67.1308
 21
-15.3982
  0
LINE
  8
0
 10
67.1308
 20
-15.3982
 11
67.2325
 21
-15.3192
  0
LINE
  8
0
 10
67.2325
 20
-15.3192
 11
67.339
 21
-15.2468
  0
LINE
  8
0
 10
67.339
 20
-15.2468
 11
67.4499
 21
-15.1813
  0
LINE
  8
0
 10
67.4499
 20
-15.1813
 11
67.5646
 21
-15.1228
  0
LINE
  8
0
 10
67.5646
 20
-15.1228
 11
67.6828
 21
-15.0717
  0
LINE
  8
0
 10
67.6828
 20
-15.0717
 11
67.804
 21
-15.028
  0
LINE
  8
0
 10
67.804
 20
-15.028
 11
67.9277
 21
-14.9921
  0
LINE
  8
0
 10
67.9277
 20
-14.9921
 11
68.0534
 21
-14.964
  0
LINE
  8
0
 10
68.0534
 20
-14.964
 11
68.1806
 21
-14.9439
  0
LINE
  8
0
 10
68.1806
 20
-14.9439
 11
68.3088
 21
-14.9317
  0
LINE
  8
0
 10
68.3088
 20
-14.9317
 11
68.4375
 21
-14.9277
  0
LINE
  8
0
 10
68.4375
 20
-14.9277
 11
68.5662
 21
-14.9317
  0
LINE
  8
0
 10
68.5662
 20
-14.9317
 11
68.6944
 21
-14.9439
  0
LINE
  8
0
 10
68.6944
 20
-14.9439
 11
68.8216
 21
-14.964
  0
LINE
  8
0
 10
68.8216
 20
-14.964
 11
68.9473
 21
-14.9921
  0
LINE
  8
0
 10
68.9473
 20
-14.9921
 11
69.071
 21
-15.028
  0
LINE
  8
0
 10
69.071
 20
-15.028
 11
69.1921
 21
-15.0717
  0
LINE
  8
0
 10
69.1921
 20
-15.0717
 11
69.3103
 21
-15.1228
  0
LINE
  8
0
 10
69.3103
 20
-15.1228
 11
69.4251
 21
-15.1813
  0
LINE
  8
0
 10
69.4251
 20
-15.1813
 11
69.5359
 21
-15.2468
  0
LINE
  8
0
 10
69.5359
 20
-15.2468
 11
69.6424
 21
-15.3192
  0
LINE
  8
0
 10
69.6424
 20
-15.3192
 11
69.7442
 21
-15.3982
  0
LINE
  8
0
 10
69.7442
 20
-15.3982
 11
69.8408
 21
-15.4833
  0
LINE
  8
0
 10
69.8408
 20
-15.4833
 11
69.9319
 21
-15.5744
  0
LINE
  8
0
 10
69.9319
 20
-15.5744
 11
70.017
 21
-15.671
  0
LINE
  8
0
 10
70.017
 20
-15.671
 11
70.096
 21
-15.7727
  0
LINE
  8
0
 10
70.096
 20
-15.7727
 11
70.1684
 21
-15.8793
  0
LINE
  8
0
 10
70.1684
 20
-15.8793
 11
70.2339
 21
-15.9901
  0
LINE
  8
0
 10
70.2339
 20
-15.9901
 11
70.2924
 21
-16.1049
  0
LINE
  8
0
 10
70.2924
 20
-16.1049
 11
70.3435
 21
-16.2231
  0
LINE
  8
0
 10
70.3435
 20
-16.2231
 11
70.3872
 21
-16.3442
  0
LINE
  8
0
 10
70.3872
 20
-16.3442
 11
70.4231
 21
-16.4679
  0
LINE
  8
0
 10
70.4231
 20
-16.4679
 11
70.4512
 21
-16.5936
  0
LINE
  8
0
 10
70.4512
 20
-16.5936
 11
70.4713
 21
-16.7208
  0
LINE
  8
0
 10
70.4713
 20
-16.7208
 11
70.4835
 21
-16.849
  0
LINE
  8
0
 10
70.4835
 20
-16.849
 11
70.4875
 21
-16.9777
  0
LINE
  8
0
 10
70.4875
 20
-16.9777
 11
70.4835
 21
-17.1064
  0
LINE
  8
0
 10
70.4835
 20
-17.1064
 11
70.4713
 21
-17.2346
  0
LINE
  8
0
 10
70.4713
 20
-17.2346
 11
70.4512
 21
-17.3618
  0
LINE
  8
0
 10
70.4512
 20
-17.3618
 11
70.4231
 21
-17.4875
  0
LINE
  8
0
 10
70.4231
 20
-17.4875
 11
70.3872
 21
-17.6112
  0
LINE
  8
0
 10
70.3872
 20
-17.6112
 11
70.3435
 21
-17.7324
  0
LINE
  8
0
 10
70.3435
 20
-17.7324
 11
70.2924
 21
-17.8506
  0
LINE
  8
0
 10
70.2924
 20
-17.8506
 11
70.2339
 21
-17.9653
  0
LINE
  8
0
 10
70.2339
 20
-17.9653
 11
70.1684
 21
-18.0762
  0
LINE
  8
0
 10
70.1684
 20
-18.0762
 11
70.096
 21
-18.1827
  0
LINE
  8
0
 10
70.096
 20
-18.1827
 11
70.017
 21
-18.2844
  0
LINE
  8
0
 10
70.017
 20
-18.2844
 11
69.9319
 21
-18.381
  0
LINE
  8
0
 10
69.9319
 20
-18.381
 11
69.8408
 21
-18.4721
  0
LINE
  8
0
 10
69.8408
 20
-18.4721
 11
69.7442
 21
-18.5573
  0
LINE
  8
0
 10
69.7442
 20
-18.5573
 11
69.6424
 21
-18.6362
  0
LINE
  8
0
 10
69.6424
 20
-18.6362
 11
69.5359
 21
-18.7086
  0
LINE
  8
0
 10
69.5359
 20
-18.7086
 11
69.4251
 21
-18.7741
  0
LINE
  8
0
 10
69.4251
 20
-18.7741
 11
69.3103
 21
-18.8326
  0
LINE
  8
0
 10
69.3103
 20
-18.8326
 11
69.1921
 21
-18.8837
  0
LINE
  8
0
 10
69.1921
 20
-18.8837
 11
69.071
 21
-18.9274
  0
LINE
  8
0
 10
69.071
 20
-18.9274
 11
68.9473
 21
-18.9633
  0
LINE
  8
0
 10
68.9473
 20
-18.9633
 11
68.8216
 21
-18.9914
  0
LINE
  8
0
 10
68.8216
 20
-18.9914
 11
68.6944
 21
-19.0115
  0
LINE
  8
0
 10
68.6944
 20
-19.0115
 11
68.5662
 21
-19.0237
  0
LINE
  8
0
 10
68.5662
 20
-19.0237
 11
68.4375
 21
-19.0277
  0
LINE
  8
0
 10
68.4375
 20
-19.0277
 11
68.3088
 21
-19.0237
  0
LINE
  8
0
 10
68.359
 20
-37.2785
 11
68.2808
 21
-37.2711
  0
LINE
  8
0
 10
68.2808
 20
-37.2711
 11
68.2033
 21
-37.2588
  0
LINE
  8
0
 10
68.2033
 20
-37.2588
 11
68.1266
 21
-37.2417
  0
LINE
  8
0
 10
68.1266
 20
-37.2417
 11
68.0512
 21
-37.2198
  0
LINE
  8
0
 10
68.0512
 20
-37.2198
 11
67.9773
 21
-37.1932
  0
LINE
  8
0
 10
67.9773
 20
-37.1932
 11
67.9053
 21
-37.162
  0
LINE
  8
0
 10
67.9053
 20
-37.162
 11
67.8353
 21
-37.1264
  0
LINE
  8
0
 10
67.8353
 20
-37.1264
 11
67.7677
 21
-37.0864
  0
LINE
  8
0
 10
67.7677
 20
-37.0864
 11
67.7028
 21
-37.0422
  0
LINE
  8
0
 10
67.7028
 20
-37.0422
 11
67.6407
 21
-36.9941
  0
LINE
  8
0
 10
67.6407
 20
-36.9941
 11
67.5818
 21
-36.9422
  0
LINE
  8
0
 10
67.5818
 20
-36.9422
 11
67.5263
 21
-36.8867
  0
LINE
  8
0
 10
67.5263
 20
-36.8867
 11
67.4743
 21
-36.8278
  0
LINE
  8
0
 10
67.4743
 20
-36.8278
 11
67.4262
 21
-36.7657
  0
LINE
  8
0
 10
67.4262
 20
-36.7657
 11
67.3821
 21
-36.7008
  0
LINE
  8
0
 10
67.3821
 20
-36.7008
 11
67.3421
 21
-36.6332
  0
LINE
  8
0
 10
67.3421
 20
-36.6332
 11
67.3065
 21
-36.5632
  0
LINE
  8
0
 10
67.3065
 20
-36.5632
 11
67.2753
 21
-36.4911
  0
LINE
  8
0
 10
67.2753
 20
-36.4911
 11
67.2487
 21
-36.4172
  0
LINE
  8
0
 10
67.2487
 20
-36.4172
 11
67.2268
 21
-36.3418
  0
LINE
  8
0
 10
67.2268
 20
-36.3418
 11
67.2096
 21
-36.2652
  0
LINE
  8
0
 10
67.2096
 20
-36.2652
 11
67.1974
 21
-36.1876
  0
LINE
  8
0
 10
67.1974
 20
-36.1876
 11
67.19
 21
-36.1095
  0
LINE
  8
0
 10
67.19
 20
-36.1095
 11
67.1875
 21
-36.031
  0
LINE
  8
0
 10
67.1875
 20
-36.031
 11
67.19
 21
-35.9525
  0
LINE
  8
0
 10
67.19
 20
-35.9525
 11
67.1974
 21
-35.8743
  0
LINE
  8
0
 10
67.1974
 20
-35.8743
 11
67.2096
 21
-35.7968
  0
LINE
  8
0
 10
67.2096
 20
-35.7968
 11
67.2268
 21
-35.7201
  0
LINE
  8
0
 10
67.2268
 20
-35.7201
 11
67.2487
 21
-35.6447
  0
LINE
  8
0
 10
67.2487
 20
-35.6447
 11
67.2753
 21
-35.5708
  0
LINE
  8
0
 10
67.2753
 20
-35.5708
 11
67.3065
 21
-35.4987
  0
LINE
  8
0
 10
67.3065
 20
-35.4987
 11
67.3421
 21
-35.4288
  0
LINE
  8
0
 10
67.3421
 20
-35.4288
 11
67.3821
 21
-35.3612
  0
LINE
  8
0
 10
67.3821
 20
-35.3612
 11
67.4262
 21
-35.2962
  0
LINE
  8
0
 10
67.4262
 20
-35.2962
 11
67.4743
 21
-35.2342
  0
LINE
  8
0
 10
67.4743
 20
-35.2342
 11
67.5263
 21
-35.1753
  0
LINE
  8
0
 10
67.5263
 20
-35.1753
 11
67.5818
 21
-35.1198
  0
LINE
  8
0
 10
67.5818
 20
-35.1198
 11
67.6407
 21
-35.0678
  0
LINE
  8
0
 10
67.6407
 20
-35.0678
 11
67.7028
 21
-35.0197
  0
LINE
  8
0
 10
67.7028
 20
-35.0197
 11
67.7677
 21
-34.9756
  0
LINE
  8
0
 10
67.7677
 20
-34.9756
 11
67.8353
 21
-34.9356
  0
LINE
  8
0
 10
67.8353
 20
-34.9356
 11
67.9053
 21
-34.8999
  0
LINE
  8
0
 10
67.9053
 20
-34.8999
 11
67.9773
 21
-34.8688
  0
LINE
  8
0
 10
67.9773
 20
-34.8688
 11
68.0512
 21
-34.8421
  0
LINE
  8
0
 10
68.0512
 20
-34.8421
 11
68.1266
 21
-34.8202
  0
LINE
  8
0
 10
68.1266
 20
-34.8202
 11
68.2033
 21
-34.8031
  0
LINE
  8
0
 10
68.2033
 20
-34.8031
 11
68.2808
 21
-34.7908
  0
LINE
  8
0
 10
68.2808
 20
-34.7908
 11
68.359
 21
-34.7834
  0
LINE
  8
0
 10
68.359
 20
-34.7834
 11
68.4375
 21
-34.781
  0
LINE
  8
0
 10
68.4375
 20
-34.781
 11
68.516
 21
-34.7834
  0
LINE
  8
0
 10
68.516
 20
-34.7834
 11
68.5942
 21
-34.7908
  0
LINE
  8
0
 10
68.5942
 20
-34.7908
 11
68.6717
 21
-34.8031
  0
LINE
  8
0
 10
68.6717
 20
-34.8031
 11
68.7484
 21
-34.8202
  0
LINE
  8
0
 10
68.7484
 20
-34.8202
 11
68.8238
 21
-34.8421
  0
LINE
  8
0
 10
68.8238
 20
-34.8421
 11
68.8977
 21
-34.8688
  0
LINE
  8
0
 10
68.8977
 20
-34.8688
 11
68.9697
 21
-34.8999
  0
LINE
  8
0
 10
68.9697
 20
-34.8999
 11
69.0397
 21
-34.9356
  0
LINE
  8
0
 10
69.0397
 20
-34.9356
 11
69.1073
 21
-34.9756
  0
LINE
  8
0
 10
69.1073
 20
-34.9756
 11
69.1722
 21
-35.0197
  0
LINE
  8
0
 10
69.1722
 20
-35.0197
 11
69.2343
 21
-35.0678
  0
LINE
  8
0
 10
69.2343
 20
-35.0678
 11
69.2932
 21
-35.1198
  0
LINE
  8
0
 10
69.2932
 20
-35.1198
 11
69.3487
 21
-35.1753
  0
LINE
  8
0
 10
69.3487
 20
-35.1753
 11
69.4006
 21
-35.2342
  0
LINE
  8
0
 10
69.4006
 20
-35.2342
 11
69.4488
 21
-35.2962
  0
LINE
  8
0
 10
69.4488
 20
-35.2962
 11
69.4929
 21
-35.3612
  0
LINE
  8
0
 10
69.4929
 20
-35.3612
 11
69.5329
 21
-35.4288
  0
LINE
  8
0
 10
69.5329
 20
-35.4288
 11
69.5685
 21
-35.4987
  0
LINE
  8
0
 10
69.5685
 20
-35.4987
 11
69.5997
 21
-35.5708
  0
LINE
  8
0
 10
69.5997
 20
-35.5708
 11
69.6263
 21
-35.6447
  0
LINE
  8
0
 10
69.6263
 20
-35.6447
 11
69.6482
 21
-35.7201
  0
LINE
  8
0
 10
69.6482
 20
-35.7201
 11
69.6654
 21
-35.7968
  0
LINE
  8
0
 10
69.6654
 20
-35.7968
 11
69.6776
 21
-35.8743
  0
LINE
  8
0
 10
69.6776
 20
-35.8743
 11
69.685
 21
-35.9525
  0
LINE
  8
0
 10
69.685
 20
-35.9525
 11
69.6875
 21
-36.031
  0
LINE
  8
0
 10
69.6875
 20
-36.031
 11
69.685
 21
-36.1095
  0
LINE
  8
0
 10
69.685
 20
-36.1095
 11
69.6776
 21
-36.1876
  0
LINE
  8
0
 10
69.6776
 20
-36.1876
 11
69.6654
 21
-36.2652
  0
LINE
  8
0
 10
69.6654
 20
-36.2652
 11
69.6482
 21
-36.3418
  0
LINE
  8
0
 10
69.6482
 20
-36.3418
 11
69.6263
 21
-36.4172
  0
LINE
  8
0
 10
69.6263
 20
-36.4172
 11
69.5997
 21
-36.4911
  0
LINE
  8
0
 10
69.5997
 20
-36.4911
 11
69.5685
 21
-36.5632
  0
LINE
  8
0
 10
69.5685
 20
-36.5632
 11
69.5329
 21
-36.6332
  0
LINE
  8
0
 10
69.5329
 20
-36.6332
 11
69.4929
 21
-36.7008
  0
LINE
  8
0
 10
69.4929
 20
-36.7008
 11
69.4488
 21
-36.7657
  0
LINE
  8
0
 10
69.4488
 20
-36.7657
 11
69.4006
 21
-36.8278
  0
LINE
  8
0
 10
69.4006
 20
-36.8278
 11
69.3487
 21
-36.8867
  0
LINE
  8
0
 10
69.3487
 20
-36.8867
 11
69.2932
 21
-36.9422
  0
LINE
  8
0
 10
69.2932
 20
-36.9422
 11
69.2343
 21
-36.9941
  0
LINE
  8
0
 10
69.2343
 20
-36.9941
 11
69.1722
 21
-37.0422
  0
LINE
  8
0
 10
69.1722
 20
-37.0422
 11
69.1073
 21
-37.0864
  0
LINE
  8
0
 10
69.1073
 20
-37.0864
 11
69.0397
 21
-37.1264
  0
LINE
  8
0
 10
69.0397
 20
-37.1264
 11
68.9697
 21
-37.162
  0
LINE
  8
0
 10
68.9697
 20
-37.162
 11
68.8977
 21
-37.1932
  0
LINE
  8
0
 10
68.8977
 20
-37.1932
 11
68.8238
 21
-37.2198
  0
LINE
  8
0
 10
68.8238
 20
-37.2198
 11
68.7484
 21
-37.2417
  0
LINE
  8
0
 10
68.7484
 20
-37.2417
 11
68.6717
 21
-37.2588
  0
LINE
  8
0
 10
68.6717
 20
-37.2588
 11
68.5942
 21
-37.2711
  0
LINE
  8
0
 10
68.5942
 20
-37.2711
 11
68.516
 21
-37.2785
  0
LINE
  8
0
 10
68.516
 20
-37.2785
 11
68.4375
 21
-37.281
  0
LINE
  8
0
 10
68.4375
 20
-37.281
 11
68.359
 21
-37.2785
  0
LINE
  8
0
 10
-82.7899
 20
-40.3335
 11
-82.8681
 21
-40.3261
  0
LINE
  8
0
 10
-82.8681
 20
-40.3261
 11
-82.9457
 21
-40.3139
  0
LINE
  8
0
 10
-82.9457
 20
-40.3139
 11
-83.0223
 21
-40.2967
  0
LINE
  8
0
 10
-83.0223
 20
-40.2967
 11
-83.0977
 21
-40.2748
  0
LINE
  8
0
 10
-83.0977
 20
-40.2748
 11
-83.1716
 21
-40.2482
  0
LINE
  8
0
 10
-83.1716
 20
-40.2482
 11
-83.2437
 21
-40.217
  0
LINE
  8
0
 10
-83.2437
 20
-40.217
 11
-83.3136
 21
-40.1814
  0
LINE
  8
0
 10
-83.3136
 20
-40.1814
 11
-83.3812
 21
-40.1414
  0
LINE
  8
0
 10
-83.3812
 20
-40.1414
 11
-83.4462
 21
-40.0973
  0
LINE
  8
0
 10
-83.4462
 20
-40.0973
 11
-83.5082
 21
-40.0491
  0
LINE
  8
0
 10
-83.5082
 20
-40.0491
 11
-83.5671
 21
-39.9972
  0
LINE
  8
0
 10
-83.5671
 20
-39.9972
 11
-83.6226
 21
-39.9417
  0
LINE
  8
0
 10
-83.6226
 20
-39.9417
 11
-83.6746
 21
-39.8828
  0
LINE
  8
0
 10
-83.6746
 20
-39.8828
 11
-83.7227
 21
-39.8207
  0
LINE
  8
0
 10
-83.7227
 20
-39.8207
 11
-83.7669
 21
-39.7558
  0
LINE
  8
0
 10
-83.7669
 20
-39.7558
 11
-83.8068
 21
-39.6882
  0
LINE
  8
0
 10
-83.8068
 20
-39.6882
 11
-83.8425
 21
-39.6182
  0
LINE
  8
0
 10
-83.8425
 20
-39.6182
 11
-83.8737
 21
-39.5461
  0
LINE
  8
0
 10
-83.8737
 20
-39.5461
 11
-83.9003
 21
-39.4723
  0
LINE
  8
0
 10
-83.9003
 20
-39.4723
 11
-83.9222
 21
-39.3968
  0
LINE
  8
0
 10
-83.9222
 20
-39.3968
 11
-83.9393
 21
-39.3202
  0
LINE
  8
0
 10
-83.9393
 20
-39.3202
 11
-83.9516
 21
-39.2427
  0
LINE
  8
0
 10
-83.9516
 20
-39.2427
 11
-83.959
 21
-39.1645
  0
LINE
  8
0
 10
-83.959
 20
-39.1645
 11
-83.9614
 21
-39.086
  0
LINE
  8
0
 10
-83.9614
 20
-39.086
 11
-83.959
 21
-39.0075
  0
LINE
  8
0
 10
-83.959
 20
-39.0075
 11
-83.9516
 21
-38.9293
  0
LINE
  8
0
 10
-83.9516
 20
-38.9293
 11
-83.9393
 21
-38.8518
  0
LINE
  8
0
 10
-83.9393
 20
-38.8518
 11
-83.9222
 21
-38.7751
  0
LINE
  8
0
 10
-83.9222
 20
-38.7751
 11
-83.9003
 21
-38.6997
  0
LINE
  8
0
 10
-83.9003
 20
-38.6997
 11
-83.8737
 21
-38.6258
  0
LINE
  8
0
 10
-83.8737
 20
-38.6258
 11
-83.8425
 21
-38.5538
  0
LINE
  8
0
 10
-83.8425
 20
-38.5538
 11
-83.8068
 21
-38.4838
  0
LINE
  8
0
 10
-83.8068
 20
-38.4838
 11
-83.7669
 21
-38.4162
  0
LINE
  8
0
 10
-83.7669
 20
-38.4162
 11
-83.7227
 21
-38.3513
  0
LINE
  8
0
 10
-83.7227
 20
-38.3513
 11
-83.6746
 21
-38.2892
  0
LINE
  8
0
 10
-83.6746
 20
-38.2892
 11
-83.6226
 21
-38.2303
  0
LINE
  8
0
 10
-83.6226
 20
-38.2303
 11
-83.5671
 21
-38.1748
  0
LINE
  8
0
 10
-83.5671
 20
-38.1748
 11
-83.5082
 21
-38.1228
  0
LINE
  8
0
 10
-83.5082
 20
-38.1228
 11
-83.4462
 21
-38.0747
  0
LINE
  8
0
 10
-83.4462
 20
-38.0747
 11
-83.3812
 21
-38.0306
  0
LINE
  8
0
 10
-83.3812
 20
-38.0306
 11
-83.3136
 21
-37.9906
  0
LINE
  8
0
 10
-83.3136
 20
-37.9906
 11
-83.2437
 21
-37.955
  0
LINE
  8
0
 10
-83.2437
 20
-37.955
 11
-83.1716
 21
-37.9238
  0
LINE
  8
0
 10
-83.1716
 20
-37.9238
 11
-83.0977
 21
-37.8972
  0
LINE
  8
0
 10
-83.0977
 20
-37.8972
 11
-83.0223
 21
-37.8753
  0
LINE
  8
0
 10
-83.0223
 20
-37.8753
 11
-82.9457
 21
-37.8581
  0
LINE
  8
0
 10
-82.9457
 20
-37.8581
 11
-82.8681
 21
-37.8459
  0
LINE
  8
0
 10
-82.8681
 20
-37.8459
 11
-82.7899
 21
-37.8385
  0
LINE
  8
0
 10
-82.7899
 20
-37.8385
 11
-82.7114
 21
-37.836
  0
LINE
  8
0
 10
-82.7114
 20
-37.836
 11
-82.6329
 21
-37.8385
  0
LINE
  8
0
 10
-82.6329
 20
-37.8385
 11
-82.5548
 21
-37.8459
  0
LINE
  8
0
 10
-82.5548
 20
-37.8459
 11
-82.4772
 21
-37.8581
  0
LINE
  8
0
 10
-82.4772
 20
-37.8581
 11
-82.4006
 21
-37.8753
  0
LINE
  8
0
 10
-82.4006
 20
-37.8753
 11
-82.3252
 21
-37.8972
  0
LINE
  8
0
 10
-82.3252
 20
-37.8972
 11
-82.2513
 21
-37.9238
  0
LINE
  8
0
 10
-82.2513
 20
-37.9238
 11
-82.1792
 21
-37.955
  0
LINE
  8
0
 10
-82.1792
 20
-37.955
 11
-82.1092
 21
-37.9906
  0
LINE
  8
0
 10
-82.1092
 20
-37.9906
 11
-82.0416
 21
-38.0306
  0
LINE
  8
0
 10
-82.0416
 20
-38.0306
 11
-81.9767
 21
-38.0747
  0
LINE
  8
0
 10
-81.9767
 20
-38.0747
 11
-81.9146
 21
-38.1228
  0
LINE
  8
0
 10
-81.9146
 20
-38.1228
 11
-81.8557
 21
-38.1748
  0
LINE
  8
0
 10
-81.8557
 20
-38.1748
 11
-81.8002
 21
-38.2303
  0
LINE
  8
0
 10
-81.8002
 20
-38.2303
 11
-81.7483
 21
-38.2892
  0
LINE
  8
0
 10
-81.7483
 20
-38.2892
 11
-81.7002
 21
-38.3513
  0
LINE
  8
0
 10
-81.7002
 20
-38.3513
 11
-81.656
 21
-38.4162
  0
LINE
  8
0
 10
-81.656
 20
-38.4162
 11
-81.616
 21
-38.4838
  0
LINE
  8
0
 10
-81.616
 20
-38.4838
 11
-81.5804
 21
-38.5538
  0
LINE
  8
0
 10
-81.5804
 20
-38.5538
 11
-81.5492
 21
-38.6258
  0
LINE
  8
0
 10
-81.5492
 20
-38.6258
 11
-81.5226
 21
-38.6997
  0
LINE
  8
0
 10
-81.5226
 20
-38.6997
 11
-81.5007
 21
-38.7751
  0
LINE
  8
0
 10
-81.5007
 20
-38.7751
 11
-81.4836
 21
-38.8518
  0
LINE
  8
0
 10
-81.4836
 20
-38.8518
 11
-81.4713
 21
-38.9293
  0
LINE
  8
0
 10
-81.4713
 20
-38.9293
 11
-81.4639
 21
-39.0075
  0
LINE
  8
0
 10
-81.4639
 20
-39.0075
 11
-81.4614
 21
-39.086
  0
LINE
  8
0
 10
-81.4614
 20
-39.086
 11
-81.4639
 21
-39.1645
  0
LINE
  8
0
 10
-81.4639
 20
-39.1645
 11
-81.4713
 21
-39.2427
  0
LINE
  8
0
 10
-81.4713
 20
-39.2427
 11
-81.4836
 21
-39.3202
  0
LINE
  8
0
 10
-81.4836
 20
-39.3202
 11
-81.5007
 21
-39.3968
  0
LINE
  8
0
 10
-81.5007
 20
-39.3968
 11
-81.5226
 21
-39.4723
  0
LINE
  8
0
 10
-81.5226
 20
-39.4723
 11
-81.5492
 21
-39.5461
  0
LINE
  8
0
 10
-81.5492
 20
-39.5461
 11
-81.5804
 21
-39.6182
  0
LINE
  8
0
 10
-81.5804
 20
-39.6182
 11
-81.616
 21
-39.6882
  0
LINE
  8
0
 10
-81.616
 20
-39.6882
 11
-81.656
 21
-39.7558
  0
LINE
  8
0
 10
-81.656
 20
-39.7558
 11
-81.7002
 21
-39.8207
  0
LINE
  8
0
 10
-81.7002
 20
-39.8207
 11
-81.7483
 21
-39.8828
  0
LINE
  8
0
 10
-81.7483
 20
-39.8828
 11
-81.8002
 21
-39.9417
  0
LINE
  8
0
 10
-81.8002
 20
-39.9417
 11
-81.8557
 21
-39.9972
  0
LINE
  8
0
 10
-81.8557
 20
-39.9972
 11
-81.9146
 21
-40.0491
  0
LINE
  8
0
 10
-81.9146
 20
-40.0491
 11
-81.9767
 21
-40.0973
  0
LINE
  8
0
 10
-81.9767
 20
-40.0973
 11
-82.0416
 21
-40.1414
  0
LINE
  8
0
 10
-82.0416
 20
-40.1414
 11
-82.1092
 21
-40.1814
  0
LINE
  8
0
 10
-82.1092
 20
-40.1814
 11
-82.1792
 21
-40.217
  0
LINE
  8
0
 10
-82.1792
 20
-40.217
 11
-82.2513
 21
-40.2482
  0
LINE
  8
0
 10
-82.2513
 20
-40.2482
 11
-82.3252
 21
-40.2748
  0
LINE
  8
0
 10
-82.3252
 20
-40.2748
 11
-82.4006
 21
-40.2967
  0
LINE
  8
0
 10
-82.4006
 20
-40.2967
 11
-82.4772
 21
-40.3139
  0
LINE
  8
0
 10
-82.4772
 20
-40.3139
 11
-82.5548
 21
-40.3261
  0
LINE
  8
0
 10
-82.5548
 20
-40.3261
 11
-82.6329
 21
-40.3335
  0
LINE
  8
0
 10
-82.6329
 20
-40.3335
 11
-82.7114
 21
-40.336
  0
LINE
  8
0
 10
-82.7114
 20
-40.336
 11
-82.7899
 21
-40.3335
  0
LINE
  8
0
 10
18.2915
 20
-45.6465
 11
18.1633
 21
-45.6344
  0
LINE
  8
0
 10
18.1633
 20
-45.6344
 11
18.0361
 21
-45.6142
  0
LINE
  8
0
 10
18.0361
 20
-45.6142
 11
17.9104
 21
-45.5861
  0
LINE
  8
0
 10
17.9104
 20
-45.5861
 11
17.7868
 21
-45.5502
  0
LINE
  8
0
 10
17.7868
 20
-45.5502
 11
17.6656
 21
-45.5066
  0
LINE
  8
0
 10
17.6656
 20
-45.5066
 11
17.5474
 21
-45.4554
  0
LINE
  8
0
 10
17.5474
 20
-45.4554
 11
17.4327
 21
-45.397
  0
LINE
  8
0
 10
17.4327
 20
-45.397
 11
17.3218
 21
-45.3314
  0
LINE
  8
0
 10
17.3218
 20
-45.3314
 11
17.2153
 21
-45.259
  0
LINE
  8
0
 10
17.2153
 20
-45.259
 11
17.1135
 21
-45.1801
  0
LINE
  8
0
 10
17.1135
 20
-45.1801
 11
17.0169
 21
-45.0949
  0
LINE
  8
0
 10
17.0169
 20
-45.0949
 11
16.9259
 21
-45.0038
  0
LINE
  8
0
 10
16.9259
 20
-45.0038
 11
16.8407
 21
-44.9072
  0
LINE
  8
0
 10
16.8407
 20
-44.9072
 11
16.7618
 21
-44.8055
  0
LINE
  8
0
 10
16.7618
 20
-44.8055
 11
16.6894
 21
-44.699
  0
LINE
  8
0
 10
16.6894
 20
-44.699
 11
16.6238
 21
-44.5881
  0
LINE
  8
0
 10
16.6238
 20
-44.5881
 11
16.5654
 21
-44.4734
  0
LINE
  8
0
 10
16.5654
 20
-44.4734
 11
16.5142
 21
-44.3552
  0
LINE
  8
0
 10
16.5142
 20
-44.3552
 11
16.4706
 21
-44.234
  0
LINE
  8
0
 10
16.4706
 20
-44.234
 11
16.4347
 21
-44.1103
  0
LINE
  8
0
 10
16.4347
 20
-44.1103
 11
16.4066
 21
-43.9846
  0
LINE
  8
0
 10
16.4066
 20
-43.9846
 11
16.3864
 21
-43.8574
  0
LINE
  8
0
 10
16.3864
 20
-43.8574
 11
16.3743
 21
-43.7292
  0
LINE
  8
0
 10
16.3743
 20
-43.7292
 11
16.3703
 21
-43.6005
  0
LINE
  8
0
 10
16.3703
 20
-43.6005
 11
16.3743
 21
-43.4718
  0
LINE
  8
0
 10
16.3743
 20
-43.4718
 11
16.3864
 21
-43.3436
  0
LINE
  8
0
 10
16.3864
 20
-43.3436
 11
16.4066
 21
-43.2164
  0
LINE
  8
0
 10
16.4066
 20
-43.2164
 11
16.4347
 21
-43.0907
  0
LINE
  8
0
 10
16.4347
 20
-43.0907
 11
16.4706
 21
-42.967
  0
LINE
  8
0
 10
16.4706
 20
-42.967
 11
16.5142
 21
-42.8459
  0
LINE
  8
0
 10
16.5142
 20
-42.8459
 11
16.5654
 21
-42.7277
  0
LINE
  8
0
 10
16.5654
 20
-42.7277
 11
16.6238
 21
-42.6129
  0
LINE
  8
0
 10
16.6238
 20
-42.6129
 11
16.6894
 21
-42.5021
  0
LINE
  8
0
 10
16.6894
 20
-42.5021
 11
16.7618
 21
-42.3956
  0
LINE
  8
0
 10
16.7618
 20
-42.3956
 11
16.8407
 21
-42.2938
  0
LINE
  8
0
 10
16.8407
 20
-42.2938
 11
16.9259
 21
-42.1972
  0
LINE
  8
0
 10
16.9259
 20
-42.1972
 11
17.0169
 21
-42.1061
  0
LINE
  8
0
 10
17.0169
 20
-42.1061
 11
17.1135
 21
-42.021
  0
LINE
  8
0
 10
17.1135
 20
-42.021
 11
17.2153
 21
-41.942
  0
LINE
  8
0
 10
17.2153
 20
-41.942
 11
17.3218
 21
-41.8696
  0
LINE
  8
0
 10
17.3218
 20
-41.8696
 11
17.4327
 21
-41.8041
  0
LINE
  8
0
 10
17.4327
 20
-41.8041
 11
17.5474
 21
-41.7456
  0
LINE
  8
0
 10
17.5474
 20
-41.7456
 11
17.6656
 21
-41.6945
  0
LINE
  8
0
 10
17.6656
 20
-41.6945
 11
17.7868
 21
-41.6509
  0
LINE
  8
0
 10
17.7868
 20
-41.6509
 11
17.9104
 21
-41.6149
  0
LINE
  8
0
 10
17.9104
 20
-41.6149
 11
18.0361
 21
-41.5868
  0
LINE
  8
0
 10
18.0361
 20
-41.5868
 11
18.1633
 21
-41.5667
  0
LINE
  8
0
 10
18.1633
 20
-41.5667
 11
18.2915
 21
-41.5546
  0
LINE
  8
0
 10
18.2915
 20
-41.5546
 11
18.4203
 21
-41.5505
  0
LINE
  8
0
 10
18.4203
 20
-41.5505
 11
18.549
 21
-41.5546
  0
LINE
  8
0
 10
18.549
 20
-41.5546
 11
18.6772
 21
-41.5667
  0
LINE
  8
0
 10
18.6772
 20
-41.5667
 11
18.8044
 21
-41.5868
  0
LINE
  8
0
 10
18.8044
 20
-41.5868
 11
18.9301
 21
-41.6149
  0
LINE
  8
0
 10
18.9301
 20
-41.6149
 11
19.0537
 21
-41.6509
  0
LINE
  8
0
 10
19.0537
 20
-41.6509
 11
19.1749
 21
-41.6945
  0
LINE
  8
0
 10
19.1749
 20
-41.6945
 11
19.2931
 21
-41.7456
  0
LINE
  8
0
 10
19.2931
 20
-41.7456
 11
19.4078
 21
-41.8041
  0
LINE
  8
0
 10
19.4078
 20
-41.8041
 11
19.5187
 21
-41.8696
  0
LINE
  8
0
 10
19.5187
 20
-41.8696
 11
19.6252
 21
-41.942
  0
LINE
  8
0
 10
19.6252
 20
-41.942
 11
19.727
 21
-42.021
  0
LINE
  8
0
 10
19.727
 20
-42.021
 11
19.8236
 21
-42.1061
  0
LINE
  8
0
 10
19.8236
 20
-42.1061
 11
19.9146
 21
-42.1972
  0
LINE
  8
0
 10
19.9146
 20
-42.1972
 11
19.9998
 21
-42.2938
  0
LINE
  8
0
 10
19.9998
 20
-42.2938
 11
20.0787
 21
-42.3956
  0
LINE
  8
0
 10
20.0787
 20
-42.3956
 11
20.1511
 21
-42.5021
  0
LINE
  8
0
 10
20.1511
 20
-42.5021
 11
20.2167
 21
-42.6129
  0
LINE
  8
0
 10
20.2167
 20
-42.6129
 11
20.2752
 21
-42.7277
  0
LINE
  8
0
 10
20.2752
 20
-42.7277
 11
20.3263
 21
-42.8459
  0
LINE
  8
0
 10
20.3263
 20
-42.8459
 11
20.3699
 21
-42.967
  0
LINE
  8
0
 10
20.3699
 20
-42.967
 11
20.4058
 21
-43.0907
  0
LINE
  8
0
 10
20.4058
 20
-43.0907
 11
20.434
 21
-43.2164
  0
LINE
  8
0
 10
20.434
 20
-43.2164
 11
20.4541
 21
-43.3436
  0
LINE
  8
0
 10
20.4541
 20
-43.3436
 11
20.4662
 21
-43.4718
  0
LINE
  8
0
 10
20.4662
 20
-43.4718
 11
20.4703
 21
-43.6005
  0
LINE
  8
0
 10
20.4703
 20
-43.6005
 11
20.4662
 21
-43.7292
  0
LINE
  8
0
 10
20.4662
 20
-43.7292
 11
20.4541
 21
-43.8574
  0
LINE
  8
0
 10
20.4541
 20
-43.8574
 11
20.434
 21
-43.9846
  0
LINE
  8
0
 10
20.434
 20
-43.9846
 11
20.4058
 21
-44.1103
  0
LINE
  8
0
 10
20.4058
 20
-44.1103
 11
20.3699
 21
-44.234
  0
LINE
  8
0
 10
20.3699
 20
-44.234
 11
20.3263
 21
-44.3552
  0
LINE
  8
0
 10
20.3263
 20
-44.3552
 11
20.2752
 21
-44.4734
  0
LINE
  8
0
 10
20.2752
 20
-44.4734
 11
20.2167
 21
-44.5881
  0
LINE
  8
0
 10
20.2167
 20
-44.5881
 11
20.1511
 21
-44.699
  0
LINE
  8
0
 10
20.1511
 20
-44.699
 11
20.0787
 21
-44.8055
  0
LINE
  8
0
 10
20.0787
 20
-44.8055
 11
19.9998
 21
-44.9072
  0
LINE
  8
0
 10
19.9998
 20
-44.9072
 11
19.9146
 21
-45.0038
  0
LINE
  8
0
 10
19.9146
 20
-45.0038
 11
19.8236
 21
-45.0949
  0
LINE
  8
0
 10
19.8236
 20
-45.0949
 11
19.727
 21
-45.1801
  0
LINE
  8
0
 10
19.727
 20
-45.1801
 11
19.6252
 21
-45.259
  0
LINE
  8
0
 10
19.6252
 20
-45.259
 11
19.5187
 21
-45.3314
  0
LINE
  8
0
 10
19.5187
 20
-45.3314
 11
19.4078
 21
-45.397
  0
LINE
  8
0
 10
19.4078
 20
-45.397
 11
19.2931
 21
-45.4554
  0
LINE
  8
0
 10
19.2931
 20
-45.4554
 11
19.1749
 21
-45.5066
  0
LINE
  8
0
 10
19.1749
 20
-45.5066
 11
19.0537
 21
-45.5502
  0
LINE
  8
0
 10
19.0537
 20
-45.5502
 11
18.9301
 21
-45.5861
  0
LINE
  8
0
 10
18.9301
 20
-45.5861
 11
18.8044
 21
-45.6142
  0
LINE
  8
0
 10
18.8044
 20
-45.6142
 11
18.6772
 21
-45.6344
  0
LINE
  8
0
 10
18.6772
 20
-45.6344
 11
18.549
 21
-45.6465
  0
LINE
  8
0
 10
18.549
 20
-45.6465
 11
18.4203
 21
-45.6505
  0
LINE
  8
0
 10
18.4203
 20
-45.6505
 11
18.2915
 21
-45.6465
  0
LINE
  8
0
 10
-29.5204
 20
-58.4135
 11
-29.6486
 21
-58.4013
  0
LINE
  8
0
 10
-29.6486
 20
-58.4013
 11
-29.7758
 21
-58.3812
  0
LINE
  8
0
 10
-29.7758
 20
-58.3812
 11
-29.9015
 21
-58.3531
  0
LINE
  8
0
 10
-29.9015
 20
-58.3531
 11
-30.0252
 21
-58.3172
  0
LINE
  8
0
 10
-30.0252
 20
-58.3172
 11
-30.1464
 21
-58.2736
  0
LINE
  8
0
 10
-30.1464
 20
-58.2736
 11
-30.2645
 21
-58.2224
  0
LINE
  8
0
 10
-30.2645
 20
-58.2224
 11
-30.3793
 21
-58.1639
  0
LINE
  8
0
 10
-30.3793
 20
-58.1639
 11
-30.4901
 21
-58.0984
  0
LINE
  8
0
 10
-30.4901
 20
-58.0984
 11
-30.5967
 21
-58.026
  0
LINE
  8
0
 10
-30.5967
 20
-58.026
 11
-30.6984
 21
-57.9471
  0
LINE
  8
0
 10
-30.6984
 20
-57.9471
 11
-30.795
 21
-57.8619
  0
LINE
  8
0
 10
-30.795
 20
-57.8619
 11
-30.8861
 21
-57.7708
  0
LINE
  8
0
 10
-30.8861
 20
-57.7708
 11
-30.9713
 21
-57.6742
  0
LINE
  8
0
 10
-30.9713
 20
-57.6742
 11
-31.0502
 21
-57.5725
  0
LINE
  8
0
 10
-31.0502
 20
-57.5725
 11
-31.1226
 21
-57.466
  0
LINE
  8
0
 10
-31.1226
 20
-57.466
 11
-31.1881
 21
-57.3551
  0
LINE
  8
0
 10
-31.1881
 20
-57.3551
 11
-31.2466
 21
-57.2404
  0
LINE
  8
0
 10
-31.2466
 20
-57.2404
 11
-31.2977
 21
-57.1222
  0
LINE
  8
0
 10
-31.2977
 20
-57.1222
 11
-31.3414
 21
-57.001
  0
LINE
  8
0
 10
-31.3414
 20
-57.001
 11
-31.3773
 21
-56.8773
  0
LINE
  8
0
 10
-31.3773
 20
-56.8773
 11
-31.4054
 21
-56.7516
  0
LINE
  8
0
 10
-31.4054
 20
-56.7516
 11
-31.4255
 21
-56.6244
  0
LINE
  8
0
 10
-31.4255
 20
-56.6244
 11
-31.4377
 21
-56.4962
  0
LINE
  8
0
 10
-31.4377
 20
-56.4962
 11
-31.4417
 21
-56.3675
  0
LINE
  8
0
 10
-31.4417
 20
-56.3675
 11
-31.4377
 21
-56.2388
  0
LINE
  8
0
 10
-31.4377
 20
-56.2388
 11
-31.4255
 21
-56.1106
  0
LINE
  8
0
 10
-31.4255
 20
-56.1106
 11
-31.4054
 21
-55.9834
  0
LINE
  8
0
 10
-31.4054
 20
-55.9834
 11
-31.3773
 21
-55.8577
  0
LINE
  8
0
 10
-31.3773
 20
-55.8577
 11
-31.3414
 21
-55.734
  0
LINE
  8
0
 10
-31.3414
 20
-55.734
 11
-31.2977
 21
-55.6129
  0
LINE
  8
0
 10
-31.2977
 20
-55.6129
 11
-31.2466
 21
-55.4947
  0
LINE
  8
0
 10
-31.2466
 20
-55.4947
 11
-31.1881
 21
-55.3799
  0
LINE
  8
0
 10
-31.1881
 20
-55.3799
 11
-31.1226
 21
-55.2691
  0
LINE
  8
0
 10
-31.1226
 20
-55.2691
 11
-31.0502
 21
-55.1625
  0
LINE
  8
0
 10
-31.0502
 20
-55.1625
 11
-30.9713
 21
-55.0608
  0
LINE
  8
0
 10
-30.9713
 20
-55.0608
 11
-30.8861
 21
-54.9642
  0
LINE
  8
0
 10
-30.8861
 20
-54.9642
 11
-30.795
 21
-54.8731
  0
LINE
  8
0
 10
-30.795
 20
-54.8731
 11
-30.6984
 21
-54.788
  0
LINE
  8
0
 10
-30.6984
 20
-54.788
 11
-30.5967
 21
-54.709
  0
LINE
  8
0
 10
-30.5967
 20
-54.709
 11
-30.4901
 21
-54.6366
  0
LINE
  8
0
 10
-30.4901
 20
-54.6366
 11
-30.3793
 21
-54.5711
  0
LINE
  8
0
 10
-30.3793
 20
-54.5711
 11
-30.2645
 21
-54.5126
  0
LINE
  8
0
 10
-30.2645
 20
-54.5126
 11
-30.1464
 21
-54.4615
  0
LINE
  8
0
 10
-30.1464
 20
-54.4615
 11
-30.0252
 21
-54.4178
  0
LINE
  8
0
 10
-30.0252
 20
-54.4178
 11
-29.9015
 21
-54.3819
  0
LINE
  8
0
 10
-29.9015
 20
-54.3819
 11
-29.7758
 21
-54.3538
  0
LINE
  8
0
 10
-29.7758
 20
-54.3538
 11
-29.6486
 21
-54.3337
  0
LINE
  8
0
 10
-29.6486
 20
-54.3337
 11
-29.5204
 21
-54.3216
  0
LINE
  8
0
 10
-29.5204
 20
-54.3216
 11
-29.3917
 21
-54.3175
  0
LINE
  8
0
 10
-29.3917
 20
-54.3175
 11
-29.263
 21
-54.3216
  0
LINE
  8
0
 10
-29.263
 20
-54.3216
 11
-29.1348
 21
-54.3337
  0
LINE
  8
0
 10
-29.1348
 20
-54.3337
 11
-29.0076
 21
-54.3538
  0
LINE
  8
0
 10
-29.0076
 20
-54.3538
 11
-28.8819
 21
-54.3819
  0
LINE
  8
0
 10
-28.8819
 20
-54.3819
 11
-28.7582
 21
-54.4178
  0
LINE
  8
0
 10
-28.7582
 20
-54.4178
 11
-28.637
 21
-54.4615
  0
LINE
  8
0
 10
-28.637
 20
-54.4615
 11
-28.5189
 21
-54.5126
  0
LINE
  8
0
 10
-28.5189
 20
-54.5126
 11
-28.4041
 21
-54.5711
  0
LINE
  8
0
 10
-28.4041
 20
-54.5711
 11
-28.2932
 21
-54.6366
  0
LINE
  8
0
 10
-28.2932
 20
-54.6366
 11
-28.1867
 21
-54.709
  0
LINE
  8
0
 10
-28.1867
 20
-54.709
 11
-28.085
 21
-54.788
  0
LINE
  8
0
 10
-28.085
 20
-54.788
 11
-27.9884
 21
-54.8731
  0
LINE
  8
0
 10
-27.9884
 20
-54.8731
 11
-27.8973
 21
-54.9642
  0
LINE
  8
0
 10
-27.8973
 20
-54.9642
 11
-27.8122
 21
-55.0608
  0
LINE
  8
0
 10
-27.8122
 20
-55.0608
 11
-27.7332
 21
-55.1625
  0
LINE
  8
0
 10
-27.7332
 20
-55.1625
 11
-27.6608
 21
-55.2691
  0
LINE
  8
0
 10
-27.6608
 20
-55.2691
 11
-27.5953
 21
-55.3799
  0
LINE
  8
0
 10
-27.5953
 20
-55.3799
 11
-27.5368
 21
-55.4947
  0
LINE
  8
0
 10
-27.5368
 20
-55.4947
 11
-27.4857
 21
-55.6129
  0
LINE
  8
0
 10
-27.4857
 20
-55.6129
 11
-27.442
 21
-55.734
  0
LINE
  8
0
 10
-27.442
 20
-55.734
 11
-27.4061
 21
-55.8577
  0
LINE
  8
0
 10
-27.4061
 20
-55.8577
 11
-27.378
 21
-55.9834
  0
LINE
  8
0
 10
-27.378
 20
-55.9834
 11
-27.3579
 21
-56.1106
  0
LINE
  8
0
 10
-27.3579
 20
-56.1106
 11
-27.3457
 21
-56.2388
  0
LINE
  8
0
 10
-27.3457
 20
-56.2388
 11
-27.3417
 21
-56.3675
  0
LINE
  8
0
 10
-27.3417
 20
-56.3675
 11
-27.3457
 21
-56.4962
  0
LINE
  8
0
 10
-27.3457
 20
-56.4962
 11
-27.3579
 21
-56.6244
  0
LINE
  8
0
 10
-27.3579
 20
-56.6244
 11
-27.378
 21
-56.7516
  0
LINE
  8
0
 10
-27.378
 20
-56.7516
 11
-27.4061
 21
-56.8773
  0
LINE
  8
0
 10
-27.4061
 20
-56.8773
 11
-27.442
 21
-57.001
  0
LINE
  8
0
 10
-27.442
 20
-57.001
 11
-27.4857
 21
-57.1222
  0
LINE
  8
0
 10
-27.4857
 20
-57.1222
 11
-27.5368
 21
-57.2404
  0
LINE
  8
0
 10
-27.5368
 20
-57.2404
 11
-27.5953
 21
-57.3551
  0
LINE
  8
0
 10
-27.5953
 20
-57.3551
 11
-27.6608
 21
-57.466
  0
LINE
  8
0
 10
-27.6608
 20
-57.466
 11
-27.7332
 21
-57.5725
  0
LINE
  8
0
 10
-27.7332
 20
-57.5725
 11
-27.8122
 21
-57.6742
  0
LINE
  8
0
 10
-27.8122
 20
-57.6742
 11
-27.8973
 21
-57.7708
  0
LINE
  8
0
 10
-27.8973
 20
-57.7708
 11
-27.9884
 21
-57.8619
  0
LINE
  8
0
 10
-27.9884
 20
-57.8619
 11
-28.085
 21
-57.9471
  0
LINE
  8
0
 10
-28.085
 20
-57.9471
 11
-28.1867
 21
-58.026
  0
LINE
  8
0
 10
-28.1867
 20
-58.026
 11
-28.2932
 21
-58.0984
  0
LINE
  8
0
 10
-28.2932
 20
-58.0984
 11
-28.4041
 21
-58.1639
  0
LINE
  8
0
 10
-28.4041
 20
-58.1639
 11
-28.5189
 21
-58.2224
  0
LINE
  8
0
 10
-28.5189
 20
-58.2224
 11
-28.637
 21
-58.2736
  0
LINE
  8
0
 10
-28.637
 20
-58.2736
 11
-28.7582
 21
-58.3172
  0
LINE
  8
0
 10
-28.7582
 20
-58.3172
 11
-28.8819
 21
-58.3531
  0
LINE
  8
0
 10
-28.8819
 20
-58.3531
 11
-29.0076
 21
-58.3812
  0
LINE
  8
0
 10
-29.0076
 20
-58.3812
 11
-29.1348
 21
-58.4013
  0
LINE
  8
0
 10
-29.1348
 20
-58.4013
 11
-29.263
 21
-58.4135
  0
LINE
  8
0
 10
-29.263
 20
-58.4135
 11
-29.3917
 21
-58.4175
  0
LINE
  8
0
 10
-29.3917
 20
-58.4175
 11
-29.5204
 21
-58.4135
  0
LINE
  8
0
 10
-65.4807
 20
-58.4914
 11
-65.6089
 21
-58.4793
  0
LINE
  8
0
 10
-65.6089
 20
-58.4793
 11
-65.7361
 21
-58.4591
  0
LINE
  8
0
 10
-65.7361
 20
-58.4591
 11
-65.8618
 21
-58.4311
  0
LINE
  8
0
 10
-65.8618
 20
-58.4311
 11
-65.9854
 21
-58.3951
  0
LINE
  8
0
 10
-65.9854
 20
-58.3951
 11
-66.1066
 21
-58.3515
  0
LINE
  8
0
 10
-66.1066
 20
-58.3515
 11
-66.2248
 21
-58.3004
  0
LINE
  8
0
 10
-66.2248
 20
-58.3004
 11
-66.3396
 21
-58.2419
  0
LINE
  8
0
 10
-66.3396
 20
-58.2419
 11
-66.4504
 21
-58.1763
  0
LINE
  8
0
 10
-66.4504
 20
-58.1763
 11
-66.5569
 21
-58.1039
  0
LINE
  8
0
 10
-66.5569
 20
-58.1039
 11
-66.6587
 21
-58.025
  0
LINE
  8
0
 10
-66.6587
 20
-58.025
 11
-66.7553
 21
-57.9398
  0
LINE
  8
0
 10
-66.7553
 20
-57.9398
 11
-66.8464
 21
-57.8488
  0
LINE
  8
0
 10
-66.8464
 20
-57.8488
 11
-66.9315
 21
-57.7522
  0
LINE
  8
0
 10
-66.9315
 20
-57.7522
 11
-67.0104
 21
-57.6504
  0
LINE
  8
0
 10
-67.0104
 20
-57.6504
 11
-67.0828
 21
-57.5439
  0
LINE
  8
0
 10
-67.0828
 20
-57.5439
 11
-67.1484
 21
-57.4331
  0
LINE
  8
0
 10
-67.1484
 20
-57.4331
 11
-67.2069
 21
-57.3183
  0
LINE
  8
0
 10
-67.2069
 20
-57.3183
 11
-67.258
 21
-57.2001
  0
LINE
  8
0
 10
-67.258
 20
-57.2001
 11
-67.3016
 21
-57.0789
  0
LINE
  8
0
 10
-67.3016
 20
-57.0789
 11
-67.3376
 21
-56.9553
  0
LINE
  8
0
 10
-67.3376
 20
-56.9553
 11
-67.3657
 21
-56.8296
  0
LINE
  8
0
 10
-67.3657
 20
-56.8296
 11
-67.3858
 21
-56.7024
  0
LINE
  8
0
 10
-67.3858
 20
-56.7024
 11
-67.3979
 21
-56.5742
  0
LINE
  8
0
 10
-67.3979
 20
-56.5742
 11
-67.402
 21
-56.4455
  0
LINE
  8
0
 10
-67.402
 20
-56.4455
 11
-67.3979
 21
-56.3167
  0
LINE
  8
0
 10
-67.3979
 20
-56.3167
 11
-67.3858
 21
-56.1885
  0
LINE
  8
0
 10
-67.3858
 20
-56.1885
 11
-67.3657
 21
-56.0613
  0
LINE
  8
0
 10
-67.3657
 20
-56.0613
 11
-67.3376
 21
-55.9357
  0
LINE
  8
0
 10
-67.3376
 20
-55.9357
 11
-67.3016
 21
-55.812
  0
LINE
  8
0
 10
-67.3016
 20
-55.812
 11
-67.258
 21
-55.6908
  0
LINE
  8
0
 10
-67.258
 20
-55.6908
 11
-67.2069
 21
-55.5726
  0
LINE
  8
0
 10
-67.2069
 20
-55.5726
 11
-67.1484
 21
-55.4579
  0
LINE
  8
0
 10
-67.1484
 20
-55.4579
 11
-67.0828
 21
-55.347
  0
LINE
  8
0
 10
-67.0828
 20
-55.347
 11
-67.0104
 21
-55.2405
  0
LINE
  8
0
 10
-67.0104
 20
-55.2405
 11
-66.9315
 21
-55.1387
  0
LINE
  8
0
 10
-66.9315
 20
-55.1387
 11
-66.8464
 21
-55.0421
  0
LINE
  8
0
 10
-66.8464
 20
-55.0421
 11
-66.7553
 21
-54.9511
  0
LINE
  8
0
 10
-66.7553
 20
-54.9511
 11
-66.6587
 21
-54.8659
  0
LINE
  8
0
 10
-66.6587
 20
-54.8659
 11
-66.5569
 21
-54.787
  0
LINE
  8
0
 10
-66.5569
 20
-54.787
 11
-66.4504
 21
-54.7146
  0
LINE
  8
0
 10
-66.4504
 20
-54.7146
 11
-66.3396
 21
-54.649
  0
LINE
  8
0
 10
-66.3396
 20
-54.649
 11
-66.2248
 21
-54.5906
  0
LINE
  8
0
 10
-66.2248
 20
-54.5906
 11
-66.1066
 21
-54.5394
  0
LINE
  8
0
 10
-66.1066
 20
-54.5394
 11
-65.9854
 21
-54.4958
  0
LINE
  8
0
 10
-65.9854
 20
-54.4958
 11
-65.8618
 21
-54.4599
  0
LINE
  8
0
 10
-65.8618
 20
-54.4599
 11
-65.7361
 21
-54.4318
  0
LINE
  8
0
 10
-65.7361
 20
-54.4318
 11
-65.6089
 21
-54.4116
  0
LINE
  8
0
 10
-65.6089
 20
-54.4116
 11
-65.4807
 21
-54.3995
  0
LINE
  8
0
 10
-65.4807
 20
-54.3995
 11
-65.352
 21
-54.3955
  0
LINE
  8
0
 10
-65.352
 20
-54.3955
 11
-65.2232
 21
-54.3995
  0
LINE
  8
0
 10
-65.2232
 20
-54.3995
 11
-65.095
 21
-54.4116
  0
LINE
  8
0
 10
-65.095
 20
-54.4116
 11
-64.9678
 21
-54.4318
  0
LINE
  8
0
 10
-64.9678
 20
-54.4318
 11
-64.8422
 21
-54.4599
  0
LINE
  8
0
 10
-64.8422
 20
-54.4599
 11
-64.7185
 21
-54.4958
  0
LINE
  8
0
 10
-64.7185
 20
-54.4958
 11
-64.5973
 21
-54.5394
  0
LINE
  8
0
 10
-64.5973
 20
-54.5394
 11
-64.4791
 21
-54.5906
  0
LINE
  8
0
 10
-64.4791
 20
-54.5906
 11
-64.3644
 21
-54.649
  0
LINE
  8
0
 10
-64.3644
 20
-54.649
 11
-64.2535
 21
-54.7146
  0
LINE
  8
0
 10
-64.2535
 20
-54.7146
 11
-64.147
 21
-54.787
  0
LINE
  8
0
 10
-64.147
 20
-54.787
 11
-64.0452
 21
-54.8659
  0
LINE
  8
0
 10
-64.0452
 20
-54.8659
 11
-63.9486
 21
-54.9511
  0
LINE
  8
0
 10
-63.9486
 20
-54.9511
 11
-63.8576
 21
-55.0421
  0
LINE
  8
0
 10
-63.8576
 20
-55.0421
 11
-63.7724
 21
-55.1387
  0
LINE
  8
0
 10
-63.7724
 20
-55.1387
 11
-63.6935
 21
-55.2405
  0
LINE
  8
0
 10
-63.6935
 20
-55.2405
 11
-63.6211
 21
-55.347
  0
LINE
  8
0
 10
-63.6211
 20
-55.347
 11
-63.5555
 21
-55.4579
  0
LINE
  8
0
 10
-63.5555
 20
-55.4579
 11
-63.4971
 21
-55.5726
  0
LINE
  8
0
 10
-63.4971
 20
-55.5726
 11
-63.4459
 21
-55.6908
  0
LINE
  8
0
 10
-63.4459
 20
-55.6908
 11
-63.4023
 21
-55.812
  0
LINE
  8
0
 10
-63.4023
 20
-55.812
 11
-63.3664
 21
-55.9357
  0
LINE
  8
0
 10
-63.3664
 20
-55.9357
 11
-63.3383
 21
-56.0613
  0
LINE
  8
0
 10
-63.3383
 20
-56.0613
 11
-63.3181
 21
-56.1885
  0
LINE
  8
0
 10
-63.3181
 20
-56.1885
 11
-63.306
 21
-56.3167
  0
LINE
  8
0
 10
-63.306
 20
-56.3167
 11
-63.302
 21
-56.4455
  0
LINE
  8
0
 10
-63.302
 20
-56.4455
 11
-63.306
 21
-56.5742
  0
LINE
  8
0
 10
-63.306
 20
-56.5742
 11
-63.3181
 21
-56.7024
  0
LINE
  8
0
 10
-63.3181
 20
-56.7024
 11
-63.3383
 21
-56.8296
  0
LINE
  8
0
 10
-63.3383
 20
-56.8296
 11
-63.3664
 21
-56.9553
  0
LINE
  8
0
 10
-63.3664
 20
-56.9553
 11
-63.4023
 21
-57.0789
  0
LINE
  8
0
 10
-63.4023
 20
-57.0789
 11
-63.4459
 21
-57.2001
  0
LINE
  8
0
 10
-63.4459
 20
-57.2001
 11
-63.4971
 21
-57.3183
  0
LINE
  8
0
 10
-63.4971
 20
-57.3183
 11
-63.5555
 21
-57.4331
  0
LINE
  8
0
 10
-63.5555
 20
-57.4331
 11
-63.6211
 21
-57.5439
  0
LINE
  8
0
 10
-63.6211
 20
-57.5439
 11
-63.6935
 21
-57.6504
  0
LINE
  8
0
 10
-63.6935
 20
-57.6504
 11
-63.7724
 21
-57.7522
  0
LINE
  8
0
 10
-63.7724
 20
-57.7522
 11
-63.8576
 21
-57.8488
  0
LINE
  8
0
 10
-63.8576
 20
-57.8488
 11
-63.9486
 21
-57.9398
  0
LINE
  8
0
 10
-63.9486
 20
-57.9398
 11
-64.0452
 21
-58.025
  0
LINE
  8
0
 10
-64.0452
 20
-58.025
 11
-64.147
 21
-58.1039
  0
LINE
  8
0
 10
-64.147
 20
-58.1039
 11
-64.2535
 21
-58.1763
  0
LINE
  8
0
 10
-64.2535
 20
-58.1763
 11
-64.3644
 21
-58.2419
  0
LINE
  8
0
 10
-64.3644
 20
-58.2419
 11
-64.4791
 21
-58.3004
  0
LINE
  8
0
 10
-64.4791
 20
-58.3004
 11
-64.5973
 21
-58.3515
  0
LINE
  8
0
 10
-64.5973
 20
-58.3515
 11
-64.7185
 21
-58.3951
  0
LINE
  8
0
 10
-64.7185
 20
-58.3951
 11
-64.8422
 21
-58.4311
  0
LINE
  8
0
 10
-64.8422
 20
-58.4311
 11
-64.9678
 21
-58.4591
  0
LINE
  8
0
 10
-64.9678
 20
-58.4591
 11
-65.095
 21
-58.4793
  0
LINE
  8
0
 10
-65.095
 20
-58.4793
 11
-65.2232
 21
-58.4914
  0
LINE
  8
0
 10
-65.2232
 20
-58.4914
 11
-65.352
 21
-58.4955
  0
LINE
  8
0
 10
-65.352
 20
-58.4955
 11
-65.4807
 21
-58.4914
  0
LINE
  8
0
 10
-48.071
 20
-75.0525
 11
-48.1492
 21
-75.0451
  0
LINE
  8
0
 10
-48.1492
 20
-75.0451
 11
-48.2267
 21
-75.0328
  0
LINE
  8
0
 10
-48.2267
 20
-75.0328
 11
-48.3034
 21
-75.0157
  0
LINE
  8
0
 10
-48.3034
 20
-75.0157
 11
-48.3788
 21
-74.9938
  0
LINE
  8
0
 10
-48.3788
 20
-74.9938
 11
-48.4526
 21
-74.9671
  0
LINE
  8
0
 10
-48.4526
 20
-74.9671
 11
-48.5247
 21
-74.936
  0
LINE
  8
0
 10
-48.5247
 20
-74.936
 11
-48.5947
 21
-74.9003
  0
LINE
  8
0
 10
-48.5947
 20
-74.9003
 11
-48.6623
 21
-74.8603
  0
LINE
  8
0
 10
-48.6623
 20
-74.8603
 11
-48.7272
 21
-74.8162
  0
LINE
  8
0
 10
-48.7272
 20
-74.8162
 11
-48.7893
 21
-74.7681
  0
LINE
  8
0
 10
-48.7893
 20
-74.7681
 11
-48.8482
 21
-74.7161
  0
LINE
  8
0
 10
-48.8482
 20
-74.7161
 11
-48.9037
 21
-74.6606
  0
LINE
  8
0
 10
-48.9037
 20
-74.6606
 11
-48.9556
 21
-74.6017
  0
LINE
  8
0
 10
-48.9556
 20
-74.6017
 11
-49.0038
 21
-74.5397
  0
LINE
  8
0
 10
-49.0038
 20
-74.5397
 11
-49.0479
 21
-74.4747
  0
LINE
  8
0
 10
-49.0479
 20
-74.4747
 11
-49.0879
 21
-74.4071
  0
LINE
  8
0
 10
-49.0879
 20
-74.4071
 11
-49.1235
 21
-74.3372
  0
LINE
  8
0
 10
-49.1235
 20
-74.3372
 11
-49.1547
 21
-74.2651
  0
LINE
  8
0
 10
-49.1547
 20
-74.2651
 11
-49.1813
 21
-74.1912
  0
LINE
  8
0
 10
-49.1813
 20
-74.1912
 11
-49.2032
 21
-74.1158
  0
LINE
  8
0
 10
-49.2032
 20
-74.1158
 11
-49.2204
 21
-74.0392
  0
LINE
  8
0
 10
-49.2204
 20
-74.0392
 11
-49.2326
 21
-73.9616
  0
LINE
  8
0
 10
-49.2326
 20
-73.9616
 11
-49.24
 21
-73.8834
  0
LINE
  8
0
 10
-49.24
 20
-73.8834
 11
-49.2425
 21
-73.8049
  0
LINE
  8
0
 10
-49.2425
 20
-73.8049
 11
-49.24
 21
-73.7264
  0
LINE
  8
0
 10
-49.24
 20
-73.7264
 11
-49.2326
 21
-73.6483
  0
LINE
  8
0
 10
-49.2326
 20
-73.6483
 11
-49.2204
 21
-73.5707
  0
LINE
  8
0
 10
-49.2204
 20
-73.5707
 11
-49.2032
 21
-73.4941
  0
LINE
  8
0
 10
-49.2032
 20
-73.4941
 11
-49.1813
 21
-73.4187
  0
LINE
  8
0
 10
-49.1813
 20
-73.4187
 11
-49.1547
 21
-73.3448
  0
LINE
  8
0
 10
-49.1547
 20
-73.3448
 11
-49.1235
 21
-73.2727
  0
LINE
  8
0
 10
-49.1235
 20
-73.2727
 11
-49.0879
 21
-73.2027
  0
LINE
  8
0
 10
-49.0879
 20
-73.2027
 11
-49.0479
 21
-73.1351
  0
LINE
  8
0
 10
-49.0479
 20
-73.1351
 11
-49.0038
 21
-73.0702
  0
LINE
  8
0
 10
-49.0038
 20
-73.0702
 11
-48.9556
 21
-73.0081
  0
LINE
  8
0
 10
-48.9556
 20
-73.0081
 11
-48.9037
 21
-72.9492
  0
LINE
  8
0
 10
-48.9037
 20
-72.9492
 11
-48.8482
 21
-72.8937
  0
LINE
  8
0
 10
-48.8482
 20
-72.8937
 11
-48.7893
 21
-72.8418
  0
LINE
  8
0
 10
-48.7893
 20
-72.8418
 11
-48.7272
 21
-72.7937
  0
LINE
  8
0
 10
-48.7272
 20
-72.7937
 11
-48.6623
 21
-72.7495
  0
LINE
  8
0
 10
-48.6623
 20
-72.7495
 11
-48.5947
 21
-72.7095
  0
LINE
  8
0
 10
-48.5947
 20
-72.7095
 11
-48.5247
 21
-72.6739
  0
LINE
  8
0
 10
-48.5247
 20
-72.6739
 11
-48.4526
 21
-72.6427
  0
LINE
  8
0
 10
-48.4526
 20
-72.6427
 11
-48.3788
 21
-72.6161
  0
LINE
  8
0
 10
-48.3788
 20
-72.6161
 11
-48.3034
 21
-72.5942
  0
LINE
  8
0
 10
-48.3034
 20
-72.5942
 11
-48.2267
 21
-72.5771
  0
LINE
  8
0
 10
-48.2267
 20
-72.5771
 11
-48.1492
 21
-72.5648
  0
LINE
  8
0
 10
-48.1492
 20
-72.5648
 11
-48.071
 21
-72.5574
  0
LINE
  8
0
 10
-48.071
 20
-72.5574
 11
-47.9925
 21
-72.5549
  0
LINE
  8
0
 10
-47.9925
 20
-72.5549
 11
-47.914
 21
-72.5574
  0
LINE
  8
0
 10
-47.914
 20
-72.5574
 11
-47.8358
 21
-72.5648
  0
LINE
  8
0
 10
-47.8358
 20
-72.5648
 11
-47.7583
 21
-72.5771
  0
LINE
  8
0
 10
-47.7583
 20
-72.5771
 11
-47.6816
 21
-72.5942
  0
LINE
  8
0
 10
-47.6816
 20
-72.5942
 11
-47.6062
 21
-72.6161
  0
LINE
  8
0
 10
-47.6062
 20
-72.6161
 11
-47.5323
 21
-72.6427
  0
LINE
  8
0
 10
-47.5323
 20
-72.6427
 11
-47.4603
 21
-72.6739
  0
LINE
  8
0
 10
-47.4603
 20
-72.6739
 11
-47.3903
 21
-72.7095
  0
LINE
  8
0
 10
-47.3903
 20
-72.7095
 11
-47.3227
 21
-72.7495
  0
LINE
  8
0
 10
-47.3227
 20
-72.7495
 11
-47.2578
 21
-72.7937
  0
LINE
  8
0
 10
-47.2578
 20
-72.7937
 11
-47.1957
 21
-72.8418
  0
LINE
  8
0
 10
-47.1957
 20
-72.8418
 11
-47.1368
 21
-72.8937
  0
LINE
  8
0
 10
-47.1368
 20
-72.8937
 11
-47.0813
 21
-72.9492
  0
LINE
  8
0
 10
-47.0813
 20
-72.9492
 11
-47.0293
 21
-73.0081
  0
LINE
  8
0
 10
-47.0293
 20
-73.0081
 11
-46.9812
 21
-73.0702
  0
LINE
  8
0
 10
-46.9812
 20
-73.0702
 11
-46.9371
 21
-73.1351
  0
LINE
  8
0
 10
-46.9371
 20
-73.1351
 11
-46.8971
 21
-73.2027
  0
LINE
  8
0
 10
-46.8971
 20
-73.2027
 11
-46.8615
 21
-73.2727
  0
LINE
  8
0
 10
-46.8615
 20
-73.2727
 11
-46.8303
 21
-73.3448
  0
LINE
  8
0
 10
-46.8303
 20
-73.3448
 11
-46.8037
 21
-73.4187
  0
LINE
  8
0
 10
-46.8037
 20
-73.4187
 11
-46.7818
 21
-73.4941
  0
LINE
  8
0
 10
-46.7818
 20
-73.4941
 11
-46.7646
 21
-73.5707
  0
LINE
  8
0
 10
-46.7646
 20
-73.5707
 11
-46.7524
 21
-73.6483
  0
LINE
  8
0
 10
-46.7524
 20
-73.6483
 11
-46.745
 21
-73.7264
  0
LINE
  8
0
 10
-46.745
 20
-73.7264
 11
-46.7425
 21
-73.8049
  0
LINE
  8
0
 10
-46.7425
 20
-73.8049
 11
-46.745
 21
-73.8834
  0
LINE
  8
0
 10
-46.745
 20
-73.8834
 11
-46.7524
 21
-73.9616
  0
LINE
  8
0
 10
-46.7524
 20
-73.9616
 11
-46.7646
 21
-74.0392
  0
LINE
  8
0
 10
-46.7646
 20
-74.0392
 11
-46.7818
 21
-74.1158
  0
LINE
  8
0
 10
-46.7818
 20
-74.1158
 11
-46.8037
 21
-74.1912
  0
LINE
  8
0
 10
-46.8037
 20
-74.1912
 11
-46.8303
 21
-74.2651
  0
LINE
  8
0
 10
-46.8303
 20
-74.2651
 11
-46.8615
 21
-74.3372
  0
LINE
  8
0
 10
-46.8615
 20
-74.3372
 11
-46.8971
 21
-74.4071
  0
LINE
  8
0
 10
-46.8971
 20
-74.4071
 11
-46.9371
 21
-74.4747
  0
LINE
  8
0
 10
-46.9371
 20
-74.4747
 11
-46.9812
 21
-74.5397
  0
LINE
  8
0
 10
-46.9812
 20
-74.5397
 11
-47.0293
 21
-74.6017
  0
LINE
  8
0
 10
-47.0293
 20
-74.6017
 11
-47.0813
 21
-74.6606
  0
LINE
  8
0
 10
-47.0813
 20
-74.6606
 11
-47.1368
 21
-74.7161
  0
LINE
  8
0
 10
-47.1368
 20
-74.7161
 11
-47.1957
 21
-74.7681
  0
LINE
  8
0
 10
-47.1957
 20
-74.7681
 11
-47.2578
 21
-74.8162
  0
LINE
  8
0
 10
-47.2578
 20
-74.8162
 11
-47.3227
 21
-74.8603
  0
LINE
  8
0
 10
-47.3227
 20
-74.8603
 11
-47.3903
 21
-74.9003
  0
LINE
  8
0
 10
-47.3903
 20
-74.9003
 11
-47.4603
 21
-74.936
  0
LINE
  8
0
 10
-47.4603
 20
-74.936
 11
-47.5323
 21
-74.9671
  0
LINE
  8
0
 10
-47.5323
 20
-74.9671
 11
-47.6062
 21
-74.9938
  0
LINE
  8
0
 10
-47.6062
 20
-74.9938
 11
-47.6816
 21
-75.0157
  0
LINE
  8
0
 10
-47.6816
 20
-75.0157
 11
-47.7583
 21
-75.0328
  0
LINE
  8
0
 10
-47.7583
 20
-75.0328
 11
-47.8358
 21
-75.0451
  0
LINE
  8
0
 10
-47.8358
 20
-75.0451
 11
-47.914
 21
-75.0525
  0
LINE
  8
0
 10
-47.914
 20
-75.0525
 11
-47.9925
 21
-75.0549
  0
LINE
  8
0
 10
-47.9925
 20
-75.0549
 11
-48.071
 21
-75.0525
  0
ENDSEC
  0
SECTION
  2
OBJECTS
  0
DICTIONARY
  0
ENDSEC
  0
EOF
