  0
SECTION
  2
BLOCKS
  0
ENDSEC
  0
SECTION
  2
ENTITIES
  0
LINE
  8
0
 10
-103.092
 20
-56.9114
 11
-102.967
 21
-56.8956
  0
LINE
  8
0
 10
-102.967
 20
-56.8956
 11
-102.844
 21
-56.8721
  0
LINE
  8
0
 10
-102.844
 20
-56.8721
 11
-102.722
 21
-56.8409
  0
LINE
  8
0
 10
-102.722
 20
-56.8409
 11
-102.603
 21
-56.802
  0
LINE
  8
0
 10
-102.603
 20
-56.802
 11
-102.486
 21
-56.7558
  0
LINE
  8
0
 10
-102.486
 20
-56.7558
 11
-102.372
 21
-56.7023
  0
LINE
  8
0
 10
-102.372
 20
-56.7023
 11
-102.262
 21
-56.6418
  0
LINE
  8
0
 10
-102.262
 20
-56.6418
 11
-102.156
 21
-56.5744
  0
LINE
  8
0
 10
-102.156
 20
-56.5744
 11
-102.054
 21
-56.5006
  0
LINE
  8
0
 10
-102.054
 20
-56.5006
 11
-101.957
 21
-56.4205
  0
LINE
  8
0
 10
-101.957
 20
-56.4205
 11
-101.866
 21
-56.3345
  0
LINE
  8
0
 10
-101.866
 20
-56.3345
 11
-90.2695
 21
-44.7382
  0
LINE
  8
0
 10
-90.2695
 20
-44.7382
 11
-87.2774
 21
-41.9284
  0
LINE
  8
0
 10
-87.2774
 20
-41.9284
 11
-84.2107
 21
-39.3915
  0
LINE
  8
0
 10
-84.2107
 20
-39.3915
 11
-80.9917
 21
-37.0527
  0
LINE
  8
0
 10
-80.9917
 20
-37.0527
 11
-77.6317
 21
-34.9204
  0
LINE
  8
0
 10
-77.6317
 20
-34.9204
 11
-74.1442
 21
-33.0031
  0
LINE
  8
0
 10
-74.1442
 20
-33.0031
 11
-70.5437
 21
-31.3088
  0
LINE
  8
0
 10
-70.5437
 20
-31.3088
 11
-66.8436
 21
-29.8439
  0
LINE
  8
0
 10
-66.8436
 20
-29.8439
 11
-63.059
 21
-28.6142
  0
LINE
  8
0
 10
-63.059
 20
-28.6142
 11
-59.2043
 21
-27.6245
  0
LINE
  8
0
 10
-59.2043
 20
-27.6245
 11
-55.2955
 21
-26.8788
  0
LINE
  8
0
 10
-55.2955
 20
-26.8788
 11
-51.3475
 21
-26.3801
  0
LINE
  8
0
 10
-51.3475
 20
-26.3801
 11
-47.3759
 21
-26.1302
  0
LINE
  8
0
 10
-47.3759
 20
-26.1302
 11
-44.2771
 21
-26.1302
  0
LINE
  8
0
 10
-44.2771
 20
-26.1302
 11
-44.1516
 21
-26.1263
  0
LINE
  8
0
 10
-44.1516
 20
-26.1263
 11
-44.0265
 21
-26.1144
  0
LINE
  8
0
 10
-44.0265
 20
-26.1144
 11
-43.9037
 21
-26.095
  0
LINE
  8
0
 10
-43.9037
 20
-26.095
 11
-9.81099
 21
-26.095
  0
LINE
  8
0
 10
-9.81099
 20
-26.095
 11
-9.68541
 21
-26.091
  0
LINE
  8
0
 10
-9.68541
 20
-26.091
 11
-9.56032
 21
-26.0792
  0
LINE
  8
0
 10
-9.56032
 20
-26.0792
 11
-9.43623
 21
-26.0596
  0
LINE
  8
0
 10
-9.43623
 20
-26.0596
 11
-9.31361
 21
-26.0322
  0
LINE
  8
0
 10
-9.31361
 20
-26.0322
 11
-9.19296
 21
-25.9971
  0
LINE
  8
0
 10
-9.19296
 20
-25.9971
 11
-9.07474
 21
-25.9545
  0
LINE
  8
0
 10
-9.07474
 20
-25.9545
 11
-8.95943
 21
-25.9046
  0
LINE
  8
0
 10
-8.95943
 20
-25.9046
 11
-8.84749
 21
-25.8476
  0
LINE
  8
0
 10
-8.84749
 20
-25.8476
 11
-8.73933
 21
-25.7836
  0
LINE
  8
0
 10
-8.73933
 20
-25.7836
 11
-8.63542
 21
-25.713
  0
LINE
  8
0
 10
-8.63542
 20
-25.713
 11
-8.53615
 21
-25.636
  0
LINE
  8
0
 10
-8.53615
 20
-25.636
 11
-8.44189
 21
-25.5529
  0
LINE
  8
0
 10
-8.44189
 20
-25.5529
 11
-8.35306
 21
-25.4641
  0
LINE
  8
0
 10
-8.35306
 20
-25.4641
 11
-8.26996
 21
-25.3698
  0
LINE
  8
0
 10
-8.26996
 20
-25.3698
 11
-8.19296
 21
-25.2706
  0
LINE
  8
0
 10
-8.19296
 20
-25.2706
 11
-8.12233
 21
-25.1666
  0
LINE
  8
0
 10
-8.12233
 20
-25.1666
 11
-8.05838
 21
-25.0585
  0
LINE
  8
0
 10
-8.05838
 20
-25.0585
 11
-8.00134
 21
-24.9465
  0
LINE
  8
0
 10
-8.00134
 20
-24.9465
 11
-7.95143
 21
-24.8312
  0
LINE
  8
0
 10
-7.95143
 20
-24.8312
 11
-7.90887
 21
-24.713
  0
LINE
  8
0
 10
-7.90887
 20
-24.713
 11
-7.87383
 21
-24.5924
  0
LINE
  8
0
 10
-7.87383
 20
-24.5924
 11
-7.84642
 21
-24.4697
  0
LINE
  8
0
 10
-7.84642
 20
-24.4697
 11
-7.82677
 21
-24.3457
  0
LINE
  8
0
 10
-7.82677
 20
-24.3457
 11
-7.81494
 21
-24.2206
  0
LINE
  8
0
 10
-7.81494
 20
-24.2206
 11
-7.81099
 21
-24.095
  0
LINE
  8
0
 10
-7.81099
 20
-24.095
 11
-7.81099
 21
-18.525
  0
LINE
  8
0
 10
-7.81099
 20
-18.525
 11
14.65
 21
-18.525
  0
LINE
  8
0
 10
14.65
 20
-18.525
 11
14.7756
 21
-18.521
  0
LINE
  8
0
 10
14.7756
 20
-18.521
 11
14.9007
 21
-18.5092
  0
LINE
  8
0
 10
14.9007
 20
-18.5092
 11
15.0247
 21
-18.4896
  0
LINE
  8
0
 10
15.0247
 20
-18.4896
 11
15.1474
 21
-18.4622
  0
LINE
  8
0
 10
15.1474
 20
-18.4622
 11
15.268
 21
-18.4271
  0
LINE
  8
0
 10
15.268
 20
-18.4271
 11
15.3862
 21
-18.3846
  0
LINE
  8
0
 10
15.3862
 20
-18.3846
 11
15.5016
 21
-18.3346
  0
LINE
  8
0
 10
15.5016
 20
-18.3346
 11
15.6135
 21
-18.2776
  0
LINE
  8
0
 10
15.6135
 20
-18.2776
 11
15.7216
 21
-18.2137
  0
LINE
  8
0
 10
15.7216
 20
-18.2137
 11
15.8256
 21
-18.143
  0
LINE
  8
0
 10
15.8256
 20
-18.143
 11
15.9248
 21
-18.066
  0
LINE
  8
0
 10
15.9248
 20
-18.066
 11
16.0191
 21
-17.9829
  0
LINE
  8
0
 10
16.0191
 20
-17.9829
 11
16.1079
 21
-17.8941
  0
LINE
  8
0
 10
16.1079
 20
-17.8941
 11
16.191
 21
-17.7998
  0
LINE
  8
0
 10
16.191
 20
-17.7998
 11
16.268
 21
-17.7006
  0
LINE
  8
0
 10
16.268
 20
-17.7006
 11
16.3387
 21
-17.5966
  0
LINE
  8
0
 10
16.3387
 20
-17.5966
 11
16.4026
 21
-17.4885
  0
LINE
  8
0
 10
16.4026
 20
-17.4885
 11
16.4596
 21
-17.3766
  0
LINE
  8
0
 10
16.4596
 20
-17.3766
 11
16.5096
 21
-17.2612
  0
LINE
  8
0
 10
16.5096
 20
-17.2612
 11
16.5521
 21
-17.143
  0
LINE
  8
0
 10
16.5521
 20
-17.143
 11
16.5872
 21
-17.0224
  0
LINE
  8
0
 10
16.5872
 20
-17.0224
 11
16.6146
 21
-16.8997
  0
LINE
  8
0
 10
16.6146
 20
-16.8997
 11
16.6342
 21
-16.7757
  0
LINE
  8
0
 10
16.6342
 20
-16.7757
 11
16.646
 21
-16.6506
  0
LINE
  8
0
 10
16.646
 20
-16.6506
 11
16.65
 21
-16.525
  0
LINE
  8
0
 10
16.65
 20
-16.525
 11
16.65
 21
62.2139
  0
LINE
  8
0
 10
16.65
 20
62.2139
 11
16.646
 21
62.3395
  0
LINE
  8
0
 10
16.646
 20
62.3395
 11
16.6342
 21
62.4646
  0
LINE
  8
0
 10
16.6342
 20
62.4646
 11
16.6146
 21
62.5887
  0
LINE
  8
0
 10
16.6146
 20
62.5887
 11
16.5872
 21
62.7113
  0
LINE
  8
0
 10
16.5872
 20
62.7113
 11
16.5521
 21
62.8319
  0
LINE
  8
0
 10
16.5521
 20
62.8319
 11
16.5096
 21
62.9501
  0
LINE
  8
0
 10
16.5096
 20
62.9501
 11
16.4596
 21
63.0655
  0
LINE
  8
0
 10
16.4596
 20
63.0655
 11
16.4026
 21
63.1774
  0
LINE
  8
0
 10
16.4026
 20
63.1774
 11
16.3387
 21
63.2856
  0
LINE
  8
0
 10
16.3387
 20
63.2856
 11
16.268
 21
63.3895
  0
LINE
  8
0
 10
16.268
 20
63.3895
 11
16.191
 21
63.4887
  0
LINE
  8
0
 10
16.191
 20
63.4887
 11
16.1079
 21
63.583
  0
LINE
  8
0
 10
16.1079
 20
63.583
 11
16.0191
 21
63.6718
  0
LINE
  8
0
 10
16.0191
 20
63.6718
 11
15.9248
 21
63.7549
  0
LINE
  8
0
 10
15.9248
 20
63.7549
 11
15.8256
 21
63.8319
  0
LINE
  8
0
 10
15.8256
 20
63.8319
 11
15.7216
 21
63.9026
  0
LINE
  8
0
 10
15.7216
 20
63.9026
 11
15.6135
 21
63.9665
  0
LINE
  8
0
 10
15.6135
 20
63.9665
 11
15.5016
 21
64.0235
  0
LINE
  8
0
 10
15.5016
 20
64.0235
 11
15.3862
 21
64.0735
  0
LINE
  8
0
 10
15.3862
 20
64.0735
 11
15.3275
 21
64.0957
  0
LINE
  8
0
 10
15.3275
 20
64.0957
 11
5.6949
 21
67.5636
  0
LINE
  8
0
 10
5.6949
 20
67.5636
 11
5.57541
 21
67.6024
  0
LINE
  8
0
 10
5.57541
 20
67.6024
 11
-4.26447
 21
70.4612
  0
LINE
  8
0
 10
-4.26447
 20
70.4612
 11
-4.38615
 21
70.4924
  0
LINE
  8
0
 10
-4.38615
 20
70.4924
 11
-14.3861
 21
72.7277
  0
LINE
  8
0
 10
-14.3861
 20
72.7277
 11
-14.5096
 21
72.7512
  0
LINE
  8
0
 10
-14.5096
 20
72.7512
 11
-24.6302
 21
74.3542
  0
LINE
  8
0
 10
-24.6302
 20
74.3542
 11
-24.7548
 21
74.3699
  0
LINE
  8
0
 10
-24.7548
 20
74.3699
 11
-34.9561
 21
75.3342
  0
LINE
  8
0
 10
-34.9561
 20
75.3342
 11
-35.0815
 21
75.3421
  0
LINE
  8
0
 10
-35.0815
 20
75.3421
 11
-45.3232
 21
75.664
  0
LINE
  8
0
 10
-45.3232
 20
75.664
 11
-45.4488
 21
75.664
  0
LINE
  8
0
 10
-45.4488
 20
75.664
 11
-55.6905
 21
75.3421
  0
LINE
  8
0
 10
-55.6905
 20
75.3421
 11
-55.8159
 21
75.3342
  0
LINE
  8
0
 10
-55.8159
 20
75.3342
 11
-66.0172
 21
74.3699
  0
LINE
  8
0
 10
-66.0172
 20
74.3699
 11
-66.1418
 21
74.3542
  0
LINE
  8
0
 10
-66.1418
 20
74.3542
 11
-76.2624
 21
72.7512
  0
LINE
  8
0
 10
-76.2624
 20
72.7512
 11
-76.3859
 21
72.7277
  0
LINE
  8
0
 10
-76.3859
 20
72.7277
 11
-86.3858
 21
70.4924
  0
LINE
  8
0
 10
-86.3858
 20
70.4924
 11
-86.5075
 21
70.4612
  0
LINE
  8
0
 10
-86.5075
 20
70.4612
 11
-96.3474
 21
67.6024
  0
LINE
  8
0
 10
-96.3474
 20
67.6024
 11
-96.4669
 21
67.5636
  0
LINE
  8
0
 10
-96.4669
 20
67.5636
 11
-106.108
 21
64.0926
  0
LINE
  8
0
 10
-106.108
 20
64.0926
 11
-106.225
 21
64.0464
  0
LINE
  8
0
 10
-106.225
 20
64.0464
 11
-115.629
 21
59.9769
  0
LINE
  8
0
 10
-115.629
 20
59.9769
 11
-115.742
 21
59.9234
  0
LINE
  8
0
 10
-115.742
 20
59.9234
 11
-126.133
 21
54.6292
  0
LINE
  8
0
 10
-126.133
 20
54.6292
 11
-126.243
 21
54.5686
  0
LINE
  8
0
 10
-126.243
 20
54.5686
 11
-126.349
 21
54.5013
  0
LINE
  8
0
 10
-126.349
 20
54.5013
 11
-126.451
 21
54.4275
  0
LINE
  8
0
 10
-126.451
 20
54.4275
 11
-126.548
 21
54.3474
  0
LINE
  8
0
 10
-126.548
 20
54.3474
 11
-126.639
 21
54.2614
  0
LINE
  8
0
 10
-126.639
 20
54.2614
 11
-126.725
 21
54.1698
  0
LINE
  8
0
 10
-126.725
 20
54.1698
 11
-126.805
 21
54.073
  0
LINE
  8
0
 10
-126.805
 20
54.073
 11
-126.879
 21
53.9713
  0
LINE
  8
0
 10
-126.879
 20
53.9713
 11
-126.946
 21
53.8652
  0
LINE
  8
0
 10
-126.946
 20
53.8652
 11
-127.007
 21
53.7551
  0
LINE
  8
0
 10
-127.007
 20
53.7551
 11
-127.061
 21
53.6414
  0
LINE
  8
0
 10
-127.061
 20
53.6414
 11
-127.107
 21
53.5246
  0
LINE
  8
0
 10
-127.107
 20
53.5246
 11
-127.146
 21
53.4051
  0
LINE
  8
0
 10
-127.146
 20
53.4051
 11
-127.177
 21
53.2834
  0
LINE
  8
0
 10
-127.177
 20
53.2834
 11
-127.2
 21
53.16
  0
LINE
  8
0
 10
-127.2
 20
53.16
 11
-127.216
 21
53.0354
  0
LINE
  8
0
 10
-127.216
 20
53.0354
 11
-127.224
 21
52.91
  0
LINE
  8
0
 10
-127.224
 20
52.91
 11
-127.225
 21
52.8472
  0
LINE
  8
0
 10
-127.225
 20
52.8472
 11
-127.225
 21
-2.35631
  0
LINE
  8
0
 10
-127.225
 20
-2.35631
 11
-141.534
 21
-16.6658
  0
LINE
  8
0
 10
-141.534
 20
-16.6658
 11
-141.62
 21
-16.7574
  0
LINE
  8
0
 10
-141.62
 20
-16.7574
 11
-141.701
 21
-16.8542
  0
LINE
  8
0
 10
-141.701
 20
-16.8542
 11
-141.774
 21
-16.9559
  0
LINE
  8
0
 10
-141.774
 20
-16.9559
 11
-141.842
 21
-17.0619
  0
LINE
  8
0
 10
-141.842
 20
-17.0619
 11
-141.902
 21
-17.172
  0
LINE
  8
0
 10
-141.902
 20
-17.172
 11
-141.956
 21
-17.2857
  0
LINE
  8
0
 10
-141.956
 20
-17.2857
 11
-142.002
 21
-17.4025
  0
LINE
  8
0
 10
-142.002
 20
-17.4025
 11
-142.041
 21
-17.522
  0
LINE
  8
0
 10
-142.041
 20
-17.522
 11
-142.072
 21
-17.6437
  0
LINE
  8
0
 10
-142.072
 20
-17.6437
 11
-142.096
 21
-17.7672
  0
LINE
  8
0
 10
-142.096
 20
-17.7672
 11
-142.111
 21
-17.8918
  0
LINE
  8
0
 10
-142.111
 20
-17.8918
 11
-142.119
 21
-18.0172
  0
LINE
  8
0
 10
-142.119
 20
-18.0172
 11
-142.119
 21
-18.1428
  0
LINE
  8
0
 10
-142.119
 20
-18.1428
 11
-142.111
 21
-18.2682
  0
LINE
  8
0
 10
-142.111
 20
-18.2682
 11
-142.096
 21
-18.3929
  0
LINE
  8
0
 10
-142.096
 20
-18.3929
 11
-142.072
 21
-18.5163
  0
LINE
  8
0
 10
-142.072
 20
-18.5163
 11
-142.041
 21
-18.638
  0
LINE
  8
0
 10
-142.041
 20
-18.638
 11
-142.002
 21
-18.7575
  0
LINE
  8
0
 10
-142.002
 20
-18.7575
 11
-141.956
 21
-18.8743
  0
LINE
  8
0
 10
-141.956
 20
-18.8743
 11
-141.902
 21
-18.988
  0
LINE
  8
0
 10
-141.902
 20
-18.988
 11
-141.842
 21
-19.0981
  0
LINE
  8
0
 10
-141.842
 20
-19.0981
 11
-141.774
 21
-19.2042
  0
LINE
  8
0
 10
-141.774
 20
-19.2042
 11
-141.701
 21
-19.3058
  0
LINE
  8
0
 10
-141.701
 20
-19.3058
 11
-141.62
 21
-19.4026
  0
LINE
  8
0
 10
-141.62
 20
-19.4026
 11
-141.534
 21
-19.4942
  0
LINE
  8
0
 10
-141.534
 20
-19.4942
 11
-104.694
 21
-56.3345
  0
LINE
  8
0
 10
-104.694
 20
-56.3345
 11
-104.603
 21
-56.4205
  0
LINE
  8
0
 10
-104.603
 20
-56.4205
 11
-104.506
 21
-56.5006
  0
LINE
  8
0
 10
-104.506
 20
-56.5006
 11
-104.404
 21
-56.5744
  0
LINE
  8
0
 10
-104.404
 20
-56.5744
 11
-104.298
 21
-56.6418
  0
LINE
  8
0
 10
-104.298
 20
-56.6418
 11
-104.188
 21
-56.7023
  0
LINE
  8
0
 10
-104.188
 20
-56.7023
 11
-104.074
 21
-56.7558
  0
LINE
  8
0
 10
-104.074
 20
-56.7558
 11
-103.957
 21
-56.802
  0
LINE
  8
0
 10
-103.957
 20
-56.802
 11
-103.838
 21
-56.8409
  0
LINE
  8
0
 10
-103.838
 20
-56.8409
 11
-103.716
 21
-56.8721
  0
LINE
  8
0
 10
-103.716
 20
-56.8721
 11
-103.593
 21
-56.8956
  0
LINE
  8
0
 10
-103.593
 20
-56.8956
 11
-103.468
 21
-56.9114
  0
LINE
  8
0
 10
-103.468
 20
-56.9114
 11
-103.343
 21
-56.9193
  0
LINE
  8
0
 10
-103.343
 20
-56.9193
 11
-103.217
 21
-56.9193
  0
LINE
  8
0
 10
-103.217
 20
-56.9193
 11
-103.092
 21
-56.9114
  0
LINE
  8
0
 10
-19.2387
 20
67.5118
 11
-19.3951
 21
67.5266
  0
LINE
  8
0
 10
-19.3951
 20
67.5266
 11
-19.5502
 21
67.5512
  0
LINE
  8
0
 10
-19.5502
 20
67.5512
 11
-19.7035
 21
67.5854
  0
LINE
  8
0
 10
-19.7035
 20
67.5854
 11
-19.8543
 21
67.6292
  0
LINE
  8
0
 10
-19.8543
 20
67.6292
 11
-20.0021
 21
67.6824
  0
LINE
  8
0
 10
-20.0021
 20
67.6824
 11
-20.1462
 21
67.7448
  0
LINE
  8
0
 10
-20.1462
 20
67.7448
 11
-20.2861
 21
67.8161
  0
LINE
  8
0
 10
-20.2861
 20
67.8161
 11
-20.4213
 21
67.8961
  0
LINE
  8
0
 10
-20.4213
 20
67.8961
 11
-20.5512
 21
67.9843
  0
LINE
  8
0
 10
-20.5512
 20
67.9843
 11
-20.6753
 21
68.0806
  0
LINE
  8
0
 10
-20.6753
 20
68.0806
 11
-20.7931
 21
68.1845
  0
LINE
  8
0
 10
-20.7931
 20
68.1845
 11
-20.9042
 21
68.2955
  0
LINE
  8
0
 10
-20.9042
 20
68.2955
 11
-21.008
 21
68.4133
  0
LINE
  8
0
 10
-21.008
 20
68.4133
 11
-21.1043
 21
68.5374
  0
LINE
  8
0
 10
-21.1043
 20
68.5374
 11
-21.1926
 21
68.6673
  0
LINE
  8
0
 10
-21.1926
 20
68.6673
 11
-21.2725
 21
68.8025
  0
LINE
  8
0
 10
-21.2725
 20
68.8025
 11
-21.3438
 21
68.9424
  0
LINE
  8
0
 10
-21.3438
 20
68.9424
 11
-21.4062
 21
69.0866
  0
LINE
  8
0
 10
-21.4062
 20
69.0866
 11
-21.4594
 21
69.2343
  0
LINE
  8
0
 10
-21.4594
 20
69.2343
 11
-21.5032
 21
69.3852
  0
LINE
  8
0
 10
-21.5032
 20
69.3852
 11
-21.5375
 21
69.5384
  0
LINE
  8
0
 10
-21.5375
 20
69.5384
 11
-21.562
 21
69.6935
  0
LINE
  8
0
 10
-21.562
 20
69.6935
 11
-21.5768
 21
69.8499
  0
LINE
  8
0
 10
-21.5768
 20
69.8499
 11
-21.5817
 21
70.0069
  0
LINE
  8
0
 10
-21.5817
 20
70.0069
 11
-21.5768
 21
70.1639
  0
LINE
  8
0
 10
-21.5768
 20
70.1639
 11
-21.562
 21
70.3202
  0
LINE
  8
0
 10
-21.562
 20
70.3202
 11
-21.5375
 21
70.4753
  0
LINE
  8
0
 10
-21.5375
 20
70.4753
 11
-21.5032
 21
70.6286
  0
LINE
  8
0
 10
-21.5032
 20
70.6286
 11
-21.4594
 21
70.7794
  0
LINE
  8
0
 10
-21.4594
 20
70.7794
 11
-21.4062
 21
70.9272
  0
LINE
  8
0
 10
-21.4062
 20
70.9272
 11
-21.3438
 21
71.0713
  0
LINE
  8
0
 10
-21.3438
 20
71.0713
 11
-21.2725
 21
71.2113
  0
LINE
  8
0
 10
-21.2725
 20
71.2113
 11
-21.1926
 21
71.3465
  0
LINE
  8
0
 10
-21.1926
 20
71.3465
 11
-21.1043
 21
71.4763
  0
LINE
  8
0
 10
-21.1043
 20
71.4763
 11
-21.008
 21
71.6004
  0
LINE
  8
0
 10
-21.008
 20
71.6004
 11
-20.9042
 21
71.7182
  0
LINE
  8
0
 10
-20.9042
 20
71.7182
 11
-20.7931
 21
71.8293
  0
LINE
  8
0
 10
-20.7931
 20
71.8293
 11
-20.6753
 21
71.9332
  0
LINE
  8
0
 10
-20.6753
 20
71.9332
 11
-20.5512
 21
72.0294
  0
LINE
  8
0
 10
-20.5512
 20
72.0294
 11
-20.4213
 21
72.1177
  0
LINE
  8
0
 10
-20.4213
 20
72.1177
 11
-20.2861
 21
72.1976
  0
LINE
  8
0
 10
-20.2861
 20
72.1976
 11
-20.1462
 21
72.269
  0
LINE
  8
0
 10
-20.1462
 20
72.269
 11
-20.0021
 21
72.3313
  0
LINE
  8
0
 10
-20.0021
 20
72.3313
 11
-19.8543
 21
72.3845
  0
LINE
  8
0
 10
-19.8543
 20
72.3845
 11
-19.7035
 21
72.4283
  0
LINE
  8
0
 10
-19.7035
 20
72.4283
 11
-19.5502
 21
72.4626
  0
LINE
  8
0
 10
-19.5502
 20
72.4626
 11
-19.3951
 21
72.4872
  0
LINE
  8
0
 10
-19.3951
 20
72.4872
 11
-19.2387
 21
72.502
  0
LINE
  8
0
 10
-19.2387
 20
72.502
 11
-19.0817
 21
72.5069
  0
LINE
  8
0
 10
-19.0817
 20
72.5069
 11
-18.9248
 21
72.502
  0
LINE
  8
0
 10
-18.9248
 20
72.502
 11
-18.7684
 21
72.4872
  0
LINE
  8
0
 10
-18.7684
 20
72.4872
 11
-18.6133
 21
72.4626
  0
LINE
  8
0
 10
-18.6133
 20
72.4626
 11
-18.46
 21
72.4283
  0
LINE
  8
0
 10
-18.46
 20
72.4283
 11
-18.3092
 21
72.3845
  0
LINE
  8
0
 10
-18.3092
 20
72.3845
 11
-18.1614
 21
72.3313
  0
LINE
  8
0
 10
-18.1614
 20
72.3313
 11
-18.0173
 21
72.269
  0
LINE
  8
0
 10
-18.0173
 20
72.269
 11
-17.8774
 21
72.1976
  0
LINE
  8
0
 10
-17.8774
 20
72.1976
 11
-17.7422
 21
72.1177
  0
LINE
  8
0
 10
-17.7422
 20
72.1177
 11
-17.6123
 21
72.0294
  0
LINE
  8
0
 10
-17.6123
 20
72.0294
 11
-17.4882
 21
71.9332
  0
LINE
  8
0
 10
-17.4882
 20
71.9332
 11
-17.3704
 21
71.8293
  0
LINE
  8
0
 10
-17.3704
 20
71.8293
 11
-17.2593
 21
71.7182
  0
LINE
  8
0
 10
-17.2593
 20
71.7182
 11
-17.1555
 21
71.6004
  0
LINE
  8
0
 10
-17.1555
 20
71.6004
 11
-17.0592
 21
71.4763
  0
LINE
  8
0
 10
-17.0592
 20
71.4763
 11
-16.9709
 21
71.3465
  0
LINE
  8
0
 10
-16.9709
 20
71.3465
 11
-16.891
 21
71.2113
  0
LINE
  8
0
 10
-16.891
 20
71.2113
 11
-16.8197
 21
71.0713
  0
LINE
  8
0
 10
-16.8197
 20
71.0713
 11
-16.7573
 21
70.9272
  0
LINE
  8
0
 10
-16.7573
 20
70.9272
 11
-16.7041
 21
70.7794
  0
LINE
  8
0
 10
-16.7041
 20
70.7794
 11
-16.6603
 21
70.6286
  0
LINE
  8
0
 10
-16.6603
 20
70.6286
 11
-16.626
 21
70.4753
  0
LINE
  8
0
 10
-16.626
 20
70.4753
 11
-16.6015
 21
70.3202
  0
LINE
  8
0
 10
-16.6015
 20
70.3202
 11
-16.5867
 21
70.1639
  0
LINE
  8
0
 10
-16.5867
 20
70.1639
 11
-16.5817
 21
70.0069
  0
LINE
  8
0
 10
-16.5817
 20
70.0069
 11
-16.5867
 21
69.8499
  0
LINE
  8
0
 10
-16.5867
 20
69.8499
 11
-16.6015
 21
69.6935
  0
LINE
  8
0
 10
-16.6015
 20
69.6935
 11
-16.626
 21
69.5384
  0
LINE
  8
0
 10
-16.626
 20
69.5384
 11
-16.6603
 21
69.3852
  0
LINE
  8
0
 10
-16.6603
 20
69.3852
 11
-16.7041
 21
69.2343
  0
LINE
  8
0
 10
-16.7041
 20
69.2343
 11
-16.7573
 21
69.0866
  0
LINE
  8
0
 10
-16.7573
 20
69.0866
 11
-16.8197
 21
68.9424
  0
LINE
  8
0
 10
-16.8197
 20
68.9424
 11
-16.891
 21
68.8025
  0
LINE
  8
0
 10
-16.891
 20
68.8025
 11
-16.9709
 21
68.6673
  0
LINE
  8
0
 10
-16.9709
 20
68.6673
 11
-17.0592
 21
68.5374
  0
LINE
  8
0
 10
-17.0592
 20
68.5374
 11
-17.1555
 21
68.4133
  0
LINE
  8
0
 10
-17.1555
 20
68.4133
 11
-17.2593
 21
68.2955
  0
LINE
  8
0
 10
-17.2593
 20
68.2955
 11
-17.3704
 21
68.1845
  0
LINE
  8
0
 10
-17.3704
 20
68.1845
 11
-17.4882
 21
68.0806
  0
LINE
  8
0
 10
-17.4882
 20
68.0806
 11
-17.6123
 21
67.9843
  0
LINE
  8
0
 10
-17.6123
 20
67.9843
 11
-17.7422
 21
67.8961
  0
LINE
  8
0
 10
-17.7422
 20
67.8961
 11
-17.8774
 21
67.8161
  0
LINE
  8
0
 10
-17.8774
 20
67.8161
 11
-18.0173
 21
67.7448
  0
LINE
  8
0
 10
-18.0173
 20
67.7448
 11
-18.1614
 21
67.6824
  0
LINE
  8
0
 10
-18.1614
 20
67.6824
 11
-18.3092
 21
67.6292
  0
LINE
  8
0
 10
-18.3092
 20
67.6292
 11
-18.46
 21
67.5854
  0
LINE
  8
0
 10
-18.46
 20
67.5854
 11
-18.6133
 21
67.5512
  0
LINE
  8
0
 10
-18.6133
 20
67.5512
 11
-18.7684
 21
67.5266
  0
LINE
  8
0
 10
-18.7684
 20
67.5266
 11
-18.9248
 21
67.5118
  0
LINE
  8
0
 10
-18.9248
 20
67.5118
 11
-19.0817
 21
67.5069
  0
LINE
  8
0
 10
-19.0817
 20
67.5069
 11
-19.2387
 21
67.5118
  0
LINE
  8
0
 10
-86.632
 20
64.3561
 11
-86.7883
 21
64.3709
  0
LINE
  8
0
 10
-86.7883
 20
64.3709
 11
-86.9435
 21
64.3955
  0
LINE
  8
0
 10
-86.9435
 20
64.3955
 11
-87.0967
 21
64.4297
  0
LINE
  8
0
 10
-87.0967
 20
64.4297
 11
-87.2475
 21
64.4736
  0
LINE
  8
0
 10
-87.2475
 20
64.4736
 11
-87.3953
 21
64.5268
  0
LINE
  8
0
 10
-87.3953
 20
64.5268
 11
-87.5394
 21
64.5891
  0
LINE
  8
0
 10
-87.5394
 20
64.5891
 11
-87.6794
 21
64.6604
  0
LINE
  8
0
 10
-87.6794
 20
64.6604
 11
-87.8146
 21
64.7404
  0
LINE
  8
0
 10
-87.8146
 20
64.7404
 11
-87.9445
 21
64.8287
  0
LINE
  8
0
 10
-87.9445
 20
64.8287
 11
-88.0686
 21
64.9249
  0
LINE
  8
0
 10
-88.0686
 20
64.9249
 11
-88.1864
 21
65.0288
  0
LINE
  8
0
 10
-88.1864
 20
65.0288
 11
-88.2974
 21
65.1398
  0
LINE
  8
0
 10
-88.2974
 20
65.1398
 11
-88.4013
 21
65.2576
  0
LINE
  8
0
 10
-88.4013
 20
65.2576
 11
-88.4975
 21
65.3817
  0
LINE
  8
0
 10
-88.4975
 20
65.3817
 11
-88.5858
 21
65.5116
  0
LINE
  8
0
 10
-88.5858
 20
65.5116
 11
-88.6658
 21
65.6468
  0
LINE
  8
0
 10
-88.6658
 20
65.6468
 11
-88.7371
 21
65.7868
  0
LINE
  8
0
 10
-88.7371
 20
65.7868
 11
-88.7994
 21
65.9309
  0
LINE
  8
0
 10
-88.7994
 20
65.9309
 11
-88.8526
 21
66.0787
  0
LINE
  8
0
 10
-88.8526
 20
66.0787
 11
-88.8965
 21
66.2295
  0
LINE
  8
0
 10
-88.8965
 20
66.2295
 11
-88.9307
 21
66.3828
  0
LINE
  8
0
 10
-88.9307
 20
66.3828
 11
-88.9553
 21
66.5379
  0
LINE
  8
0
 10
-88.9553
 20
66.5379
 11
-88.9701
 21
66.6942
  0
LINE
  8
0
 10
-88.9701
 20
66.6942
 11
-88.975
 21
66.8512
  0
LINE
  8
0
 10
-88.975
 20
66.8512
 11
-88.9701
 21
67.0082
  0
LINE
  8
0
 10
-88.9701
 20
67.0082
 11
-88.9553
 21
67.1645
  0
LINE
  8
0
 10
-88.9553
 20
67.1645
 11
-88.9307
 21
67.3197
  0
LINE
  8
0
 10
-88.9307
 20
67.3197
 11
-88.8965
 21
67.4729
  0
LINE
  8
0
 10
-88.8965
 20
67.4729
 11
-88.8526
 21
67.6237
  0
LINE
  8
0
 10
-88.8526
 20
67.6237
 11
-88.7994
 21
67.7715
  0
LINE
  8
0
 10
-88.7994
 20
67.7715
 11
-88.7371
 21
67.9156
  0
LINE
  8
0
 10
-88.7371
 20
67.9156
 11
-88.6658
 21
68.0556
  0
LINE
  8
0
 10
-88.6658
 20
68.0556
 11
-88.5858
 21
68.1908
  0
LINE
  8
0
 10
-88.5858
 20
68.1908
 11
-88.4975
 21
68.3207
  0
LINE
  8
0
 10
-88.4975
 20
68.3207
 11
-88.4013
 21
68.4448
  0
LINE
  8
0
 10
-88.4013
 20
68.4448
 11
-88.2974
 21
68.5626
  0
LINE
  8
0
 10
-88.2974
 20
68.5626
 11
-88.1864
 21
68.6736
  0
LINE
  8
0
 10
-88.1864
 20
68.6736
 11
-88.0686
 21
68.7775
  0
LINE
  8
0
 10
-88.0686
 20
68.7775
 11
-87.9445
 21
68.8737
  0
LINE
  8
0
 10
-87.9445
 20
68.8737
 11
-87.8146
 21
68.962
  0
LINE
  8
0
 10
-87.8146
 20
68.962
 11
-87.6794
 21
69.042
  0
LINE
  8
0
 10
-87.6794
 20
69.042
 11
-87.5394
 21
69.1133
  0
LINE
  8
0
 10
-87.5394
 20
69.1133
 11
-87.3953
 21
69.1756
  0
LINE
  8
0
 10
-87.3953
 20
69.1756
 11
-87.2475
 21
69.2289
  0
LINE
  8
0
 10
-87.2475
 20
69.2289
 11
-87.0967
 21
69.2727
  0
LINE
  8
0
 10
-87.0967
 20
69.2727
 11
-86.9435
 21
69.3069
  0
LINE
  8
0
 10
-86.9435
 20
69.3069
 11
-86.7883
 21
69.3315
  0
LINE
  8
0
 10
-86.7883
 20
69.3315
 11
-86.632
 21
69.3463
  0
LINE
  8
0
 10
-86.632
 20
69.3463
 11
-86.475
 21
69.3512
  0
LINE
  8
0
 10
-86.475
 20
69.3512
 11
-86.318
 21
69.3463
  0
LINE
  8
0
 10
-86.318
 20
69.3463
 11
-86.1617
 21
69.3315
  0
LINE
  8
0
 10
-86.1617
 20
69.3315
 11
-86.0065
 21
69.3069
  0
LINE
  8
0
 10
-86.0065
 20
69.3069
 11
-85.8533
 21
69.2727
  0
LINE
  8
0
 10
-85.8533
 20
69.2727
 11
-85.7025
 21
69.2289
  0
LINE
  8
0
 10
-85.7025
 20
69.2289
 11
-85.5547
 21
69.1756
  0
LINE
  8
0
 10
-85.5547
 20
69.1756
 11
-85.4105
 21
69.1133
  0
LINE
  8
0
 10
-85.4105
 20
69.1133
 11
-85.2706
 21
69.042
  0
LINE
  8
0
 10
-85.2706
 20
69.042
 11
-85.1354
 21
68.962
  0
LINE
  8
0
 10
-85.1354
 20
68.962
 11
-85.0055
 21
68.8737
  0
LINE
  8
0
 10
-85.0055
 20
68.8737
 11
-84.8814
 21
68.7775
  0
LINE
  8
0
 10
-84.8814
 20
68.7775
 11
-84.7636
 21
68.6736
  0
LINE
  8
0
 10
-84.7636
 20
68.6736
 11
-84.6526
 21
68.5626
  0
LINE
  8
0
 10
-84.6526
 20
68.5626
 11
-84.5487
 21
68.4448
  0
LINE
  8
0
 10
-84.5487
 20
68.4448
 11
-84.4525
 21
68.3207
  0
LINE
  8
0
 10
-84.4525
 20
68.3207
 11
-84.3642
 21
68.1908
  0
LINE
  8
0
 10
-84.3642
 20
68.1908
 11
-84.2842
 21
68.0556
  0
LINE
  8
0
 10
-84.2842
 20
68.0556
 11
-84.2129
 21
67.9156
  0
LINE
  8
0
 10
-84.2129
 20
67.9156
 11
-84.1506
 21
67.7715
  0
LINE
  8
0
 10
-84.1506
 20
67.7715
 11
-84.0974
 21
67.6237
  0
LINE
  8
0
 10
-84.0974
 20
67.6237
 11
-84.0535
 21
67.4729
  0
LINE
  8
0
 10
-84.0535
 20
67.4729
 11
-84.0193
 21
67.3197
  0
LINE
  8
0
 10
-84.0193
 20
67.3197
 11
-83.9947
 21
67.1645
  0
LINE
  8
0
 10
-83.9947
 20
67.1645
 11
-83.9799
 21
67.0082
  0
LINE
  8
0
 10
-83.9799
 20
67.0082
 11
-83.975
 21
66.8512
  0
LINE
  8
0
 10
-83.975
 20
66.8512
 11
-83.9799
 21
66.6942
  0
LINE
  8
0
 10
-83.9799
 20
66.6942
 11
-83.9947
 21
66.5379
  0
LINE
  8
0
 10
-83.9947
 20
66.5379
 11
-84.0193
 21
66.3828
  0
LINE
  8
0
 10
-84.0193
 20
66.3828
 11
-84.0535
 21
66.2295
  0
LINE
  8
0
 10
-84.0535
 20
66.2295
 11
-84.0974
 21
66.0787
  0
LINE
  8
0
 10
-84.0974
 20
66.0787
 11
-84.1506
 21
65.9309
  0
LINE
  8
0
 10
-84.1506
 20
65.9309
 11
-84.2129
 21
65.7868
  0
LINE
  8
0
 10
-84.2129
 20
65.7868
 11
-84.2842
 21
65.6468
  0
LINE
  8
0
 10
-84.2842
 20
65.6468
 11
-84.3642
 21
65.5116
  0
LINE
  8
0
 10
-84.3642
 20
65.5116
 11
-84.4525
 21
65.3817
  0
LINE
  8
0
 10
-84.4525
 20
65.3817
 11
-84.5487
 21
65.2576
  0
LINE
  8
0
 10
-84.5487
 20
65.2576
 11
-84.6526
 21
65.1398
  0
LINE
  8
0
 10
-84.6526
 20
65.1398
 11
-84.7636
 21
65.0288
  0
LINE
  8
0
 10
-84.7636
 20
65.0288
 11
-84.8814
 21
64.9249
  0
LINE
  8
0
 10
-84.8814
 20
64.9249
 11
-85.0055
 21
64.8287
  0
LINE
  8
0
 10
-85.0055
 20
64.8287
 11
-85.1354
 21
64.7404
  0
LINE
  8
0
 10
-85.1354
 20
64.7404
 11
-85.2706
 21
64.6604
  0
LINE
  8
0
 10
-85.2706
 20
64.6604
 11
-85.4105
 21
64.5891
  0
LINE
  8
0
 10
-85.4105
 20
64.5891
 11
-85.5547
 21
64.5268
  0
LINE
  8
0
 10
-85.5547
 20
64.5268
 11
-85.7025
 21
64.4736
  0
LINE
  8
0
 10
-85.7025
 20
64.4736
 11
-85.8533
 21
64.4297
  0
LINE
  8
0
 10
-85.8533
 20
64.4297
 11
-86.0065
 21
64.3955
  0
LINE
  8
0
 10
-86.0065
 20
64.3955
 11
-86.1617
 21
64.3709
  0
LINE
  8
0
 10
-86.1617
 20
64.3709
 11
-86.318
 21
64.3561
  0
LINE
  8
0
 10
-86.318
 20
64.3561
 11
-86.475
 21
64.3512
  0
LINE
  8
0
 10
-86.475
 20
64.3512
 11
-86.632
 21
64.3561
  0
LINE
  8
0
 10
13.0715
 20
59.9406
 11
12.9933
 21
59.948
  0
LINE
  8
0
 10
12.9933
 20
59.948
 11
12.9158
 21
59.9603
  0
LINE
  8
0
 10
12.9158
 20
59.9603
 11
12.8391
 21
59.9774
  0
LINE
  8
0
 10
12.8391
 20
59.9774
 11
12.7637
 21
59.9993
  0
LINE
  8
0
 10
12.7637
 20
59.9993
 11
12.6898
 21
60.0259
  0
LINE
  8
0
 10
12.6898
 20
60.0259
 11
12.6178
 21
60.0571
  0
LINE
  8
0
 10
12.6178
 20
60.0571
 11
12.5478
 21
60.0927
  0
LINE
  8
0
 10
12.5478
 20
60.0927
 11
12.4802
 21
60.1327
  0
LINE
  8
0
 10
12.4802
 20
60.1327
 11
12.4153
 21
60.1768
  0
LINE
  8
0
 10
12.4153
 20
60.1768
 11
12.3532
 21
60.225
  0
LINE
  8
0
 10
12.3532
 20
60.225
 11
12.2943
 21
60.2769
  0
LINE
  8
0
 10
12.2943
 20
60.2769
 11
12.2388
 21
60.3324
  0
LINE
  8
0
 10
12.2388
 20
60.3324
 11
12.1868
 21
60.3913
  0
LINE
  8
0
 10
12.1868
 20
60.3913
 11
12.1387
 21
60.4534
  0
LINE
  8
0
 10
12.1387
 20
60.4534
 11
12.0946
 21
60.5183
  0
LINE
  8
0
 10
12.0946
 20
60.5183
 11
12.0546
 21
60.5859
  0
LINE
  8
0
 10
12.0546
 20
60.5859
 11
12.019
 21
60.6559
  0
LINE
  8
0
 10
12.019
 20
60.6559
 11
11.9878
 21
60.728
  0
LINE
  8
0
 10
11.9878
 20
60.728
 11
11.9612
 21
60.8018
  0
LINE
  8
0
 10
11.9612
 20
60.8018
 11
11.9393
 21
60.8773
  0
LINE
  8
0
 10
11.9393
 20
60.8773
 11
11.9221
 21
60.9539
  0
LINE
  8
0
 10
11.9221
 20
60.9539
 11
11.9099
 21
61.0314
  0
LINE
  8
0
 10
11.9099
 20
61.0314
 11
11.9025
 21
61.1096
  0
LINE
  8
0
 10
11.9025
 20
61.1096
 11
11.9
 21
61.1881
  0
LINE
  8
0
 10
11.9
 20
61.1881
 11
11.9025
 21
61.2666
  0
LINE
  8
0
 10
11.9025
 20
61.2666
 11
11.9099
 21
61.3448
  0
LINE
  8
0
 10
11.9099
 20
61.3448
 11
11.9221
 21
61.4223
  0
LINE
  8
0
 10
11.9221
 20
61.4223
 11
11.9393
 21
61.499
  0
LINE
  8
0
 10
11.9393
 20
61.499
 11
11.9612
 21
61.5744
  0
LINE
  8
0
 10
11.9612
 20
61.5744
 11
11.9878
 21
61.6483
  0
LINE
  8
0
 10
11.9878
 20
61.6483
 11
12.019
 21
61.7203
  0
LINE
  8
0
 10
12.019
 20
61.7203
 11
12.0546
 21
61.7903
  0
LINE
  8
0
 10
12.0546
 20
61.7903
 11
12.0946
 21
61.8579
  0
LINE
  8
0
 10
12.0946
 20
61.8579
 11
12.1387
 21
61.9229
  0
LINE
  8
0
 10
12.1387
 20
61.9229
 11
12.1868
 21
61.9849
  0
LINE
  8
0
 10
12.1868
 20
61.9849
 11
12.2388
 21
62.0438
  0
LINE
  8
0
 10
12.2388
 20
62.0438
 11
12.2943
 21
62.0993
  0
LINE
  8
0
 10
12.2943
 20
62.0993
 11
12.3532
 21
62.1513
  0
LINE
  8
0
 10
12.3532
 20
62.1513
 11
12.4153
 21
62.1994
  0
LINE
  8
0
 10
12.4153
 20
62.1994
 11
12.4802
 21
62.2435
  0
LINE
  8
0
 10
12.4802
 20
62.2435
 11
12.5478
 21
62.2835
  0
LINE
  8
0
 10
12.5478
 20
62.2835
 11
12.6178
 21
62.3192
  0
LINE
  8
0
 10
12.6178
 20
62.3192
 11
12.6898
 21
62.3503
  0
LINE
  8
0
 10
12.6898
 20
62.3503
 11
12.7637
 21
62.3769
  0
LINE
  8
0
 10
12.7637
 20
62.3769
 11
12.8391
 21
62.3988
  0
LINE
  8
0
 10
12.8391
 20
62.3988
 11
12.9158
 21
62.416
  0
LINE
  8
0
 10
12.9158
 20
62.416
 11
12.9933
 21
62.4283
  0
LINE
  8
0
 10
12.9933
 20
62.4283
 11
13.0715
 21
62.4357
  0
LINE
  8
0
 10
13.0715
 20
62.4357
 11
13.15
 21
62.4381
  0
LINE
  8
0
 10
13.15
 20
62.4381
 11
13.2285
 21
62.4357
  0
LINE
  8
0
 10
13.2285
 20
62.4357
 11
13.3067
 21
62.4283
  0
LINE
  8
0
 10
13.3067
 20
62.4283
 11
13.3842
 21
62.416
  0
LINE
  8
0
 10
13.3842
 20
62.416
 11
13.4609
 21
62.3988
  0
LINE
  8
0
 10
13.4609
 20
62.3988
 11
13.5363
 21
62.3769
  0
LINE
  8
0
 10
13.5363
 20
62.3769
 11
13.6102
 21
62.3503
  0
LINE
  8
0
 10
13.6102
 20
62.3503
 11
13.6822
 21
62.3192
  0
LINE
  8
0
 10
13.6822
 20
62.3192
 11
13.7522
 21
62.2835
  0
LINE
  8
0
 10
13.7522
 20
62.2835
 11
13.8198
 21
62.2435
  0
LINE
  8
0
 10
13.8198
 20
62.2435
 11
13.8847
 21
62.1994
  0
LINE
  8
0
 10
13.8847
 20
62.1994
 11
13.9468
 21
62.1513
  0
LINE
  8
0
 10
13.9468
 20
62.1513
 11
14.0057
 21
62.0993
  0
LINE
  8
0
 10
14.0057
 20
62.0993
 11
14.0612
 21
62.0438
  0
LINE
  8
0
 10
14.0612
 20
62.0438
 11
14.1131
 21
61.9849
  0
LINE
  8
0
 10
14.1131
 20
61.9849
 11
14.1613
 21
61.9229
  0
LINE
  8
0
 10
14.1613
 20
61.9229
 11
14.2054
 21
61.8579
  0
LINE
  8
0
 10
14.2054
 20
61.8579
 11
14.2454
 21
61.7903
  0
LINE
  8
0
 10
14.2454
 20
61.7903
 11
14.281
 21
61.7203
  0
LINE
  8
0
 10
14.281
 20
61.7203
 11
14.3122
 21
61.6483
  0
LINE
  8
0
 10
14.3122
 20
61.6483
 11
14.3388
 21
61.5744
  0
LINE
  8
0
 10
14.3388
 20
61.5744
 11
14.3607
 21
61.499
  0
LINE
  8
0
 10
14.3607
 20
61.499
 11
14.3779
 21
61.4223
  0
LINE
  8
0
 10
14.3779
 20
61.4223
 11
14.3901
 21
61.3448
  0
LINE
  8
0
 10
14.3901
 20
61.3448
 11
14.3975
 21
61.2666
  0
LINE
  8
0
 10
14.3975
 20
61.2666
 11
14.4
 21
61.1881
  0
LINE
  8
0
 10
14.4
 20
61.1881
 11
14.3975
 21
61.1096
  0
LINE
  8
0
 10
14.3975
 20
61.1096
 11
14.3901
 21
61.0314
  0
LINE
  8
0
 10
14.3901
 20
61.0314
 11
14.3779
 21
60.9539
  0
LINE
  8
0
 10
14.3779
 20
60.9539
 11
14.3607
 21
60.8773
  0
LINE
  8
0
 10
14.3607
 20
60.8773
 11
14.3388
 21
60.8018
  0
LINE
  8
0
 10
14.3388
 20
60.8018
 11
14.3122
 21
60.728
  0
LINE
  8
0
 10
14.3122
 20
60.728
 11
14.281
 21
60.6559
  0
LINE
  8
0
 10
14.281
 20
60.6559
 11
14.2454
 21
60.5859
  0
LINE
  8
0
 10
14.2454
 20
60.5859
 11
14.2054
 21
60.5183
  0
LINE
  8
0
 10
14.2054
 20
60.5183
 11
14.1613
 21
60.4534
  0
LINE
  8
0
 10
14.1613
 20
60.4534
 11
14.1131
 21
60.3913
  0
LINE
  8
0
 10
14.1131
 20
60.3913
 11
14.0612
 21
60.3324
  0
LINE
  8
0
 10
14.0612
 20
60.3324
 11
14.0057
 21
60.2769
  0
LINE
  8
0
 10
14.0057
 20
60.2769
 11
13.9468
 21
60.225
  0
LINE
  8
0
 10
13.9468
 20
60.225
 11
13.8847
 21
60.1768
  0
LINE
  8
0
 10
13.8847
 20
60.1768
 11
13.8198
 21
60.1327
  0
LINE
  8
0
 10
13.8198
 20
60.1327
 11
13.7522
 21
60.0927
  0
LINE
  8
0
 10
13.7522
 20
60.0927
 11
13.6822
 21
60.0571
  0
LINE
  8
0
 10
13.6822
 20
60.0571
 11
13.6102
 21
60.0259
  0
LINE
  8
0
 10
13.6102
 20
60.0259
 11
13.5363
 21
59.9993
  0
LINE
  8
0
 10
13.5363
 20
59.9993
 11
13.4609
 21
59.9774
  0
LINE
  8
0
 10
13.4609
 20
59.9774
 11
13.3842
 21
59.9603
  0
LINE
  8
0
 10
13.3842
 20
59.9603
 11
13.3067
 21
59.948
  0
LINE
  8
0
 10
13.3067
 20
59.948
 11
13.2285
 21
59.9406
  0
LINE
  8
0
 10
13.2285
 20
59.9406
 11
13.15
 21
59.9381
  0
LINE
  8
0
 10
13.15
 20
59.9381
 11
13.0715
 21
59.9406
  0
LINE
  8
0
 10
-123.803
 20
50.6573
 11
-123.882
 21
50.6647
  0
LINE
  8
0
 10
-123.882
 20
50.6647
 11
-123.959
 21
50.677
  0
LINE
  8
0
 10
-123.959
 20
50.677
 11
-124.036
 21
50.6941
  0
LINE
  8
0
 10
-124.036
 20
50.6941
 11
-124.111
 21
50.716
  0
LINE
  8
0
 10
-124.111
 20
50.716
 11
-124.185
 21
50.7426
  0
LINE
  8
0
 10
-124.185
 20
50.7426
 11
-124.257
 21
50.7738
  0
LINE
  8
0
 10
-124.257
 20
50.7738
 11
-124.327
 21
50.8095
  0
LINE
  8
0
 10
-124.327
 20
50.8095
 11
-124.395
 21
50.8494
  0
LINE
  8
0
 10
-124.395
 20
50.8494
 11
-124.46
 21
50.8936
  0
LINE
  8
0
 10
-124.46
 20
50.8936
 11
-124.522
 21
50.9417
  0
LINE
  8
0
 10
-124.522
 20
50.9417
 11
-124.581
 21
50.9936
  0
LINE
  8
0
 10
-124.581
 20
50.9936
 11
-124.636
 21
51.0492
  0
LINE
  8
0
 10
-124.636
 20
51.0492
 11
-124.688
 21
51.1081
  0
LINE
  8
0
 10
-124.688
 20
51.1081
 11
-124.736
 21
51.1701
  0
LINE
  8
0
 10
-124.736
 20
51.1701
 11
-124.78
 21
51.2351
  0
LINE
  8
0
 10
-124.78
 20
51.2351
 11
-124.82
 21
51.3027
  0
LINE
  8
0
 10
-124.82
 20
51.3027
 11
-124.856
 21
51.3726
  0
LINE
  8
0
 10
-124.856
 20
51.3726
 11
-124.887
 21
51.4447
  0
LINE
  8
0
 10
-124.887
 20
51.4447
 11
-124.914
 21
51.5186
  0
LINE
  8
0
 10
-124.914
 20
51.5186
 11
-124.936
 21
51.594
  0
LINE
  8
0
 10
-124.936
 20
51.594
 11
-124.953
 21
51.6706
  0
LINE
  8
0
 10
-124.953
 20
51.6706
 11
-124.965
 21
51.7482
  0
LINE
  8
0
 10
-124.965
 20
51.7482
 11
-124.973
 21
51.8264
  0
LINE
  8
0
 10
-124.973
 20
51.8264
 11
-124.975
 21
51.9048
  0
LINE
  8
0
 10
-124.975
 20
51.9048
 11
-124.973
 21
51.9833
  0
LINE
  8
0
 10
-124.973
 20
51.9833
 11
-124.965
 21
52.0615
  0
LINE
  8
0
 10
-124.965
 20
52.0615
 11
-124.953
 21
52.1391
  0
LINE
  8
0
 10
-124.953
 20
52.1391
 11
-124.936
 21
52.2157
  0
LINE
  8
0
 10
-124.936
 20
52.2157
 11
-124.914
 21
52.2911
  0
LINE
  8
0
 10
-124.914
 20
52.2911
 11
-124.887
 21
52.365
  0
LINE
  8
0
 10
-124.887
 20
52.365
 11
-124.856
 21
52.4371
  0
LINE
  8
0
 10
-124.856
 20
52.4371
 11
-124.82
 21
52.507
  0
LINE
  8
0
 10
-124.82
 20
52.507
 11
-124.78
 21
52.5746
  0
LINE
  8
0
 10
-124.78
 20
52.5746
 11
-124.736
 21
52.6396
  0
LINE
  8
0
 10
-124.736
 20
52.6396
 11
-124.688
 21
52.7016
  0
LINE
  8
0
 10
-124.688
 20
52.7016
 11
-124.636
 21
52.7605
  0
LINE
  8
0
 10
-124.636
 20
52.7605
 11
-124.581
 21
52.8161
  0
LINE
  8
0
 10
-124.581
 20
52.8161
 11
-124.522
 21
52.868
  0
LINE
  8
0
 10
-124.522
 20
52.868
 11
-124.46
 21
52.9161
  0
LINE
  8
0
 10
-124.46
 20
52.9161
 11
-124.395
 21
52.9603
  0
LINE
  8
0
 10
-124.395
 20
52.9603
 11
-124.327
 21
53.0002
  0
LINE
  8
0
 10
-124.327
 20
53.0002
 11
-124.257
 21
53.0359
  0
LINE
  8
0
 10
-124.257
 20
53.0359
 11
-124.185
 21
53.0671
  0
LINE
  8
0
 10
-124.185
 20
53.0671
 11
-124.111
 21
53.0937
  0
LINE
  8
0
 10
-124.111
 20
53.0937
 11
-124.036
 21
53.1156
  0
LINE
  8
0
 10
-124.036
 20
53.1156
 11
-123.959
 21
53.1327
  0
LINE
  8
0
 10
-123.959
 20
53.1327
 11
-123.882
 21
53.145
  0
LINE
  8
0
 10
-123.882
 20
53.145
 11
-123.803
 21
53.1524
  0
LINE
  8
0
 10
-123.803
 20
53.1524
 11
-123.725
 21
53.1548
  0
LINE
  8
0
 10
-123.725
 20
53.1548
 11
-123.646
 21
53.1524
  0
LINE
  8
0
 10
-123.646
 20
53.1524
 11
-123.568
 21
53.145
  0
LINE
  8
0
 10
-123.568
 20
53.145
 11
-123.491
 21
53.1327
  0
LINE
  8
0
 10
-123.491
 20
53.1327
 11
-123.414
 21
53.1156
  0
LINE
  8
0
 10
-123.414
 20
53.1156
 11
-123.339
 21
53.0937
  0
LINE
  8
0
 10
-123.339
 20
53.0937
 11
-123.265
 21
53.0671
  0
LINE
  8
0
 10
-123.265
 20
53.0671
 11
-123.193
 21
53.0359
  0
LINE
  8
0
 10
-123.193
 20
53.0359
 11
-123.123
 21
53.0002
  0
LINE
  8
0
 10
-123.123
 20
53.0002
 11
-123.055
 21
52.9603
  0
LINE
  8
0
 10
-123.055
 20
52.9603
 11
-122.99
 21
52.9161
  0
LINE
  8
0
 10
-122.99
 20
52.9161
 11
-122.928
 21
52.868
  0
LINE
  8
0
 10
-122.928
 20
52.868
 11
-122.869
 21
52.8161
  0
LINE
  8
0
 10
-122.869
 20
52.8161
 11
-122.814
 21
52.7605
  0
LINE
  8
0
 10
-122.814
 20
52.7605
 11
-122.762
 21
52.7016
  0
LINE
  8
0
 10
-122.762
 20
52.7016
 11
-122.714
 21
52.6396
  0
LINE
  8
0
 10
-122.714
 20
52.6396
 11
-122.67
 21
52.5746
  0
LINE
  8
0
 10
-122.67
 20
52.5746
 11
-122.63
 21
52.507
  0
LINE
  8
0
 10
-122.63
 20
52.507
 11
-122.594
 21
52.4371
  0
LINE
  8
0
 10
-122.594
 20
52.4371
 11
-122.563
 21
52.365
  0
LINE
  8
0
 10
-122.563
 20
52.365
 11
-122.536
 21
52.2911
  0
LINE
  8
0
 10
-122.536
 20
52.2911
 11
-122.514
 21
52.2157
  0
LINE
  8
0
 10
-122.514
 20
52.2157
 11
-122.497
 21
52.1391
  0
LINE
  8
0
 10
-122.497
 20
52.1391
 11
-122.485
 21
52.0615
  0
LINE
  8
0
 10
-122.485
 20
52.0615
 11
-122.477
 21
51.9833
  0
LINE
  8
0
 10
-122.477
 20
51.9833
 11
-122.475
 21
51.9048
  0
LINE
  8
0
 10
-122.475
 20
51.9048
 11
-122.477
 21
51.8264
  0
LINE
  8
0
 10
-122.477
 20
51.8264
 11
-122.485
 21
51.7482
  0
LINE
  8
0
 10
-122.485
 20
51.7482
 11
-122.497
 21
51.6706
  0
LINE
  8
0
 10
-122.497
 20
51.6706
 11
-122.514
 21
51.594
  0
LINE
  8
0
 10
-122.514
 20
51.594
 11
-122.536
 21
51.5186
  0
LINE
  8
0
 10
-122.536
 20
51.5186
 11
-122.563
 21
51.4447
  0
LINE
  8
0
 10
-122.563
 20
51.4447
 11
-122.594
 21
51.3726
  0
LINE
  8
0
 10
-122.594
 20
51.3726
 11
-122.63
 21
51.3027
  0
LINE
  8
0
 10
-122.63
 20
51.3027
 11
-122.67
 21
51.2351
  0
LINE
  8
0
 10
-122.67
 20
51.2351
 11
-122.714
 21
51.1701
  0
LINE
  8
0
 10
-122.714
 20
51.1701
 11
-122.762
 21
51.1081
  0
LINE
  8
0
 10
-122.762
 20
51.1081
 11
-122.814
 21
51.0492
  0
LINE
  8
0
 10
-122.814
 20
51.0492
 11
-122.869
 21
50.9936
  0
LINE
  8
0
 10
-122.869
 20
50.9936
 11
-122.928
 21
50.9417
  0
LINE
  8
0
 10
-122.928
 20
50.9417
 11
-122.99
 21
50.8936
  0
LINE
  8
0
 10
-122.99
 20
50.8936
 11
-123.055
 21
50.8494
  0
LINE
  8
0
 10
-123.055
 20
50.8494
 11
-123.123
 21
50.8095
  0
LINE
  8
0
 10
-123.123
 20
50.8095
 11
-123.193
 21
50.7738
  0
LINE
  8
0
 10
-123.193
 20
50.7738
 11
-123.265
 21
50.7426
  0
LINE
  8
0
 10
-123.265
 20
50.7426
 11
-123.339
 21
50.716
  0
LINE
  8
0
 10
-123.339
 20
50.716
 11
-123.414
 21
50.6941
  0
LINE
  8
0
 10
-123.414
 20
50.6941
 11
-123.491
 21
50.677
  0
LINE
  8
0
 10
-123.491
 20
50.677
 11
-123.568
 21
50.6647
  0
LINE
  8
0
 10
-123.568
 20
50.6647
 11
-123.646
 21
50.6573
  0
LINE
  8
0
 10
-123.646
 20
50.6573
 11
-123.725
 21
50.6548
  0
LINE
  8
0
 10
-123.725
 20
50.6548
 11
-123.803
 21
50.6573
  0
LINE
  8
0
 10
12.993
 20
39.6398
 11
12.8367
 21
39.6545
  0
LINE
  8
0
 10
12.8367
 20
39.6545
 11
12.6815
 21
39.6791
  0
LINE
  8
0
 10
12.6815
 20
39.6791
 11
12.5283
 21
39.7134
  0
LINE
  8
0
 10
12.5283
 20
39.7134
 11
12.3775
 21
39.7572
  0
LINE
  8
0
 10
12.3775
 20
39.7572
 11
12.2297
 21
39.8104
  0
LINE
  8
0
 10
12.2297
 20
39.8104
 11
12.0855
 21
39.8728
  0
LINE
  8
0
 10
12.0855
 20
39.8728
 11
11.9456
 21
39.9441
  0
LINE
  8
0
 10
11.9456
 20
39.9441
 11
11.8104
 21
40.024
  0
LINE
  8
0
 10
11.8104
 20
40.024
 11
11.6805
 21
40.1123
  0
LINE
  8
0
 10
11.6805
 20
40.1123
 11
11.5564
 21
40.2086
  0
LINE
  8
0
 10
11.5564
 20
40.2086
 11
11.4386
 21
40.3124
  0
LINE
  8
0
 10
11.4386
 20
40.3124
 11
11.3276
 21
40.4235
  0
LINE
  8
0
 10
11.3276
 20
40.4235
 11
11.2237
 21
40.5413
  0
LINE
  8
0
 10
11.2237
 20
40.5413
 11
11.1275
 21
40.6654
  0
LINE
  8
0
 10
11.1275
 20
40.6654
 11
11.0392
 21
40.7953
  0
LINE
  8
0
 10
11.0392
 20
40.7953
 11
10.9592
 21
40.9305
  0
LINE
  8
0
 10
10.9592
 20
40.9305
 11
10.8879
 21
41.0704
  0
LINE
  8
0
 10
10.8879
 20
41.0704
 11
10.8255
 21
41.2145
  0
LINE
  8
0
 10
10.8255
 20
41.2145
 11
10.7724
 21
41.3623
  0
LINE
  8
0
 10
10.7724
 20
41.3623
 11
10.7285
 21
41.5131
  0
LINE
  8
0
 10
10.7285
 20
41.5131
 11
10.6943
 21
41.6664
  0
LINE
  8
0
 10
10.6943
 20
41.6664
 11
10.6697
 21
41.8215
  0
LINE
  8
0
 10
10.6697
 20
41.8215
 11
10.6549
 21
41.9779
  0
LINE
  8
0
 10
10.6549
 20
41.9779
 11
10.65
 21
42.1348
  0
LINE
  8
0
 10
10.65
 20
42.1348
 11
10.6549
 21
42.2918
  0
LINE
  8
0
 10
10.6549
 20
42.2918
 11
10.6697
 21
42.4482
  0
LINE
  8
0
 10
10.6697
 20
42.4482
 11
10.6943
 21
42.6033
  0
LINE
  8
0
 10
10.6943
 20
42.6033
 11
10.7285
 21
42.7566
  0
LINE
  8
0
 10
10.7285
 20
42.7566
 11
10.7724
 21
42.9074
  0
LINE
  8
0
 10
10.7724
 20
42.9074
 11
10.8255
 21
43.0551
  0
LINE
  8
0
 10
10.8255
 20
43.0551
 11
10.8879
 21
43.1993
  0
LINE
  8
0
 10
10.8879
 20
43.1993
 11
10.9592
 21
43.3392
  0
LINE
  8
0
 10
10.9592
 20
43.3392
 11
11.0392
 21
43.4744
  0
LINE
  8
0
 10
11.0392
 20
43.4744
 11
11.1275
 21
43.6043
  0
LINE
  8
0
 10
11.1275
 20
43.6043
 11
11.2237
 21
43.7284
  0
LINE
  8
0
 10
11.2237
 20
43.7284
 11
11.3276
 21
43.8462
  0
LINE
  8
0
 10
11.3276
 20
43.8462
 11
11.4386
 21
43.9573
  0
LINE
  8
0
 10
11.4386
 20
43.9573
 11
11.5564
 21
44.0611
  0
LINE
  8
0
 10
11.5564
 20
44.0611
 11
11.6805
 21
44.1574
  0
LINE
  8
0
 10
11.6805
 20
44.1574
 11
11.8104
 21
44.2457
  0
LINE
  8
0
 10
11.8104
 20
44.2457
 11
11.9456
 21
44.3256
  0
LINE
  8
0
 10
11.9456
 20
44.3256
 11
12.0855
 21
44.3969
  0
LINE
  8
0
 10
12.0855
 20
44.3969
 11
12.2297
 21
44.4593
  0
LINE
  8
0
 10
12.2297
 20
44.4593
 11
12.3775
 21
44.5125
  0
LINE
  8
0
 10
12.3775
 20
44.5125
 11
12.5283
 21
44.5563
  0
LINE
  8
0
 10
12.5283
 20
44.5563
 11
12.6815
 21
44.5905
  0
LINE
  8
0
 10
12.6815
 20
44.5905
 11
12.8367
 21
44.6151
  0
LINE
  8
0
 10
12.8367
 20
44.6151
 11
12.993
 21
44.6299
  0
LINE
  8
0
 10
12.993
 20
44.6299
 11
13.15
 21
44.6348
  0
LINE
  8
0
 10
13.15
 20
44.6348
 11
13.307
 21
44.6299
  0
LINE
  8
0
 10
13.307
 20
44.6299
 11
13.4633
 21
44.6151
  0
LINE
  8
0
 10
13.4633
 20
44.6151
 11
13.6184
 21
44.5905
  0
LINE
  8
0
 10
13.6184
 20
44.5905
 11
13.7717
 21
44.5563
  0
LINE
  8
0
 10
13.7717
 20
44.5563
 11
13.9225
 21
44.5125
  0
LINE
  8
0
 10
13.9225
 20
44.5125
 11
14.0703
 21
44.4593
  0
LINE
  8
0
 10
14.0703
 20
44.4593
 11
14.2144
 21
44.3969
  0
LINE
  8
0
 10
14.2144
 20
44.3969
 11
14.3544
 21
44.3256
  0
LINE
  8
0
 10
14.3544
 20
44.3256
 11
14.4896
 21
44.2457
  0
LINE
  8
0
 10
14.4896
 20
44.2457
 11
14.6195
 21
44.1574
  0
LINE
  8
0
 10
14.6195
 20
44.1574
 11
14.7435
 21
44.0611
  0
LINE
  8
0
 10
14.7435
 20
44.0611
 11
14.8614
 21
43.9573
  0
LINE
  8
0
 10
14.8614
 20
43.9573
 11
14.9724
 21
43.8462
  0
LINE
  8
0
 10
14.9724
 20
43.8462
 11
15.0763
 21
43.7284
  0
LINE
  8
0
 10
15.0763
 20
43.7284
 11
15.1725
 21
43.6043
  0
LINE
  8
0
 10
15.1725
 20
43.6043
 11
15.2608
 21
43.4744
  0
LINE
  8
0
 10
15.2608
 20
43.4744
 11
15.3408
 21
43.3392
  0
LINE
  8
0
 10
15.3408
 20
43.3392
 11
15.4121
 21
43.1993
  0
LINE
  8
0
 10
15.4121
 20
43.1993
 11
15.4744
 21
43.0551
  0
LINE
  8
0
 10
15.4744
 20
43.0551
 11
15.5276
 21
42.9074
  0
LINE
  8
0
 10
15.5276
 20
42.9074
 11
15.5715
 21
42.7566
  0
LINE
  8
0
 10
15.5715
 20
42.7566
 11
15.6057
 21
42.6033
  0
LINE
  8
0
 10
15.6057
 20
42.6033
 11
15.6303
 21
42.4482
  0
LINE
  8
0
 10
15.6303
 20
42.4482
 11
15.6451
 21
42.2918
  0
LINE
  8
0
 10
15.6451
 20
42.2918
 11
15.65
 21
42.1348
  0
LINE
  8
0
 10
15.65
 20
42.1348
 11
15.6451
 21
41.9779
  0
LINE
  8
0
 10
15.6451
 20
41.9779
 11
15.6303
 21
41.8215
  0
LINE
  8
0
 10
15.6303
 20
41.8215
 11
15.6057
 21
41.6664
  0
LINE
  8
0
 10
15.6057
 20
41.6664
 11
15.5715
 21
41.5131
  0
LINE
  8
0
 10
15.5715
 20
41.5131
 11
15.5276
 21
41.3623
  0
LINE
  8
0
 10
15.5276
 20
41.3623
 11
15.4744
 21
41.2145
  0
LINE
  8
0
 10
15.4744
 20
41.2145
 11
15.4121
 21
41.0704
  0
LINE
  8
0
 10
15.4121
 20
41.0704
 11
15.3408
 21
40.9305
  0
LINE
  8
0
 10
15.3408
 20
40.9305
 11
15.2608
 21
40.7953
  0
LINE
  8
0
 10
15.2608
 20
40.7953
 11
15.1725
 21
40.6654
  0
LINE
  8
0
 10
15.1725
 20
40.6654
 11
15.0763
 21
40.5413
  0
LINE
  8
0
 10
15.0763
 20
40.5413
 11
14.9724
 21
40.4235
  0
LINE
  8
0
 10
14.9724
 20
40.4235
 11
14.8614
 21
40.3124
  0
LINE
  8
0
 10
14.8614
 20
40.3124
 11
14.7435
 21
40.2086
  0
LINE
  8
0
 10
14.7435
 20
40.2086
 11
14.6195
 21
40.1123
  0
LINE
  8
0
 10
14.6195
 20
40.1123
 11
14.4896
 21
40.024
  0
LINE
  8
0
 10
14.4896
 20
40.024
 11
14.3544
 21
39.9441
  0
LINE
  8
0
 10
14.3544
 20
39.9441
 11
14.2144
 21
39.8728
  0
LINE
  8
0
 10
14.2144
 20
39.8728
 11
14.0703
 21
39.8104
  0
LINE
  8
0
 10
14.0703
 20
39.8104
 11
13.9225
 21
39.7572
  0
LINE
  8
0
 10
13.9225
 20
39.7572
 11
13.7717
 21
39.7134
  0
LINE
  8
0
 10
13.7717
 20
39.7134
 11
13.6184
 21
39.6791
  0
LINE
  8
0
 10
13.6184
 20
39.6791
 11
13.4633
 21
39.6545
  0
LINE
  8
0
 10
13.4633
 20
39.6545
 11
13.307
 21
39.6398
  0
LINE
  8
0
 10
13.307
 20
39.6398
 11
13.15
 21
39.6348
  0
LINE
  8
0
 10
13.15
 20
39.6348
 11
12.993
 21
39.6398
  0
LINE
  8
0
 10
-123.882
 20
22.2133
 11
-124.038
 21
22.2281
  0
LINE
  8
0
 10
-124.038
 20
22.2281
 11
-124.193
 21
22.2527
  0
LINE
  8
0
 10
-124.193
 20
22.2527
 11
-124.347
 21
22.2869
  0
LINE
  8
0
 10
-124.347
 20
22.2869
 11
-124.498
 21
22.3307
  0
LINE
  8
0
 10
-124.498
 20
22.3307
 11
-124.645
 21
22.384
  0
LINE
  8
0
 10
-124.645
 20
22.384
 11
-124.789
 21
22.4463
  0
LINE
  8
0
 10
-124.789
 20
22.4463
 11
-124.929
 21
22.5176
  0
LINE
  8
0
 10
-124.929
 20
22.5176
 11
-125.065
 21
22.5976
  0
LINE
  8
0
 10
-125.065
 20
22.5976
 11
-125.194
 21
22.6859
  0
LINE
  8
0
 10
-125.194
 20
22.6859
 11
-125.319
 21
22.7821
  0
LINE
  8
0
 10
-125.319
 20
22.7821
 11
-125.436
 21
22.886
  0
LINE
  8
0
 10
-125.436
 20
22.886
 11
-125.547
 21
22.997
  0
LINE
  8
0
 10
-125.547
 20
22.997
 11
-125.651
 21
23.1148
  0
LINE
  8
0
 10
-125.651
 20
23.1148
 11
-125.748
 21
23.2389
  0
LINE
  8
0
 10
-125.748
 20
23.2389
 11
-125.836
 21
23.3688
  0
LINE
  8
0
 10
-125.836
 20
23.3688
 11
-125.916
 21
23.504
  0
LINE
  8
0
 10
-125.916
 20
23.504
 11
-125.987
 21
23.644
  0
LINE
  8
0
 10
-125.987
 20
23.644
 11
-126.049
 21
23.7881
  0
LINE
  8
0
 10
-126.049
 20
23.7881
 11
-126.103
 21
23.9359
  0
LINE
  8
0
 10
-126.103
 20
23.9359
 11
-126.146
 21
24.0867
  0
LINE
  8
0
 10
-126.146
 20
24.0867
 11
-126.181
 21
24.2399
  0
LINE
  8
0
 10
-126.181
 20
24.2399
 11
-126.205
 21
24.3951
  0
LINE
  8
0
 10
-126.205
 20
24.3951
 11
-126.22
 21
24.5514
  0
LINE
  8
0
 10
-126.22
 20
24.5514
 11
-126.225
 21
24.7084
  0
LINE
  8
0
 10
-126.225
 20
24.7084
 11
-126.22
 21
24.8654
  0
LINE
  8
0
 10
-126.22
 20
24.8654
 11
-126.205
 21
25.0217
  0
LINE
  8
0
 10
-126.205
 20
25.0217
 11
-126.181
 21
25.1768
  0
LINE
  8
0
 10
-126.181
 20
25.1768
 11
-126.146
 21
25.3301
  0
LINE
  8
0
 10
-126.146
 20
25.3301
 11
-126.103
 21
25.4809
  0
LINE
  8
0
 10
-126.103
 20
25.4809
 11
-126.049
 21
25.6287
  0
LINE
  8
0
 10
-126.049
 20
25.6287
 11
-125.987
 21
25.7728
  0
LINE
  8
0
 10
-125.987
 20
25.7728
 11
-125.916
 21
25.9128
  0
LINE
  8
0
 10
-125.916
 20
25.9128
 11
-125.836
 21
26.048
  0
LINE
  8
0
 10
-125.836
 20
26.048
 11
-125.748
 21
26.1779
  0
LINE
  8
0
 10
-125.748
 20
26.1779
 11
-125.651
 21
26.302
  0
LINE
  8
0
 10
-125.651
 20
26.302
 11
-125.547
 21
26.4198
  0
LINE
  8
0
 10
-125.547
 20
26.4198
 11
-125.436
 21
26.5308
  0
LINE
  8
0
 10
-125.436
 20
26.5308
 11
-125.319
 21
26.6347
  0
LINE
  8
0
 10
-125.319
 20
26.6347
 11
-125.194
 21
26.7309
  0
LINE
  8
0
 10
-125.194
 20
26.7309
 11
-125.065
 21
26.8192
  0
LINE
  8
0
 10
-125.065
 20
26.8192
 11
-124.929
 21
26.8992
  0
LINE
  8
0
 10
-124.929
 20
26.8992
 11
-124.789
 21
26.9705
  0
LINE
  8
0
 10
-124.789
 20
26.9705
 11
-124.645
 21
27.0328
  0
LINE
  8
0
 10
-124.645
 20
27.0328
 11
-124.498
 21
27.086
  0
LINE
  8
0
 10
-124.498
 20
27.086
 11
-124.347
 21
27.1299
  0
LINE
  8
0
 10
-124.347
 20
27.1299
 11
-124.193
 21
27.1641
  0
LINE
  8
0
 10
-124.193
 20
27.1641
 11
-124.038
 21
27.1887
  0
LINE
  8
0
 10
-124.038
 20
27.1887
 11
-123.882
 21
27.2035
  0
LINE
  8
0
 10
-123.882
 20
27.2035
 11
-123.725
 21
27.2084
  0
LINE
  8
0
 10
-123.725
 20
27.2084
 11
-123.568
 21
27.2035
  0
LINE
  8
0
 10
-123.568
 20
27.2035
 11
-123.412
 21
27.1887
  0
LINE
  8
0
 10
-123.412
 20
27.1887
 11
-123.257
 21
27.1641
  0
LINE
  8
0
 10
-123.257
 20
27.1641
 11
-123.103
 21
27.1299
  0
LINE
  8
0
 10
-123.103
 20
27.1299
 11
-122.952
 21
27.086
  0
LINE
  8
0
 10
-122.952
 20
27.086
 11
-122.805
 21
27.0328
  0
LINE
  8
0
 10
-122.805
 20
27.0328
 11
-122.661
 21
26.9705
  0
LINE
  8
0
 10
-122.661
 20
26.9705
 11
-122.521
 21
26.8992
  0
LINE
  8
0
 10
-122.521
 20
26.8992
 11
-122.385
 21
26.8192
  0
LINE
  8
0
 10
-122.385
 20
26.8192
 11
-122.256
 21
26.7309
  0
LINE
  8
0
 10
-122.256
 20
26.7309
 11
-122.131
 21
26.6347
  0
LINE
  8
0
 10
-122.131
 20
26.6347
 11
-122.014
 21
26.5308
  0
LINE
  8
0
 10
-122.014
 20
26.5308
 11
-121.903
 21
26.4198
  0
LINE
  8
0
 10
-121.903
 20
26.4198
 11
-121.799
 21
26.302
  0
LINE
  8
0
 10
-121.799
 20
26.302
 11
-121.702
 21
26.1779
  0
LINE
  8
0
 10
-121.702
 20
26.1779
 11
-121.614
 21
26.048
  0
LINE
  8
0
 10
-121.614
 20
26.048
 11
-121.534
 21
25.9128
  0
LINE
  8
0
 10
-121.534
 20
25.9128
 11
-121.463
 21
25.7728
  0
LINE
  8
0
 10
-121.463
 20
25.7728
 11
-121.401
 21
25.6287
  0
LINE
  8
0
 10
-121.401
 20
25.6287
 11
-121.347
 21
25.4809
  0
LINE
  8
0
 10
-121.347
 20
25.4809
 11
-121.304
 21
25.3301
  0
LINE
  8
0
 10
-121.304
 20
25.3301
 11
-121.269
 21
25.1768
  0
LINE
  8
0
 10
-121.269
 20
25.1768
 11
-121.245
 21
25.0217
  0
LINE
  8
0
 10
-121.245
 20
25.0217
 11
-121.23
 21
24.8654
  0
LINE
  8
0
 10
-121.23
 20
24.8654
 11
-121.225
 21
24.7084
  0
LINE
  8
0
 10
-121.225
 20
24.7084
 11
-121.23
 21
24.5514
  0
LINE
  8
0
 10
-121.23
 20
24.5514
 11
-121.245
 21
24.3951
  0
LINE
  8
0
 10
-121.245
 20
24.3951
 11
-121.269
 21
24.2399
  0
LINE
  8
0
 10
-121.269
 20
24.2399
 11
-121.304
 21
24.0867
  0
LINE
  8
0
 10
-121.304
 20
24.0867
 11
-121.347
 21
23.9359
  0
LINE
  8
0
 10
-121.347
 20
23.9359
 11
-121.401
 21
23.7881
  0
LINE
  8
0
 10
-121.401
 20
23.7881
 11
-121.463
 21
23.644
  0
LINE
  8
0
 10
-121.463
 20
23.644
 11
-121.534
 21
23.504
  0
LINE
  8
0
 10
-121.534
 20
23.504
 11
-121.614
 21
23.3688
  0
LINE
  8
0
 10
-121.614
 20
23.3688
 11
-121.702
 21
23.2389
  0
LINE
  8
0
 10
-121.702
 20
23.2389
 11
-121.799
 21
23.1148
  0
LINE
  8
0
 10
-121.799
 20
23.1148
 11
-121.903
 21
22.997
  0
LINE
  8
0
 10
-121.903
 20
22.997
 11
-122.014
 21
22.886
  0
LINE
  8
0
 10
-122.014
 20
22.886
 11
-122.131
 21
22.7821
  0
LINE
  8
0
 10
-122.131
 20
22.7821
 11
-122.256
 21
22.6859
  0
LINE
  8
0
 10
-122.256
 20
22.6859
 11
-122.385
 21
22.5976
  0
LINE
  8
0
 10
-122.385
 20
22.5976
 11
-122.521
 21
22.5176
  0
LINE
  8
0
 10
-122.521
 20
22.5176
 11
-122.661
 21
22.4463
  0
LINE
  8
0
 10
-122.661
 20
22.4463
 11
-122.805
 21
22.384
  0
LINE
  8
0
 10
-122.805
 20
22.384
 11
-122.952
 21
22.3307
  0
LINE
  8
0
 10
-122.952
 20
22.3307
 11
-123.103
 21
22.2869
  0
LINE
  8
0
 10
-123.103
 20
22.2869
 11
-123.257
 21
22.2527
  0
LINE
  8
0
 10
-123.257
 20
22.2527
 11
-123.412
 21
22.2281
  0
LINE
  8
0
 10
-123.412
 20
22.2281
 11
-123.568
 21
22.2133
  0
LINE
  8
0
 10
-123.568
 20
22.2133
 11
-123.725
 21
22.2084
  0
LINE
  8
0
 10
-123.725
 20
22.2084
 11
-123.882
 21
22.2133
  0
LINE
  8
0
 10
-55.4478
 20
18.4585
 11
-55.6074
 21
18.4736
  0
LINE
  8
0
 10
-55.6074
 20
18.4736
 11
-55.7658
 21
18.4987
  0
LINE
  8
0
 10
-55.7658
 20
18.4987
 11
-55.9223
 21
18.5337
  0
LINE
  8
0
 10
-55.9223
 20
18.5337
 11
-56.0763
 21
18.5784
  0
LINE
  8
0
 10
-56.0763
 20
18.5784
 11
-56.2271
 21
18.6327
  0
LINE
  8
0
 10
-56.2271
 20
18.6327
 11
-56.3743
 21
18.6964
  0
LINE
  8
0
 10
-56.3743
 20
18.6964
 11
-56.5172
 21
18.7692
  0
LINE
  8
0
 10
-56.5172
 20
18.7692
 11
-56.6552
 21
18.8508
  0
LINE
  8
0
 10
-56.6552
 20
18.8508
 11
-56.7878
 21
18.9409
  0
LINE
  8
0
 10
-56.7878
 20
18.9409
 11
-56.9145
 21
19.0392
  0
LINE
  8
0
 10
-56.9145
 20
19.0392
 11
-57.0348
 21
19.1453
  0
LINE
  8
0
 10
-57.0348
 20
19.1453
 11
-57.1482
 21
19.2587
  0
LINE
  8
0
 10
-57.1482
 20
19.2587
 11
-57.2542
 21
19.379
  0
LINE
  8
0
 10
-57.2542
 20
19.379
 11
-57.3525
 21
19.5056
  0
LINE
  8
0
 10
-57.3525
 20
19.5056
 11
-57.4426
 21
19.6383
  0
LINE
  8
0
 10
-57.4426
 20
19.6383
 11
-57.5243
 21
19.7763
  0
LINE
  8
0
 10
-57.5243
 20
19.7763
 11
-57.5971
 21
19.9192
  0
LINE
  8
0
 10
-57.5971
 20
19.9192
 11
-57.6608
 21
20.0663
  0
LINE
  8
0
 10
-57.6608
 20
20.0663
 11
-57.7151
 21
20.2172
  0
LINE
  8
0
 10
-57.7151
 20
20.2172
 11
-57.7598
 21
20.3712
  0
LINE
  8
0
 10
-57.7598
 20
20.3712
 11
-57.7948
 21
20.5277
  0
LINE
  8
0
 10
-57.7948
 20
20.5277
 11
-57.8199
 21
20.6861
  0
LINE
  8
0
 10
-57.8199
 20
20.6861
 11
-57.835
 21
20.8457
  0
LINE
  8
0
 10
-57.835
 20
20.8457
 11
-57.84
 21
21.006
  0
LINE
  8
0
 10
-57.84
 20
21.006
 11
-57.835
 21
21.1662
  0
LINE
  8
0
 10
-57.835
 20
21.1662
 11
-57.8199
 21
21.3259
  0
LINE
  8
0
 10
-57.8199
 20
21.3259
 11
-57.7948
 21
21.4843
  0
LINE
  8
0
 10
-57.7948
 20
21.4843
 11
-57.7598
 21
21.6407
  0
LINE
  8
0
 10
-57.7598
 20
21.6407
 11
-57.7151
 21
21.7947
  0
LINE
  8
0
 10
-57.7151
 20
21.7947
 11
-57.6608
 21
21.9456
  0
LINE
  8
0
 10
-57.6608
 20
21.9456
 11
-57.5971
 21
22.0928
  0
LINE
  8
0
 10
-57.5971
 20
22.0928
 11
-57.5243
 21
22.2356
  0
LINE
  8
0
 10
-57.5243
 20
22.2356
 11
-57.4426
 21
22.3737
  0
LINE
  8
0
 10
-57.4426
 20
22.3737
 11
-57.3525
 21
22.5063
  0
LINE
  8
0
 10
-57.3525
 20
22.5063
 11
-57.2542
 21
22.633
  0
LINE
  8
0
 10
-57.2542
 20
22.633
 11
-57.1482
 21
22.7533
  0
LINE
  8
0
 10
-57.1482
 20
22.7533
 11
-57.0348
 21
22.8667
  0
LINE
  8
0
 10
-57.0348
 20
22.8667
 11
-56.9145
 21
22.9727
  0
LINE
  8
0
 10
-56.9145
 20
22.9727
 11
-56.7878
 21
23.071
  0
LINE
  8
0
 10
-56.7878
 20
23.071
 11
-56.6552
 21
23.1611
  0
LINE
  8
0
 10
-56.6552
 20
23.1611
 11
-56.5172
 21
23.2427
  0
LINE
  8
0
 10
-56.5172
 20
23.2427
 11
-56.3743
 21
23.3155
  0
LINE
  8
0
 10
-56.3743
 20
23.3155
 11
-56.2271
 21
23.3792
  0
LINE
  8
0
 10
-56.2271
 20
23.3792
 11
-56.0763
 21
23.4335
  0
LINE
  8
0
 10
-56.0763
 20
23.4335
 11
-55.9223
 21
23.4783
  0
LINE
  8
0
 10
-55.9223
 20
23.4783
 11
-55.7658
 21
23.5133
  0
LINE
  8
0
 10
-55.7658
 20
23.5133
 11
-55.6074
 21
23.5383
  0
LINE
  8
0
 10
-55.6074
 20
23.5383
 11
-55.4478
 21
23.5534
  0
LINE
  8
0
 10
-55.4478
 20
23.5534
 11
-55.2875
 21
23.5585
  0
LINE
  8
0
 10
-55.2875
 20
23.5585
 11
-55.1272
 21
23.5534
  0
LINE
  8
0
 10
-55.1272
 20
23.5534
 11
-54.9676
 21
23.5383
  0
LINE
  8
0
 10
-54.9676
 20
23.5383
 11
-54.8092
 21
23.5133
  0
LINE
  8
0
 10
-54.8092
 20
23.5133
 11
-54.6527
 21
23.4783
  0
LINE
  8
0
 10
-54.6527
 20
23.4783
 11
-54.4987
 21
23.4335
  0
LINE
  8
0
 10
-54.4987
 20
23.4335
 11
-54.3479
 21
23.3792
  0
LINE
  8
0
 10
-54.3479
 20
23.3792
 11
-54.2007
 21
23.3155
  0
LINE
  8
0
 10
-54.2007
 20
23.3155
 11
-54.0578
 21
23.2427
  0
LINE
  8
0
 10
-54.0578
 20
23.2427
 11
-53.9198
 21
23.1611
  0
LINE
  8
0
 10
-53.9198
 20
23.1611
 11
-53.7872
 21
23.071
  0
LINE
  8
0
 10
-53.7872
 20
23.071
 11
-53.6605
 21
22.9727
  0
LINE
  8
0
 10
-53.6605
 20
22.9727
 11
-53.5402
 21
22.8667
  0
LINE
  8
0
 10
-53.5402
 20
22.8667
 11
-53.4268
 21
22.7533
  0
LINE
  8
0
 10
-53.4268
 20
22.7533
 11
-53.3208
 21
22.633
  0
LINE
  8
0
 10
-53.3208
 20
22.633
 11
-53.2225
 21
22.5063
  0
LINE
  8
0
 10
-53.2225
 20
22.5063
 11
-53.1323
 21
22.3737
  0
LINE
  8
0
 10
-53.1323
 20
22.3737
 11
-53.0507
 21
22.2356
  0
LINE
  8
0
 10
-53.0507
 20
22.2356
 11
-52.9779
 21
22.0928
  0
LINE
  8
0
 10
-52.9779
 20
22.0928
 11
-52.9142
 21
21.9456
  0
LINE
  8
0
 10
-52.9142
 20
21.9456
 11
-52.8599
 21
21.7947
  0
LINE
  8
0
 10
-52.8599
 20
21.7947
 11
-52.8152
 21
21.6407
  0
LINE
  8
0
 10
-52.8152
 20
21.6407
 11
-52.7802
 21
21.4843
  0
LINE
  8
0
 10
-52.7802
 20
21.4843
 11
-52.7551
 21
21.3259
  0
LINE
  8
0
 10
-52.7551
 20
21.3259
 11
-52.74
 21
21.1662
  0
LINE
  8
0
 10
-52.74
 20
21.1662
 11
-52.735
 21
21.006
  0
LINE
  8
0
 10
-52.735
 20
21.006
 11
-52.74
 21
20.8457
  0
LINE
  8
0
 10
-52.74
 20
20.8457
 11
-52.7551
 21
20.6861
  0
LINE
  8
0
 10
-52.7551
 20
20.6861
 11
-52.7802
 21
20.5277
  0
LINE
  8
0
 10
-52.7802
 20
20.5277
 11
-52.8152
 21
20.3712
  0
LINE
  8
0
 10
-52.8152
 20
20.3712
 11
-52.8599
 21
20.2172
  0
LINE
  8
0
 10
-52.8599
 20
20.2172
 11
-52.9142
 21
20.0663
  0
LINE
  8
0
 10
-52.9142
 20
20.0663
 11
-52.9779
 21
19.9192
  0
LINE
  8
0
 10
-52.9779
 20
19.9192
 11
-53.0507
 21
19.7763
  0
LINE
  8
0
 10
-53.0507
 20
19.7763
 11
-53.1323
 21
19.6383
  0
LINE
  8
0
 10
-53.1323
 20
19.6383
 11
-53.2225
 21
19.5056
  0
LINE
  8
0
 10
-53.2225
 20
19.5056
 11
-53.3208
 21
19.379
  0
LINE
  8
0
 10
-53.3208
 20
19.379
 11
-53.4268
 21
19.2587
  0
LINE
  8
0
 10
-53.4268
 20
19.2587
 11
-53.5402
 21
19.1453
  0
LINE
  8
0
 10
-53.5402
 20
19.1453
 11
-53.6605
 21
19.0392
  0
LINE
  8
0
 10
-53.6605
 20
19.0392
 11
-53.7872
 21
18.9409
  0
LINE
  8
0
 10
-53.7872
 20
18.9409
 11
-53.9198
 21
18.8508
  0
LINE
  8
0
 10
-53.9198
 20
18.8508
 11
-54.0578
 21
18.7692
  0
LINE
  8
0
 10
-54.0578
 20
18.7692
 11
-54.2007
 21
18.6964
  0
LINE
  8
0
 10
-54.2007
 20
18.6964
 11
-54.3479
 21
18.6327
  0
LINE
  8
0
 10
-54.3479
 20
18.6327
 11
-54.4987
 21
18.5784
  0
LINE
  8
0
 10
-54.4987
 20
18.5784
 11
-54.6527
 21
18.5337
  0
LINE
  8
0
 10
-54.6527
 20
18.5337
 11
-54.8092
 21
18.4987
  0
LINE
  8
0
 10
-54.8092
 20
18.4987
 11
-54.9676
 21
18.4736
  0
LINE
  8
0
 10
-54.9676
 20
18.4736
 11
-55.1272
 21
18.4585
  0
LINE
  8
0
 10
-55.1272
 20
18.4585
 11
-55.2875
 21
18.4535
  0
LINE
  8
0
 10
-55.2875
 20
18.4535
 11
-55.4478
 21
18.4585
  0
LINE
  8
0
 10
-35.4478
 20
18.4585
 11
-35.6074
 21
18.4736
  0
LINE
  8
0
 10
-35.6074
 20
18.4736
 11
-35.7658
 21
18.4987
  0
LINE
  8
0
 10
-35.7658
 20
18.4987
 11
-35.9223
 21
18.5337
  0
LINE
  8
0
 10
-35.9223
 20
18.5337
 11
-36.0763
 21
18.5784
  0
LINE
  8
0
 10
-36.0763
 20
18.5784
 11
-36.2271
 21
18.6327
  0
LINE
  8
0
 10
-36.2271
 20
18.6327
 11
-36.3743
 21
18.6964
  0
LINE
  8
0
 10
-36.3743
 20
18.6964
 11
-36.5172
 21
18.7692
  0
LINE
  8
0
 10
-36.5172
 20
18.7692
 11
-36.6552
 21
18.8508
  0
LINE
  8
0
 10
-36.6552
 20
18.8508
 11
-36.7878
 21
18.9409
  0
LINE
  8
0
 10
-36.7878
 20
18.9409
 11
-36.9145
 21
19.0392
  0
LINE
  8
0
 10
-36.9145
 20
19.0392
 11
-37.0348
 21
19.1453
  0
LINE
  8
0
 10
-37.0348
 20
19.1453
 11
-37.1482
 21
19.2587
  0
LINE
  8
0
 10
-37.1482
 20
19.2587
 11
-37.2542
 21
19.379
  0
LINE
  8
0
 10
-37.2542
 20
19.379
 11
-37.3525
 21
19.5056
  0
LINE
  8
0
 10
-37.3525
 20
19.5056
 11
-37.4426
 21
19.6383
  0
LINE
  8
0
 10
-37.4426
 20
19.6383
 11
-37.5243
 21
19.7763
  0
LINE
  8
0
 10
-37.5243
 20
19.7763
 11
-37.5971
 21
19.9192
  0
LINE
  8
0
 10
-37.5971
 20
19.9192
 11
-37.6608
 21
20.0663
  0
LINE
  8
0
 10
-37.6608
 20
20.0663
 11
-37.7151
 21
20.2172
  0
LINE
  8
0
 10
-37.7151
 20
20.2172
 11
-37.7598
 21
20.3712
  0
LINE
  8
0
 10
-37.7598
 20
20.3712
 11
-37.7948
 21
20.5277
  0
LINE
  8
0
 10
-37.7948
 20
20.5277
 11
-37.8199
 21
20.6861
  0
LINE
  8
0
 10
-37.8199
 20
20.6861
 11
-37.835
 21
20.8457
  0
LINE
  8
0
 10
-37.835
 20
20.8457
 11
-37.84
 21
21.006
  0
LINE
  8
0
 10
-37.84
 20
21.006
 11
-37.835
 21
21.1662
  0
LINE
  8
0
 10
-37.835
 20
21.1662
 11
-37.8199
 21
21.3259
  0
LINE
  8
0
 10
-37.8199
 20
21.3259
 11
-37.7948
 21
21.4843
  0
LINE
  8
0
 10
-37.7948
 20
21.4843
 11
-37.7598
 21
21.6407
  0
LINE
  8
0
 10
-37.7598
 20
21.6407
 11
-37.7151
 21
21.7947
  0
LINE
  8
0
 10
-37.7151
 20
21.7947
 11
-37.6608
 21
21.9456
  0
LINE
  8
0
 10
-37.6608
 20
21.9456
 11
-37.5971
 21
22.0928
  0
LINE
  8
0
 10
-37.5971
 20
22.0928
 11
-37.5243
 21
22.2356
  0
LINE
  8
0
 10
-37.5243
 20
22.2356
 11
-37.4426
 21
22.3737
  0
LINE
  8
0
 10
-37.4426
 20
22.3737
 11
-37.3525
 21
22.5063
  0
LINE
  8
0
 10
-37.3525
 20
22.5063
 11
-37.2542
 21
22.633
  0
LINE
  8
0
 10
-37.2542
 20
22.633
 11
-37.1482
 21
22.7533
  0
LINE
  8
0
 10
-37.1482
 20
22.7533
 11
-37.0348
 21
22.8667
  0
LINE
  8
0
 10
-37.0348
 20
22.8667
 11
-36.9145
 21
22.9727
  0
LINE
  8
0
 10
-36.9145
 20
22.9727
 11
-36.7878
 21
23.071
  0
LINE
  8
0
 10
-36.7878
 20
23.071
 11
-36.6552
 21
23.1611
  0
LINE
  8
0
 10
-36.6552
 20
23.1611
 11
-36.5172
 21
23.2427
  0
LINE
  8
0
 10
-36.5172
 20
23.2427
 11
-36.3743
 21
23.3155
  0
LINE
  8
0
 10
-36.3743
 20
23.3155
 11
-36.2271
 21
23.3792
  0
LINE
  8
0
 10
-36.2271
 20
23.3792
 11
-36.0763
 21
23.4335
  0
LINE
  8
0
 10
-36.0763
 20
23.4335
 11
-35.9223
 21
23.4783
  0
LINE
  8
0
 10
-35.9223
 20
23.4783
 11
-35.7658
 21
23.5133
  0
LINE
  8
0
 10
-35.7658
 20
23.5133
 11
-35.6074
 21
23.5383
  0
LINE
  8
0
 10
-35.6074
 20
23.5383
 11
-35.4478
 21
23.5534
  0
LINE
  8
0
 10
-35.4478
 20
23.5534
 11
-35.2875
 21
23.5585
  0
LINE
  8
0
 10
-35.2875
 20
23.5585
 11
-35.1272
 21
23.5534
  0
LINE
  8
0
 10
-35.1272
 20
23.5534
 11
-34.9676
 21
23.5383
  0
LINE
  8
0
 10
-34.9676
 20
23.5383
 11
-34.8092
 21
23.5133
  0
LINE
  8
0
 10
-34.8092
 20
23.5133
 11
-34.6527
 21
23.4783
  0
LINE
  8
0
 10
-34.6527
 20
23.4783
 11
-34.4987
 21
23.4335
  0
LINE
  8
0
 10
-34.4987
 20
23.4335
 11
-34.3479
 21
23.3792
  0
LINE
  8
0
 10
-34.3479
 20
23.3792
 11
-34.2007
 21
23.3155
  0
LINE
  8
0
 10
-34.2007
 20
23.3155
 11
-34.0578
 21
23.2427
  0
LINE
  8
0
 10
-34.0578
 20
23.2427
 11
-33.9198
 21
23.1611
  0
LINE
  8
0
 10
-33.9198
 20
23.1611
 11
-33.7872
 21
23.071
  0
LINE
  8
0
 10
-33.7872
 20
23.071
 11
-33.6605
 21
22.9727
  0
LINE
  8
0
 10
-33.6605
 20
22.9727
 11
-33.5402
 21
22.8667
  0
LINE
  8
0
 10
-33.5402
 20
22.8667
 11
-33.4268
 21
22.7533
  0
LINE
  8
0
 10
-33.4268
 20
22.7533
 11
-33.3208
 21
22.633
  0
LINE
  8
0
 10
-33.3208
 20
22.633
 11
-33.2225
 21
22.5063
  0
LINE
  8
0
 10
-33.2225
 20
22.5063
 11
-33.1323
 21
22.3737
  0
LINE
  8
0
 10
-33.1323
 20
22.3737
 11
-33.0507
 21
22.2356
  0
LINE
  8
0
 10
-33.0507
 20
22.2356
 11
-32.9779
 21
22.0928
  0
LINE
  8
0
 10
-32.9779
 20
22.0928
 11
-32.9142
 21
21.9456
  0
LINE
  8
0
 10
-32.9142
 20
21.9456
 11
-32.8599
 21
21.7947
  0
LINE
  8
0
 10
-32.8599
 20
21.7947
 11
-32.8152
 21
21.6407
  0
LINE
  8
0
 10
-32.8152
 20
21.6407
 11
-32.7802
 21
21.4843
  0
LINE
  8
0
 10
-32.7802
 20
21.4843
 11
-32.7551
 21
21.3259
  0
LINE
  8
0
 10
-32.7551
 20
21.3259
 11
-32.74
 21
21.1662
  0
LINE
  8
0
 10
-32.74
 20
21.1662
 11
-32.735
 21
21.006
  0
LINE
  8
0
 10
-32.735
 20
21.006
 11
-32.74
 21
20.8457
  0
LINE
  8
0
 10
-32.74
 20
20.8457
 11
-32.7551
 21
20.6861
  0
LINE
  8
0
 10
-32.7551
 20
20.6861
 11
-32.7802
 21
20.5277
  0
LINE
  8
0
 10
-32.7802
 20
20.5277
 11
-32.8152
 21
20.3712
  0
LINE
  8
0
 10
-32.8152
 20
20.3712
 11
-32.8599
 21
20.2172
  0
LINE
  8
0
 10
-32.8599
 20
20.2172
 11
-32.9142
 21
20.0663
  0
LINE
  8
0
 10
-32.9142
 20
20.0663
 11
-32.9779
 21
19.9192
  0
LINE
  8
0
 10
-32.9779
 20
19.9192
 11
-33.0507
 21
19.7763
  0
LINE
  8
0
 10
-33.0507
 20
19.7763
 11
-33.1323
 21
19.6383
  0
LINE
  8
0
 10
-33.1323
 20
19.6383
 11
-33.2225
 21
19.5056
  0
LINE
  8
0
 10
-33.2225
 20
19.5056
 11
-33.3208
 21
19.379
  0
LINE
  8
0
 10
-33.3208
 20
19.379
 11
-33.4268
 21
19.2587
  0
LINE
  8
0
 10
-33.4268
 20
19.2587
 11
-33.5402
 21
19.1453
  0
LINE
  8
0
 10
-33.5402
 20
19.1453
 11
-33.6605
 21
19.0392
  0
LINE
  8
0
 10
-33.6605
 20
19.0392
 11
-33.7872
 21
18.9409
  0
LINE
  8
0
 10
-33.7872
 20
18.9409
 11
-33.9198
 21
18.8508
  0
LINE
  8
0
 10
-33.9198
 20
18.8508
 11
-34.0578
 21
18.7692
  0
LINE
  8
0
 10
-34.0578
 20
18.7692
 11
-34.2007
 21
18.6964
  0
LINE
  8
0
 10
-34.2007
 20
18.6964
 11
-34.3479
 21
18.6327
  0
LINE
  8
0
 10
-34.3479
 20
18.6327
 11
-34.4987
 21
18.5784
  0
LINE
  8
0
 10
-34.4987
 20
18.5784
 11
-34.6527
 21
18.5337
  0
LINE
  8
0
 10
-34.6527
 20
18.5337
 11
-34.8092
 21
18.4987
  0
LINE
  8
0
 10
-34.8092
 20
18.4987
 11
-34.9676
 21
18.4736
  0
LINE
  8
0
 10
-34.9676
 20
18.4736
 11
-35.1272
 21
18.4585
  0
LINE
  8
0
 10
-35.1272
 20
18.4585
 11
-35.2875
 21
18.4535
  0
LINE
  8
0
 10
-35.2875
 20
18.4535
 11
-35.4478
 21
18.4585
  0
LINE
  8
0
 10
-75.4478
 20
18.4585
 11
-75.6074
 21
18.4736
  0
LINE
  8
0
 10
-75.6074
 20
18.4736
 11
-75.7658
 21
18.4987
  0
LINE
  8
0
 10
-75.7658
 20
18.4987
 11
-75.9223
 21
18.5337
  0
LINE
  8
0
 10
-75.9223
 20
18.5337
 11
-76.0763
 21
18.5784
  0
LINE
  8
0
 10
-76.0763
 20
18.5784
 11
-76.2271
 21
18.6327
  0
LINE
  8
0
 10
-76.2271
 20
18.6327
 11
-76.3743
 21
18.6964
  0
LINE
  8
0
 10
-76.3743
 20
18.6964
 11
-76.5172
 21
18.7692
  0
LINE
  8
0
 10
-76.5172
 20
18.7692
 11
-76.6552
 21
18.8508
  0
LINE
  8
0
 10
-76.6552
 20
18.8508
 11
-76.7878
 21
18.9409
  0
LINE
  8
0
 10
-76.7878
 20
18.9409
 11
-76.9145
 21
19.0392
  0
LINE
  8
0
 10
-76.9145
 20
19.0392
 11
-77.0348
 21
19.1453
  0
LINE
  8
0
 10
-77.0348
 20
19.1453
 11
-77.1482
 21
19.2587
  0
LINE
  8
0
 10
-77.1482
 20
19.2587
 11
-77.2542
 21
19.379
  0
LINE
  8
0
 10
-77.2542
 20
19.379
 11
-77.3525
 21
19.5056
  0
LINE
  8
0
 10
-77.3525
 20
19.5056
 11
-77.4426
 21
19.6383
  0
LINE
  8
0
 10
-77.4426
 20
19.6383
 11
-77.5243
 21
19.7763
  0
LINE
  8
0
 10
-77.5243
 20
19.7763
 11
-77.5971
 21
19.9192
  0
LINE
  8
0
 10
-77.5971
 20
19.9192
 11
-77.6608
 21
20.0663
  0
LINE
  8
0
 10
-77.6608
 20
20.0663
 11
-77.7151
 21
20.2172
  0
LINE
  8
0
 10
-77.7151
 20
20.2172
 11
-77.7598
 21
20.3712
  0
LINE
  8
0
 10
-77.7598
 20
20.3712
 11
-77.7948
 21
20.5277
  0
LINE
  8
0
 10
-77.7948
 20
20.5277
 11
-77.8199
 21
20.6861
  0
LINE
  8
0
 10
-77.8199
 20
20.6861
 11
-77.835
 21
20.8457
  0
LINE
  8
0
 10
-77.835
 20
20.8457
 11
-77.84
 21
21.006
  0
LINE
  8
0
 10
-77.84
 20
21.006
 11
-77.835
 21
21.1662
  0
LINE
  8
0
 10
-77.835
 20
21.1662
 11
-77.8199
 21
21.3259
  0
LINE
  8
0
 10
-77.8199
 20
21.3259
 11
-77.7948
 21
21.4843
  0
LINE
  8
0
 10
-77.7948
 20
21.4843
 11
-77.7598
 21
21.6407
  0
LINE
  8
0
 10
-77.7598
 20
21.6407
 11
-77.7151
 21
21.7947
  0
LINE
  8
0
 10
-77.7151
 20
21.7947
 11
-77.6608
 21
21.9456
  0
LINE
  8
0
 10
-77.6608
 20
21.9456
 11
-77.5971
 21
22.0928
  0
LINE
  8
0
 10
-77.5971
 20
22.0928
 11
-77.5243
 21
22.2356
  0
LINE
  8
0
 10
-77.5243
 20
22.2356
 11
-77.4426
 21
22.3737
  0
LINE
  8
0
 10
-77.4426
 20
22.3737
 11
-77.3525
 21
22.5063
  0
LINE
  8
0
 10
-77.3525
 20
22.5063
 11
-77.2542
 21
22.633
  0
LINE
  8
0
 10
-77.2542
 20
22.633
 11
-77.1482
 21
22.7533
  0
LINE
  8
0
 10
-77.1482
 20
22.7533
 11
-77.0348
 21
22.8667
  0
LINE
  8
0
 10
-77.0348
 20
22.8667
 11
-76.9145
 21
22.9727
  0
LINE
  8
0
 10
-76.9145
 20
22.9727
 11
-76.7878
 21
23.071
  0
LINE
  8
0
 10
-76.7878
 20
23.071
 11
-76.6552
 21
23.1611
  0
LINE
  8
0
 10
-76.6552
 20
23.1611
 11
-76.5172
 21
23.2427
  0
LINE
  8
0
 10
-76.5172
 20
23.2427
 11
-76.3743
 21
23.3155
  0
LINE
  8
0
 10
-76.3743
 20
23.3155
 11
-76.2271
 21
23.3792
  0
LINE
  8
0
 10
-76.2271
 20
23.3792
 11
-76.0763
 21
23.4335
  0
LINE
  8
0
 10
-76.0763
 20
23.4335
 11
-75.9223
 21
23.4783
  0
LINE
  8
0
 10
-75.9223
 20
23.4783
 11
-75.7658
 21
23.5133
  0
LINE
  8
0
 10
-75.7658
 20
23.5133
 11
-75.6074
 21
23.5383
  0
LINE
  8
0
 10
-75.6074
 20
23.5383
 11
-75.4478
 21
23.5534
  0
LINE
  8
0
 10
-75.4478
 20
23.5534
 11
-75.2875
 21
23.5585
  0
LINE
  8
0
 10
-75.2875
 20
23.5585
 11
-75.1272
 21
23.5534
  0
LINE
  8
0
 10
-75.1272
 20
23.5534
 11
-74.9676
 21
23.5383
  0
LINE
  8
0
 10
-74.9676
 20
23.5383
 11
-74.8092
 21
23.5133
  0
LINE
  8
0
 10
-74.8092
 20
23.5133
 11
-74.6527
 21
23.4783
  0
LINE
  8
0
 10
-74.6527
 20
23.4783
 11
-74.4987
 21
23.4335
  0
LINE
  8
0
 10
-74.4987
 20
23.4335
 11
-74.3479
 21
23.3792
  0
LINE
  8
0
 10
-74.3479
 20
23.3792
 11
-74.2007
 21
23.3155
  0
LINE
  8
0
 10
-74.2007
 20
23.3155
 11
-74.0578
 21
23.2427
  0
LINE
  8
0
 10
-74.0578
 20
23.2427
 11
-73.9198
 21
23.1611
  0
LINE
  8
0
 10
-73.9198
 20
23.1611
 11
-73.7872
 21
23.071
  0
LINE
  8
0
 10
-73.7872
 20
23.071
 11
-73.6605
 21
22.9727
  0
LINE
  8
0
 10
-73.6605
 20
22.9727
 11
-73.5402
 21
22.8667
  0
LINE
  8
0
 10
-73.5402
 20
22.8667
 11
-73.4268
 21
22.7533
  0
LINE
  8
0
 10
-73.4268
 20
22.7533
 11
-73.3208
 21
22.633
  0
LINE
  8
0
 10
-73.3208
 20
22.633
 11
-73.2225
 21
22.5063
  0
LINE
  8
0
 10
-73.2225
 20
22.5063
 11
-73.1323
 21
22.3737
  0
LINE
  8
0
 10
-73.1323
 20
22.3737
 11
-73.0507
 21
22.2356
  0
LINE
  8
0
 10
-73.0507
 20
22.2356
 11
-72.9779
 21
22.0928
  0
LINE
  8
0
 10
-72.9779
 20
22.0928
 11
-72.9142
 21
21.9456
  0
LINE
  8
0
 10
-72.9142
 20
21.9456
 11
-72.8599
 21
21.7947
  0
LINE
  8
0
 10
-72.8599
 20
21.7947
 11
-72.8152
 21
21.6407
  0
LINE
  8
0
 10
-72.8152
 20
21.6407
 11
-72.7802
 21
21.4843
  0
LINE
  8
0
 10
-72.7802
 20
21.4843
 11
-72.7551
 21
21.3259
  0
LINE
  8
0
 10
-72.7551
 20
21.3259
 11
-72.74
 21
21.1662
  0
LINE
  8
0
 10
-72.74
 20
21.1662
 11
-72.735
 21
21.006
  0
LINE
  8
0
 10
-72.735
 20
21.006
 11
-72.74
 21
20.8457
  0
LINE
  8
0
 10
-72.74
 20
20.8457
 11
-72.7551
 21
20.6861
  0
LINE
  8
0
 10
-72.7551
 20
20.6861
 11
-72.7802
 21
20.5277
  0
LINE
  8
0
 10
-72.7802
 20
20.5277
 11
-72.8152
 21
20.3712
  0
LINE
  8
0
 10
-72.8152
 20
20.3712
 11
-72.8599
 21
20.2172
  0
LINE
  8
0
 10
-72.8599
 20
20.2172
 11
-72.9142
 21
20.0663
  0
LINE
  8
0
 10
-72.9142
 20
20.0663
 11
-72.9779
 21
19.9192
  0
LINE
  8
0
 10
-72.9779
 20
19.9192
 11
-73.0507
 21
19.7763
  0
LINE
  8
0
 10
-73.0507
 20
19.7763
 11
-73.1323
 21
19.6383
  0
LINE
  8
0
 10
-73.1323
 20
19.6383
 11
-73.2225
 21
19.5056
  0
LINE
  8
0
 10
-73.2225
 20
19.5056
 11
-73.3208
 21
19.379
  0
LINE
  8
0
 10
-73.3208
 20
19.379
 11
-73.4268
 21
19.2587
  0
LINE
  8
0
 10
-73.4268
 20
19.2587
 11
-73.5402
 21
19.1453
  0
LINE
  8
0
 10
-73.5402
 20
19.1453
 11
-73.6605
 21
19.0392
  0
LINE
  8
0
 10
-73.6605
 20
19.0392
 11
-73.7872
 21
18.9409
  0
LINE
  8
0
 10
-73.7872
 20
18.9409
 11
-73.9198
 21
18.8508
  0
LINE
  8
0
 10
-73.9198
 20
18.8508
 11
-74.0578
 21
18.7692
  0
LINE
  8
0
 10
-74.0578
 20
18.7692
 11
-74.2007
 21
18.6964
  0
LINE
  8
0
 10
-74.2007
 20
18.6964
 11
-74.3479
 21
18.6327
  0
LINE
  8
0
 10
-74.3479
 20
18.6327
 11
-74.4987
 21
18.5784
  0
LINE
  8
0
 10
-74.4987
 20
18.5784
 11
-74.6527
 21
18.5337
  0
LINE
  8
0
 10
-74.6527
 20
18.5337
 11
-74.8092
 21
18.4987
  0
LINE
  8
0
 10
-74.8092
 20
18.4987
 11
-74.9676
 21
18.4736
  0
LINE
  8
0
 10
-74.9676
 20
18.4736
 11
-75.1272
 21
18.4585
  0
LINE
  8
0
 10
-75.1272
 20
18.4585
 11
-75.2875
 21
18.4535
  0
LINE
  8
0
 10
-75.2875
 20
18.4535
 11
-75.4478
 21
18.4585
  0
LINE
  8
0
 10
12.993
 20
1.5332
 11
12.8367
 21
1.54799
  0
LINE
  8
0
 10
12.8367
 20
1.54799
 11
12.6815
 21
1.57256
  0
LINE
  8
0
 10
12.6815
 20
1.57256
 11
12.5283
 21
1.60681
  0
LINE
  8
0
 10
12.5283
 20
1.60681
 11
12.3775
 21
1.65063
  0
LINE
  8
0
 10
12.3775
 20
1.65063
 11
12.2297
 21
1.70383
  0
LINE
  8
0
 10
12.2297
 20
1.70383
 11
12.0855
 21
1.7662
  0
LINE
  8
0
 10
12.0855
 20
1.7662
 11
11.9456
 21
1.83751
  0
LINE
  8
0
 10
11.9456
 20
1.83751
 11
11.8104
 21
1.91745
  0
LINE
  8
0
 10
11.8104
 20
1.91745
 11
11.6805
 21
2.00574
  0
LINE
  8
0
 10
11.6805
 20
2.00574
 11
11.5564
 21
2.10199
  0
LINE
  8
0
 10
11.5564
 20
2.10199
 11
11.4386
 21
2.20586
  0
LINE
  8
0
 10
11.4386
 20
2.20586
 11
11.3276
 21
2.31691
  0
LINE
  8
0
 10
11.3276
 20
2.31691
 11
11.2237
 21
2.43471
  0
LINE
  8
0
 10
11.2237
 20
2.43471
 11
11.1275
 21
2.55881
  0
LINE
  8
0
 10
11.1275
 20
2.55881
 11
11.0392
 21
2.68871
  0
LINE
  8
0
 10
11.0392
 20
2.68871
 11
10.9592
 21
2.82388
  0
LINE
  8
0
 10
10.9592
 20
2.82388
 11
10.8879
 21
2.96382
  0
LINE
  8
0
 10
10.8879
 20
2.96382
 11
10.8255
 21
3.10796
  0
LINE
  8
0
 10
10.8255
 20
3.10796
 11
10.7724
 21
3.25574
  0
LINE
  8
0
 10
10.7724
 20
3.25574
 11
10.7285
 21
3.40656
  0
LINE
  8
0
 10
10.7285
 20
3.40656
 11
10.6943
 21
3.55981
  0
LINE
  8
0
 10
10.6943
 20
3.55981
 11
10.6697
 21
3.71494
  0
LINE
  8
0
 10
10.6697
 20
3.71494
 11
10.6549
 21
3.87129
  0
LINE
  8
0
 10
10.6549
 20
3.87129
 11
10.65
 21
4.02827
  0
LINE
  8
0
 10
10.65
 20
4.02827
 11
10.6549
 21
4.18524
  0
LINE
  8
0
 10
10.6549
 20
4.18524
 11
10.6697
 21
4.3416
  0
LINE
  8
0
 10
10.6697
 20
4.3416
 11
10.6943
 21
4.49672
  0
LINE
  8
0
 10
10.6943
 20
4.49672
 11
10.7285
 21
4.64999
  0
LINE
  8
0
 10
10.7285
 20
4.64999
 11
10.7724
 21
4.80081
  0
LINE
  8
0
 10
10.7724
 20
4.80081
 11
10.8255
 21
4.94858
  0
LINE
  8
0
 10
10.8255
 20
4.94858
 11
10.8879
 21
5.09273
  0
LINE
  8
0
 10
10.8879
 20
5.09273
 11
10.9592
 21
5.23265
  0
LINE
  8
0
 10
10.9592
 20
5.23265
 11
11.0392
 21
5.36784
  0
LINE
  8
0
 10
11.0392
 20
5.36784
 11
11.1275
 21
5.49774
  0
LINE
  8
0
 10
11.1275
 20
5.49774
 11
11.2237
 21
5.62183
  0
LINE
  8
0
 10
11.2237
 20
5.62183
 11
11.3276
 21
5.73964
  0
LINE
  8
0
 10
11.3276
 20
5.73964
 11
11.4386
 21
5.85069
  0
LINE
  8
0
 10
11.4386
 20
5.85069
 11
11.5564
 21
5.95456
  0
LINE
  8
0
 10
11.5564
 20
5.95456
 11
11.6805
 21
6.05081
  0
LINE
  8
0
 10
11.6805
 20
6.05081
 11
11.8104
 21
6.1391
  0
LINE
  8
0
 10
11.8104
 20
6.1391
 11
11.9456
 21
6.21904
  0
LINE
  8
0
 10
11.9456
 20
6.21904
 11
12.0855
 21
6.29034
  0
LINE
  8
0
 10
12.0855
 20
6.29034
 11
12.2297
 21
6.35271
  0
LINE
  8
0
 10
12.2297
 20
6.35271
 11
12.3775
 21
6.40591
  0
LINE
  8
0
 10
12.3775
 20
6.40591
 11
12.5283
 21
6.44974
  0
LINE
  8
0
 10
12.5283
 20
6.44974
 11
12.6815
 21
6.48399
  0
LINE
  8
0
 10
12.6815
 20
6.48399
 11
12.8367
 21
6.50856
  0
LINE
  8
0
 10
12.8367
 20
6.50856
 11
12.993
 21
6.52335
  0
LINE
  8
0
 10
12.993
 20
6.52335
 11
13.15
 21
6.52827
  0
LINE
  8
0
 10
13.15
 20
6.52827
 11
13.307
 21
6.52335
  0
LINE
  8
0
 10
13.307
 20
6.52335
 11
13.4633
 21
6.50856
  0
LINE
  8
0
 10
13.4633
 20
6.50856
 11
13.6184
 21
6.48399
  0
LINE
  8
0
 10
13.6184
 20
6.48399
 11
13.7717
 21
6.44974
  0
LINE
  8
0
 10
13.7717
 20
6.44974
 11
13.9225
 21
6.40591
  0
LINE
  8
0
 10
13.9225
 20
6.40591
 11
14.0703
 21
6.35271
  0
LINE
  8
0
 10
14.0703
 20
6.35271
 11
14.2144
 21
6.29034
  0
LINE
  8
0
 10
14.2144
 20
6.29034
 11
14.3544
 21
6.21904
  0
LINE
  8
0
 10
14.3544
 20
6.21904
 11
14.4896
 21
6.1391
  0
LINE
  8
0
 10
14.4896
 20
6.1391
 11
14.6195
 21
6.05081
  0
LINE
  8
0
 10
14.6195
 20
6.05081
 11
14.7435
 21
5.95456
  0
LINE
  8
0
 10
14.7435
 20
5.95456
 11
14.8614
 21
5.85069
  0
LINE
  8
0
 10
14.8614
 20
5.85069
 11
14.9724
 21
5.73964
  0
LINE
  8
0
 10
14.9724
 20
5.73964
 11
15.0763
 21
5.62183
  0
LINE
  8
0
 10
15.0763
 20
5.62183
 11
15.1725
 21
5.49774
  0
LINE
  8
0
 10
15.1725
 20
5.49774
 11
15.2608
 21
5.36784
  0
LINE
  8
0
 10
15.2608
 20
5.36784
 11
15.3408
 21
5.23265
  0
LINE
  8
0
 10
15.3408
 20
5.23265
 11
15.4121
 21
5.09273
  0
LINE
  8
0
 10
15.4121
 20
5.09273
 11
15.4744
 21
4.94858
  0
LINE
  8
0
 10
15.4744
 20
4.94858
 11
15.5276
 21
4.80081
  0
LINE
  8
0
 10
15.5276
 20
4.80081
 11
15.5715
 21
4.64999
  0
LINE
  8
0
 10
15.5715
 20
4.64999
 11
15.6057
 21
4.49672
  0
LINE
  8
0
 10
15.6057
 20
4.49672
 11
15.6303
 21
4.3416
  0
LINE
  8
0
 10
15.6303
 20
4.3416
 11
15.6451
 21
4.18524
  0
LINE
  8
0
 10
15.6451
 20
4.18524
 11
15.65
 21
4.02827
  0
LINE
  8
0
 10
15.65
 20
4.02827
 11
15.6451
 21
3.87129
  0
LINE
  8
0
 10
15.6451
 20
3.87129
 11
15.6303
 21
3.71494
  0
LINE
  8
0
 10
15.6303
 20
3.71494
 11
15.6057
 21
3.55981
  0
LINE
  8
0
 10
15.6057
 20
3.55981
 11
15.5715
 21
3.40656
  0
LINE
  8
0
 10
15.5715
 20
3.40656
 11
15.5276
 21
3.25574
  0
LINE
  8
0
 10
15.5276
 20
3.25574
 11
15.4744
 21
3.10796
  0
LINE
  8
0
 10
15.4744
 20
3.10796
 11
15.4121
 21
2.96382
  0
LINE
  8
0
 10
15.4121
 20
2.96382
 11
15.3408
 21
2.82388
  0
LINE
  8
0
 10
15.3408
 20
2.82388
 11
15.2608
 21
2.68871
  0
LINE
  8
0
 10
15.2608
 20
2.68871
 11
15.1725
 21
2.55881
  0
LINE
  8
0
 10
15.1725
 20
2.55881
 11
15.0763
 21
2.43471
  0
LINE
  8
0
 10
15.0763
 20
2.43471
 11
14.9724
 21
2.31691
  0
LINE
  8
0
 10
14.9724
 20
2.31691
 11
14.8614
 21
2.20586
  0
LINE
  8
0
 10
14.8614
 20
2.20586
 11
14.7435
 21
2.10199
  0
LINE
  8
0
 10
14.7435
 20
2.10199
 11
14.6195
 21
2.00574
  0
LINE
  8
0
 10
14.6195
 20
2.00574
 11
14.4896
 21
1.91745
  0
LINE
  8
0
 10
14.4896
 20
1.91745
 11
14.3544
 21
1.83751
  0
LINE
  8
0
 10
14.3544
 20
1.83751
 11
14.2144
 21
1.7662
  0
LINE
  8
0
 10
14.2144
 20
1.7662
 11
14.0703
 21
1.70383
  0
LINE
  8
0
 10
14.0703
 20
1.70383
 11
13.9225
 21
1.65063
  0
LINE
  8
0
 10
13.9225
 20
1.65063
 11
13.7717
 21
1.60681
  0
LINE
  8
0
 10
13.7717
 20
1.60681
 11
13.6184
 21
1.57256
  0
LINE
  8
0
 10
13.6184
 20
1.57256
 11
13.4633
 21
1.54799
  0
LINE
  8
0
 10
13.4633
 20
1.54799
 11
13.307
 21
1.5332
  0
LINE
  8
0
 10
13.307
 20
1.5332
 11
13.15
 21
1.52827
  0
LINE
  8
0
 10
13.15
 20
1.52827
 11
12.993
 21
1.5332
  0
LINE
  8
0
 10
13.0715
 20
-16.2725
 11
12.9933
 21
-16.2651
  0
LINE
  8
0
 10
12.9933
 20
-16.2651
 11
12.9158
 21
-16.2529
  0
LINE
  8
0
 10
12.9158
 20
-16.2529
 11
12.8391
 21
-16.2357
  0
LINE
  8
0
 10
12.8391
 20
-16.2357
 11
12.7637
 21
-16.2138
  0
LINE
  8
0
 10
12.7637
 20
-16.2138
 11
12.6898
 21
-16.1872
  0
LINE
  8
0
 10
12.6898
 20
-16.1872
 11
12.6178
 21
-16.156
  0
LINE
  8
0
 10
12.6178
 20
-16.156
 11
12.5478
 21
-16.1204
  0
LINE
  8
0
 10
12.5478
 20
-16.1204
 11
12.4802
 21
-16.0804
  0
LINE
  8
0
 10
12.4802
 20
-16.0804
 11
12.4153
 21
-16.0363
  0
LINE
  8
0
 10
12.4153
 20
-16.0363
 11
12.3532
 21
-15.9881
  0
LINE
  8
0
 10
12.3532
 20
-15.9881
 11
12.2943
 21
-15.9362
  0
LINE
  8
0
 10
12.2943
 20
-15.9362
 11
12.2388
 21
-15.8807
  0
LINE
  8
0
 10
12.2388
 20
-15.8807
 11
12.1868
 21
-15.8218
  0
LINE
  8
0
 10
12.1868
 20
-15.8218
 11
12.1387
 21
-15.7597
  0
LINE
  8
0
 10
12.1387
 20
-15.7597
 11
12.0946
 21
-15.6948
  0
LINE
  8
0
 10
12.0946
 20
-15.6948
 11
12.0546
 21
-15.6272
  0
LINE
  8
0
 10
12.0546
 20
-15.6272
 11
12.019
 21
-15.5572
  0
LINE
  8
0
 10
12.019
 20
-15.5572
 11
11.9878
 21
-15.4852
  0
LINE
  8
0
 10
11.9878
 20
-15.4852
 11
11.9612
 21
-15.4113
  0
LINE
  8
0
 10
11.9612
 20
-15.4113
 11
11.9393
 21
-15.3359
  0
LINE
  8
0
 10
11.9393
 20
-15.3359
 11
11.9221
 21
-15.2592
  0
LINE
  8
0
 10
11.9221
 20
-15.2592
 11
11.9099
 21
-15.1817
  0
LINE
  8
0
 10
11.9099
 20
-15.1817
 11
11.9025
 21
-15.1035
  0
LINE
  8
0
 10
11.9025
 20
-15.1035
 11
11.9
 21
-15.025
  0
LINE
  8
0
 10
11.9
 20
-15.025
 11
11.9025
 21
-14.9465
  0
LINE
  8
0
 10
11.9025
 20
-14.9465
 11
11.9099
 21
-14.8683
  0
LINE
  8
0
 10
11.9099
 20
-14.8683
 11
11.9221
 21
-14.7908
  0
LINE
  8
0
 10
11.9221
 20
-14.7908
 11
11.9393
 21
-14.7141
  0
LINE
  8
0
 10
11.9393
 20
-14.7141
 11
11.9612
 21
-14.6387
  0
LINE
  8
0
 10
11.9612
 20
-14.6387
 11
11.9878
 21
-14.5648
  0
LINE
  8
0
 10
11.9878
 20
-14.5648
 11
12.019
 21
-14.4928
  0
LINE
  8
0
 10
12.019
 20
-14.4928
 11
12.0546
 21
-14.4228
  0
LINE
  8
0
 10
12.0546
 20
-14.4228
 11
12.0946
 21
-14.3552
  0
LINE
  8
0
 10
12.0946
 20
-14.3552
 11
12.1387
 21
-14.2903
  0
LINE
  8
0
 10
12.1387
 20
-14.2903
 11
12.1868
 21
-14.2282
  0
LINE
  8
0
 10
12.1868
 20
-14.2282
 11
12.2388
 21
-14.1693
  0
LINE
  8
0
 10
12.2388
 20
-14.1693
 11
12.2943
 21
-14.1138
  0
LINE
  8
0
 10
12.2943
 20
-14.1138
 11
12.3532
 21
-14.0618
  0
LINE
  8
0
 10
12.3532
 20
-14.0618
 11
12.4153
 21
-14.0137
  0
LINE
  8
0
 10
12.4153
 20
-14.0137
 11
12.4802
 21
-13.9696
  0
LINE
  8
0
 10
12.4802
 20
-13.9696
 11
12.5478
 21
-13.9296
  0
LINE
  8
0
 10
12.5478
 20
-13.9296
 11
12.6178
 21
-13.894
  0
LINE
  8
0
 10
12.6178
 20
-13.894
 11
12.6898
 21
-13.8628
  0
LINE
  8
0
 10
12.6898
 20
-13.8628
 11
12.7637
 21
-13.8362
  0
LINE
  8
0
 10
12.7637
 20
-13.8362
 11
12.8391
 21
-13.8143
  0
LINE
  8
0
 10
12.8391
 20
-13.8143
 11
12.9158
 21
-13.7971
  0
LINE
  8
0
 10
12.9158
 20
-13.7971
 11
12.9933
 21
-13.7849
  0
LINE
  8
0
 10
12.9933
 20
-13.7849
 11
13.0715
 21
-13.7775
  0
LINE
  8
0
 10
13.0715
 20
-13.7775
 11
13.15
 21
-13.775
  0
LINE
  8
0
 10
13.15
 20
-13.775
 11
13.2285
 21
-13.7775
  0
LINE
  8
0
 10
13.2285
 20
-13.7775
 11
13.3067
 21
-13.7849
  0
LINE
  8
0
 10
13.3067
 20
-13.7849
 11
13.3842
 21
-13.7971
  0
LINE
  8
0
 10
13.3842
 20
-13.7971
 11
13.4609
 21
-13.8143
  0
LINE
  8
0
 10
13.4609
 20
-13.8143
 11
13.5363
 21
-13.8362
  0
LINE
  8
0
 10
13.5363
 20
-13.8362
 11
13.6102
 21
-13.8628
  0
LINE
  8
0
 10
13.6102
 20
-13.8628
 11
13.6822
 21
-13.894
  0
LINE
  8
0
 10
13.6822
 20
-13.894
 11
13.7522
 21
-13.9296
  0
LINE
  8
0
 10
13.7522
 20
-13.9296
 11
13.8198
 21
-13.9696
  0
LINE
  8
0
 10
13.8198
 20
-13.9696
 11
13.8847
 21
-14.0137
  0
LINE
  8
0
 10
13.8847
 20
-14.0137
 11
13.9468
 21
-14.0618
  0
LINE
  8
0
 10
13.9468
 20
-14.0618
 11
14.0057
 21
-14.1138
  0
LINE
  8
0
 10
14.0057
 20
-14.1138
 11
14.0612
 21
-14.1693
  0
LINE
  8
0
 10
14.0612
 20
-14.1693
 11
14.1131
 21
-14.2282
  0
LINE
  8
0
 10
14.1131
 20
-14.2282
 11
14.1613
 21
-14.2903
  0
LINE
  8
0
 10
14.1613
 20
-14.2903
 11
14.2054
 21
-14.3552
  0
LINE
  8
0
 10
14.2054
 20
-14.3552
 11
14.2454
 21
-14.4228
  0
LINE
  8
0
 10
14.2454
 20
-14.4228
 11
14.281
 21
-14.4928
  0
LINE
  8
0
 10
14.281
 20
-14.4928
 11
14.3122
 21
-14.5648
  0
LINE
  8
0
 10
14.3122
 20
-14.5648
 11
14.3388
 21
-14.6387
  0
LINE
  8
0
 10
14.3388
 20
-14.6387
 11
14.3607
 21
-14.7141
  0
LINE
  8
0
 10
14.3607
 20
-14.7141
 11
14.3779
 21
-14.7908
  0
LINE
  8
0
 10
14.3779
 20
-14.7908
 11
14.3901
 21
-14.8683
  0
LINE
  8
0
 10
14.3901
 20
-14.8683
 11
14.3975
 21
-14.9465
  0
LINE
  8
0
 10
14.3975
 20
-14.9465
 11
14.4
 21
-15.025
  0
LINE
  8
0
 10
14.4
 20
-15.025
 11
14.3975
 21
-15.1035
  0
LINE
  8
0
 10
14.3975
 20
-15.1035
 11
14.3901
 21
-15.1817
  0
LINE
  8
0
 10
14.3901
 20
-15.1817
 11
14.3779
 21
-15.2592
  0
LINE
  8
0
 10
14.3779
 20
-15.2592
 11
14.3607
 21
-15.3359
  0
LINE
  8
0
 10
14.3607
 20
-15.3359
 11
14.3388
 21
-15.4113
  0
LINE
  8
0
 10
14.3388
 20
-15.4113
 11
14.3122
 21
-15.4852
  0
LINE
  8
0
 10
14.3122
 20
-15.4852
 11
14.281
 21
-15.5572
  0
LINE
  8
0
 10
14.281
 20
-15.5572
 11
14.2454
 21
-15.6272
  0
LINE
  8
0
 10
14.2454
 20
-15.6272
 11
14.2054
 21
-15.6948
  0
LINE
  8
0
 10
14.2054
 20
-15.6948
 11
14.1613
 21
-15.7597
  0
LINE
  8
0
 10
14.1613
 20
-15.7597
 11
14.1131
 21
-15.8218
  0
LINE
  8
0
 10
14.1131
 20
-15.8218
 11
14.0612
 21
-15.8807
  0
LINE
  8
0
 10
14.0612
 20
-15.8807
 11
14.0057
 21
-15.9362
  0
LINE
  8
0
 10
14.0057
 20
-15.9362
 11
13.9468
 21
-15.9881
  0
LINE
  8
0
 10
13.9468
 20
-15.9881
 11
13.8847
 21
-16.0363
  0
LINE
  8
0
 10
13.8847
 20
-16.0363
 11
13.8198
 21
-16.0804
  0
LINE
  8
0
 10
13.8198
 20
-16.0804
 11
13.7522
 21
-16.1204
  0
LINE
  8
0
 10
13.7522
 20
-16.1204
 11
13.6822
 21
-16.156
  0
LINE
  8
0
 10
13.6822
 20
-16.156
 11
13.6102
 21
-16.1872
  0
LINE
  8
0
 10
13.6102
 20
-16.1872
 11
13.5363
 21
-16.2138
  0
LINE
  8
0
 10
13.5363
 20
-16.2138
 11
13.4609
 21
-16.2357
  0
LINE
  8
0
 10
13.4609
 20
-16.2357
 11
13.3842
 21
-16.2529
  0
LINE
  8
0
 10
13.3842
 20
-16.2529
 11
13.3067
 21
-16.2651
  0
LINE
  8
0
 10
13.3067
 20
-16.2651
 11
13.2285
 21
-16.2725
  0
LINE
  8
0
 10
13.2285
 20
-16.2725
 11
13.15
 21
-16.275
  0
LINE
  8
0
 10
13.15
 20
-16.275
 11
13.0715
 21
-16.2725
  0
LINE
  8
0
 10
-138.077
 20
-19.3275
 11
-138.156
 21
-19.3202
  0
LINE
  8
0
 10
-138.156
 20
-19.3202
 11
-138.233
 21
-19.3079
  0
LINE
  8
0
 10
-138.233
 20
-19.3079
 11
-138.31
 21
-19.2907
  0
LINE
  8
0
 10
-138.31
 20
-19.2907
 11
-138.385
 21
-19.2688
  0
LINE
  8
0
 10
-138.385
 20
-19.2688
 11
-138.459
 21
-19.2422
  0
LINE
  8
0
 10
-138.459
 20
-19.2422
 11
-138.531
 21
-19.211
  0
LINE
  8
0
 10
-138.531
 20
-19.211
 11
-138.601
 21
-19.1754
  0
LINE
  8
0
 10
-138.601
 20
-19.1754
 11
-138.669
 21
-19.1354
  0
LINE
  8
0
 10
-138.669
 20
-19.1354
 11
-138.734
 21
-19.0913
  0
LINE
  8
0
 10
-138.734
 20
-19.0913
 11
-138.796
 21
-19.0432
  0
LINE
  8
0
 10
-138.796
 20
-19.0432
 11
-138.855
 21
-18.9912
  0
LINE
  8
0
 10
-138.855
 20
-18.9912
 11
-138.91
 21
-18.9357
  0
LINE
  8
0
 10
-138.91
 20
-18.9357
 11
-138.962
 21
-18.8768
  0
LINE
  8
0
 10
-138.962
 20
-18.8768
 11
-139.01
 21
-18.8147
  0
LINE
  8
0
 10
-139.01
 20
-18.8147
 11
-139.054
 21
-18.7498
  0
LINE
  8
0
 10
-139.054
 20
-18.7498
 11
-139.094
 21
-18.6822
  0
LINE
  8
0
 10
-139.094
 20
-18.6822
 11
-139.13
 21
-18.6122
  0
LINE
  8
0
 10
-139.13
 20
-18.6122
 11
-139.161
 21
-18.5402
  0
LINE
  8
0
 10
-139.161
 20
-18.5402
 11
-139.188
 21
-18.4663
  0
LINE
  8
0
 10
-139.188
 20
-18.4663
 11
-139.21
 21
-18.3909
  0
LINE
  8
0
 10
-139.21
 20
-18.3909
 11
-139.227
 21
-18.3142
  0
LINE
  8
0
 10
-139.227
 20
-18.3142
 11
-139.239
 21
-18.2367
  0
LINE
  8
0
 10
-139.239
 20
-18.2367
 11
-139.246
 21
-18.1585
  0
LINE
  8
0
 10
-139.246
 20
-18.1585
 11
-139.249
 21
-18.08
  0
LINE
  8
0
 10
-139.249
 20
-18.08
 11
-139.246
 21
-18.0015
  0
LINE
  8
0
 10
-139.246
 20
-18.0015
 11
-139.239
 21
-17.9233
  0
LINE
  8
0
 10
-139.239
 20
-17.9233
 11
-139.227
 21
-17.8458
  0
LINE
  8
0
 10
-139.227
 20
-17.8458
 11
-139.21
 21
-17.7691
  0
LINE
  8
0
 10
-139.21
 20
-17.7691
 11
-139.188
 21
-17.6937
  0
LINE
  8
0
 10
-139.188
 20
-17.6937
 11
-139.161
 21
-17.6199
  0
LINE
  8
0
 10
-139.161
 20
-17.6199
 11
-139.13
 21
-17.5478
  0
LINE
  8
0
 10
-139.13
 20
-17.5478
 11
-139.094
 21
-17.4778
  0
LINE
  8
0
 10
-139.094
 20
-17.4778
 11
-139.054
 21
-17.4102
  0
LINE
  8
0
 10
-139.054
 20
-17.4102
 11
-139.01
 21
-17.3453
  0
LINE
  8
0
 10
-139.01
 20
-17.3453
 11
-138.962
 21
-17.2832
  0
LINE
  8
0
 10
-138.962
 20
-17.2832
 11
-138.91
 21
-17.2243
  0
LINE
  8
0
 10
-138.91
 20
-17.2243
 11
-138.855
 21
-17.1688
  0
LINE
  8
0
 10
-138.855
 20
-17.1688
 11
-138.796
 21
-17.1169
  0
LINE
  8
0
 10
-138.796
 20
-17.1169
 11
-138.734
 21
-17.0687
  0
LINE
  8
0
 10
-138.734
 20
-17.0687
 11
-138.669
 21
-17.0246
  0
LINE
  8
0
 10
-138.669
 20
-17.0246
 11
-138.601
 21
-16.9846
  0
LINE
  8
0
 10
-138.601
 20
-16.9846
 11
-138.531
 21
-16.949
  0
LINE
  8
0
 10
-138.531
 20
-16.949
 11
-138.459
 21
-16.9178
  0
LINE
  8
0
 10
-138.459
 20
-16.9178
 11
-138.385
 21
-16.8912
  0
LINE
  8
0
 10
-138.385
 20
-16.8912
 11
-138.31
 21
-16.8693
  0
LINE
  8
0
 10
-138.31
 20
-16.8693
 11
-138.233
 21
-16.8522
  0
LINE
  8
0
 10
-138.233
 20
-16.8522
 11
-138.156
 21
-16.8399
  0
LINE
  8
0
 10
-138.156
 20
-16.8399
 11
-138.077
 21
-16.8325
  0
LINE
  8
0
 10
-138.077
 20
-16.8325
 11
-137.999
 21
-16.83
  0
LINE
  8
0
 10
-137.999
 20
-16.83
 11
-137.92
 21
-16.8325
  0
LINE
  8
0
 10
-137.92
 20
-16.8325
 11
-137.842
 21
-16.8399
  0
LINE
  8
0
 10
-137.842
 20
-16.8399
 11
-137.765
 21
-16.8522
  0
LINE
  8
0
 10
-137.765
 20
-16.8522
 11
-137.688
 21
-16.8693
  0
LINE
  8
0
 10
-137.688
 20
-16.8693
 11
-137.613
 21
-16.8912
  0
LINE
  8
0
 10
-137.613
 20
-16.8912
 11
-137.539
 21
-16.9178
  0
LINE
  8
0
 10
-137.539
 20
-16.9178
 11
-137.467
 21
-16.949
  0
LINE
  8
0
 10
-137.467
 20
-16.949
 11
-137.397
 21
-16.9846
  0
LINE
  8
0
 10
-137.397
 20
-16.9846
 11
-137.329
 21
-17.0246
  0
LINE
  8
0
 10
-137.329
 20
-17.0246
 11
-137.264
 21
-17.0687
  0
LINE
  8
0
 10
-137.264
 20
-17.0687
 11
-137.202
 21
-17.1169
  0
LINE
  8
0
 10
-137.202
 20
-17.1169
 11
-137.143
 21
-17.1688
  0
LINE
  8
0
 10
-137.143
 20
-17.1688
 11
-137.088
 21
-17.2243
  0
LINE
  8
0
 10
-137.088
 20
-17.2243
 11
-137.036
 21
-17.2832
  0
LINE
  8
0
 10
-137.036
 20
-17.2832
 11
-136.988
 21
-17.3453
  0
LINE
  8
0
 10
-136.988
 20
-17.3453
 11
-136.944
 21
-17.4102
  0
LINE
  8
0
 10
-136.944
 20
-17.4102
 11
-136.904
 21
-17.4778
  0
LINE
  8
0
 10
-136.904
 20
-17.4778
 11
-136.868
 21
-17.5478
  0
LINE
  8
0
 10
-136.868
 20
-17.5478
 11
-136.837
 21
-17.6199
  0
LINE
  8
0
 10
-136.837
 20
-17.6199
 11
-136.81
 21
-17.6937
  0
LINE
  8
0
 10
-136.81
 20
-17.6937
 11
-136.788
 21
-17.7691
  0
LINE
  8
0
 10
-136.788
 20
-17.7691
 11
-136.771
 21
-17.8458
  0
LINE
  8
0
 10
-136.771
 20
-17.8458
 11
-136.759
 21
-17.9233
  0
LINE
  8
0
 10
-136.759
 20
-17.9233
 11
-136.751
 21
-18.0015
  0
LINE
  8
0
 10
-136.751
 20
-18.0015
 11
-136.749
 21
-18.08
  0
LINE
  8
0
 10
-136.749
 20
-18.08
 11
-136.751
 21
-18.1585
  0
LINE
  8
0
 10
-136.751
 20
-18.1585
 11
-136.759
 21
-18.2367
  0
LINE
  8
0
 10
-136.759
 20
-18.2367
 11
-136.771
 21
-18.3142
  0
LINE
  8
0
 10
-136.771
 20
-18.3142
 11
-136.788
 21
-18.3909
  0
LINE
  8
0
 10
-136.788
 20
-18.3909
 11
-136.81
 21
-18.4663
  0
LINE
  8
0
 10
-136.81
 20
-18.4663
 11
-136.837
 21
-18.5402
  0
LINE
  8
0
 10
-136.837
 20
-18.5402
 11
-136.868
 21
-18.6122
  0
LINE
  8
0
 10
-136.868
 20
-18.6122
 11
-136.904
 21
-18.6822
  0
LINE
  8
0
 10
-136.904
 20
-18.6822
 11
-136.944
 21
-18.7498
  0
LINE
  8
0
 10
-136.944
 20
-18.7498
 11
-136.988
 21
-18.8147
  0
LINE
  8
0
 10
-136.988
 20
-18.8147
 11
-137.036
 21
-18.8768
  0
LINE
  8
0
 10
-137.036
 20
-18.8768
 11
-137.088
 21
-18.9357
  0
LINE
  8
0
 10
-137.088
 20
-18.9357
 11
-137.143
 21
-18.9912
  0
LINE
  8
0
 10
-137.143
 20
-18.9912
 11
-137.202
 21
-19.0432
  0
LINE
  8
0
 10
-137.202
 20
-19.0432
 11
-137.264
 21
-19.0913
  0
LINE
  8
0
 10
-137.264
 20
-19.0913
 11
-137.329
 21
-19.1354
  0
LINE
  8
0
 10
-137.329
 20
-19.1354
 11
-137.397
 21
-19.1754
  0
LINE
  8
0
 10
-137.397
 20
-19.1754
 11
-137.467
 21
-19.211
  0
LINE
  8
0
 10
-137.467
 20
-19.211
 11
-137.539
 21
-19.2422
  0
LINE
  8
0
 10
-137.539
 20
-19.2422
 11
-137.613
 21
-19.2688
  0
LINE
  8
0
 10
-137.613
 20
-19.2688
 11
-137.688
 21
-19.2907
  0
LINE
  8
0
 10
-137.688
 20
-19.2907
 11
-137.765
 21
-19.3079
  0
LINE
  8
0
 10
-137.765
 20
-19.3079
 11
-137.842
 21
-19.3202
  0
LINE
  8
0
 10
-137.842
 20
-19.3202
 11
-137.92
 21
-19.3275
  0
LINE
  8
0
 10
-137.92
 20
-19.3275
 11
-137.999
 21
-19.33
  0
LINE
  8
0
 10
-137.999
 20
-19.33
 11
-138.077
 21
-19.3275
  0
LINE
  8
0
 10
-37.0242
 20
-25.0896
 11
-37.1806
 21
-25.0748
  0
LINE
  8
0
 10
-37.1806
 20
-25.0748
 11
-37.3357
 21
-25.0503
  0
LINE
  8
0
 10
-37.3357
 20
-25.0503
 11
-37.489
 21
-25.016
  0
LINE
  8
0
 10
-37.489
 20
-25.016
 11
-37.6398
 21
-24.9722
  0
LINE
  8
0
 10
-37.6398
 20
-24.9722
 11
-37.7876
 21
-24.919
  0
LINE
  8
0
 10
-37.7876
 20
-24.919
 11
-37.9317
 21
-24.8566
  0
LINE
  8
0
 10
-37.9317
 20
-24.8566
 11
-38.0716
 21
-24.7853
  0
LINE
  8
0
 10
-38.0716
 20
-24.7853
 11
-38.2068
 21
-24.7054
  0
LINE
  8
0
 10
-38.2068
 20
-24.7054
 11
-38.3367
 21
-24.6171
  0
LINE
  8
0
 10
-38.3367
 20
-24.6171
 11
-38.4608
 21
-24.5208
  0
LINE
  8
0
 10
-38.4608
 20
-24.5208
 11
-38.5786
 21
-24.417
  0
LINE
  8
0
 10
-38.5786
 20
-24.417
 11
-38.6897
 21
-24.3059
  0
LINE
  8
0
 10
-38.6897
 20
-24.3059
 11
-38.7935
 21
-24.1881
  0
LINE
  8
0
 10
-38.7935
 20
-24.1881
 11
-38.8898
 21
-24.064
  0
LINE
  8
0
 10
-38.8898
 20
-24.064
 11
-38.9781
 21
-23.9341
  0
LINE
  8
0
 10
-38.9781
 20
-23.9341
 11
-39.058
 21
-23.7989
  0
LINE
  8
0
 10
-39.058
 20
-23.7989
 11
-39.1293
 21
-23.659
  0
LINE
  8
0
 10
-39.1293
 20
-23.659
 11
-39.1917
 21
-23.5148
  0
LINE
  8
0
 10
-39.1917
 20
-23.5148
 11
-39.2449
 21
-23.3671
  0
LINE
  8
0
 10
-39.2449
 20
-23.3671
 11
-39.2887
 21
-23.2163
  0
LINE
  8
0
 10
-39.2887
 20
-23.2163
 11
-39.323
 21
-23.063
  0
LINE
  8
0
 10
-39.323
 20
-23.063
 11
-39.3475
 21
-22.9079
  0
LINE
  8
0
 10
-39.3475
 20
-22.9079
 11
-39.3623
 21
-22.7515
  0
LINE
  8
0
 10
-39.3623
 20
-22.7515
 11
-39.3672
 21
-22.5945
  0
LINE
  8
0
 10
-39.3672
 20
-22.5945
 11
-39.3623
 21
-22.4376
  0
LINE
  8
0
 10
-39.3623
 20
-22.4376
 11
-39.3475
 21
-22.2812
  0
LINE
  8
0
 10
-39.3475
 20
-22.2812
 11
-39.323
 21
-22.1261
  0
LINE
  8
0
 10
-39.323
 20
-22.1261
 11
-39.2887
 21
-21.9728
  0
LINE
  8
0
 10
-39.2887
 20
-21.9728
 11
-39.2449
 21
-21.822
  0
LINE
  8
0
 10
-39.2449
 20
-21.822
 11
-39.1917
 21
-21.6742
  0
LINE
  8
0
 10
-39.1917
 20
-21.6742
 11
-39.1293
 21
-21.5301
  0
LINE
  8
0
 10
-39.1293
 20
-21.5301
 11
-39.058
 21
-21.3902
  0
LINE
  8
0
 10
-39.058
 20
-21.3902
 11
-38.9781
 21
-21.255
  0
LINE
  8
0
 10
-38.9781
 20
-21.255
 11
-38.8898
 21
-21.1251
  0
LINE
  8
0
 10
-38.8898
 20
-21.1251
 11
-38.7935
 21
-21.001
  0
LINE
  8
0
 10
-38.7935
 20
-21.001
 11
-38.6897
 21
-20.8832
  0
LINE
  8
0
 10
-38.6897
 20
-20.8832
 11
-38.5786
 21
-20.7721
  0
LINE
  8
0
 10
-38.5786
 20
-20.7721
 11
-38.4608
 21
-20.6683
  0
LINE
  8
0
 10
-38.4608
 20
-20.6683
 11
-38.3367
 21
-20.572
  0
LINE
  8
0
 10
-38.3367
 20
-20.572
 11
-38.2068
 21
-20.4837
  0
LINE
  8
0
 10
-38.2068
 20
-20.4837
 11
-38.0716
 21
-20.4038
  0
LINE
  8
0
 10
-38.0716
 20
-20.4038
 11
-37.9317
 21
-20.3325
  0
LINE
  8
0
 10
-37.9317
 20
-20.3325
 11
-37.7876
 21
-20.2701
  0
LINE
  8
0
 10
-37.7876
 20
-20.2701
 11
-37.6398
 21
-20.2169
  0
LINE
  8
0
 10
-37.6398
 20
-20.2169
 11
-37.489
 21
-20.1731
  0
LINE
  8
0
 10
-37.489
 20
-20.1731
 11
-37.3357
 21
-20.1388
  0
LINE
  8
0
 10
-37.3357
 20
-20.1388
 11
-37.1806
 21
-20.1143
  0
LINE
  8
0
 10
-37.1806
 20
-20.1143
 11
-37.0242
 21
-20.0995
  0
LINE
  8
0
 10
-37.0242
 20
-20.0995
 11
-36.8672
 21
-20.0945
  0
LINE
  8
0
 10
-36.8672
 20
-20.0945
 11
-36.7103
 21
-20.0995
  0
LINE
  8
0
 10
-36.7103
 20
-20.0995
 11
-36.5539
 21
-20.1143
  0
LINE
  8
0
 10
-36.5539
 20
-20.1143
 11
-36.3988
 21
-20.1388
  0
LINE
  8
0
 10
-36.3988
 20
-20.1388
 11
-36.2455
 21
-20.1731
  0
LINE
  8
0
 10
-36.2455
 20
-20.1731
 11
-36.0947
 21
-20.2169
  0
LINE
  8
0
 10
-36.0947
 20
-20.2169
 11
-35.9469
 21
-20.2701
  0
LINE
  8
0
 10
-35.9469
 20
-20.2701
 11
-35.8028
 21
-20.3325
  0
LINE
  8
0
 10
-35.8028
 20
-20.3325
 11
-35.6629
 21
-20.4038
  0
LINE
  8
0
 10
-35.6629
 20
-20.4038
 11
-35.5277
 21
-20.4837
  0
LINE
  8
0
 10
-35.5277
 20
-20.4837
 11
-35.3978
 21
-20.572
  0
LINE
  8
0
 10
-35.3978
 20
-20.572
 11
-35.2737
 21
-20.6683
  0
LINE
  8
0
 10
-35.2737
 20
-20.6683
 11
-35.1559
 21
-20.7721
  0
LINE
  8
0
 10
-35.1559
 20
-20.7721
 11
-35.0448
 21
-20.8832
  0
LINE
  8
0
 10
-35.0448
 20
-20.8832
 11
-34.941
 21
-21.001
  0
LINE
  8
0
 10
-34.941
 20
-21.001
 11
-34.8447
 21
-21.1251
  0
LINE
  8
0
 10
-34.8447
 20
-21.1251
 11
-34.7564
 21
-21.255
  0
LINE
  8
0
 10
-34.7564
 20
-21.255
 11
-34.6765
 21
-21.3902
  0
LINE
  8
0
 10
-34.6765
 20
-21.3902
 11
-34.6052
 21
-21.5301
  0
LINE
  8
0
 10
-34.6052
 20
-21.5301
 11
-34.5428
 21
-21.6742
  0
LINE
  8
0
 10
-34.5428
 20
-21.6742
 11
-34.4896
 21
-21.822
  0
LINE
  8
0
 10
-34.4896
 20
-21.822
 11
-34.4458
 21
-21.9728
  0
LINE
  8
0
 10
-34.4458
 20
-21.9728
 11
-34.4115
 21
-22.1261
  0
LINE
  8
0
 10
-34.4115
 20
-22.1261
 11
-34.387
 21
-22.2812
  0
LINE
  8
0
 10
-34.387
 20
-22.2812
 11
-34.3722
 21
-22.4376
  0
LINE
  8
0
 10
-34.3722
 20
-22.4376
 11
-34.3672
 21
-22.5945
  0
LINE
  8
0
 10
-34.3672
 20
-22.5945
 11
-34.3722
 21
-22.7515
  0
LINE
  8
0
 10
-34.3722
 20
-22.7515
 11
-34.387
 21
-22.9079
  0
LINE
  8
0
 10
-34.387
 20
-22.9079
 11
-34.4115
 21
-23.063
  0
LINE
  8
0
 10
-34.4115
 20
-23.063
 11
-34.4458
 21
-23.2163
  0
LINE
  8
0
 10
-34.4458
 20
-23.2163
 11
-34.4896
 21
-23.3671
  0
LINE
  8
0
 10
-34.4896
 20
-23.3671
 11
-34.5428
 21
-23.5148
  0
LINE
  8
0
 10
-34.5428
 20
-23.5148
 11
-34.6052
 21
-23.659
  0
LINE
  8
0
 10
-34.6052
 20
-23.659
 11
-34.6765
 21
-23.7989
  0
LINE
  8
0
 10
-34.6765
 20
-23.7989
 11
-34.7564
 21
-23.9341
  0
LINE
  8
0
 10
-34.7564
 20
-23.9341
 11
-34.8447
 21
-24.064
  0
LINE
  8
0
 10
-34.8447
 20
-24.064
 11
-34.941
 21
-24.1881
  0
LINE
  8
0
 10
-34.941
 20
-24.1881
 11
-35.0448
 21
-24.3059
  0
LINE
  8
0
 10
-35.0448
 20
-24.3059
 11
-35.1559
 21
-24.417
  0
LINE
  8
0
 10
-35.1559
 20
-24.417
 11
-35.2737
 21
-24.5208
  0
LINE
  8
0
 10
-35.2737
 20
-24.5208
 11
-35.3978
 21
-24.6171
  0
LINE
  8
0
 10
-35.3978
 20
-24.6171
 11
-35.5277
 21
-24.7054
  0
LINE
  8
0
 10
-35.5277
 20
-24.7054
 11
-35.6629
 21
-24.7853
  0
LINE
  8
0
 10
-35.6629
 20
-24.7853
 11
-35.8028
 21
-24.8566
  0
LINE
  8
0
 10
-35.8028
 20
-24.8566
 11
-35.9469
 21
-24.919
  0
LINE
  8
0
 10
-35.9469
 20
-24.919
 11
-36.0947
 21
-24.9722
  0
LINE
  8
0
 10
-36.0947
 20
-24.9722
 11
-36.2455
 21
-25.016
  0
LINE
  8
0
 10
-36.2455
 20
-25.016
 11
-36.3988
 21
-25.0503
  0
LINE
  8
0
 10
-36.3988
 20
-25.0503
 11
-36.5539
 21
-25.0748
  0
LINE
  8
0
 10
-36.5539
 20
-25.0748
 11
-36.7103
 21
-25.0896
  0
LINE
  8
0
 10
-36.7103
 20
-25.0896
 11
-36.8672
 21
-25.0945
  0
LINE
  8
0
 10
-36.8672
 20
-25.0945
 11
-37.0242
 21
-25.0896
  0
LINE
  8
0
 10
-80.9679
 20
-35.2474
 11
-81.1242
 21
-35.2326
  0
LINE
  8
0
 10
-81.1242
 20
-35.2326
 11
-81.2793
 21
-35.208
  0
LINE
  8
0
 10
-81.2793
 20
-35.208
 11
-81.4326
 21
-35.1738
  0
LINE
  8
0
 10
-81.4326
 20
-35.1738
 11
-81.5834
 21
-35.13
  0
LINE
  8
0
 10
-81.5834
 20
-35.13
 11
-81.7312
 21
-35.0768
  0
LINE
  8
0
 10
-81.7312
 20
-35.0768
 11
-81.8753
 21
-35.0144
  0
LINE
  8
0
 10
-81.8753
 20
-35.0144
 11
-82.0153
 21
-34.9431
  0
LINE
  8
0
 10
-82.0153
 20
-34.9431
 11
-82.1505
 21
-34.8631
  0
LINE
  8
0
 10
-82.1505
 20
-34.8631
 11
-82.2803
 21
-34.7749
  0
LINE
  8
0
 10
-82.2803
 20
-34.7749
 11
-82.4044
 21
-34.6786
  0
LINE
  8
0
 10
-82.4044
 20
-34.6786
 11
-82.5222
 21
-34.5747
  0
LINE
  8
0
 10
-82.5222
 20
-34.5747
 11
-82.6333
 21
-34.4637
  0
LINE
  8
0
 10
-82.6333
 20
-34.4637
 11
-82.7372
 21
-34.3459
  0
LINE
  8
0
 10
-82.7372
 20
-34.3459
 11
-82.8334
 21
-34.2218
  0
LINE
  8
0
 10
-82.8334
 20
-34.2218
 11
-82.9217
 21
-34.0919
  0
LINE
  8
0
 10
-82.9217
 20
-34.0919
 11
-83.0016
 21
-33.9567
  0
LINE
  8
0
 10
-83.0016
 20
-33.9567
 11
-83.073
 21
-33.8168
  0
LINE
  8
0
 10
-83.073
 20
-33.8168
 11
-83.1353
 21
-33.6726
  0
LINE
  8
0
 10
-83.1353
 20
-33.6726
 11
-83.1885
 21
-33.5249
  0
LINE
  8
0
 10
-83.1885
 20
-33.5249
 11
-83.2323
 21
-33.374
  0
LINE
  8
0
 10
-83.2323
 20
-33.374
 11
-83.2666
 21
-33.2208
  0
LINE
  8
0
 10
-83.2666
 20
-33.2208
 11
-83.2912
 21
-33.0656
  0
LINE
  8
0
 10
-83.2912
 20
-33.0656
 11
-83.306
 21
-32.9093
  0
LINE
  8
0
 10
-83.306
 20
-32.9093
 11
-83.3109
 21
-32.7523
  0
LINE
  8
0
 10
-83.3109
 20
-32.7523
 11
-83.306
 21
-32.5953
  0
LINE
  8
0
 10
-83.306
 20
-32.5953
 11
-83.2912
 21
-32.439
  0
LINE
  8
0
 10
-83.2912
 20
-32.439
 11
-83.2666
 21
-32.2839
  0
LINE
  8
0
 10
-83.2666
 20
-32.2839
 11
-83.2323
 21
-32.1306
  0
LINE
  8
0
 10
-83.2323
 20
-32.1306
 11
-83.1885
 21
-31.9798
  0
LINE
  8
0
 10
-83.1885
 20
-31.9798
 11
-83.1353
 21
-31.832
  0
LINE
  8
0
 10
-83.1353
 20
-31.832
 11
-83.073
 21
-31.6879
  0
LINE
  8
0
 10
-83.073
 20
-31.6879
 11
-83.0016
 21
-31.5479
  0
LINE
  8
0
 10
-83.0016
 20
-31.5479
 11
-82.9217
 21
-31.4128
  0
LINE
  8
0
 10
-82.9217
 20
-31.4128
 11
-82.8334
 21
-31.2829
  0
LINE
  8
0
 10
-82.8334
 20
-31.2829
 11
-82.7372
 21
-31.1588
  0
LINE
  8
0
 10
-82.7372
 20
-31.1588
 11
-82.6333
 21
-31.041
  0
LINE
  8
0
 10
-82.6333
 20
-31.041
 11
-82.5222
 21
-30.9299
  0
LINE
  8
0
 10
-82.5222
 20
-30.9299
 11
-82.4044
 21
-30.826
  0
LINE
  8
0
 10
-82.4044
 20
-30.826
 11
-82.2803
 21
-30.7298
  0
LINE
  8
0
 10
-82.2803
 20
-30.7298
 11
-82.1505
 21
-30.6415
  0
LINE
  8
0
 10
-82.1505
 20
-30.6415
 11
-82.0153
 21
-30.5616
  0
LINE
  8
0
 10
-82.0153
 20
-30.5616
 11
-81.8753
 21
-30.4902
  0
LINE
  8
0
 10
-81.8753
 20
-30.4902
 11
-81.7312
 21
-30.4279
  0
LINE
  8
0
 10
-81.7312
 20
-30.4279
 11
-81.5834
 21
-30.3747
  0
LINE
  8
0
 10
-81.5834
 20
-30.3747
 11
-81.4326
 21
-30.3309
  0
LINE
  8
0
 10
-81.4326
 20
-30.3309
 11
-81.2793
 21
-30.2966
  0
LINE
  8
0
 10
-81.2793
 20
-30.2966
 11
-81.1242
 21
-30.272
  0
LINE
  8
0
 10
-81.1242
 20
-30.272
 11
-80.9679
 21
-30.2572
  0
LINE
  8
0
 10
-80.9679
 20
-30.2572
 11
-80.8109
 21
-30.2523
  0
LINE
  8
0
 10
-80.8109
 20
-30.2523
 11
-80.6539
 21
-30.2572
  0
LINE
  8
0
 10
-80.6539
 20
-30.2572
 11
-80.4975
 21
-30.272
  0
LINE
  8
0
 10
-80.4975
 20
-30.272
 11
-80.3424
 21
-30.2966
  0
LINE
  8
0
 10
-80.3424
 20
-30.2966
 11
-80.1892
 21
-30.3309
  0
LINE
  8
0
 10
-80.1892
 20
-30.3309
 11
-80.0383
 21
-30.3747
  0
LINE
  8
0
 10
-80.0383
 20
-30.3747
 11
-79.8906
 21
-30.4279
  0
LINE
  8
0
 10
-79.8906
 20
-30.4279
 11
-79.7464
 21
-30.4902
  0
LINE
  8
0
 10
-79.7464
 20
-30.4902
 11
-79.6065
 21
-30.5616
  0
LINE
  8
0
 10
-79.6065
 20
-30.5616
 11
-79.4713
 21
-30.6415
  0
LINE
  8
0
 10
-79.4713
 20
-30.6415
 11
-79.3414
 21
-30.7298
  0
LINE
  8
0
 10
-79.3414
 20
-30.7298
 11
-79.2173
 21
-30.826
  0
LINE
  8
0
 10
-79.2173
 20
-30.826
 11
-79.0995
 21
-30.9299
  0
LINE
  8
0
 10
-79.0995
 20
-30.9299
 11
-78.9885
 21
-31.041
  0
LINE
  8
0
 10
-78.9885
 20
-31.041
 11
-78.8846
 21
-31.1588
  0
LINE
  8
0
 10
-78.8846
 20
-31.1588
 11
-78.7883
 21
-31.2829
  0
LINE
  8
0
 10
-78.7883
 20
-31.2829
 11
-78.7001
 21
-31.4128
  0
LINE
  8
0
 10
-78.7001
 20
-31.4128
 11
-78.6201
 21
-31.5479
  0
LINE
  8
0
 10
-78.6201
 20
-31.5479
 11
-78.5488
 21
-31.6879
  0
LINE
  8
0
 10
-78.5488
 20
-31.6879
 11
-78.4864
 21
-31.832
  0
LINE
  8
0
 10
-78.4864
 20
-31.832
 11
-78.4332
 21
-31.9798
  0
LINE
  8
0
 10
-78.4332
 20
-31.9798
 11
-78.3894
 21
-32.1306
  0
LINE
  8
0
 10
-78.3894
 20
-32.1306
 11
-78.3552
 21
-32.2839
  0
LINE
  8
0
 10
-78.3552
 20
-32.2839
 11
-78.3306
 21
-32.439
  0
LINE
  8
0
 10
-78.3306
 20
-32.439
 11
-78.3158
 21
-32.5953
  0
LINE
  8
0
 10
-78.3158
 20
-32.5953
 11
-78.3109
 21
-32.7523
  0
LINE
  8
0
 10
-78.3109
 20
-32.7523
 11
-78.3158
 21
-32.9093
  0
LINE
  8
0
 10
-78.3158
 20
-32.9093
 11
-78.3306
 21
-33.0656
  0
LINE
  8
0
 10
-78.3306
 20
-33.0656
 11
-78.3552
 21
-33.2208
  0
LINE
  8
0
 10
-78.3552
 20
-33.2208
 11
-78.3894
 21
-33.374
  0
LINE
  8
0
 10
-78.3894
 20
-33.374
 11
-78.4332
 21
-33.5249
  0
LINE
  8
0
 10
-78.4332
 20
-33.5249
 11
-78.4864
 21
-33.6726
  0
LINE
  8
0
 10
-78.4864
 20
-33.6726
 11
-78.5488
 21
-33.8168
  0
LINE
  8
0
 10
-78.5488
 20
-33.8168
 11
-78.6201
 21
-33.9567
  0
LINE
  8
0
 10
-78.6201
 20
-33.9567
 11
-78.7001
 21
-34.0919
  0
LINE
  8
0
 10
-78.7001
 20
-34.0919
 11
-78.7883
 21
-34.2218
  0
LINE
  8
0
 10
-78.7883
 20
-34.2218
 11
-78.8846
 21
-34.3459
  0
LINE
  8
0
 10
-78.8846
 20
-34.3459
 11
-78.9885
 21
-34.4637
  0
LINE
  8
0
 10
-78.9885
 20
-34.4637
 11
-79.0995
 21
-34.5747
  0
LINE
  8
0
 10
-79.0995
 20
-34.5747
 11
-79.2173
 21
-34.6786
  0
LINE
  8
0
 10
-79.2173
 20
-34.6786
 11
-79.3414
 21
-34.7749
  0
LINE
  8
0
 10
-79.3414
 20
-34.7749
 11
-79.4713
 21
-34.8631
  0
LINE
  8
0
 10
-79.4713
 20
-34.8631
 11
-79.6065
 21
-34.9431
  0
LINE
  8
0
 10
-79.6065
 20
-34.9431
 11
-79.7464
 21
-35.0144
  0
LINE
  8
0
 10
-79.7464
 20
-35.0144
 11
-79.8906
 21
-35.0768
  0
LINE
  8
0
 10
-79.8906
 20
-35.0768
 11
-80.0383
 21
-35.13
  0
LINE
  8
0
 10
-80.0383
 20
-35.13
 11
-80.1892
 21
-35.1738
  0
LINE
  8
0
 10
-80.1892
 20
-35.1738
 11
-80.3424
 21
-35.208
  0
LINE
  8
0
 10
-80.3424
 20
-35.208
 11
-80.4975
 21
-35.2326
  0
LINE
  8
0
 10
-80.4975
 20
-35.2326
 11
-80.6539
 21
-35.2474
  0
LINE
  8
0
 10
-80.6539
 20
-35.2474
 11
-80.8109
 21
-35.2523
  0
LINE
  8
0
 10
-80.8109
 20
-35.2523
 11
-80.9679
 21
-35.2474
  0
LINE
  8
0
 10
-120.796
 20
-37.9346
 11
-120.953
 21
-37.9198
  0
LINE
  8
0
 10
-120.953
 20
-37.9198
 11
-121.108
 21
-37.8952
  0
LINE
  8
0
 10
-121.108
 20
-37.8952
 11
-121.261
 21
-37.8609
  0
LINE
  8
0
 10
-121.261
 20
-37.8609
 11
-121.412
 21
-37.8171
  0
LINE
  8
0
 10
-121.412
 20
-37.8171
 11
-121.56
 21
-37.7639
  0
LINE
  8
0
 10
-121.56
 20
-37.7639
 11
-121.704
 21
-37.7016
  0
LINE
  8
0
 10
-121.704
 20
-37.7016
 11
-121.844
 21
-37.6302
  0
LINE
  8
0
 10
-121.844
 20
-37.6302
 11
-121.979
 21
-37.5503
  0
LINE
  8
0
 10
-121.979
 20
-37.5503
 11
-122.109
 21
-37.462
  0
LINE
  8
0
 10
-122.109
 20
-37.462
 11
-122.233
 21
-37.3658
  0
LINE
  8
0
 10
-122.233
 20
-37.3658
 11
-122.351
 21
-37.2619
  0
LINE
  8
0
 10
-122.351
 20
-37.2619
 11
-122.462
 21
-37.1508
  0
LINE
  8
0
 10
-122.462
 20
-37.1508
 11
-122.566
 21
-37.033
  0
LINE
  8
0
 10
-122.566
 20
-37.033
 11
-122.662
 21
-36.909
  0
LINE
  8
0
 10
-122.662
 20
-36.909
 11
-122.75
 21
-36.7791
  0
LINE
  8
0
 10
-122.75
 20
-36.7791
 11
-122.83
 21
-36.6439
  0
LINE
  8
0
 10
-122.83
 20
-36.6439
 11
-122.902
 21
-36.5039
  0
LINE
  8
0
 10
-122.902
 20
-36.5039
 11
-122.964
 21
-36.3598
  0
LINE
  8
0
 10
-122.964
 20
-36.3598
 11
-123.017
 21
-36.212
  0
LINE
  8
0
 10
-123.017
 20
-36.212
 11
-123.061
 21
-36.0612
  0
LINE
  8
0
 10
-123.061
 20
-36.0612
 11
-123.095
 21
-35.9079
  0
LINE
  8
0
 10
-123.095
 20
-35.9079
 11
-123.12
 21
-35.7528
  0
LINE
  8
0
 10
-123.12
 20
-35.7528
 11
-123.135
 21
-35.5965
  0
LINE
  8
0
 10
-123.135
 20
-35.5965
 11
-123.139
 21
-35.4395
  0
LINE
  8
0
 10
-123.139
 20
-35.4395
 11
-123.135
 21
-35.2825
  0
LINE
  8
0
 10
-123.135
 20
-35.2825
 11
-123.12
 21
-35.1261
  0
LINE
  8
0
 10
-123.12
 20
-35.1261
 11
-123.095
 21
-34.971
  0
LINE
  8
0
 10
-123.095
 20
-34.971
 11
-123.061
 21
-34.8178
  0
LINE
  8
0
 10
-123.061
 20
-34.8178
 11
-123.017
 21
-34.6669
  0
LINE
  8
0
 10
-123.017
 20
-34.6669
 11
-122.964
 21
-34.5192
  0
LINE
  8
0
 10
-122.964
 20
-34.5192
 11
-122.902
 21
-34.375
  0
LINE
  8
0
 10
-122.902
 20
-34.375
 11
-122.83
 21
-34.2351
  0
LINE
  8
0
 10
-122.83
 20
-34.2351
 11
-122.75
 21
-34.0999
  0
LINE
  8
0
 10
-122.75
 20
-34.0999
 11
-122.662
 21
-33.97
  0
LINE
  8
0
 10
-122.662
 20
-33.97
 11
-122.566
 21
-33.8459
  0
LINE
  8
0
 10
-122.566
 20
-33.8459
 11
-122.462
 21
-33.7281
  0
LINE
  8
0
 10
-122.462
 20
-33.7281
 11
-122.351
 21
-33.6171
  0
LINE
  8
0
 10
-122.351
 20
-33.6171
 11
-122.233
 21
-33.5132
  0
LINE
  8
0
 10
-122.233
 20
-33.5132
 11
-122.109
 21
-33.4169
  0
LINE
  8
0
 10
-122.109
 20
-33.4169
 11
-121.979
 21
-33.3287
  0
LINE
  8
0
 10
-121.979
 20
-33.3287
 11
-121.844
 21
-33.2487
  0
LINE
  8
0
 10
-121.844
 20
-33.2487
 11
-121.704
 21
-33.1774
  0
LINE
  8
0
 10
-121.704
 20
-33.1774
 11
-121.56
 21
-33.115
  0
LINE
  8
0
 10
-121.56
 20
-33.115
 11
-121.412
 21
-33.0618
  0
LINE
  8
0
 10
-121.412
 20
-33.0618
 11
-121.261
 21
-33.018
  0
LINE
  8
0
 10
-121.261
 20
-33.018
 11
-121.108
 21
-32.9838
  0
LINE
  8
0
 10
-121.108
 20
-32.9838
 11
-120.953
 21
-32.9592
  0
LINE
  8
0
 10
-120.953
 20
-32.9592
 11
-120.796
 21
-32.9444
  0
LINE
  8
0
 10
-120.796
 20
-32.9444
 11
-120.639
 21
-32.9395
  0
LINE
  8
0
 10
-120.639
 20
-32.9395
 11
-120.482
 21
-32.9444
  0
LINE
  8
0
 10
-120.482
 20
-32.9444
 11
-120.326
 21
-32.9592
  0
LINE
  8
0
 10
-120.326
 20
-32.9592
 11
-120.171
 21
-32.9838
  0
LINE
  8
0
 10
-120.171
 20
-32.9838
 11
-120.018
 21
-33.018
  0
LINE
  8
0
 10
-120.018
 20
-33.018
 11
-119.867
 21
-33.0618
  0
LINE
  8
0
 10
-119.867
 20
-33.0618
 11
-119.719
 21
-33.115
  0
LINE
  8
0
 10
-119.719
 20
-33.115
 11
-119.575
 21
-33.1774
  0
LINE
  8
0
 10
-119.575
 20
-33.1774
 11
-119.435
 21
-33.2487
  0
LINE
  8
0
 10
-119.435
 20
-33.2487
 11
-119.3
 21
-33.3287
  0
LINE
  8
0
 10
-119.3
 20
-33.3287
 11
-119.17
 21
-33.4169
  0
LINE
  8
0
 10
-119.17
 20
-33.4169
 11
-119.046
 21
-33.5132
  0
LINE
  8
0
 10
-119.046
 20
-33.5132
 11
-118.928
 21
-33.6171
  0
LINE
  8
0
 10
-118.928
 20
-33.6171
 11
-118.817
 21
-33.7281
  0
LINE
  8
0
 10
-118.817
 20
-33.7281
 11
-118.713
 21
-33.8459
  0
LINE
  8
0
 10
-118.713
 20
-33.8459
 11
-118.617
 21
-33.97
  0
LINE
  8
0
 10
-118.617
 20
-33.97
 11
-118.529
 21
-34.0999
  0
LINE
  8
0
 10
-118.529
 20
-34.0999
 11
-118.449
 21
-34.2351
  0
LINE
  8
0
 10
-118.449
 20
-34.2351
 11
-118.377
 21
-34.375
  0
LINE
  8
0
 10
-118.377
 20
-34.375
 11
-118.315
 21
-34.5192
  0
LINE
  8
0
 10
-118.315
 20
-34.5192
 11
-118.262
 21
-34.6669
  0
LINE
  8
0
 10
-118.262
 20
-34.6669
 11
-118.218
 21
-34.8178
  0
LINE
  8
0
 10
-118.218
 20
-34.8178
 11
-118.184
 21
-34.971
  0
LINE
  8
0
 10
-118.184
 20
-34.971
 11
-118.159
 21
-35.1261
  0
LINE
  8
0
 10
-118.159
 20
-35.1261
 11
-118.144
 21
-35.2825
  0
LINE
  8
0
 10
-118.144
 20
-35.2825
 11
-118.139
 21
-35.4395
  0
LINE
  8
0
 10
-118.139
 20
-35.4395
 11
-118.144
 21
-35.5965
  0
LINE
  8
0
 10
-118.144
 20
-35.5965
 11
-118.159
 21
-35.7528
  0
LINE
  8
0
 10
-118.159
 20
-35.7528
 11
-118.184
 21
-35.9079
  0
LINE
  8
0
 10
-118.184
 20
-35.9079
 11
-118.218
 21
-36.0612
  0
LINE
  8
0
 10
-118.218
 20
-36.0612
 11
-118.262
 21
-36.212
  0
LINE
  8
0
 10
-118.262
 20
-36.212
 11
-118.315
 21
-36.3598
  0
LINE
  8
0
 10
-118.315
 20
-36.3598
 11
-118.377
 21
-36.5039
  0
LINE
  8
0
 10
-118.377
 20
-36.5039
 11
-118.449
 21
-36.6439
  0
LINE
  8
0
 10
-118.449
 20
-36.6439
 11
-118.529
 21
-36.7791
  0
LINE
  8
0
 10
-118.529
 20
-36.7791
 11
-118.617
 21
-36.909
  0
LINE
  8
0
 10
-118.617
 20
-36.909
 11
-118.713
 21
-37.033
  0
LINE
  8
0
 10
-118.713
 20
-37.033
 11
-118.817
 21
-37.1508
  0
LINE
  8
0
 10
-118.817
 20
-37.1508
 11
-118.928
 21
-37.2619
  0
LINE
  8
0
 10
-118.928
 20
-37.2619
 11
-119.046
 21
-37.3658
  0
LINE
  8
0
 10
-119.046
 20
-37.3658
 11
-119.17
 21
-37.462
  0
LINE
  8
0
 10
-119.17
 20
-37.462
 11
-119.3
 21
-37.5503
  0
LINE
  8
0
 10
-119.3
 20
-37.5503
 11
-119.435
 21
-37.6302
  0
LINE
  8
0
 10
-119.435
 20
-37.6302
 11
-119.575
 21
-37.7016
  0
LINE
  8
0
 10
-119.575
 20
-37.7016
 11
-119.719
 21
-37.7639
  0
LINE
  8
0
 10
-119.719
 20
-37.7639
 11
-119.867
 21
-37.8171
  0
LINE
  8
0
 10
-119.867
 20
-37.8171
 11
-120.018
 21
-37.8609
  0
LINE
  8
0
 10
-120.018
 20
-37.8609
 11
-120.171
 21
-37.8952
  0
LINE
  8
0
 10
-120.171
 20
-37.8952
 11
-120.326
 21
-37.9198
  0
LINE
  8
0
 10
-120.326
 20
-37.9198
 11
-120.482
 21
-37.9346
  0
LINE
  8
0
 10
-120.482
 20
-37.9346
 11
-120.639
 21
-37.9395
  0
LINE
  8
0
 10
-120.639
 20
-37.9395
 11
-120.796
 21
-37.9346
  0
LINE
  8
0
 10
-103.358
 20
-54.0465
 11
-103.437
 21
-54.0391
  0
LINE
  8
0
 10
-103.437
 20
-54.0391
 11
-103.514
 21
-54.0268
  0
LINE
  8
0
 10
-103.514
 20
-54.0268
 11
-103.591
 21
-54.0097
  0
LINE
  8
0
 10
-103.591
 20
-54.0097
 11
-103.666
 21
-53.9878
  0
LINE
  8
0
 10
-103.666
 20
-53.9878
 11
-103.74
 21
-53.9612
  0
LINE
  8
0
 10
-103.74
 20
-53.9612
 11
-103.812
 21
-53.93
  0
LINE
  8
0
 10
-103.812
 20
-53.93
 11
-103.882
 21
-53.8943
  0
LINE
  8
0
 10
-103.882
 20
-53.8943
 11
-103.95
 21
-53.8544
  0
LINE
  8
0
 10
-103.95
 20
-53.8544
 11
-104.015
 21
-53.8102
  0
LINE
  8
0
 10
-104.015
 20
-53.8102
 11
-104.077
 21
-53.7621
  0
LINE
  8
0
 10
-104.077
 20
-53.7621
 11
-104.136
 21
-53.7102
  0
LINE
  8
0
 10
-104.136
 20
-53.7102
 11
-104.191
 21
-53.6546
  0
LINE
  8
0
 10
-104.191
 20
-53.6546
 11
-104.243
 21
-53.5957
  0
LINE
  8
0
 10
-104.243
 20
-53.5957
 11
-104.291
 21
-53.5337
  0
LINE
  8
0
 10
-104.291
 20
-53.5337
 11
-104.335
 21
-53.4687
  0
LINE
  8
0
 10
-104.335
 20
-53.4687
 11
-104.375
 21
-53.4011
  0
LINE
  8
0
 10
-104.375
 20
-53.4011
 11
-104.411
 21
-53.3312
  0
LINE
  8
0
 10
-104.411
 20
-53.3312
 11
-104.442
 21
-53.2591
  0
LINE
  8
0
 10
-104.442
 20
-53.2591
 11
-104.469
 21
-53.1852
  0
LINE
  8
0
 10
-104.469
 20
-53.1852
 11
-104.491
 21
-53.1098
  0
LINE
  8
0
 10
-104.491
 20
-53.1098
 11
-104.508
 21
-53.0332
  0
LINE
  8
0
 10
-104.508
 20
-53.0332
 11
-104.52
 21
-52.9556
  0
LINE
  8
0
 10
-104.52
 20
-52.9556
 11
-104.528
 21
-52.8774
  0
LINE
  8
0
 10
-104.528
 20
-52.8774
 11
-104.53
 21
-52.799
  0
LINE
  8
0
 10
-104.53
 20
-52.799
 11
-104.528
 21
-52.7205
  0
LINE
  8
0
 10
-104.528
 20
-52.7205
 11
-104.52
 21
-52.6423
  0
LINE
  8
0
 10
-104.52
 20
-52.6423
 11
-104.508
 21
-52.5647
  0
LINE
  8
0
 10
-104.508
 20
-52.5647
 11
-104.491
 21
-52.4881
  0
LINE
  8
0
 10
-104.491
 20
-52.4881
 11
-104.469
 21
-52.4127
  0
LINE
  8
0
 10
-104.469
 20
-52.4127
 11
-104.442
 21
-52.3388
  0
LINE
  8
0
 10
-104.442
 20
-52.3388
 11
-104.411
 21
-52.2667
  0
LINE
  8
0
 10
-104.411
 20
-52.2667
 11
-104.375
 21
-52.1968
  0
LINE
  8
0
 10
-104.375
 20
-52.1968
 11
-104.335
 21
-52.1292
  0
LINE
  8
0
 10
-104.335
 20
-52.1292
 11
-104.291
 21
-52.0642
  0
LINE
  8
0
 10
-104.291
 20
-52.0642
 11
-104.243
 21
-52.0022
  0
LINE
  8
0
 10
-104.243
 20
-52.0022
 11
-104.191
 21
-51.9433
  0
LINE
  8
0
 10
-104.191
 20
-51.9433
 11
-104.136
 21
-51.8877
  0
LINE
  8
0
 10
-104.136
 20
-51.8877
 11
-104.077
 21
-51.8358
  0
LINE
  8
0
 10
-104.077
 20
-51.8358
 11
-104.015
 21
-51.7877
  0
LINE
  8
0
 10
-104.015
 20
-51.7877
 11
-103.95
 21
-51.7435
  0
LINE
  8
0
 10
-103.95
 20
-51.7435
 11
-103.882
 21
-51.7036
  0
LINE
  8
0
 10
-103.882
 20
-51.7036
 11
-103.812
 21
-51.6679
  0
LINE
  8
0
 10
-103.812
 20
-51.6679
 11
-103.74
 21
-51.6367
  0
LINE
  8
0
 10
-103.74
 20
-51.6367
 11
-103.666
 21
-51.6101
  0
LINE
  8
0
 10
-103.666
 20
-51.6101
 11
-103.591
 21
-51.5882
  0
LINE
  8
0
 10
-103.591
 20
-51.5882
 11
-103.514
 21
-51.5711
  0
LINE
  8
0
 10
-103.514
 20
-51.5711
 11
-103.437
 21
-51.5588
  0
LINE
  8
0
 10
-103.437
 20
-51.5588
 11
-103.358
 21
-51.5514
  0
LINE
  8
0
 10
-103.358
 20
-51.5514
 11
-103.28
 21
-51.549
  0
LINE
  8
0
 10
-103.28
 20
-51.549
 11
-103.202
 21
-51.5514
  0
LINE
  8
0
 10
-103.202
 20
-51.5514
 11
-103.123
 21
-51.5588
  0
LINE
  8
0
 10
-103.123
 20
-51.5588
 11
-103.046
 21
-51.5711
  0
LINE
  8
0
 10
-103.046
 20
-51.5711
 11
-102.969
 21
-51.5882
  0
LINE
  8
0
 10
-102.969
 20
-51.5882
 11
-102.894
 21
-51.6101
  0
LINE
  8
0
 10
-102.894
 20
-51.6101
 11
-102.82
 21
-51.6367
  0
LINE
  8
0
 10
-102.82
 20
-51.6367
 11
-102.748
 21
-51.6679
  0
LINE
  8
0
 10
-102.748
 20
-51.6679
 11
-102.678
 21
-51.7036
  0
LINE
  8
0
 10
-102.678
 20
-51.7036
 11
-102.61
 21
-51.7435
  0
LINE
  8
0
 10
-102.61
 20
-51.7435
 11
-102.545
 21
-51.7877
  0
LINE
  8
0
 10
-102.545
 20
-51.7877
 11
-102.483
 21
-51.8358
  0
LINE
  8
0
 10
-102.483
 20
-51.8358
 11
-102.424
 21
-51.8877
  0
LINE
  8
0
 10
-102.424
 20
-51.8877
 11
-102.369
 21
-51.9433
  0
LINE
  8
0
 10
-102.369
 20
-51.9433
 11
-102.317
 21
-52.0022
  0
LINE
  8
0
 10
-102.317
 20
-52.0022
 11
-102.269
 21
-52.0642
  0
LINE
  8
0
 10
-102.269
 20
-52.0642
 11
-102.225
 21
-52.1292
  0
LINE
  8
0
 10
-102.225
 20
-52.1292
 11
-102.185
 21
-52.1968
  0
LINE
  8
0
 10
-102.185
 20
-52.1968
 11
-102.149
 21
-52.2667
  0
LINE
  8
0
 10
-102.149
 20
-52.2667
 11
-102.118
 21
-52.3388
  0
LINE
  8
0
 10
-102.118
 20
-52.3388
 11
-102.091
 21
-52.4127
  0
LINE
  8
0
 10
-102.091
 20
-52.4127
 11
-102.069
 21
-52.4881
  0
LINE
  8
0
 10
-102.069
 20
-52.4881
 11
-102.052
 21
-52.5647
  0
LINE
  8
0
 10
-102.052
 20
-52.5647
 11
-102.04
 21
-52.6423
  0
LINE
  8
0
 10
-102.04
 20
-52.6423
 11
-102.032
 21
-52.7205
  0
LINE
  8
0
 10
-102.032
 20
-52.7205
 11
-102.03
 21
-52.799
  0
LINE
  8
0
 10
-102.03
 20
-52.799
 11
-102.032
 21
-52.8774
  0
LINE
  8
0
 10
-102.032
 20
-52.8774
 11
-102.04
 21
-52.9556
  0
LINE
  8
0
 10
-102.04
 20
-52.9556
 11
-102.052
 21
-53.0332
  0
LINE
  8
0
 10
-102.052
 20
-53.0332
 11
-102.069
 21
-53.1098
  0
LINE
  8
0
 10
-102.069
 20
-53.1098
 11
-102.091
 21
-53.1852
  0
LINE
  8
0
 10
-102.091
 20
-53.1852
 11
-102.118
 21
-53.2591
  0
LINE
  8
0
 10
-102.118
 20
-53.2591
 11
-102.149
 21
-53.3312
  0
LINE
  8
0
 10
-102.149
 20
-53.3312
 11
-102.185
 21
-53.4011
  0
LINE
  8
0
 10
-102.185
 20
-53.4011
 11
-102.225
 21
-53.4687
  0
LINE
  8
0
 10
-102.225
 20
-53.4687
 11
-102.269
 21
-53.5337
  0
LINE
  8
0
 10
-102.269
 20
-53.5337
 11
-102.317
 21
-53.5957
  0
LINE
  8
0
 10
-102.317
 20
-53.5957
 11
-102.369
 21
-53.6546
  0
LINE
  8
0
 10
-102.369
 20
-53.6546
 11
-102.424
 21
-53.7102
  0
LINE
  8
0
 10
-102.424
 20
-53.7102
 11
-102.483
 21
-53.7621
  0
LINE
  8
0
 10
-102.483
 20
-53.7621
 11
-102.545
 21
-53.8102
  0
LINE
  8
0
 10
-102.545
 20
-53.8102
 11
-102.61
 21
-53.8544
  0
LINE
  8
0
 10
-102.61
 20
-53.8544
 11
-102.678
 21
-53.8943
  0
LINE
  8
0
 10
-102.678
 20
-53.8943
 11
-102.748
 21
-53.93
  0
LINE
  8
0
 10
-102.748
 20
-53.93
 11
-102.82
 21
-53.9612
  0
LINE
  8
0
 10
-102.82
 20
-53.9612
 11
-102.894
 21
-53.9878
  0
LINE
  8
0
 10
-102.894
 20
-53.9878
 11
-102.969
 21
-54.0097
  0
LINE
  8
0
 10
-102.969
 20
-54.0097
 11
-103.046
 21
-54.0268
  0
LINE
  8
0
 10
-103.046
 20
-54.0268
 11
-103.123
 21
-54.0391
  0
LINE
  8
0
 10
-103.123
 20
-54.0391
 11
-103.202
 21
-54.0465
  0
LINE
  8
0
 10
-103.202
 20
-54.0465
 11
-103.28
 21
-54.049
  0
LINE
  8
0
 10
-103.28
 20
-54.049
 11
-103.358
 21
-54.0465
  0
ENDSEC
  0
SECTION
  2
OBJECTS
  0
DICTIONARY
  0
ENDSEC
  0
EOF
