  0
SECTION
  2
BLOCKS
  0
ENDSEC
  0
SECTION
  2
ENTITIES
  0
LINE
  8
0
 10
-103.092
 20
-56.9114
 11
-102.967
 21
-56.8956
  0
LINE
  8
0
 10
-102.967
 20
-56.8956
 11
-102.844
 21
-56.8721
  0
LINE
  8
0
 10
-102.844
 20
-56.8721
 11
-102.722
 21
-56.8409
  0
LINE
  8
0
 10
-102.722
 20
-56.8409
 11
-102.603
 21
-56.802
  0
LINE
  8
0
 10
-102.603
 20
-56.802
 11
-102.486
 21
-56.7558
  0
LINE
  8
0
 10
-102.486
 20
-56.7558
 11
-102.372
 21
-56.7023
  0
LINE
  8
0
 10
-102.372
 20
-56.7023
 11
-102.262
 21
-56.6418
  0
LINE
  8
0
 10
-102.262
 20
-56.6418
 11
-102.156
 21
-56.5744
  0
LINE
  8
0
 10
-102.156
 20
-56.5744
 11
-102.054
 21
-56.5006
  0
LINE
  8
0
 10
-102.054
 20
-56.5006
 11
-101.957
 21
-56.4205
  0
LINE
  8
0
 10
-101.957
 20
-56.4205
 11
-101.866
 21
-56.3345
  0
LINE
  8
0
 10
-101.866
 20
-56.3345
 11
-90.2695
 21
-44.7382
  0
LINE
  8
0
 10
-90.2695
 20
-44.7382
 11
-87.2774
 21
-41.9284
  0
LINE
  8
0
 10
-87.2774
 20
-41.9284
 11
-84.2107
 21
-39.3915
  0
LINE
  8
0
 10
-84.2107
 20
-39.3915
 11
-80.9917
 21
-37.0527
  0
LINE
  8
0
 10
-80.9917
 20
-37.0527
 11
-77.6317
 21
-34.9204
  0
LINE
  8
0
 10
-77.6317
 20
-34.9204
 11
-74.1442
 21
-33.0031
  0
LINE
  8
0
 10
-74.1442
 20
-33.0031
 11
-70.5437
 21
-31.3088
  0
LINE
  8
0
 10
-70.5437
 20
-31.3088
 11
-66.8436
 21
-29.8439
  0
LINE
  8
0
 10
-66.8436
 20
-29.8439
 11
-63.059
 21
-28.6142
  0
LINE
  8
0
 10
-63.059
 20
-28.6142
 11
-59.2043
 21
-27.6245
  0
LINE
  8
0
 10
-59.2043
 20
-27.6245
 11
-55.2955
 21
-26.8788
  0
LINE
  8
0
 10
-55.2955
 20
-26.8788
 11
-51.3475
 21
-26.3801
  0
LINE
  8
0
 10
-51.3475
 20
-26.3801
 11
-47.3759
 21
-26.1302
  0
LINE
  8
0
 10
-47.3759
 20
-26.1302
 11
-44.2771
 21
-26.1302
  0
LINE
  8
0
 10
-44.2771
 20
-26.1302
 11
-44.1516
 21
-26.1263
  0
LINE
  8
0
 10
-44.1516
 20
-26.1263
 11
-44.0265
 21
-26.1144
  0
LINE
  8
0
 10
-44.0265
 20
-26.1144
 11
-43.9037
 21
-26.095
  0
LINE
  8
0
 10
-43.9037
 20
-26.095
 11
-9.81099
 21
-26.095
  0
LINE
  8
0
 10
-9.81099
 20
-26.095
 11
-9.68541
 21
-26.091
  0
LINE
  8
0
 10
-9.68541
 20
-26.091
 11
-9.56032
 21
-26.0792
  0
LINE
  8
0
 10
-9.56032
 20
-26.0792
 11
-9.43623
 21
-26.0596
  0
LINE
  8
0
 10
-9.43623
 20
-26.0596
 11
-9.31361
 21
-26.0322
  0
LINE
  8
0
 10
-9.31361
 20
-26.0322
 11
-9.19296
 21
-25.9971
  0
LINE
  8
0
 10
-9.19296
 20
-25.9971
 11
-9.07474
 21
-25.9545
  0
LINE
  8
0
 10
-9.07474
 20
-25.9545
 11
-8.95943
 21
-25.9046
  0
LINE
  8
0
 10
-8.95943
 20
-25.9046
 11
-8.84749
 21
-25.8476
  0
LINE
  8
0
 10
-8.84749
 20
-25.8476
 11
-8.73933
 21
-25.7836
  0
LINE
  8
0
 10
-8.73933
 20
-25.7836
 11
-8.63542
 21
-25.713
  0
LINE
  8
0
 10
-8.63542
 20
-25.713
 11
-8.53615
 21
-25.636
  0
LINE
  8
0
 10
-8.53615
 20
-25.636
 11
-8.44189
 21
-25.5529
  0
LINE
  8
0
 10
-8.44189
 20
-25.5529
 11
-8.35306
 21
-25.4641
  0
LINE
  8
0
 10
-8.35306
 20
-25.4641
 11
-8.26996
 21
-25.3698
  0
LINE
  8
0
 10
-8.26996
 20
-25.3698
 11
-8.19296
 21
-25.2706
  0
LINE
  8
0
 10
-8.19296
 20
-25.2706
 11
-8.12233
 21
-25.1666
  0
LINE
  8
0
 10
-8.12233
 20
-25.1666
 11
-8.05838
 21
-25.0585
  0
LINE
  8
0
 10
-8.05838
 20
-25.0585
 11
-8.00134
 21
-24.9465
  0
LINE
  8
0
 10
-8.00134
 20
-24.9465
 11
-7.95143
 21
-24.8312
  0
LINE
  8
0
 10
-7.95143
 20
-24.8312
 11
-7.90887
 21
-24.713
  0
LINE
  8
0
 10
-7.90887
 20
-24.713
 11
-7.87383
 21
-24.5924
  0
LINE
  8
0
 10
-7.87383
 20
-24.5924
 11
-7.84642
 21
-24.4697
  0
LINE
  8
0
 10
-7.84642
 20
-24.4697
 11
-7.82677
 21
-24.3457
  0
LINE
  8
0
 10
-7.82677
 20
-24.3457
 11
-7.81494
 21
-24.2206
  0
LINE
  8
0
 10
-7.81494
 20
-24.2206
 11
-7.81099
 21
-24.095
  0
LINE
  8
0
 10
-7.81099
 20
-24.095
 11
-7.81099
 21
-18.525
  0
LINE
  8
0
 10
-7.81099
 20
-18.525
 11
14.65
 21
-18.525
  0
LINE
  8
0
 10
14.65
 20
-18.525
 11
14.7756
 21
-18.521
  0
LINE
  8
0
 10
14.7756
 20
-18.521
 11
14.9007
 21
-18.5092
  0
LINE
  8
0
 10
14.9007
 20
-18.5092
 11
15.0247
 21
-18.4896
  0
LINE
  8
0
 10
15.0247
 20
-18.4896
 11
15.1474
 21
-18.4622
  0
LINE
  8
0
 10
15.1474
 20
-18.4622
 11
15.268
 21
-18.4271
  0
LINE
  8
0
 10
15.268
 20
-18.4271
 11
15.3862
 21
-18.3846
  0
LINE
  8
0
 10
15.3862
 20
-18.3846
 11
15.5016
 21
-18.3346
  0
LINE
  8
0
 10
15.5016
 20
-18.3346
 11
15.6135
 21
-18.2776
  0
LINE
  8
0
 10
15.6135
 20
-18.2776
 11
15.7216
 21
-18.2137
  0
LINE
  8
0
 10
15.7216
 20
-18.2137
 11
15.8256
 21
-18.143
  0
LINE
  8
0
 10
15.8256
 20
-18.143
 11
15.9248
 21
-18.066
  0
LINE
  8
0
 10
15.9248
 20
-18.066
 11
16.0191
 21
-17.9829
  0
LINE
  8
0
 10
16.0191
 20
-17.9829
 11
16.1079
 21
-17.8941
  0
LINE
  8
0
 10
16.1079
 20
-17.8941
 11
16.191
 21
-17.7998
  0
LINE
  8
0
 10
16.191
 20
-17.7998
 11
16.268
 21
-17.7006
  0
LINE
  8
0
 10
16.268
 20
-17.7006
 11
16.3387
 21
-17.5966
  0
LINE
  8
0
 10
16.3387
 20
-17.5966
 11
16.4026
 21
-17.4885
  0
LINE
  8
0
 10
16.4026
 20
-17.4885
 11
16.4596
 21
-17.3766
  0
LINE
  8
0
 10
16.4596
 20
-17.3766
 11
16.5096
 21
-17.2612
  0
LINE
  8
0
 10
16.5096
 20
-17.2612
 11
16.5521
 21
-17.143
  0
LINE
  8
0
 10
16.5521
 20
-17.143
 11
16.5872
 21
-17.0224
  0
LINE
  8
0
 10
16.5872
 20
-17.0224
 11
16.6146
 21
-16.8997
  0
LINE
  8
0
 10
16.6146
 20
-16.8997
 11
16.6342
 21
-16.7757
  0
LINE
  8
0
 10
16.6342
 20
-16.7757
 11
16.646
 21
-16.6506
  0
LINE
  8
0
 10
16.646
 20
-16.6506
 11
16.65
 21
-16.525
  0
LINE
  8
0
 10
16.65
 20
-16.525
 11
16.65
 21
62.2139
  0
LINE
  8
0
 10
16.65
 20
62.2139
 11
16.646
 21
62.3395
  0
LINE
  8
0
 10
16.646
 20
62.3395
 11
16.6342
 21
62.4646
  0
LINE
  8
0
 10
16.6342
 20
62.4646
 11
16.6146
 21
62.5887
  0
LINE
  8
0
 10
16.6146
 20
62.5887
 11
16.5872
 21
62.7113
  0
LINE
  8
0
 10
16.5872
 20
62.7113
 11
16.5521
 21
62.8319
  0
LINE
  8
0
 10
16.5521
 20
62.8319
 11
16.5096
 21
62.9501
  0
LINE
  8
0
 10
16.5096
 20
62.9501
 11
16.4596
 21
63.0655
  0
LINE
  8
0
 10
16.4596
 20
63.0655
 11
16.4026
 21
63.1774
  0
LINE
  8
0
 10
16.4026
 20
63.1774
 11
16.3387
 21
63.2856
  0
LINE
  8
0
 10
16.3387
 20
63.2856
 11
16.268
 21
63.3895
  0
LINE
  8
0
 10
16.268
 20
63.3895
 11
16.191
 21
63.4887
  0
LINE
  8
0
 10
16.191
 20
63.4887
 11
16.1079
 21
63.583
  0
LINE
  8
0
 10
16.1079
 20
63.583
 11
16.0191
 21
63.6718
  0
LINE
  8
0
 10
16.0191
 20
63.6718
 11
15.9248
 21
63.7549
  0
LINE
  8
0
 10
15.9248
 20
63.7549
 11
15.8256
 21
63.8319
  0
LINE
  8
0
 10
15.8256
 20
63.8319
 11
15.7216
 21
63.9026
  0
LINE
  8
0
 10
15.7216
 20
63.9026
 11
15.6135
 21
63.9665
  0
LINE
  8
0
 10
15.6135
 20
63.9665
 11
15.5016
 21
64.0235
  0
LINE
  8
0
 10
15.5016
 20
64.0235
 11
15.3862
 21
64.0735
  0
LINE
  8
0
 10
15.3862
 20
64.0735
 11
15.3275
 21
64.0957
  0
LINE
  8
0
 10
15.3275
 20
64.0957
 11
5.6949
 21
67.5636
  0
LINE
  8
0
 10
5.6949
 20
67.5636
 11
5.57541
 21
67.6024
  0
LINE
  8
0
 10
5.57541
 20
67.6024
 11
-4.26447
 21
70.4612
  0
LINE
  8
0
 10
-4.26447
 20
70.4612
 11
-4.38615
 21
70.4924
  0
LINE
  8
0
 10
-4.38615
 20
70.4924
 11
-14.3861
 21
72.7277
  0
LINE
  8
0
 10
-14.3861
 20
72.7277
 11
-14.5096
 21
72.7512
  0
LINE
  8
0
 10
-14.5096
 20
72.7512
 11
-24.6302
 21
74.3542
  0
LINE
  8
0
 10
-24.6302
 20
74.3542
 11
-24.7548
 21
74.3699
  0
LINE
  8
0
 10
-24.7548
 20
74.3699
 11
-34.9561
 21
75.3342
  0
LINE
  8
0
 10
-34.9561
 20
75.3342
 11
-35.0815
 21
75.3421
  0
LINE
  8
0
 10
-35.0815
 20
75.3421
 11
-45.3232
 21
75.664
  0
LINE
  8
0
 10
-45.3232
 20
75.664
 11
-45.4488
 21
75.664
  0
LINE
  8
0
 10
-45.4488
 20
75.664
 11
-55.6905
 21
75.3421
  0
LINE
  8
0
 10
-55.6905
 20
75.3421
 11
-55.8159
 21
75.3342
  0
LINE
  8
0
 10
-55.8159
 20
75.3342
 11
-66.0172
 21
74.3699
  0
LINE
  8
0
 10
-66.0172
 20
74.3699
 11
-66.1418
 21
74.3542
  0
LINE
  8
0
 10
-66.1418
 20
74.3542
 11
-76.2624
 21
72.7512
  0
LINE
  8
0
 10
-76.2624
 20
72.7512
 11
-76.3859
 21
72.7277
  0
LINE
  8
0
 10
-76.3859
 20
72.7277
 11
-86.3858
 21
70.4924
  0
LINE
  8
0
 10
-86.3858
 20
70.4924
 11
-86.5075
 21
70.4612
  0
LINE
  8
0
 10
-86.5075
 20
70.4612
 11
-90.475
 21
69.3085
  0
LINE
  8
0
 10
-90.475
 20
69.3085
 11
-90.475
 21
58.1069
  0
LINE
  8
0
 10
-90.475
 20
58.1069
 11
-119.307
 21
58.1069
  0
LINE
  8
0
 10
-119.307
 20
58.1069
 11
-126.133
 21
54.6292
  0
LINE
  8
0
 10
-126.133
 20
54.6292
 11
-126.243
 21
54.5686
  0
LINE
  8
0
 10
-126.243
 20
54.5686
 11
-126.349
 21
54.5013
  0
LINE
  8
0
 10
-126.349
 20
54.5013
 11
-126.451
 21
54.4275
  0
LINE
  8
0
 10
-126.451
 20
54.4275
 11
-126.548
 21
54.3474
  0
LINE
  8
0
 10
-126.548
 20
54.3474
 11
-126.639
 21
54.2614
  0
LINE
  8
0
 10
-126.639
 20
54.2614
 11
-126.725
 21
54.1698
  0
LINE
  8
0
 10
-126.725
 20
54.1698
 11
-126.805
 21
54.073
  0
LINE
  8
0
 10
-126.805
 20
54.073
 11
-126.879
 21
53.9713
  0
LINE
  8
0
 10
-126.879
 20
53.9713
 11
-126.946
 21
53.8652
  0
LINE
  8
0
 10
-126.946
 20
53.8652
 11
-127.007
 21
53.7551
  0
LINE
  8
0
 10
-127.007
 20
53.7551
 11
-127.061
 21
53.6414
  0
LINE
  8
0
 10
-127.061
 20
53.6414
 11
-127.107
 21
53.5246
  0
LINE
  8
0
 10
-127.107
 20
53.5246
 11
-127.146
 21
53.4051
  0
LINE
  8
0
 10
-127.146
 20
53.4051
 11
-127.177
 21
53.2834
  0
LINE
  8
0
 10
-127.177
 20
53.2834
 11
-127.2
 21
53.16
  0
LINE
  8
0
 10
-127.2
 20
53.16
 11
-127.216
 21
53.0354
  0
LINE
  8
0
 10
-127.216
 20
53.0354
 11
-127.224
 21
52.91
  0
LINE
  8
0
 10
-127.224
 20
52.91
 11
-127.225
 21
52.8472
  0
LINE
  8
0
 10
-127.225
 20
52.8472
 11
-127.225
 21
-2.35631
  0
LINE
  8
0
 10
-127.225
 20
-2.35631
 11
-141.534
 21
-16.6658
  0
LINE
  8
0
 10
-141.534
 20
-16.6658
 11
-141.62
 21
-16.7574
  0
LINE
  8
0
 10
-141.62
 20
-16.7574
 11
-141.701
 21
-16.8542
  0
LINE
  8
0
 10
-141.701
 20
-16.8542
 11
-141.774
 21
-16.9559
  0
LINE
  8
0
 10
-141.774
 20
-16.9559
 11
-141.842
 21
-17.0619
  0
LINE
  8
0
 10
-141.842
 20
-17.0619
 11
-141.902
 21
-17.172
  0
LINE
  8
0
 10
-141.902
 20
-17.172
 11
-141.956
 21
-17.2857
  0
LINE
  8
0
 10
-141.956
 20
-17.2857
 11
-142.002
 21
-17.4025
  0
LINE
  8
0
 10
-142.002
 20
-17.4025
 11
-142.041
 21
-17.522
  0
LINE
  8
0
 10
-142.041
 20
-17.522
 11
-142.072
 21
-17.6437
  0
LINE
  8
0
 10
-142.072
 20
-17.6437
 11
-142.096
 21
-17.7672
  0
LINE
  8
0
 10
-142.096
 20
-17.7672
 11
-142.111
 21
-17.8918
  0
LINE
  8
0
 10
-142.111
 20
-17.8918
 11
-142.119
 21
-18.0172
  0
LINE
  8
0
 10
-142.119
 20
-18.0172
 11
-142.119
 21
-18.1428
  0
LINE
  8
0
 10
-142.119
 20
-18.1428
 11
-142.111
 21
-18.2682
  0
LINE
  8
0
 10
-142.111
 20
-18.2682
 11
-142.096
 21
-18.3929
  0
LINE
  8
0
 10
-142.096
 20
-18.3929
 11
-142.072
 21
-18.5163
  0
LINE
  8
0
 10
-142.072
 20
-18.5163
 11
-142.041
 21
-18.638
  0
LINE
  8
0
 10
-142.041
 20
-18.638
 11
-142.002
 21
-18.7575
  0
LINE
  8
0
 10
-142.002
 20
-18.7575
 11
-141.956
 21
-18.8743
  0
LINE
  8
0
 10
-141.956
 20
-18.8743
 11
-141.902
 21
-18.988
  0
LINE
  8
0
 10
-141.902
 20
-18.988
 11
-141.842
 21
-19.0981
  0
LINE
  8
0
 10
-141.842
 20
-19.0981
 11
-141.774
 21
-19.2042
  0
LINE
  8
0
 10
-141.774
 20
-19.2042
 11
-141.701
 21
-19.3058
  0
LINE
  8
0
 10
-141.701
 20
-19.3058
 11
-141.62
 21
-19.4026
  0
LINE
  8
0
 10
-141.62
 20
-19.4026
 11
-141.534
 21
-19.4942
  0
LINE
  8
0
 10
-141.534
 20
-19.4942
 11
-104.694
 21
-56.3345
  0
LINE
  8
0
 10
-104.694
 20
-56.3345
 11
-104.603
 21
-56.4205
  0
LINE
  8
0
 10
-104.603
 20
-56.4205
 11
-104.506
 21
-56.5006
  0
LINE
  8
0
 10
-104.506
 20
-56.5006
 11
-104.404
 21
-56.5744
  0
LINE
  8
0
 10
-104.404
 20
-56.5744
 11
-104.298
 21
-56.6418
  0
LINE
  8
0
 10
-104.298
 20
-56.6418
 11
-104.188
 21
-56.7023
  0
LINE
  8
0
 10
-104.188
 20
-56.7023
 11
-104.074
 21
-56.7558
  0
LINE
  8
0
 10
-104.074
 20
-56.7558
 11
-103.957
 21
-56.802
  0
LINE
  8
0
 10
-103.957
 20
-56.802
 11
-103.838
 21
-56.8409
  0
LINE
  8
0
 10
-103.838
 20
-56.8409
 11
-103.716
 21
-56.8721
  0
LINE
  8
0
 10
-103.716
 20
-56.8721
 11
-103.593
 21
-56.8956
  0
LINE
  8
0
 10
-103.593
 20
-56.8956
 11
-103.468
 21
-56.9114
  0
LINE
  8
0
 10
-103.468
 20
-56.9114
 11
-103.343
 21
-56.9193
  0
LINE
  8
0
 10
-103.343
 20
-56.9193
 11
-103.217
 21
-56.9193
  0
LINE
  8
0
 10
-103.217
 20
-56.9193
 11
-103.092
 21
-56.9114
  0
LINE
  8
0
 10
-52.5324
 20
70.511
 11
-52.6262
 21
70.5199
  0
LINE
  8
0
 10
-52.6262
 20
70.5199
 11
-52.7193
 21
70.5346
  0
LINE
  8
0
 10
-52.7193
 20
70.5346
 11
-52.8112
 21
70.5552
  0
LINE
  8
0
 10
-52.8112
 20
70.5552
 11
-52.9017
 21
70.5815
  0
LINE
  8
0
 10
-52.9017
 20
70.5815
 11
-52.9904
 21
70.6134
  0
LINE
  8
0
 10
-52.9904
 20
70.6134
 11
-53.0769
 21
70.6508
  0
LINE
  8
0
 10
-53.0769
 20
70.6508
 11
-53.1608
 21
70.6936
  0
LINE
  8
0
 10
-53.1608
 20
70.6936
 11
-53.2419
 21
70.7416
  0
LINE
  8
0
 10
-53.2419
 20
70.7416
 11
-53.3199
 21
70.7945
  0
LINE
  8
0
 10
-53.3199
 20
70.7945
 11
-53.3943
 21
70.8523
  0
LINE
  8
0
 10
-53.3943
 20
70.8523
 11
-53.465
 21
70.9146
  0
LINE
  8
0
 10
-53.465
 20
70.9146
 11
-53.5316
 21
70.9812
  0
LINE
  8
0
 10
-53.5316
 20
70.9812
 11
-53.5939
 21
71.0519
  0
LINE
  8
0
 10
-53.5939
 20
71.0519
 11
-53.6517
 21
71.1264
  0
LINE
  8
0
 10
-53.6517
 20
71.1264
 11
-53.7047
 21
71.2043
  0
LINE
  8
0
 10
-53.7047
 20
71.2043
 11
-53.7526
 21
71.2854
  0
LINE
  8
0
 10
-53.7526
 20
71.2854
 11
-53.7954
 21
71.3694
  0
LINE
  8
0
 10
-53.7954
 20
71.3694
 11
-53.8329
 21
71.4559
  0
LINE
  8
0
 10
-53.8329
 20
71.4559
 11
-53.8648
 21
71.5445
  0
LINE
  8
0
 10
-53.8648
 20
71.5445
 11
-53.8911
 21
71.635
  0
LINE
  8
0
 10
-53.8911
 20
71.635
 11
-53.9116
 21
71.727
  0
LINE
  8
0
 10
-53.9116
 20
71.727
 11
-53.9264
 21
71.8201
  0
LINE
  8
0
 10
-53.9264
 20
71.8201
 11
-53.9352
 21
71.9139
  0
LINE
  8
0
 10
-53.9352
 20
71.9139
 11
-53.9382
 21
72.008
  0
LINE
  8
0
 10
-53.9382
 20
72.008
 11
-53.9352
 21
72.1022
  0
LINE
  8
0
 10
-53.9352
 20
72.1022
 11
-53.9264
 21
72.196
  0
LINE
  8
0
 10
-53.9264
 20
72.196
 11
-53.9116
 21
72.2891
  0
LINE
  8
0
 10
-53.9116
 20
72.2891
 11
-53.8911
 21
72.3811
  0
LINE
  8
0
 10
-53.8911
 20
72.3811
 11
-53.8648
 21
72.4716
  0
LINE
  8
0
 10
-53.8648
 20
72.4716
 11
-53.8329
 21
72.5602
  0
LINE
  8
0
 10
-53.8329
 20
72.5602
 11
-53.7954
 21
72.6467
  0
LINE
  8
0
 10
-53.7954
 20
72.6467
 11
-53.7526
 21
72.7307
  0
LINE
  8
0
 10
-53.7526
 20
72.7307
 11
-53.7047
 21
72.8118
  0
LINE
  8
0
 10
-53.7047
 20
72.8118
 11
-53.6517
 21
72.8897
  0
LINE
  8
0
 10
-53.6517
 20
72.8897
 11
-53.5939
 21
72.9642
  0
LINE
  8
0
 10
-53.5939
 20
72.9642
 11
-53.5316
 21
73.0349
  0
LINE
  8
0
 10
-53.5316
 20
73.0349
 11
-53.465
 21
73.1015
  0
LINE
  8
0
 10
-53.465
 20
73.1015
 11
-53.3943
 21
73.1638
  0
LINE
  8
0
 10
-53.3943
 20
73.1638
 11
-53.3199
 21
73.2216
  0
LINE
  8
0
 10
-53.3199
 20
73.2216
 11
-53.2419
 21
73.2745
  0
LINE
  8
0
 10
-53.2419
 20
73.2745
 11
-53.1608
 21
73.3225
  0
LINE
  8
0
 10
-53.1608
 20
73.3225
 11
-53.0769
 21
73.3653
  0
LINE
  8
0
 10
-53.0769
 20
73.3653
 11
-52.9904
 21
73.4027
  0
LINE
  8
0
 10
-52.9904
 20
73.4027
 11
-52.9017
 21
73.4346
  0
LINE
  8
0
 10
-52.9017
 20
73.4346
 11
-52.8112
 21
73.4609
  0
LINE
  8
0
 10
-52.8112
 20
73.4609
 11
-52.7193
 21
73.4815
  0
LINE
  8
0
 10
-52.7193
 20
73.4815
 11
-52.6262
 21
73.4962
  0
LINE
  8
0
 10
-52.6262
 20
73.4962
 11
-52.5324
 21
73.5051
  0
LINE
  8
0
 10
-52.5324
 20
73.5051
 11
-52.4382
 21
73.508
  0
LINE
  8
0
 10
-52.4382
 20
73.508
 11
-52.344
 21
73.5051
  0
LINE
  8
0
 10
-52.344
 20
73.5051
 11
-52.2502
 21
73.4962
  0
LINE
  8
0
 10
-52.2502
 20
73.4962
 11
-52.1571
 21
73.4815
  0
LINE
  8
0
 10
-52.1571
 20
73.4815
 11
-52.0652
 21
73.4609
  0
LINE
  8
0
 10
-52.0652
 20
73.4609
 11
-51.9747
 21
73.4346
  0
LINE
  8
0
 10
-51.9747
 20
73.4346
 11
-51.886
 21
73.4027
  0
LINE
  8
0
 10
-51.886
 20
73.4027
 11
-51.7995
 21
73.3653
  0
LINE
  8
0
 10
-51.7995
 20
73.3653
 11
-51.7156
 21
73.3225
  0
LINE
  8
0
 10
-51.7156
 20
73.3225
 11
-51.6344
 21
73.2745
  0
LINE
  8
0
 10
-51.6344
 20
73.2745
 11
-51.5565
 21
73.2216
  0
LINE
  8
0
 10
-51.5565
 20
73.2216
 11
-51.4821
 21
73.1638
  0
LINE
  8
0
 10
-51.4821
 20
73.1638
 11
-51.4114
 21
73.1015
  0
LINE
  8
0
 10
-51.4114
 20
73.1015
 11
-51.3447
 21
73.0349
  0
LINE
  8
0
 10
-51.3447
 20
73.0349
 11
-51.2824
 21
72.9642
  0
LINE
  8
0
 10
-51.2824
 20
72.9642
 11
-51.2247
 21
72.8897
  0
LINE
  8
0
 10
-51.2247
 20
72.8897
 11
-51.1717
 21
72.8118
  0
LINE
  8
0
 10
-51.1717
 20
72.8118
 11
-51.1237
 21
72.7307
  0
LINE
  8
0
 10
-51.1237
 20
72.7307
 11
-51.0809
 21
72.6467
  0
LINE
  8
0
 10
-51.0809
 20
72.6467
 11
-51.0435
 21
72.5602
  0
LINE
  8
0
 10
-51.0435
 20
72.5602
 11
-51.0116
 21
72.4716
  0
LINE
  8
0
 10
-51.0116
 20
72.4716
 11
-50.9853
 21
72.3811
  0
LINE
  8
0
 10
-50.9853
 20
72.3811
 11
-50.9648
 21
72.2891
  0
LINE
  8
0
 10
-50.9648
 20
72.2891
 11
-50.95
 21
72.196
  0
LINE
  8
0
 10
-50.95
 20
72.196
 11
-50.9411
 21
72.1022
  0
LINE
  8
0
 10
-50.9411
 20
72.1022
 11
-50.9382
 21
72.008
  0
LINE
  8
0
 10
-50.9382
 20
72.008
 11
-50.9411
 21
71.9139
  0
LINE
  8
0
 10
-50.9411
 20
71.9139
 11
-50.95
 21
71.8201
  0
LINE
  8
0
 10
-50.95
 20
71.8201
 11
-50.9648
 21
71.727
  0
LINE
  8
0
 10
-50.9648
 20
71.727
 11
-50.9853
 21
71.635
  0
LINE
  8
0
 10
-50.9853
 20
71.635
 11
-51.0116
 21
71.5445
  0
LINE
  8
0
 10
-51.0116
 20
71.5445
 11
-51.0435
 21
71.4559
  0
LINE
  8
0
 10
-51.0435
 20
71.4559
 11
-51.0809
 21
71.3694
  0
LINE
  8
0
 10
-51.0809
 20
71.3694
 11
-51.1237
 21
71.2854
  0
LINE
  8
0
 10
-51.1237
 20
71.2854
 11
-51.1717
 21
71.2043
  0
LINE
  8
0
 10
-51.1717
 20
71.2043
 11
-51.2247
 21
71.1264
  0
LINE
  8
0
 10
-51.2247
 20
71.1264
 11
-51.2824
 21
71.0519
  0
LINE
  8
0
 10
-51.2824
 20
71.0519
 11
-51.3447
 21
70.9812
  0
LINE
  8
0
 10
-51.3447
 20
70.9812
 11
-51.4114
 21
70.9146
  0
LINE
  8
0
 10
-51.4114
 20
70.9146
 11
-51.4821
 21
70.8523
  0
LINE
  8
0
 10
-51.4821
 20
70.8523
 11
-51.5565
 21
70.7945
  0
LINE
  8
0
 10
-51.5565
 20
70.7945
 11
-51.6344
 21
70.7416
  0
LINE
  8
0
 10
-51.6344
 20
70.7416
 11
-51.7156
 21
70.6936
  0
LINE
  8
0
 10
-51.7156
 20
70.6936
 11
-51.7995
 21
70.6508
  0
LINE
  8
0
 10
-51.7995
 20
70.6508
 11
-51.886
 21
70.6134
  0
LINE
  8
0
 10
-51.886
 20
70.6134
 11
-51.9747
 21
70.5815
  0
LINE
  8
0
 10
-51.9747
 20
70.5815
 11
-52.0652
 21
70.5552
  0
LINE
  8
0
 10
-52.0652
 20
70.5552
 11
-52.1571
 21
70.5346
  0
LINE
  8
0
 10
-52.1571
 20
70.5346
 11
-52.2502
 21
70.5199
  0
LINE
  8
0
 10
-52.2502
 20
70.5199
 11
-52.344
 21
70.511
  0
LINE
  8
0
 10
-52.344
 20
70.511
 11
-52.4382
 21
70.508
  0
LINE
  8
0
 10
-52.4382
 20
70.508
 11
-52.5324
 21
70.511
  0
LINE
  8
0
 10
-133.049
 20
-18.08
 11
-120.225
 21
-5.25581
  0
LINE
  8
0
 10
-120.225
 20
-5.25581
 11
-120.225
 21
49.7831
  0
LINE
  8
0
 10
-120.225
 20
49.7831
 11
-112.704
 21
53.615
  0
LINE
  8
0
 10
-112.704
 20
53.615
 11
-109.257
 21
55.1069
  0
LINE
  8
0
 10
-109.257
 20
55.1069
 11
-87.475
 21
55.1069
  0
LINE
  8
0
 10
-87.475
 20
55.1069
 11
-87.475
 21
62.8907
  0
LINE
  8
0
 10
-87.475
 20
62.8907
 11
-84.7055
 21
63.6953
  0
LINE
  8
0
 10
-84.7055
 20
63.6953
 11
-75.0122
 21
65.862
  0
LINE
  8
0
 10
-75.0122
 20
65.862
 11
-65.202
 21
67.4158
  0
LINE
  8
0
 10
-65.202
 20
67.4158
 11
-55.3136
 21
68.3505
  0
LINE
  8
0
 10
-55.3136
 20
68.3505
 11
-45.386
 21
68.6625
  0
LINE
  8
0
 10
-45.386
 20
68.6625
 11
-35.4584
 21
68.3505
  0
LINE
  8
0
 10
-35.4584
 20
68.3505
 11
-25.57
 21
67.4158
  0
LINE
  8
0
 10
-25.57
 20
67.4158
 11
-15.7598
 21
65.862
  0
LINE
  8
0
 10
-15.7598
 20
65.862
 11
-6.06651
 21
63.6953
  0
LINE
  8
0
 10
-6.06651
 20
63.6953
 11
3.47159
 21
60.9242
  0
LINE
  8
0
 10
3.47159
 20
60.9242
 11
9.64999
 21
58.6998
  0
LINE
  8
0
 10
9.64999
 20
58.6998
 11
9.64999
 21
-11.525
  0
LINE
  8
0
 10
9.64999
 20
-11.525
 11
-14.811
 21
-11.525
  0
LINE
  8
0
 10
-14.811
 20
-11.525
 11
-14.811
 21
-19.095
  0
LINE
  8
0
 10
-14.811
 20
-19.095
 11
-45.187
 21
-19.095
  0
LINE
  8
0
 10
-45.187
 20
-19.095
 11
-45.272
 21
-19.1302
  0
LINE
  8
0
 10
-45.272
 20
-19.1302
 11
-47.5957
 21
-19.1302
  0
LINE
  8
0
 10
-47.5957
 20
-19.1302
 11
-52.0066
 21
-19.4077
  0
LINE
  8
0
 10
-52.0066
 20
-19.4077
 11
-56.3911
 21
-19.9616
  0
LINE
  8
0
 10
-56.3911
 20
-19.9616
 11
-60.7322
 21
-20.7897
  0
LINE
  8
0
 10
-60.7322
 20
-20.7897
 11
-65.0129
 21
-21.8888
  0
LINE
  8
0
 10
-65.0129
 20
-21.8888
 11
-69.2159
 21
-23.2544
  0
LINE
  8
0
 10
-69.2159
 20
-23.2544
 11
-73.325
 21
-24.8813
  0
LINE
  8
0
 10
-73.325
 20
-24.8813
 11
-77.3239
 21
-26.7631
  0
LINE
  8
0
 10
-77.3239
 20
-26.7631
 11
-81.1966
 21
-28.8922
  0
LINE
  8
0
 10
-81.1966
 20
-28.8922
 11
-84.9281
 21
-31.2602
  0
LINE
  8
0
 10
-84.9281
 20
-31.2602
 11
-88.5036
 21
-33.858
  0
LINE
  8
0
 10
-88.5036
 20
-33.858
 11
-91.9085
 21
-36.6748
  0
LINE
  8
0
 10
-91.9085
 20
-36.6748
 11
-95.142
 21
-39.7112
  0
LINE
  8
0
 10
-95.142
 20
-39.7112
 11
-103.28
 21
-47.8492
  0
LINE
  8
0
 10
-103.28
 20
-47.8492
 11
-133.049
 21
-18.08
  0
LINE
  8
0
 10
13.0495
 20
59.5913
 11
12.9495
 21
59.6007
  0
LINE
  8
0
 10
12.9495
 20
59.6007
 11
12.8502
 21
59.6165
  0
LINE
  8
0
 10
12.8502
 20
59.6165
 11
12.7521
 21
59.6384
  0
LINE
  8
0
 10
12.7521
 20
59.6384
 11
12.6556
 21
59.6664
  0
LINE
  8
0
 10
12.6556
 20
59.6664
 11
12.561
 21
59.7005
  0
LINE
  8
0
 10
12.561
 20
59.7005
 11
12.4688
 21
59.7404
  0
LINE
  8
0
 10
12.4688
 20
59.7404
 11
12.3792
 21
59.786
  0
LINE
  8
0
 10
12.3792
 20
59.786
 11
12.2927
 21
59.8372
  0
LINE
  8
0
 10
12.2927
 20
59.8372
 11
12.2095
 21
59.8937
  0
LINE
  8
0
 10
12.2095
 20
59.8937
 11
12.1301
 21
59.9553
  0
LINE
  8
0
 10
12.1301
 20
59.9553
 11
12.0547
 21
60.0218
  0
LINE
  8
0
 10
12.0547
 20
60.0218
 11
11.9836
 21
60.0928
  0
LINE
  8
0
 10
11.9836
 20
60.0928
 11
11.9172
 21
60.1682
  0
LINE
  8
0
 10
11.9172
 20
60.1682
 11
11.8556
 21
60.2477
  0
LINE
  8
0
 10
11.8556
 20
60.2477
 11
11.7991
 21
60.3308
  0
LINE
  8
0
 10
11.7991
 20
60.3308
 11
11.7479
 21
60.4173
  0
LINE
  8
0
 10
11.7479
 20
60.4173
 11
11.7023
 21
60.5069
  0
LINE
  8
0
 10
11.7023
 20
60.5069
 11
11.6624
 21
60.5991
  0
LINE
  8
0
 10
11.6624
 20
60.5991
 11
11.6283
 21
60.6937
  0
LINE
  8
0
 10
11.6283
 20
60.6937
 11
11.6003
 21
60.7902
  0
LINE
  8
0
 10
11.6003
 20
60.7902
 11
11.5783
 21
60.8883
  0
LINE
  8
0
 10
11.5783
 20
60.8883
 11
11.5626
 21
60.9876
  0
LINE
  8
0
 10
11.5626
 20
60.9876
 11
11.5531
 21
61.0876
  0
LINE
  8
0
 10
11.5531
 20
61.0876
 11
11.55
 21
61.1881
  0
LINE
  8
0
 10
11.55
 20
61.1881
 11
11.5531
 21
61.2886
  0
LINE
  8
0
 10
11.5531
 20
61.2886
 11
11.5626
 21
61.3886
  0
LINE
  8
0
 10
11.5626
 20
61.3886
 11
11.5783
 21
61.4879
  0
LINE
  8
0
 10
11.5783
 20
61.4879
 11
11.6003
 21
61.586
  0
LINE
  8
0
 10
11.6003
 20
61.586
 11
11.6283
 21
61.6825
  0
LINE
  8
0
 10
11.6283
 20
61.6825
 11
11.6624
 21
61.7771
  0
LINE
  8
0
 10
11.6624
 20
61.7771
 11
11.7023
 21
61.8694
  0
LINE
  8
0
 10
11.7023
 20
61.8694
 11
11.7479
 21
61.9589
  0
LINE
  8
0
 10
11.7479
 20
61.9589
 11
11.7991
 21
62.0454
  0
LINE
  8
0
 10
11.7991
 20
62.0454
 11
11.8556
 21
62.1286
  0
LINE
  8
0
 10
11.8556
 20
62.1286
 11
11.9172
 21
62.208
  0
LINE
  8
0
 10
11.9172
 20
62.208
 11
11.9836
 21
62.2834
  0
LINE
  8
0
 10
11.9836
 20
62.2834
 11
12.0547
 21
62.3545
  0
LINE
  8
0
 10
12.0547
 20
62.3545
 11
12.1301
 21
62.4209
  0
LINE
  8
0
 10
12.1301
 20
62.4209
 11
12.2095
 21
62.4825
  0
LINE
  8
0
 10
12.2095
 20
62.4825
 11
12.2927
 21
62.539
  0
LINE
  8
0
 10
12.2927
 20
62.539
 11
12.3792
 21
62.5902
  0
LINE
  8
0
 10
12.3792
 20
62.5902
 11
12.4688
 21
62.6358
  0
LINE
  8
0
 10
12.4688
 20
62.6358
 11
12.561
 21
62.6758
  0
LINE
  8
0
 10
12.561
 20
62.6758
 11
12.6556
 21
62.7098
  0
LINE
  8
0
 10
12.6556
 20
62.7098
 11
12.7521
 21
62.7379
  0
LINE
  8
0
 10
12.7521
 20
62.7379
 11
12.8502
 21
62.7598
  0
LINE
  8
0
 10
12.8502
 20
62.7598
 11
12.9495
 21
62.7755
  0
LINE
  8
0
 10
12.9495
 20
62.7755
 11
13.0495
 21
62.785
  0
LINE
  8
0
 10
13.0495
 20
62.785
 11
13.15
 21
62.7881
  0
LINE
  8
0
 10
13.15
 20
62.7881
 11
13.2505
 21
62.785
  0
LINE
  8
0
 10
13.2505
 20
62.785
 11
13.3505
 21
62.7755
  0
LINE
  8
0
 10
13.3505
 20
62.7755
 11
13.4498
 21
62.7598
  0
LINE
  8
0
 10
13.4498
 20
62.7598
 11
13.5479
 21
62.7379
  0
LINE
  8
0
 10
13.5479
 20
62.7379
 11
13.6444
 21
62.7098
  0
LINE
  8
0
 10
13.6444
 20
62.7098
 11
13.739
 21
62.6758
  0
LINE
  8
0
 10
13.739
 20
62.6758
 11
13.8312
 21
62.6358
  0
LINE
  8
0
 10
13.8312
 20
62.6358
 11
13.9208
 21
62.5902
  0
LINE
  8
0
 10
13.9208
 20
62.5902
 11
14.0073
 21
62.539
  0
LINE
  8
0
 10
14.0073
 20
62.539
 11
14.0905
 21
62.4825
  0
LINE
  8
0
 10
14.0905
 20
62.4825
 11
14.1699
 21
62.4209
  0
LINE
  8
0
 10
14.1699
 20
62.4209
 11
14.2453
 21
62.3545
  0
LINE
  8
0
 10
14.2453
 20
62.3545
 11
14.3163
 21
62.2834
  0
LINE
  8
0
 10
14.3163
 20
62.2834
 11
14.3828
 21
62.208
  0
LINE
  8
0
 10
14.3828
 20
62.208
 11
14.4444
 21
62.1286
  0
LINE
  8
0
 10
14.4444
 20
62.1286
 11
14.5009
 21
62.0454
  0
LINE
  8
0
 10
14.5009
 20
62.0454
 11
14.5521
 21
61.9589
  0
LINE
  8
0
 10
14.5521
 20
61.9589
 11
14.5977
 21
61.8694
  0
LINE
  8
0
 10
14.5977
 20
61.8694
 11
14.6376
 21
61.7771
  0
LINE
  8
0
 10
14.6376
 20
61.7771
 11
14.6717
 21
61.6825
  0
LINE
  8
0
 10
14.6717
 20
61.6825
 11
14.6997
 21
61.586
  0
LINE
  8
0
 10
14.6997
 20
61.586
 11
14.7216
 21
61.4879
  0
LINE
  8
0
 10
14.7216
 20
61.4879
 11
14.7374
 21
61.3886
  0
LINE
  8
0
 10
14.7374
 20
61.3886
 11
14.7468
 21
61.2886
  0
LINE
  8
0
 10
14.7468
 20
61.2886
 11
14.75
 21
61.1881
  0
LINE
  8
0
 10
14.75
 20
61.1881
 11
14.7468
 21
61.0876
  0
LINE
  8
0
 10
14.7468
 20
61.0876
 11
14.7374
 21
60.9876
  0
LINE
  8
0
 10
14.7374
 20
60.9876
 11
14.7216
 21
60.8883
  0
LINE
  8
0
 10
14.7216
 20
60.8883
 11
14.6997
 21
60.7902
  0
LINE
  8
0
 10
14.6997
 20
60.7902
 11
14.6717
 21
60.6937
  0
LINE
  8
0
 10
14.6717
 20
60.6937
 11
14.6376
 21
60.5991
  0
LINE
  8
0
 10
14.6376
 20
60.5991
 11
14.5977
 21
60.5069
  0
LINE
  8
0
 10
14.5977
 20
60.5069
 11
14.5521
 21
60.4173
  0
LINE
  8
0
 10
14.5521
 20
60.4173
 11
14.5009
 21
60.3308
  0
LINE
  8
0
 10
14.5009
 20
60.3308
 11
14.4444
 21
60.2477
  0
LINE
  8
0
 10
14.4444
 20
60.2477
 11
14.3828
 21
60.1682
  0
LINE
  8
0
 10
14.3828
 20
60.1682
 11
14.3163
 21
60.0928
  0
LINE
  8
0
 10
14.3163
 20
60.0928
 11
14.2453
 21
60.0218
  0
LINE
  8
0
 10
14.2453
 20
60.0218
 11
14.1699
 21
59.9553
  0
LINE
  8
0
 10
14.1699
 20
59.9553
 11
14.0905
 21
59.8937
  0
LINE
  8
0
 10
14.0905
 20
59.8937
 11
14.0073
 21
59.8372
  0
LINE
  8
0
 10
14.0073
 20
59.8372
 11
13.9208
 21
59.786
  0
LINE
  8
0
 10
13.9208
 20
59.786
 11
13.8312
 21
59.7404
  0
LINE
  8
0
 10
13.8312
 20
59.7404
 11
13.739
 21
59.7005
  0
LINE
  8
0
 10
13.739
 20
59.7005
 11
13.6444
 21
59.6664
  0
LINE
  8
0
 10
13.6444
 20
59.6664
 11
13.5479
 21
59.6384
  0
LINE
  8
0
 10
13.5479
 20
59.6384
 11
13.4498
 21
59.6165
  0
LINE
  8
0
 10
13.4498
 20
59.6165
 11
13.3505
 21
59.6007
  0
LINE
  8
0
 10
13.3505
 20
59.6007
 11
13.2505
 21
59.5913
  0
LINE
  8
0
 10
13.2505
 20
59.5913
 11
13.15
 21
59.5881
  0
LINE
  8
0
 10
13.15
 20
59.5881
 11
13.0495
 21
59.5913
  0
LINE
  8
0
 10
-123.825
 20
50.308
 11
-123.926
 21
50.3175
  0
LINE
  8
0
 10
-123.926
 20
50.3175
 11
-124.025
 21
50.3332
  0
LINE
  8
0
 10
-124.025
 20
50.3332
 11
-124.123
 21
50.3551
  0
LINE
  8
0
 10
-124.123
 20
50.3551
 11
-124.219
 21
50.3832
  0
LINE
  8
0
 10
-124.219
 20
50.3832
 11
-124.314
 21
50.4172
  0
LINE
  8
0
 10
-124.314
 20
50.4172
 11
-124.406
 21
50.4571
  0
LINE
  8
0
 10
-124.406
 20
50.4571
 11
-124.496
 21
50.5028
  0
LINE
  8
0
 10
-124.496
 20
50.5028
 11
-124.582
 21
50.5539
  0
LINE
  8
0
 10
-124.582
 20
50.5539
 11
-124.665
 21
50.6104
  0
LINE
  8
0
 10
-124.665
 20
50.6104
 11
-124.745
 21
50.672
  0
LINE
  8
0
 10
-124.745
 20
50.672
 11
-124.82
 21
50.7385
  0
LINE
  8
0
 10
-124.82
 20
50.7385
 11
-124.891
 21
50.8096
  0
LINE
  8
0
 10
-124.891
 20
50.8096
 11
-124.958
 21
50.885
  0
LINE
  8
0
 10
-124.958
 20
50.885
 11
-125.019
 21
50.9644
  0
LINE
  8
0
 10
-125.019
 20
50.9644
 11
-125.076
 21
51.0475
  0
LINE
  8
0
 10
-125.076
 20
51.0475
 11
-125.127
 21
51.134
  0
LINE
  8
0
 10
-125.127
 20
51.134
 11
-125.173
 21
51.2236
  0
LINE
  8
0
 10
-125.173
 20
51.2236
 11
-125.213
 21
51.3159
  0
LINE
  8
0
 10
-125.213
 20
51.3159
 11
-125.247
 21
51.4104
  0
LINE
  8
0
 10
-125.247
 20
51.4104
 11
-125.275
 21
51.5069
  0
LINE
  8
0
 10
-125.275
 20
51.5069
 11
-125.297
 21
51.605
  0
LINE
  8
0
 10
-125.297
 20
51.605
 11
-125.312
 21
51.7043
  0
LINE
  8
0
 10
-125.312
 20
51.7043
 11
-125.322
 21
51.8044
  0
LINE
  8
0
 10
-125.322
 20
51.8044
 11
-125.325
 21
51.9048
  0
LINE
  8
0
 10
-125.325
 20
51.9048
 11
-125.322
 21
52.0053
  0
LINE
  8
0
 10
-125.322
 20
52.0053
 11
-125.312
 21
52.1054
  0
LINE
  8
0
 10
-125.312
 20
52.1054
 11
-125.297
 21
52.2047
  0
LINE
  8
0
 10
-125.297
 20
52.2047
 11
-125.275
 21
52.3027
  0
LINE
  8
0
 10
-125.275
 20
52.3027
 11
-125.247
 21
52.3993
  0
LINE
  8
0
 10
-125.247
 20
52.3993
 11
-125.213
 21
52.4939
  0
LINE
  8
0
 10
-125.213
 20
52.4939
 11
-125.173
 21
52.5861
  0
LINE
  8
0
 10
-125.173
 20
52.5861
 11
-125.127
 21
52.6757
  0
LINE
  8
0
 10
-125.127
 20
52.6757
 11
-125.076
 21
52.7622
  0
LINE
  8
0
 10
-125.076
 20
52.7622
 11
-125.019
 21
52.8453
  0
LINE
  8
0
 10
-125.019
 20
52.8453
 11
-124.958
 21
52.9247
  0
LINE
  8
0
 10
-124.958
 20
52.9247
 11
-124.891
 21
53.0001
  0
LINE
  8
0
 10
-124.891
 20
53.0001
 11
-124.82
 21
53.0712
  0
LINE
  8
0
 10
-124.82
 20
53.0712
 11
-124.745
 21
53.1377
  0
LINE
  8
0
 10
-124.745
 20
53.1377
 11
-124.665
 21
53.1993
  0
LINE
  8
0
 10
-124.665
 20
53.1993
 11
-124.582
 21
53.2558
  0
LINE
  8
0
 10
-124.582
 20
53.2558
 11
-124.496
 21
53.3069
  0
LINE
  8
0
 10
-124.496
 20
53.3069
 11
-124.406
 21
53.3526
  0
LINE
  8
0
 10
-124.406
 20
53.3526
 11
-124.314
 21
53.3925
  0
LINE
  8
0
 10
-124.314
 20
53.3925
 11
-124.219
 21
53.4265
  0
LINE
  8
0
 10
-124.219
 20
53.4265
 11
-124.123
 21
53.4546
  0
LINE
  8
0
 10
-124.123
 20
53.4546
 11
-124.025
 21
53.4765
  0
LINE
  8
0
 10
-124.025
 20
53.4765
 11
-123.926
 21
53.4922
  0
LINE
  8
0
 10
-123.926
 20
53.4922
 11
-123.825
 21
53.5017
  0
LINE
  8
0
 10
-123.825
 20
53.5017
 11
-123.725
 21
53.5049
  0
LINE
  8
0
 10
-123.725
 20
53.5049
 11
-123.625
 21
53.5017
  0
LINE
  8
0
 10
-123.625
 20
53.5017
 11
-123.524
 21
53.4922
  0
LINE
  8
0
 10
-123.524
 20
53.4922
 11
-123.425
 21
53.4765
  0
LINE
  8
0
 10
-123.425
 20
53.4765
 11
-123.327
 21
53.4546
  0
LINE
  8
0
 10
-123.327
 20
53.4546
 11
-123.231
 21
53.4265
  0
LINE
  8
0
 10
-123.231
 20
53.4265
 11
-123.136
 21
53.3925
  0
LINE
  8
0
 10
-123.136
 20
53.3925
 11
-123.044
 21
53.3526
  0
LINE
  8
0
 10
-123.044
 20
53.3526
 11
-122.954
 21
53.3069
  0
LINE
  8
0
 10
-122.954
 20
53.3069
 11
-122.868
 21
53.2558
  0
LINE
  8
0
 10
-122.868
 20
53.2558
 11
-122.785
 21
53.1993
  0
LINE
  8
0
 10
-122.785
 20
53.1993
 11
-122.705
 21
53.1377
  0
LINE
  8
0
 10
-122.705
 20
53.1377
 11
-122.63
 21
53.0712
  0
LINE
  8
0
 10
-122.63
 20
53.0712
 11
-122.559
 21
53.0001
  0
LINE
  8
0
 10
-122.559
 20
53.0001
 11
-122.492
 21
52.9247
  0
LINE
  8
0
 10
-122.492
 20
52.9247
 11
-122.431
 21
52.8453
  0
LINE
  8
0
 10
-122.431
 20
52.8453
 11
-122.374
 21
52.7622
  0
LINE
  8
0
 10
-122.374
 20
52.7622
 11
-122.323
 21
52.6757
  0
LINE
  8
0
 10
-122.323
 20
52.6757
 11
-122.277
 21
52.5861
  0
LINE
  8
0
 10
-122.277
 20
52.5861
 11
-122.237
 21
52.4939
  0
LINE
  8
0
 10
-122.237
 20
52.4939
 11
-122.203
 21
52.3993
  0
LINE
  8
0
 10
-122.203
 20
52.3993
 11
-122.175
 21
52.3027
  0
LINE
  8
0
 10
-122.175
 20
52.3027
 11
-122.153
 21
52.2047
  0
LINE
  8
0
 10
-122.153
 20
52.2047
 11
-122.138
 21
52.1054
  0
LINE
  8
0
 10
-122.138
 20
52.1054
 11
-122.128
 21
52.0053
  0
LINE
  8
0
 10
-122.128
 20
52.0053
 11
-122.125
 21
51.9048
  0
LINE
  8
0
 10
-122.125
 20
51.9048
 11
-122.128
 21
51.8044
  0
LINE
  8
0
 10
-122.128
 20
51.8044
 11
-122.138
 21
51.7043
  0
LINE
  8
0
 10
-122.138
 20
51.7043
 11
-122.153
 21
51.605
  0
LINE
  8
0
 10
-122.153
 20
51.605
 11
-122.175
 21
51.5069
  0
LINE
  8
0
 10
-122.175
 20
51.5069
 11
-122.203
 21
51.4104
  0
LINE
  8
0
 10
-122.203
 20
51.4104
 11
-122.237
 21
51.3159
  0
LINE
  8
0
 10
-122.237
 20
51.3159
 11
-122.277
 21
51.2236
  0
LINE
  8
0
 10
-122.277
 20
51.2236
 11
-122.323
 21
51.134
  0
LINE
  8
0
 10
-122.323
 20
51.134
 11
-122.374
 21
51.0475
  0
LINE
  8
0
 10
-122.374
 20
51.0475
 11
-122.431
 21
50.9644
  0
LINE
  8
0
 10
-122.431
 20
50.9644
 11
-122.492
 21
50.885
  0
LINE
  8
0
 10
-122.492
 20
50.885
 11
-122.559
 21
50.8096
  0
LINE
  8
0
 10
-122.559
 20
50.8096
 11
-122.63
 21
50.7385
  0
LINE
  8
0
 10
-122.63
 20
50.7385
 11
-122.705
 21
50.672
  0
LINE
  8
0
 10
-122.705
 20
50.672
 11
-122.785
 21
50.6104
  0
LINE
  8
0
 10
-122.785
 20
50.6104
 11
-122.868
 21
50.5539
  0
LINE
  8
0
 10
-122.868
 20
50.5539
 11
-122.954
 21
50.5028
  0
LINE
  8
0
 10
-122.954
 20
50.5028
 11
-123.044
 21
50.4571
  0
LINE
  8
0
 10
-123.044
 20
50.4571
 11
-123.136
 21
50.4172
  0
LINE
  8
0
 10
-123.136
 20
50.4172
 11
-123.231
 21
50.3832
  0
LINE
  8
0
 10
-123.231
 20
50.3832
 11
-123.327
 21
50.3551
  0
LINE
  8
0
 10
-123.327
 20
50.3551
 11
-123.425
 21
50.3332
  0
LINE
  8
0
 10
-123.425
 20
50.3332
 11
-123.524
 21
50.3175
  0
LINE
  8
0
 10
-123.524
 20
50.3175
 11
-123.625
 21
50.308
  0
LINE
  8
0
 10
-123.625
 20
50.308
 11
-123.725
 21
50.3049
  0
LINE
  8
0
 10
-123.725
 20
50.3049
 11
-123.825
 21
50.308
  0
LINE
  8
0
 10
13.0558
 20
21.5845
 11
12.962
 21
21.5934
  0
LINE
  8
0
 10
12.962
 20
21.5934
 11
12.8689
 21
21.6081
  0
LINE
  8
0
 10
12.8689
 20
21.6081
 11
12.777
 21
21.6287
  0
LINE
  8
0
 10
12.777
 20
21.6287
 11
12.6865
 21
21.655
  0
LINE
  8
0
 10
12.6865
 20
21.655
 11
12.5978
 21
21.6869
  0
LINE
  8
0
 10
12.5978
 20
21.6869
 11
12.5113
 21
21.7243
  0
LINE
  8
0
 10
12.5113
 20
21.7243
 11
12.4274
 21
21.7671
  0
LINE
  8
0
 10
12.4274
 20
21.7671
 11
12.3463
 21
21.8151
  0
LINE
  8
0
 10
12.3463
 20
21.8151
 11
12.2683
 21
21.868
  0
LINE
  8
0
 10
12.2683
 20
21.868
 11
12.1939
 21
21.9258
  0
LINE
  8
0
 10
12.1939
 20
21.9258
 11
12.1232
 21
21.9881
  0
LINE
  8
0
 10
12.1232
 20
21.9881
 11
12.0565
 21
22.0547
  0
LINE
  8
0
 10
12.0565
 20
22.0547
 11
11.9942
 21
22.1254
  0
LINE
  8
0
 10
11.9942
 20
22.1254
 11
11.9365
 21
22.1999
  0
LINE
  8
0
 10
11.9365
 20
22.1999
 11
11.8835
 21
22.2778
  0
LINE
  8
0
 10
11.8835
 20
22.2778
 11
11.8355
 21
22.3589
  0
LINE
  8
0
 10
11.8355
 20
22.3589
 11
11.7928
 21
22.4429
  0
LINE
  8
0
 10
11.7928
 20
22.4429
 11
11.7553
 21
22.5294
  0
LINE
  8
0
 10
11.7553
 20
22.5294
 11
11.7234
 21
22.618
  0
LINE
  8
0
 10
11.7234
 20
22.618
 11
11.6971
 21
22.7085
  0
LINE
  8
0
 10
11.6971
 20
22.7085
 11
11.6766
 21
22.8005
  0
LINE
  8
0
 10
11.6766
 20
22.8005
 11
11.6618
 21
22.8936
  0
LINE
  8
0
 10
11.6618
 20
22.8936
 11
11.653
 21
22.9874
  0
LINE
  8
0
 10
11.653
 20
22.9874
 11
11.65
 21
23.0816
  0
LINE
  8
0
 10
11.65
 20
23.0816
 11
11.653
 21
23.1757
  0
LINE
  8
0
 10
11.653
 20
23.1757
 11
11.6618
 21
23.2695
  0
LINE
  8
0
 10
11.6618
 20
23.2695
 11
11.6766
 21
23.3626
  0
LINE
  8
0
 10
11.6766
 20
23.3626
 11
11.6971
 21
23.4546
  0
LINE
  8
0
 10
11.6971
 20
23.4546
 11
11.7234
 21
23.5451
  0
LINE
  8
0
 10
11.7234
 20
23.5451
 11
11.7553
 21
23.6337
  0
LINE
  8
0
 10
11.7553
 20
23.6337
 11
11.7928
 21
23.7202
  0
LINE
  8
0
 10
11.7928
 20
23.7202
 11
11.8355
 21
23.8042
  0
LINE
  8
0
 10
11.8355
 20
23.8042
 11
11.8835
 21
23.8853
  0
LINE
  8
0
 10
11.8835
 20
23.8853
 11
11.9365
 21
23.9632
  0
LINE
  8
0
 10
11.9365
 20
23.9632
 11
11.9942
 21
24.0377
  0
LINE
  8
0
 10
11.9942
 20
24.0377
 11
12.0565
 21
24.1084
  0
LINE
  8
0
 10
12.0565
 20
24.1084
 11
12.1232
 21
24.175
  0
LINE
  8
0
 10
12.1232
 20
24.175
 11
12.1939
 21
24.2373
  0
LINE
  8
0
 10
12.1939
 20
24.2373
 11
12.2683
 21
24.2951
  0
LINE
  8
0
 10
12.2683
 20
24.2951
 11
12.3463
 21
24.348
  0
LINE
  8
0
 10
12.3463
 20
24.348
 11
12.4274
 21
24.396
  0
LINE
  8
0
 10
12.4274
 20
24.396
 11
12.5113
 21
24.4388
  0
LINE
  8
0
 10
12.5113
 20
24.4388
 11
12.5978
 21
24.4762
  0
LINE
  8
0
 10
12.5978
 20
24.4762
 11
12.6865
 21
24.5081
  0
LINE
  8
0
 10
12.6865
 20
24.5081
 11
12.777
 21
24.5344
  0
LINE
  8
0
 10
12.777
 20
24.5344
 11
12.8689
 21
24.555
  0
LINE
  8
0
 10
12.8689
 20
24.555
 11
12.962
 21
24.5697
  0
LINE
  8
0
 10
12.962
 20
24.5697
 11
13.0558
 21
24.5786
  0
LINE
  8
0
 10
13.0558
 20
24.5786
 11
13.15
 21
24.5816
  0
LINE
  8
0
 10
13.15
 20
24.5816
 11
13.2442
 21
24.5786
  0
LINE
  8
0
 10
13.2442
 20
24.5786
 11
13.338
 21
24.5697
  0
LINE
  8
0
 10
13.338
 20
24.5697
 11
13.4311
 21
24.555
  0
LINE
  8
0
 10
13.4311
 20
24.555
 11
13.523
 21
24.5344
  0
LINE
  8
0
 10
13.523
 20
24.5344
 11
13.6135
 21
24.5081
  0
LINE
  8
0
 10
13.6135
 20
24.5081
 11
13.7022
 21
24.4762
  0
LINE
  8
0
 10
13.7022
 20
24.4762
 11
13.7887
 21
24.4388
  0
LINE
  8
0
 10
13.7887
 20
24.4388
 11
13.8726
 21
24.396
  0
LINE
  8
0
 10
13.8726
 20
24.396
 11
13.9537
 21
24.348
  0
LINE
  8
0
 10
13.9537
 20
24.348
 11
14.0317
 21
24.2951
  0
LINE
  8
0
 10
14.0317
 20
24.2951
 11
14.1061
 21
24.2373
  0
LINE
  8
0
 10
14.1061
 20
24.2373
 11
14.1768
 21
24.175
  0
LINE
  8
0
 10
14.1768
 20
24.175
 11
14.2434
 21
24.1084
  0
LINE
  8
0
 10
14.2434
 20
24.1084
 11
14.3058
 21
24.0377
  0
LINE
  8
0
 10
14.3058
 20
24.0377
 11
14.3635
 21
23.9632
  0
LINE
  8
0
 10
14.3635
 20
23.9632
 11
14.4165
 21
23.8853
  0
LINE
  8
0
 10
14.4165
 20
23.8853
 11
14.4644
 21
23.8042
  0
LINE
  8
0
 10
14.4644
 20
23.8042
 11
14.5072
 21
23.7202
  0
LINE
  8
0
 10
14.5072
 20
23.7202
 11
14.5447
 21
23.6337
  0
LINE
  8
0
 10
14.5447
 20
23.6337
 11
14.5766
 21
23.5451
  0
LINE
  8
0
 10
14.5766
 20
23.5451
 11
14.6029
 21
23.4546
  0
LINE
  8
0
 10
14.6029
 20
23.4546
 11
14.6234
 21
23.3626
  0
LINE
  8
0
 10
14.6234
 20
23.3626
 11
14.6382
 21
23.2695
  0
LINE
  8
0
 10
14.6382
 20
23.2695
 11
14.647
 21
23.1757
  0
LINE
  8
0
 10
14.647
 20
23.1757
 11
14.65
 21
23.0816
  0
LINE
  8
0
 10
14.65
 20
23.0816
 11
14.647
 21
22.9874
  0
LINE
  8
0
 10
14.647
 20
22.9874
 11
14.6382
 21
22.8936
  0
LINE
  8
0
 10
14.6382
 20
22.8936
 11
14.6234
 21
22.8005
  0
LINE
  8
0
 10
14.6234
 20
22.8005
 11
14.6029
 21
22.7085
  0
LINE
  8
0
 10
14.6029
 20
22.7085
 11
14.5766
 21
22.618
  0
LINE
  8
0
 10
14.5766
 20
22.618
 11
14.5447
 21
22.5294
  0
LINE
  8
0
 10
14.5447
 20
22.5294
 11
14.5072
 21
22.4429
  0
LINE
  8
0
 10
14.5072
 20
22.4429
 11
14.4644
 21
22.3589
  0
LINE
  8
0
 10
14.4644
 20
22.3589
 11
14.4165
 21
22.2778
  0
LINE
  8
0
 10
14.4165
 20
22.2778
 11
14.3635
 21
22.1999
  0
LINE
  8
0
 10
14.3635
 20
22.1999
 11
14.3058
 21
22.1254
  0
LINE
  8
0
 10
14.3058
 20
22.1254
 11
14.2434
 21
22.0547
  0
LINE
  8
0
 10
14.2434
 20
22.0547
 11
14.1768
 21
21.9881
  0
LINE
  8
0
 10
14.1768
 20
21.9881
 11
14.1061
 21
21.9258
  0
LINE
  8
0
 10
14.1061
 20
21.9258
 11
14.0317
 21
21.868
  0
LINE
  8
0
 10
14.0317
 20
21.868
 11
13.9537
 21
21.8151
  0
LINE
  8
0
 10
13.9537
 20
21.8151
 11
13.8726
 21
21.7671
  0
LINE
  8
0
 10
13.8726
 20
21.7671
 11
13.7887
 21
21.7243
  0
LINE
  8
0
 10
13.7887
 20
21.7243
 11
13.7022
 21
21.6869
  0
LINE
  8
0
 10
13.7022
 20
21.6869
 11
13.6135
 21
21.655
  0
LINE
  8
0
 10
13.6135
 20
21.655
 11
13.523
 21
21.6287
  0
LINE
  8
0
 10
13.523
 20
21.6287
 11
13.4311
 21
21.6081
  0
LINE
  8
0
 10
13.4311
 20
21.6081
 11
13.338
 21
21.5934
  0
LINE
  8
0
 10
13.338
 20
21.5934
 11
13.2442
 21
21.5845
  0
LINE
  8
0
 10
13.2442
 20
21.5845
 11
13.15
 21
21.5816
  0
LINE
  8
0
 10
13.15
 20
21.5816
 11
13.0558
 21
21.5845
  0
LINE
  8
0
 10
-123.819
 20
-3.98509
 11
-123.913
 21
-3.97623
  0
LINE
  8
0
 10
-123.913
 20
-3.97623
 11
-124.006
 21
-3.96147
  0
LINE
  8
0
 10
-124.006
 20
-3.96147
 11
-124.098
 21
-3.94092
  0
LINE
  8
0
 10
-124.098
 20
-3.94092
 11
-124.189
 21
-3.91463
  0
LINE
  8
0
 10
-124.189
 20
-3.91463
 11
-124.277
 21
-3.88271
  0
LINE
  8
0
 10
-124.277
 20
-3.88271
 11
-124.364
 21
-3.84529
  0
LINE
  8
0
 10
-124.364
 20
-3.84529
 11
-124.448
 21
-3.80251
  0
LINE
  8
0
 10
-124.448
 20
-3.80251
 11
-124.529
 21
-3.75455
  0
LINE
  8
0
 10
-124.529
 20
-3.75455
 11
-124.607
 21
-3.70157
  0
LINE
  8
0
 10
-124.607
 20
-3.70157
 11
-124.681
 21
-3.64381
  0
LINE
  8
0
 10
-124.681
 20
-3.64381
 11
-124.752
 21
-3.5815
  0
LINE
  8
0
 10
-124.752
 20
-3.5815
 11
-124.818
 21
-3.51486
  0
LINE
  8
0
 10
-124.818
 20
-3.51486
 11
-124.881
 21
-3.44418
  0
LINE
  8
0
 10
-124.881
 20
-3.44418
 11
-124.939
 21
-3.36972
  0
LINE
  8
0
 10
-124.939
 20
-3.36972
 11
-124.991
 21
-3.29179
  0
LINE
  8
0
 10
-124.991
 20
-3.29179
 11
-125.039
 21
-3.21068
  0
LINE
  8
0
 10
-125.039
 20
-3.21068
 11
-125.082
 21
-3.12672
  0
LINE
  8
0
 10
-125.082
 20
-3.12672
 11
-125.12
 21
-3.04024
  0
LINE
  8
0
 10
-125.12
 20
-3.04024
 11
-125.152
 21
-2.95157
  0
LINE
  8
0
 10
-125.152
 20
-2.95157
 11
-125.178
 21
-2.86108
  0
LINE
  8
0
 10
-125.178
 20
-2.86108
 11
-125.198
 21
-2.76912
  0
LINE
  8
0
 10
-125.198
 20
-2.76912
 11
-125.213
 21
-2.67604
  0
LINE
  8
0
 10
-125.213
 20
-2.67604
 11
-125.222
 21
-2.58223
  0
LINE
  8
0
 10
-125.222
 20
-2.58223
 11
-125.225
 21
-2.48805
  0
LINE
  8
0
 10
-125.225
 20
-2.48805
 11
-125.222
 21
-2.39386
  0
LINE
  8
0
 10
-125.222
 20
-2.39386
 11
-125.213
 21
-2.30005
  0
LINE
  8
0
 10
-125.213
 20
-2.30005
 11
-125.198
 21
-2.20697
  0
LINE
  8
0
 10
-125.198
 20
-2.20697
 11
-125.178
 21
-2.11502
  0
LINE
  8
0
 10
-125.178
 20
-2.11502
 11
-125.152
 21
-2.02452
  0
LINE
  8
0
 10
-125.152
 20
-2.02452
 11
-125.12
 21
-1.93587
  0
LINE
  8
0
 10
-125.12
 20
-1.93587
 11
-125.082
 21
-1.84938
  0
LINE
  8
0
 10
-125.082
 20
-1.84938
 11
-125.039
 21
-1.76541
  0
LINE
  8
0
 10
-125.039
 20
-1.76541
 11
-124.991
 21
-1.68431
  0
LINE
  8
0
 10
-124.991
 20
-1.68431
 11
-124.939
 21
-1.60637
  0
LINE
  8
0
 10
-124.939
 20
-1.60637
 11
-124.881
 21
-1.53191
  0
LINE
  8
0
 10
-124.881
 20
-1.53191
 11
-124.818
 21
-1.46123
  0
LINE
  8
0
 10
-124.818
 20
-1.46123
 11
-124.752
 21
-1.39459
  0
LINE
  8
0
 10
-124.752
 20
-1.39459
 11
-124.681
 21
-1.33228
  0
LINE
  8
0
 10
-124.681
 20
-1.33228
 11
-124.607
 21
-1.27452
  0
LINE
  8
0
 10
-124.607
 20
-1.27452
 11
-124.529
 21
-1.22156
  0
LINE
  8
0
 10
-124.529
 20
-1.22156
 11
-124.448
 21
-1.17358
  0
LINE
  8
0
 10
-124.448
 20
-1.17358
 11
-124.364
 21
-1.13081
  0
LINE
  8
0
 10
-124.364
 20
-1.13081
 11
-124.277
 21
-1.09338
  0
LINE
  8
0
 10
-124.277
 20
-1.09338
 11
-124.189
 21
-1.06146
  0
LINE
  8
0
 10
-124.189
 20
-1.06146
 11
-124.098
 21
-1.03517
  0
LINE
  8
0
 10
-124.098
 20
-1.03517
 11
-124.006
 21
-1.01462
  0
LINE
  8
0
 10
-124.006
 20
-1.01462
 11
-123.913
 21
-0.999878
  0
LINE
  8
0
 10
-123.913
 20
-0.999878
 11
-123.819
 21
-0.991013
  0
LINE
  8
0
 10
-123.819
 20
-0.991013
 11
-123.725
 21
-0.988052
  0
LINE
  8
0
 10
-123.725
 20
-0.988052
 11
-123.631
 21
-0.991013
  0
LINE
  8
0
 10
-123.631
 20
-0.991013
 11
-123.537
 21
-0.999878
  0
LINE
  8
0
 10
-123.537
 20
-0.999878
 11
-123.444
 21
-1.01462
  0
LINE
  8
0
 10
-123.444
 20
-1.01462
 11
-123.352
 21
-1.03517
  0
LINE
  8
0
 10
-123.352
 20
-1.03517
 11
-123.261
 21
-1.06146
  0
LINE
  8
0
 10
-123.261
 20
-1.06146
 11
-123.173
 21
-1.09338
  0
LINE
  8
0
 10
-123.173
 20
-1.09338
 11
-123.086
 21
-1.13081
  0
LINE
  8
0
 10
-123.086
 20
-1.13081
 11
-123.002
 21
-1.17358
  0
LINE
  8
0
 10
-123.002
 20
-1.17358
 11
-122.921
 21
-1.22156
  0
LINE
  8
0
 10
-122.921
 20
-1.22156
 11
-122.843
 21
-1.27452
  0
LINE
  8
0
 10
-122.843
 20
-1.27452
 11
-122.769
 21
-1.33228
  0
LINE
  8
0
 10
-122.769
 20
-1.33228
 11
-122.698
 21
-1.39459
  0
LINE
  8
0
 10
-122.698
 20
-1.39459
 11
-122.632
 21
-1.46123
  0
LINE
  8
0
 10
-122.632
 20
-1.46123
 11
-122.569
 21
-1.53191
  0
LINE
  8
0
 10
-122.569
 20
-1.53191
 11
-122.511
 21
-1.60637
  0
LINE
  8
0
 10
-122.511
 20
-1.60637
 11
-122.458
 21
-1.68431
  0
LINE
  8
0
 10
-122.458
 20
-1.68431
 11
-122.411
 21
-1.76541
  0
LINE
  8
0
 10
-122.411
 20
-1.76541
 11
-122.368
 21
-1.84938
  0
LINE
  8
0
 10
-122.368
 20
-1.84938
 11
-122.33
 21
-1.93587
  0
LINE
  8
0
 10
-122.33
 20
-1.93587
 11
-122.298
 21
-2.02452
  0
LINE
  8
0
 10
-122.298
 20
-2.02452
 11
-122.272
 21
-2.11502
  0
LINE
  8
0
 10
-122.272
 20
-2.11502
 11
-122.252
 21
-2.20697
  0
LINE
  8
0
 10
-122.252
 20
-2.20697
 11
-122.237
 21
-2.30005
  0
LINE
  8
0
 10
-122.237
 20
-2.30005
 11
-122.228
 21
-2.39386
  0
LINE
  8
0
 10
-122.228
 20
-2.39386
 11
-122.225
 21
-2.48805
  0
LINE
  8
0
 10
-122.225
 20
-2.48805
 11
-122.228
 21
-2.58223
  0
LINE
  8
0
 10
-122.228
 20
-2.58223
 11
-122.237
 21
-2.67604
  0
LINE
  8
0
 10
-122.237
 20
-2.67604
 11
-122.252
 21
-2.76912
  0
LINE
  8
0
 10
-122.252
 20
-2.76912
 11
-122.272
 21
-2.86108
  0
LINE
  8
0
 10
-122.272
 20
-2.86108
 11
-122.298
 21
-2.95157
  0
LINE
  8
0
 10
-122.298
 20
-2.95157
 11
-122.33
 21
-3.04024
  0
LINE
  8
0
 10
-122.33
 20
-3.04024
 11
-122.368
 21
-3.12672
  0
LINE
  8
0
 10
-122.368
 20
-3.12672
 11
-122.411
 21
-3.21068
  0
LINE
  8
0
 10
-122.411
 20
-3.21068
 11
-122.458
 21
-3.29179
  0
LINE
  8
0
 10
-122.458
 20
-3.29179
 11
-122.511
 21
-3.36972
  0
LINE
  8
0
 10
-122.511
 20
-3.36972
 11
-122.569
 21
-3.44418
  0
LINE
  8
0
 10
-122.569
 20
-3.44418
 11
-122.632
 21
-3.51486
  0
LINE
  8
0
 10
-122.632
 20
-3.51486
 11
-122.698
 21
-3.5815
  0
LINE
  8
0
 10
-122.698
 20
-3.5815
 11
-122.769
 21
-3.64381
  0
LINE
  8
0
 10
-122.769
 20
-3.64381
 11
-122.843
 21
-3.70157
  0
LINE
  8
0
 10
-122.843
 20
-3.70157
 11
-122.921
 21
-3.75455
  0
LINE
  8
0
 10
-122.921
 20
-3.75455
 11
-123.002
 21
-3.80251
  0
LINE
  8
0
 10
-123.002
 20
-3.80251
 11
-123.086
 21
-3.84529
  0
LINE
  8
0
 10
-123.086
 20
-3.84529
 11
-123.173
 21
-3.88271
  0
LINE
  8
0
 10
-123.173
 20
-3.88271
 11
-123.261
 21
-3.91463
  0
LINE
  8
0
 10
-123.261
 20
-3.91463
 11
-123.352
 21
-3.94092
  0
LINE
  8
0
 10
-123.352
 20
-3.94092
 11
-123.444
 21
-3.96147
  0
LINE
  8
0
 10
-123.444
 20
-3.96147
 11
-123.537
 21
-3.97623
  0
LINE
  8
0
 10
-123.537
 20
-3.97623
 11
-123.631
 21
-3.98509
  0
LINE
  8
0
 10
-123.631
 20
-3.98509
 11
-123.725
 21
-3.98805
  0
LINE
  8
0
 10
-123.725
 20
-3.98805
 11
-123.819
 21
-3.98509
  0
LINE
  8
0
 10
13.0495
 20
-16.6218
 11
12.9495
 21
-16.6124
  0
LINE
  8
0
 10
12.9495
 20
-16.6124
 11
12.8502
 21
-16.5966
  0
LINE
  8
0
 10
12.8502
 20
-16.5966
 11
12.7521
 21
-16.5747
  0
LINE
  8
0
 10
12.7521
 20
-16.5747
 11
12.6556
 21
-16.5467
  0
LINE
  8
0
 10
12.6556
 20
-16.5467
 11
12.561
 21
-16.5126
  0
LINE
  8
0
 10
12.561
 20
-16.5126
 11
12.4688
 21
-16.4727
  0
LINE
  8
0
 10
12.4688
 20
-16.4727
 11
12.3792
 21
-16.4271
  0
LINE
  8
0
 10
12.3792
 20
-16.4271
 11
12.2927
 21
-16.3759
  0
LINE
  8
0
 10
12.2927
 20
-16.3759
 11
12.2095
 21
-16.3194
  0
LINE
  8
0
 10
12.2095
 20
-16.3194
 11
12.1301
 21
-16.2578
  0
LINE
  8
0
 10
12.1301
 20
-16.2578
 11
12.0547
 21
-16.1913
  0
LINE
  8
0
 10
12.0547
 20
-16.1913
 11
11.9836
 21
-16.1203
  0
LINE
  8
0
 10
11.9836
 20
-16.1203
 11
11.9172
 21
-16.0449
  0
LINE
  8
0
 10
11.9172
 20
-16.0449
 11
11.8556
 21
-15.9655
  0
LINE
  8
0
 10
11.8556
 20
-15.9655
 11
11.7991
 21
-15.8823
  0
LINE
  8
0
 10
11.7991
 20
-15.8823
 11
11.7479
 21
-15.7958
  0
LINE
  8
0
 10
11.7479
 20
-15.7958
 11
11.7023
 21
-15.7062
  0
LINE
  8
0
 10
11.7023
 20
-15.7062
 11
11.6624
 21
-15.614
  0
LINE
  8
0
 10
11.6624
 20
-15.614
 11
11.6283
 21
-15.5194
  0
LINE
  8
0
 10
11.6283
 20
-15.5194
 11
11.6003
 21
-15.4229
  0
LINE
  8
0
 10
11.6003
 20
-15.4229
 11
11.5783
 21
-15.3248
  0
LINE
  8
0
 10
11.5783
 20
-15.3248
 11
11.5626
 21
-15.2255
  0
LINE
  8
0
 10
11.5626
 20
-15.2255
 11
11.5531
 21
-15.1255
  0
LINE
  8
0
 10
11.5531
 20
-15.1255
 11
11.55
 21
-15.025
  0
LINE
  8
0
 10
11.55
 20
-15.025
 11
11.5531
 21
-14.9245
  0
LINE
  8
0
 10
11.5531
 20
-14.9245
 11
11.5626
 21
-14.8245
  0
LINE
  8
0
 10
11.5626
 20
-14.8245
 11
11.5783
 21
-14.7252
  0
LINE
  8
0
 10
11.5783
 20
-14.7252
 11
11.6003
 21
-14.6271
  0
LINE
  8
0
 10
11.6003
 20
-14.6271
 11
11.6283
 21
-14.5306
  0
LINE
  8
0
 10
11.6283
 20
-14.5306
 11
11.6624
 21
-14.436
  0
LINE
  8
0
 10
11.6624
 20
-14.436
 11
11.7023
 21
-14.3438
  0
LINE
  8
0
 10
11.7023
 20
-14.3438
 11
11.7479
 21
-14.2542
  0
LINE
  8
0
 10
11.7479
 20
-14.2542
 11
11.7991
 21
-14.1677
  0
LINE
  8
0
 10
11.7991
 20
-14.1677
 11
11.8556
 21
-14.0845
  0
LINE
  8
0
 10
11.8556
 20
-14.0845
 11
11.9172
 21
-14.0051
  0
LINE
  8
0
 10
11.9172
 20
-14.0051
 11
11.9836
 21
-13.9297
  0
LINE
  8
0
 10
11.9836
 20
-13.9297
 11
12.0547
 21
-13.8586
  0
LINE
  8
0
 10
12.0547
 20
-13.8586
 11
12.1301
 21
-13.7922
  0
LINE
  8
0
 10
12.1301
 20
-13.7922
 11
12.2095
 21
-13.7306
  0
LINE
  8
0
 10
12.2095
 20
-13.7306
 11
12.2927
 21
-13.6741
  0
LINE
  8
0
 10
12.2927
 20
-13.6741
 11
12.3792
 21
-13.6229
  0
LINE
  8
0
 10
12.3792
 20
-13.6229
 11
12.4688
 21
-13.5773
  0
LINE
  8
0
 10
12.4688
 20
-13.5773
 11
12.561
 21
-13.5374
  0
LINE
  8
0
 10
12.561
 20
-13.5374
 11
12.6556
 21
-13.5033
  0
LINE
  8
0
 10
12.6556
 20
-13.5033
 11
12.7521
 21
-13.4753
  0
LINE
  8
0
 10
12.7521
 20
-13.4753
 11
12.8502
 21
-13.4533
  0
LINE
  8
0
 10
12.8502
 20
-13.4533
 11
12.9495
 21
-13.4376
  0
LINE
  8
0
 10
12.9495
 20
-13.4376
 11
13.0495
 21
-13.4281
  0
LINE
  8
0
 10
13.0495
 20
-13.4281
 11
13.15
 21
-13.425
  0
LINE
  8
0
 10
13.15
 20
-13.425
 11
13.2505
 21
-13.4281
  0
LINE
  8
0
 10
13.2505
 20
-13.4281
 11
13.3505
 21
-13.4376
  0
LINE
  8
0
 10
13.3505
 20
-13.4376
 11
13.4498
 21
-13.4533
  0
LINE
  8
0
 10
13.4498
 20
-13.4533
 11
13.5479
 21
-13.4753
  0
LINE
  8
0
 10
13.5479
 20
-13.4753
 11
13.6444
 21
-13.5033
  0
LINE
  8
0
 10
13.6444
 20
-13.5033
 11
13.739
 21
-13.5374
  0
LINE
  8
0
 10
13.739
 20
-13.5374
 11
13.8312
 21
-13.5773
  0
LINE
  8
0
 10
13.8312
 20
-13.5773
 11
13.9208
 21
-13.6229
  0
LINE
  8
0
 10
13.9208
 20
-13.6229
 11
14.0073
 21
-13.6741
  0
LINE
  8
0
 10
14.0073
 20
-13.6741
 11
14.0905
 21
-13.7306
  0
LINE
  8
0
 10
14.0905
 20
-13.7306
 11
14.1699
 21
-13.7922
  0
LINE
  8
0
 10
14.1699
 20
-13.7922
 11
14.2453
 21
-13.8586
  0
LINE
  8
0
 10
14.2453
 20
-13.8586
 11
14.3163
 21
-13.9297
  0
LINE
  8
0
 10
14.3163
 20
-13.9297
 11
14.3828
 21
-14.0051
  0
LINE
  8
0
 10
14.3828
 20
-14.0051
 11
14.4444
 21
-14.0845
  0
LINE
  8
0
 10
14.4444
 20
-14.0845
 11
14.5009
 21
-14.1677
  0
LINE
  8
0
 10
14.5009
 20
-14.1677
 11
14.5521
 21
-14.2542
  0
LINE
  8
0
 10
14.5521
 20
-14.2542
 11
14.5977
 21
-14.3438
  0
LINE
  8
0
 10
14.5977
 20
-14.3438
 11
14.6376
 21
-14.436
  0
LINE
  8
0
 10
14.6376
 20
-14.436
 11
14.6717
 21
-14.5306
  0
LINE
  8
0
 10
14.6717
 20
-14.5306
 11
14.6997
 21
-14.6271
  0
LINE
  8
0
 10
14.6997
 20
-14.6271
 11
14.7216
 21
-14.7252
  0
LINE
  8
0
 10
14.7216
 20
-14.7252
 11
14.7374
 21
-14.8245
  0
LINE
  8
0
 10
14.7374
 20
-14.8245
 11
14.7468
 21
-14.9245
  0
LINE
  8
0
 10
14.7468
 20
-14.9245
 11
14.75
 21
-15.025
  0
LINE
  8
0
 10
14.75
 20
-15.025
 11
14.7468
 21
-15.1255
  0
LINE
  8
0
 10
14.7468
 20
-15.1255
 11
14.7374
 21
-15.2255
  0
LINE
  8
0
 10
14.7374
 20
-15.2255
 11
14.7216
 21
-15.3248
  0
LINE
  8
0
 10
14.7216
 20
-15.3248
 11
14.6997
 21
-15.4229
  0
LINE
  8
0
 10
14.6997
 20
-15.4229
 11
14.6717
 21
-15.5194
  0
LINE
  8
0
 10
14.6717
 20
-15.5194
 11
14.6376
 21
-15.614
  0
LINE
  8
0
 10
14.6376
 20
-15.614
 11
14.5977
 21
-15.7062
  0
LINE
  8
0
 10
14.5977
 20
-15.7062
 11
14.5521
 21
-15.7958
  0
LINE
  8
0
 10
14.5521
 20
-15.7958
 11
14.5009
 21
-15.8823
  0
LINE
  8
0
 10
14.5009
 20
-15.8823
 11
14.4444
 21
-15.9655
  0
LINE
  8
0
 10
14.4444
 20
-15.9655
 11
14.3828
 21
-16.0449
  0
LINE
  8
0
 10
14.3828
 20
-16.0449
 11
14.3163
 21
-16.1203
  0
LINE
  8
0
 10
14.3163
 20
-16.1203
 11
14.2453
 21
-16.1913
  0
LINE
  8
0
 10
14.2453
 20
-16.1913
 11
14.1699
 21
-16.2578
  0
LINE
  8
0
 10
14.1699
 20
-16.2578
 11
14.0905
 21
-16.3194
  0
LINE
  8
0
 10
14.0905
 20
-16.3194
 11
14.0073
 21
-16.3759
  0
LINE
  8
0
 10
14.0073
 20
-16.3759
 11
13.9208
 21
-16.4271
  0
LINE
  8
0
 10
13.9208
 20
-16.4271
 11
13.8312
 21
-16.4727
  0
LINE
  8
0
 10
13.8312
 20
-16.4727
 11
13.739
 21
-16.5126
  0
LINE
  8
0
 10
13.739
 20
-16.5126
 11
13.6444
 21
-16.5467
  0
LINE
  8
0
 10
13.6444
 20
-16.5467
 11
13.5479
 21
-16.5747
  0
LINE
  8
0
 10
13.5479
 20
-16.5747
 11
13.4498
 21
-16.5966
  0
LINE
  8
0
 10
13.4498
 20
-16.5966
 11
13.3505
 21
-16.6124
  0
LINE
  8
0
 10
13.3505
 20
-16.6124
 11
13.2505
 21
-16.6218
  0
LINE
  8
0
 10
13.2505
 20
-16.6218
 11
13.15
 21
-16.625
  0
LINE
  8
0
 10
13.15
 20
-16.625
 11
13.0495
 21
-16.6218
  0
LINE
  8
0
 10
-11.4052
 20
-16.522
 11
-11.499
 21
-16.5132
  0
LINE
  8
0
 10
-11.499
 20
-16.5132
 11
-11.5921
 21
-16.4984
  0
LINE
  8
0
 10
-11.5921
 20
-16.4984
 11
-11.684
 21
-16.4779
  0
LINE
  8
0
 10
-11.684
 20
-16.4779
 11
-11.7745
 21
-16.4516
  0
LINE
  8
0
 10
-11.7745
 20
-16.4516
 11
-11.8632
 21
-16.4197
  0
LINE
  8
0
 10
-11.8632
 20
-16.4197
 11
-11.9497
 21
-16.3822
  0
LINE
  8
0
 10
-11.9497
 20
-16.3822
 11
-12.0336
 21
-16.3394
  0
LINE
  8
0
 10
-12.0336
 20
-16.3394
 11
-12.1147
 21
-16.2915
  0
LINE
  8
0
 10
-12.1147
 20
-16.2915
 11
-12.1927
 21
-16.2385
  0
LINE
  8
0
 10
-12.1927
 20
-16.2385
 11
-12.2671
 21
-16.1808
  0
LINE
  8
0
 10
-12.2671
 20
-16.1808
 11
-12.3378
 21
-16.1184
  0
LINE
  8
0
 10
-12.3378
 20
-16.1184
 11
-12.4044
 21
-16.0518
  0
LINE
  8
0
 10
-12.4044
 20
-16.0518
 11
-12.4668
 21
-15.9811
  0
LINE
  8
0
 10
-12.4668
 20
-15.9811
 11
-12.5245
 21
-15.9067
  0
LINE
  8
0
 10
-12.5245
 20
-15.9067
 11
-12.5775
 21
-15.8287
  0
LINE
  8
0
 10
-12.5775
 20
-15.8287
 11
-12.6255
 21
-15.7476
  0
LINE
  8
0
 10
-12.6255
 20
-15.7476
 11
-12.6682
 21
-15.6637
  0
LINE
  8
0
 10
-12.6682
 20
-15.6637
 11
-12.7057
 21
-15.5772
  0
LINE
  8
0
 10
-12.7057
 20
-15.5772
 11
-12.7376
 21
-15.4885
  0
LINE
  8
0
 10
-12.7376
 20
-15.4885
 11
-12.7639
 21
-15.398
  0
LINE
  8
0
 10
-12.7639
 20
-15.398
 11
-12.7844
 21
-15.3061
  0
LINE
  8
0
 10
-12.7844
 20
-15.3061
 11
-12.7992
 21
-15.213
  0
LINE
  8
0
 10
-12.7992
 20
-15.213
 11
-12.808
 21
-15.1192
  0
LINE
  8
0
 10
-12.808
 20
-15.1192
 11
-12.811
 21
-15.025
  0
LINE
  8
0
 10
-12.811
 20
-15.025
 11
-12.808
 21
-14.9308
  0
LINE
  8
0
 10
-12.808
 20
-14.9308
 11
-12.7992
 21
-14.837
  0
LINE
  8
0
 10
-12.7992
 20
-14.837
 11
-12.7844
 21
-14.7439
  0
LINE
  8
0
 10
-12.7844
 20
-14.7439
 11
-12.7639
 21
-14.652
  0
LINE
  8
0
 10
-12.7639
 20
-14.652
 11
-12.7376
 21
-14.5615
  0
LINE
  8
0
 10
-12.7376
 20
-14.5615
 11
-12.7057
 21
-14.4728
  0
LINE
  8
0
 10
-12.7057
 20
-14.4728
 11
-12.6682
 21
-14.3863
  0
LINE
  8
0
 10
-12.6682
 20
-14.3863
 11
-12.6255
 21
-14.3024
  0
LINE
  8
0
 10
-12.6255
 20
-14.3024
 11
-12.5775
 21
-14.2213
  0
LINE
  8
0
 10
-12.5775
 20
-14.2213
 11
-12.5245
 21
-14.1433
  0
LINE
  8
0
 10
-12.5245
 20
-14.1433
 11
-12.4668
 21
-14.0689
  0
LINE
  8
0
 10
-12.4668
 20
-14.0689
 11
-12.4044
 21
-13.9982
  0
LINE
  8
0
 10
-12.4044
 20
-13.9982
 11
-12.3378
 21
-13.9315
  0
LINE
  8
0
 10
-12.3378
 20
-13.9315
 11
-12.2671
 21
-13.8692
  0
LINE
  8
0
 10
-12.2671
 20
-13.8692
 11
-12.1927
 21
-13.8115
  0
LINE
  8
0
 10
-12.1927
 20
-13.8115
 11
-12.1147
 21
-13.7585
  0
LINE
  8
0
 10
-12.1147
 20
-13.7585
 11
-12.0336
 21
-13.7105
  0
LINE
  8
0
 10
-12.0336
 20
-13.7105
 11
-11.9497
 21
-13.6678
  0
LINE
  8
0
 10
-11.9497
 20
-13.6678
 11
-11.8632
 21
-13.6303
  0
LINE
  8
0
 10
-11.8632
 20
-13.6303
 11
-11.7745
 21
-13.5984
  0
LINE
  8
0
 10
-11.7745
 20
-13.5984
 11
-11.684
 21
-13.5721
  0
LINE
  8
0
 10
-11.684
 20
-13.5721
 11
-11.5921
 21
-13.5516
  0
LINE
  8
0
 10
-11.5921
 20
-13.5516
 11
-11.499
 21
-13.5368
  0
LINE
  8
0
 10
-11.499
 20
-13.5368
 11
-11.4052
 21
-13.528
  0
LINE
  8
0
 10
-11.4052
 20
-13.528
 11
-11.311
 21
-13.525
  0
LINE
  8
0
 10
-11.311
 20
-13.525
 11
-11.2168
 21
-13.528
  0
LINE
  8
0
 10
-11.2168
 20
-13.528
 11
-11.123
 21
-13.5368
  0
LINE
  8
0
 10
-11.123
 20
-13.5368
 11
-11.0299
 21
-13.5516
  0
LINE
  8
0
 10
-11.0299
 20
-13.5516
 11
-10.938
 21
-13.5721
  0
LINE
  8
0
 10
-10.938
 20
-13.5721
 11
-10.8475
 21
-13.5984
  0
LINE
  8
0
 10
-10.8475
 20
-13.5984
 11
-10.7588
 21
-13.6303
  0
LINE
  8
0
 10
-10.7588
 20
-13.6303
 11
-10.6723
 21
-13.6678
  0
LINE
  8
0
 10
-10.6723
 20
-13.6678
 11
-10.5884
 21
-13.7105
  0
LINE
  8
0
 10
-10.5884
 20
-13.7105
 11
-10.5072
 21
-13.7585
  0
LINE
  8
0
 10
-10.5072
 20
-13.7585
 11
-10.4293
 21
-13.8115
  0
LINE
  8
0
 10
-10.4293
 20
-13.8115
 11
-10.3549
 21
-13.8692
  0
LINE
  8
0
 10
-10.3549
 20
-13.8692
 11
-10.2842
 21
-13.9315
  0
LINE
  8
0
 10
-10.2842
 20
-13.9315
 11
-10.2175
 21
-13.9982
  0
LINE
  8
0
 10
-10.2175
 20
-13.9982
 11
-10.1552
 21
-14.0689
  0
LINE
  8
0
 10
-10.1552
 20
-14.0689
 11
-10.0975
 21
-14.1433
  0
LINE
  8
0
 10
-10.0975
 20
-14.1433
 11
-10.0445
 21
-14.2213
  0
LINE
  8
0
 10
-10.0445
 20
-14.2213
 11
-9.99654
 21
-14.3024
  0
LINE
  8
0
 10
-9.99654
 20
-14.3024
 11
-9.95375
 21
-14.3863
  0
LINE
  8
0
 10
-9.95375
 20
-14.3863
 11
-9.91632
 21
-14.4728
  0
LINE
  8
0
 10
-9.91632
 20
-14.4728
 11
-9.88441
 21
-14.5615
  0
LINE
  8
0
 10
-9.88441
 20
-14.5615
 11
-9.85812
 21
-14.652
  0
LINE
  8
0
 10
-9.85812
 20
-14.652
 11
-9.83755
 21
-14.7439
  0
LINE
  8
0
 10
-9.83755
 20
-14.7439
 11
-9.82281
 21
-14.837
  0
LINE
  8
0
 10
-9.82281
 20
-14.837
 11
-9.81395
 21
-14.9308
  0
LINE
  8
0
 10
-9.81395
 20
-14.9308
 11
-9.81099
 21
-15.025
  0
LINE
  8
0
 10
-9.81099
 20
-15.025
 11
-9.81395
 21
-15.1192
  0
LINE
  8
0
 10
-9.81395
 20
-15.1192
 11
-9.82281
 21
-15.213
  0
LINE
  8
0
 10
-9.82281
 20
-15.213
 11
-9.83755
 21
-15.3061
  0
LINE
  8
0
 10
-9.83755
 20
-15.3061
 11
-9.85812
 21
-15.398
  0
LINE
  8
0
 10
-9.85812
 20
-15.398
 11
-9.88441
 21
-15.4885
  0
LINE
  8
0
 10
-9.88441
 20
-15.4885
 11
-9.91632
 21
-15.5772
  0
LINE
  8
0
 10
-9.91632
 20
-15.5772
 11
-9.95375
 21
-15.6637
  0
LINE
  8
0
 10
-9.95375
 20
-15.6637
 11
-9.99654
 21
-15.7476
  0
LINE
  8
0
 10
-9.99654
 20
-15.7476
 11
-10.0445
 21
-15.8287
  0
LINE
  8
0
 10
-10.0445
 20
-15.8287
 11
-10.0975
 21
-15.9067
  0
LINE
  8
0
 10
-10.0975
 20
-15.9067
 11
-10.1552
 21
-15.9811
  0
LINE
  8
0
 10
-10.1552
 20
-15.9811
 11
-10.2175
 21
-16.0518
  0
LINE
  8
0
 10
-10.2175
 20
-16.0518
 11
-10.2842
 21
-16.1184
  0
LINE
  8
0
 10
-10.2842
 20
-16.1184
 11
-10.3549
 21
-16.1808
  0
LINE
  8
0
 10
-10.3549
 20
-16.1808
 11
-10.4293
 21
-16.2385
  0
LINE
  8
0
 10
-10.4293
 20
-16.2385
 11
-10.5072
 21
-16.2915
  0
LINE
  8
0
 10
-10.5072
 20
-16.2915
 11
-10.5884
 21
-16.3394
  0
LINE
  8
0
 10
-10.5884
 20
-16.3394
 11
-10.6723
 21
-16.3822
  0
LINE
  8
0
 10
-10.6723
 20
-16.3822
 11
-10.7588
 21
-16.4197
  0
LINE
  8
0
 10
-10.7588
 20
-16.4197
 11
-10.8475
 21
-16.4516
  0
LINE
  8
0
 10
-10.8475
 20
-16.4516
 11
-10.938
 21
-16.4779
  0
LINE
  8
0
 10
-10.938
 20
-16.4779
 11
-11.0299
 21
-16.4984
  0
LINE
  8
0
 10
-11.0299
 20
-16.4984
 11
-11.123
 21
-16.5132
  0
LINE
  8
0
 10
-11.123
 20
-16.5132
 11
-11.2168
 21
-16.522
  0
LINE
  8
0
 10
-11.2168
 20
-16.522
 11
-11.311
 21
-16.525
  0
LINE
  8
0
 10
-11.311
 20
-16.525
 11
-11.4052
 21
-16.522
  0
LINE
  8
0
 10
-138.099
 20
-19.6768
 11
-138.199
 21
-19.6674
  0
LINE
  8
0
 10
-138.199
 20
-19.6674
 11
-138.299
 21
-19.6517
  0
LINE
  8
0
 10
-138.299
 20
-19.6517
 11
-138.397
 21
-19.6297
  0
LINE
  8
0
 10
-138.397
 20
-19.6297
 11
-138.493
 21
-19.6017
  0
LINE
  8
0
 10
-138.493
 20
-19.6017
 11
-138.588
 21
-19.5677
  0
LINE
  8
0
 10
-138.588
 20
-19.5677
 11
-138.68
 21
-19.5277
  0
LINE
  8
0
 10
-138.68
 20
-19.5277
 11
-138.77
 21
-19.4821
  0
LINE
  8
0
 10
-138.77
 20
-19.4821
 11
-138.856
 21
-19.4309
  0
LINE
  8
0
 10
-138.856
 20
-19.4309
 11
-138.939
 21
-19.3744
  0
LINE
  8
0
 10
-138.939
 20
-19.3744
 11
-139.019
 21
-19.3128
  0
LINE
  8
0
 10
-139.019
 20
-19.3128
 11
-139.094
 21
-19.2464
  0
LINE
  8
0
 10
-139.094
 20
-19.2464
 11
-139.165
 21
-19.1753
  0
LINE
  8
0
 10
-139.165
 20
-19.1753
 11
-139.232
 21
-19.0999
  0
LINE
  8
0
 10
-139.232
 20
-19.0999
 11
-139.293
 21
-19.0205
  0
LINE
  8
0
 10
-139.293
 20
-19.0205
 11
-139.35
 21
-18.9373
  0
LINE
  8
0
 10
-139.35
 20
-18.9373
 11
-139.401
 21
-18.8508
  0
LINE
  8
0
 10
-139.401
 20
-18.8508
 11
-139.447
 21
-18.7613
  0
LINE
  8
0
 10
-139.447
 20
-18.7613
 11
-139.487
 21
-18.669
  0
LINE
  8
0
 10
-139.487
 20
-18.669
 11
-139.521
 21
-18.5744
  0
LINE
  8
0
 10
-139.521
 20
-18.5744
 11
-139.549
 21
-18.4779
  0
LINE
  8
0
 10
-139.549
 20
-18.4779
 11
-139.571
 21
-18.3798
  0
LINE
  8
0
 10
-139.571
 20
-18.3798
 11
-139.586
 21
-18.2805
  0
LINE
  8
0
 10
-139.586
 20
-18.2805
 11
-139.596
 21
-18.1805
  0
LINE
  8
0
 10
-139.596
 20
-18.1805
 11
-139.599
 21
-18.08
  0
LINE
  8
0
 10
-139.599
 20
-18.08
 11
-139.596
 21
-17.9796
  0
LINE
  8
0
 10
-139.596
 20
-17.9796
 11
-139.586
 21
-17.8795
  0
LINE
  8
0
 10
-139.586
 20
-17.8795
 11
-139.571
 21
-17.7802
  0
LINE
  8
0
 10
-139.571
 20
-17.7802
 11
-139.549
 21
-17.6821
  0
LINE
  8
0
 10
-139.549
 20
-17.6821
 11
-139.521
 21
-17.5856
  0
LINE
  8
0
 10
-139.521
 20
-17.5856
 11
-139.487
 21
-17.491
  0
LINE
  8
0
 10
-139.487
 20
-17.491
 11
-139.447
 21
-17.3988
  0
LINE
  8
0
 10
-139.447
 20
-17.3988
 11
-139.401
 21
-17.3092
  0
LINE
  8
0
 10
-139.401
 20
-17.3092
 11
-139.35
 21
-17.2227
  0
LINE
  8
0
 10
-139.35
 20
-17.2227
 11
-139.293
 21
-17.1396
  0
LINE
  8
0
 10
-139.293
 20
-17.1396
 11
-139.232
 21
-17.0601
  0
LINE
  8
0
 10
-139.232
 20
-17.0601
 11
-139.165
 21
-16.9847
  0
LINE
  8
0
 10
-139.165
 20
-16.9847
 11
-139.094
 21
-16.9137
  0
LINE
  8
0
 10
-139.094
 20
-16.9137
 11
-139.019
 21
-16.8472
  0
LINE
  8
0
 10
-139.019
 20
-16.8472
 11
-138.939
 21
-16.7856
  0
LINE
  8
0
 10
-138.939
 20
-16.7856
 11
-138.856
 21
-16.7291
  0
LINE
  8
0
 10
-138.856
 20
-16.7291
 11
-138.77
 21
-16.6779
  0
LINE
  8
0
 10
-138.77
 20
-16.6779
 11
-138.68
 21
-16.6323
  0
LINE
  8
0
 10
-138.68
 20
-16.6323
 11
-138.588
 21
-16.5924
  0
LINE
  8
0
 10
-138.588
 20
-16.5924
 11
-138.493
 21
-16.5583
  0
LINE
  8
0
 10
-138.493
 20
-16.5583
 11
-138.397
 21
-16.5303
  0
LINE
  8
0
 10
-138.397
 20
-16.5303
 11
-138.299
 21
-16.5083
  0
LINE
  8
0
 10
-138.299
 20
-16.5083
 11
-138.199
 21
-16.4926
  0
LINE
  8
0
 10
-138.199
 20
-16.4926
 11
-138.099
 21
-16.4832
  0
LINE
  8
0
 10
-138.099
 20
-16.4832
 11
-137.999
 21
-16.48
  0
LINE
  8
0
 10
-137.999
 20
-16.48
 11
-137.898
 21
-16.4832
  0
LINE
  8
0
 10
-137.898
 20
-16.4832
 11
-137.798
 21
-16.4926
  0
LINE
  8
0
 10
-137.798
 20
-16.4926
 11
-137.699
 21
-16.5083
  0
LINE
  8
0
 10
-137.699
 20
-16.5083
 11
-137.601
 21
-16.5303
  0
LINE
  8
0
 10
-137.601
 20
-16.5303
 11
-137.505
 21
-16.5583
  0
LINE
  8
0
 10
-137.505
 20
-16.5583
 11
-137.41
 21
-16.5924
  0
LINE
  8
0
 10
-137.41
 20
-16.5924
 11
-137.318
 21
-16.6323
  0
LINE
  8
0
 10
-137.318
 20
-16.6323
 11
-137.228
 21
-16.6779
  0
LINE
  8
0
 10
-137.228
 20
-16.6779
 11
-137.142
 21
-16.7291
  0
LINE
  8
0
 10
-137.142
 20
-16.7291
 11
-137.058
 21
-16.7856
  0
LINE
  8
0
 10
-137.058
 20
-16.7856
 11
-136.979
 21
-16.8472
  0
LINE
  8
0
 10
-136.979
 20
-16.8472
 11
-136.904
 21
-16.9137
  0
LINE
  8
0
 10
-136.904
 20
-16.9137
 11
-136.833
 21
-16.9847
  0
LINE
  8
0
 10
-136.833
 20
-16.9847
 11
-136.766
 21
-17.0601
  0
LINE
  8
0
 10
-136.766
 20
-17.0601
 11
-136.705
 21
-17.1396
  0
LINE
  8
0
 10
-136.705
 20
-17.1396
 11
-136.648
 21
-17.2227
  0
LINE
  8
0
 10
-136.648
 20
-17.2227
 11
-136.597
 21
-17.3092
  0
LINE
  8
0
 10
-136.597
 20
-17.3092
 11
-136.551
 21
-17.3988
  0
LINE
  8
0
 10
-136.551
 20
-17.3988
 11
-136.511
 21
-17.491
  0
LINE
  8
0
 10
-136.511
 20
-17.491
 11
-136.477
 21
-17.5856
  0
LINE
  8
0
 10
-136.477
 20
-17.5856
 11
-136.449
 21
-17.6821
  0
LINE
  8
0
 10
-136.449
 20
-17.6821
 11
-136.427
 21
-17.7802
  0
LINE
  8
0
 10
-136.427
 20
-17.7802
 11
-136.412
 21
-17.8795
  0
LINE
  8
0
 10
-136.412
 20
-17.8795
 11
-136.402
 21
-17.9796
  0
LINE
  8
0
 10
-136.402
 20
-17.9796
 11
-136.399
 21
-18.08
  0
LINE
  8
0
 10
-136.399
 20
-18.08
 11
-136.402
 21
-18.1805
  0
LINE
  8
0
 10
-136.402
 20
-18.1805
 11
-136.412
 21
-18.2805
  0
LINE
  8
0
 10
-136.412
 20
-18.2805
 11
-136.427
 21
-18.3798
  0
LINE
  8
0
 10
-136.427
 20
-18.3798
 11
-136.449
 21
-18.4779
  0
LINE
  8
0
 10
-136.449
 20
-18.4779
 11
-136.477
 21
-18.5744
  0
LINE
  8
0
 10
-136.477
 20
-18.5744
 11
-136.511
 21
-18.669
  0
LINE
  8
0
 10
-136.511
 20
-18.669
 11
-136.551
 21
-18.7613
  0
LINE
  8
0
 10
-136.551
 20
-18.7613
 11
-136.597
 21
-18.8508
  0
LINE
  8
0
 10
-136.597
 20
-18.8508
 11
-136.648
 21
-18.9373
  0
LINE
  8
0
 10
-136.648
 20
-18.9373
 11
-136.705
 21
-19.0205
  0
LINE
  8
0
 10
-136.705
 20
-19.0205
 11
-136.766
 21
-19.0999
  0
LINE
  8
0
 10
-136.766
 20
-19.0999
 11
-136.833
 21
-19.1753
  0
LINE
  8
0
 10
-136.833
 20
-19.1753
 11
-136.904
 21
-19.2464
  0
LINE
  8
0
 10
-136.904
 20
-19.2464
 11
-136.979
 21
-19.3128
  0
LINE
  8
0
 10
-136.979
 20
-19.3128
 11
-137.058
 21
-19.3744
  0
LINE
  8
0
 10
-137.058
 20
-19.3744
 11
-137.142
 21
-19.4309
  0
LINE
  8
0
 10
-137.142
 20
-19.4309
 11
-137.228
 21
-19.4821
  0
LINE
  8
0
 10
-137.228
 20
-19.4821
 11
-137.318
 21
-19.5277
  0
LINE
  8
0
 10
-137.318
 20
-19.5277
 11
-137.41
 21
-19.5677
  0
LINE
  8
0
 10
-137.41
 20
-19.5677
 11
-137.505
 21
-19.6017
  0
LINE
  8
0
 10
-137.505
 20
-19.6017
 11
-137.601
 21
-19.6297
  0
LINE
  8
0
 10
-137.601
 20
-19.6297
 11
-137.699
 21
-19.6517
  0
LINE
  8
0
 10
-137.699
 20
-19.6517
 11
-137.798
 21
-19.6674
  0
LINE
  8
0
 10
-137.798
 20
-19.6674
 11
-137.898
 21
-19.6768
  0
LINE
  8
0
 10
-137.898
 20
-19.6768
 11
-137.999
 21
-19.68
  0
LINE
  8
0
 10
-137.999
 20
-19.68
 11
-138.099
 21
-19.6768
  0
LINE
  8
0
 10
-60.5181
 20
-25.8048
 11
-60.6119
 21
-25.7959
  0
LINE
  8
0
 10
-60.6119
 20
-25.7959
 11
-60.705
 21
-25.7812
  0
LINE
  8
0
 10
-60.705
 20
-25.7812
 11
-60.7969
 21
-25.7606
  0
LINE
  8
0
 10
-60.7969
 20
-25.7606
 11
-60.8874
 21
-25.7343
  0
LINE
  8
0
 10
-60.8874
 20
-25.7343
 11
-60.9761
 21
-25.7024
  0
LINE
  8
0
 10
-60.9761
 20
-25.7024
 11
-61.0625
 21
-25.665
  0
LINE
  8
0
 10
-61.0625
 20
-25.665
 11
-61.1465
 21
-25.6222
  0
LINE
  8
0
 10
-61.1465
 20
-25.6222
 11
-61.2276
 21
-25.5742
  0
LINE
  8
0
 10
-61.2276
 20
-25.5742
 11
-61.3056
 21
-25.5213
  0
LINE
  8
0
 10
-61.3056
 20
-25.5213
 11
-61.38
 21
-25.4635
  0
LINE
  8
0
 10
-61.38
 20
-25.4635
 11
-61.4507
 21
-25.4012
  0
LINE
  8
0
 10
-61.4507
 20
-25.4012
 11
-61.5173
 21
-25.3346
  0
LINE
  8
0
 10
-61.5173
 20
-25.3346
 11
-61.5797
 21
-25.2639
  0
LINE
  8
0
 10
-61.5797
 20
-25.2639
 11
-61.6374
 21
-25.1894
  0
LINE
  8
0
 10
-61.6374
 20
-25.1894
 11
-61.6904
 21
-25.1115
  0
LINE
  8
0
 10
-61.6904
 20
-25.1115
 11
-61.7383
 21
-25.0304
  0
LINE
  8
0
 10
-61.7383
 20
-25.0304
 11
-61.7811
 21
-24.9464
  0
LINE
  8
0
 10
-61.7811
 20
-24.9464
 11
-61.8185
 21
-24.8599
  0
LINE
  8
0
 10
-61.8185
 20
-24.8599
 11
-61.8505
 21
-24.7713
  0
LINE
  8
0
 10
-61.8505
 20
-24.7713
 11
-61.8768
 21
-24.6808
  0
LINE
  8
0
 10
-61.8768
 20
-24.6808
 11
-61.8973
 21
-24.5888
  0
LINE
  8
0
 10
-61.8973
 20
-24.5888
 11
-61.912
 21
-24.4957
  0
LINE
  8
0
 10
-61.912
 20
-24.4957
 11
-61.9209
 21
-24.4019
  0
LINE
  8
0
 10
-61.9209
 20
-24.4019
 11
-61.9239
 21
-24.3077
  0
LINE
  8
0
 10
-61.9239
 20
-24.3077
 11
-61.9209
 21
-24.2136
  0
LINE
  8
0
 10
-61.9209
 20
-24.2136
 11
-61.912
 21
-24.1198
  0
LINE
  8
0
 10
-61.912
 20
-24.1198
 11
-61.8973
 21
-24.0267
  0
LINE
  8
0
 10
-61.8973
 20
-24.0267
 11
-61.8768
 21
-23.9347
  0
LINE
  8
0
 10
-61.8768
 20
-23.9347
 11
-61.8505
 21
-23.8442
  0
LINE
  8
0
 10
-61.8505
 20
-23.8442
 11
-61.8185
 21
-23.7556
  0
LINE
  8
0
 10
-61.8185
 20
-23.7556
 11
-61.7811
 21
-23.6691
  0
LINE
  8
0
 10
-61.7811
 20
-23.6691
 11
-61.7383
 21
-23.5851
  0
LINE
  8
0
 10
-61.7383
 20
-23.5851
 11
-61.6904
 21
-23.504
  0
LINE
  8
0
 10
-61.6904
 20
-23.504
 11
-61.6374
 21
-23.4261
  0
LINE
  8
0
 10
-61.6374
 20
-23.4261
 11
-61.5797
 21
-23.3516
  0
LINE
  8
0
 10
-61.5797
 20
-23.3516
 11
-61.5173
 21
-23.2809
  0
LINE
  8
0
 10
-61.5173
 20
-23.2809
 11
-61.4507
 21
-23.2143
  0
LINE
  8
0
 10
-61.4507
 20
-23.2143
 11
-61.38
 21
-23.152
  0
LINE
  8
0
 10
-61.38
 20
-23.152
 11
-61.3056
 21
-23.0942
  0
LINE
  8
0
 10
-61.3056
 20
-23.0942
 11
-61.2276
 21
-23.0412
  0
LINE
  8
0
 10
-61.2276
 20
-23.0412
 11
-61.1465
 21
-22.9933
  0
LINE
  8
0
 10
-61.1465
 20
-22.9933
 11
-61.0625
 21
-22.9505
  0
LINE
  8
0
 10
-61.0625
 20
-22.9505
 11
-60.9761
 21
-22.9131
  0
LINE
  8
0
 10
-60.9761
 20
-22.9131
 11
-60.8874
 21
-22.8812
  0
LINE
  8
0
 10
-60.8874
 20
-22.8812
 11
-60.7969
 21
-22.8549
  0
LINE
  8
0
 10
-60.7969
 20
-22.8549
 11
-60.705
 21
-22.8343
  0
LINE
  8
0
 10
-60.705
 20
-22.8343
 11
-60.6119
 21
-22.8196
  0
LINE
  8
0
 10
-60.6119
 20
-22.8196
 11
-60.5181
 21
-22.8107
  0
LINE
  8
0
 10
-60.5181
 20
-22.8107
 11
-60.4239
 21
-22.8077
  0
LINE
  8
0
 10
-60.4239
 20
-22.8077
 11
-60.3297
 21
-22.8107
  0
LINE
  8
0
 10
-60.3297
 20
-22.8107
 11
-60.2359
 21
-22.8196
  0
LINE
  8
0
 10
-60.2359
 20
-22.8196
 11
-60.1428
 21
-22.8343
  0
LINE
  8
0
 10
-60.1428
 20
-22.8343
 11
-60.0508
 21
-22.8549
  0
LINE
  8
0
 10
-60.0508
 20
-22.8549
 11
-59.9604
 21
-22.8812
  0
LINE
  8
0
 10
-59.9604
 20
-22.8812
 11
-59.8717
 21
-22.9131
  0
LINE
  8
0
 10
-59.8717
 20
-22.9131
 11
-59.7852
 21
-22.9505
  0
LINE
  8
0
 10
-59.7852
 20
-22.9505
 11
-59.7012
 21
-22.9933
  0
LINE
  8
0
 10
-59.7012
 20
-22.9933
 11
-59.6201
 21
-23.0412
  0
LINE
  8
0
 10
-59.6201
 20
-23.0412
 11
-59.5422
 21
-23.0942
  0
LINE
  8
0
 10
-59.5422
 20
-23.0942
 11
-59.4677
 21
-23.152
  0
LINE
  8
0
 10
-59.4677
 20
-23.152
 11
-59.3971
 21
-23.2143
  0
LINE
  8
0
 10
-59.3971
 20
-23.2143
 11
-59.3304
 21
-23.2809
  0
LINE
  8
0
 10
-59.3304
 20
-23.2809
 11
-59.2681
 21
-23.3516
  0
LINE
  8
0
 10
-59.2681
 20
-23.3516
 11
-59.2104
 21
-23.4261
  0
LINE
  8
0
 10
-59.2104
 20
-23.4261
 11
-59.1574
 21
-23.504
  0
LINE
  8
0
 10
-59.1574
 20
-23.504
 11
-59.1094
 21
-23.5851
  0
LINE
  8
0
 10
-59.1094
 20
-23.5851
 11
-59.0666
 21
-23.6691
  0
LINE
  8
0
 10
-59.0666
 20
-23.6691
 11
-59.0292
 21
-23.7556
  0
LINE
  8
0
 10
-59.0292
 20
-23.7556
 11
-58.9973
 21
-23.8442
  0
LINE
  8
0
 10
-58.9973
 20
-23.8442
 11
-58.971
 21
-23.9347
  0
LINE
  8
0
 10
-58.971
 20
-23.9347
 11
-58.9505
 21
-24.0267
  0
LINE
  8
0
 10
-58.9505
 20
-24.0267
 11
-58.9357
 21
-24.1198
  0
LINE
  8
0
 10
-58.9357
 20
-24.1198
 11
-58.9268
 21
-24.2136
  0
LINE
  8
0
 10
-58.9268
 20
-24.2136
 11
-58.9239
 21
-24.3077
  0
LINE
  8
0
 10
-58.9239
 20
-24.3077
 11
-58.9268
 21
-24.4019
  0
LINE
  8
0
 10
-58.9268
 20
-24.4019
 11
-58.9357
 21
-24.4957
  0
LINE
  8
0
 10
-58.9357
 20
-24.4957
 11
-58.9505
 21
-24.5888
  0
LINE
  8
0
 10
-58.9505
 20
-24.5888
 11
-58.971
 21
-24.6808
  0
LINE
  8
0
 10
-58.971
 20
-24.6808
 11
-58.9973
 21
-24.7713
  0
LINE
  8
0
 10
-58.9973
 20
-24.7713
 11
-59.0292
 21
-24.8599
  0
LINE
  8
0
 10
-59.0292
 20
-24.8599
 11
-59.0666
 21
-24.9464
  0
LINE
  8
0
 10
-59.0666
 20
-24.9464
 11
-59.1094
 21
-25.0304
  0
LINE
  8
0
 10
-59.1094
 20
-25.0304
 11
-59.1574
 21
-25.1115
  0
LINE
  8
0
 10
-59.1574
 20
-25.1115
 11
-59.2104
 21
-25.1894
  0
LINE
  8
0
 10
-59.2104
 20
-25.1894
 11
-59.2681
 21
-25.2639
  0
LINE
  8
0
 10
-59.2681
 20
-25.2639
 11
-59.3304
 21
-25.3346
  0
LINE
  8
0
 10
-59.3304
 20
-25.3346
 11
-59.3971
 21
-25.4012
  0
LINE
  8
0
 10
-59.3971
 20
-25.4012
 11
-59.4677
 21
-25.4635
  0
LINE
  8
0
 10
-59.4677
 20
-25.4635
 11
-59.5422
 21
-25.5213
  0
LINE
  8
0
 10
-59.5422
 20
-25.5213
 11
-59.6201
 21
-25.5742
  0
LINE
  8
0
 10
-59.6201
 20
-25.5742
 11
-59.7012
 21
-25.6222
  0
LINE
  8
0
 10
-59.7012
 20
-25.6222
 11
-59.7852
 21
-25.665
  0
LINE
  8
0
 10
-59.7852
 20
-25.665
 11
-59.8717
 21
-25.7024
  0
LINE
  8
0
 10
-59.8717
 20
-25.7024
 11
-59.9604
 21
-25.7343
  0
LINE
  8
0
 10
-59.9604
 20
-25.7343
 11
-60.0508
 21
-25.7606
  0
LINE
  8
0
 10
-60.0508
 20
-25.7606
 11
-60.1428
 21
-25.7812
  0
LINE
  8
0
 10
-60.1428
 20
-25.7812
 11
-60.2359
 21
-25.7959
  0
LINE
  8
0
 10
-60.2359
 20
-25.7959
 11
-60.3297
 21
-25.8048
  0
LINE
  8
0
 10
-60.3297
 20
-25.8048
 11
-60.4239
 21
-25.8077
  0
LINE
  8
0
 10
-60.4239
 20
-25.8077
 11
-60.5181
 21
-25.8048
  0
LINE
  8
0
 10
-103.38
 20
-54.3958
 11
-103.481
 21
-54.3863
  0
LINE
  8
0
 10
-103.481
 20
-54.3863
 11
-103.58
 21
-54.3706
  0
LINE
  8
0
 10
-103.58
 20
-54.3706
 11
-103.678
 21
-54.3487
  0
LINE
  8
0
 10
-103.678
 20
-54.3487
 11
-103.774
 21
-54.3206
  0
LINE
  8
0
 10
-103.774
 20
-54.3206
 11
-103.869
 21
-54.2866
  0
LINE
  8
0
 10
-103.869
 20
-54.2866
 11
-103.961
 21
-54.2467
  0
LINE
  8
0
 10
-103.961
 20
-54.2467
 11
-104.051
 21
-54.201
  0
LINE
  8
0
 10
-104.051
 20
-54.201
 11
-104.137
 21
-54.1499
  0
LINE
  8
0
 10
-104.137
 20
-54.1499
 11
-104.22
 21
-54.0934
  0
LINE
  8
0
 10
-104.22
 20
-54.0934
 11
-104.3
 21
-54.0318
  0
LINE
  8
0
 10
-104.3
 20
-54.0318
 11
-104.375
 21
-53.9653
  0
LINE
  8
0
 10
-104.375
 20
-53.9653
 11
-104.446
 21
-53.8942
  0
LINE
  8
0
 10
-104.446
 20
-53.8942
 11
-104.513
 21
-53.8188
  0
LINE
  8
0
 10
-104.513
 20
-53.8188
 11
-104.574
 21
-53.7394
  0
LINE
  8
0
 10
-104.574
 20
-53.7394
 11
-104.631
 21
-53.6563
  0
LINE
  8
0
 10
-104.631
 20
-53.6563
 11
-104.682
 21
-53.5698
  0
LINE
  8
0
 10
-104.682
 20
-53.5698
 11
-104.728
 21
-53.4802
  0
LINE
  8
0
 10
-104.728
 20
-53.4802
 11
-104.768
 21
-53.388
  0
LINE
  8
0
 10
-104.768
 20
-53.388
 11
-104.802
 21
-53.2934
  0
LINE
  8
0
 10
-104.802
 20
-53.2934
 11
-104.83
 21
-53.1969
  0
LINE
  8
0
 10
-104.83
 20
-53.1969
 11
-104.852
 21
-53.0988
  0
LINE
  8
0
 10
-104.852
 20
-53.0988
 11
-104.867
 21
-52.9995
  0
LINE
  8
0
 10
-104.867
 20
-52.9995
 11
-104.877
 21
-52.8994
  0
LINE
  8
0
 10
-104.877
 20
-52.8994
 11
-104.88
 21
-52.799
  0
LINE
  8
0
 10
-104.88
 20
-52.799
 11
-104.877
 21
-52.6985
  0
LINE
  8
0
 10
-104.877
 20
-52.6985
 11
-104.867
 21
-52.5984
  0
LINE
  8
0
 10
-104.867
 20
-52.5984
 11
-104.852
 21
-52.4991
  0
LINE
  8
0
 10
-104.852
 20
-52.4991
 11
-104.83
 21
-52.401
  0
LINE
  8
0
 10
-104.83
 20
-52.401
 11
-104.802
 21
-52.3045
  0
LINE
  8
0
 10
-104.802
 20
-52.3045
 11
-104.768
 21
-52.21
  0
LINE
  8
0
 10
-104.768
 20
-52.21
 11
-104.728
 21
-52.1177
  0
LINE
  8
0
 10
-104.728
 20
-52.1177
 11
-104.682
 21
-52.0282
  0
LINE
  8
0
 10
-104.682
 20
-52.0282
 11
-104.631
 21
-51.9416
  0
LINE
  8
0
 10
-104.631
 20
-51.9416
 11
-104.574
 21
-51.8585
  0
LINE
  8
0
 10
-104.574
 20
-51.8585
 11
-104.513
 21
-51.7791
  0
LINE
  8
0
 10
-104.513
 20
-51.7791
 11
-104.446
 21
-51.7037
  0
LINE
  8
0
 10
-104.446
 20
-51.7037
 11
-104.375
 21
-51.6326
  0
LINE
  8
0
 10
-104.375
 20
-51.6326
 11
-104.3
 21
-51.5661
  0
LINE
  8
0
 10
-104.3
 20
-51.5661
 11
-104.22
 21
-51.5045
  0
LINE
  8
0
 10
-104.22
 20
-51.5045
 11
-104.137
 21
-51.448
  0
LINE
  8
0
 10
-104.137
 20
-51.448
 11
-104.051
 21
-51.3969
  0
LINE
  8
0
 10
-104.051
 20
-51.3969
 11
-103.961
 21
-51.3512
  0
LINE
  8
0
 10
-103.961
 20
-51.3512
 11
-103.869
 21
-51.3113
  0
LINE
  8
0
 10
-103.869
 20
-51.3113
 11
-103.774
 21
-51.2773
  0
LINE
  8
0
 10
-103.774
 20
-51.2773
 11
-103.678
 21
-51.2492
  0
LINE
  8
0
 10
-103.678
 20
-51.2492
 11
-103.58
 21
-51.2273
  0
LINE
  8
0
 10
-103.58
 20
-51.2273
 11
-103.481
 21
-51.2116
  0
LINE
  8
0
 10
-103.481
 20
-51.2116
 11
-103.38
 21
-51.2021
  0
LINE
  8
0
 10
-103.38
 20
-51.2021
 11
-103.28
 21
-51.199
  0
LINE
  8
0
 10
-103.28
 20
-51.199
 11
-103.18
 21
-51.2021
  0
LINE
  8
0
 10
-103.18
 20
-51.2021
 11
-103.079
 21
-51.2116
  0
LINE
  8
0
 10
-103.079
 20
-51.2116
 11
-102.98
 21
-51.2273
  0
LINE
  8
0
 10
-102.98
 20
-51.2273
 11
-102.882
 21
-51.2492
  0
LINE
  8
0
 10
-102.882
 20
-51.2492
 11
-102.786
 21
-51.2773
  0
LINE
  8
0
 10
-102.786
 20
-51.2773
 11
-102.691
 21
-51.3113
  0
LINE
  8
0
 10
-102.691
 20
-51.3113
 11
-102.599
 21
-51.3512
  0
LINE
  8
0
 10
-102.599
 20
-51.3512
 11
-102.509
 21
-51.3969
  0
LINE
  8
0
 10
-102.509
 20
-51.3969
 11
-102.423
 21
-51.448
  0
LINE
  8
0
 10
-102.423
 20
-51.448
 11
-102.34
 21
-51.5045
  0
LINE
  8
0
 10
-102.34
 20
-51.5045
 11
-102.26
 21
-51.5661
  0
LINE
  8
0
 10
-102.26
 20
-51.5661
 11
-102.185
 21
-51.6326
  0
LINE
  8
0
 10
-102.185
 20
-51.6326
 11
-102.114
 21
-51.7037
  0
LINE
  8
0
 10
-102.114
 20
-51.7037
 11
-102.047
 21
-51.7791
  0
LINE
  8
0
 10
-102.047
 20
-51.7791
 11
-101.986
 21
-51.8585
  0
LINE
  8
0
 10
-101.986
 20
-51.8585
 11
-101.929
 21
-51.9416
  0
LINE
  8
0
 10
-101.929
 20
-51.9416
 11
-101.878
 21
-52.0282
  0
LINE
  8
0
 10
-101.878
 20
-52.0282
 11
-101.832
 21
-52.1177
  0
LINE
  8
0
 10
-101.832
 20
-52.1177
 11
-101.792
 21
-52.21
  0
LINE
  8
0
 10
-101.792
 20
-52.21
 11
-101.758
 21
-52.3045
  0
LINE
  8
0
 10
-101.758
 20
-52.3045
 11
-101.73
 21
-52.401
  0
LINE
  8
0
 10
-101.73
 20
-52.401
 11
-101.708
 21
-52.4991
  0
LINE
  8
0
 10
-101.708
 20
-52.4991
 11
-101.693
 21
-52.5984
  0
LINE
  8
0
 10
-101.693
 20
-52.5984
 11
-101.683
 21
-52.6985
  0
LINE
  8
0
 10
-101.683
 20
-52.6985
 11
-101.68
 21
-52.799
  0
LINE
  8
0
 10
-101.68
 20
-52.799
 11
-101.683
 21
-52.8994
  0
LINE
  8
0
 10
-101.683
 20
-52.8994
 11
-101.693
 21
-52.9995
  0
LINE
  8
0
 10
-101.693
 20
-52.9995
 11
-101.708
 21
-53.0988
  0
LINE
  8
0
 10
-101.708
 20
-53.0988
 11
-101.73
 21
-53.1969
  0
LINE
  8
0
 10
-101.73
 20
-53.1969
 11
-101.758
 21
-53.2934
  0
LINE
  8
0
 10
-101.758
 20
-53.2934
 11
-101.792
 21
-53.388
  0
LINE
  8
0
 10
-101.792
 20
-53.388
 11
-101.832
 21
-53.4802
  0
LINE
  8
0
 10
-101.832
 20
-53.4802
 11
-101.878
 21
-53.5698
  0
LINE
  8
0
 10
-101.878
 20
-53.5698
 11
-101.929
 21
-53.6563
  0
LINE
  8
0
 10
-101.929
 20
-53.6563
 11
-101.986
 21
-53.7394
  0
LINE
  8
0
 10
-101.986
 20
-53.7394
 11
-102.047
 21
-53.8188
  0
LINE
  8
0
 10
-102.047
 20
-53.8188
 11
-102.114
 21
-53.8942
  0
LINE
  8
0
 10
-102.114
 20
-53.8942
 11
-102.185
 21
-53.9653
  0
LINE
  8
0
 10
-102.185
 20
-53.9653
 11
-102.26
 21
-54.0318
  0
LINE
  8
0
 10
-102.26
 20
-54.0318
 11
-102.34
 21
-54.0934
  0
LINE
  8
0
 10
-102.34
 20
-54.0934
 11
-102.423
 21
-54.1499
  0
LINE
  8
0
 10
-102.423
 20
-54.1499
 11
-102.509
 21
-54.201
  0
LINE
  8
0
 10
-102.509
 20
-54.201
 11
-102.599
 21
-54.2467
  0
LINE
  8
0
 10
-102.599
 20
-54.2467
 11
-102.691
 21
-54.2866
  0
LINE
  8
0
 10
-102.691
 20
-54.2866
 11
-102.786
 21
-54.3206
  0
LINE
  8
0
 10
-102.786
 20
-54.3206
 11
-102.882
 21
-54.3487
  0
LINE
  8
0
 10
-102.882
 20
-54.3487
 11
-102.98
 21
-54.3706
  0
LINE
  8
0
 10
-102.98
 20
-54.3706
 11
-103.079
 21
-54.3863
  0
LINE
  8
0
 10
-103.079
 20
-54.3863
 11
-103.18
 21
-54.3958
  0
LINE
  8
0
 10
-103.18
 20
-54.3958
 11
-103.28
 21
-54.399
  0
LINE
  8
0
 10
-103.28
 20
-54.399
 11
-103.38
 21
-54.3958
  0
ENDSEC
  0
SECTION
  2
OBJECTS
  0
DICTIONARY
  0
ENDSEC
  0
EOF
