  0
SECTION
  2
BLOCKS
  0
ENDSEC
  0
SECTION
  2
ENTITIES
  0
LINE
  8
0
 10
-47.8043
 20
-77.9174
 11
-47.6796
 21
-77.9016
  0
LINE
  8
0
 10
-47.6796
 20
-77.9016
 11
-47.5562
 21
-77.8781
  0
LINE
  8
0
 10
-47.5562
 20
-77.8781
 11
-47.4345
 21
-77.8468
  0
LINE
  8
0
 10
-47.4345
 20
-77.8468
 11
-47.315
 21
-77.808
  0
LINE
  8
0
 10
-47.315
 20
-77.808
 11
-47.1982
 21
-77.7618
  0
LINE
  8
0
 10
-47.1982
 20
-77.7618
 11
-47.0845
 21
-77.7083
  0
LINE
  8
0
 10
-47.0845
 20
-77.7083
 11
-46.9744
 21
-77.6477
  0
LINE
  8
0
 10
-46.9744
 20
-77.6477
 11
-46.8683
 21
-77.5804
  0
LINE
  8
0
 10
-46.8683
 20
-77.5804
 11
-46.7667
 21
-77.5066
  0
LINE
  8
0
 10
-46.7667
 20
-77.5066
 11
-46.6699
 21
-77.4265
  0
LINE
  8
0
 10
-46.6699
 20
-77.4265
 11
-46.5783
 21
-77.3405
  0
LINE
  8
0
 10
-46.5783
 20
-77.3405
 11
-34.982
 21
-65.7442
  0
LINE
  8
0
 10
-34.982
 20
-65.7442
 11
-31.9899
 21
-62.9344
  0
LINE
  8
0
 10
-31.9899
 20
-62.9344
 11
-28.9232
 21
-60.3974
  0
LINE
  8
0
 10
-28.9232
 20
-60.3974
 11
-25.7042
 21
-58.0587
  0
LINE
  8
0
 10
-25.7042
 20
-58.0587
 11
-22.3442
 21
-55.9263
  0
LINE
  8
0
 10
-22.3442
 20
-55.9263
 11
-18.8567
 21
-54.0091
  0
LINE
  8
0
 10
-18.8567
 20
-54.0091
 11
-15.2562
 21
-52.3148
  0
LINE
  8
0
 10
-15.2562
 20
-52.3148
 11
-11.5561
 21
-50.8499
  0
LINE
  8
0
 10
-11.5561
 20
-50.8499
 11
-7.77149
 21
-49.6202
  0
LINE
  8
0
 10
-7.77149
 20
-49.6202
 11
-3.91677
 21
-48.6304
  0
LINE
  8
0
 10
-3.91677
 20
-48.6304
 11
-0.00795593
 21
-47.8848
  0
LINE
  8
0
 10
-0.00795593
 20
-47.8848
 11
3.94003
 21
-47.386
  0
LINE
  8
0
 10
3.94003
 20
-47.386
 11
7.91161
 21
-47.1362
  0
LINE
  8
0
 10
7.91161
 20
-47.1362
 11
11.0104
 21
-47.1362
  0
LINE
  8
0
 10
11.0104
 20
-47.1362
 11
11.1359
 21
-47.1322
  0
LINE
  8
0
 10
11.1359
 20
-47.1322
 11
11.261
 21
-47.1204
  0
LINE
  8
0
 10
11.261
 20
-47.1204
 11
11.3838
 21
-47.101
  0
LINE
  8
0
 10
11.3838
 20
-47.101
 11
45.4765
 21
-47.101
  0
LINE
  8
0
 10
45.4765
 20
-47.101
 11
45.6021
 21
-47.097
  0
LINE
  8
0
 10
45.6021
 20
-47.097
 11
45.7272
 21
-47.0852
  0
LINE
  8
0
 10
45.7272
 20
-47.0852
 11
45.8513
 21
-47.0655
  0
LINE
  8
0
 10
45.8513
 20
-47.0655
 11
45.9739
 21
-47.0381
  0
LINE
  8
0
 10
45.9739
 20
-47.0381
 11
46.0945
 21
-47.0031
  0
LINE
  8
0
 10
46.0945
 20
-47.0031
 11
46.2128
 21
-46.9605
  0
LINE
  8
0
 10
46.2128
 20
-46.9605
 11
46.3281
 21
-46.9106
  0
LINE
  8
0
 10
46.3281
 20
-46.9106
 11
46.44
 21
-46.8536
  0
LINE
  8
0
 10
46.44
 20
-46.8536
 11
46.5482
 21
-46.7896
  0
LINE
  8
0
 10
46.5482
 20
-46.7896
 11
46.6521
 21
-46.719
  0
LINE
  8
0
 10
46.6521
 20
-46.719
 11
46.7514
 21
-46.642
  0
LINE
  8
0
 10
46.7514
 20
-46.642
 11
46.8456
 21
-46.5589
  0
LINE
  8
0
 10
46.8456
 20
-46.5589
 11
46.9344
 21
-46.4701
  0
LINE
  8
0
 10
46.9344
 20
-46.4701
 11
47.0175
 21
-46.3758
  0
LINE
  8
0
 10
47.0175
 20
-46.3758
 11
47.0945
 21
-46.2765
  0
LINE
  8
0
 10
47.0945
 20
-46.2765
 11
47.1652
 21
-46.1726
  0
LINE
  8
0
 10
47.1652
 20
-46.1726
 11
47.2291
 21
-46.0645
  0
LINE
  8
0
 10
47.2291
 20
-46.0645
 11
47.2862
 21
-45.9525
  0
LINE
  8
0
 10
47.2862
 20
-45.9525
 11
47.3361
 21
-45.8372
  0
LINE
  8
0
 10
47.3361
 20
-45.8372
 11
47.3786
 21
-45.719
  0
LINE
  8
0
 10
47.3786
 20
-45.719
 11
47.4137
 21
-45.5983
  0
LINE
  8
0
 10
47.4137
 20
-45.5983
 11
47.4411
 21
-45.4757
  0
LINE
  8
0
 10
47.4411
 20
-45.4757
 11
47.4607
 21
-45.3516
  0
LINE
  8
0
 10
47.4607
 20
-45.3516
 11
47.4726
 21
-45.2265
  0
LINE
  8
0
 10
47.4726
 20
-45.2265
 11
47.4765
 21
-45.101
  0
LINE
  8
0
 10
47.4765
 20
-45.101
 11
47.4765
 21
-39.531
  0
LINE
  8
0
 10
47.4765
 20
-39.531
 11
69.9375
 21
-39.531
  0
LINE
  8
0
 10
69.9375
 20
-39.531
 11
70.0631
 21
-39.527
  0
LINE
  8
0
 10
70.0631
 20
-39.527
 11
70.1882
 21
-39.5152
  0
LINE
  8
0
 10
70.1882
 20
-39.5152
 11
70.3122
 21
-39.4955
  0
LINE
  8
0
 10
70.3122
 20
-39.4955
 11
70.4349
 21
-39.4681
  0
LINE
  8
0
 10
70.4349
 20
-39.4681
 11
70.5555
 21
-39.4331
  0
LINE
  8
0
 10
70.5555
 20
-39.4331
 11
70.6737
 21
-39.3905
  0
LINE
  8
0
 10
70.6737
 20
-39.3905
 11
70.7891
 21
-39.3406
  0
LINE
  8
0
 10
70.7891
 20
-39.3406
 11
70.901
 21
-39.2836
  0
LINE
  8
0
 10
70.901
 20
-39.2836
 11
71.0091
 21
-39.2196
  0
LINE
  8
0
 10
71.0091
 20
-39.2196
 11
71.1131
 21
-39.149
  0
LINE
  8
0
 10
71.1131
 20
-39.149
 11
71.2123
 21
-39.072
  0
LINE
  8
0
 10
71.2123
 20
-39.072
 11
71.3066
 21
-38.9889
  0
LINE
  8
0
 10
71.3066
 20
-38.9889
 11
71.3954
 21
-38.9001
  0
LINE
  8
0
 10
71.3954
 20
-38.9001
 11
71.4785
 21
-38.8058
  0
LINE
  8
0
 10
71.4785
 20
-38.8058
 11
71.5555
 21
-38.7065
  0
LINE
  8
0
 10
71.5555
 20
-38.7065
 11
71.6262
 21
-38.6026
  0
LINE
  8
0
 10
71.6262
 20
-38.6026
 11
71.6901
 21
-38.4945
  0
LINE
  8
0
 10
71.6901
 20
-38.4945
 11
71.7471
 21
-38.3825
  0
LINE
  8
0
 10
71.7471
 20
-38.3825
 11
71.7971
 21
-38.2672
  0
LINE
  8
0
 10
71.7971
 20
-38.2672
 11
71.8396
 21
-38.149
  0
LINE
  8
0
 10
71.8396
 20
-38.149
 11
71.8747
 21
-38.0283
  0
LINE
  8
0
 10
71.8747
 20
-38.0283
 11
71.9021
 21
-37.9057
  0
LINE
  8
0
 10
71.9021
 20
-37.9057
 11
71.9217
 21
-37.7816
  0
LINE
  8
0
 10
71.9217
 20
-37.7816
 11
71.9335
 21
-37.6566
  0
LINE
  8
0
 10
71.9335
 20
-37.6566
 11
71.9375
 21
-37.531
  0
LINE
  8
0
 10
71.9375
 20
-37.531
 11
71.9375
 21
41.2079
  0
LINE
  8
0
 10
71.9375
 20
41.2079
 11
71.9335
 21
41.3335
  0
LINE
  8
0
 10
71.9335
 20
41.3335
 11
71.9217
 21
41.4586
  0
LINE
  8
0
 10
71.9217
 20
41.4586
 11
71.9021
 21
41.5827
  0
LINE
  8
0
 10
71.9021
 20
41.5827
 11
71.8747
 21
41.7053
  0
LINE
  8
0
 10
71.8747
 20
41.7053
 11
71.8396
 21
41.8259
  0
LINE
  8
0
 10
71.8396
 20
41.8259
 11
71.7971
 21
41.9442
  0
LINE
  8
0
 10
71.7971
 20
41.9442
 11
71.7471
 21
42.0595
  0
LINE
  8
0
 10
71.7471
 20
42.0595
 11
71.6901
 21
42.1714
  0
LINE
  8
0
 10
71.6901
 20
42.1714
 11
71.6262
 21
42.2796
  0
LINE
  8
0
 10
71.6262
 20
42.2796
 11
71.5555
 21
42.3835
  0
LINE
  8
0
 10
71.5555
 20
42.3835
 11
71.4785
 21
42.4828
  0
LINE
  8
0
 10
71.4785
 20
42.4828
 11
71.3954
 21
42.577
  0
LINE
  8
0
 10
71.3954
 20
42.577
 11
71.3066
 21
42.6659
  0
LINE
  8
0
 10
71.3066
 20
42.6659
 11
71.2123
 21
42.7489
  0
LINE
  8
0
 10
71.2123
 20
42.7489
 11
71.1131
 21
42.8259
  0
LINE
  8
0
 10
71.1131
 20
42.8259
 11
71.0091
 21
42.8966
  0
LINE
  8
0
 10
71.0091
 20
42.8966
 11
70.901
 21
42.9605
  0
LINE
  8
0
 10
70.901
 20
42.9605
 11
70.7891
 21
43.0176
  0
LINE
  8
0
 10
70.7891
 20
43.0176
 11
70.6737
 21
43.0675
  0
LINE
  8
0
 10
70.6737
 20
43.0675
 11
70.615
 21
43.0897
  0
LINE
  8
0
 10
70.615
 20
43.0897
 11
60.9824
 21
46.5576
  0
LINE
  8
0
 10
60.9824
 20
46.5576
 11
60.8629
 21
46.5964
  0
LINE
  8
0
 10
60.8629
 20
46.5964
 11
51.023
 21
49.4552
  0
LINE
  8
0
 10
51.023
 20
49.4552
 11
50.9013
 21
49.4864
  0
LINE
  8
0
 10
50.9013
 20
49.4864
 11
40.9014
 21
51.7217
  0
LINE
  8
0
 10
40.9014
 20
51.7217
 11
40.7779
 21
51.7452
  0
LINE
  8
0
 10
40.7779
 20
51.7452
 11
30.6573
 21
53.3482
  0
LINE
  8
0
 10
30.6573
 20
53.3482
 11
30.5327
 21
53.3639
  0
LINE
  8
0
 10
30.5327
 20
53.3639
 11
20.3314
 21
54.3282
  0
LINE
  8
0
 10
20.3314
 20
54.3282
 11
20.206
 21
54.3361
  0
LINE
  8
0
 10
20.206
 20
54.3361
 11
9.96433
 21
54.658
  0
LINE
  8
0
 10
9.96433
 20
54.658
 11
9.83869
 21
54.658
  0
LINE
  8
0
 10
9.83869
 20
54.658
 11
-0.403006
 21
54.3361
  0
LINE
  8
0
 10
-0.403006
 20
54.3361
 11
-0.528403
 21
54.3282
  0
LINE
  8
0
 10
-0.528403
 20
54.3282
 11
-10.7297
 21
53.3639
  0
LINE
  8
0
 10
-10.7297
 20
53.3639
 11
-10.8543
 21
53.3482
  0
LINE
  8
0
 10
-10.8543
 20
53.3482
 11
-20.9749
 21
51.7452
  0
LINE
  8
0
 10
-20.9749
 20
51.7452
 11
-21.0984
 21
51.7217
  0
LINE
  8
0
 10
-21.0984
 20
51.7217
 11
-31.0983
 21
49.4864
  0
LINE
  8
0
 10
-31.0983
 20
49.4864
 11
-31.22
 21
49.4552
  0
LINE
  8
0
 10
-31.22
 20
49.4552
 11
-35.1875
 21
48.3025
  0
LINE
  8
0
 10
-35.1875
 20
48.3025
 11
-35.1875
 21
37.101
  0
LINE
  8
0
 10
-35.1875
 20
37.101
 11
-64.0199
 21
37.101
  0
LINE
  8
0
 10
-64.0199
 20
37.101
 11
-70.8455
 21
33.6232
  0
LINE
  8
0
 10
-70.8455
 20
33.6232
 11
-70.9556
 21
33.5627
  0
LINE
  8
0
 10
-70.9556
 20
33.5627
 11
-71.0617
 21
33.4953
  0
LINE
  8
0
 10
-71.0617
 20
33.4953
 11
-71.1633
 21
33.4215
  0
LINE
  8
0
 10
-71.1633
 20
33.4215
 11
-71.2601
 21
33.3414
  0
LINE
  8
0
 10
-71.2601
 20
33.3414
 11
-71.3517
 21
33.2554
  0
LINE
  8
0
 10
-71.3517
 20
33.2554
 11
-71.4377
 21
33.1638
  0
LINE
  8
0
 10
-71.4377
 20
33.1638
 11
-71.5178
 21
33.067
  0
LINE
  8
0
 10
-71.5178
 20
33.067
 11
-71.5917
 21
32.9654
  0
LINE
  8
0
 10
-71.5917
 20
32.9654
 11
-71.659
 21
32.8593
  0
LINE
  8
0
 10
-71.659
 20
32.8593
 11
-71.7195
 21
32.7492
  0
LINE
  8
0
 10
-71.7195
 20
32.7492
 11
-71.773
 21
32.6355
  0
LINE
  8
0
 10
-71.773
 20
32.6355
 11
-71.8193
 21
32.5186
  0
LINE
  8
0
 10
-71.8193
 20
32.5186
 11
-71.8581
 21
32.3992
  0
LINE
  8
0
 10
-71.8581
 20
32.3992
 11
-71.8893
 21
32.2775
  0
LINE
  8
0
 10
-71.8893
 20
32.2775
 11
-71.9129
 21
32.154
  0
LINE
  8
0
 10
-71.9129
 20
32.154
 11
-71.9286
 21
32.0294
  0
LINE
  8
0
 10
-71.9286
 20
32.0294
 11
-71.9365
 21
31.904
  0
LINE
  8
0
 10
-71.9365
 20
31.904
 11
-71.9375
 21
31.8412
  0
LINE
  8
0
 10
-71.9375
 20
31.8412
 11
-71.9375
 21
-23.3623
  0
LINE
  8
0
 10
-71.9375
 20
-23.3623
 11
-86.247
 21
-37.6718
  0
LINE
  8
0
 10
-86.247
 20
-37.6718
 11
-86.333
 21
-37.7634
  0
LINE
  8
0
 10
-86.333
 20
-37.7634
 11
-86.4131
 21
-37.8602
  0
LINE
  8
0
 10
-86.4131
 20
-37.8602
 11
-86.4869
 21
-37.9618
  0
LINE
  8
0
 10
-86.4869
 20
-37.9618
 11
-86.5542
 21
-38.0679
  0
LINE
  8
0
 10
-86.5542
 20
-38.0679
 11
-86.6148
 21
-38.178
  0
LINE
  8
0
 10
-86.6148
 20
-38.178
 11
-86.6683
 21
-38.2917
  0
LINE
  8
0
 10
-86.6683
 20
-38.2917
 11
-86.7145
 21
-38.4085
  0
LINE
  8
0
 10
-86.7145
 20
-38.4085
 11
-86.7533
 21
-38.528
  0
LINE
  8
0
 10
-86.7533
 20
-38.528
 11
-86.7846
 21
-38.6497
  0
LINE
  8
0
 10
-86.7846
 20
-38.6497
 11
-86.8081
 21
-38.7731
  0
LINE
  8
0
 10
-86.8081
 20
-38.7731
 11
-86.8239
 21
-38.8978
  0
LINE
  8
0
 10
-86.8239
 20
-38.8978
 11
-86.8318
 21
-39.0232
  0
LINE
  8
0
 10
-86.8318
 20
-39.0232
 11
-86.8318
 21
-39.1488
  0
LINE
  8
0
 10
-86.8318
 20
-39.1488
 11
-86.8239
 21
-39.2742
  0
LINE
  8
0
 10
-86.8239
 20
-39.2742
 11
-86.8081
 21
-39.3989
  0
LINE
  8
0
 10
-86.8081
 20
-39.3989
 11
-86.7846
 21
-39.5223
  0
LINE
  8
0
 10
-86.7846
 20
-39.5223
 11
-86.7533
 21
-39.644
  0
LINE
  8
0
 10
-86.7533
 20
-39.644
 11
-86.7145
 21
-39.7635
  0
LINE
  8
0
 10
-86.7145
 20
-39.7635
 11
-86.6683
 21
-39.8803
  0
LINE
  8
0
 10
-86.6683
 20
-39.8803
 11
-86.6148
 21
-39.994
  0
LINE
  8
0
 10
-86.6148
 20
-39.994
 11
-86.5542
 21
-40.1041
  0
LINE
  8
0
 10
-86.5542
 20
-40.1041
 11
-86.4869
 21
-40.2102
  0
LINE
  8
0
 10
-86.4869
 20
-40.2102
 11
-86.4131
 21
-40.3118
  0
LINE
  8
0
 10
-86.4131
 20
-40.3118
 11
-86.333
 21
-40.4086
  0
LINE
  8
0
 10
-86.333
 20
-40.4086
 11
-86.247
 21
-40.5002
  0
LINE
  8
0
 10
-86.247
 20
-40.5002
 11
-49.4067
 21
-77.3405
  0
LINE
  8
0
 10
-49.4067
 20
-77.3405
 11
-49.3151
 21
-77.4265
  0
LINE
  8
0
 10
-49.3151
 20
-77.4265
 11
-49.2183
 21
-77.5066
  0
LINE
  8
0
 10
-49.2183
 20
-77.5066
 11
-49.1167
 21
-77.5804
  0
LINE
  8
0
 10
-49.1167
 20
-77.5804
 11
-49.0106
 21
-77.6477
  0
LINE
  8
0
 10
-49.0106
 20
-77.6477
 11
-48.9005
 21
-77.7083
  0
LINE
  8
0
 10
-48.9005
 20
-77.7083
 11
-48.7868
 21
-77.7618
  0
LINE
  8
0
 10
-48.7868
 20
-77.7618
 11
-48.67
 21
-77.808
  0
LINE
  8
0
 10
-48.67
 20
-77.808
 11
-48.5505
 21
-77.8468
  0
LINE
  8
0
 10
-48.5505
 20
-77.8468
 11
-48.4288
 21
-77.8781
  0
LINE
  8
0
 10
-48.4288
 20
-77.8781
 11
-48.3054
 21
-77.9016
  0
LINE
  8
0
 10
-48.3054
 20
-77.9016
 11
-48.1807
 21
-77.9174
  0
LINE
  8
0
 10
-48.1807
 20
-77.9174
 11
-48.0553
 21
-77.9253
  0
LINE
  8
0
 10
-48.0553
 20
-77.9253
 11
-47.9297
 21
-77.9253
  0
LINE
  8
0
 10
-47.9297
 20
-77.9253
 11
-47.8043
 21
-77.9174
  0
LINE
  8
0
 10
-57.417
 20
32.609
 11
-53.9693
 21
34.101
  0
LINE
  8
0
 10
-53.9693
 20
34.101
 11
-32.1875
 21
34.101
  0
LINE
  8
0
 10
-32.1875
 20
34.101
 11
-32.1875
 21
41.8847
  0
LINE
  8
0
 10
-32.1875
 20
41.8847
 11
-31.1875
 21
42.1752
  0
LINE
  8
0
 10
-31.1875
 20
42.1752
 11
-31.1875
 21
-5.55211
  0
LINE
  8
0
 10
-31.1875
 20
-5.55211
 11
-31.5752
 21
-5.69171
  0
LINE
  8
0
 10
-31.5752
 20
-5.69171
 11
-38.0712
 21
-8.50277
  0
LINE
  8
0
 10
-38.0712
 20
-8.50277
 11
-44.3779
 21
-11.7162
  0
LINE
  8
0
 10
-44.3779
 20
-11.7162
 11
-50.4703
 21
-15.3192
  0
LINE
  8
0
 10
-50.4703
 20
-15.3192
 11
-56.3245
 21
-19.2977
  0
LINE
  8
0
 10
-56.3245
 20
-19.2977
 11
-61.9173
 21
-23.636
  0
LINE
  8
0
 10
-61.9173
 20
-23.636
 11
-63.6119
 21
-25.13
  0
LINE
  8
0
 10
-63.6119
 20
-25.13
 11
-63.6152
 21
-25.1289
  0
LINE
  8
0
 10
-63.6152
 20
-25.1289
 11
-63.732
 21
-25.0826
  0
LINE
  8
0
 10
-63.732
 20
-25.0826
 11
-63.8457
 21
-25.0291
  0
LINE
  8
0
 10
-63.8457
 20
-25.0291
 11
-63.9558
 21
-24.9686
  0
LINE
  8
0
 10
-63.9558
 20
-24.9686
 11
-64.0618
 21
-24.9012
  0
LINE
  8
0
 10
-64.0618
 20
-24.9012
 11
-64.1635
 21
-24.8274
  0
LINE
  8
0
 10
-64.1635
 20
-24.8274
 11
-64.2603
 21
-24.7473
  0
LINE
  8
0
 10
-64.2603
 20
-24.7473
 11
-64.3519
 21
-24.6613
  0
LINE
  8
0
 10
-64.3519
 20
-24.6613
 11
-64.4379
 21
-24.5697
  0
LINE
  8
0
 10
-64.4379
 20
-24.5697
 11
-64.518
 21
-24.4728
  0
LINE
  8
0
 10
-64.518
 20
-24.4728
 11
-64.5918
 21
-24.3712
  0
LINE
  8
0
 10
-64.5918
 20
-24.3712
 11
-64.6591
 21
-24.2651
  0
LINE
  8
0
 10
-64.6591
 20
-24.2651
 11
-64.7196
 21
-24.155
  0
LINE
  8
0
 10
-64.7196
 20
-24.155
 11
-64.7731
 21
-24.0413
  0
LINE
  8
0
 10
-64.7731
 20
-24.0413
 11
-64.8193
 21
-23.9245
  0
LINE
  8
0
 10
-64.8193
 20
-23.9245
 11
-64.8581
 21
-23.805
  0
LINE
  8
0
 10
-64.8581
 20
-23.805
 11
-64.8894
 21
-23.6833
  0
LINE
  8
0
 10
-64.8894
 20
-23.6833
 11
-64.9129
 21
-23.5599
  0
LINE
  8
0
 10
-64.9129
 20
-23.5599
 11
-64.9286
 21
-23.4352
  0
LINE
  8
0
 10
-64.9286
 20
-23.4352
 11
-64.9365
 21
-23.3098
  0
LINE
  8
0
 10
-64.9365
 20
-23.3098
 11
-64.9365
 21
-23.2476
  0
LINE
  8
0
 10
-64.9365
 20
-23.2476
 11
-64.9375
 21
-23.2472
  0
LINE
  8
0
 10
-64.9375
 20
-23.2472
 11
-64.9375
 21
28.7772
  0
LINE
  8
0
 10
-64.9375
 20
28.7772
 11
-57.417
 21
32.609
  0
LINE
  8
0
 10
10.1875
 20
28.094
 11
10.1875
 21
42.094
  0
LINE
  8
0
 10
10.1875
 20
42.094
 11
24.1875
 21
42.094
  0
LINE
  8
0
 10
24.1875
 20
42.094
 11
24.1875
 21
28.094
  0
LINE
  8
0
 10
24.1875
 20
28.094
 11
10.1875
 21
28.094
  0
LINE
  8
0
 10
68.337
 20
38.5853
 11
68.237
 21
38.5947
  0
LINE
  8
0
 10
68.237
 20
38.5947
 11
68.1377
 21
38.6105
  0
LINE
  8
0
 10
68.1377
 20
38.6105
 11
68.0396
 21
38.6324
  0
LINE
  8
0
 10
68.0396
 20
38.6324
 11
67.9431
 21
38.6604
  0
LINE
  8
0
 10
67.9431
 20
38.6604
 11
67.8485
 21
38.6945
  0
LINE
  8
0
 10
67.8485
 20
38.6945
 11
67.7562
 21
38.7344
  0
LINE
  8
0
 10
67.7562
 20
38.7344
 11
67.6667
 21
38.78
  0
LINE
  8
0
 10
67.6667
 20
38.78
 11
67.5802
 21
38.8312
  0
LINE
  8
0
 10
67.5802
 20
38.8312
 11
67.497
 21
38.8877
  0
LINE
  8
0
 10
67.497
 20
38.8877
 11
67.4176
 21
38.9493
  0
LINE
  8
0
 10
67.4176
 20
38.9493
 11
67.3422
 21
39.0158
  0
LINE
  8
0
 10
67.3422
 20
39.0158
 11
67.2711
 21
39.0869
  0
LINE
  8
0
 10
67.2711
 20
39.0869
 11
67.2047
 21
39.1622
  0
LINE
  8
0
 10
67.2047
 20
39.1622
 11
67.1431
 21
39.2417
  0
LINE
  8
0
 10
67.1431
 20
39.2417
 11
67.0866
 21
39.3248
  0
LINE
  8
0
 10
67.0866
 20
39.3248
 11
67.0354
 21
39.4113
  0
LINE
  8
0
 10
67.0354
 20
39.4113
 11
66.9898
 21
39.5009
  0
LINE
  8
0
 10
66.9898
 20
39.5009
 11
66.9499
 21
39.5931
  0
LINE
  8
0
 10
66.9499
 20
39.5931
 11
66.9158
 21
39.6877
  0
LINE
  8
0
 10
66.9158
 20
39.6877
 11
66.8878
 21
39.7842
  0
LINE
  8
0
 10
66.8878
 20
39.7842
 11
66.8658
 21
39.8823
  0
LINE
  8
0
 10
66.8658
 20
39.8823
 11
66.8501
 21
39.9816
  0
LINE
  8
0
 10
66.8501
 20
39.9816
 11
66.8406
 21
40.0817
  0
LINE
  8
0
 10
66.8406
 20
40.0817
 11
66.8375
 21
40.1821
  0
LINE
  8
0
 10
66.8375
 20
40.1821
 11
66.8406
 21
40.2826
  0
LINE
  8
0
 10
66.8406
 20
40.2826
 11
66.8501
 21
40.3827
  0
LINE
  8
0
 10
66.8501
 20
40.3827
 11
66.8658
 21
40.482
  0
LINE
  8
0
 10
66.8658
 20
40.482
 11
66.8878
 21
40.58
  0
LINE
  8
0
 10
66.8878
 20
40.58
 11
66.9158
 21
40.6766
  0
LINE
  8
0
 10
66.9158
 20
40.6766
 11
66.9499
 21
40.7711
  0
LINE
  8
0
 10
66.9499
 20
40.7711
 11
66.9898
 21
40.8634
  0
LINE
  8
0
 10
66.9898
 20
40.8634
 11
67.0354
 21
40.9529
  0
LINE
  8
0
 10
67.0354
 20
40.9529
 11
67.0866
 21
41.0395
  0
LINE
  8
0
 10
67.0866
 20
41.0395
 11
67.1431
 21
41.1226
  0
LINE
  8
0
 10
67.1431
 20
41.1226
 11
67.2047
 21
41.202
  0
LINE
  8
0
 10
67.2047
 20
41.202
 11
67.2711
 21
41.2774
  0
LINE
  8
0
 10
67.2711
 20
41.2774
 11
67.3422
 21
41.3485
  0
LINE
  8
0
 10
67.3422
 20
41.3485
 11
67.4176
 21
41.415
  0
LINE
  8
0
 10
67.4176
 20
41.415
 11
67.497
 21
41.4766
  0
LINE
  8
0
 10
67.497
 20
41.4766
 11
67.5802
 21
41.5331
  0
LINE
  8
0
 10
67.5802
 20
41.5331
 11
67.6667
 21
41.5842
  0
LINE
  8
0
 10
67.6667
 20
41.5842
 11
67.7562
 21
41.6299
  0
LINE
  8
0
 10
67.7562
 20
41.6299
 11
67.8485
 21
41.6698
  0
LINE
  8
0
 10
67.8485
 20
41.6698
 11
67.9431
 21
41.7038
  0
LINE
  8
0
 10
67.9431
 20
41.7038
 11
68.0396
 21
41.7319
  0
LINE
  8
0
 10
68.0396
 20
41.7319
 11
68.1377
 21
41.7538
  0
LINE
  8
0
 10
68.1377
 20
41.7538
 11
68.237
 21
41.7695
  0
LINE
  8
0
 10
68.237
 20
41.7695
 11
68.337
 21
41.779
  0
LINE
  8
0
 10
68.337
 20
41.779
 11
68.4375
 21
41.7821
  0
LINE
  8
0
 10
68.4375
 20
41.7821
 11
68.538
 21
41.779
  0
LINE
  8
0
 10
68.538
 20
41.779
 11
68.638
 21
41.7695
  0
LINE
  8
0
 10
68.638
 20
41.7695
 11
68.7373
 21
41.7538
  0
LINE
  8
0
 10
68.7373
 20
41.7538
 11
68.8354
 21
41.7319
  0
LINE
  8
0
 10
68.8354
 20
41.7319
 11
68.9319
 21
41.7038
  0
LINE
  8
0
 10
68.9319
 20
41.7038
 11
69.0265
 21
41.6698
  0
LINE
  8
0
 10
69.0265
 20
41.6698
 11
69.1187
 21
41.6299
  0
LINE
  8
0
 10
69.1187
 20
41.6299
 11
69.2083
 21
41.5842
  0
LINE
  8
0
 10
69.2083
 20
41.5842
 11
69.2948
 21
41.5331
  0
LINE
  8
0
 10
69.2948
 20
41.5331
 11
69.378
 21
41.4766
  0
LINE
  8
0
 10
69.378
 20
41.4766
 11
69.4574
 21
41.415
  0
LINE
  8
0
 10
69.4574
 20
41.415
 11
69.5328
 21
41.3485
  0
LINE
  8
0
 10
69.5328
 20
41.3485
 11
69.6038
 21
41.2774
  0
LINE
  8
0
 10
69.6038
 20
41.2774
 11
69.6703
 21
41.202
  0
LINE
  8
0
 10
69.6703
 20
41.202
 11
69.7319
 21
41.1226
  0
LINE
  8
0
 10
69.7319
 20
41.1226
 11
69.7884
 21
41.0395
  0
LINE
  8
0
 10
69.7884
 20
41.0395
 11
69.8396
 21
40.9529
  0
LINE
  8
0
 10
69.8396
 20
40.9529
 11
69.8852
 21
40.8634
  0
LINE
  8
0
 10
69.8852
 20
40.8634
 11
69.9251
 21
40.7711
  0
LINE
  8
0
 10
69.9251
 20
40.7711
 11
69.9592
 21
40.6766
  0
LINE
  8
0
 10
69.9592
 20
40.6766
 11
69.9872
 21
40.58
  0
LINE
  8
0
 10
69.9872
 20
40.58
 11
70.0091
 21
40.482
  0
LINE
  8
0
 10
70.0091
 20
40.482
 11
70.0249
 21
40.3827
  0
LINE
  8
0
 10
70.0249
 20
40.3827
 11
70.0343
 21
40.2826
  0
LINE
  8
0
 10
70.0343
 20
40.2826
 11
70.0375
 21
40.1821
  0
LINE
  8
0
 10
70.0375
 20
40.1821
 11
70.0343
 21
40.0817
  0
LINE
  8
0
 10
70.0343
 20
40.0817
 11
70.0249
 21
39.9816
  0
LINE
  8
0
 10
70.0249
 20
39.9816
 11
70.0091
 21
39.8823
  0
LINE
  8
0
 10
70.0091
 20
39.8823
 11
69.9872
 21
39.7842
  0
LINE
  8
0
 10
69.9872
 20
39.7842
 11
69.9592
 21
39.6877
  0
LINE
  8
0
 10
69.9592
 20
39.6877
 11
69.9251
 21
39.5931
  0
LINE
  8
0
 10
69.9251
 20
39.5931
 11
69.8852
 21
39.5009
  0
LINE
  8
0
 10
69.8852
 20
39.5009
 11
69.8396
 21
39.4113
  0
LINE
  8
0
 10
69.8396
 20
39.4113
 11
69.7884
 21
39.3248
  0
LINE
  8
0
 10
69.7884
 20
39.3248
 11
69.7319
 21
39.2417
  0
LINE
  8
0
 10
69.7319
 20
39.2417
 11
69.6703
 21
39.1622
  0
LINE
  8
0
 10
69.6703
 20
39.1622
 11
69.6038
 21
39.0869
  0
LINE
  8
0
 10
69.6038
 20
39.0869
 11
69.5328
 21
39.0158
  0
LINE
  8
0
 10
69.5328
 20
39.0158
 11
69.4574
 21
38.9493
  0
LINE
  8
0
 10
69.4574
 20
38.9493
 11
69.378
 21
38.8877
  0
LINE
  8
0
 10
69.378
 20
38.8877
 11
69.2948
 21
38.8312
  0
LINE
  8
0
 10
69.2948
 20
38.8312
 11
69.2083
 21
38.78
  0
LINE
  8
0
 10
69.2083
 20
38.78
 11
69.1187
 21
38.7344
  0
LINE
  8
0
 10
69.1187
 20
38.7344
 11
69.0265
 21
38.6945
  0
LINE
  8
0
 10
69.0265
 20
38.6945
 11
68.9319
 21
38.6604
  0
LINE
  8
0
 10
68.9319
 20
38.6604
 11
68.8354
 21
38.6324
  0
LINE
  8
0
 10
68.8354
 20
38.6324
 11
68.7373
 21
38.6105
  0
LINE
  8
0
 10
68.7373
 20
38.6105
 11
68.638
 21
38.5947
  0
LINE
  8
0
 10
68.638
 20
38.5947
 11
68.538
 21
38.5853
  0
LINE
  8
0
 10
68.538
 20
38.5853
 11
68.4375
 21
38.5821
  0
LINE
  8
0
 10
68.4375
 20
38.5821
 11
68.337
 21
38.5853
  0
LINE
  8
0
 10
-11.488
 20
37.5222
 11
-11.588
 21
37.5316
  0
LINE
  8
0
 10
-11.588
 20
37.5316
 11
-11.6873
 21
37.5474
  0
LINE
  8
0
 10
-11.6873
 20
37.5474
 11
-11.7854
 21
37.5693
  0
LINE
  8
0
 10
-11.7854
 20
37.5693
 11
-11.8819
 21
37.5973
  0
LINE
  8
0
 10
-11.8819
 20
37.5973
 11
-11.9765
 21
37.6314
  0
LINE
  8
0
 10
-11.9765
 20
37.6314
 11
-12.0687
 21
37.6713
  0
LINE
  8
0
 10
-12.0687
 20
37.6713
 11
-12.1583
 21
37.7169
  0
LINE
  8
0
 10
-12.1583
 20
37.7169
 11
-12.2448
 21
37.7681
  0
LINE
  8
0
 10
-12.2448
 20
37.7681
 11
-12.3279
 21
37.8246
  0
LINE
  8
0
 10
-12.3279
 20
37.8246
 11
-12.4074
 21
37.8862
  0
LINE
  8
0
 10
-12.4074
 20
37.8862
 11
-12.4828
 21
37.9527
  0
LINE
  8
0
 10
-12.4828
 20
37.9527
 11
-12.5538
 21
38.0237
  0
LINE
  8
0
 10
-12.5538
 20
38.0237
 11
-12.6203
 21
38.0991
  0
LINE
  8
0
 10
-12.6203
 20
38.0991
 11
-12.6819
 21
38.1786
  0
LINE
  8
0
 10
-12.6819
 20
38.1786
 11
-12.7384
 21
38.2617
  0
LINE
  8
0
 10
-12.7384
 20
38.2617
 11
-12.7896
 21
38.3482
  0
LINE
  8
0
 10
-12.7896
 20
38.3482
 11
-12.8352
 21
38.4378
  0
LINE
  8
0
 10
-12.8352
 20
38.4378
 11
-12.8751
 21
38.53
  0
LINE
  8
0
 10
-12.8751
 20
38.53
 11
-12.9092
 21
38.6246
  0
LINE
  8
0
 10
-12.9092
 20
38.6246
 11
-12.9372
 21
38.7211
  0
LINE
  8
0
 10
-12.9372
 20
38.7211
 11
-12.9592
 21
38.8192
  0
LINE
  8
0
 10
-12.9592
 20
38.8192
 11
-12.9749
 21
38.9185
  0
LINE
  8
0
 10
-12.9749
 20
38.9185
 11
-12.9843
 21
39.0185
  0
LINE
  8
0
 10
-12.9843
 20
39.0185
 11
-12.9875
 21
39.119
  0
LINE
  8
0
 10
-12.9875
 20
39.119
 11
-12.9843
 21
39.2195
  0
LINE
  8
0
 10
-12.9843
 20
39.2195
 11
-12.9749
 21
39.3196
  0
LINE
  8
0
 10
-12.9749
 20
39.3196
 11
-12.9592
 21
39.4188
  0
LINE
  8
0
 10
-12.9592
 20
39.4188
 11
-12.9372
 21
39.5169
  0
LINE
  8
0
 10
-12.9372
 20
39.5169
 11
-12.9092
 21
39.6134
  0
LINE
  8
0
 10
-12.9092
 20
39.6134
 11
-12.8751
 21
39.708
  0
LINE
  8
0
 10
-12.8751
 20
39.708
 11
-12.8352
 21
39.8003
  0
LINE
  8
0
 10
-12.8352
 20
39.8003
 11
-12.7896
 21
39.8898
  0
LINE
  8
0
 10
-12.7896
 20
39.8898
 11
-12.7384
 21
39.9763
  0
LINE
  8
0
 10
-12.7384
 20
39.9763
 11
-12.6819
 21
40.0595
  0
LINE
  8
0
 10
-12.6819
 20
40.0595
 11
-12.6203
 21
40.1389
  0
LINE
  8
0
 10
-12.6203
 20
40.1389
 11
-12.5538
 21
40.2143
  0
LINE
  8
0
 10
-12.5538
 20
40.2143
 11
-12.4828
 21
40.2854
  0
LINE
  8
0
 10
-12.4828
 20
40.2854
 11
-12.4074
 21
40.3518
  0
LINE
  8
0
 10
-12.4074
 20
40.3518
 11
-12.3279
 21
40.4134
  0
LINE
  8
0
 10
-12.3279
 20
40.4134
 11
-12.2448
 21
40.4699
  0
LINE
  8
0
 10
-12.2448
 20
40.4699
 11
-12.1583
 21
40.5211
  0
LINE
  8
0
 10
-12.1583
 20
40.5211
 11
-12.0687
 21
40.5667
  0
LINE
  8
0
 10
-12.0687
 20
40.5667
 11
-11.9765
 21
40.6067
  0
LINE
  8
0
 10
-11.9765
 20
40.6067
 11
-11.8819
 21
40.6407
  0
LINE
  8
0
 10
-11.8819
 20
40.6407
 11
-11.7854
 21
40.6687
  0
LINE
  8
0
 10
-11.7854
 20
40.6687
 11
-11.6873
 21
40.6907
  0
LINE
  8
0
 10
-11.6873
 20
40.6907
 11
-11.588
 21
40.7064
  0
LINE
  8
0
 10
-11.588
 20
40.7064
 11
-11.488
 21
40.7159
  0
LINE
  8
0
 10
-11.488
 20
40.7159
 11
-11.3875
 21
40.719
  0
LINE
  8
0
 10
-11.3875
 20
40.719
 11
-11.287
 21
40.7159
  0
LINE
  8
0
 10
-11.287
 20
40.7159
 11
-11.187
 21
40.7064
  0
LINE
  8
0
 10
-11.187
 20
40.7064
 11
-11.0877
 21
40.6907
  0
LINE
  8
0
 10
-11.0877
 20
40.6907
 11
-10.9896
 21
40.6687
  0
LINE
  8
0
 10
-10.9896
 20
40.6687
 11
-10.8931
 21
40.6407
  0
LINE
  8
0
 10
-10.8931
 20
40.6407
 11
-10.7985
 21
40.6067
  0
LINE
  8
0
 10
-10.7985
 20
40.6067
 11
-10.7062
 21
40.5667
  0
LINE
  8
0
 10
-10.7062
 20
40.5667
 11
-10.6167
 21
40.5211
  0
LINE
  8
0
 10
-10.6167
 20
40.5211
 11
-10.5302
 21
40.4699
  0
LINE
  8
0
 10
-10.5302
 20
40.4699
 11
-10.447
 21
40.4134
  0
LINE
  8
0
 10
-10.447
 20
40.4134
 11
-10.3676
 21
40.3518
  0
LINE
  8
0
 10
-10.3676
 20
40.3518
 11
-10.2922
 21
40.2854
  0
LINE
  8
0
 10
-10.2922
 20
40.2854
 11
-10.2211
 21
40.2143
  0
LINE
  8
0
 10
-10.2211
 20
40.2143
 11
-10.1547
 21
40.1389
  0
LINE
  8
0
 10
-10.1547
 20
40.1389
 11
-10.0931
 21
40.0595
  0
LINE
  8
0
 10
-10.0931
 20
40.0595
 11
-10.0366
 21
39.9763
  0
LINE
  8
0
 10
-10.0366
 20
39.9763
 11
-9.9854
 21
39.8898
  0
LINE
  8
0
 10
-9.9854
 20
39.8898
 11
-9.93976
 21
39.8003
  0
LINE
  8
0
 10
-9.93976
 20
39.8003
 11
-9.89985
 21
39.708
  0
LINE
  8
0
 10
-9.89985
 20
39.708
 11
-9.86581
 21
39.6134
  0
LINE
  8
0
 10
-9.86581
 20
39.6134
 11
-9.83776
 21
39.5169
  0
LINE
  8
0
 10
-9.83776
 20
39.5169
 11
-9.81583
 21
39.4188
  0
LINE
  8
0
 10
-9.81583
 20
39.4188
 11
-9.80012
 21
39.3196
  0
LINE
  8
0
 10
-9.80012
 20
39.3196
 11
-9.79066
 21
39.2195
  0
LINE
  8
0
 10
-9.79066
 20
39.2195
 11
-9.7875
 21
39.119
  0
LINE
  8
0
 10
-9.7875
 20
39.119
 11
-9.79066
 21
39.0185
  0
LINE
  8
0
 10
-9.79066
 20
39.0185
 11
-9.80012
 21
38.9185
  0
LINE
  8
0
 10
-9.80012
 20
38.9185
 11
-9.81583
 21
38.8192
  0
LINE
  8
0
 10
-9.81583
 20
38.8192
 11
-9.83776
 21
38.7211
  0
LINE
  8
0
 10
-9.83776
 20
38.7211
 11
-9.86581
 21
38.6246
  0
LINE
  8
0
 10
-9.86581
 20
38.6246
 11
-9.89985
 21
38.53
  0
LINE
  8
0
 10
-9.89985
 20
38.53
 11
-9.93976
 21
38.4378
  0
LINE
  8
0
 10
-9.93976
 20
38.4378
 11
-9.9854
 21
38.3482
  0
LINE
  8
0
 10
-9.9854
 20
38.3482
 11
-10.0366
 21
38.2617
  0
LINE
  8
0
 10
-10.0366
 20
38.2617
 11
-10.0931
 21
38.1786
  0
LINE
  8
0
 10
-10.0931
 20
38.1786
 11
-10.1547
 21
38.0991
  0
LINE
  8
0
 10
-10.1547
 20
38.0991
 11
-10.2211
 21
38.0237
  0
LINE
  8
0
 10
-10.2211
 20
38.0237
 11
-10.2922
 21
37.9527
  0
LINE
  8
0
 10
-10.2922
 20
37.9527
 11
-10.3676
 21
37.8862
  0
LINE
  8
0
 10
-10.3676
 20
37.8862
 11
-10.447
 21
37.8246
  0
LINE
  8
0
 10
-10.447
 20
37.8246
 11
-10.5302
 21
37.7681
  0
LINE
  8
0
 10
-10.5302
 20
37.7681
 11
-10.6167
 21
37.7169
  0
LINE
  8
0
 10
-10.6167
 20
37.7169
 11
-10.7062
 21
37.6713
  0
LINE
  8
0
 10
-10.7062
 20
37.6713
 11
-10.7985
 21
37.6314
  0
LINE
  8
0
 10
-10.7985
 20
37.6314
 11
-10.8931
 21
37.5973
  0
LINE
  8
0
 10
-10.8931
 20
37.5973
 11
-10.9896
 21
37.5693
  0
LINE
  8
0
 10
-10.9896
 20
37.5693
 11
-11.0877
 21
37.5474
  0
LINE
  8
0
 10
-11.0877
 20
37.5474
 11
-11.187
 21
37.5316
  0
LINE
  8
0
 10
-11.187
 20
37.5316
 11
-11.287
 21
37.5222
  0
LINE
  8
0
 10
-11.287
 20
37.5222
 11
-11.3875
 21
37.519
  0
LINE
  8
0
 10
-11.3875
 20
37.519
 11
-11.488
 21
37.5222
  0
LINE
  8
0
 10
29.2375
 20
22.094
 11
29.2375
 21
36.094
  0
LINE
  8
0
 10
29.2375
 20
36.094
 11
43.2375
 21
36.094
  0
LINE
  8
0
 10
43.2375
 20
36.094
 11
43.2375
 21
22.094
  0
LINE
  8
0
 10
43.2375
 20
22.094
 11
29.2375
 21
22.094
  0
LINE
  8
0
 10
-8.86249
 20
21.594
 11
-8.86249
 21
35.594
  0
LINE
  8
0
 10
-8.86249
 20
35.594
 11
5.13751
 21
35.594
  0
LINE
  8
0
 10
5.13751
 20
35.594
 11
5.13751
 21
21.594
  0
LINE
  8
0
 10
5.13751
 20
21.594
 11
-8.86249
 21
21.594
  0
LINE
  8
0
 10
-27.9125
 20
19.094
 11
-27.9125
 21
33.094
  0
LINE
  8
0
 10
-27.9125
 20
33.094
 11
-13.9125
 21
33.094
  0
LINE
  8
0
 10
-13.9125
 20
33.094
 11
-13.9125
 21
19.094
  0
LINE
  8
0
 10
-13.9125
 20
19.094
 11
-27.9125
 21
19.094
  0
LINE
  8
0
 10
-68.538
 20
29.302
 11
-68.638
 21
29.3115
  0
LINE
  8
0
 10
-68.638
 20
29.3115
 11
-68.7373
 21
29.3272
  0
LINE
  8
0
 10
-68.7373
 20
29.3272
 11
-68.8354
 21
29.3491
  0
LINE
  8
0
 10
-68.8354
 20
29.3491
 11
-68.9319
 21
29.3772
  0
LINE
  8
0
 10
-68.9319
 20
29.3772
 11
-69.0265
 21
29.4112
  0
LINE
  8
0
 10
-69.0265
 20
29.4112
 11
-69.1187
 21
29.4511
  0
LINE
  8
0
 10
-69.1187
 20
29.4511
 11
-69.2083
 21
29.4968
  0
LINE
  8
0
 10
-69.2083
 20
29.4968
 11
-69.2948
 21
29.5479
  0
LINE
  8
0
 10
-69.2948
 20
29.5479
 11
-69.378
 21
29.6044
  0
LINE
  8
0
 10
-69.378
 20
29.6044
 11
-69.4574
 21
29.666
  0
LINE
  8
0
 10
-69.4574
 20
29.666
 11
-69.5328
 21
29.7325
  0
LINE
  8
0
 10
-69.5328
 20
29.7325
 11
-69.6038
 21
29.8036
  0
LINE
  8
0
 10
-69.6038
 20
29.8036
 11
-69.6703
 21
29.879
  0
LINE
  8
0
 10
-69.6703
 20
29.879
 11
-69.7319
 21
29.9584
  0
LINE
  8
0
 10
-69.7319
 20
29.9584
 11
-69.7884
 21
30.0416
  0
LINE
  8
0
 10
-69.7884
 20
30.0416
 11
-69.8396
 21
30.1281
  0
LINE
  8
0
 10
-69.8396
 20
30.1281
 11
-69.8852
 21
30.2176
  0
LINE
  8
0
 10
-69.8852
 20
30.2176
 11
-69.9251
 21
30.3099
  0
LINE
  8
0
 10
-69.9251
 20
30.3099
 11
-69.9592
 21
30.4045
  0
LINE
  8
0
 10
-69.9592
 20
30.4045
 11
-69.9872
 21
30.501
  0
LINE
  8
0
 10
-69.9872
 20
30.501
 11
-70.0091
 21
30.5991
  0
LINE
  8
0
 10
-70.0091
 20
30.5991
 11
-70.0249
 21
30.6983
  0
LINE
  8
0
 10
-70.0249
 20
30.6983
 11
-70.0343
 21
30.7984
  0
LINE
  8
0
 10
-70.0343
 20
30.7984
 11
-70.0375
 21
30.8989
  0
LINE
  8
0
 10
-70.0375
 20
30.8989
 11
-70.0343
 21
30.9993
  0
LINE
  8
0
 10
-70.0343
 20
30.9993
 11
-70.0249
 21
31.0994
  0
LINE
  8
0
 10
-70.0249
 20
31.0994
 11
-70.0091
 21
31.1987
  0
LINE
  8
0
 10
-70.0091
 20
31.1987
 11
-69.9872
 21
31.2968
  0
LINE
  8
0
 10
-69.9872
 20
31.2968
 11
-69.9592
 21
31.3933
  0
LINE
  8
0
 10
-69.9592
 20
31.3933
 11
-69.9251
 21
31.4879
  0
LINE
  8
0
 10
-69.9251
 20
31.4879
 11
-69.8852
 21
31.5801
  0
LINE
  8
0
 10
-69.8852
 20
31.5801
 11
-69.8396
 21
31.6697
  0
LINE
  8
0
 10
-69.8396
 20
31.6697
 11
-69.7884
 21
31.7562
  0
LINE
  8
0
 10
-69.7884
 20
31.7562
 11
-69.7319
 21
31.8393
  0
LINE
  8
0
 10
-69.7319
 20
31.8393
 11
-69.6703
 21
31.9187
  0
LINE
  8
0
 10
-69.6703
 20
31.9187
 11
-69.6038
 21
31.9941
  0
LINE
  8
0
 10
-69.6038
 20
31.9941
 11
-69.5328
 21
32.0652
  0
LINE
  8
0
 10
-69.5328
 20
32.0652
 11
-69.4574
 21
32.1317
  0
LINE
  8
0
 10
-69.4574
 20
32.1317
 11
-69.378
 21
32.1933
  0
LINE
  8
0
 10
-69.378
 20
32.1933
 11
-69.2948
 21
32.2498
  0
LINE
  8
0
 10
-69.2948
 20
32.2498
 11
-69.2083
 21
32.301
  0
LINE
  8
0
 10
-69.2083
 20
32.301
 11
-69.1187
 21
32.3466
  0
LINE
  8
0
 10
-69.1187
 20
32.3466
 11
-69.0265
 21
32.3865
  0
LINE
  8
0
 10
-69.0265
 20
32.3865
 11
-68.9319
 21
32.4206
  0
LINE
  8
0
 10
-68.9319
 20
32.4206
 11
-68.8354
 21
32.4486
  0
LINE
  8
0
 10
-68.8354
 20
32.4486
 11
-68.7373
 21
32.4705
  0
LINE
  8
0
 10
-68.7373
 20
32.4705
 11
-68.638
 21
32.4863
  0
LINE
  8
0
 10
-68.638
 20
32.4863
 11
-68.538
 21
32.4957
  0
LINE
  8
0
 10
-68.538
 20
32.4957
 11
-68.4375
 21
32.4989
  0
LINE
  8
0
 10
-68.4375
 20
32.4989
 11
-68.337
 21
32.4957
  0
LINE
  8
0
 10
-68.337
 20
32.4957
 11
-68.237
 21
32.4863
  0
LINE
  8
0
 10
-68.237
 20
32.4863
 11
-68.1377
 21
32.4705
  0
LINE
  8
0
 10
-68.1377
 20
32.4705
 11
-68.0396
 21
32.4486
  0
LINE
  8
0
 10
-68.0396
 20
32.4486
 11
-67.9431
 21
32.4206
  0
LINE
  8
0
 10
-67.9431
 20
32.4206
 11
-67.8485
 21
32.3865
  0
LINE
  8
0
 10
-67.8485
 20
32.3865
 11
-67.7562
 21
32.3466
  0
LINE
  8
0
 10
-67.7562
 20
32.3466
 11
-67.6667
 21
32.301
  0
LINE
  8
0
 10
-67.6667
 20
32.301
 11
-67.5802
 21
32.2498
  0
LINE
  8
0
 10
-67.5802
 20
32.2498
 11
-67.497
 21
32.1933
  0
LINE
  8
0
 10
-67.497
 20
32.1933
 11
-67.4176
 21
32.1317
  0
LINE
  8
0
 10
-67.4176
 20
32.1317
 11
-67.3422
 21
32.0652
  0
LINE
  8
0
 10
-67.3422
 20
32.0652
 11
-67.2711
 21
31.9941
  0
LINE
  8
0
 10
-67.2711
 20
31.9941
 11
-67.2047
 21
31.9187
  0
LINE
  8
0
 10
-67.2047
 20
31.9187
 11
-67.1431
 21
31.8393
  0
LINE
  8
0
 10
-67.1431
 20
31.8393
 11
-67.0866
 21
31.7562
  0
LINE
  8
0
 10
-67.0866
 20
31.7562
 11
-67.0354
 21
31.6697
  0
LINE
  8
0
 10
-67.0354
 20
31.6697
 11
-66.9898
 21
31.5801
  0
LINE
  8
0
 10
-66.9898
 20
31.5801
 11
-66.9499
 21
31.4879
  0
LINE
  8
0
 10
-66.9499
 20
31.4879
 11
-66.9158
 21
31.3933
  0
LINE
  8
0
 10
-66.9158
 20
31.3933
 11
-66.8878
 21
31.2968
  0
LINE
  8
0
 10
-66.8878
 20
31.2968
 11
-66.8658
 21
31.1987
  0
LINE
  8
0
 10
-66.8658
 20
31.1987
 11
-66.8501
 21
31.0994
  0
LINE
  8
0
 10
-66.8501
 20
31.0994
 11
-66.8406
 21
30.9993
  0
LINE
  8
0
 10
-66.8406
 20
30.9993
 11
-66.8375
 21
30.8989
  0
LINE
  8
0
 10
-66.8375
 20
30.8989
 11
-66.8406
 21
30.7984
  0
LINE
  8
0
 10
-66.8406
 20
30.7984
 11
-66.8501
 21
30.6983
  0
LINE
  8
0
 10
-66.8501
 20
30.6983
 11
-66.8658
 21
30.5991
  0
LINE
  8
0
 10
-66.8658
 20
30.5991
 11
-66.8878
 21
30.501
  0
LINE
  8
0
 10
-66.8878
 20
30.501
 11
-66.9158
 21
30.4045
  0
LINE
  8
0
 10
-66.9158
 20
30.4045
 11
-66.9499
 21
30.3099
  0
LINE
  8
0
 10
-66.9499
 20
30.3099
 11
-66.9898
 21
30.2176
  0
LINE
  8
0
 10
-66.9898
 20
30.2176
 11
-67.0354
 21
30.1281
  0
LINE
  8
0
 10
-67.0354
 20
30.1281
 11
-67.0866
 21
30.0416
  0
LINE
  8
0
 10
-67.0866
 20
30.0416
 11
-67.1431
 21
29.9584
  0
LINE
  8
0
 10
-67.1431
 20
29.9584
 11
-67.2047
 21
29.879
  0
LINE
  8
0
 10
-67.2047
 20
29.879
 11
-67.2711
 21
29.8036
  0
LINE
  8
0
 10
-67.2711
 20
29.8036
 11
-67.3422
 21
29.7325
  0
LINE
  8
0
 10
-67.3422
 20
29.7325
 11
-67.4176
 21
29.666
  0
LINE
  8
0
 10
-67.4176
 20
29.666
 11
-67.497
 21
29.6044
  0
LINE
  8
0
 10
-67.497
 20
29.6044
 11
-67.5802
 21
29.5479
  0
LINE
  8
0
 10
-67.5802
 20
29.5479
 11
-67.6667
 21
29.4968
  0
LINE
  8
0
 10
-67.6667
 20
29.4968
 11
-67.7562
 21
29.4511
  0
LINE
  8
0
 10
-67.7562
 20
29.4511
 11
-67.8485
 21
29.4112
  0
LINE
  8
0
 10
-67.8485
 20
29.4112
 11
-67.9431
 21
29.3772
  0
LINE
  8
0
 10
-67.9431
 20
29.3772
 11
-68.0396
 21
29.3491
  0
LINE
  8
0
 10
-68.0396
 20
29.3491
 11
-68.1377
 21
29.3272
  0
LINE
  8
0
 10
-68.1377
 20
29.3272
 11
-68.237
 21
29.3115
  0
LINE
  8
0
 10
-68.237
 20
29.3115
 11
-68.337
 21
29.302
  0
LINE
  8
0
 10
-68.337
 20
29.302
 11
-68.4375
 21
29.2989
  0
LINE
  8
0
 10
-68.4375
 20
29.2989
 11
-68.538
 21
29.302
  0
LINE
  8
0
 10
48.187
 20
27.3472
 11
48.087
 21
27.3566
  0
LINE
  8
0
 10
48.087
 20
27.3566
 11
47.9877
 21
27.3723
  0
LINE
  8
0
 10
47.9877
 20
27.3723
 11
47.8896
 21
27.3943
  0
LINE
  8
0
 10
47.8896
 20
27.3943
 11
47.7931
 21
27.4223
  0
LINE
  8
0
 10
47.7931
 20
27.4223
 11
47.6985
 21
27.4564
  0
LINE
  8
0
 10
47.6985
 20
27.4564
 11
47.6063
 21
27.4963
  0
LINE
  8
0
 10
47.6063
 20
27.4963
 11
47.5167
 21
27.5419
  0
LINE
  8
0
 10
47.5167
 20
27.5419
 11
47.4302
 21
27.5931
  0
LINE
  8
0
 10
47.4302
 20
27.5931
 11
47.3471
 21
27.6496
  0
LINE
  8
0
 10
47.3471
 20
27.6496
 11
47.2676
 21
27.7112
  0
LINE
  8
0
 10
47.2676
 20
27.7112
 11
47.1922
 21
27.7777
  0
LINE
  8
0
 10
47.1922
 20
27.7777
 11
47.1212
 21
27.8487
  0
LINE
  8
0
 10
47.1212
 20
27.8487
 11
47.0547
 21
27.9241
  0
LINE
  8
0
 10
47.0547
 20
27.9241
 11
46.9931
 21
28.0036
  0
LINE
  8
0
 10
46.9931
 20
28.0036
 11
46.9366
 21
28.0867
  0
LINE
  8
0
 10
46.9366
 20
28.0867
 11
46.8854
 21
28.1732
  0
LINE
  8
0
 10
46.8854
 20
28.1732
 11
46.8398
 21
28.2628
  0
LINE
  8
0
 10
46.8398
 20
28.2628
 11
46.7999
 21
28.355
  0
LINE
  8
0
 10
46.7999
 20
28.355
 11
46.7658
 21
28.4496
  0
LINE
  8
0
 10
46.7658
 20
28.4496
 11
46.7378
 21
28.5461
  0
LINE
  8
0
 10
46.7378
 20
28.5461
 11
46.7158
 21
28.6442
  0
LINE
  8
0
 10
46.7158
 20
28.6442
 11
46.7001
 21
28.7435
  0
LINE
  8
0
 10
46.7001
 20
28.7435
 11
46.6907
 21
28.8436
  0
LINE
  8
0
 10
46.6907
 20
28.8436
 11
46.6875
 21
28.944
  0
LINE
  8
0
 10
46.6875
 20
28.944
 11
46.6907
 21
29.0445
  0
LINE
  8
0
 10
46.6907
 20
29.0445
 11
46.7001
 21
29.1445
  0
LINE
  8
0
 10
46.7001
 20
29.1445
 11
46.7158
 21
29.2438
  0
LINE
  8
0
 10
46.7158
 20
29.2438
 11
46.7378
 21
29.3419
  0
LINE
  8
0
 10
46.7378
 20
29.3419
 11
46.7658
 21
29.4384
  0
LINE
  8
0
 10
46.7658
 20
29.4384
 11
46.7999
 21
29.533
  0
LINE
  8
0
 10
46.7999
 20
29.533
 11
46.8398
 21
29.6253
  0
LINE
  8
0
 10
46.8398
 20
29.6253
 11
46.8854
 21
29.7148
  0
LINE
  8
0
 10
46.8854
 20
29.7148
 11
46.9366
 21
29.8013
  0
LINE
  8
0
 10
46.9366
 20
29.8013
 11
46.9931
 21
29.8845
  0
LINE
  8
0
 10
46.9931
 20
29.8845
 11
47.0547
 21
29.9639
  0
LINE
  8
0
 10
47.0547
 20
29.9639
 11
47.1212
 21
30.0393
  0
LINE
  8
0
 10
47.1212
 20
30.0393
 11
47.1922
 21
30.1104
  0
LINE
  8
0
 10
47.1922
 20
30.1104
 11
47.2676
 21
30.1768
  0
LINE
  8
0
 10
47.2676
 20
30.1768
 11
47.3471
 21
30.2384
  0
LINE
  8
0
 10
47.3471
 20
30.2384
 11
47.4302
 21
30.2949
  0
LINE
  8
0
 10
47.4302
 20
30.2949
 11
47.5167
 21
30.3461
  0
LINE
  8
0
 10
47.5167
 20
30.3461
 11
47.6063
 21
30.3917
  0
LINE
  8
0
 10
47.6063
 20
30.3917
 11
47.6985
 21
30.4317
  0
LINE
  8
0
 10
47.6985
 20
30.4317
 11
47.7931
 21
30.4657
  0
LINE
  8
0
 10
47.7931
 20
30.4657
 11
47.8896
 21
30.4937
  0
LINE
  8
0
 10
47.8896
 20
30.4937
 11
47.9877
 21
30.5157
  0
LINE
  8
0
 10
47.9877
 20
30.5157
 11
48.087
 21
30.5314
  0
LINE
  8
0
 10
48.087
 20
30.5314
 11
48.187
 21
30.5409
  0
LINE
  8
0
 10
48.187
 20
30.5409
 11
48.2875
 21
30.544
  0
LINE
  8
0
 10
48.2875
 20
30.544
 11
48.388
 21
30.5409
  0
LINE
  8
0
 10
48.388
 20
30.5409
 11
48.488
 21
30.5314
  0
LINE
  8
0
 10
48.488
 20
30.5314
 11
48.5873
 21
30.5157
  0
LINE
  8
0
 10
48.5873
 20
30.5157
 11
48.6854
 21
30.4937
  0
LINE
  8
0
 10
48.6854
 20
30.4937
 11
48.7819
 21
30.4657
  0
LINE
  8
0
 10
48.7819
 20
30.4657
 11
48.8765
 21
30.4317
  0
LINE
  8
0
 10
48.8765
 20
30.4317
 11
48.9688
 21
30.3917
  0
LINE
  8
0
 10
48.9688
 20
30.3917
 11
49.0583
 21
30.3461
  0
LINE
  8
0
 10
49.0583
 20
30.3461
 11
49.1448
 21
30.2949
  0
LINE
  8
0
 10
49.1448
 20
30.2949
 11
49.228
 21
30.2384
  0
LINE
  8
0
 10
49.228
 20
30.2384
 11
49.3074
 21
30.1768
  0
LINE
  8
0
 10
49.3074
 20
30.1768
 11
49.3828
 21
30.1104
  0
LINE
  8
0
 10
49.3828
 20
30.1104
 11
49.4539
 21
30.0393
  0
LINE
  8
0
 10
49.4539
 20
30.0393
 11
49.5203
 21
29.9639
  0
LINE
  8
0
 10
49.5203
 20
29.9639
 11
49.5819
 21
29.8845
  0
LINE
  8
0
 10
49.5819
 20
29.8845
 11
49.6384
 21
29.8013
  0
LINE
  8
0
 10
49.6384
 20
29.8013
 11
49.6896
 21
29.7148
  0
LINE
  8
0
 10
49.6896
 20
29.7148
 11
49.7352
 21
29.6253
  0
LINE
  8
0
 10
49.7352
 20
29.6253
 11
49.7752
 21
29.533
  0
LINE
  8
0
 10
49.7752
 20
29.533
 11
49.8092
 21
29.4384
  0
LINE
  8
0
 10
49.8092
 20
29.4384
 11
49.8372
 21
29.3419
  0
LINE
  8
0
 10
49.8372
 20
29.3419
 11
49.8592
 21
29.2438
  0
LINE
  8
0
 10
49.8592
 20
29.2438
 11
49.8749
 21
29.1445
  0
LINE
  8
0
 10
49.8749
 20
29.1445
 11
49.8843
 21
29.0445
  0
LINE
  8
0
 10
49.8843
 20
29.0445
 11
49.8875
 21
28.944
  0
LINE
  8
0
 10
49.8875
 20
28.944
 11
49.8843
 21
28.8436
  0
LINE
  8
0
 10
49.8843
 20
28.8436
 11
49.8749
 21
28.7435
  0
LINE
  8
0
 10
49.8749
 20
28.7435
 11
49.8592
 21
28.6442
  0
LINE
  8
0
 10
49.8592
 20
28.6442
 11
49.8372
 21
28.5461
  0
LINE
  8
0
 10
49.8372
 20
28.5461
 11
49.8092
 21
28.4496
  0
LINE
  8
0
 10
49.8092
 20
28.4496
 11
49.7752
 21
28.355
  0
LINE
  8
0
 10
49.7752
 20
28.355
 11
49.7352
 21
28.2628
  0
LINE
  8
0
 10
49.7352
 20
28.2628
 11
49.6896
 21
28.1732
  0
LINE
  8
0
 10
49.6896
 20
28.1732
 11
49.6384
 21
28.0867
  0
LINE
  8
0
 10
49.6384
 20
28.0867
 11
49.5819
 21
28.0036
  0
LINE
  8
0
 10
49.5819
 20
28.0036
 11
49.5203
 21
27.9241
  0
LINE
  8
0
 10
49.5203
 20
27.9241
 11
49.4539
 21
27.8487
  0
LINE
  8
0
 10
49.4539
 20
27.8487
 11
49.3828
 21
27.7777
  0
LINE
  8
0
 10
49.3828
 20
27.7777
 11
49.3074
 21
27.7112
  0
LINE
  8
0
 10
49.3074
 20
27.7112
 11
49.228
 21
27.6496
  0
LINE
  8
0
 10
49.228
 20
27.6496
 11
49.1448
 21
27.5931
  0
LINE
  8
0
 10
49.1448
 20
27.5931
 11
49.0583
 21
27.5419
  0
LINE
  8
0
 10
49.0583
 20
27.5419
 11
48.9688
 21
27.4963
  0
LINE
  8
0
 10
48.9688
 20
27.4963
 11
48.8765
 21
27.4564
  0
LINE
  8
0
 10
48.8765
 20
27.4564
 11
48.7819
 21
27.4223
  0
LINE
  8
0
 10
48.7819
 20
27.4223
 11
48.6854
 21
27.3943
  0
LINE
  8
0
 10
48.6854
 20
27.3943
 11
48.5873
 21
27.3723
  0
LINE
  8
0
 10
48.5873
 20
27.3723
 11
48.488
 21
27.3566
  0
LINE
  8
0
 10
48.488
 20
27.3566
 11
48.388
 21
27.3472
  0
LINE
  8
0
 10
48.388
 20
27.3472
 11
48.2875
 21
27.344
  0
LINE
  8
0
 10
48.2875
 20
27.344
 11
48.187
 21
27.3472
  0
LINE
  8
0
 10
48.2875
 20
10.094
 11
48.2875
 21
24.094
  0
LINE
  8
0
 10
48.2875
 20
24.094
 11
62.2875
 21
24.094
  0
LINE
  8
0
 10
62.2875
 20
24.094
 11
62.2875
 21
10.094
  0
LINE
  8
0
 10
62.2875
 20
10.094
 11
48.2875
 21
10.094
  0
LINE
  8
0
 10
10.1875
 20
9.04401
 11
10.1875
 21
23.044
  0
LINE
  8
0
 10
10.1875
 20
23.044
 11
24.1875
 21
23.044
  0
LINE
  8
0
 10
24.1875
 20
23.044
 11
24.1875
 21
9.04401
  0
LINE
  8
0
 10
24.1875
 20
9.04401
 11
10.1875
 21
9.04401
  0
LINE
  8
0
 10
29.2375
 20
3.04401
 11
29.2375
 21
17.044
  0
LINE
  8
0
 10
29.2375
 20
17.044
 11
43.2375
 21
17.044
  0
LINE
  8
0
 10
43.2375
 20
17.044
 11
43.2375
 21
3.04401
  0
LINE
  8
0
 10
43.2375
 20
3.04401
 11
29.2375
 21
3.04401
  0
LINE
  8
0
 10
-8.86249
 20
2.54401
 11
-8.86249
 21
16.544
  0
LINE
  8
0
 10
-8.86249
 20
16.544
 11
5.13751
 21
16.544
  0
LINE
  8
0
 10
5.13751
 20
16.544
 11
5.13751
 21
2.54401
  0
LINE
  8
0
 10
5.13751
 20
2.54401
 11
-8.86249
 21
2.54401
  0
LINE
  8
0
 10
-27.9125
 20
0.0440092
 11
-27.9125
 21
14.044
  0
LINE
  8
0
 10
-27.9125
 20
14.044
 11
-13.9125
 21
14.044
  0
LINE
  8
0
 10
-13.9125
 20
14.044
 11
-13.9125
 21
0.0440092
  0
LINE
  8
0
 10
-13.9125
 20
0.0440092
 11
-27.9125
 21
0.0440092
  0
LINE
  8
0
 10
48.2875
 20
-8.95599
 11
48.2875
 21
5.04401
  0
LINE
  8
0
 10
48.2875
 20
5.04401
 11
62.2875
 21
5.04401
  0
LINE
  8
0
 10
62.2875
 20
5.04401
 11
62.2875
 21
-8.95599
  0
LINE
  8
0
 10
62.2875
 20
-8.95599
 11
48.2875
 21
-8.95599
  0
LINE
  8
0
 10
10.1875
 20
-10.006
 11
10.1875
 21
3.99402
  0
LINE
  8
0
 10
10.1875
 20
3.99402
 11
24.1875
 21
3.99402
  0
LINE
  8
0
 10
24.1875
 20
3.99402
 11
24.1875
 21
-10.006
  0
LINE
  8
0
 10
24.1875
 20
-10.006
 11
10.1875
 21
-10.006
  0
LINE
  8
0
 10
29.2375
 20
-16.006
 11
29.2375
 21
-2.00598
  0
LINE
  8
0
 10
29.2375
 20
-2.00598
 11
43.2375
 21
-2.00598
  0
LINE
  8
0
 10
43.2375
 20
-2.00598
 11
43.2375
 21
-16.006
  0
LINE
  8
0
 10
43.2375
 20
-16.006
 11
29.2375
 21
-16.006
  0
LINE
  8
0
 10
-8.86249
 20
-16.506
 11
-8.86249
 21
-2.50598
  0
LINE
  8
0
 10
-8.86249
 20
-2.50598
 11
5.13751
 21
-2.50598
  0
LINE
  8
0
 10
5.13751
 20
-2.50598
 11
5.13751
 21
-16.506
  0
LINE
  8
0
 10
5.13751
 20
-16.506
 11
-8.86249
 21
-16.506
  0
LINE
  8
0
 10
-27.9125
 20
-19.006
 11
-27.9125
 21
-5.00598
  0
LINE
  8
0
 10
-27.9125
 20
-5.00598
 11
-13.9125
 21
-5.00598
  0
LINE
  8
0
 10
-13.9125
 20
-5.00598
 11
-13.9125
 21
-19.006
  0
LINE
  8
0
 10
-13.9125
 20
-19.006
 11
-27.9125
 21
-19.006
  0
LINE
  8
0
 10
48.2875
 20
-28.006
 11
48.2875
 21
-14.006
  0
LINE
  8
0
 10
48.2875
 20
-14.006
 11
62.2875
 21
-14.006
  0
LINE
  8
0
 10
62.2875
 20
-14.006
 11
62.2875
 21
-28.006
  0
LINE
  8
0
 10
62.2875
 20
-28.006
 11
48.2875
 21
-28.006
  0
LINE
  8
0
 10
-34.8747
 20
-46.2357
 11
-36.0006
 21
-46.8857
  0
LINE
  8
0
 10
-36.0006
 20
-46.8857
 11
-37.5005
 21
-44.2876
  0
LINE
  8
0
 10
-37.5005
 20
-44.2876
 11
-36.3747
 21
-43.6376
  0
LINE
  8
0
 10
-36.3747
 20
-43.6376
 11
-37.2871
 21
-42.0571
  0
LINE
  8
0
 10
-37.2871
 20
-42.0571
 11
-36.6809
 21
-41.7071
  0
LINE
  8
0
 10
-36.6809
 20
-41.7071
 11
-37.4684
 21
-40.3431
  0
LINE
  8
0
 10
-37.4684
 20
-40.3431
 11
-38.3604
 21
-40.8581
  0
LINE
  8
0
 10
-38.3604
 20
-40.8581
 11
-45.3601
 21
-28.7336
  0
LINE
  8
0
 10
-45.3601
 20
-28.7336
 11
-44.4681
 21
-28.2186
  0
LINE
  8
0
 10
-44.4681
 20
-28.2186
 11
-45.2555
 21
-26.8546
  0
LINE
  8
0
 10
-45.2555
 20
-26.8546
 11
-45.8618
 21
-27.2046
  0
LINE
  8
0
 10
-45.8618
 20
-27.2046
 11
-46.7743
 21
-25.6241
  0
LINE
  8
0
 10
-46.7743
 20
-25.6241
 11
-47.9001
 21
-26.274
  0
LINE
  8
0
 10
-47.9001
 20
-26.274
 11
-49.4
 21
-23.6759
  0
LINE
  8
0
 10
-49.4
 20
-23.6759
 11
-48.2742
 21
-23.026
  0
LINE
  8
0
 10
-48.2742
 20
-23.026
 11
-49.1867
 21
-21.4454
  0
LINE
  8
0
 10
-49.1867
 20
-21.4454
 11
-43.8432
 21
-18.3606
  0
LINE
  8
0
 10
-43.8432
 20
-18.3606
 11
-44.2807
 21
-17.6028
  0
LINE
  8
0
 10
-44.2807
 20
-17.6028
 11
-41.8558
 21
-16.2028
  0
LINE
  8
0
 10
-41.8558
 20
-16.2028
 11
-41.4183
 21
-16.9606
  0
LINE
  8
0
 10
-41.4183
 20
-16.9606
 11
-38.5344
 21
-15.2957
  0
LINE
  8
0
 10
-38.5344
 20
-15.2957
 11
-35.2095
 21
-21.0548
  0
LINE
  8
0
 10
-35.2095
 20
-21.0548
 11
-35.989
 21
-21.5048
  0
LINE
  8
0
 10
-35.989
 20
-21.5048
 11
-35.2015
 21
-22.8688
  0
LINE
  8
0
 10
-35.2015
 20
-22.8688
 11
-33.2356
 21
-21.7339
  0
LINE
  8
0
 10
-33.2356
 20
-21.7339
 11
-26.2359
 21
-33.8584
  0
LINE
  8
0
 10
-26.2359
 20
-33.8584
 11
-28.2018
 21
-34.9933
  0
LINE
  8
0
 10
-28.2018
 20
-34.9933
 11
-27.4143
 21
-36.3573
  0
LINE
  8
0
 10
-27.4143
 20
-36.3573
 11
-26.6349
 21
-35.9073
  0
LINE
  8
0
 10
-26.6349
 20
-35.9073
 11
-23.31
 21
-41.6665
  0
LINE
  8
0
 10
-23.31
 20
-41.6665
 11
-26.1939
 21
-43.3314
  0
LINE
  8
0
 10
-26.1939
 20
-43.3314
 11
-25.7564
 21
-44.0892
  0
LINE
  8
0
 10
-25.7564
 20
-44.0892
 11
-28.1813
 21
-45.4891
  0
LINE
  8
0
 10
-28.1813
 20
-45.4891
 11
-28.6188
 21
-44.7314
  0
LINE
  8
0
 10
-28.6188
 20
-44.7314
 11
-33.9623
 21
-47.8162
  0
LINE
  8
0
 10
-33.9623
 20
-47.8162
 11
-34.8747
 21
-46.2357
  0
LINE
  8
0
 10
-2.18896
 20
-20.9718
 11
-2.28902
 21
-20.9624
  0
LINE
  8
0
 10
-2.28902
 20
-20.9624
 11
-2.3883
 21
-20.9467
  0
LINE
  8
0
 10
-2.3883
 20
-20.9467
 11
-2.4864
 21
-20.9247
  0
LINE
  8
0
 10
-2.4864
 20
-20.9247
 11
-2.58292
 21
-20.8967
  0
LINE
  8
0
 10
-2.58292
 20
-20.8967
 11
-2.6775
 21
-20.8626
  0
LINE
  8
0
 10
-2.6775
 20
-20.8626
 11
-2.76974
 21
-20.8227
  0
LINE
  8
0
 10
-2.76974
 20
-20.8227
 11
-2.8593
 21
-20.7771
  0
LINE
  8
0
 10
-2.8593
 20
-20.7771
 11
-2.94582
 21
-20.7259
  0
LINE
  8
0
 10
-2.94582
 20
-20.7259
 11
-3.02895
 21
-20.6694
  0
LINE
  8
0
 10
-3.02895
 20
-20.6694
 11
-3.10837
 21
-20.6078
  0
LINE
  8
0
 10
-3.10837
 20
-20.6078
 11
-3.18377
 21
-20.5413
  0
LINE
  8
0
 10
-3.18377
 20
-20.5413
 11
-3.25484
 21
-20.4703
  0
LINE
  8
0
 10
-3.25484
 20
-20.4703
 11
-3.32131
 21
-20.3949
  0
LINE
  8
0
 10
-3.32131
 20
-20.3949
 11
-3.38293
 21
-20.3154
  0
LINE
  8
0
 10
-3.38293
 20
-20.3154
 11
-3.43941
 21
-20.2323
  0
LINE
  8
0
 10
-3.43941
 20
-20.2323
 11
-3.49058
 21
-20.1458
  0
LINE
  8
0
 10
-3.49058
 20
-20.1458
 11
-3.53622
 21
-20.0562
  0
LINE
  8
0
 10
-3.53622
 20
-20.0562
 11
-3.57613
 21
-19.964
  0
LINE
  8
0
 10
-3.57613
 20
-19.964
 11
-3.61019
 21
-19.8694
  0
LINE
  8
0
 10
-3.61019
 20
-19.8694
 11
-3.63822
 21
-19.7729
  0
LINE
  8
0
 10
-3.63822
 20
-19.7729
 11
-3.66015
 21
-19.6748
  0
LINE
  8
0
 10
-3.66015
 20
-19.6748
 11
-3.67588
 21
-19.5755
  0
LINE
  8
0
 10
-3.67588
 20
-19.5755
 11
-3.68534
 21
-19.4754
  0
LINE
  8
0
 10
-3.68534
 20
-19.4754
 11
-3.6885
 21
-19.375
  0
LINE
  8
0
 10
-3.6885
 20
-19.375
 11
-3.68534
 21
-19.2745
  0
LINE
  8
0
 10
-3.68534
 20
-19.2745
 11
-3.67588
 21
-19.1745
  0
LINE
  8
0
 10
-3.67588
 20
-19.1745
 11
-3.66015
 21
-19.0752
  0
LINE
  8
0
 10
-3.66015
 20
-19.0752
 11
-3.63822
 21
-18.9771
  0
LINE
  8
0
 10
-3.63822
 20
-18.9771
 11
-3.61019
 21
-18.8806
  0
LINE
  8
0
 10
-3.61019
 20
-18.8806
 11
-3.57613
 21
-18.786
  0
LINE
  8
0
 10
-3.57613
 20
-18.786
 11
-3.53622
 21
-18.6937
  0
LINE
  8
0
 10
-3.53622
 20
-18.6937
 11
-3.49058
 21
-18.6042
  0
LINE
  8
0
 10
-3.49058
 20
-18.6042
 11
-3.43941
 21
-18.5177
  0
LINE
  8
0
 10
-3.43941
 20
-18.5177
 11
-3.38293
 21
-18.4345
  0
LINE
  8
0
 10
-3.38293
 20
-18.4345
 11
-3.32131
 21
-18.3551
  0
LINE
  8
0
 10
-3.32131
 20
-18.3551
 11
-3.25484
 21
-18.2797
  0
LINE
  8
0
 10
-3.25484
 20
-18.2797
 11
-3.18377
 21
-18.2086
  0
LINE
  8
0
 10
-3.18377
 20
-18.2086
 11
-3.10837
 21
-18.1422
  0
LINE
  8
0
 10
-3.10837
 20
-18.1422
 11
-3.02895
 21
-18.0806
  0
LINE
  8
0
 10
-3.02895
 20
-18.0806
 11
-2.94582
 21
-18.0241
  0
LINE
  8
0
 10
-2.94582
 20
-18.0241
 11
-2.8593
 21
-17.9729
  0
LINE
  8
0
 10
-2.8593
 20
-17.9729
 11
-2.76974
 21
-17.9273
  0
LINE
  8
0
 10
-2.76974
 20
-17.9273
 11
-2.6775
 21
-17.8873
  0
LINE
  8
0
 10
-2.6775
 20
-17.8873
 11
-2.58292
 21
-17.8533
  0
LINE
  8
0
 10
-2.58292
 20
-17.8533
 11
-2.4864
 21
-17.8253
  0
LINE
  8
0
 10
-2.4864
 20
-17.8253
 11
-2.3883
 21
-17.8033
  0
LINE
  8
0
 10
-2.3883
 20
-17.8033
 11
-2.28902
 21
-17.7876
  0
LINE
  8
0
 10
-2.28902
 20
-17.7876
 11
-2.18896
 21
-17.7781
  0
LINE
  8
0
 10
-2.18896
 20
-17.7781
 11
-2.08849
 21
-17.775
  0
LINE
  8
0
 10
-2.08849
 20
-17.775
 11
-1.98803
 21
-17.7781
  0
LINE
  8
0
 10
-1.98803
 20
-17.7781
 11
-1.88796
 21
-17.7876
  0
LINE
  8
0
 10
-1.88796
 20
-17.7876
 11
-1.78869
 21
-17.8033
  0
LINE
  8
0
 10
-1.78869
 20
-17.8033
 11
-1.69059
 21
-17.8253
  0
LINE
  8
0
 10
-1.69059
 20
-17.8253
 11
-1.59406
 21
-17.8533
  0
LINE
  8
0
 10
-1.59406
 20
-17.8533
 11
-1.49949
 21
-17.8873
  0
LINE
  8
0
 10
-1.49949
 20
-17.8873
 11
-1.40725
 21
-17.9273
  0
LINE
  8
0
 10
-1.40725
 20
-17.9273
 11
-1.31769
 21
-17.9729
  0
LINE
  8
0
 10
-1.31769
 20
-17.9729
 11
-1.23118
 21
-18.0241
  0
LINE
  8
0
 10
-1.23118
 20
-18.0241
 11
-1.14803
 21
-18.0806
  0
LINE
  8
0
 10
-1.14803
 20
-18.0806
 11
-1.06861
 21
-18.1422
  0
LINE
  8
0
 10
-1.06861
 20
-18.1422
 11
-0.993216
 21
-18.2086
  0
LINE
  8
0
 10
-0.993216
 20
-18.2086
 11
-0.922141
 21
-18.2797
  0
LINE
  8
0
 10
-0.922141
 20
-18.2797
 11
-0.855673
 21
-18.3551
  0
LINE
  8
0
 10
-0.855673
 20
-18.3551
 11
-0.794058
 21
-18.4345
  0
LINE
  8
0
 10
-0.794058
 20
-18.4345
 11
-0.73757
 21
-18.5177
  0
LINE
  8
0
 10
-0.73757
 20
-18.5177
 11
-0.686407
 21
-18.6042
  0
LINE
  8
0
 10
-0.686407
 20
-18.6042
 11
-0.640768
 21
-18.6937
  0
LINE
  8
0
 10
-0.640768
 20
-18.6937
 11
-0.600851
 21
-18.786
  0
LINE
  8
0
 10
-0.600851
 20
-18.786
 11
-0.566809
 21
-18.8806
  0
LINE
  8
0
 10
-0.566809
 20
-18.8806
 11
-0.538763
 21
-18.9771
  0
LINE
  8
0
 10
-0.538763
 20
-18.9771
 11
-0.516837
 21
-19.0752
  0
LINE
  8
0
 10
-0.516837
 20
-19.0752
 11
-0.501105
 21
-19.1745
  0
LINE
  8
0
 10
-0.501105
 20
-19.1745
 11
-0.491644
 21
-19.2745
  0
LINE
  8
0
 10
-0.491644
 20
-19.2745
 11
-0.488486
 21
-19.375
  0
LINE
  8
0
 10
-0.488486
 20
-19.375
 11
-0.491644
 21
-19.4754
  0
LINE
  8
0
 10
-0.491644
 20
-19.4754
 11
-0.501105
 21
-19.5755
  0
LINE
  8
0
 10
-0.501105
 20
-19.5755
 11
-0.516837
 21
-19.6748
  0
LINE
  8
0
 10
-0.516837
 20
-19.6748
 11
-0.538763
 21
-19.7729
  0
LINE
  8
0
 10
-0.538763
 20
-19.7729
 11
-0.566809
 21
-19.8694
  0
LINE
  8
0
 10
-0.566809
 20
-19.8694
 11
-0.600851
 21
-19.964
  0
LINE
  8
0
 10
-0.600851
 20
-19.964
 11
-0.640768
 21
-20.0562
  0
LINE
  8
0
 10
-0.640768
 20
-20.0562
 11
-0.686407
 21
-20.1458
  0
LINE
  8
0
 10
-0.686407
 20
-20.1458
 11
-0.73757
 21
-20.2323
  0
LINE
  8
0
 10
-0.73757
 20
-20.2323
 11
-0.794058
 21
-20.3154
  0
LINE
  8
0
 10
-0.794058
 20
-20.3154
 11
-0.855673
 21
-20.3949
  0
LINE
  8
0
 10
-0.855673
 20
-20.3949
 11
-0.922141
 21
-20.4703
  0
LINE
  8
0
 10
-0.922141
 20
-20.4703
 11
-0.993216
 21
-20.5413
  0
LINE
  8
0
 10
-0.993216
 20
-20.5413
 11
-1.06861
 21
-20.6078
  0
LINE
  8
0
 10
-1.06861
 20
-20.6078
 11
-1.14803
 21
-20.6694
  0
LINE
  8
0
 10
-1.14803
 20
-20.6694
 11
-1.23118
 21
-20.7259
  0
LINE
  8
0
 10
-1.23118
 20
-20.7259
 11
-1.31769
 21
-20.7771
  0
LINE
  8
0
 10
-1.31769
 20
-20.7771
 11
-1.40725
 21
-20.8227
  0
LINE
  8
0
 10
-1.40725
 20
-20.8227
 11
-1.49949
 21
-20.8626
  0
LINE
  8
0
 10
-1.49949
 20
-20.8626
 11
-1.59406
 21
-20.8967
  0
LINE
  8
0
 10
-1.59406
 20
-20.8967
 11
-1.69059
 21
-20.9247
  0
LINE
  8
0
 10
-1.69059
 20
-20.9247
 11
-1.78869
 21
-20.9467
  0
LINE
  8
0
 10
-1.78869
 20
-20.9467
 11
-1.88796
 21
-20.9624
  0
LINE
  8
0
 10
-1.88796
 20
-20.9624
 11
-1.98803
 21
-20.9718
  0
LINE
  8
0
 10
-1.98803
 20
-20.9718
 11
-2.08849
 21
-20.975
  0
LINE
  8
0
 10
-2.08849
 20
-20.975
 11
-2.18896
 21
-20.9718
  0
LINE
  8
0
 10
42.023
 20
-22.3528
 11
41.923
 21
-22.3434
  0
LINE
  8
0
 10
41.923
 20
-22.3434
 11
41.8237
 21
-22.3276
  0
LINE
  8
0
 10
41.8237
 20
-22.3276
 11
41.7256
 21
-22.3057
  0
LINE
  8
0
 10
41.7256
 20
-22.3057
 11
41.6291
 21
-22.2777
  0
LINE
  8
0
 10
41.6291
 20
-22.2777
 11
41.5345
 21
-22.2436
  0
LINE
  8
0
 10
41.5345
 20
-22.2436
 11
41.4423
 21
-22.2037
  0
LINE
  8
0
 10
41.4423
 20
-22.2037
 11
41.3527
 21
-22.1581
  0
LINE
  8
0
 10
41.3527
 20
-22.1581
 11
41.2662
 21
-22.1069
  0
LINE
  8
0
 10
41.2662
 20
-22.1069
 11
41.1831
 21
-22.0504
  0
LINE
  8
0
 10
41.1831
 20
-22.0504
 11
41.1036
 21
-21.9888
  0
LINE
  8
0
 10
41.1036
 20
-21.9888
 11
41.0282
 21
-21.9223
  0
LINE
  8
0
 10
41.0282
 20
-21.9223
 11
40.9572
 21
-21.8512
  0
LINE
  8
0
 10
40.9572
 20
-21.8512
 11
40.8907
 21
-21.7758
  0
LINE
  8
0
 10
40.8907
 20
-21.7758
 11
40.8291
 21
-21.6964
  0
LINE
  8
0
 10
40.8291
 20
-21.6964
 11
40.7726
 21
-21.6133
  0
LINE
  8
0
 10
40.7726
 20
-21.6133
 11
40.7214
 21
-21.5268
  0
LINE
  8
0
 10
40.7214
 20
-21.5268
 11
40.6758
 21
-21.4372
  0
LINE
  8
0
 10
40.6758
 20
-21.4372
 11
40.6359
 21
-21.345
  0
LINE
  8
0
 10
40.6359
 20
-21.345
 11
40.6018
 21
-21.2504
  0
LINE
  8
0
 10
40.6018
 20
-21.2504
 11
40.5738
 21
-21.1539
  0
LINE
  8
0
 10
40.5738
 20
-21.1539
 11
40.5518
 21
-21.0558
  0
LINE
  8
0
 10
40.5518
 20
-21.0558
 11
40.5361
 21
-20.9565
  0
LINE
  8
0
 10
40.5361
 20
-20.9565
 11
40.5267
 21
-20.8565
  0
LINE
  8
0
 10
40.5267
 20
-20.8565
 11
40.5235
 21
-20.756
  0
LINE
  8
0
 10
40.5235
 20
-20.756
 11
40.5267
 21
-20.6555
  0
LINE
  8
0
 10
40.5267
 20
-20.6555
 11
40.5361
 21
-20.5554
  0
LINE
  8
0
 10
40.5361
 20
-20.5554
 11
40.5518
 21
-20.4562
  0
LINE
  8
0
 10
40.5518
 20
-20.4562
 11
40.5738
 21
-20.3581
  0
LINE
  8
0
 10
40.5738
 20
-20.3581
 11
40.6018
 21
-20.2616
  0
LINE
  8
0
 10
40.6018
 20
-20.2616
 11
40.6359
 21
-20.167
  0
LINE
  8
0
 10
40.6359
 20
-20.167
 11
40.6758
 21
-20.0747
  0
LINE
  8
0
 10
40.6758
 20
-20.0747
 11
40.7214
 21
-19.9852
  0
LINE
  8
0
 10
40.7214
 20
-19.9852
 11
40.7726
 21
-19.8987
  0
LINE
  8
0
 10
40.7726
 20
-19.8987
 11
40.8291
 21
-19.8155
  0
LINE
  8
0
 10
40.8291
 20
-19.8155
 11
40.8907
 21
-19.7361
  0
LINE
  8
0
 10
40.8907
 20
-19.7361
 11
40.9572
 21
-19.6607
  0
LINE
  8
0
 10
40.9572
 20
-19.6607
 11
41.0282
 21
-19.5896
  0
LINE
  8
0
 10
41.0282
 20
-19.5896
 11
41.1036
 21
-19.5232
  0
LINE
  8
0
 10
41.1036
 20
-19.5232
 11
41.1831
 21
-19.4616
  0
LINE
  8
0
 10
41.1831
 20
-19.4616
 11
41.2662
 21
-19.4051
  0
LINE
  8
0
 10
41.2662
 20
-19.4051
 11
41.3527
 21
-19.3539
  0
LINE
  8
0
 10
41.3527
 20
-19.3539
 11
41.4423
 21
-19.3083
  0
LINE
  8
0
 10
41.4423
 20
-19.3083
 11
41.5345
 21
-19.2683
  0
LINE
  8
0
 10
41.5345
 20
-19.2683
 11
41.6291
 21
-19.2343
  0
LINE
  8
0
 10
41.6291
 20
-19.2343
 11
41.7256
 21
-19.2063
  0
LINE
  8
0
 10
41.7256
 20
-19.2063
 11
41.8237
 21
-19.1843
  0
LINE
  8
0
 10
41.8237
 20
-19.1843
 11
41.923
 21
-19.1686
  0
LINE
  8
0
 10
41.923
 20
-19.1686
 11
42.023
 21
-19.1591
  0
LINE
  8
0
 10
42.023
 20
-19.1591
 11
42.1235
 21
-19.156
  0
LINE
  8
0
 10
42.1235
 20
-19.156
 11
42.224
 21
-19.1591
  0
LINE
  8
0
 10
42.224
 20
-19.1591
 11
42.324
 21
-19.1686
  0
LINE
  8
0
 10
42.324
 20
-19.1686
 11
42.4233
 21
-19.1843
  0
LINE
  8
0
 10
42.4233
 20
-19.1843
 11
42.5214
 21
-19.2063
  0
LINE
  8
0
 10
42.5214
 20
-19.2063
 11
42.6179
 21
-19.2343
  0
LINE
  8
0
 10
42.6179
 20
-19.2343
 11
42.7125
 21
-19.2683
  0
LINE
  8
0
 10
42.7125
 20
-19.2683
 11
42.8048
 21
-19.3083
  0
LINE
  8
0
 10
42.8048
 20
-19.3083
 11
42.8943
 21
-19.3539
  0
LINE
  8
0
 10
42.8943
 20
-19.3539
 11
42.9808
 21
-19.4051
  0
LINE
  8
0
 10
42.9808
 20
-19.4051
 11
43.064
 21
-19.4616
  0
LINE
  8
0
 10
43.064
 20
-19.4616
 11
43.1434
 21
-19.5232
  0
LINE
  8
0
 10
43.1434
 20
-19.5232
 11
43.2188
 21
-19.5896
  0
LINE
  8
0
 10
43.2188
 20
-19.5896
 11
43.2898
 21
-19.6607
  0
LINE
  8
0
 10
43.2898
 20
-19.6607
 11
43.3563
 21
-19.7361
  0
LINE
  8
0
 10
43.3563
 20
-19.7361
 11
43.4179
 21
-19.8155
  0
LINE
  8
0
 10
43.4179
 20
-19.8155
 11
43.4744
 21
-19.8987
  0
LINE
  8
0
 10
43.4744
 20
-19.8987
 11
43.5256
 21
-19.9852
  0
LINE
  8
0
 10
43.5256
 20
-19.9852
 11
43.5712
 21
-20.0747
  0
LINE
  8
0
 10
43.5712
 20
-20.0747
 11
43.6112
 21
-20.167
  0
LINE
  8
0
 10
43.6112
 20
-20.167
 11
43.6452
 21
-20.2616
  0
LINE
  8
0
 10
43.6452
 20
-20.2616
 11
43.6732
 21
-20.3581
  0
LINE
  8
0
 10
43.6732
 20
-20.3581
 11
43.6952
 21
-20.4562
  0
LINE
  8
0
 10
43.6952
 20
-20.4562
 11
43.7109
 21
-20.5554
  0
LINE
  8
0
 10
43.7109
 20
-20.5554
 11
43.7203
 21
-20.6555
  0
LINE
  8
0
 10
43.7203
 20
-20.6555
 11
43.7235
 21
-20.756
  0
LINE
  8
0
 10
43.7235
 20
-20.756
 11
43.7203
 21
-20.8565
  0
LINE
  8
0
 10
43.7203
 20
-20.8565
 11
43.7109
 21
-20.9565
  0
LINE
  8
0
 10
43.7109
 20
-20.9565
 11
43.6952
 21
-21.0558
  0
LINE
  8
0
 10
43.6952
 20
-21.0558
 11
43.6732
 21
-21.1539
  0
LINE
  8
0
 10
43.6732
 20
-21.1539
 11
43.6452
 21
-21.2504
  0
LINE
  8
0
 10
43.6452
 20
-21.2504
 11
43.6112
 21
-21.345
  0
LINE
  8
0
 10
43.6112
 20
-21.345
 11
43.5712
 21
-21.4372
  0
LINE
  8
0
 10
43.5712
 20
-21.4372
 11
43.5256
 21
-21.5268
  0
LINE
  8
0
 10
43.5256
 20
-21.5268
 11
43.4744
 21
-21.6133
  0
LINE
  8
0
 10
43.4744
 20
-21.6133
 11
43.4179
 21
-21.6964
  0
LINE
  8
0
 10
43.4179
 20
-21.6964
 11
43.3563
 21
-21.7758
  0
LINE
  8
0
 10
43.3563
 20
-21.7758
 11
43.2898
 21
-21.8512
  0
LINE
  8
0
 10
43.2898
 20
-21.8512
 11
43.2188
 21
-21.9223
  0
LINE
  8
0
 10
43.2188
 20
-21.9223
 11
43.1434
 21
-21.9888
  0
LINE
  8
0
 10
43.1434
 20
-21.9888
 11
43.064
 21
-22.0504
  0
LINE
  8
0
 10
43.064
 20
-22.0504
 11
42.9808
 21
-22.1069
  0
LINE
  8
0
 10
42.9808
 20
-22.1069
 11
42.8943
 21
-22.1581
  0
LINE
  8
0
 10
42.8943
 20
-22.1581
 11
42.8048
 21
-22.2037
  0
LINE
  8
0
 10
42.8048
 20
-22.2037
 11
42.7125
 21
-22.2436
  0
LINE
  8
0
 10
42.7125
 20
-22.2436
 11
42.6179
 21
-22.2777
  0
LINE
  8
0
 10
42.6179
 20
-22.2777
 11
42.5214
 21
-22.3057
  0
LINE
  8
0
 10
42.5214
 20
-22.3057
 11
42.4233
 21
-22.3276
  0
LINE
  8
0
 10
42.4233
 20
-22.3276
 11
42.324
 21
-22.3434
  0
LINE
  8
0
 10
42.324
 20
-22.3434
 11
42.224
 21
-22.3528
  0
LINE
  8
0
 10
42.224
 20
-22.3528
 11
42.1235
 21
-22.356
  0
LINE
  8
0
 10
42.1235
 20
-22.356
 11
42.023
 21
-22.3528
  0
LINE
  8
0
 10
2.90151
 20
-35.576
 11
2.90151
 21
-21.576
  0
LINE
  8
0
 10
2.90151
 20
-21.576
 11
16.9015
 21
-21.576
  0
LINE
  8
0
 10
16.9015
 20
-21.576
 11
16.9015
 21
-35.576
  0
LINE
  8
0
 10
16.9015
 20
-35.576
 11
2.90151
 21
-35.576
  0
LINE
  8
0
 10
23.4515
 20
-35.076
 11
23.3887
 21
-35.074
  0
LINE
  8
0
 10
23.3887
 20
-35.074
 11
23.3262
 21
-35.0681
  0
LINE
  8
0
 10
23.3262
 20
-35.0681
 11
23.2641
 21
-35.0583
  0
LINE
  8
0
 10
23.2641
 20
-35.0583
 11
23.2028
 21
-35.0446
  0
LINE
  8
0
 10
23.2028
 20
-35.0446
 11
23.1425
 21
-35.027
  0
LINE
  8
0
 10
23.1425
 20
-35.027
 11
23.0834
 21
-35.0057
  0
LINE
  8
0
 10
23.0834
 20
-35.0057
 11
23.0257
 21
-34.9808
  0
LINE
  8
0
 10
23.0257
 20
-34.9808
 11
22.9698
 21
-34.9523
  0
LINE
  8
0
 10
22.9698
 20
-34.9523
 11
22.9157
 21
-34.9203
  0
LINE
  8
0
 10
22.9157
 20
-34.9203
 11
22.8637
 21
-34.885
  0
LINE
  8
0
 10
22.8637
 20
-34.885
 11
22.8141
 21
-34.8465
  0
LINE
  8
0
 10
22.8141
 20
-34.8465
 11
22.767
 21
-34.8049
  0
LINE
  8
0
 10
22.767
 20
-34.8049
 11
22.7225
 21
-34.7605
  0
LINE
  8
0
 10
22.7225
 20
-34.7605
 11
22.681
 21
-34.7134
  0
LINE
  8
0
 10
22.681
 20
-34.7134
 11
22.6425
 21
-34.6638
  0
LINE
  8
0
 10
22.6425
 20
-34.6638
 11
22.6072
 21
-34.6118
  0
LINE
  8
0
 10
22.6072
 20
-34.6118
 11
22.5752
 21
-34.5577
  0
LINE
  8
0
 10
22.5752
 20
-34.5577
 11
22.5467
 21
-34.5018
  0
LINE
  8
0
 10
22.5467
 20
-34.5018
 11
22.5217
 21
-34.4441
  0
LINE
  8
0
 10
22.5217
 20
-34.4441
 11
22.5005
 21
-34.385
  0
LINE
  8
0
 10
22.5005
 20
-34.385
 11
22.4829
 21
-34.3247
  0
LINE
  8
0
 10
22.4829
 20
-34.3247
 11
22.4692
 21
-34.2633
  0
LINE
  8
0
 10
22.4692
 20
-34.2633
 11
22.4594
 21
-34.2013
  0
LINE
  8
0
 10
22.4594
 20
-34.2013
 11
22.4535
 21
-34.1388
  0
LINE
  8
0
 10
22.4535
 20
-34.1388
 11
22.4515
 21
-34.076
  0
LINE
  8
0
 10
22.4515
 20
-34.076
 11
22.4515
 21
-23.076
  0
LINE
  8
0
 10
22.4515
 20
-23.076
 11
22.4535
 21
-23.0132
  0
LINE
  8
0
 10
22.4535
 20
-23.0132
 11
22.4594
 21
-22.9506
  0
LINE
  8
0
 10
22.4594
 20
-22.9506
 11
22.4692
 21
-22.8886
  0
LINE
  8
0
 10
22.4692
 20
-22.8886
 11
22.4829
 21
-22.8273
  0
LINE
  8
0
 10
22.4829
 20
-22.8273
 11
22.5005
 21
-22.7669
  0
LINE
  8
0
 10
22.5005
 20
-22.7669
 11
22.5217
 21
-22.7079
  0
LINE
  8
0
 10
22.5217
 20
-22.7079
 11
22.5467
 21
-22.6502
  0
LINE
  8
0
 10
22.5467
 20
-22.6502
 11
22.5752
 21
-22.5942
  0
LINE
  8
0
 10
22.5752
 20
-22.5942
 11
22.6072
 21
-22.5401
  0
LINE
  8
0
 10
22.6072
 20
-22.5401
 11
22.6425
 21
-22.4882
  0
LINE
  8
0
 10
22.6425
 20
-22.4882
 11
22.681
 21
-22.4386
  0
LINE
  8
0
 10
22.681
 20
-22.4386
 11
22.7225
 21
-22.3914
  0
LINE
  8
0
 10
22.7225
 20
-22.3914
 11
22.767
 21
-22.347
  0
LINE
  8
0
 10
22.767
 20
-22.347
 11
22.8141
 21
-22.3055
  0
LINE
  8
0
 10
22.8141
 20
-22.3055
 11
22.8637
 21
-22.2669
  0
LINE
  8
0
 10
22.8637
 20
-22.2669
 11
22.9157
 21
-22.2316
  0
LINE
  8
0
 10
22.9157
 20
-22.2316
 11
22.9698
 21
-22.1997
  0
LINE
  8
0
 10
22.9698
 20
-22.1997
 11
23.0257
 21
-22.1711
  0
LINE
  8
0
 10
23.0257
 20
-22.1711
 11
23.0834
 21
-22.1462
  0
LINE
  8
0
 10
23.0834
 20
-22.1462
 11
23.1425
 21
-22.1249
  0
LINE
  8
0
 10
23.1425
 20
-22.1249
 11
23.2028
 21
-22.1074
  0
LINE
  8
0
 10
23.2028
 20
-22.1074
 11
23.2641
 21
-22.0937
  0
LINE
  8
0
 10
23.2641
 20
-22.0937
 11
23.3262
 21
-22.0839
  0
LINE
  8
0
 10
23.3262
 20
-22.0839
 11
23.3887
 21
-22.0779
  0
LINE
  8
0
 10
23.3887
 20
-22.0779
 11
23.4515
 21
-22.076
  0
LINE
  8
0
 10
23.4515
 20
-22.076
 11
34.4515
 21
-22.076
  0
LINE
  8
0
 10
34.4515
 20
-22.076
 11
34.5143
 21
-22.0779
  0
LINE
  8
0
 10
34.5143
 20
-22.0779
 11
34.5768
 21
-22.0839
  0
LINE
  8
0
 10
34.5768
 20
-22.0839
 11
34.6389
 21
-22.0937
  0
LINE
  8
0
 10
34.6389
 20
-22.0937
 11
34.7002
 21
-22.1074
  0
LINE
  8
0
 10
34.7002
 20
-22.1074
 11
34.7605
 21
-22.1249
  0
LINE
  8
0
 10
34.7605
 20
-22.1249
 11
34.8196
 21
-22.1462
  0
LINE
  8
0
 10
34.8196
 20
-22.1462
 11
34.8773
 21
-22.1711
  0
LINE
  8
0
 10
34.8773
 20
-22.1711
 11
34.9333
 21
-22.1997
  0
LINE
  8
0
 10
34.9333
 20
-22.1997
 11
34.9873
 21
-22.2316
  0
LINE
  8
0
 10
34.9873
 20
-22.2316
 11
35.0393
 21
-22.2669
  0
LINE
  8
0
 10
35.0393
 20
-22.2669
 11
35.0889
 21
-22.3055
  0
LINE
  8
0
 10
35.0889
 20
-22.3055
 11
35.136
 21
-22.347
  0
LINE
  8
0
 10
35.136
 20
-22.347
 11
35.1805
 21
-22.3914
  0
LINE
  8
0
 10
35.1805
 20
-22.3914
 11
35.222
 21
-22.4386
  0
LINE
  8
0
 10
35.222
 20
-22.4386
 11
35.2605
 21
-22.4882
  0
LINE
  8
0
 10
35.2605
 20
-22.4882
 11
35.2958
 21
-22.5401
  0
LINE
  8
0
 10
35.2958
 20
-22.5401
 11
35.3278
 21
-22.5942
  0
LINE
  8
0
 10
35.3278
 20
-22.5942
 11
35.3563
 21
-22.6502
  0
LINE
  8
0
 10
35.3563
 20
-22.6502
 11
35.3813
 21
-22.7079
  0
LINE
  8
0
 10
35.3813
 20
-22.7079
 11
35.4026
 21
-22.7669
  0
LINE
  8
0
 10
35.4026
 20
-22.7669
 11
35.4201
 21
-22.8273
  0
LINE
  8
0
 10
35.4201
 20
-22.8273
 11
35.4338
 21
-22.8886
  0
LINE
  8
0
 10
35.4338
 20
-22.8886
 11
35.4436
 21
-22.9506
  0
LINE
  8
0
 10
35.4436
 20
-22.9506
 11
35.4495
 21
-23.0132
  0
LINE
  8
0
 10
35.4495
 20
-23.0132
 11
35.4515
 21
-23.076
  0
LINE
  8
0
 10
35.4515
 20
-23.076
 11
35.4515
 21
-34.076
  0
LINE
  8
0
 10
35.4515
 20
-34.076
 11
35.4495
 21
-34.1388
  0
LINE
  8
0
 10
35.4495
 20
-34.1388
 11
35.4436
 21
-34.2013
  0
LINE
  8
0
 10
35.4436
 20
-34.2013
 11
35.4338
 21
-34.2633
  0
LINE
  8
0
 10
35.4338
 20
-34.2633
 11
35.4201
 21
-34.3247
  0
LINE
  8
0
 10
35.4201
 20
-34.3247
 11
35.4026
 21
-34.385
  0
LINE
  8
0
 10
35.4026
 20
-34.385
 11
35.3813
 21
-34.4441
  0
LINE
  8
0
 10
35.3813
 20
-34.4441
 11
35.3563
 21
-34.5018
  0
LINE
  8
0
 10
35.3563
 20
-34.5018
 11
35.3278
 21
-34.5577
  0
LINE
  8
0
 10
35.3278
 20
-34.5577
 11
35.2958
 21
-34.6118
  0
LINE
  8
0
 10
35.2958
 20
-34.6118
 11
35.2605
 21
-34.6638
  0
LINE
  8
0
 10
35.2605
 20
-34.6638
 11
35.222
 21
-34.7134
  0
LINE
  8
0
 10
35.222
 20
-34.7134
 11
35.1805
 21
-34.7605
  0
LINE
  8
0
 10
35.1805
 20
-34.7605
 11
35.136
 21
-34.8049
  0
LINE
  8
0
 10
35.136
 20
-34.8049
 11
35.0889
 21
-34.8465
  0
LINE
  8
0
 10
35.0889
 20
-34.8465
 11
35.0393
 21
-34.885
  0
LINE
  8
0
 10
35.0393
 20
-34.885
 11
34.9873
 21
-34.9203
  0
LINE
  8
0
 10
34.9873
 20
-34.9203
 11
34.9333
 21
-34.9523
  0
LINE
  8
0
 10
34.9333
 20
-34.9523
 11
34.8773
 21
-34.9808
  0
LINE
  8
0
 10
34.8773
 20
-34.9808
 11
34.8196
 21
-35.0057
  0
LINE
  8
0
 10
34.8196
 20
-35.0057
 11
34.7605
 21
-35.027
  0
LINE
  8
0
 10
34.7605
 20
-35.027
 11
34.7002
 21
-35.0446
  0
LINE
  8
0
 10
34.7002
 20
-35.0446
 11
34.6389
 21
-35.0583
  0
LINE
  8
0
 10
34.6389
 20
-35.0583
 11
34.5768
 21
-35.0681
  0
LINE
  8
0
 10
34.5768
 20
-35.0681
 11
34.5143
 21
-35.074
  0
LINE
  8
0
 10
34.5143
 20
-35.074
 11
34.4515
 21
-35.076
  0
LINE
  8
0
 10
34.4515
 20
-35.076
 11
23.4515
 21
-35.076
  0
LINE
  8
0
 10
-19.862
 20
-26.4154
 11
-6.33896
 21
-22.7924
  0
LINE
  8
0
 10
-6.33896
 20
-22.7924
 11
-2.71595
 21
-36.3155
  0
LINE
  8
0
 10
-2.71595
 20
-36.3155
 11
-16.239
 21
-39.9385
  0
LINE
  8
0
 10
-16.239
 20
-39.9385
 11
-19.862
 21
-26.4154
  0
LINE
  8
0
 10
-49.9687
 20
-60.0126
 11
-50.8879
 21
-60.9318
  0
LINE
  8
0
 10
-50.8879
 20
-60.9318
 11
-53.0092
 21
-58.8105
  0
LINE
  8
0
 10
-53.0092
 20
-58.8105
 11
-52.09
 21
-57.8913
  0
LINE
  8
0
 10
-52.09
 20
-57.8913
 11
-53.3805
 21
-56.6008
  0
LINE
  8
0
 10
-53.3805
 20
-56.6008
 11
-52.8855
 21
-56.1058
  0
LINE
  8
0
 10
-52.8855
 20
-56.1058
 11
-53.9992
 21
-54.9921
  0
LINE
  8
0
 10
-53.9992
 20
-54.9921
 11
-54.7275
 21
-55.7205
  0
LINE
  8
0
 10
-54.7275
 20
-55.7205
 11
-64.627
 21
-45.821
  0
LINE
  8
0
 10
-64.627
 20
-45.821
 11
-63.8987
 21
-45.0926
  0
LINE
  8
0
 10
-63.8987
 20
-45.0926
 11
-65.0124
 21
-43.979
  0
LINE
  8
0
 10
-65.0124
 20
-43.979
 11
-65.5073
 21
-44.4739
  0
LINE
  8
0
 10
-65.5073
 20
-44.4739
 11
-66.7978
 21
-43.1835
  0
LINE
  8
0
 10
-66.7978
 20
-43.1835
 11
-67.717
 21
-44.1027
  0
LINE
  8
0
 10
-67.717
 20
-44.1027
 11
-69.8384
 21
-41.9814
  0
LINE
  8
0
 10
-69.8384
 20
-41.9814
 11
-68.9191
 21
-41.0621
  0
LINE
  8
0
 10
-68.9191
 20
-41.0621
 11
-70.2096
 21
-39.7717
  0
LINE
  8
0
 10
-70.2096
 20
-39.7717
 11
-65.8467
 21
-35.4088
  0
LINE
  8
0
 10
-65.8467
 20
-35.4088
 11
-66.4655
 21
-34.7901
  0
LINE
  8
0
 10
-66.4655
 20
-34.7901
 11
-64.4856
 21
-32.8102
  0
LINE
  8
0
 10
-64.4856
 20
-32.8102
 11
-63.8668
 21
-33.4289
  0
LINE
  8
0
 10
-63.8668
 20
-33.4289
 11
-61.5122
 21
-31.0743
  0
LINE
  8
0
 10
-61.5122
 20
-31.0743
 11
-56.8099
 21
-35.7765
  0
LINE
  8
0
 10
-56.8099
 20
-35.7765
 11
-57.4463
 21
-36.4129
  0
LINE
  8
0
 10
-57.4463
 20
-36.4129
 11
-56.3326
 21
-37.5266
  0
LINE
  8
0
 10
-56.3326
 20
-37.5266
 11
-54.7275
 21
-35.9215
  0
LINE
  8
0
 10
-54.7275
 20
-35.9215
 11
-44.828
 21
-45.821
  0
LINE
  8
0
 10
-44.828
 20
-45.821
 11
-46.4331
 21
-47.4261
  0
LINE
  8
0
 10
-46.4331
 20
-47.4261
 11
-45.3194
 21
-48.5398
  0
LINE
  8
0
 10
-45.3194
 20
-48.5398
 11
-44.6831
 21
-47.9034
  0
LINE
  8
0
 10
-44.6831
 20
-47.9034
 11
-39.9808
 21
-52.6057
  0
LINE
  8
0
 10
-39.9808
 20
-52.6057
 11
-42.3355
 21
-54.9603
  0
LINE
  8
0
 10
-42.3355
 20
-54.9603
 11
-41.7167
 21
-55.5791
  0
LINE
  8
0
 10
-41.7167
 20
-55.5791
 11
-43.6966
 21
-57.5589
  0
LINE
  8
0
 10
-43.6966
 20
-57.5589
 11
-44.3153
 21
-56.9402
  0
LINE
  8
0
 10
-44.3153
 20
-56.9402
 11
-48.6782
 21
-61.3031
  0
LINE
  8
0
 10
-48.6782
 20
-61.3031
 11
-49.9687
 21
-60.0126
  0
LINE
  8
0
 10
68.337
 20
-37.6278
 11
68.237
 21
-37.6184
  0
LINE
  8
0
 10
68.237
 20
-37.6184
 11
68.1377
 21
-37.6026
  0
LINE
  8
0
 10
68.1377
 20
-37.6026
 11
68.0396
 21
-37.5807
  0
LINE
  8
0
 10
68.0396
 20
-37.5807
 11
67.9431
 21
-37.5527
  0
LINE
  8
0
 10
67.9431
 20
-37.5527
 11
67.8485
 21
-37.5186
  0
LINE
  8
0
 10
67.8485
 20
-37.5186
 11
67.7562
 21
-37.4787
  0
LINE
  8
0
 10
67.7562
 20
-37.4787
 11
67.6667
 21
-37.4331
  0
LINE
  8
0
 10
67.6667
 20
-37.4331
 11
67.5802
 21
-37.3819
  0
LINE
  8
0
 10
67.5802
 20
-37.3819
 11
67.497
 21
-37.3254
  0
LINE
  8
0
 10
67.497
 20
-37.3254
 11
67.4176
 21
-37.2638
  0
LINE
  8
0
 10
67.4176
 20
-37.2638
 11
67.3422
 21
-37.1973
  0
LINE
  8
0
 10
67.3422
 20
-37.1973
 11
67.2711
 21
-37.1262
  0
LINE
  8
0
 10
67.2711
 20
-37.1262
 11
67.2047
 21
-37.0509
  0
LINE
  8
0
 10
67.2047
 20
-37.0509
 11
67.1431
 21
-36.9714
  0
LINE
  8
0
 10
67.1431
 20
-36.9714
 11
67.0866
 21
-36.8883
  0
LINE
  8
0
 10
67.0866
 20
-36.8883
 11
67.0354
 21
-36.8018
  0
LINE
  8
0
 10
67.0354
 20
-36.8018
 11
66.9898
 21
-36.7122
  0
LINE
  8
0
 10
66.9898
 20
-36.7122
 11
66.9499
 21
-36.62
  0
LINE
  8
0
 10
66.9499
 20
-36.62
 11
66.9158
 21
-36.5254
  0
LINE
  8
0
 10
66.9158
 20
-36.5254
 11
66.8878
 21
-36.4289
  0
LINE
  8
0
 10
66.8878
 20
-36.4289
 11
66.8658
 21
-36.3308
  0
LINE
  8
0
 10
66.8658
 20
-36.3308
 11
66.8501
 21
-36.2315
  0
LINE
  8
0
 10
66.8501
 20
-36.2315
 11
66.8406
 21
-36.1314
  0
LINE
  8
0
 10
66.8406
 20
-36.1314
 11
66.8375
 21
-36.031
  0
LINE
  8
0
 10
66.8375
 20
-36.031
 11
66.8406
 21
-35.9305
  0
LINE
  8
0
 10
66.8406
 20
-35.9305
 11
66.8501
 21
-35.8304
  0
LINE
  8
0
 10
66.8501
 20
-35.8304
 11
66.8658
 21
-35.7312
  0
LINE
  8
0
 10
66.8658
 20
-35.7312
 11
66.8878
 21
-35.6331
  0
LINE
  8
0
 10
66.8878
 20
-35.6331
 11
66.9158
 21
-35.5365
  0
LINE
  8
0
 10
66.9158
 20
-35.5365
 11
66.9499
 21
-35.442
  0
LINE
  8
0
 10
66.9499
 20
-35.442
 11
66.9898
 21
-35.3497
  0
LINE
  8
0
 10
66.9898
 20
-35.3497
 11
67.0354
 21
-35.2602
  0
LINE
  8
0
 10
67.0354
 20
-35.2602
 11
67.0866
 21
-35.1736
  0
LINE
  8
0
 10
67.0866
 20
-35.1736
 11
67.1431
 21
-35.0905
  0
LINE
  8
0
 10
67.1431
 20
-35.0905
 11
67.2047
 21
-35.0111
  0
LINE
  8
0
 10
67.2047
 20
-35.0111
 11
67.2711
 21
-34.9357
  0
LINE
  8
0
 10
67.2711
 20
-34.9357
 11
67.3422
 21
-34.8646
  0
LINE
  8
0
 10
67.3422
 20
-34.8646
 11
67.4176
 21
-34.7982
  0
LINE
  8
0
 10
67.4176
 20
-34.7982
 11
67.497
 21
-34.7365
  0
LINE
  8
0
 10
67.497
 20
-34.7365
 11
67.5802
 21
-34.6801
  0
LINE
  8
0
 10
67.5802
 20
-34.6801
 11
67.6667
 21
-34.6289
  0
LINE
  8
0
 10
67.6667
 20
-34.6289
 11
67.7562
 21
-34.5832
  0
LINE
  8
0
 10
67.7562
 20
-34.5832
 11
67.8485
 21
-34.5433
  0
LINE
  8
0
 10
67.8485
 20
-34.5433
 11
67.9431
 21
-34.5093
  0
LINE
  8
0
 10
67.9431
 20
-34.5093
 11
68.0396
 21
-34.4812
  0
LINE
  8
0
 10
68.0396
 20
-34.4812
 11
68.1377
 21
-34.4593
  0
LINE
  8
0
 10
68.1377
 20
-34.4593
 11
68.237
 21
-34.4436
  0
LINE
  8
0
 10
68.237
 20
-34.4436
 11
68.337
 21
-34.4341
  0
LINE
  8
0
 10
68.337
 20
-34.4341
 11
68.4375
 21
-34.431
  0
LINE
  8
0
 10
68.4375
 20
-34.431
 11
68.538
 21
-34.4341
  0
LINE
  8
0
 10
68.538
 20
-34.4341
 11
68.638
 21
-34.4436
  0
LINE
  8
0
 10
68.638
 20
-34.4436
 11
68.7373
 21
-34.4593
  0
LINE
  8
0
 10
68.7373
 20
-34.4593
 11
68.8354
 21
-34.4812
  0
LINE
  8
0
 10
68.8354
 20
-34.4812
 11
68.9319
 21
-34.5093
  0
LINE
  8
0
 10
68.9319
 20
-34.5093
 11
69.0265
 21
-34.5433
  0
LINE
  8
0
 10
69.0265
 20
-34.5433
 11
69.1187
 21
-34.5832
  0
LINE
  8
0
 10
69.1187
 20
-34.5832
 11
69.2083
 21
-34.6289
  0
LINE
  8
0
 10
69.2083
 20
-34.6289
 11
69.2948
 21
-34.6801
  0
LINE
  8
0
 10
69.2948
 20
-34.6801
 11
69.378
 21
-34.7365
  0
LINE
  8
0
 10
69.378
 20
-34.7365
 11
69.4574
 21
-34.7982
  0
LINE
  8
0
 10
69.4574
 20
-34.7982
 11
69.5328
 21
-34.8646
  0
LINE
  8
0
 10
69.5328
 20
-34.8646
 11
69.6038
 21
-34.9357
  0
LINE
  8
0
 10
69.6038
 20
-34.9357
 11
69.6703
 21
-35.0111
  0
LINE
  8
0
 10
69.6703
 20
-35.0111
 11
69.7319
 21
-35.0905
  0
LINE
  8
0
 10
69.7319
 20
-35.0905
 11
69.7884
 21
-35.1736
  0
LINE
  8
0
 10
69.7884
 20
-35.1736
 11
69.8396
 21
-35.2602
  0
LINE
  8
0
 10
69.8396
 20
-35.2602
 11
69.8852
 21
-35.3497
  0
LINE
  8
0
 10
69.8852
 20
-35.3497
 11
69.9251
 21
-35.442
  0
LINE
  8
0
 10
69.9251
 20
-35.442
 11
69.9592
 21
-35.5365
  0
LINE
  8
0
 10
69.9592
 20
-35.5365
 11
69.9872
 21
-35.6331
  0
LINE
  8
0
 10
69.9872
 20
-35.6331
 11
70.0091
 21
-35.7312
  0
LINE
  8
0
 10
70.0091
 20
-35.7312
 11
70.0249
 21
-35.8304
  0
LINE
  8
0
 10
70.0249
 20
-35.8304
 11
70.0343
 21
-35.9305
  0
LINE
  8
0
 10
70.0343
 20
-35.9305
 11
70.0375
 21
-36.031
  0
LINE
  8
0
 10
70.0375
 20
-36.031
 11
70.0343
 21
-36.1314
  0
LINE
  8
0
 10
70.0343
 20
-36.1314
 11
70.0249
 21
-36.2315
  0
LINE
  8
0
 10
70.0249
 20
-36.2315
 11
70.0091
 21
-36.3308
  0
LINE
  8
0
 10
70.0091
 20
-36.3308
 11
69.9872
 21
-36.4289
  0
LINE
  8
0
 10
69.9872
 20
-36.4289
 11
69.9592
 21
-36.5254
  0
LINE
  8
0
 10
69.9592
 20
-36.5254
 11
69.9251
 21
-36.62
  0
LINE
  8
0
 10
69.9251
 20
-36.62
 11
69.8852
 21
-36.7122
  0
LINE
  8
0
 10
69.8852
 20
-36.7122
 11
69.8396
 21
-36.8018
  0
LINE
  8
0
 10
69.8396
 20
-36.8018
 11
69.7884
 21
-36.8883
  0
LINE
  8
0
 10
69.7884
 20
-36.8883
 11
69.7319
 21
-36.9714
  0
LINE
  8
0
 10
69.7319
 20
-36.9714
 11
69.6703
 21
-37.0509
  0
LINE
  8
0
 10
69.6703
 20
-37.0509
 11
69.6038
 21
-37.1262
  0
LINE
  8
0
 10
69.6038
 20
-37.1262
 11
69.5328
 21
-37.1973
  0
LINE
  8
0
 10
69.5328
 20
-37.1973
 11
69.4574
 21
-37.2638
  0
LINE
  8
0
 10
69.4574
 20
-37.2638
 11
69.378
 21
-37.3254
  0
LINE
  8
0
 10
69.378
 20
-37.3254
 11
69.2948
 21
-37.3819
  0
LINE
  8
0
 10
69.2948
 20
-37.3819
 11
69.2083
 21
-37.4331
  0
LINE
  8
0
 10
69.2083
 20
-37.4331
 11
69.1187
 21
-37.4787
  0
LINE
  8
0
 10
69.1187
 20
-37.4787
 11
69.0265
 21
-37.5186
  0
LINE
  8
0
 10
69.0265
 20
-37.5186
 11
68.9319
 21
-37.5527
  0
LINE
  8
0
 10
68.9319
 20
-37.5527
 11
68.8354
 21
-37.5807
  0
LINE
  8
0
 10
68.8354
 20
-37.5807
 11
68.7373
 21
-37.6026
  0
LINE
  8
0
 10
68.7373
 20
-37.6026
 11
68.638
 21
-37.6184
  0
LINE
  8
0
 10
68.638
 20
-37.6184
 11
68.538
 21
-37.6278
  0
LINE
  8
0
 10
68.538
 20
-37.6278
 11
68.4375
 21
-37.631
  0
LINE
  8
0
 10
68.4375
 20
-37.631
 11
68.337
 21
-37.6278
  0
LINE
  8
0
 10
-46.12
 20
-39.1688
 11
-46.22
 21
-39.1594
  0
LINE
  8
0
 10
-46.22
 20
-39.1594
 11
-46.3193
 21
-39.1436
  0
LINE
  8
0
 10
-46.3193
 20
-39.1436
 11
-46.4174
 21
-39.1217
  0
LINE
  8
0
 10
-46.4174
 20
-39.1217
 11
-46.5139
 21
-39.0937
  0
LINE
  8
0
 10
-46.5139
 20
-39.0937
 11
-46.6085
 21
-39.0596
  0
LINE
  8
0
 10
-46.6085
 20
-39.0596
 11
-46.7007
 21
-39.0197
  0
LINE
  8
0
 10
-46.7007
 20
-39.0197
 11
-46.7903
 21
-38.9741
  0
LINE
  8
0
 10
-46.7903
 20
-38.9741
 11
-46.8768
 21
-38.9229
  0
LINE
  8
0
 10
-46.8768
 20
-38.9229
 11
-46.96
 21
-38.8664
  0
LINE
  8
0
 10
-46.96
 20
-38.8664
 11
-47.0394
 21
-38.8048
  0
LINE
  8
0
 10
-47.0394
 20
-38.8048
 11
-47.1148
 21
-38.7383
  0
LINE
  8
0
 10
-47.1148
 20
-38.7383
 11
-47.1858
 21
-38.6672
  0
LINE
  8
0
 10
-47.1858
 20
-38.6672
 11
-47.2523
 21
-38.5919
  0
LINE
  8
0
 10
-47.2523
 20
-38.5919
 11
-47.3139
 21
-38.5124
  0
LINE
  8
0
 10
-47.3139
 20
-38.5124
 11
-47.3704
 21
-38.4293
  0
LINE
  8
0
 10
-47.3704
 20
-38.4293
 11
-47.4216
 21
-38.3428
  0
LINE
  8
0
 10
-47.4216
 20
-38.3428
 11
-47.4672
 21
-38.2532
  0
LINE
  8
0
 10
-47.4672
 20
-38.2532
 11
-47.5071
 21
-38.161
  0
LINE
  8
0
 10
-47.5071
 20
-38.161
 11
-47.5412
 21
-38.0664
  0
LINE
  8
0
 10
-47.5412
 20
-38.0664
 11
-47.5692
 21
-37.9699
  0
LINE
  8
0
 10
-47.5692
 20
-37.9699
 11
-47.5911
 21
-37.8718
  0
LINE
  8
0
 10
-47.5911
 20
-37.8718
 11
-47.6069
 21
-37.7725
  0
LINE
  8
0
 10
-47.6069
 20
-37.7725
 11
-47.6163
 21
-37.6724
  0
LINE
  8
0
 10
-47.6163
 20
-37.6724
 11
-47.6195
 21
-37.572
  0
LINE
  8
0
 10
-47.6195
 20
-37.572
 11
-47.6163
 21
-37.4715
  0
LINE
  8
0
 10
-47.6163
 20
-37.4715
 11
-47.6069
 21
-37.3714
  0
LINE
  8
0
 10
-47.6069
 20
-37.3714
 11
-47.5911
 21
-37.2722
  0
LINE
  8
0
 10
-47.5911
 20
-37.2722
 11
-47.5692
 21
-37.1741
  0
LINE
  8
0
 10
-47.5692
 20
-37.1741
 11
-47.5412
 21
-37.0775
  0
LINE
  8
0
 10
-47.5412
 20
-37.0775
 11
-47.5071
 21
-36.983
  0
LINE
  8
0
 10
-47.5071
 20
-36.983
 11
-47.4672
 21
-36.8907
  0
LINE
  8
0
 10
-47.4672
 20
-36.8907
 11
-47.4216
 21
-36.8012
  0
LINE
  8
0
 10
-47.4216
 20
-36.8012
 11
-47.3704
 21
-36.7146
  0
LINE
  8
0
 10
-47.3704
 20
-36.7146
 11
-47.3139
 21
-36.6315
  0
LINE
  8
0
 10
-47.3139
 20
-36.6315
 11
-47.2523
 21
-36.5521
  0
LINE
  8
0
 10
-47.2523
 20
-36.5521
 11
-47.1858
 21
-36.4767
  0
LINE
  8
0
 10
-47.1858
 20
-36.4767
 11
-47.1148
 21
-36.4056
  0
LINE
  8
0
 10
-47.1148
 20
-36.4056
 11
-47.0394
 21
-36.3392
  0
LINE
  8
0
 10
-47.0394
 20
-36.3392
 11
-46.96
 21
-36.2775
  0
LINE
  8
0
 10
-46.96
 20
-36.2775
 11
-46.8768
 21
-36.2211
  0
LINE
  8
0
 10
-46.8768
 20
-36.2211
 11
-46.7903
 21
-36.1699
  0
LINE
  8
0
 10
-46.7903
 20
-36.1699
 11
-46.7007
 21
-36.1242
  0
LINE
  8
0
 10
-46.7007
 20
-36.1242
 11
-46.6085
 21
-36.0843
  0
LINE
  8
0
 10
-46.6085
 20
-36.0843
 11
-46.5139
 21
-36.0503
  0
LINE
  8
0
 10
-46.5139
 20
-36.0503
 11
-46.4174
 21
-36.0222
  0
LINE
  8
0
 10
-46.4174
 20
-36.0222
 11
-46.3193
 21
-36.0003
  0
LINE
  8
0
 10
-46.3193
 20
-36.0003
 11
-46.22
 21
-35.9846
  0
LINE
  8
0
 10
-46.22
 20
-35.9846
 11
-46.12
 21
-35.9751
  0
LINE
  8
0
 10
-46.12
 20
-35.9751
 11
-46.0195
 21
-35.972
  0
LINE
  8
0
 10
-46.0195
 20
-35.972
 11
-45.919
 21
-35.9751
  0
LINE
  8
0
 10
-45.919
 20
-35.9751
 11
-45.819
 21
-35.9846
  0
LINE
  8
0
 10
-45.819
 20
-35.9846
 11
-45.7197
 21
-36.0003
  0
LINE
  8
0
 10
-45.7197
 20
-36.0003
 11
-45.6216
 21
-36.0222
  0
LINE
  8
0
 10
-45.6216
 20
-36.0222
 11
-45.5251
 21
-36.0503
  0
LINE
  8
0
 10
-45.5251
 20
-36.0503
 11
-45.4305
 21
-36.0843
  0
LINE
  8
0
 10
-45.4305
 20
-36.0843
 11
-45.3382
 21
-36.1242
  0
LINE
  8
0
 10
-45.3382
 20
-36.1242
 11
-45.2487
 21
-36.1699
  0
LINE
  8
0
 10
-45.2487
 20
-36.1699
 11
-45.1622
 21
-36.2211
  0
LINE
  8
0
 10
-45.1622
 20
-36.2211
 11
-45.079
 21
-36.2775
  0
LINE
  8
0
 10
-45.079
 20
-36.2775
 11
-44.9996
 21
-36.3392
  0
LINE
  8
0
 10
-44.9996
 20
-36.3392
 11
-44.9242
 21
-36.4056
  0
LINE
  8
0
 10
-44.9242
 20
-36.4056
 11
-44.8531
 21
-36.4767
  0
LINE
  8
0
 10
-44.8531
 20
-36.4767
 11
-44.7867
 21
-36.5521
  0
LINE
  8
0
 10
-44.7867
 20
-36.5521
 11
-44.7251
 21
-36.6315
  0
LINE
  8
0
 10
-44.7251
 20
-36.6315
 11
-44.6686
 21
-36.7146
  0
LINE
  8
0
 10
-44.6686
 20
-36.7146
 11
-44.6174
 21
-36.8012
  0
LINE
  8
0
 10
-44.6174
 20
-36.8012
 11
-44.5718
 21
-36.8907
  0
LINE
  8
0
 10
-44.5718
 20
-36.8907
 11
-44.5319
 21
-36.983
  0
LINE
  8
0
 10
-44.5319
 20
-36.983
 11
-44.4978
 21
-37.0775
  0
LINE
  8
0
 10
-44.4978
 20
-37.0775
 11
-44.4698
 21
-37.1741
  0
LINE
  8
0
 10
-44.4698
 20
-37.1741
 11
-44.4478
 21
-37.2722
  0
LINE
  8
0
 10
-44.4478
 20
-37.2722
 11
-44.4321
 21
-37.3714
  0
LINE
  8
0
 10
-44.4321
 20
-37.3714
 11
-44.4226
 21
-37.4715
  0
LINE
  8
0
 10
-44.4226
 20
-37.4715
 11
-44.4195
 21
-37.572
  0
LINE
  8
0
 10
-44.4195
 20
-37.572
 11
-44.4226
 21
-37.6724
  0
LINE
  8
0
 10
-44.4226
 20
-37.6724
 11
-44.4321
 21
-37.7725
  0
LINE
  8
0
 10
-44.4321
 20
-37.7725
 11
-44.4478
 21
-37.8718
  0
LINE
  8
0
 10
-44.4478
 20
-37.8718
 11
-44.4698
 21
-37.9699
  0
LINE
  8
0
 10
-44.4698
 20
-37.9699
 11
-44.4978
 21
-38.0664
  0
LINE
  8
0
 10
-44.4978
 20
-38.0664
 11
-44.5319
 21
-38.161
  0
LINE
  8
0
 10
-44.5319
 20
-38.161
 11
-44.5718
 21
-38.2532
  0
LINE
  8
0
 10
-44.5718
 20
-38.2532
 11
-44.6174
 21
-38.3428
  0
LINE
  8
0
 10
-44.6174
 20
-38.3428
 11
-44.6686
 21
-38.4293
  0
LINE
  8
0
 10
-44.6686
 20
-38.4293
 11
-44.7251
 21
-38.5124
  0
LINE
  8
0
 10
-44.7251
 20
-38.5124
 11
-44.7867
 21
-38.5919
  0
LINE
  8
0
 10
-44.7867
 20
-38.5919
 11
-44.8531
 21
-38.6672
  0
LINE
  8
0
 10
-44.8531
 20
-38.6672
 11
-44.9242
 21
-38.7383
  0
LINE
  8
0
 10
-44.9242
 20
-38.7383
 11
-44.9996
 21
-38.8048
  0
LINE
  8
0
 10
-44.9996
 20
-38.8048
 11
-45.079
 21
-38.8664
  0
LINE
  8
0
 10
-45.079
 20
-38.8664
 11
-45.1622
 21
-38.9229
  0
LINE
  8
0
 10
-45.1622
 20
-38.9229
 11
-45.2487
 21
-38.9741
  0
LINE
  8
0
 10
-45.2487
 20
-38.9741
 11
-45.3382
 21
-39.0197
  0
LINE
  8
0
 10
-45.3382
 20
-39.0197
 11
-45.4305
 21
-39.0596
  0
LINE
  8
0
 10
-45.4305
 20
-39.0596
 11
-45.5251
 21
-39.0937
  0
LINE
  8
0
 10
-45.5251
 20
-39.0937
 11
-45.6216
 21
-39.1217
  0
LINE
  8
0
 10
-45.6216
 20
-39.1217
 11
-45.7197
 21
-39.1436
  0
LINE
  8
0
 10
-45.7197
 20
-39.1436
 11
-45.819
 21
-39.1594
  0
LINE
  8
0
 10
-45.819
 20
-39.1594
 11
-45.919
 21
-39.1688
  0
LINE
  8
0
 10
-45.919
 20
-39.1688
 11
-46.0195
 21
-39.172
  0
LINE
  8
0
 10
-46.0195
 20
-39.172
 11
-46.12
 21
-39.1688
  0
LINE
  8
0
 10
-82.8119
 20
-40.6828
 11
-82.912
 21
-40.6734
  0
LINE
  8
0
 10
-82.912
 20
-40.6734
 11
-83.0113
 21
-40.6577
  0
LINE
  8
0
 10
-83.0113
 20
-40.6577
 11
-83.1093
 21
-40.6357
  0
LINE
  8
0
 10
-83.1093
 20
-40.6357
 11
-83.2059
 21
-40.6077
  0
LINE
  8
0
 10
-83.2059
 20
-40.6077
 11
-83.3004
 21
-40.5736
  0
LINE
  8
0
 10
-83.3004
 20
-40.5736
 11
-83.3927
 21
-40.5337
  0
LINE
  8
0
 10
-83.3927
 20
-40.5337
 11
-83.4822
 21
-40.4881
  0
LINE
  8
0
 10
-83.4822
 20
-40.4881
 11
-83.5688
 21
-40.4369
  0
LINE
  8
0
 10
-83.5688
 20
-40.4369
 11
-83.6519
 21
-40.3804
  0
LINE
  8
0
 10
-83.6519
 20
-40.3804
 11
-83.7313
 21
-40.3188
  0
LINE
  8
0
 10
-83.7313
 20
-40.3188
 11
-83.8067
 21
-40.2523
  0
LINE
  8
0
 10
-83.8067
 20
-40.2523
 11
-83.8778
 21
-40.1813
  0
LINE
  8
0
 10
-83.8778
 20
-40.1813
 11
-83.9443
 21
-40.1059
  0
LINE
  8
0
 10
-83.9443
 20
-40.1059
 11
-84.0059
 21
-40.0264
  0
LINE
  8
0
 10
-84.0059
 20
-40.0264
 11
-84.0624
 21
-39.9433
  0
LINE
  8
0
 10
-84.0624
 20
-39.9433
 11
-84.1135
 21
-39.8568
  0
LINE
  8
0
 10
-84.1135
 20
-39.8568
 11
-84.1592
 21
-39.7672
  0
LINE
  8
0
 10
-84.1592
 20
-39.7672
 11
-84.1991
 21
-39.675
  0
LINE
  8
0
 10
-84.1991
 20
-39.675
 11
-84.2331
 21
-39.5804
  0
LINE
  8
0
 10
-84.2331
 20
-39.5804
 11
-84.2612
 21
-39.4839
  0
LINE
  8
0
 10
-84.2612
 20
-39.4839
 11
-84.2831
 21
-39.3858
  0
LINE
  8
0
 10
-84.2831
 20
-39.3858
 11
-84.2988
 21
-39.2865
  0
LINE
  8
0
 10
-84.2988
 20
-39.2865
 11
-84.3083
 21
-39.1865
  0
LINE
  8
0
 10
-84.3083
 20
-39.1865
 11
-84.3114
 21
-39.086
  0
LINE
  8
0
 10
-84.3114
 20
-39.086
 11
-84.3083
 21
-38.9855
  0
LINE
  8
0
 10
-84.3083
 20
-38.9855
 11
-84.2988
 21
-38.8854
  0
LINE
  8
0
 10
-84.2988
 20
-38.8854
 11
-84.2831
 21
-38.7862
  0
LINE
  8
0
 10
-84.2831
 20
-38.7862
 11
-84.2612
 21
-38.6881
  0
LINE
  8
0
 10
-84.2612
 20
-38.6881
 11
-84.2331
 21
-38.5916
  0
LINE
  8
0
 10
-84.2331
 20
-38.5916
 11
-84.1991
 21
-38.497
  0
LINE
  8
0
 10
-84.1991
 20
-38.497
 11
-84.1592
 21
-38.4047
  0
LINE
  8
0
 10
-84.1592
 20
-38.4047
 11
-84.1135
 21
-38.3152
  0
LINE
  8
0
 10
-84.1135
 20
-38.3152
 11
-84.0624
 21
-38.2287
  0
LINE
  8
0
 10
-84.0624
 20
-38.2287
 11
-84.0059
 21
-38.1455
  0
LINE
  8
0
 10
-84.0059
 20
-38.1455
 11
-83.9443
 21
-38.0661
  0
LINE
  8
0
 10
-83.9443
 20
-38.0661
 11
-83.8778
 21
-37.9907
  0
LINE
  8
0
 10
-83.8778
 20
-37.9907
 11
-83.8067
 21
-37.9196
  0
LINE
  8
0
 10
-83.8067
 20
-37.9196
 11
-83.7313
 21
-37.8532
  0
LINE
  8
0
 10
-83.7313
 20
-37.8532
 11
-83.6519
 21
-37.7916
  0
LINE
  8
0
 10
-83.6519
 20
-37.7916
 11
-83.5688
 21
-37.7351
  0
LINE
  8
0
 10
-83.5688
 20
-37.7351
 11
-83.4822
 21
-37.6839
  0
LINE
  8
0
 10
-83.4822
 20
-37.6839
 11
-83.3927
 21
-37.6383
  0
LINE
  8
0
 10
-83.3927
 20
-37.6383
 11
-83.3004
 21
-37.5983
  0
LINE
  8
0
 10
-83.3004
 20
-37.5983
 11
-83.2059
 21
-37.5643
  0
LINE
  8
0
 10
-83.2059
 20
-37.5643
 11
-83.1093
 21
-37.5363
  0
LINE
  8
0
 10
-83.1093
 20
-37.5363
 11
-83.0113
 21
-37.5143
  0
LINE
  8
0
 10
-83.0113
 20
-37.5143
 11
-82.912
 21
-37.4986
  0
LINE
  8
0
 10
-82.912
 20
-37.4986
 11
-82.8119
 21
-37.4891
  0
LINE
  8
0
 10
-82.8119
 20
-37.4891
 11
-82.7114
 21
-37.486
  0
LINE
  8
0
 10
-82.7114
 20
-37.486
 11
-82.611
 21
-37.4891
  0
LINE
  8
0
 10
-82.611
 20
-37.4891
 11
-82.5109
 21
-37.4986
  0
LINE
  8
0
 10
-82.5109
 20
-37.4986
 11
-82.4116
 21
-37.5143
  0
LINE
  8
0
 10
-82.4116
 20
-37.5143
 11
-82.3135
 21
-37.5363
  0
LINE
  8
0
 10
-82.3135
 20
-37.5363
 11
-82.217
 21
-37.5643
  0
LINE
  8
0
 10
-82.217
 20
-37.5643
 11
-82.1224
 21
-37.5983
  0
LINE
  8
0
 10
-82.1224
 20
-37.5983
 11
-82.0302
 21
-37.6383
  0
LINE
  8
0
 10
-82.0302
 20
-37.6383
 11
-81.9406
 21
-37.6839
  0
LINE
  8
0
 10
-81.9406
 20
-37.6839
 11
-81.8541
 21
-37.7351
  0
LINE
  8
0
 10
-81.8541
 20
-37.7351
 11
-81.771
 21
-37.7916
  0
LINE
  8
0
 10
-81.771
 20
-37.7916
 11
-81.6915
 21
-37.8532
  0
LINE
  8
0
 10
-81.6915
 20
-37.8532
 11
-81.6162
 21
-37.9196
  0
LINE
  8
0
 10
-81.6162
 20
-37.9196
 11
-81.5451
 21
-37.9907
  0
LINE
  8
0
 10
-81.5451
 20
-37.9907
 11
-81.4786
 21
-38.0661
  0
LINE
  8
0
 10
-81.4786
 20
-38.0661
 11
-81.417
 21
-38.1455
  0
LINE
  8
0
 10
-81.417
 20
-38.1455
 11
-81.3605
 21
-38.2287
  0
LINE
  8
0
 10
-81.3605
 20
-38.2287
 11
-81.3093
 21
-38.3152
  0
LINE
  8
0
 10
-81.3093
 20
-38.3152
 11
-81.2637
 21
-38.4047
  0
LINE
  8
0
 10
-81.2637
 20
-38.4047
 11
-81.2238
 21
-38.497
  0
LINE
  8
0
 10
-81.2238
 20
-38.497
 11
-81.1897
 21
-38.5916
  0
LINE
  8
0
 10
-81.1897
 20
-38.5916
 11
-81.1617
 21
-38.6881
  0
LINE
  8
0
 10
-81.1617
 20
-38.6881
 11
-81.1398
 21
-38.7862
  0
LINE
  8
0
 10
-81.1398
 20
-38.7862
 11
-81.124
 21
-38.8854
  0
LINE
  8
0
 10
-81.124
 20
-38.8854
 11
-81.1146
 21
-38.9855
  0
LINE
  8
0
 10
-81.1146
 20
-38.9855
 11
-81.1114
 21
-39.086
  0
LINE
  8
0
 10
-81.1114
 20
-39.086
 11
-81.1146
 21
-39.1865
  0
LINE
  8
0
 10
-81.1146
 20
-39.1865
 11
-81.124
 21
-39.2865
  0
LINE
  8
0
 10
-81.124
 20
-39.2865
 11
-81.1398
 21
-39.3858
  0
LINE
  8
0
 10
-81.1398
 20
-39.3858
 11
-81.1617
 21
-39.4839
  0
LINE
  8
0
 10
-81.1617
 20
-39.4839
 11
-81.1897
 21
-39.5804
  0
LINE
  8
0
 10
-81.1897
 20
-39.5804
 11
-81.2238
 21
-39.675
  0
LINE
  8
0
 10
-81.2238
 20
-39.675
 11
-81.2637
 21
-39.7672
  0
LINE
  8
0
 10
-81.2637
 20
-39.7672
 11
-81.3093
 21
-39.8568
  0
LINE
  8
0
 10
-81.3093
 20
-39.8568
 11
-81.3605
 21
-39.9433
  0
LINE
  8
0
 10
-81.3605
 20
-39.9433
 11
-81.417
 21
-40.0264
  0
LINE
  8
0
 10
-81.417
 20
-40.0264
 11
-81.4786
 21
-40.1059
  0
LINE
  8
0
 10
-81.4786
 20
-40.1059
 11
-81.5451
 21
-40.1813
  0
LINE
  8
0
 10
-81.5451
 20
-40.1813
 11
-81.6162
 21
-40.2523
  0
LINE
  8
0
 10
-81.6162
 20
-40.2523
 11
-81.6915
 21
-40.3188
  0
LINE
  8
0
 10
-81.6915
 20
-40.3188
 11
-81.771
 21
-40.3804
  0
LINE
  8
0
 10
-81.771
 20
-40.3804
 11
-81.8541
 21
-40.4369
  0
LINE
  8
0
 10
-81.8541
 20
-40.4369
 11
-81.9406
 21
-40.4881
  0
LINE
  8
0
 10
-81.9406
 20
-40.4881
 11
-82.0302
 21
-40.5337
  0
LINE
  8
0
 10
-82.0302
 20
-40.5337
 11
-82.1224
 21
-40.5736
  0
LINE
  8
0
 10
-82.1224
 20
-40.5736
 11
-82.217
 21
-40.6077
  0
LINE
  8
0
 10
-82.217
 20
-40.6077
 11
-82.3135
 21
-40.6357
  0
LINE
  8
0
 10
-82.3135
 20
-40.6357
 11
-82.4116
 21
-40.6577
  0
LINE
  8
0
 10
-82.4116
 20
-40.6577
 11
-82.5109
 21
-40.6734
  0
LINE
  8
0
 10
-82.5109
 20
-40.6734
 11
-82.611
 21
-40.6828
  0
LINE
  8
0
 10
-82.611
 20
-40.6828
 11
-82.7114
 21
-40.686
  0
LINE
  8
0
 10
-82.7114
 20
-40.686
 11
-82.8119
 21
-40.6828
  0
LINE
  8
0
 10
-48.093
 20
-75.4018
 11
-48.193
 21
-75.3923
  0
LINE
  8
0
 10
-48.193
 20
-75.3923
 11
-48.2923
 21
-75.3766
  0
LINE
  8
0
 10
-48.2923
 20
-75.3766
 11
-48.3904
 21
-75.3547
  0
LINE
  8
0
 10
-48.3904
 20
-75.3547
 11
-48.4869
 21
-75.3266
  0
LINE
  8
0
 10
-48.4869
 20
-75.3266
 11
-48.5815
 21
-75.2926
  0
LINE
  8
0
 10
-48.5815
 20
-75.2926
 11
-48.6737
 21
-75.2527
  0
LINE
  8
0
 10
-48.6737
 20
-75.2527
 11
-48.7633
 21
-75.207
  0
LINE
  8
0
 10
-48.7633
 20
-75.207
 11
-48.8498
 21
-75.1559
  0
LINE
  8
0
 10
-48.8498
 20
-75.1559
 11
-48.9329
 21
-75.0994
  0
LINE
  8
0
 10
-48.9329
 20
-75.0994
 11
-49.0124
 21
-75.0377
  0
LINE
  8
0
 10
-49.0124
 20
-75.0377
 11
-49.0878
 21
-74.9713
  0
LINE
  8
0
 10
-49.0878
 20
-74.9713
 11
-49.1588
 21
-74.9002
  0
LINE
  8
0
 10
-49.1588
 20
-74.9002
 11
-49.2253
 21
-74.8248
  0
LINE
  8
0
 10
-49.2253
 20
-74.8248
 11
-49.2869
 21
-74.7454
  0
LINE
  8
0
 10
-49.2869
 20
-74.7454
 11
-49.3434
 21
-74.6623
  0
LINE
  8
0
 10
-49.3434
 20
-74.6623
 11
-49.3946
 21
-74.5757
  0
LINE
  8
0
 10
-49.3946
 20
-74.5757
 11
-49.4402
 21
-74.4862
  0
LINE
  8
0
 10
-49.4402
 20
-74.4862
 11
-49.4801
 21
-74.3939
  0
LINE
  8
0
 10
-49.4801
 20
-74.3939
 11
-49.5142
 21
-74.2994
  0
LINE
  8
0
 10
-49.5142
 20
-74.2994
 11
-49.5422
 21
-74.2028
  0
LINE
  8
0
 10
-49.5422
 20
-74.2028
 11
-49.5642
 21
-74.1047
  0
LINE
  8
0
 10
-49.5642
 20
-74.1047
 11
-49.5799
 21
-74.0055
  0
LINE
  8
0
 10
-49.5799
 20
-74.0055
 11
-49.5893
 21
-73.9054
  0
LINE
  8
0
 10
-49.5893
 20
-73.9054
 11
-49.5925
 21
-73.8049
  0
LINE
  8
0
 10
-49.5925
 20
-73.8049
 11
-49.5893
 21
-73.7045
  0
LINE
  8
0
 10
-49.5893
 20
-73.7045
 11
-49.5799
 21
-73.6044
  0
LINE
  8
0
 10
-49.5799
 20
-73.6044
 11
-49.5642
 21
-73.5051
  0
LINE
  8
0
 10
-49.5642
 20
-73.5051
 11
-49.5422
 21
-73.407
  0
LINE
  8
0
 10
-49.5422
 20
-73.407
 11
-49.5142
 21
-73.3105
  0
LINE
  8
0
 10
-49.5142
 20
-73.3105
 11
-49.4801
 21
-73.2159
  0
LINE
  8
0
 10
-49.4801
 20
-73.2159
 11
-49.4402
 21
-73.1237
  0
LINE
  8
0
 10
-49.4402
 20
-73.1237
 11
-49.3946
 21
-73.0341
  0
LINE
  8
0
 10
-49.3946
 20
-73.0341
 11
-49.3434
 21
-72.9476
  0
LINE
  8
0
 10
-49.3434
 20
-72.9476
 11
-49.2869
 21
-72.8645
  0
LINE
  8
0
 10
-49.2869
 20
-72.8645
 11
-49.2253
 21
-72.785
  0
LINE
  8
0
 10
-49.2253
 20
-72.785
 11
-49.1588
 21
-72.7097
  0
LINE
  8
0
 10
-49.1588
 20
-72.7097
 11
-49.0878
 21
-72.6386
  0
LINE
  8
0
 10
-49.0878
 20
-72.6386
 11
-49.0124
 21
-72.5721
  0
LINE
  8
0
 10
-49.0124
 20
-72.5721
 11
-48.9329
 21
-72.5105
  0
LINE
  8
0
 10
-48.9329
 20
-72.5105
 11
-48.8498
 21
-72.454
  0
LINE
  8
0
 10
-48.8498
 20
-72.454
 11
-48.7633
 21
-72.4028
  0
LINE
  8
0
 10
-48.7633
 20
-72.4028
 11
-48.6737
 21
-72.3572
  0
LINE
  8
0
 10
-48.6737
 20
-72.3572
 11
-48.5815
 21
-72.3173
  0
LINE
  8
0
 10
-48.5815
 20
-72.3173
 11
-48.4869
 21
-72.2832
  0
LINE
  8
0
 10
-48.4869
 20
-72.2832
 11
-48.3904
 21
-72.2552
  0
LINE
  8
0
 10
-48.3904
 20
-72.2552
 11
-48.2923
 21
-72.2333
  0
LINE
  8
0
 10
-48.2923
 20
-72.2333
 11
-48.193
 21
-72.2175
  0
LINE
  8
0
 10
-48.193
 20
-72.2175
 11
-48.093
 21
-72.2081
  0
LINE
  8
0
 10
-48.093
 20
-72.2081
 11
-47.9925
 21
-72.2049
  0
LINE
  8
0
 10
-47.9925
 20
-72.2049
 11
-47.892
 21
-72.2081
  0
LINE
  8
0
 10
-47.892
 20
-72.2081
 11
-47.792
 21
-72.2175
  0
LINE
  8
0
 10
-47.792
 20
-72.2175
 11
-47.6927
 21
-72.2333
  0
LINE
  8
0
 10
-47.6927
 20
-72.2333
 11
-47.5946
 21
-72.2552
  0
LINE
  8
0
 10
-47.5946
 20
-72.2552
 11
-47.4981
 21
-72.2832
  0
LINE
  8
0
 10
-47.4981
 20
-72.2832
 11
-47.4035
 21
-72.3173
  0
LINE
  8
0
 10
-47.4035
 20
-72.3173
 11
-47.3112
 21
-72.3572
  0
LINE
  8
0
 10
-47.3112
 20
-72.3572
 11
-47.2217
 21
-72.4028
  0
LINE
  8
0
 10
-47.2217
 20
-72.4028
 11
-47.1352
 21
-72.454
  0
LINE
  8
0
 10
-47.1352
 20
-72.454
 11
-47.052
 21
-72.5105
  0
LINE
  8
0
 10
-47.052
 20
-72.5105
 11
-46.9726
 21
-72.5721
  0
LINE
  8
0
 10
-46.9726
 20
-72.5721
 11
-46.8972
 21
-72.6386
  0
LINE
  8
0
 10
-46.8972
 20
-72.6386
 11
-46.8261
 21
-72.7097
  0
LINE
  8
0
 10
-46.8261
 20
-72.7097
 11
-46.7597
 21
-72.785
  0
LINE
  8
0
 10
-46.7597
 20
-72.785
 11
-46.6981
 21
-72.8645
  0
LINE
  8
0
 10
-46.6981
 20
-72.8645
 11
-46.6416
 21
-72.9476
  0
LINE
  8
0
 10
-46.6416
 20
-72.9476
 11
-46.5904
 21
-73.0341
  0
LINE
  8
0
 10
-46.5904
 20
-73.0341
 11
-46.5448
 21
-73.1237
  0
LINE
  8
0
 10
-46.5448
 20
-73.1237
 11
-46.5048
 21
-73.2159
  0
LINE
  8
0
 10
-46.5048
 20
-73.2159
 11
-46.4708
 21
-73.3105
  0
LINE
  8
0
 10
-46.4708
 20
-73.3105
 11
-46.4428
 21
-73.407
  0
LINE
  8
0
 10
-46.4428
 20
-73.407
 11
-46.4208
 21
-73.5051
  0
LINE
  8
0
 10
-46.4208
 20
-73.5051
 11
-46.4051
 21
-73.6044
  0
LINE
  8
0
 10
-46.4051
 20
-73.6044
 11
-46.3957
 21
-73.7045
  0
LINE
  8
0
 10
-46.3957
 20
-73.7045
 11
-46.3925
 21
-73.8049
  0
LINE
  8
0
 10
-46.3925
 20
-73.8049
 11
-46.3957
 21
-73.9054
  0
LINE
  8
0
 10
-46.3957
 20
-73.9054
 11
-46.4051
 21
-74.0055
  0
LINE
  8
0
 10
-46.4051
 20
-74.0055
 11
-46.4208
 21
-74.1047
  0
LINE
  8
0
 10
-46.4208
 20
-74.1047
 11
-46.4428
 21
-74.2028
  0
LINE
  8
0
 10
-46.4428
 20
-74.2028
 11
-46.4708
 21
-74.2994
  0
LINE
  8
0
 10
-46.4708
 20
-74.2994
 11
-46.5048
 21
-74.3939
  0
LINE
  8
0
 10
-46.5048
 20
-74.3939
 11
-46.5448
 21
-74.4862
  0
LINE
  8
0
 10
-46.5448
 20
-74.4862
 11
-46.5904
 21
-74.5757
  0
LINE
  8
0
 10
-46.5904
 20
-74.5757
 11
-46.6416
 21
-74.6623
  0
LINE
  8
0
 10
-46.6416
 20
-74.6623
 11
-46.6981
 21
-74.7454
  0
LINE
  8
0
 10
-46.6981
 20
-74.7454
 11
-46.7597
 21
-74.8248
  0
LINE
  8
0
 10
-46.7597
 20
-74.8248
 11
-46.8261
 21
-74.9002
  0
LINE
  8
0
 10
-46.8261
 20
-74.9002
 11
-46.8972
 21
-74.9713
  0
LINE
  8
0
 10
-46.8972
 20
-74.9713
 11
-46.9726
 21
-75.0377
  0
LINE
  8
0
 10
-46.9726
 20
-75.0377
 11
-47.052
 21
-75.0994
  0
LINE
  8
0
 10
-47.052
 20
-75.0994
 11
-47.1352
 21
-75.1559
  0
LINE
  8
0
 10
-47.1352
 20
-75.1559
 11
-47.2217
 21
-75.207
  0
LINE
  8
0
 10
-47.2217
 20
-75.207
 11
-47.3112
 21
-75.2527
  0
LINE
  8
0
 10
-47.3112
 20
-75.2527
 11
-47.4035
 21
-75.2926
  0
LINE
  8
0
 10
-47.4035
 20
-75.2926
 11
-47.4981
 21
-75.3266
  0
LINE
  8
0
 10
-47.4981
 20
-75.3266
 11
-47.5946
 21
-75.3547
  0
LINE
  8
0
 10
-47.5946
 20
-75.3547
 11
-47.6927
 21
-75.3766
  0
LINE
  8
0
 10
-47.6927
 20
-75.3766
 11
-47.792
 21
-75.3923
  0
LINE
  8
0
 10
-47.792
 20
-75.3923
 11
-47.892
 21
-75.4018
  0
LINE
  8
0
 10
-47.892
 20
-75.4018
 11
-47.9925
 21
-75.4049
  0
LINE
  8
0
 10
-47.9925
 20
-75.4049
 11
-48.093
 21
-75.4018
  0
ENDSEC
  0
SECTION
  2
OBJECTS
  0
DICTIONARY
  0
ENDSEC
  0
EOF
