  0
SECTION
  2
BLOCKS
  0
ENDSEC
  0
SECTION
  2
ENTITIES
  0
LINE
  8
0
 10
-103.092
 20
-56.9114
 11
-102.967
 21
-56.8956
  0
LINE
  8
0
 10
-102.967
 20
-56.8956
 11
-102.844
 21
-56.8721
  0
LINE
  8
0
 10
-102.844
 20
-56.8721
 11
-102.722
 21
-56.8409
  0
LINE
  8
0
 10
-102.722
 20
-56.8409
 11
-102.603
 21
-56.802
  0
LINE
  8
0
 10
-102.603
 20
-56.802
 11
-102.486
 21
-56.7558
  0
LINE
  8
0
 10
-102.486
 20
-56.7558
 11
-102.372
 21
-56.7023
  0
LINE
  8
0
 10
-102.372
 20
-56.7023
 11
-102.262
 21
-56.6418
  0
LINE
  8
0
 10
-102.262
 20
-56.6418
 11
-102.156
 21
-56.5744
  0
LINE
  8
0
 10
-102.156
 20
-56.5744
 11
-102.054
 21
-56.5006
  0
LINE
  8
0
 10
-102.054
 20
-56.5006
 11
-101.957
 21
-56.4205
  0
LINE
  8
0
 10
-101.957
 20
-56.4205
 11
-101.866
 21
-56.3345
  0
LINE
  8
0
 10
-101.866
 20
-56.3345
 11
-90.2695
 21
-44.7382
  0
LINE
  8
0
 10
-90.2695
 20
-44.7382
 11
-87.2774
 21
-41.9284
  0
LINE
  8
0
 10
-87.2774
 20
-41.9284
 11
-84.2107
 21
-39.3915
  0
LINE
  8
0
 10
-84.2107
 20
-39.3915
 11
-80.9917
 21
-37.0527
  0
LINE
  8
0
 10
-80.9917
 20
-37.0527
 11
-77.6317
 21
-34.9204
  0
LINE
  8
0
 10
-77.6317
 20
-34.9204
 11
-74.1442
 21
-33.0031
  0
LINE
  8
0
 10
-74.1442
 20
-33.0031
 11
-70.5437
 21
-31.3088
  0
LINE
  8
0
 10
-70.5437
 20
-31.3088
 11
-66.8436
 21
-29.8439
  0
LINE
  8
0
 10
-66.8436
 20
-29.8439
 11
-63.059
 21
-28.6142
  0
LINE
  8
0
 10
-63.059
 20
-28.6142
 11
-59.2043
 21
-27.6245
  0
LINE
  8
0
 10
-59.2043
 20
-27.6245
 11
-55.2955
 21
-26.8788
  0
LINE
  8
0
 10
-55.2955
 20
-26.8788
 11
-51.3475
 21
-26.3801
  0
LINE
  8
0
 10
-51.3475
 20
-26.3801
 11
-47.3759
 21
-26.1302
  0
LINE
  8
0
 10
-47.3759
 20
-26.1302
 11
-44.2771
 21
-26.1302
  0
LINE
  8
0
 10
-44.2771
 20
-26.1302
 11
-44.1516
 21
-26.1263
  0
LINE
  8
0
 10
-44.1516
 20
-26.1263
 11
-44.0265
 21
-26.1144
  0
LINE
  8
0
 10
-44.0265
 20
-26.1144
 11
-43.9037
 21
-26.095
  0
LINE
  8
0
 10
-43.9037
 20
-26.095
 11
-9.81099
 21
-26.095
  0
LINE
  8
0
 10
-9.81099
 20
-26.095
 11
-9.68541
 21
-26.091
  0
LINE
  8
0
 10
-9.68541
 20
-26.091
 11
-9.56032
 21
-26.0792
  0
LINE
  8
0
 10
-9.56032
 20
-26.0792
 11
-9.43623
 21
-26.0596
  0
LINE
  8
0
 10
-9.43623
 20
-26.0596
 11
-9.31361
 21
-26.0322
  0
LINE
  8
0
 10
-9.31361
 20
-26.0322
 11
-9.19296
 21
-25.9971
  0
LINE
  8
0
 10
-9.19296
 20
-25.9971
 11
-9.07474
 21
-25.9545
  0
LINE
  8
0
 10
-9.07474
 20
-25.9545
 11
-8.95943
 21
-25.9046
  0
LINE
  8
0
 10
-8.95943
 20
-25.9046
 11
-8.84749
 21
-25.8476
  0
LINE
  8
0
 10
-8.84749
 20
-25.8476
 11
-8.73933
 21
-25.7836
  0
LINE
  8
0
 10
-8.73933
 20
-25.7836
 11
-8.63542
 21
-25.713
  0
LINE
  8
0
 10
-8.63542
 20
-25.713
 11
-8.53615
 21
-25.636
  0
LINE
  8
0
 10
-8.53615
 20
-25.636
 11
-8.44189
 21
-25.5529
  0
LINE
  8
0
 10
-8.44189
 20
-25.5529
 11
-8.35306
 21
-25.4641
  0
LINE
  8
0
 10
-8.35306
 20
-25.4641
 11
-8.26996
 21
-25.3698
  0
LINE
  8
0
 10
-8.26996
 20
-25.3698
 11
-8.19296
 21
-25.2706
  0
LINE
  8
0
 10
-8.19296
 20
-25.2706
 11
-8.12233
 21
-25.1666
  0
LINE
  8
0
 10
-8.12233
 20
-25.1666
 11
-8.05838
 21
-25.0585
  0
LINE
  8
0
 10
-8.05838
 20
-25.0585
 11
-8.00134
 21
-24.9465
  0
LINE
  8
0
 10
-8.00134
 20
-24.9465
 11
-7.95143
 21
-24.8312
  0
LINE
  8
0
 10
-7.95143
 20
-24.8312
 11
-7.90887
 21
-24.713
  0
LINE
  8
0
 10
-7.90887
 20
-24.713
 11
-7.87383
 21
-24.5924
  0
LINE
  8
0
 10
-7.87383
 20
-24.5924
 11
-7.84642
 21
-24.4697
  0
LINE
  8
0
 10
-7.84642
 20
-24.4697
 11
-7.82677
 21
-24.3457
  0
LINE
  8
0
 10
-7.82677
 20
-24.3457
 11
-7.81494
 21
-24.2206
  0
LINE
  8
0
 10
-7.81494
 20
-24.2206
 11
-7.81099
 21
-24.095
  0
LINE
  8
0
 10
-7.81099
 20
-24.095
 11
-7.81099
 21
-18.525
  0
LINE
  8
0
 10
-7.81099
 20
-18.525
 11
14.65
 21
-18.525
  0
LINE
  8
0
 10
14.65
 20
-18.525
 11
14.7756
 21
-18.521
  0
LINE
  8
0
 10
14.7756
 20
-18.521
 11
14.9007
 21
-18.5092
  0
LINE
  8
0
 10
14.9007
 20
-18.5092
 11
15.0247
 21
-18.4896
  0
LINE
  8
0
 10
15.0247
 20
-18.4896
 11
15.1474
 21
-18.4622
  0
LINE
  8
0
 10
15.1474
 20
-18.4622
 11
15.268
 21
-18.4271
  0
LINE
  8
0
 10
15.268
 20
-18.4271
 11
15.3862
 21
-18.3846
  0
LINE
  8
0
 10
15.3862
 20
-18.3846
 11
15.5016
 21
-18.3346
  0
LINE
  8
0
 10
15.5016
 20
-18.3346
 11
15.6135
 21
-18.2776
  0
LINE
  8
0
 10
15.6135
 20
-18.2776
 11
15.7216
 21
-18.2137
  0
LINE
  8
0
 10
15.7216
 20
-18.2137
 11
15.8256
 21
-18.143
  0
LINE
  8
0
 10
15.8256
 20
-18.143
 11
15.9248
 21
-18.066
  0
LINE
  8
0
 10
15.9248
 20
-18.066
 11
16.0191
 21
-17.9829
  0
LINE
  8
0
 10
16.0191
 20
-17.9829
 11
16.1079
 21
-17.8941
  0
LINE
  8
0
 10
16.1079
 20
-17.8941
 11
16.191
 21
-17.7998
  0
LINE
  8
0
 10
16.191
 20
-17.7998
 11
16.268
 21
-17.7006
  0
LINE
  8
0
 10
16.268
 20
-17.7006
 11
16.3387
 21
-17.5966
  0
LINE
  8
0
 10
16.3387
 20
-17.5966
 11
16.4026
 21
-17.4885
  0
LINE
  8
0
 10
16.4026
 20
-17.4885
 11
16.4596
 21
-17.3766
  0
LINE
  8
0
 10
16.4596
 20
-17.3766
 11
16.5096
 21
-17.2612
  0
LINE
  8
0
 10
16.5096
 20
-17.2612
 11
16.5521
 21
-17.143
  0
LINE
  8
0
 10
16.5521
 20
-17.143
 11
16.5872
 21
-17.0224
  0
LINE
  8
0
 10
16.5872
 20
-17.0224
 11
16.6146
 21
-16.8997
  0
LINE
  8
0
 10
16.6146
 20
-16.8997
 11
16.6342
 21
-16.7757
  0
LINE
  8
0
 10
16.6342
 20
-16.7757
 11
16.646
 21
-16.6506
  0
LINE
  8
0
 10
16.646
 20
-16.6506
 11
16.65
 21
-16.525
  0
LINE
  8
0
 10
16.65
 20
-16.525
 11
16.65
 21
62.2139
  0
LINE
  8
0
 10
16.65
 20
62.2139
 11
16.646
 21
62.3395
  0
LINE
  8
0
 10
16.646
 20
62.3395
 11
16.6342
 21
62.4646
  0
LINE
  8
0
 10
16.6342
 20
62.4646
 11
16.6146
 21
62.5887
  0
LINE
  8
0
 10
16.6146
 20
62.5887
 11
16.5872
 21
62.7113
  0
LINE
  8
0
 10
16.5872
 20
62.7113
 11
16.5521
 21
62.8319
  0
LINE
  8
0
 10
16.5521
 20
62.8319
 11
16.5096
 21
62.9501
  0
LINE
  8
0
 10
16.5096
 20
62.9501
 11
16.4596
 21
63.0655
  0
LINE
  8
0
 10
16.4596
 20
63.0655
 11
16.4026
 21
63.1774
  0
LINE
  8
0
 10
16.4026
 20
63.1774
 11
16.3387
 21
63.2856
  0
LINE
  8
0
 10
16.3387
 20
63.2856
 11
16.268
 21
63.3895
  0
LINE
  8
0
 10
16.268
 20
63.3895
 11
16.191
 21
63.4887
  0
LINE
  8
0
 10
16.191
 20
63.4887
 11
16.1079
 21
63.583
  0
LINE
  8
0
 10
16.1079
 20
63.583
 11
16.0191
 21
63.6718
  0
LINE
  8
0
 10
16.0191
 20
63.6718
 11
15.9248
 21
63.7549
  0
LINE
  8
0
 10
15.9248
 20
63.7549
 11
15.8256
 21
63.8319
  0
LINE
  8
0
 10
15.8256
 20
63.8319
 11
15.7216
 21
63.9026
  0
LINE
  8
0
 10
15.7216
 20
63.9026
 11
15.6135
 21
63.9665
  0
LINE
  8
0
 10
15.6135
 20
63.9665
 11
15.5016
 21
64.0235
  0
LINE
  8
0
 10
15.5016
 20
64.0235
 11
15.3862
 21
64.0735
  0
LINE
  8
0
 10
15.3862
 20
64.0735
 11
15.3275
 21
64.0957
  0
LINE
  8
0
 10
15.3275
 20
64.0957
 11
5.6949
 21
67.5636
  0
LINE
  8
0
 10
5.6949
 20
67.5636
 11
5.57541
 21
67.6024
  0
LINE
  8
0
 10
5.57541
 20
67.6024
 11
-4.26447
 21
70.4612
  0
LINE
  8
0
 10
-4.26447
 20
70.4612
 11
-4.38615
 21
70.4924
  0
LINE
  8
0
 10
-4.38615
 20
70.4924
 11
-14.3861
 21
72.7277
  0
LINE
  8
0
 10
-14.3861
 20
72.7277
 11
-14.5096
 21
72.7512
  0
LINE
  8
0
 10
-14.5096
 20
72.7512
 11
-24.6302
 21
74.3542
  0
LINE
  8
0
 10
-24.6302
 20
74.3542
 11
-24.7548
 21
74.3699
  0
LINE
  8
0
 10
-24.7548
 20
74.3699
 11
-34.9561
 21
75.3342
  0
LINE
  8
0
 10
-34.9561
 20
75.3342
 11
-35.0815
 21
75.3421
  0
LINE
  8
0
 10
-35.0815
 20
75.3421
 11
-45.3232
 21
75.664
  0
LINE
  8
0
 10
-45.3232
 20
75.664
 11
-45.4488
 21
75.664
  0
LINE
  8
0
 10
-45.4488
 20
75.664
 11
-55.6905
 21
75.3421
  0
LINE
  8
0
 10
-55.6905
 20
75.3421
 11
-55.8159
 21
75.3342
  0
LINE
  8
0
 10
-55.8159
 20
75.3342
 11
-66.0172
 21
74.3699
  0
LINE
  8
0
 10
-66.0172
 20
74.3699
 11
-66.1418
 21
74.3542
  0
LINE
  8
0
 10
-66.1418
 20
74.3542
 11
-76.2624
 21
72.7512
  0
LINE
  8
0
 10
-76.2624
 20
72.7512
 11
-76.3859
 21
72.7277
  0
LINE
  8
0
 10
-76.3859
 20
72.7277
 11
-86.3858
 21
70.4924
  0
LINE
  8
0
 10
-86.3858
 20
70.4924
 11
-86.5075
 21
70.4612
  0
LINE
  8
0
 10
-86.5075
 20
70.4612
 11
-90.475
 21
69.3085
  0
LINE
  8
0
 10
-90.475
 20
69.3085
 11
-90.475
 21
58.1069
  0
LINE
  8
0
 10
-90.475
 20
58.1069
 11
-119.307
 21
58.1069
  0
LINE
  8
0
 10
-119.307
 20
58.1069
 11
-126.133
 21
54.6292
  0
LINE
  8
0
 10
-126.133
 20
54.6292
 11
-126.243
 21
54.5686
  0
LINE
  8
0
 10
-126.243
 20
54.5686
 11
-126.349
 21
54.5013
  0
LINE
  8
0
 10
-126.349
 20
54.5013
 11
-126.451
 21
54.4275
  0
LINE
  8
0
 10
-126.451
 20
54.4275
 11
-126.548
 21
54.3474
  0
LINE
  8
0
 10
-126.548
 20
54.3474
 11
-126.639
 21
54.2614
  0
LINE
  8
0
 10
-126.639
 20
54.2614
 11
-126.725
 21
54.1698
  0
LINE
  8
0
 10
-126.725
 20
54.1698
 11
-126.805
 21
54.073
  0
LINE
  8
0
 10
-126.805
 20
54.073
 11
-126.879
 21
53.9713
  0
LINE
  8
0
 10
-126.879
 20
53.9713
 11
-126.946
 21
53.8652
  0
LINE
  8
0
 10
-126.946
 20
53.8652
 11
-127.007
 21
53.7551
  0
LINE
  8
0
 10
-127.007
 20
53.7551
 11
-127.061
 21
53.6414
  0
LINE
  8
0
 10
-127.061
 20
53.6414
 11
-127.107
 21
53.5246
  0
LINE
  8
0
 10
-127.107
 20
53.5246
 11
-127.146
 21
53.4051
  0
LINE
  8
0
 10
-127.146
 20
53.4051
 11
-127.177
 21
53.2834
  0
LINE
  8
0
 10
-127.177
 20
53.2834
 11
-127.2
 21
53.16
  0
LINE
  8
0
 10
-127.2
 20
53.16
 11
-127.216
 21
53.0354
  0
LINE
  8
0
 10
-127.216
 20
53.0354
 11
-127.224
 21
52.91
  0
LINE
  8
0
 10
-127.224
 20
52.91
 11
-127.225
 21
52.8472
  0
LINE
  8
0
 10
-127.225
 20
52.8472
 11
-127.225
 21
-2.35631
  0
LINE
  8
0
 10
-127.225
 20
-2.35631
 11
-141.534
 21
-16.6658
  0
LINE
  8
0
 10
-141.534
 20
-16.6658
 11
-141.62
 21
-16.7574
  0
LINE
  8
0
 10
-141.62
 20
-16.7574
 11
-141.701
 21
-16.8542
  0
LINE
  8
0
 10
-141.701
 20
-16.8542
 11
-141.774
 21
-16.9559
  0
LINE
  8
0
 10
-141.774
 20
-16.9559
 11
-141.842
 21
-17.0619
  0
LINE
  8
0
 10
-141.842
 20
-17.0619
 11
-141.902
 21
-17.172
  0
LINE
  8
0
 10
-141.902
 20
-17.172
 11
-141.956
 21
-17.2857
  0
LINE
  8
0
 10
-141.956
 20
-17.2857
 11
-142.002
 21
-17.4025
  0
LINE
  8
0
 10
-142.002
 20
-17.4025
 11
-142.041
 21
-17.522
  0
LINE
  8
0
 10
-142.041
 20
-17.522
 11
-142.072
 21
-17.6437
  0
LINE
  8
0
 10
-142.072
 20
-17.6437
 11
-142.096
 21
-17.7672
  0
LINE
  8
0
 10
-142.096
 20
-17.7672
 11
-142.111
 21
-17.8918
  0
LINE
  8
0
 10
-142.111
 20
-17.8918
 11
-142.119
 21
-18.0172
  0
LINE
  8
0
 10
-142.119
 20
-18.0172
 11
-142.119
 21
-18.1428
  0
LINE
  8
0
 10
-142.119
 20
-18.1428
 11
-142.111
 21
-18.2682
  0
LINE
  8
0
 10
-142.111
 20
-18.2682
 11
-142.096
 21
-18.3929
  0
LINE
  8
0
 10
-142.096
 20
-18.3929
 11
-142.072
 21
-18.5163
  0
LINE
  8
0
 10
-142.072
 20
-18.5163
 11
-142.041
 21
-18.638
  0
LINE
  8
0
 10
-142.041
 20
-18.638
 11
-142.002
 21
-18.7575
  0
LINE
  8
0
 10
-142.002
 20
-18.7575
 11
-141.956
 21
-18.8743
  0
LINE
  8
0
 10
-141.956
 20
-18.8743
 11
-141.902
 21
-18.988
  0
LINE
  8
0
 10
-141.902
 20
-18.988
 11
-141.842
 21
-19.0981
  0
LINE
  8
0
 10
-141.842
 20
-19.0981
 11
-141.774
 21
-19.2042
  0
LINE
  8
0
 10
-141.774
 20
-19.2042
 11
-141.701
 21
-19.3058
  0
LINE
  8
0
 10
-141.701
 20
-19.3058
 11
-141.62
 21
-19.4026
  0
LINE
  8
0
 10
-141.62
 20
-19.4026
 11
-141.534
 21
-19.4942
  0
LINE
  8
0
 10
-141.534
 20
-19.4942
 11
-104.694
 21
-56.3345
  0
LINE
  8
0
 10
-104.694
 20
-56.3345
 11
-104.603
 21
-56.4205
  0
LINE
  8
0
 10
-104.603
 20
-56.4205
 11
-104.506
 21
-56.5006
  0
LINE
  8
0
 10
-104.506
 20
-56.5006
 11
-104.404
 21
-56.5744
  0
LINE
  8
0
 10
-104.404
 20
-56.5744
 11
-104.298
 21
-56.6418
  0
LINE
  8
0
 10
-104.298
 20
-56.6418
 11
-104.188
 21
-56.7023
  0
LINE
  8
0
 10
-104.188
 20
-56.7023
 11
-104.074
 21
-56.7558
  0
LINE
  8
0
 10
-104.074
 20
-56.7558
 11
-103.957
 21
-56.802
  0
LINE
  8
0
 10
-103.957
 20
-56.802
 11
-103.838
 21
-56.8409
  0
LINE
  8
0
 10
-103.838
 20
-56.8409
 11
-103.716
 21
-56.8721
  0
LINE
  8
0
 10
-103.716
 20
-56.8721
 11
-103.593
 21
-56.8956
  0
LINE
  8
0
 10
-103.593
 20
-56.8956
 11
-103.468
 21
-56.9114
  0
LINE
  8
0
 10
-103.468
 20
-56.9114
 11
-103.343
 21
-56.9193
  0
LINE
  8
0
 10
-103.343
 20
-56.9193
 11
-103.217
 21
-56.9193
  0
LINE
  8
0
 10
-103.217
 20
-56.9193
 11
-103.092
 21
-56.9114
  0
LINE
  8
0
 10
-112.704
 20
53.615
 11
-109.257
 21
55.1069
  0
LINE
  8
0
 10
-109.257
 20
55.1069
 11
-87.475
 21
55.1069
  0
LINE
  8
0
 10
-87.475
 20
55.1069
 11
-87.475
 21
62.8907
  0
LINE
  8
0
 10
-87.475
 20
62.8907
 11
-86.475
 21
63.1812
  0
LINE
  8
0
 10
-86.475
 20
63.1812
 11
-86.475
 21
15.4539
  0
LINE
  8
0
 10
-86.475
 20
15.4539
 11
-86.8627
 21
15.3143
  0
LINE
  8
0
 10
-86.8627
 20
15.3143
 11
-93.3587
 21
12.5032
  0
LINE
  8
0
 10
-93.3587
 20
12.5032
 11
-99.6654
 21
9.28981
  0
LINE
  8
0
 10
-99.6654
 20
9.28981
 11
-105.758
 21
5.68675
  0
LINE
  8
0
 10
-105.758
 20
5.68675
 11
-111.612
 21
1.70825
  0
LINE
  8
0
 10
-111.612
 20
1.70825
 11
-117.205
 21
-2.62997
  0
LINE
  8
0
 10
-117.205
 20
-2.62997
 11
-118.899
 21
-4.12398
  0
LINE
  8
0
 10
-118.899
 20
-4.12398
 11
-118.903
 21
-4.12291
  0
LINE
  8
0
 10
-118.903
 20
-4.12291
 11
-119.02
 21
-4.07664
  0
LINE
  8
0
 10
-119.02
 20
-4.07664
 11
-119.133
 21
-4.02313
  0
LINE
  8
0
 10
-119.133
 20
-4.02313
 11
-119.243
 21
-3.9626
  0
LINE
  8
0
 10
-119.243
 20
-3.9626
 11
-119.349
 21
-3.89526
  0
LINE
  8
0
 10
-119.349
 20
-3.89526
 11
-119.451
 21
-3.8214
  0
LINE
  8
0
 10
-119.451
 20
-3.8214
 11
-119.548
 21
-3.7413
  0
LINE
  8
0
 10
-119.548
 20
-3.7413
 11
-119.639
 21
-3.65529
  0
LINE
  8
0
 10
-119.639
 20
-3.65529
 11
-119.725
 21
-3.56367
  0
LINE
  8
0
 10
-119.725
 20
-3.56367
 11
-119.805
 21
-3.46686
  0
LINE
  8
0
 10
-119.805
 20
-3.46686
 11
-119.879
 21
-3.3652
  0
LINE
  8
0
 10
-119.879
 20
-3.3652
 11
-119.947
 21
-3.25911
  0
LINE
  8
0
 10
-119.947
 20
-3.25911
 11
-120.007
 21
-3.149
  0
LINE
  8
0
 10
-120.007
 20
-3.149
 11
-120.061
 21
-3.03531
  0
LINE
  8
0
 10
-120.061
 20
-3.03531
 11
-120.107
 21
-2.91849
  0
LINE
  8
0
 10
-120.107
 20
-2.91849
 11
-120.146
 21
-2.799
  0
LINE
  8
0
 10
-120.146
 20
-2.799
 11
-120.177
 21
-2.67728
  0
LINE
  8
0
 10
-120.177
 20
-2.67728
 11
-120.2
 21
-2.55388
  0
LINE
  8
0
 10
-120.2
 20
-2.55388
 11
-120.216
 21
-2.42921
  0
LINE
  8
0
 10
-120.216
 20
-2.42921
 11
-120.224
 21
-2.30382
  0
LINE
  8
0
 10
-120.224
 20
-2.30382
 11
-120.224
 21
-2.24167
  0
LINE
  8
0
 10
-120.224
 20
-2.24167
 11
-120.225
 21
-2.24124
  0
LINE
  8
0
 10
-120.225
 20
-2.24124
 11
-120.225
 21
49.7831
  0
LINE
  8
0
 10
-120.225
 20
49.7831
 11
-112.704
 21
53.615
  0
LINE
  8
0
 10
-45.1
 20
49.1
 11
-45.1
 21
63.1
  0
LINE
  8
0
 10
-45.1
 20
63.1
 11
-31.1
 21
63.1
  0
LINE
  8
0
 10
-31.1
 20
63.1
 11
-31.1
 21
49.1
  0
LINE
  8
0
 10
-31.1
 20
49.1
 11
-45.1
 21
49.1
  0
LINE
  8
0
 10
13.0495
 20
59.5913
 11
12.9495
 21
59.6007
  0
LINE
  8
0
 10
12.9495
 20
59.6007
 11
12.8502
 21
59.6165
  0
LINE
  8
0
 10
12.8502
 20
59.6165
 11
12.7521
 21
59.6384
  0
LINE
  8
0
 10
12.7521
 20
59.6384
 11
12.6556
 21
59.6664
  0
LINE
  8
0
 10
12.6556
 20
59.6664
 11
12.561
 21
59.7005
  0
LINE
  8
0
 10
12.561
 20
59.7005
 11
12.4688
 21
59.7404
  0
LINE
  8
0
 10
12.4688
 20
59.7404
 11
12.3792
 21
59.786
  0
LINE
  8
0
 10
12.3792
 20
59.786
 11
12.2927
 21
59.8372
  0
LINE
  8
0
 10
12.2927
 20
59.8372
 11
12.2095
 21
59.8937
  0
LINE
  8
0
 10
12.2095
 20
59.8937
 11
12.1301
 21
59.9553
  0
LINE
  8
0
 10
12.1301
 20
59.9553
 11
12.0547
 21
60.0218
  0
LINE
  8
0
 10
12.0547
 20
60.0218
 11
11.9836
 21
60.0928
  0
LINE
  8
0
 10
11.9836
 20
60.0928
 11
11.9172
 21
60.1682
  0
LINE
  8
0
 10
11.9172
 20
60.1682
 11
11.8556
 21
60.2477
  0
LINE
  8
0
 10
11.8556
 20
60.2477
 11
11.7991
 21
60.3308
  0
LINE
  8
0
 10
11.7991
 20
60.3308
 11
11.7479
 21
60.4173
  0
LINE
  8
0
 10
11.7479
 20
60.4173
 11
11.7023
 21
60.5069
  0
LINE
  8
0
 10
11.7023
 20
60.5069
 11
11.6624
 21
60.5991
  0
LINE
  8
0
 10
11.6624
 20
60.5991
 11
11.6283
 21
60.6937
  0
LINE
  8
0
 10
11.6283
 20
60.6937
 11
11.6003
 21
60.7902
  0
LINE
  8
0
 10
11.6003
 20
60.7902
 11
11.5783
 21
60.8883
  0
LINE
  8
0
 10
11.5783
 20
60.8883
 11
11.5626
 21
60.9876
  0
LINE
  8
0
 10
11.5626
 20
60.9876
 11
11.5531
 21
61.0876
  0
LINE
  8
0
 10
11.5531
 20
61.0876
 11
11.55
 21
61.1881
  0
LINE
  8
0
 10
11.55
 20
61.1881
 11
11.5531
 21
61.2886
  0
LINE
  8
0
 10
11.5531
 20
61.2886
 11
11.5626
 21
61.3886
  0
LINE
  8
0
 10
11.5626
 20
61.3886
 11
11.5783
 21
61.4879
  0
LINE
  8
0
 10
11.5783
 20
61.4879
 11
11.6003
 21
61.586
  0
LINE
  8
0
 10
11.6003
 20
61.586
 11
11.6283
 21
61.6825
  0
LINE
  8
0
 10
11.6283
 20
61.6825
 11
11.6624
 21
61.7771
  0
LINE
  8
0
 10
11.6624
 20
61.7771
 11
11.7023
 21
61.8694
  0
LINE
  8
0
 10
11.7023
 20
61.8694
 11
11.7479
 21
61.9589
  0
LINE
  8
0
 10
11.7479
 20
61.9589
 11
11.7991
 21
62.0454
  0
LINE
  8
0
 10
11.7991
 20
62.0454
 11
11.8556
 21
62.1286
  0
LINE
  8
0
 10
11.8556
 20
62.1286
 11
11.9172
 21
62.208
  0
LINE
  8
0
 10
11.9172
 20
62.208
 11
11.9836
 21
62.2834
  0
LINE
  8
0
 10
11.9836
 20
62.2834
 11
12.0547
 21
62.3545
  0
LINE
  8
0
 10
12.0547
 20
62.3545
 11
12.1301
 21
62.4209
  0
LINE
  8
0
 10
12.1301
 20
62.4209
 11
12.2095
 21
62.4825
  0
LINE
  8
0
 10
12.2095
 20
62.4825
 11
12.2927
 21
62.539
  0
LINE
  8
0
 10
12.2927
 20
62.539
 11
12.3792
 21
62.5902
  0
LINE
  8
0
 10
12.3792
 20
62.5902
 11
12.4688
 21
62.6358
  0
LINE
  8
0
 10
12.4688
 20
62.6358
 11
12.561
 21
62.6758
  0
LINE
  8
0
 10
12.561
 20
62.6758
 11
12.6556
 21
62.7098
  0
LINE
  8
0
 10
12.6556
 20
62.7098
 11
12.7521
 21
62.7379
  0
LINE
  8
0
 10
12.7521
 20
62.7379
 11
12.8502
 21
62.7598
  0
LINE
  8
0
 10
12.8502
 20
62.7598
 11
12.9495
 21
62.7755
  0
LINE
  8
0
 10
12.9495
 20
62.7755
 11
13.0495
 21
62.785
  0
LINE
  8
0
 10
13.0495
 20
62.785
 11
13.15
 21
62.7881
  0
LINE
  8
0
 10
13.15
 20
62.7881
 11
13.2505
 21
62.785
  0
LINE
  8
0
 10
13.2505
 20
62.785
 11
13.3505
 21
62.7755
  0
LINE
  8
0
 10
13.3505
 20
62.7755
 11
13.4498
 21
62.7598
  0
LINE
  8
0
 10
13.4498
 20
62.7598
 11
13.5479
 21
62.7379
  0
LINE
  8
0
 10
13.5479
 20
62.7379
 11
13.6444
 21
62.7098
  0
LINE
  8
0
 10
13.6444
 20
62.7098
 11
13.739
 21
62.6758
  0
LINE
  8
0
 10
13.739
 20
62.6758
 11
13.8312
 21
62.6358
  0
LINE
  8
0
 10
13.8312
 20
62.6358
 11
13.9208
 21
62.5902
  0
LINE
  8
0
 10
13.9208
 20
62.5902
 11
14.0073
 21
62.539
  0
LINE
  8
0
 10
14.0073
 20
62.539
 11
14.0905
 21
62.4825
  0
LINE
  8
0
 10
14.0905
 20
62.4825
 11
14.1699
 21
62.4209
  0
LINE
  8
0
 10
14.1699
 20
62.4209
 11
14.2453
 21
62.3545
  0
LINE
  8
0
 10
14.2453
 20
62.3545
 11
14.3163
 21
62.2834
  0
LINE
  8
0
 10
14.3163
 20
62.2834
 11
14.3828
 21
62.208
  0
LINE
  8
0
 10
14.3828
 20
62.208
 11
14.4444
 21
62.1286
  0
LINE
  8
0
 10
14.4444
 20
62.1286
 11
14.5009
 21
62.0454
  0
LINE
  8
0
 10
14.5009
 20
62.0454
 11
14.5521
 21
61.9589
  0
LINE
  8
0
 10
14.5521
 20
61.9589
 11
14.5977
 21
61.8694
  0
LINE
  8
0
 10
14.5977
 20
61.8694
 11
14.6376
 21
61.7771
  0
LINE
  8
0
 10
14.6376
 20
61.7771
 11
14.6717
 21
61.6825
  0
LINE
  8
0
 10
14.6717
 20
61.6825
 11
14.6997
 21
61.586
  0
LINE
  8
0
 10
14.6997
 20
61.586
 11
14.7216
 21
61.4879
  0
LINE
  8
0
 10
14.7216
 20
61.4879
 11
14.7374
 21
61.3886
  0
LINE
  8
0
 10
14.7374
 20
61.3886
 11
14.7468
 21
61.2886
  0
LINE
  8
0
 10
14.7468
 20
61.2886
 11
14.75
 21
61.1881
  0
LINE
  8
0
 10
14.75
 20
61.1881
 11
14.7468
 21
61.0876
  0
LINE
  8
0
 10
14.7468
 20
61.0876
 11
14.7374
 21
60.9876
  0
LINE
  8
0
 10
14.7374
 20
60.9876
 11
14.7216
 21
60.8883
  0
LINE
  8
0
 10
14.7216
 20
60.8883
 11
14.6997
 21
60.7902
  0
LINE
  8
0
 10
14.6997
 20
60.7902
 11
14.6717
 21
60.6937
  0
LINE
  8
0
 10
14.6717
 20
60.6937
 11
14.6376
 21
60.5991
  0
LINE
  8
0
 10
14.6376
 20
60.5991
 11
14.5977
 21
60.5069
  0
LINE
  8
0
 10
14.5977
 20
60.5069
 11
14.5521
 21
60.4173
  0
LINE
  8
0
 10
14.5521
 20
60.4173
 11
14.5009
 21
60.3308
  0
LINE
  8
0
 10
14.5009
 20
60.3308
 11
14.4444
 21
60.2477
  0
LINE
  8
0
 10
14.4444
 20
60.2477
 11
14.3828
 21
60.1682
  0
LINE
  8
0
 10
14.3828
 20
60.1682
 11
14.3163
 21
60.0928
  0
LINE
  8
0
 10
14.3163
 20
60.0928
 11
14.2453
 21
60.0218
  0
LINE
  8
0
 10
14.2453
 20
60.0218
 11
14.1699
 21
59.9553
  0
LINE
  8
0
 10
14.1699
 20
59.9553
 11
14.0905
 21
59.8937
  0
LINE
  8
0
 10
14.0905
 20
59.8937
 11
14.0073
 21
59.8372
  0
LINE
  8
0
 10
14.0073
 20
59.8372
 11
13.9208
 21
59.786
  0
LINE
  8
0
 10
13.9208
 20
59.786
 11
13.8312
 21
59.7404
  0
LINE
  8
0
 10
13.8312
 20
59.7404
 11
13.739
 21
59.7005
  0
LINE
  8
0
 10
13.739
 20
59.7005
 11
13.6444
 21
59.6664
  0
LINE
  8
0
 10
13.6444
 20
59.6664
 11
13.5479
 21
59.6384
  0
LINE
  8
0
 10
13.5479
 20
59.6384
 11
13.4498
 21
59.6165
  0
LINE
  8
0
 10
13.4498
 20
59.6165
 11
13.3505
 21
59.6007
  0
LINE
  8
0
 10
13.3505
 20
59.6007
 11
13.2505
 21
59.5913
  0
LINE
  8
0
 10
13.2505
 20
59.5913
 11
13.15
 21
59.5881
  0
LINE
  8
0
 10
13.15
 20
59.5881
 11
13.0495
 21
59.5913
  0
LINE
  8
0
 10
-66.7503
 20
58.9274
 11
-66.8254
 21
58.9344
  0
LINE
  8
0
 10
-66.8254
 20
58.9344
 11
-66.8999
 21
58.9462
  0
LINE
  8
0
 10
-66.8999
 20
58.9462
 11
-66.9734
 21
58.9627
  0
LINE
  8
0
 10
-66.9734
 20
58.9627
 11
-67.0458
 21
58.9837
  0
LINE
  8
0
 10
-67.0458
 20
58.9837
 11
-67.1167
 21
59.0093
  0
LINE
  8
0
 10
-67.1167
 20
59.0093
 11
-67.1859
 21
59.0392
  0
LINE
  8
0
 10
-67.1859
 20
59.0392
 11
-67.2531
 21
59.0734
  0
LINE
  8
0
 10
-67.2531
 20
59.0734
 11
-67.318
 21
59.1118
  0
LINE
  8
0
 10
-67.318
 20
59.1118
 11
-67.3803
 21
59.1542
  0
LINE
  8
0
 10
-67.3803
 20
59.1542
 11
-67.4399
 21
59.2004
  0
LINE
  8
0
 10
-67.4399
 20
59.2004
 11
-67.4964
 21
59.2502
  0
LINE
  8
0
 10
-67.4964
 20
59.2502
 11
-67.5498
 21
59.3035
  0
LINE
  8
0
 10
-67.5498
 20
59.3035
 11
-67.5996
 21
59.3601
  0
LINE
  8
0
 10
-67.5996
 20
59.3601
 11
-67.6458
 21
59.4196
  0
LINE
  8
0
 10
-67.6458
 20
59.4196
 11
-67.6882
 21
59.482
  0
LINE
  8
0
 10
-67.6882
 20
59.482
 11
-67.7266
 21
59.5469
  0
LINE
  8
0
 10
-67.7266
 20
59.5469
 11
-67.7608
 21
59.6141
  0
LINE
  8
0
 10
-67.7608
 20
59.6141
 11
-67.7907
 21
59.6832
  0
LINE
  8
0
 10
-67.7907
 20
59.6832
 11
-67.8163
 21
59.7542
  0
LINE
  8
0
 10
-67.8163
 20
59.7542
 11
-67.8373
 21
59.8266
  0
LINE
  8
0
 10
-67.8373
 20
59.8266
 11
-67.8537
 21
59.9001
  0
LINE
  8
0
 10
-67.8537
 20
59.9001
 11
-67.8655
 21
59.9746
  0
LINE
  8
0
 10
-67.8655
 20
59.9746
 11
-67.8726
 21
60.0496
  0
LINE
  8
0
 10
-67.8726
 20
60.0496
 11
-67.875
 21
60.125
  0
LINE
  8
0
 10
-67.875
 20
60.125
 11
-67.8726
 21
60.2003
  0
LINE
  8
0
 10
-67.8726
 20
60.2003
 11
-67.8655
 21
60.2754
  0
LINE
  8
0
 10
-67.8655
 20
60.2754
 11
-67.8537
 21
60.3499
  0
LINE
  8
0
 10
-67.8537
 20
60.3499
 11
-67.8373
 21
60.4234
  0
LINE
  8
0
 10
-67.8373
 20
60.4234
 11
-67.8163
 21
60.4958
  0
LINE
  8
0
 10
-67.8163
 20
60.4958
 11
-67.7907
 21
60.5667
  0
LINE
  8
0
 10
-67.7907
 20
60.5667
 11
-67.7608
 21
60.6359
  0
LINE
  8
0
 10
-67.7608
 20
60.6359
 11
-67.7266
 21
60.7031
  0
LINE
  8
0
 10
-67.7266
 20
60.7031
 11
-67.6882
 21
60.768
  0
LINE
  8
0
 10
-67.6882
 20
60.768
 11
-67.6458
 21
60.8303
  0
LINE
  8
0
 10
-67.6458
 20
60.8303
 11
-67.5996
 21
60.8899
  0
LINE
  8
0
 10
-67.5996
 20
60.8899
 11
-67.5498
 21
60.9464
  0
LINE
  8
0
 10
-67.5498
 20
60.9464
 11
-67.4964
 21
60.9998
  0
LINE
  8
0
 10
-67.4964
 20
60.9998
 11
-67.4399
 21
61.0496
  0
LINE
  8
0
 10
-67.4399
 20
61.0496
 11
-67.3803
 21
61.0958
  0
LINE
  8
0
 10
-67.3803
 20
61.0958
 11
-67.318
 21
61.1382
  0
LINE
  8
0
 10
-67.318
 20
61.1382
 11
-67.2531
 21
61.1766
  0
LINE
  8
0
 10
-67.2531
 20
61.1766
 11
-67.1859
 21
61.2108
  0
LINE
  8
0
 10
-67.1859
 20
61.2108
 11
-67.1167
 21
61.2407
  0
LINE
  8
0
 10
-67.1167
 20
61.2407
 11
-67.0458
 21
61.2663
  0
LINE
  8
0
 10
-67.0458
 20
61.2663
 11
-66.9734
 21
61.2873
  0
LINE
  8
0
 10
-66.9734
 20
61.2873
 11
-66.8999
 21
61.3037
  0
LINE
  8
0
 10
-66.8999
 20
61.3037
 11
-66.8254
 21
61.3155
  0
LINE
  8
0
 10
-66.8254
 20
61.3155
 11
-66.7503
 21
61.3226
  0
LINE
  8
0
 10
-66.7503
 20
61.3226
 11
-66.675
 21
61.325
  0
LINE
  8
0
 10
-66.675
 20
61.325
 11
-66.5996
 21
61.3226
  0
LINE
  8
0
 10
-66.5996
 20
61.3226
 11
-66.5246
 21
61.3155
  0
LINE
  8
0
 10
-66.5246
 20
61.3155
 11
-66.4501
 21
61.3037
  0
LINE
  8
0
 10
-66.4501
 20
61.3037
 11
-66.3766
 21
61.2873
  0
LINE
  8
0
 10
-66.3766
 20
61.2873
 11
-66.3042
 21
61.2663
  0
LINE
  8
0
 10
-66.3042
 20
61.2663
 11
-66.2332
 21
61.2407
  0
LINE
  8
0
 10
-66.2332
 20
61.2407
 11
-66.1641
 21
61.2108
  0
LINE
  8
0
 10
-66.1641
 20
61.2108
 11
-66.0969
 21
61.1766
  0
LINE
  8
0
 10
-66.0969
 20
61.1766
 11
-66.032
 21
61.1382
  0
LINE
  8
0
 10
-66.032
 20
61.1382
 11
-65.9697
 21
61.0958
  0
LINE
  8
0
 10
-65.9697
 20
61.0958
 11
-65.9101
 21
61.0496
  0
LINE
  8
0
 10
-65.9101
 20
61.0496
 11
-65.8535
 21
60.9998
  0
LINE
  8
0
 10
-65.8535
 20
60.9998
 11
-65.8002
 21
60.9464
  0
LINE
  8
0
 10
-65.8002
 20
60.9464
 11
-65.7504
 21
60.8899
  0
LINE
  8
0
 10
-65.7504
 20
60.8899
 11
-65.7042
 21
60.8303
  0
LINE
  8
0
 10
-65.7042
 20
60.8303
 11
-65.6618
 21
60.768
  0
LINE
  8
0
 10
-65.6618
 20
60.768
 11
-65.6234
 21
60.7031
  0
LINE
  8
0
 10
-65.6234
 20
60.7031
 11
-65.5892
 21
60.6359
  0
LINE
  8
0
 10
-65.5892
 20
60.6359
 11
-65.5593
 21
60.5667
  0
LINE
  8
0
 10
-65.5593
 20
60.5667
 11
-65.5337
 21
60.4958
  0
LINE
  8
0
 10
-65.5337
 20
60.4958
 11
-65.5127
 21
60.4234
  0
LINE
  8
0
 10
-65.5127
 20
60.4234
 11
-65.4962
 21
60.3499
  0
LINE
  8
0
 10
-65.4962
 20
60.3499
 11
-65.4845
 21
60.2754
  0
LINE
  8
0
 10
-65.4845
 20
60.2754
 11
-65.4774
 21
60.2003
  0
LINE
  8
0
 10
-65.4774
 20
60.2003
 11
-65.475
 21
60.125
  0
LINE
  8
0
 10
-65.475
 20
60.125
 11
-65.4774
 21
60.0496
  0
LINE
  8
0
 10
-65.4774
 20
60.0496
 11
-65.4845
 21
59.9746
  0
LINE
  8
0
 10
-65.4845
 20
59.9746
 11
-65.4962
 21
59.9001
  0
LINE
  8
0
 10
-65.4962
 20
59.9001
 11
-65.5127
 21
59.8266
  0
LINE
  8
0
 10
-65.5127
 20
59.8266
 11
-65.5337
 21
59.7542
  0
LINE
  8
0
 10
-65.5337
 20
59.7542
 11
-65.5593
 21
59.6832
  0
LINE
  8
0
 10
-65.5593
 20
59.6832
 11
-65.5892
 21
59.6141
  0
LINE
  8
0
 10
-65.5892
 20
59.6141
 11
-65.6234
 21
59.5469
  0
LINE
  8
0
 10
-65.6234
 20
59.5469
 11
-65.6618
 21
59.482
  0
LINE
  8
0
 10
-65.6618
 20
59.482
 11
-65.7042
 21
59.4196
  0
LINE
  8
0
 10
-65.7042
 20
59.4196
 11
-65.7504
 21
59.3601
  0
LINE
  8
0
 10
-65.7504
 20
59.3601
 11
-65.8002
 21
59.3035
  0
LINE
  8
0
 10
-65.8002
 20
59.3035
 11
-65.8535
 21
59.2502
  0
LINE
  8
0
 10
-65.8535
 20
59.2502
 11
-65.9101
 21
59.2004
  0
LINE
  8
0
 10
-65.9101
 20
59.2004
 11
-65.9697
 21
59.1542
  0
LINE
  8
0
 10
-65.9697
 20
59.1542
 11
-66.032
 21
59.1118
  0
LINE
  8
0
 10
-66.032
 20
59.1118
 11
-66.0969
 21
59.0734
  0
LINE
  8
0
 10
-66.0969
 20
59.0734
 11
-66.1641
 21
59.0392
  0
LINE
  8
0
 10
-66.1641
 20
59.0392
 11
-66.2332
 21
59.0093
  0
LINE
  8
0
 10
-66.2332
 20
59.0093
 11
-66.3042
 21
58.9837
  0
LINE
  8
0
 10
-66.3042
 20
58.9837
 11
-66.3766
 21
58.9627
  0
LINE
  8
0
 10
-66.3766
 20
58.9627
 11
-66.4501
 21
58.9462
  0
LINE
  8
0
 10
-66.4501
 20
58.9462
 11
-66.5246
 21
58.9344
  0
LINE
  8
0
 10
-66.5246
 20
58.9344
 11
-66.5996
 21
58.9274
  0
LINE
  8
0
 10
-66.5996
 20
58.9274
 11
-66.675
 21
58.925
  0
LINE
  8
0
 10
-66.675
 20
58.925
 11
-66.7503
 21
58.9274
  0
LINE
  8
0
 10
-26.05
 20
43.1
 11
-26.05
 21
57.1
  0
LINE
  8
0
 10
-26.05
 20
57.1
 11
-12.05
 21
57.1
  0
LINE
  8
0
 10
-12.05
 20
57.1
 11
-12.05
 21
43.1
  0
LINE
  8
0
 10
-12.05
 20
43.1
 11
-26.05
 21
43.1
  0
LINE
  8
0
 10
-64.15
 20
42.6
 11
-64.15
 21
56.6
  0
LINE
  8
0
 10
-64.15
 20
56.6
 11
-50.15
 21
56.6
  0
LINE
  8
0
 10
-50.15
 20
56.6
 11
-50.15
 21
42.6
  0
LINE
  8
0
 10
-50.15
 20
42.6
 11
-64.15
 21
42.6
  0
LINE
  8
0
 10
-83.2
 20
40.1
 11
-83.2
 21
54.1
  0
LINE
  8
0
 10
-83.2
 20
54.1
 11
-69.2
 21
54.1
  0
LINE
  8
0
 10
-69.2
 20
54.1
 11
-69.2
 21
40.1
  0
LINE
  8
0
 10
-69.2
 20
40.1
 11
-83.2
 21
40.1
  0
LINE
  8
0
 10
-123.825
 20
50.308
 11
-123.926
 21
50.3175
  0
LINE
  8
0
 10
-123.926
 20
50.3175
 11
-124.025
 21
50.3332
  0
LINE
  8
0
 10
-124.025
 20
50.3332
 11
-124.123
 21
50.3551
  0
LINE
  8
0
 10
-124.123
 20
50.3551
 11
-124.219
 21
50.3832
  0
LINE
  8
0
 10
-124.219
 20
50.3832
 11
-124.314
 21
50.4172
  0
LINE
  8
0
 10
-124.314
 20
50.4172
 11
-124.406
 21
50.4571
  0
LINE
  8
0
 10
-124.406
 20
50.4571
 11
-124.496
 21
50.5028
  0
LINE
  8
0
 10
-124.496
 20
50.5028
 11
-124.582
 21
50.5539
  0
LINE
  8
0
 10
-124.582
 20
50.5539
 11
-124.665
 21
50.6104
  0
LINE
  8
0
 10
-124.665
 20
50.6104
 11
-124.745
 21
50.672
  0
LINE
  8
0
 10
-124.745
 20
50.672
 11
-124.82
 21
50.7385
  0
LINE
  8
0
 10
-124.82
 20
50.7385
 11
-124.891
 21
50.8096
  0
LINE
  8
0
 10
-124.891
 20
50.8096
 11
-124.958
 21
50.885
  0
LINE
  8
0
 10
-124.958
 20
50.885
 11
-125.019
 21
50.9644
  0
LINE
  8
0
 10
-125.019
 20
50.9644
 11
-125.076
 21
51.0475
  0
LINE
  8
0
 10
-125.076
 20
51.0475
 11
-125.127
 21
51.134
  0
LINE
  8
0
 10
-125.127
 20
51.134
 11
-125.173
 21
51.2236
  0
LINE
  8
0
 10
-125.173
 20
51.2236
 11
-125.213
 21
51.3159
  0
LINE
  8
0
 10
-125.213
 20
51.3159
 11
-125.247
 21
51.4104
  0
LINE
  8
0
 10
-125.247
 20
51.4104
 11
-125.275
 21
51.5069
  0
LINE
  8
0
 10
-125.275
 20
51.5069
 11
-125.297
 21
51.605
  0
LINE
  8
0
 10
-125.297
 20
51.605
 11
-125.312
 21
51.7043
  0
LINE
  8
0
 10
-125.312
 20
51.7043
 11
-125.322
 21
51.8044
  0
LINE
  8
0
 10
-125.322
 20
51.8044
 11
-125.325
 21
51.9048
  0
LINE
  8
0
 10
-125.325
 20
51.9048
 11
-125.322
 21
52.0053
  0
LINE
  8
0
 10
-125.322
 20
52.0053
 11
-125.312
 21
52.1054
  0
LINE
  8
0
 10
-125.312
 20
52.1054
 11
-125.297
 21
52.2047
  0
LINE
  8
0
 10
-125.297
 20
52.2047
 11
-125.275
 21
52.3027
  0
LINE
  8
0
 10
-125.275
 20
52.3027
 11
-125.247
 21
52.3993
  0
LINE
  8
0
 10
-125.247
 20
52.3993
 11
-125.213
 21
52.4939
  0
LINE
  8
0
 10
-125.213
 20
52.4939
 11
-125.173
 21
52.5861
  0
LINE
  8
0
 10
-125.173
 20
52.5861
 11
-125.127
 21
52.6757
  0
LINE
  8
0
 10
-125.127
 20
52.6757
 11
-125.076
 21
52.7622
  0
LINE
  8
0
 10
-125.076
 20
52.7622
 11
-125.019
 21
52.8453
  0
LINE
  8
0
 10
-125.019
 20
52.8453
 11
-124.958
 21
52.9247
  0
LINE
  8
0
 10
-124.958
 20
52.9247
 11
-124.891
 21
53.0001
  0
LINE
  8
0
 10
-124.891
 20
53.0001
 11
-124.82
 21
53.0712
  0
LINE
  8
0
 10
-124.82
 20
53.0712
 11
-124.745
 21
53.1377
  0
LINE
  8
0
 10
-124.745
 20
53.1377
 11
-124.665
 21
53.1993
  0
LINE
  8
0
 10
-124.665
 20
53.1993
 11
-124.582
 21
53.2558
  0
LINE
  8
0
 10
-124.582
 20
53.2558
 11
-124.496
 21
53.3069
  0
LINE
  8
0
 10
-124.496
 20
53.3069
 11
-124.406
 21
53.3526
  0
LINE
  8
0
 10
-124.406
 20
53.3526
 11
-124.314
 21
53.3925
  0
LINE
  8
0
 10
-124.314
 20
53.3925
 11
-124.219
 21
53.4265
  0
LINE
  8
0
 10
-124.219
 20
53.4265
 11
-124.123
 21
53.4546
  0
LINE
  8
0
 10
-124.123
 20
53.4546
 11
-124.025
 21
53.4765
  0
LINE
  8
0
 10
-124.025
 20
53.4765
 11
-123.926
 21
53.4922
  0
LINE
  8
0
 10
-123.926
 20
53.4922
 11
-123.825
 21
53.5017
  0
LINE
  8
0
 10
-123.825
 20
53.5017
 11
-123.725
 21
53.5049
  0
LINE
  8
0
 10
-123.725
 20
53.5049
 11
-123.625
 21
53.5017
  0
LINE
  8
0
 10
-123.625
 20
53.5017
 11
-123.524
 21
53.4922
  0
LINE
  8
0
 10
-123.524
 20
53.4922
 11
-123.425
 21
53.4765
  0
LINE
  8
0
 10
-123.425
 20
53.4765
 11
-123.327
 21
53.4546
  0
LINE
  8
0
 10
-123.327
 20
53.4546
 11
-123.231
 21
53.4265
  0
LINE
  8
0
 10
-123.231
 20
53.4265
 11
-123.136
 21
53.3925
  0
LINE
  8
0
 10
-123.136
 20
53.3925
 11
-123.044
 21
53.3526
  0
LINE
  8
0
 10
-123.044
 20
53.3526
 11
-122.954
 21
53.3069
  0
LINE
  8
0
 10
-122.954
 20
53.3069
 11
-122.868
 21
53.2558
  0
LINE
  8
0
 10
-122.868
 20
53.2558
 11
-122.785
 21
53.1993
  0
LINE
  8
0
 10
-122.785
 20
53.1993
 11
-122.705
 21
53.1377
  0
LINE
  8
0
 10
-122.705
 20
53.1377
 11
-122.63
 21
53.0712
  0
LINE
  8
0
 10
-122.63
 20
53.0712
 11
-122.559
 21
53.0001
  0
LINE
  8
0
 10
-122.559
 20
53.0001
 11
-122.492
 21
52.9247
  0
LINE
  8
0
 10
-122.492
 20
52.9247
 11
-122.431
 21
52.8453
  0
LINE
  8
0
 10
-122.431
 20
52.8453
 11
-122.374
 21
52.7622
  0
LINE
  8
0
 10
-122.374
 20
52.7622
 11
-122.323
 21
52.6757
  0
LINE
  8
0
 10
-122.323
 20
52.6757
 11
-122.277
 21
52.5861
  0
LINE
  8
0
 10
-122.277
 20
52.5861
 11
-122.237
 21
52.4939
  0
LINE
  8
0
 10
-122.237
 20
52.4939
 11
-122.203
 21
52.3993
  0
LINE
  8
0
 10
-122.203
 20
52.3993
 11
-122.175
 21
52.3027
  0
LINE
  8
0
 10
-122.175
 20
52.3027
 11
-122.153
 21
52.2047
  0
LINE
  8
0
 10
-122.153
 20
52.2047
 11
-122.138
 21
52.1054
  0
LINE
  8
0
 10
-122.138
 20
52.1054
 11
-122.128
 21
52.0053
  0
LINE
  8
0
 10
-122.128
 20
52.0053
 11
-122.125
 21
51.9048
  0
LINE
  8
0
 10
-122.125
 20
51.9048
 11
-122.128
 21
51.8044
  0
LINE
  8
0
 10
-122.128
 20
51.8044
 11
-122.138
 21
51.7043
  0
LINE
  8
0
 10
-122.138
 20
51.7043
 11
-122.153
 21
51.605
  0
LINE
  8
0
 10
-122.153
 20
51.605
 11
-122.175
 21
51.5069
  0
LINE
  8
0
 10
-122.175
 20
51.5069
 11
-122.203
 21
51.4104
  0
LINE
  8
0
 10
-122.203
 20
51.4104
 11
-122.237
 21
51.3159
  0
LINE
  8
0
 10
-122.237
 20
51.3159
 11
-122.277
 21
51.2236
  0
LINE
  8
0
 10
-122.277
 20
51.2236
 11
-122.323
 21
51.134
  0
LINE
  8
0
 10
-122.323
 20
51.134
 11
-122.374
 21
51.0475
  0
LINE
  8
0
 10
-122.374
 20
51.0475
 11
-122.431
 21
50.9644
  0
LINE
  8
0
 10
-122.431
 20
50.9644
 11
-122.492
 21
50.885
  0
LINE
  8
0
 10
-122.492
 20
50.885
 11
-122.559
 21
50.8096
  0
LINE
  8
0
 10
-122.559
 20
50.8096
 11
-122.63
 21
50.7385
  0
LINE
  8
0
 10
-122.63
 20
50.7385
 11
-122.705
 21
50.672
  0
LINE
  8
0
 10
-122.705
 20
50.672
 11
-122.785
 21
50.6104
  0
LINE
  8
0
 10
-122.785
 20
50.6104
 11
-122.868
 21
50.5539
  0
LINE
  8
0
 10
-122.868
 20
50.5539
 11
-122.954
 21
50.5028
  0
LINE
  8
0
 10
-122.954
 20
50.5028
 11
-123.044
 21
50.4571
  0
LINE
  8
0
 10
-123.044
 20
50.4571
 11
-123.136
 21
50.4172
  0
LINE
  8
0
 10
-123.136
 20
50.4172
 11
-123.231
 21
50.3832
  0
LINE
  8
0
 10
-123.231
 20
50.3832
 11
-123.327
 21
50.3551
  0
LINE
  8
0
 10
-123.327
 20
50.3551
 11
-123.425
 21
50.3332
  0
LINE
  8
0
 10
-123.425
 20
50.3332
 11
-123.524
 21
50.3175
  0
LINE
  8
0
 10
-123.524
 20
50.3175
 11
-123.625
 21
50.308
  0
LINE
  8
0
 10
-123.625
 20
50.308
 11
-123.725
 21
50.3049
  0
LINE
  8
0
 10
-123.725
 20
50.3049
 11
-123.825
 21
50.308
  0
LINE
  8
0
 10
-7.07535
 20
48.7524
 11
-7.15039
 21
48.7595
  0
LINE
  8
0
 10
-7.15039
 20
48.7595
 11
-7.22485
 21
48.7712
  0
LINE
  8
0
 10
-7.22485
 20
48.7712
 11
-7.29842
 21
48.7877
  0
LINE
  8
0
 10
-7.29842
 20
48.7877
 11
-7.37082
 21
48.8087
  0
LINE
  8
0
 10
-7.37082
 20
48.8087
 11
-7.44174
 21
48.8343
  0
LINE
  8
0
 10
-7.44174
 20
48.8343
 11
-7.51093
 21
48.8642
  0
LINE
  8
0
 10
-7.51093
 20
48.8642
 11
-7.57809
 21
48.8984
  0
LINE
  8
0
 10
-7.57809
 20
48.8984
 11
-7.64299
 21
48.9368
  0
LINE
  8
0
 10
-7.64299
 20
48.9368
 11
-7.70534
 21
48.9792
  0
LINE
  8
0
 10
-7.70534
 20
48.9792
 11
-7.76491
 21
49.0254
  0
LINE
  8
0
 10
-7.76491
 20
49.0254
 11
-7.82144
 21
49.0752
  0
LINE
  8
0
 10
-7.82144
 20
49.0752
 11
-7.87476
 21
49.1285
  0
LINE
  8
0
 10
-7.87476
 20
49.1285
 11
-7.92461
 21
49.1851
  0
LINE
  8
0
 10
-7.92461
 20
49.1851
 11
-7.97081
 21
49.2446
  0
LINE
  8
0
 10
-7.97081
 20
49.2446
 11
-8.01318
 21
49.307
  0
LINE
  8
0
 10
-8.01318
 20
49.307
 11
-8.05156
 21
49.3719
  0
LINE
  8
0
 10
-8.05156
 20
49.3719
 11
-8.08578
 21
49.4391
  0
LINE
  8
0
 10
-8.08578
 20
49.4391
 11
-8.11572
 21
49.5082
  0
LINE
  8
0
 10
-8.11572
 20
49.5082
 11
-8.14127
 21
49.5792
  0
LINE
  8
0
 10
-8.14127
 20
49.5792
 11
-8.16229
 21
49.6516
  0
LINE
  8
0
 10
-8.16229
 20
49.6516
 11
-8.17874
 21
49.7251
  0
LINE
  8
0
 10
-8.17874
 20
49.7251
 11
-8.19054
 21
49.7996
  0
LINE
  8
0
 10
-8.19054
 20
49.7996
 11
-8.19763
 21
49.8746
  0
LINE
  8
0
 10
-8.19763
 20
49.8746
 11
-8.2
 21
49.95
  0
LINE
  8
0
 10
-8.2
 20
49.95
 11
-8.19763
 21
50.0253
  0
LINE
  8
0
 10
-8.19763
 20
50.0253
 11
-8.19054
 21
50.1004
  0
LINE
  8
0
 10
-8.19054
 20
50.1004
 11
-8.17874
 21
50.1749
  0
LINE
  8
0
 10
-8.17874
 20
50.1749
 11
-8.16229
 21
50.2484
  0
LINE
  8
0
 10
-8.16229
 20
50.2484
 11
-8.14127
 21
50.3208
  0
LINE
  8
0
 10
-8.14127
 20
50.3208
 11
-8.11572
 21
50.3917
  0
LINE
  8
0
 10
-8.11572
 20
50.3917
 11
-8.08578
 21
50.4609
  0
LINE
  8
0
 10
-8.08578
 20
50.4609
 11
-8.05156
 21
50.5281
  0
LINE
  8
0
 10
-8.05156
 20
50.5281
 11
-8.01318
 21
50.593
  0
LINE
  8
0
 10
-8.01318
 20
50.593
 11
-7.97081
 21
50.6553
  0
LINE
  8
0
 10
-7.97081
 20
50.6553
 11
-7.92461
 21
50.7149
  0
LINE
  8
0
 10
-7.92461
 20
50.7149
 11
-7.87476
 21
50.7715
  0
LINE
  8
0
 10
-7.87476
 20
50.7715
 11
-7.82144
 21
50.8248
  0
LINE
  8
0
 10
-7.82144
 20
50.8248
 11
-7.76491
 21
50.8746
  0
LINE
  8
0
 10
-7.76491
 20
50.8746
 11
-7.70534
 21
50.9208
  0
LINE
  8
0
 10
-7.70534
 20
50.9208
 11
-7.64299
 21
50.9632
  0
LINE
  8
0
 10
-7.64299
 20
50.9632
 11
-7.57809
 21
51.0016
  0
LINE
  8
0
 10
-7.57809
 20
51.0016
 11
-7.51093
 21
51.0358
  0
LINE
  8
0
 10
-7.51093
 20
51.0358
 11
-7.44174
 21
51.0657
  0
LINE
  8
0
 10
-7.44174
 20
51.0657
 11
-7.37082
 21
51.0913
  0
LINE
  8
0
 10
-7.37082
 20
51.0913
 11
-7.29842
 21
51.1123
  0
LINE
  8
0
 10
-7.29842
 20
51.1123
 11
-7.22485
 21
51.1287
  0
LINE
  8
0
 10
-7.22485
 20
51.1287
 11
-7.15039
 21
51.1405
  0
LINE
  8
0
 10
-7.15039
 20
51.1405
 11
-7.07535
 21
51.1476
  0
LINE
  8
0
 10
-7.07535
 20
51.1476
 11
-7
 21
51.15
  0
LINE
  8
0
 10
-7
 20
51.15
 11
-6.92464
 21
51.1476
  0
LINE
  8
0
 10
-6.92464
 20
51.1476
 11
-6.84959
 21
51.1405
  0
LINE
  8
0
 10
-6.84959
 20
51.1405
 11
-6.77513
 21
51.1287
  0
LINE
  8
0
 10
-6.77513
 20
51.1287
 11
-6.70157
 21
51.1123
  0
LINE
  8
0
 10
-6.70157
 20
51.1123
 11
-6.62917
 21
51.0913
  0
LINE
  8
0
 10
-6.62917
 20
51.0913
 11
-6.55824
 21
51.0657
  0
LINE
  8
0
 10
-6.55824
 20
51.0657
 11
-6.48906
 21
51.0358
  0
LINE
  8
0
 10
-6.48906
 20
51.0358
 11
-6.42189
 21
51.0016
  0
LINE
  8
0
 10
-6.42189
 20
51.0016
 11
-6.35699
 21
50.9632
  0
LINE
  8
0
 10
-6.35699
 20
50.9632
 11
-6.29465
 21
50.9208
  0
LINE
  8
0
 10
-6.29465
 20
50.9208
 11
-6.23508
 21
50.8746
  0
LINE
  8
0
 10
-6.23508
 20
50.8746
 11
-6.17854
 21
50.8248
  0
LINE
  8
0
 10
-6.17854
 20
50.8248
 11
-6.12523
 21
50.7715
  0
LINE
  8
0
 10
-6.12523
 20
50.7715
 11
-6.07538
 21
50.7149
  0
LINE
  8
0
 10
-6.07538
 20
50.7149
 11
-6.02917
 21
50.6553
  0
LINE
  8
0
 10
-6.02917
 20
50.6553
 11
-5.9868
 21
50.593
  0
LINE
  8
0
 10
-5.9868
 20
50.593
 11
-5.94843
 21
50.5281
  0
LINE
  8
0
 10
-5.94843
 20
50.5281
 11
-5.9142
 21
50.4609
  0
LINE
  8
0
 10
-5.9142
 20
50.4609
 11
-5.88426
 21
50.3917
  0
LINE
  8
0
 10
-5.88426
 20
50.3917
 11
-5.85872
 21
50.3208
  0
LINE
  8
0
 10
-5.85872
 20
50.3208
 11
-5.83769
 21
50.2484
  0
LINE
  8
0
 10
-5.83769
 20
50.2484
 11
-5.82124
 21
50.1749
  0
LINE
  8
0
 10
-5.82124
 20
50.1749
 11
-5.80945
 21
50.1004
  0
LINE
  8
0
 10
-5.80945
 20
50.1004
 11
-5.80235
 21
50.0253
  0
LINE
  8
0
 10
-5.80235
 20
50.0253
 11
-5.79999
 21
49.95
  0
LINE
  8
0
 10
-5.79999
 20
49.95
 11
-5.80235
 21
49.8746
  0
LINE
  8
0
 10
-5.80235
 20
49.8746
 11
-5.80945
 21
49.7996
  0
LINE
  8
0
 10
-5.80945
 20
49.7996
 11
-5.82124
 21
49.7251
  0
LINE
  8
0
 10
-5.82124
 20
49.7251
 11
-5.83769
 21
49.6516
  0
LINE
  8
0
 10
-5.83769
 20
49.6516
 11
-5.85872
 21
49.5792
  0
LINE
  8
0
 10
-5.85872
 20
49.5792
 11
-5.88426
 21
49.5082
  0
LINE
  8
0
 10
-5.88426
 20
49.5082
 11
-5.9142
 21
49.4391
  0
LINE
  8
0
 10
-5.9142
 20
49.4391
 11
-5.94843
 21
49.3719
  0
LINE
  8
0
 10
-5.94843
 20
49.3719
 11
-5.9868
 21
49.307
  0
LINE
  8
0
 10
-5.9868
 20
49.307
 11
-6.02917
 21
49.2446
  0
LINE
  8
0
 10
-6.02917
 20
49.2446
 11
-6.07538
 21
49.1851
  0
LINE
  8
0
 10
-6.07538
 20
49.1851
 11
-6.12523
 21
49.1285
  0
LINE
  8
0
 10
-6.12523
 20
49.1285
 11
-6.17854
 21
49.0752
  0
LINE
  8
0
 10
-6.17854
 20
49.0752
 11
-6.23508
 21
49.0254
  0
LINE
  8
0
 10
-6.23508
 20
49.0254
 11
-6.29465
 21
48.9792
  0
LINE
  8
0
 10
-6.29465
 20
48.9792
 11
-6.35699
 21
48.9368
  0
LINE
  8
0
 10
-6.35699
 20
48.9368
 11
-6.42189
 21
48.8984
  0
LINE
  8
0
 10
-6.42189
 20
48.8984
 11
-6.48906
 21
48.8642
  0
LINE
  8
0
 10
-6.48906
 20
48.8642
 11
-6.55824
 21
48.8343
  0
LINE
  8
0
 10
-6.55824
 20
48.8343
 11
-6.62917
 21
48.8087
  0
LINE
  8
0
 10
-6.62917
 20
48.8087
 11
-6.70157
 21
48.7877
  0
LINE
  8
0
 10
-6.70157
 20
48.7877
 11
-6.77513
 21
48.7712
  0
LINE
  8
0
 10
-6.77513
 20
48.7712
 11
-6.84959
 21
48.7595
  0
LINE
  8
0
 10
-6.84959
 20
48.7595
 11
-6.92464
 21
48.7524
  0
LINE
  8
0
 10
-6.92464
 20
48.7524
 11
-7
 21
48.75
  0
LINE
  8
0
 10
-7
 20
48.75
 11
-7.07535
 21
48.7524
  0
LINE
  8
0
 10
-7
 20
31.1
 11
-7
 21
45.1
  0
LINE
  8
0
 10
-7
 20
45.1
 11
7
 21
45.1
  0
LINE
  8
0
 10
7
 20
45.1
 11
7
 21
31.1
  0
LINE
  8
0
 10
7
 20
31.1
 11
-7
 21
31.1
  0
LINE
  8
0
 10
-45.1
 20
30.05
 11
-45.1
 21
44.05
  0
LINE
  8
0
 10
-45.1
 20
44.05
 11
-31.1
 21
44.05
  0
LINE
  8
0
 10
-31.1
 20
44.05
 11
-31.1
 21
30.05
  0
LINE
  8
0
 10
-31.1
 20
30.05
 11
-45.1
 21
30.05
  0
LINE
  8
0
 10
-26.05
 20
24.05
 11
-26.05
 21
38.05
  0
LINE
  8
0
 10
-26.05
 20
38.05
 11
-12.05
 21
38.05
  0
LINE
  8
0
 10
-12.05
 20
38.05
 11
-12.05
 21
24.05
  0
LINE
  8
0
 10
-12.05
 20
24.05
 11
-26.05
 21
24.05
  0
LINE
  8
0
 10
-64.15
 20
23.55
 11
-64.15
 21
37.55
  0
LINE
  8
0
 10
-64.15
 20
37.55
 11
-50.15
 21
37.55
  0
LINE
  8
0
 10
-50.15
 20
37.55
 11
-50.15
 21
23.55
  0
LINE
  8
0
 10
-50.15
 20
23.55
 11
-64.15
 21
23.55
  0
LINE
  8
0
 10
-83.2
 20
21.05
 11
-83.2
 21
35.05
  0
LINE
  8
0
 10
-83.2
 20
35.05
 11
-69.2
 21
35.05
  0
LINE
  8
0
 10
-69.2
 20
35.05
 11
-69.2
 21
21.05
  0
LINE
  8
0
 10
-69.2
 20
21.05
 11
-83.2
 21
21.05
  0
LINE
  8
0
 10
-7
 20
12.05
 11
-7
 21
26.05
  0
LINE
  8
0
 10
-7
 20
26.05
 11
7
 21
26.05
  0
LINE
  8
0
 10
7
 20
26.05
 11
7
 21
12.05
  0
LINE
  8
0
 10
7
 20
12.05
 11
-7
 21
12.05
  0
LINE
  8
0
 10
-45.1
 20
11
 11
-45.1
 21
25
  0
LINE
  8
0
 10
-45.1
 20
25
 11
-31.1
 21
25
  0
LINE
  8
0
 10
-31.1
 20
25
 11
-31.1
 21
11
  0
LINE
  8
0
 10
-31.1
 20
11
 11
-45.1
 21
11
  0
LINE
  8
0
 10
-26.05
 20
5
 11
-26.05
 21
19
  0
LINE
  8
0
 10
-26.05
 20
19
 11
-12.05
 21
19
  0
LINE
  8
0
 10
-12.05
 20
19
 11
-12.05
 21
5
  0
LINE
  8
0
 10
-12.05
 20
5
 11
-26.05
 21
5
  0
LINE
  8
0
 10
-64.15
 20
4.5
 11
-64.15
 21
18.5
  0
LINE
  8
0
 10
-64.15
 20
18.5
 11
-50.15
 21
18.5
  0
LINE
  8
0
 10
-50.15
 20
18.5
 11
-50.15
 21
4.5
  0
LINE
  8
0
 10
-50.15
 20
4.5
 11
-64.15
 21
4.5
  0
LINE
  8
0
 10
-83.2
 20
2
 11
-83.2
 21
16
  0
LINE
  8
0
 10
-83.2
 20
16
 11
-69.2
 21
16
  0
LINE
  8
0
 10
-69.2
 20
16
 11
-69.2
 21
2
  0
LINE
  8
0
 10
-69.2
 20
2
 11
-83.2
 21
2
  0
LINE
  8
0
 10
-7
 20
-7
 11
-7
 21
7
  0
LINE
  8
0
 10
-7
 20
7
 11
7
 21
7
  0
LINE
  8
0
 10
7
 20
7
 11
7
 21
-7
  0
LINE
  8
0
 10
7
 20
-7
 11
-7
 21
-7
  0
LINE
  8
0
 10
-90.1622
 20
-25.2298
 11
-91.2881
 21
-25.8797
  0
LINE
  8
0
 10
-91.2881
 20
-25.8797
 11
-92.788
 21
-23.2816
  0
LINE
  8
0
 10
-92.788
 20
-23.2816
 11
-91.6622
 21
-22.6316
  0
LINE
  8
0
 10
-91.6622
 20
-22.6316
 11
-92.5746
 21
-21.0511
  0
LINE
  8
0
 10
-92.5746
 20
-21.0511
 11
-91.9684
 21
-20.7011
  0
LINE
  8
0
 10
-91.9684
 20
-20.7011
 11
-92.7559
 21
-19.3371
  0
LINE
  8
0
 10
-92.7559
 20
-19.3371
 11
-93.6479
 21
-19.8521
  0
LINE
  8
0
 10
-93.6479
 20
-19.8521
 11
-100.648
 21
-7.7276
  0
LINE
  8
0
 10
-100.648
 20
-7.7276
 11
-99.7556
 21
-7.2126
  0
LINE
  8
0
 10
-99.7556
 20
-7.2126
 11
-100.543
 21
-5.8486
  0
LINE
  8
0
 10
-100.543
 20
-5.8486
 11
-101.149
 21
-6.19859
  0
LINE
  8
0
 10
-101.149
 20
-6.19859
 11
-102.062
 21
-4.61807
  0
LINE
  8
0
 10
-102.062
 20
-4.61807
 11
-103.188
 21
-5.26805
  0
LINE
  8
0
 10
-103.188
 20
-5.26805
 11
-104.688
 21
-2.66994
  0
LINE
  8
0
 10
-104.688
 20
-2.66994
 11
-103.562
 21
-2.01997
  0
LINE
  8
0
 10
-103.562
 20
-2.01997
 11
-104.474
 21
-0.439453
  0
LINE
  8
0
 10
-104.474
 20
-0.439453
 11
-99.1307
 21
2.6454
  0
LINE
  8
0
 10
-99.1307
 20
2.6454
 11
-99.5682
 21
3.40318
  0
LINE
  8
0
 10
-99.5682
 20
3.40318
 11
-97.1433
 21
4.80313
  0
LINE
  8
0
 10
-97.1433
 20
4.80313
 11
-96.7058
 21
4.04535
  0
LINE
  8
0
 10
-96.7058
 20
4.04535
 11
-93.8219
 21
5.71028
  0
LINE
  8
0
 10
-93.8219
 20
5.71028
 11
-90.497
 21
-0.0488434
  0
LINE
  8
0
 10
-90.497
 20
-0.0488434
 11
-91.2765
 21
-0.498825
  0
LINE
  8
0
 10
-91.2765
 20
-0.498825
 11
-90.489
 21
-1.86282
  0
LINE
  8
0
 10
-90.489
 20
-1.86282
 11
-88.5231
 21
-0.727875
  0
LINE
  8
0
 10
-88.5231
 20
-0.727875
 11
-81.5234
 21
-12.8524
  0
LINE
  8
0
 10
-81.5234
 20
-12.8524
 11
-83.4893
 21
-13.9874
  0
LINE
  8
0
 10
-83.4893
 20
-13.9874
 11
-82.7018
 21
-15.3513
  0
LINE
  8
0
 10
-82.7018
 20
-15.3513
 11
-81.9224
 21
-14.9014
  0
LINE
  8
0
 10
-81.9224
 20
-14.9014
 11
-78.5975
 21
-20.6605
  0
LINE
  8
0
 10
-78.5975
 20
-20.6605
 11
-81.4814
 21
-22.3255
  0
LINE
  8
0
 10
-81.4814
 20
-22.3255
 11
-81.0439
 21
-23.0832
  0
LINE
  8
0
 10
-81.0439
 20
-23.0832
 11
-83.4688
 21
-24.4832
  0
LINE
  8
0
 10
-83.4688
 20
-24.4832
 11
-83.9063
 21
-23.7254
  0
LINE
  8
0
 10
-83.9063
 20
-23.7254
 11
-89.2498
 21
-26.8103
  0
LINE
  8
0
 10
-89.2498
 20
-26.8103
 11
-90.1622
 21
-25.2298
  0
LINE
  8
0
 10
-57.4513
 20
0.433365
 11
-57.5264
 21
0.44046
  0
LINE
  8
0
 10
-57.5264
 20
0.44046
 11
-57.6008
 21
0.452255
  0
LINE
  8
0
 10
-57.6008
 20
0.452255
 11
-57.6744
 21
0.468689
  0
LINE
  8
0
 10
-57.6744
 20
0.468689
 11
-57.7468
 21
0.489731
  0
LINE
  8
0
 10
-57.7468
 20
0.489731
 11
-57.8177
 21
0.515259
  0
LINE
  8
0
 10
-57.8177
 20
0.515259
 11
-57.8869
 21
0.545197
  0
LINE
  8
0
 10
-57.8869
 20
0.545197
 11
-57.9541
 21
0.579422
  0
LINE
  8
0
 10
-57.9541
 20
0.579422
 11
-58.019
 21
0.617798
  0
LINE
  8
0
 10
-58.019
 20
0.617798
 11
-58.0813
 21
0.660172
  0
LINE
  8
0
 10
-58.0813
 20
0.660172
 11
-58.1409
 21
0.706375
  0
LINE
  8
0
 10
-58.1409
 20
0.706375
 11
-58.1974
 21
0.756226
  0
LINE
  8
0
 10
-58.1974
 20
0.756226
 11
-58.2507
 21
0.80954
  0
LINE
  8
0
 10
-58.2507
 20
0.80954
 11
-58.3006
 21
0.866089
  0
LINE
  8
0
 10
-58.3006
 20
0.866089
 11
-58.3468
 21
0.925644
  0
LINE
  8
0
 10
-58.3468
 20
0.925644
 11
-58.3892
 21
0.988007
  0
LINE
  8
0
 10
-58.3892
 20
0.988007
 11
-58.4276
 21
1.05289
  0
LINE
  8
0
 10
-58.4276
 20
1.05289
 11
-58.4618
 21
1.12006
  0
LINE
  8
0
 10
-58.4618
 20
1.12006
 11
-58.4917
 21
1.18924
  0
LINE
  8
0
 10
-58.4917
 20
1.18924
 11
-58.5173
 21
1.26018
  0
LINE
  8
0
 10
-58.5173
 20
1.26018
 11
-58.5383
 21
1.33257
  0
LINE
  8
0
 10
-58.5383
 20
1.33257
 11
-58.5547
 21
1.40613
  0
LINE
  8
0
 10
-58.5547
 20
1.40613
 11
-58.5665
 21
1.48059
  0
LINE
  8
0
 10
-58.5665
 20
1.48059
 11
-58.5736
 21
1.55565
  0
LINE
  8
0
 10
-58.5736
 20
1.55565
 11
-58.576
 21
1.631
  0
LINE
  8
0
 10
-58.576
 20
1.631
 11
-58.5736
 21
1.70634
  0
LINE
  8
0
 10
-58.5736
 20
1.70634
 11
-58.5665
 21
1.78139
  0
LINE
  8
0
 10
-58.5665
 20
1.78139
 11
-58.5547
 21
1.85585
  0
LINE
  8
0
 10
-58.5547
 20
1.85585
 11
-58.5383
 21
1.92941
  0
LINE
  8
0
 10
-58.5383
 20
1.92941
 11
-58.5173
 21
2.00182
  0
LINE
  8
0
 10
-58.5173
 20
2.00182
 11
-58.4917
 21
2.07274
  0
LINE
  8
0
 10
-58.4917
 20
2.07274
 11
-58.4618
 21
2.14192
  0
LINE
  8
0
 10
-58.4618
 20
2.14192
 11
-58.4276
 21
2.20909
  0
LINE
  8
0
 10
-58.4276
 20
2.20909
 11
-58.3892
 21
2.27399
  0
LINE
  8
0
 10
-58.3892
 20
2.27399
 11
-58.3468
 21
2.33633
  0
LINE
  8
0
 10
-58.3468
 20
2.33633
 11
-58.3006
 21
2.3959
  0
LINE
  8
0
 10
-58.3006
 20
2.3959
 11
-58.2507
 21
2.45245
  0
LINE
  8
0
 10
-58.2507
 20
2.45245
 11
-58.1974
 21
2.50575
  0
LINE
  8
0
 10
-58.1974
 20
2.50575
 11
-58.1409
 21
2.5556
  0
LINE
  8
0
 10
-58.1409
 20
2.5556
 11
-58.0813
 21
2.60181
  0
LINE
  8
0
 10
-58.0813
 20
2.60181
 11
-58.019
 21
2.64418
  0
LINE
  8
0
 10
-58.019
 20
2.64418
 11
-57.9541
 21
2.68256
  0
LINE
  8
0
 10
-57.9541
 20
2.68256
 11
-57.8869
 21
2.71678
  0
LINE
  8
0
 10
-57.8869
 20
2.71678
 11
-57.8177
 21
2.74672
  0
LINE
  8
0
 10
-57.8177
 20
2.74672
 11
-57.7468
 21
2.77226
  0
LINE
  8
0
 10
-57.7468
 20
2.77226
 11
-57.6744
 21
2.79329
  0
LINE
  8
0
 10
-57.6744
 20
2.79329
 11
-57.6008
 21
2.80974
  0
LINE
  8
0
 10
-57.6008
 20
2.80974
 11
-57.5264
 21
2.82153
  0
LINE
  8
0
 10
-57.5264
 20
2.82153
 11
-57.4513
 21
2.82863
  0
LINE
  8
0
 10
-57.4513
 20
2.82863
 11
-57.376
 21
2.83099
  0
LINE
  8
0
 10
-57.376
 20
2.83099
 11
-57.3006
 21
2.82863
  0
LINE
  8
0
 10
-57.3006
 20
2.82863
 11
-57.2256
 21
2.82153
  0
LINE
  8
0
 10
-57.2256
 20
2.82153
 11
-57.1511
 21
2.80974
  0
LINE
  8
0
 10
-57.1511
 20
2.80974
 11
-57.0776
 21
2.79329
  0
LINE
  8
0
 10
-57.0776
 20
2.79329
 11
-57.0052
 21
2.77226
  0
LINE
  8
0
 10
-57.0052
 20
2.77226
 11
-56.9342
 21
2.74672
  0
LINE
  8
0
 10
-56.9342
 20
2.74672
 11
-56.8651
 21
2.71678
  0
LINE
  8
0
 10
-56.8651
 20
2.71678
 11
-56.7979
 21
2.68256
  0
LINE
  8
0
 10
-56.7979
 20
2.68256
 11
-56.733
 21
2.64418
  0
LINE
  8
0
 10
-56.733
 20
2.64418
 11
-56.6707
 21
2.60181
  0
LINE
  8
0
 10
-56.6707
 20
2.60181
 11
-56.6111
 21
2.5556
  0
LINE
  8
0
 10
-56.6111
 20
2.5556
 11
-56.5545
 21
2.50575
  0
LINE
  8
0
 10
-56.5545
 20
2.50575
 11
-56.5012
 21
2.45245
  0
LINE
  8
0
 10
-56.5012
 20
2.45245
 11
-56.4514
 21
2.3959
  0
LINE
  8
0
 10
-56.4514
 20
2.3959
 11
-56.4052
 21
2.33633
  0
LINE
  8
0
 10
-56.4052
 20
2.33633
 11
-56.3628
 21
2.27399
  0
LINE
  8
0
 10
-56.3628
 20
2.27399
 11
-56.3244
 21
2.20909
  0
LINE
  8
0
 10
-56.3244
 20
2.20909
 11
-56.2902
 21
2.14192
  0
LINE
  8
0
 10
-56.2902
 20
2.14192
 11
-56.2603
 21
2.07274
  0
LINE
  8
0
 10
-56.2603
 20
2.07274
 11
-56.2347
 21
2.00182
  0
LINE
  8
0
 10
-56.2347
 20
2.00182
 11
-56.2137
 21
1.92941
  0
LINE
  8
0
 10
-56.2137
 20
1.92941
 11
-56.1973
 21
1.85585
  0
LINE
  8
0
 10
-56.1973
 20
1.85585
 11
-56.1855
 21
1.78139
  0
LINE
  8
0
 10
-56.1855
 20
1.78139
 11
-56.1784
 21
1.70634
  0
LINE
  8
0
 10
-56.1784
 20
1.70634
 11
-56.176
 21
1.631
  0
LINE
  8
0
 10
-56.176
 20
1.631
 11
-56.1784
 21
1.55565
  0
LINE
  8
0
 10
-56.1784
 20
1.55565
 11
-56.1855
 21
1.48059
  0
LINE
  8
0
 10
-56.1855
 20
1.48059
 11
-56.1973
 21
1.40613
  0
LINE
  8
0
 10
-56.1973
 20
1.40613
 11
-56.2137
 21
1.33257
  0
LINE
  8
0
 10
-56.2137
 20
1.33257
 11
-56.2347
 21
1.26018
  0
LINE
  8
0
 10
-56.2347
 20
1.26018
 11
-56.2603
 21
1.18924
  0
LINE
  8
0
 10
-56.2603
 20
1.18924
 11
-56.2902
 21
1.12006
  0
LINE
  8
0
 10
-56.2902
 20
1.12006
 11
-56.3244
 21
1.05289
  0
LINE
  8
0
 10
-56.3244
 20
1.05289
 11
-56.3628
 21
0.988007
  0
LINE
  8
0
 10
-56.3628
 20
0.988007
 11
-56.4052
 21
0.925644
  0
LINE
  8
0
 10
-56.4052
 20
0.925644
 11
-56.4514
 21
0.866089
  0
LINE
  8
0
 10
-56.4514
 20
0.866089
 11
-56.5012
 21
0.80954
  0
LINE
  8
0
 10
-56.5012
 20
0.80954
 11
-56.5545
 21
0.756226
  0
LINE
  8
0
 10
-56.5545
 20
0.756226
 11
-56.6111
 21
0.706375
  0
LINE
  8
0
 10
-56.6111
 20
0.706375
 11
-56.6707
 21
0.660172
  0
LINE
  8
0
 10
-56.6707
 20
0.660172
 11
-56.733
 21
0.617798
  0
LINE
  8
0
 10
-56.733
 20
0.617798
 11
-56.7979
 21
0.579422
  0
LINE
  8
0
 10
-56.7979
 20
0.579422
 11
-56.8651
 21
0.545197
  0
LINE
  8
0
 10
-56.8651
 20
0.545197
 11
-56.9342
 21
0.515259
  0
LINE
  8
0
 10
-56.9342
 20
0.515259
 11
-57.0052
 21
0.489731
  0
LINE
  8
0
 10
-57.0052
 20
0.489731
 11
-57.0776
 21
0.468689
  0
LINE
  8
0
 10
-57.0776
 20
0.468689
 11
-57.1511
 21
0.452255
  0
LINE
  8
0
 10
-57.1511
 20
0.452255
 11
-57.2256
 21
0.44046
  0
LINE
  8
0
 10
-57.2256
 20
0.44046
 11
-57.3006
 21
0.433365
  0
LINE
  8
0
 10
-57.3006
 20
0.433365
 11
-57.376
 21
0.431
  0
LINE
  8
0
 10
-57.376
 20
0.431
 11
-57.4513
 21
0.433365
  0
LINE
  8
0
 10
-13.2393
 20
-0.947632
 11
-13.3144
 21
-0.940536
  0
LINE
  8
0
 10
-13.3144
 20
-0.940536
 11
-13.3889
 21
-0.928741
  0
LINE
  8
0
 10
-13.3889
 20
-0.928741
 11
-13.4624
 21
-0.912292
  0
LINE
  8
0
 10
-13.4624
 20
-0.912292
 11
-13.5348
 21
-0.891266
  0
LINE
  8
0
 10
-13.5348
 20
-0.891266
 11
-13.6057
 21
-0.865723
  0
LINE
  8
0
 10
-13.6057
 20
-0.865723
 11
-13.6749
 21
-0.835785
  0
LINE
  8
0
 10
-13.6749
 20
-0.835785
 11
-13.7421
 21
-0.801559
  0
LINE
  8
0
 10
-13.7421
 20
-0.801559
 11
-13.807
 21
-0.763184
  0
LINE
  8
0
 10
-13.807
 20
-0.763184
 11
-13.8693
 21
-0.72081
  0
LINE
  8
0
 10
-13.8693
 20
-0.72081
 11
-13.9289
 21
-0.674606
  0
LINE
  8
0
 10
-13.9289
 20
-0.674606
 11
-13.9854
 21
-0.624756
  0
LINE
  8
0
 10
-13.9854
 20
-0.624756
 11
-14.0388
 21
-0.571442
  0
LINE
  8
0
 10
-14.0388
 20
-0.571442
 11
-14.0886
 21
-0.514908
  0
LINE
  8
0
 10
-14.0886
 20
-0.514908
 11
-14.1348
 21
-0.455338
  0
LINE
  8
0
 10
-14.1348
 20
-0.455338
 11
-14.1772
 21
-0.39299
  0
LINE
  8
0
 10
-14.1772
 20
-0.39299
 11
-14.2156
 21
-0.328094
  0
LINE
  8
0
 10
-14.2156
 20
-0.328094
 11
-14.2498
 21
-0.260925
  0
LINE
  8
0
 10
-14.2498
 20
-0.260925
 11
-14.2797
 21
-0.191742
  0
LINE
  8
0
 10
-14.2797
 20
-0.191742
 11
-14.3053
 21
-0.120819
  0
LINE
  8
0
 10
-14.3053
 20
-0.120819
 11
-14.3263
 21
-0.0484161
  0
LINE
  8
0
 10
-14.3263
 20
-0.0484161
 11
-14.3427
 21
0.0251312
  0
LINE
  8
0
 10
-14.3427
 20
0.0251312
 11
-14.3545
 21
0.0995941
  0
LINE
  8
0
 10
-14.3545
 20
0.0995941
 11
-14.3616
 21
0.174637
  0
LINE
  8
0
 10
-14.3616
 20
0.174637
 11
-14.364
 21
0.25
  0
LINE
  8
0
 10
-14.364
 20
0.25
 11
-14.3616
 21
0.325348
  0
LINE
  8
0
 10
-14.3616
 20
0.325348
 11
-14.3545
 21
0.400391
  0
LINE
  8
0
 10
-14.3545
 20
0.400391
 11
-14.3427
 21
0.474854
  0
LINE
  8
0
 10
-14.3427
 20
0.474854
 11
-14.3263
 21
0.548416
  0
LINE
  8
0
 10
-14.3263
 20
0.548416
 11
-14.3053
 21
0.620819
  0
LINE
  8
0
 10
-14.3053
 20
0.620819
 11
-14.2797
 21
0.691742
  0
LINE
  8
0
 10
-14.2797
 20
0.691742
 11
-14.2498
 21
0.760925
  0
LINE
  8
0
 10
-14.2498
 20
0.760925
 11
-14.2156
 21
0.828094
  0
LINE
  8
0
 10
-14.2156
 20
0.828094
 11
-14.1772
 21
0.89299
  0
LINE
  8
0
 10
-14.1772
 20
0.89299
 11
-14.1348
 21
0.955338
  0
LINE
  8
0
 10
-14.1348
 20
0.955338
 11
-14.0886
 21
1.01491
  0
LINE
  8
0
 10
-14.0886
 20
1.01491
 11
-14.0388
 21
1.07144
  0
LINE
  8
0
 10
-14.0388
 20
1.07144
 11
-13.9854
 21
1.12476
  0
LINE
  8
0
 10
-13.9854
 20
1.12476
 11
-13.9289
 21
1.17461
  0
LINE
  8
0
 10
-13.9289
 20
1.17461
 11
-13.8693
 21
1.22081
  0
LINE
  8
0
 10
-13.8693
 20
1.22081
 11
-13.807
 21
1.26318
  0
LINE
  8
0
 10
-13.807
 20
1.26318
 11
-13.7421
 21
1.30156
  0
LINE
  8
0
 10
-13.7421
 20
1.30156
 11
-13.6749
 21
1.33578
  0
LINE
  8
0
 10
-13.6749
 20
1.33578
 11
-13.6057
 21
1.36572
  0
LINE
  8
0
 10
-13.6057
 20
1.36572
 11
-13.5348
 21
1.39127
  0
LINE
  8
0
 10
-13.5348
 20
1.39127
 11
-13.4624
 21
1.41229
  0
LINE
  8
0
 10
-13.4624
 20
1.41229
 11
-13.3889
 21
1.42874
  0
LINE
  8
0
 10
-13.3889
 20
1.42874
 11
-13.3144
 21
1.44054
  0
LINE
  8
0
 10
-13.3144
 20
1.44054
 11
-13.2393
 21
1.44763
  0
LINE
  8
0
 10
-13.2393
 20
1.44763
 11
-13.164
 21
1.45
  0
LINE
  8
0
 10
-13.164
 20
1.45
 11
-13.0886
 21
1.44763
  0
LINE
  8
0
 10
-13.0886
 20
1.44763
 11
-13.0136
 21
1.44054
  0
LINE
  8
0
 10
-13.0136
 20
1.44054
 11
-12.9391
 21
1.42874
  0
LINE
  8
0
 10
-12.9391
 20
1.42874
 11
-12.8656
 21
1.41229
  0
LINE
  8
0
 10
-12.8656
 20
1.41229
 11
-12.7932
 21
1.39127
  0
LINE
  8
0
 10
-12.7932
 20
1.39127
 11
-12.7222
 21
1.36572
  0
LINE
  8
0
 10
-12.7222
 20
1.36572
 11
-12.6531
 21
1.33578
  0
LINE
  8
0
 10
-12.6531
 20
1.33578
 11
-12.5859
 21
1.30156
  0
LINE
  8
0
 10
-12.5859
 20
1.30156
 11
-12.521
 21
1.26318
  0
LINE
  8
0
 10
-12.521
 20
1.26318
 11
-12.4586
 21
1.22081
  0
LINE
  8
0
 10
-12.4586
 20
1.22081
 11
-12.3991
 21
1.17461
  0
LINE
  8
0
 10
-12.3991
 20
1.17461
 11
-12.3425
 21
1.12476
  0
LINE
  8
0
 10
-12.3425
 20
1.12476
 11
-12.2892
 21
1.07144
  0
LINE
  8
0
 10
-12.2892
 20
1.07144
 11
-12.2394
 21
1.01491
  0
LINE
  8
0
 10
-12.2394
 20
1.01491
 11
-12.1932
 21
0.955338
  0
LINE
  8
0
 10
-12.1932
 20
0.955338
 11
-12.1508
 21
0.89299
  0
LINE
  8
0
 10
-12.1508
 20
0.89299
 11
-12.1124
 21
0.828094
  0
LINE
  8
0
 10
-12.1124
 20
0.828094
 11
-12.0782
 21
0.760925
  0
LINE
  8
0
 10
-12.0782
 20
0.760925
 11
-12.0483
 21
0.691742
  0
LINE
  8
0
 10
-12.0483
 20
0.691742
 11
-12.0227
 21
0.620819
  0
LINE
  8
0
 10
-12.0227
 20
0.620819
 11
-12.0017
 21
0.548416
  0
LINE
  8
0
 10
-12.0017
 20
0.548416
 11
-11.9852
 21
0.474854
  0
LINE
  8
0
 10
-11.9852
 20
0.474854
 11
-11.9734
 21
0.400391
  0
LINE
  8
0
 10
-11.9734
 20
0.400391
 11
-11.9664
 21
0.325348
  0
LINE
  8
0
 10
-11.9664
 20
0.325348
 11
-11.964
 21
0.25
  0
LINE
  8
0
 10
-11.964
 20
0.25
 11
-11.9664
 21
0.174637
  0
LINE
  8
0
 10
-11.9664
 20
0.174637
 11
-11.9734
 21
0.0995941
  0
LINE
  8
0
 10
-11.9734
 20
0.0995941
 11
-11.9852
 21
0.0251312
  0
LINE
  8
0
 10
-11.9852
 20
0.0251312
 11
-12.0017
 21
-0.0484161
  0
LINE
  8
0
 10
-12.0017
 20
-0.0484161
 11
-12.0227
 21
-0.120819
  0
LINE
  8
0
 10
-12.0227
 20
-0.120819
 11
-12.0483
 21
-0.191742
  0
LINE
  8
0
 10
-12.0483
 20
-0.191742
 11
-12.0782
 21
-0.260925
  0
LINE
  8
0
 10
-12.0782
 20
-0.260925
 11
-12.1124
 21
-0.328094
  0
LINE
  8
0
 10
-12.1124
 20
-0.328094
 11
-12.1508
 21
-0.39299
  0
LINE
  8
0
 10
-12.1508
 20
-0.39299
 11
-12.1932
 21
-0.455338
  0
LINE
  8
0
 10
-12.1932
 20
-0.455338
 11
-12.2394
 21
-0.514908
  0
LINE
  8
0
 10
-12.2394
 20
-0.514908
 11
-12.2892
 21
-0.571442
  0
LINE
  8
0
 10
-12.2892
 20
-0.571442
 11
-12.3425
 21
-0.624756
  0
LINE
  8
0
 10
-12.3425
 20
-0.624756
 11
-12.3991
 21
-0.674606
  0
LINE
  8
0
 10
-12.3991
 20
-0.674606
 11
-12.4586
 21
-0.72081
  0
LINE
  8
0
 10
-12.4586
 20
-0.72081
 11
-12.521
 21
-0.763184
  0
LINE
  8
0
 10
-12.521
 20
-0.763184
 11
-12.5859
 21
-0.801559
  0
LINE
  8
0
 10
-12.5859
 20
-0.801559
 11
-12.6531
 21
-0.835785
  0
LINE
  8
0
 10
-12.6531
 20
-0.835785
 11
-12.7222
 21
-0.865723
  0
LINE
  8
0
 10
-12.7222
 20
-0.865723
 11
-12.7932
 21
-0.891266
  0
LINE
  8
0
 10
-12.7932
 20
-0.891266
 11
-12.8656
 21
-0.912292
  0
LINE
  8
0
 10
-12.8656
 20
-0.912292
 11
-12.9391
 21
-0.928741
  0
LINE
  8
0
 10
-12.9391
 20
-0.928741
 11
-13.0136
 21
-0.940536
  0
LINE
  8
0
 10
-13.0136
 20
-0.940536
 11
-13.0886
 21
-0.947632
  0
LINE
  8
0
 10
-13.0886
 20
-0.947632
 11
-13.164
 21
-0.949997
  0
LINE
  8
0
 10
-13.164
 20
-0.949997
 11
-13.2393
 21
-0.947632
  0
LINE
  8
0
 10
-52.386
 20
-14.57
 11
-52.386
 21
-0.569992
  0
LINE
  8
0
 10
-52.386
 20
-0.569992
 11
-38.386
 21
-0.569992
  0
LINE
  8
0
 10
-38.386
 20
-0.569992
 11
-38.386
 21
-14.57
  0
LINE
  8
0
 10
-38.386
 20
-14.57
 11
-52.386
 21
-14.57
  0
LINE
  8
0
 10
-31.836
 20
-14.07
 11
-31.8988
 21
-14.068
  0
LINE
  8
0
 10
-31.8988
 20
-14.068
 11
-31.9613
 21
-14.0621
  0
LINE
  8
0
 10
-31.9613
 20
-14.0621
 11
-32.0234
 21
-14.0523
  0
LINE
  8
0
 10
-32.0234
 20
-14.0523
 11
-32.0847
 21
-14.0386
  0
LINE
  8
0
 10
-32.0847
 20
-14.0386
 11
-32.145
 21
-14.021
  0
LINE
  8
0
 10
-32.145
 20
-14.021
 11
-32.2041
 21
-13.9998
  0
LINE
  8
0
 10
-32.2041
 20
-13.9998
 11
-32.2618
 21
-13.9748
  0
LINE
  8
0
 10
-32.2618
 20
-13.9748
 11
-32.3177
 21
-13.9463
  0
LINE
  8
0
 10
-32.3177
 20
-13.9463
 11
-32.3718
 21
-13.9143
  0
LINE
  8
0
 10
-32.3718
 20
-13.9143
 11
-32.4238
 21
-13.879
  0
LINE
  8
0
 10
-32.4238
 20
-13.879
 11
-32.4734
 21
-13.8405
  0
LINE
  8
0
 10
-32.4734
 20
-13.8405
 11
-32.5205
 21
-13.799
  0
LINE
  8
0
 10
-32.5205
 20
-13.799
 11
-32.565
 21
-13.7545
  0
LINE
  8
0
 10
-32.565
 20
-13.7545
 11
-32.6065
 21
-13.7074
  0
LINE
  8
0
 10
-32.6065
 20
-13.7074
 11
-32.645
 21
-13.6578
  0
LINE
  8
0
 10
-32.645
 20
-13.6578
 11
-32.6803
 21
-13.6058
  0
LINE
  8
0
 10
-32.6803
 20
-13.6058
 11
-32.7123
 21
-13.5517
  0
LINE
  8
0
 10
-32.7123
 20
-13.5517
 11
-32.7408
 21
-13.4958
  0
LINE
  8
0
 10
-32.7408
 20
-13.4958
 11
-32.7658
 21
-13.4381
  0
LINE
  8
0
 10
-32.7658
 20
-13.4381
 11
-32.787
 21
-13.379
  0
LINE
  8
0
 10
-32.787
 20
-13.379
 11
-32.8046
 21
-13.3187
  0
LINE
  8
0
 10
-32.8046
 20
-13.3187
 11
-32.8183
 21
-13.2574
  0
LINE
  8
0
 10
-32.8183
 20
-13.2574
 11
-32.8281
 21
-13.1953
  0
LINE
  8
0
 10
-32.8281
 20
-13.1953
 11
-32.834
 21
-13.1328
  0
LINE
  8
0
 10
-32.834
 20
-13.1328
 11
-32.836
 21
-13.07
  0
LINE
  8
0
 10
-32.836
 20
-13.07
 11
-32.836
 21
-2.06999
  0
LINE
  8
0
 10
-32.836
 20
-2.06999
 11
-32.834
 21
-2.0072
  0
LINE
  8
0
 10
-32.834
 20
-2.0072
 11
-32.8281
 21
-1.94466
  0
LINE
  8
0
 10
-32.8281
 20
-1.94466
 11
-32.8183
 21
-1.88261
  0
LINE
  8
0
 10
-32.8183
 20
-1.88261
 11
-32.8046
 21
-1.8213
  0
LINE
  8
0
 10
-32.8046
 20
-1.8213
 11
-32.787
 21
-1.76097
  0
LINE
  8
0
 10
-32.787
 20
-1.76097
 11
-32.7658
 21
-1.70187
  0
LINE
  8
0
 10
-32.7658
 20
-1.70187
 11
-32.7408
 21
-1.64421
  0
LINE
  8
0
 10
-32.7408
 20
-1.64421
 11
-32.7123
 21
-1.58824
  0
LINE
  8
0
 10
-32.7123
 20
-1.58824
 11
-32.6803
 21
-1.53416
  0
LINE
  8
0
 10
-32.6803
 20
-1.53416
 11
-32.645
 21
-1.48221
  0
LINE
  8
0
 10
-32.645
 20
-1.48221
 11
-32.6065
 21
-1.43257
  0
LINE
  8
0
 10
-32.6065
 20
-1.43257
 11
-32.565
 21
-1.38545
  0
LINE
  8
0
 10
-32.565
 20
-1.38545
 11
-32.5205
 21
-1.34102
  0
LINE
  8
0
 10
-32.5205
 20
-1.34102
 11
-32.4734
 21
-1.29948
  0
LINE
  8
0
 10
-32.4734
 20
-1.29948
 11
-32.4238
 21
-1.26097
  0
LINE
  8
0
 10
-32.4238
 20
-1.26097
 11
-32.3718
 21
-1.22566
  0
LINE
  8
0
 10
-32.3718
 20
-1.22566
 11
-32.3177
 21
-1.19368
  0
LINE
  8
0
 10
-32.3177
 20
-1.19368
 11
-32.2618
 21
-1.16516
  0
LINE
  8
0
 10
-32.2618
 20
-1.16516
 11
-32.2041
 21
-1.14021
  0
LINE
  8
0
 10
-32.2041
 20
-1.14021
 11
-32.145
 21
-1.11894
  0
LINE
  8
0
 10
-32.145
 20
-1.11894
 11
-32.0847
 21
-1.10141
  0
LINE
  8
0
 10
-32.0847
 20
-1.10141
 11
-32.0234
 21
-1.08771
  0
LINE
  8
0
 10
-32.0234
 20
-1.08771
 11
-31.9613
 21
-1.07788
  0
LINE
  8
0
 10
-31.9613
 20
-1.07788
 11
-31.8988
 21
-1.07196
  0
LINE
  8
0
 10
-31.8988
 20
-1.07196
 11
-31.836
 21
-1.06999
  0
LINE
  8
0
 10
-31.836
 20
-1.06999
 11
-20.836
 21
-1.06999
  0
LINE
  8
0
 10
-20.836
 20
-1.06999
 11
-20.7732
 21
-1.07196
  0
LINE
  8
0
 10
-20.7732
 20
-1.07196
 11
-20.7107
 21
-1.07788
  0
LINE
  8
0
 10
-20.7107
 20
-1.07788
 11
-20.6486
 21
-1.08771
  0
LINE
  8
0
 10
-20.6486
 20
-1.08771
 11
-20.5873
 21
-1.10141
  0
LINE
  8
0
 10
-20.5873
 20
-1.10141
 11
-20.527
 21
-1.11894
  0
LINE
  8
0
 10
-20.527
 20
-1.11894
 11
-20.4679
 21
-1.14021
  0
LINE
  8
0
 10
-20.4679
 20
-1.14021
 11
-20.4102
 21
-1.16516
  0
LINE
  8
0
 10
-20.4102
 20
-1.16516
 11
-20.3542
 21
-1.19368
  0
LINE
  8
0
 10
-20.3542
 20
-1.19368
 11
-20.3002
 21
-1.22566
  0
LINE
  8
0
 10
-20.3002
 20
-1.22566
 11
-20.2482
 21
-1.26097
  0
LINE
  8
0
 10
-20.2482
 20
-1.26097
 11
-20.1986
 21
-1.29948
  0
LINE
  8
0
 10
-20.1986
 20
-1.29948
 11
-20.1515
 21
-1.34102
  0
LINE
  8
0
 10
-20.1515
 20
-1.34102
 11
-20.107
 21
-1.38545
  0
LINE
  8
0
 10
-20.107
 20
-1.38545
 11
-20.0655
 21
-1.43257
  0
LINE
  8
0
 10
-20.0655
 20
-1.43257
 11
-20.027
 21
-1.48221
  0
LINE
  8
0
 10
-20.027
 20
-1.48221
 11
-19.9917
 21
-1.53416
  0
LINE
  8
0
 10
-19.9917
 20
-1.53416
 11
-19.9597
 21
-1.58824
  0
LINE
  8
0
 10
-19.9597
 20
-1.58824
 11
-19.9312
 21
-1.64421
  0
LINE
  8
0
 10
-19.9312
 20
-1.64421
 11
-19.9062
 21
-1.70187
  0
LINE
  8
0
 10
-19.9062
 20
-1.70187
 11
-19.8849
 21
-1.76097
  0
LINE
  8
0
 10
-19.8849
 20
-1.76097
 11
-19.8674
 21
-1.8213
  0
LINE
  8
0
 10
-19.8674
 20
-1.8213
 11
-19.8537
 21
-1.88261
  0
LINE
  8
0
 10
-19.8537
 20
-1.88261
 11
-19.8439
 21
-1.94466
  0
LINE
  8
0
 10
-19.8439
 20
-1.94466
 11
-19.838
 21
-2.0072
  0
LINE
  8
0
 10
-19.838
 20
-2.0072
 11
-19.836
 21
-2.06999
  0
LINE
  8
0
 10
-19.836
 20
-2.06999
 11
-19.836
 21
-13.07
  0
LINE
  8
0
 10
-19.836
 20
-13.07
 11
-19.838
 21
-13.1328
  0
LINE
  8
0
 10
-19.838
 20
-13.1328
 11
-19.8439
 21
-13.1953
  0
LINE
  8
0
 10
-19.8439
 20
-13.1953
 11
-19.8537
 21
-13.2574
  0
LINE
  8
0
 10
-19.8537
 20
-13.2574
 11
-19.8674
 21
-13.3187
  0
LINE
  8
0
 10
-19.8674
 20
-13.3187
 11
-19.8849
 21
-13.379
  0
LINE
  8
0
 10
-19.8849
 20
-13.379
 11
-19.9062
 21
-13.4381
  0
LINE
  8
0
 10
-19.9062
 20
-13.4381
 11
-19.9312
 21
-13.4958
  0
LINE
  8
0
 10
-19.9312
 20
-13.4958
 11
-19.9597
 21
-13.5517
  0
LINE
  8
0
 10
-19.9597
 20
-13.5517
 11
-19.9917
 21
-13.6058
  0
LINE
  8
0
 10
-19.9917
 20
-13.6058
 11
-20.027
 21
-13.6578
  0
LINE
  8
0
 10
-20.027
 20
-13.6578
 11
-20.0655
 21
-13.7074
  0
LINE
  8
0
 10
-20.0655
 20
-13.7074
 11
-20.107
 21
-13.7545
  0
LINE
  8
0
 10
-20.107
 20
-13.7545
 11
-20.1515
 21
-13.799
  0
LINE
  8
0
 10
-20.1515
 20
-13.799
 11
-20.1986
 21
-13.8405
  0
LINE
  8
0
 10
-20.1986
 20
-13.8405
 11
-20.2482
 21
-13.879
  0
LINE
  8
0
 10
-20.2482
 20
-13.879
 11
-20.3002
 21
-13.9143
  0
LINE
  8
0
 10
-20.3002
 20
-13.9143
 11
-20.3542
 21
-13.9463
  0
LINE
  8
0
 10
-20.3542
 20
-13.9463
 11
-20.4102
 21
-13.9748
  0
LINE
  8
0
 10
-20.4102
 20
-13.9748
 11
-20.4679
 21
-13.9998
  0
LINE
  8
0
 10
-20.4679
 20
-13.9998
 11
-20.527
 21
-14.021
  0
LINE
  8
0
 10
-20.527
 20
-14.021
 11
-20.5873
 21
-14.0386
  0
LINE
  8
0
 10
-20.5873
 20
-14.0386
 11
-20.6486
 21
-14.0523
  0
LINE
  8
0
 10
-20.6486
 20
-14.0523
 11
-20.7107
 21
-14.0621
  0
LINE
  8
0
 10
-20.7107
 20
-14.0621
 11
-20.7732
 21
-14.068
  0
LINE
  8
0
 10
-20.7732
 20
-14.068
 11
-20.836
 21
-14.07
  0
LINE
  8
0
 10
-20.836
 20
-14.07
 11
-31.836
 21
-14.07
  0
LINE
  8
0
 10
-75.1495
 20
-5.40947
 11
-61.6265
 21
-1.78644
  0
LINE
  8
0
 10
-61.6265
 20
-1.78644
 11
-58.0034
 21
-15.3095
  0
LINE
  8
0
 10
-58.0034
 20
-15.3095
 11
-71.5265
 21
-18.9325
  0
LINE
  8
0
 10
-71.5265
 20
-18.9325
 11
-75.1495
 21
-5.40947
  0
LINE
  8
0
 10
-105.256
 20
-39.0066
 11
-106.175
 21
-39.9259
  0
LINE
  8
0
 10
-106.175
 20
-39.9259
 11
-108.297
 21
-37.8045
  0
LINE
  8
0
 10
-108.297
 20
-37.8045
 11
-107.377
 21
-36.8853
  0
LINE
  8
0
 10
-107.377
 20
-36.8853
 11
-108.668
 21
-35.5948
  0
LINE
  8
0
 10
-108.668
 20
-35.5948
 11
-108.173
 21
-35.0999
  0
LINE
  8
0
 10
-108.173
 20
-35.0999
 11
-109.287
 21
-33.9862
  0
LINE
  8
0
 10
-109.287
 20
-33.9862
 11
-110.015
 21
-34.7145
  0
LINE
  8
0
 10
-110.015
 20
-34.7145
 11
-119.914
 21
-24.815
  0
LINE
  8
0
 10
-119.914
 20
-24.815
 11
-119.186
 21
-24.0867
  0
LINE
  8
0
 10
-119.186
 20
-24.0867
 11
-120.3
 21
-22.973
  0
LINE
  8
0
 10
-120.3
 20
-22.973
 11
-120.795
 21
-23.468
  0
LINE
  8
0
 10
-120.795
 20
-23.468
 11
-122.085
 21
-22.1775
  0
LINE
  8
0
 10
-122.085
 20
-22.1775
 11
-123.005
 21
-23.0967
  0
LINE
  8
0
 10
-123.005
 20
-23.0967
 11
-125.126
 21
-20.9754
  0
LINE
  8
0
 10
-125.126
 20
-20.9754
 11
-124.207
 21
-20.0562
  0
LINE
  8
0
 10
-124.207
 20
-20.0562
 11
-125.497
 21
-18.7657
  0
LINE
  8
0
 10
-125.497
 20
-18.7657
 11
-121.134
 21
-14.4028
  0
LINE
  8
0
 10
-121.134
 20
-14.4028
 11
-121.753
 21
-13.7841
  0
LINE
  8
0
 10
-121.753
 20
-13.7841
 11
-119.773
 21
-11.8042
  0
LINE
  8
0
 10
-119.773
 20
-11.8042
 11
-119.154
 21
-12.423
  0
LINE
  8
0
 10
-119.154
 20
-12.423
 11
-116.8
 21
-10.0683
  0
LINE
  8
0
 10
-116.8
 20
-10.0683
 11
-112.097
 21
-14.7706
  0
LINE
  8
0
 10
-112.097
 20
-14.7706
 11
-112.734
 21
-15.4069
  0
LINE
  8
0
 10
-112.734
 20
-15.4069
 11
-111.62
 21
-16.5206
  0
LINE
  8
0
 10
-111.62
 20
-16.5206
 11
-110.015
 21
-14.9155
  0
LINE
  8
0
 10
-110.015
 20
-14.9155
 11
-100.115
 21
-24.815
  0
LINE
  8
0
 10
-100.115
 20
-24.815
 11
-101.721
 21
-26.4201
  0
LINE
  8
0
 10
-101.721
 20
-26.4201
 11
-100.607
 21
-27.5338
  0
LINE
  8
0
 10
-100.607
 20
-27.5338
 11
-99.9706
 21
-26.8974
  0
LINE
  8
0
 10
-99.9706
 20
-26.8974
 11
-95.2683
 21
-31.5997
  0
LINE
  8
0
 10
-95.2683
 20
-31.5997
 11
-97.623
 21
-33.9543
  0
LINE
  8
0
 10
-97.623
 20
-33.9543
 11
-97.0042
 21
-34.5731
  0
LINE
  8
0
 10
-97.0042
 20
-34.5731
 11
-98.9841
 21
-36.553
  0
LINE
  8
0
 10
-98.9841
 20
-36.553
 11
-99.6028
 21
-35.9342
  0
LINE
  8
0
 10
-99.6028
 20
-35.9342
 11
-103.966
 21
-40.2971
  0
LINE
  8
0
 10
-103.966
 20
-40.2971
 11
-105.256
 21
-39.0066
  0
LINE
  8
0
 10
13.0495
 20
-16.6218
 11
12.9495
 21
-16.6124
  0
LINE
  8
0
 10
12.9495
 20
-16.6124
 11
12.8502
 21
-16.5966
  0
LINE
  8
0
 10
12.8502
 20
-16.5966
 11
12.7521
 21
-16.5747
  0
LINE
  8
0
 10
12.7521
 20
-16.5747
 11
12.6556
 21
-16.5467
  0
LINE
  8
0
 10
12.6556
 20
-16.5467
 11
12.561
 21
-16.5126
  0
LINE
  8
0
 10
12.561
 20
-16.5126
 11
12.4688
 21
-16.4727
  0
LINE
  8
0
 10
12.4688
 20
-16.4727
 11
12.3792
 21
-16.4271
  0
LINE
  8
0
 10
12.3792
 20
-16.4271
 11
12.2927
 21
-16.3759
  0
LINE
  8
0
 10
12.2927
 20
-16.3759
 11
12.2095
 21
-16.3194
  0
LINE
  8
0
 10
12.2095
 20
-16.3194
 11
12.1301
 21
-16.2578
  0
LINE
  8
0
 10
12.1301
 20
-16.2578
 11
12.0547
 21
-16.1913
  0
LINE
  8
0
 10
12.0547
 20
-16.1913
 11
11.9836
 21
-16.1203
  0
LINE
  8
0
 10
11.9836
 20
-16.1203
 11
11.9172
 21
-16.0449
  0
LINE
  8
0
 10
11.9172
 20
-16.0449
 11
11.8556
 21
-15.9655
  0
LINE
  8
0
 10
11.8556
 20
-15.9655
 11
11.7991
 21
-15.8823
  0
LINE
  8
0
 10
11.7991
 20
-15.8823
 11
11.7479
 21
-15.7958
  0
LINE
  8
0
 10
11.7479
 20
-15.7958
 11
11.7023
 21
-15.7062
  0
LINE
  8
0
 10
11.7023
 20
-15.7062
 11
11.6624
 21
-15.614
  0
LINE
  8
0
 10
11.6624
 20
-15.614
 11
11.6283
 21
-15.5194
  0
LINE
  8
0
 10
11.6283
 20
-15.5194
 11
11.6003
 21
-15.4229
  0
LINE
  8
0
 10
11.6003
 20
-15.4229
 11
11.5783
 21
-15.3248
  0
LINE
  8
0
 10
11.5783
 20
-15.3248
 11
11.5626
 21
-15.2255
  0
LINE
  8
0
 10
11.5626
 20
-15.2255
 11
11.5531
 21
-15.1255
  0
LINE
  8
0
 10
11.5531
 20
-15.1255
 11
11.55
 21
-15.025
  0
LINE
  8
0
 10
11.55
 20
-15.025
 11
11.5531
 21
-14.9245
  0
LINE
  8
0
 10
11.5531
 20
-14.9245
 11
11.5626
 21
-14.8245
  0
LINE
  8
0
 10
11.5626
 20
-14.8245
 11
11.5783
 21
-14.7252
  0
LINE
  8
0
 10
11.5783
 20
-14.7252
 11
11.6003
 21
-14.6271
  0
LINE
  8
0
 10
11.6003
 20
-14.6271
 11
11.6283
 21
-14.5306
  0
LINE
  8
0
 10
11.6283
 20
-14.5306
 11
11.6624
 21
-14.436
  0
LINE
  8
0
 10
11.6624
 20
-14.436
 11
11.7023
 21
-14.3438
  0
LINE
  8
0
 10
11.7023
 20
-14.3438
 11
11.7479
 21
-14.2542
  0
LINE
  8
0
 10
11.7479
 20
-14.2542
 11
11.7991
 21
-14.1677
  0
LINE
  8
0
 10
11.7991
 20
-14.1677
 11
11.8556
 21
-14.0845
  0
LINE
  8
0
 10
11.8556
 20
-14.0845
 11
11.9172
 21
-14.0051
  0
LINE
  8
0
 10
11.9172
 20
-14.0051
 11
11.9836
 21
-13.9297
  0
LINE
  8
0
 10
11.9836
 20
-13.9297
 11
12.0547
 21
-13.8586
  0
LINE
  8
0
 10
12.0547
 20
-13.8586
 11
12.1301
 21
-13.7922
  0
LINE
  8
0
 10
12.1301
 20
-13.7922
 11
12.2095
 21
-13.7306
  0
LINE
  8
0
 10
12.2095
 20
-13.7306
 11
12.2927
 21
-13.6741
  0
LINE
  8
0
 10
12.2927
 20
-13.6741
 11
12.3792
 21
-13.6229
  0
LINE
  8
0
 10
12.3792
 20
-13.6229
 11
12.4688
 21
-13.5773
  0
LINE
  8
0
 10
12.4688
 20
-13.5773
 11
12.561
 21
-13.5374
  0
LINE
  8
0
 10
12.561
 20
-13.5374
 11
12.6556
 21
-13.5033
  0
LINE
  8
0
 10
12.6556
 20
-13.5033
 11
12.7521
 21
-13.4753
  0
LINE
  8
0
 10
12.7521
 20
-13.4753
 11
12.8502
 21
-13.4533
  0
LINE
  8
0
 10
12.8502
 20
-13.4533
 11
12.9495
 21
-13.4376
  0
LINE
  8
0
 10
12.9495
 20
-13.4376
 11
13.0495
 21
-13.4281
  0
LINE
  8
0
 10
13.0495
 20
-13.4281
 11
13.15
 21
-13.425
  0
LINE
  8
0
 10
13.15
 20
-13.425
 11
13.2505
 21
-13.4281
  0
LINE
  8
0
 10
13.2505
 20
-13.4281
 11
13.3505
 21
-13.4376
  0
LINE
  8
0
 10
13.3505
 20
-13.4376
 11
13.4498
 21
-13.4533
  0
LINE
  8
0
 10
13.4498
 20
-13.4533
 11
13.5479
 21
-13.4753
  0
LINE
  8
0
 10
13.5479
 20
-13.4753
 11
13.6444
 21
-13.5033
  0
LINE
  8
0
 10
13.6444
 20
-13.5033
 11
13.739
 21
-13.5374
  0
LINE
  8
0
 10
13.739
 20
-13.5374
 11
13.8312
 21
-13.5773
  0
LINE
  8
0
 10
13.8312
 20
-13.5773
 11
13.9208
 21
-13.6229
  0
LINE
  8
0
 10
13.9208
 20
-13.6229
 11
14.0073
 21
-13.6741
  0
LINE
  8
0
 10
14.0073
 20
-13.6741
 11
14.0905
 21
-13.7306
  0
LINE
  8
0
 10
14.0905
 20
-13.7306
 11
14.1699
 21
-13.7922
  0
LINE
  8
0
 10
14.1699
 20
-13.7922
 11
14.2453
 21
-13.8586
  0
LINE
  8
0
 10
14.2453
 20
-13.8586
 11
14.3163
 21
-13.9297
  0
LINE
  8
0
 10
14.3163
 20
-13.9297
 11
14.3828
 21
-14.0051
  0
LINE
  8
0
 10
14.3828
 20
-14.0051
 11
14.4444
 21
-14.0845
  0
LINE
  8
0
 10
14.4444
 20
-14.0845
 11
14.5009
 21
-14.1677
  0
LINE
  8
0
 10
14.5009
 20
-14.1677
 11
14.5521
 21
-14.2542
  0
LINE
  8
0
 10
14.5521
 20
-14.2542
 11
14.5977
 21
-14.3438
  0
LINE
  8
0
 10
14.5977
 20
-14.3438
 11
14.6376
 21
-14.436
  0
LINE
  8
0
 10
14.6376
 20
-14.436
 11
14.6717
 21
-14.5306
  0
LINE
  8
0
 10
14.6717
 20
-14.5306
 11
14.6997
 21
-14.6271
  0
LINE
  8
0
 10
14.6997
 20
-14.6271
 11
14.7216
 21
-14.7252
  0
LINE
  8
0
 10
14.7216
 20
-14.7252
 11
14.7374
 21
-14.8245
  0
LINE
  8
0
 10
14.7374
 20
-14.8245
 11
14.7468
 21
-14.9245
  0
LINE
  8
0
 10
14.7468
 20
-14.9245
 11
14.75
 21
-15.025
  0
LINE
  8
0
 10
14.75
 20
-15.025
 11
14.7468
 21
-15.1255
  0
LINE
  8
0
 10
14.7468
 20
-15.1255
 11
14.7374
 21
-15.2255
  0
LINE
  8
0
 10
14.7374
 20
-15.2255
 11
14.7216
 21
-15.3248
  0
LINE
  8
0
 10
14.7216
 20
-15.3248
 11
14.6997
 21
-15.4229
  0
LINE
  8
0
 10
14.6997
 20
-15.4229
 11
14.6717
 21
-15.5194
  0
LINE
  8
0
 10
14.6717
 20
-15.5194
 11
14.6376
 21
-15.614
  0
LINE
  8
0
 10
14.6376
 20
-15.614
 11
14.5977
 21
-15.7062
  0
LINE
  8
0
 10
14.5977
 20
-15.7062
 11
14.5521
 21
-15.7958
  0
LINE
  8
0
 10
14.5521
 20
-15.7958
 11
14.5009
 21
-15.8823
  0
LINE
  8
0
 10
14.5009
 20
-15.8823
 11
14.4444
 21
-15.9655
  0
LINE
  8
0
 10
14.4444
 20
-15.9655
 11
14.3828
 21
-16.0449
  0
LINE
  8
0
 10
14.3828
 20
-16.0449
 11
14.3163
 21
-16.1203
  0
LINE
  8
0
 10
14.3163
 20
-16.1203
 11
14.2453
 21
-16.1913
  0
LINE
  8
0
 10
14.2453
 20
-16.1913
 11
14.1699
 21
-16.2578
  0
LINE
  8
0
 10
14.1699
 20
-16.2578
 11
14.0905
 21
-16.3194
  0
LINE
  8
0
 10
14.0905
 20
-16.3194
 11
14.0073
 21
-16.3759
  0
LINE
  8
0
 10
14.0073
 20
-16.3759
 11
13.9208
 21
-16.4271
  0
LINE
  8
0
 10
13.9208
 20
-16.4271
 11
13.8312
 21
-16.4727
  0
LINE
  8
0
 10
13.8312
 20
-16.4727
 11
13.739
 21
-16.5126
  0
LINE
  8
0
 10
13.739
 20
-16.5126
 11
13.6444
 21
-16.5467
  0
LINE
  8
0
 10
13.6444
 20
-16.5467
 11
13.5479
 21
-16.5747
  0
LINE
  8
0
 10
13.5479
 20
-16.5747
 11
13.4498
 21
-16.5966
  0
LINE
  8
0
 10
13.4498
 20
-16.5966
 11
13.3505
 21
-16.6124
  0
LINE
  8
0
 10
13.3505
 20
-16.6124
 11
13.2505
 21
-16.6218
  0
LINE
  8
0
 10
13.2505
 20
-16.6218
 11
13.15
 21
-16.625
  0
LINE
  8
0
 10
13.15
 20
-16.625
 11
13.0495
 21
-16.6218
  0
LINE
  8
0
 10
-101.382
 20
-17.7636
 11
-101.457
 21
-17.7565
  0
LINE
  8
0
 10
-101.457
 20
-17.7565
 11
-101.532
 21
-17.7447
  0
LINE
  8
0
 10
-101.532
 20
-17.7447
 11
-101.605
 21
-17.7283
  0
LINE
  8
0
 10
-101.605
 20
-17.7283
 11
-101.678
 21
-17.7073
  0
LINE
  8
0
 10
-101.678
 20
-17.7073
 11
-101.749
 21
-17.6817
  0
LINE
  8
0
 10
-101.749
 20
-17.6817
 11
-101.818
 21
-17.6518
  0
LINE
  8
0
 10
-101.818
 20
-17.6518
 11
-101.885
 21
-17.6176
  0
LINE
  8
0
 10
-101.885
 20
-17.6176
 11
-101.95
 21
-17.5792
  0
LINE
  8
0
 10
-101.95
 20
-17.5792
 11
-102.012
 21
-17.5368
  0
LINE
  8
0
 10
-102.012
 20
-17.5368
 11
-102.072
 21
-17.4906
  0
LINE
  8
0
 10
-102.072
 20
-17.4906
 11
-102.128
 21
-17.4408
  0
LINE
  8
0
 10
-102.128
 20
-17.4408
 11
-102.182
 21
-17.3875
  0
LINE
  8
0
 10
-102.182
 20
-17.3875
 11
-102.232
 21
-17.3309
  0
LINE
  8
0
 10
-102.232
 20
-17.3309
 11
-102.278
 21
-17.2713
  0
LINE
  8
0
 10
-102.278
 20
-17.2713
 11
-102.32
 21
-17.209
  0
LINE
  8
0
 10
-102.32
 20
-17.209
 11
-102.359
 21
-17.1441
  0
LINE
  8
0
 10
-102.359
 20
-17.1441
 11
-102.393
 21
-17.0769
  0
LINE
  8
0
 10
-102.393
 20
-17.0769
 11
-102.423
 21
-17.0077
  0
LINE
  8
0
 10
-102.423
 20
-17.0077
 11
-102.448
 21
-16.9368
  0
LINE
  8
0
 10
-102.448
 20
-16.9368
 11
-102.469
 21
-16.8644
  0
LINE
  8
0
 10
-102.469
 20
-16.8644
 11
-102.486
 21
-16.7908
  0
LINE
  8
0
 10
-102.486
 20
-16.7908
 11
-102.498
 21
-16.7164
  0
LINE
  8
0
 10
-102.498
 20
-16.7164
 11
-102.505
 21
-16.6413
  0
LINE
  8
0
 10
-102.505
 20
-16.6413
 11
-102.507
 21
-16.566
  0
LINE
  8
0
 10
-102.507
 20
-16.566
 11
-102.505
 21
-16.4906
  0
LINE
  8
0
 10
-102.505
 20
-16.4906
 11
-102.498
 21
-16.4156
  0
LINE
  8
0
 10
-102.498
 20
-16.4156
 11
-102.486
 21
-16.3411
  0
LINE
  8
0
 10
-102.486
 20
-16.3411
 11
-102.469
 21
-16.2676
  0
LINE
  8
0
 10
-102.469
 20
-16.2676
 11
-102.448
 21
-16.1952
  0
LINE
  8
0
 10
-102.448
 20
-16.1952
 11
-102.423
 21
-16.1242
  0
LINE
  8
0
 10
-102.423
 20
-16.1242
 11
-102.393
 21
-16.0551
  0
LINE
  8
0
 10
-102.393
 20
-16.0551
 11
-102.359
 21
-15.9879
  0
LINE
  8
0
 10
-102.359
 20
-15.9879
 11
-102.32
 21
-15.923
  0
LINE
  8
0
 10
-102.32
 20
-15.923
 11
-102.278
 21
-15.8607
  0
LINE
  8
0
 10
-102.278
 20
-15.8607
 11
-102.232
 21
-15.8011
  0
LINE
  8
0
 10
-102.232
 20
-15.8011
 11
-102.182
 21
-15.7445
  0
LINE
  8
0
 10
-102.182
 20
-15.7445
 11
-102.128
 21
-15.6912
  0
LINE
  8
0
 10
-102.128
 20
-15.6912
 11
-102.072
 21
-15.6414
  0
LINE
  8
0
 10
-102.072
 20
-15.6414
 11
-102.012
 21
-15.5952
  0
LINE
  8
0
 10
-102.012
 20
-15.5952
 11
-101.95
 21
-15.5528
  0
LINE
  8
0
 10
-101.95
 20
-15.5528
 11
-101.885
 21
-15.5144
  0
LINE
  8
0
 10
-101.885
 20
-15.5144
 11
-101.818
 21
-15.4802
  0
LINE
  8
0
 10
-101.818
 20
-15.4802
 11
-101.749
 21
-15.4503
  0
LINE
  8
0
 10
-101.749
 20
-15.4503
 11
-101.678
 21
-15.4247
  0
LINE
  8
0
 10
-101.678
 20
-15.4247
 11
-101.605
 21
-15.4037
  0
LINE
  8
0
 10
-101.605
 20
-15.4037
 11
-101.532
 21
-15.3873
  0
LINE
  8
0
 10
-101.532
 20
-15.3873
 11
-101.457
 21
-15.3755
  0
LINE
  8
0
 10
-101.457
 20
-15.3755
 11
-101.382
 21
-15.3684
  0
LINE
  8
0
 10
-101.382
 20
-15.3684
 11
-101.307
 21
-15.366
  0
LINE
  8
0
 10
-101.307
 20
-15.366
 11
-101.232
 21
-15.3684
  0
LINE
  8
0
 10
-101.232
 20
-15.3684
 11
-101.157
 21
-15.3755
  0
LINE
  8
0
 10
-101.157
 20
-15.3755
 11
-101.082
 21
-15.3873
  0
LINE
  8
0
 10
-101.082
 20
-15.3873
 11
-101.009
 21
-15.4037
  0
LINE
  8
0
 10
-101.009
 20
-15.4037
 11
-100.936
 21
-15.4247
  0
LINE
  8
0
 10
-100.936
 20
-15.4247
 11
-100.865
 21
-15.4503
  0
LINE
  8
0
 10
-100.865
 20
-15.4503
 11
-100.796
 21
-15.4802
  0
LINE
  8
0
 10
-100.796
 20
-15.4802
 11
-100.729
 21
-15.5144
  0
LINE
  8
0
 10
-100.729
 20
-15.5144
 11
-100.664
 21
-15.5528
  0
LINE
  8
0
 10
-100.664
 20
-15.5528
 11
-100.602
 21
-15.5952
  0
LINE
  8
0
 10
-100.602
 20
-15.5952
 11
-100.542
 21
-15.6414
  0
LINE
  8
0
 10
-100.542
 20
-15.6414
 11
-100.486
 21
-15.6912
  0
LINE
  8
0
 10
-100.486
 20
-15.6912
 11
-100.432
 21
-15.7445
  0
LINE
  8
0
 10
-100.432
 20
-15.7445
 11
-100.382
 21
-15.8011
  0
LINE
  8
0
 10
-100.382
 20
-15.8011
 11
-100.336
 21
-15.8607
  0
LINE
  8
0
 10
-100.336
 20
-15.8607
 11
-100.294
 21
-15.923
  0
LINE
  8
0
 10
-100.294
 20
-15.923
 11
-100.255
 21
-15.9879
  0
LINE
  8
0
 10
-100.255
 20
-15.9879
 11
-100.221
 21
-16.0551
  0
LINE
  8
0
 10
-100.221
 20
-16.0551
 11
-100.191
 21
-16.1242
  0
LINE
  8
0
 10
-100.191
 20
-16.1242
 11
-100.166
 21
-16.1952
  0
LINE
  8
0
 10
-100.166
 20
-16.1952
 11
-100.145
 21
-16.2676
  0
LINE
  8
0
 10
-100.145
 20
-16.2676
 11
-100.128
 21
-16.3411
  0
LINE
  8
0
 10
-100.128
 20
-16.3411
 11
-100.116
 21
-16.4156
  0
LINE
  8
0
 10
-100.116
 20
-16.4156
 11
-100.109
 21
-16.4906
  0
LINE
  8
0
 10
-100.109
 20
-16.4906
 11
-100.107
 21
-16.566
  0
LINE
  8
0
 10
-100.107
 20
-16.566
 11
-100.109
 21
-16.6413
  0
LINE
  8
0
 10
-100.109
 20
-16.6413
 11
-100.116
 21
-16.7164
  0
LINE
  8
0
 10
-100.116
 20
-16.7164
 11
-100.128
 21
-16.7908
  0
LINE
  8
0
 10
-100.128
 20
-16.7908
 11
-100.145
 21
-16.8644
  0
LINE
  8
0
 10
-100.145
 20
-16.8644
 11
-100.166
 21
-16.9368
  0
LINE
  8
0
 10
-100.166
 20
-16.9368
 11
-100.191
 21
-17.0077
  0
LINE
  8
0
 10
-100.191
 20
-17.0077
 11
-100.221
 21
-17.0769
  0
LINE
  8
0
 10
-100.221
 20
-17.0769
 11
-100.255
 21
-17.1441
  0
LINE
  8
0
 10
-100.255
 20
-17.1441
 11
-100.294
 21
-17.209
  0
LINE
  8
0
 10
-100.294
 20
-17.209
 11
-100.336
 21
-17.2713
  0
LINE
  8
0
 10
-100.336
 20
-17.2713
 11
-100.382
 21
-17.3309
  0
LINE
  8
0
 10
-100.382
 20
-17.3309
 11
-100.432
 21
-17.3875
  0
LINE
  8
0
 10
-100.432
 20
-17.3875
 11
-100.486
 21
-17.4408
  0
LINE
  8
0
 10
-100.486
 20
-17.4408
 11
-100.542
 21
-17.4906
  0
LINE
  8
0
 10
-100.542
 20
-17.4906
 11
-100.602
 21
-17.5368
  0
LINE
  8
0
 10
-100.602
 20
-17.5368
 11
-100.664
 21
-17.5792
  0
LINE
  8
0
 10
-100.664
 20
-17.5792
 11
-100.729
 21
-17.6176
  0
LINE
  8
0
 10
-100.729
 20
-17.6176
 11
-100.796
 21
-17.6518
  0
LINE
  8
0
 10
-100.796
 20
-17.6518
 11
-100.865
 21
-17.6817
  0
LINE
  8
0
 10
-100.865
 20
-17.6817
 11
-100.936
 21
-17.7073
  0
LINE
  8
0
 10
-100.936
 20
-17.7073
 11
-101.009
 21
-17.7283
  0
LINE
  8
0
 10
-101.009
 20
-17.7283
 11
-101.082
 21
-17.7447
  0
LINE
  8
0
 10
-101.082
 20
-17.7447
 11
-101.157
 21
-17.7565
  0
LINE
  8
0
 10
-101.157
 20
-17.7565
 11
-101.232
 21
-17.7636
  0
LINE
  8
0
 10
-101.232
 20
-17.7636
 11
-101.307
 21
-17.766
  0
LINE
  8
0
 10
-101.307
 20
-17.766
 11
-101.382
 21
-17.7636
  0
LINE
  8
0
 10
-138.099
 20
-19.6768
 11
-138.199
 21
-19.6674
  0
LINE
  8
0
 10
-138.199
 20
-19.6674
 11
-138.299
 21
-19.6517
  0
LINE
  8
0
 10
-138.299
 20
-19.6517
 11
-138.397
 21
-19.6297
  0
LINE
  8
0
 10
-138.397
 20
-19.6297
 11
-138.493
 21
-19.6017
  0
LINE
  8
0
 10
-138.493
 20
-19.6017
 11
-138.588
 21
-19.5677
  0
LINE
  8
0
 10
-138.588
 20
-19.5677
 11
-138.68
 21
-19.5277
  0
LINE
  8
0
 10
-138.68
 20
-19.5277
 11
-138.77
 21
-19.4821
  0
LINE
  8
0
 10
-138.77
 20
-19.4821
 11
-138.856
 21
-19.4309
  0
LINE
  8
0
 10
-138.856
 20
-19.4309
 11
-138.939
 21
-19.3744
  0
LINE
  8
0
 10
-138.939
 20
-19.3744
 11
-139.019
 21
-19.3128
  0
LINE
  8
0
 10
-139.019
 20
-19.3128
 11
-139.094
 21
-19.2464
  0
LINE
  8
0
 10
-139.094
 20
-19.2464
 11
-139.165
 21
-19.1753
  0
LINE
  8
0
 10
-139.165
 20
-19.1753
 11
-139.232
 21
-19.0999
  0
LINE
  8
0
 10
-139.232
 20
-19.0999
 11
-139.293
 21
-19.0205
  0
LINE
  8
0
 10
-139.293
 20
-19.0205
 11
-139.35
 21
-18.9373
  0
LINE
  8
0
 10
-139.35
 20
-18.9373
 11
-139.401
 21
-18.8508
  0
LINE
  8
0
 10
-139.401
 20
-18.8508
 11
-139.447
 21
-18.7613
  0
LINE
  8
0
 10
-139.447
 20
-18.7613
 11
-139.487
 21
-18.669
  0
LINE
  8
0
 10
-139.487
 20
-18.669
 11
-139.521
 21
-18.5744
  0
LINE
  8
0
 10
-139.521
 20
-18.5744
 11
-139.549
 21
-18.4779
  0
LINE
  8
0
 10
-139.549
 20
-18.4779
 11
-139.571
 21
-18.3798
  0
LINE
  8
0
 10
-139.571
 20
-18.3798
 11
-139.586
 21
-18.2805
  0
LINE
  8
0
 10
-139.586
 20
-18.2805
 11
-139.596
 21
-18.1805
  0
LINE
  8
0
 10
-139.596
 20
-18.1805
 11
-139.599
 21
-18.08
  0
LINE
  8
0
 10
-139.599
 20
-18.08
 11
-139.596
 21
-17.9796
  0
LINE
  8
0
 10
-139.596
 20
-17.9796
 11
-139.586
 21
-17.8795
  0
LINE
  8
0
 10
-139.586
 20
-17.8795
 11
-139.571
 21
-17.7802
  0
LINE
  8
0
 10
-139.571
 20
-17.7802
 11
-139.549
 21
-17.6821
  0
LINE
  8
0
 10
-139.549
 20
-17.6821
 11
-139.521
 21
-17.5856
  0
LINE
  8
0
 10
-139.521
 20
-17.5856
 11
-139.487
 21
-17.491
  0
LINE
  8
0
 10
-139.487
 20
-17.491
 11
-139.447
 21
-17.3988
  0
LINE
  8
0
 10
-139.447
 20
-17.3988
 11
-139.401
 21
-17.3092
  0
LINE
  8
0
 10
-139.401
 20
-17.3092
 11
-139.35
 21
-17.2227
  0
LINE
  8
0
 10
-139.35
 20
-17.2227
 11
-139.293
 21
-17.1396
  0
LINE
  8
0
 10
-139.293
 20
-17.1396
 11
-139.232
 21
-17.0601
  0
LINE
  8
0
 10
-139.232
 20
-17.0601
 11
-139.165
 21
-16.9847
  0
LINE
  8
0
 10
-139.165
 20
-16.9847
 11
-139.094
 21
-16.9137
  0
LINE
  8
0
 10
-139.094
 20
-16.9137
 11
-139.019
 21
-16.8472
  0
LINE
  8
0
 10
-139.019
 20
-16.8472
 11
-138.939
 21
-16.7856
  0
LINE
  8
0
 10
-138.939
 20
-16.7856
 11
-138.856
 21
-16.7291
  0
LINE
  8
0
 10
-138.856
 20
-16.7291
 11
-138.77
 21
-16.6779
  0
LINE
  8
0
 10
-138.77
 20
-16.6779
 11
-138.68
 21
-16.6323
  0
LINE
  8
0
 10
-138.68
 20
-16.6323
 11
-138.588
 21
-16.5924
  0
LINE
  8
0
 10
-138.588
 20
-16.5924
 11
-138.493
 21
-16.5583
  0
LINE
  8
0
 10
-138.493
 20
-16.5583
 11
-138.397
 21
-16.5303
  0
LINE
  8
0
 10
-138.397
 20
-16.5303
 11
-138.299
 21
-16.5083
  0
LINE
  8
0
 10
-138.299
 20
-16.5083
 11
-138.199
 21
-16.4926
  0
LINE
  8
0
 10
-138.199
 20
-16.4926
 11
-138.099
 21
-16.4832
  0
LINE
  8
0
 10
-138.099
 20
-16.4832
 11
-137.999
 21
-16.48
  0
LINE
  8
0
 10
-137.999
 20
-16.48
 11
-137.898
 21
-16.4832
  0
LINE
  8
0
 10
-137.898
 20
-16.4832
 11
-137.798
 21
-16.4926
  0
LINE
  8
0
 10
-137.798
 20
-16.4926
 11
-137.699
 21
-16.5083
  0
LINE
  8
0
 10
-137.699
 20
-16.5083
 11
-137.601
 21
-16.5303
  0
LINE
  8
0
 10
-137.601
 20
-16.5303
 11
-137.505
 21
-16.5583
  0
LINE
  8
0
 10
-137.505
 20
-16.5583
 11
-137.41
 21
-16.5924
  0
LINE
  8
0
 10
-137.41
 20
-16.5924
 11
-137.318
 21
-16.6323
  0
LINE
  8
0
 10
-137.318
 20
-16.6323
 11
-137.228
 21
-16.6779
  0
LINE
  8
0
 10
-137.228
 20
-16.6779
 11
-137.142
 21
-16.7291
  0
LINE
  8
0
 10
-137.142
 20
-16.7291
 11
-137.058
 21
-16.7856
  0
LINE
  8
0
 10
-137.058
 20
-16.7856
 11
-136.979
 21
-16.8472
  0
LINE
  8
0
 10
-136.979
 20
-16.8472
 11
-136.904
 21
-16.9137
  0
LINE
  8
0
 10
-136.904
 20
-16.9137
 11
-136.833
 21
-16.9847
  0
LINE
  8
0
 10
-136.833
 20
-16.9847
 11
-136.766
 21
-17.0601
  0
LINE
  8
0
 10
-136.766
 20
-17.0601
 11
-136.705
 21
-17.1396
  0
LINE
  8
0
 10
-136.705
 20
-17.1396
 11
-136.648
 21
-17.2227
  0
LINE
  8
0
 10
-136.648
 20
-17.2227
 11
-136.597
 21
-17.3092
  0
LINE
  8
0
 10
-136.597
 20
-17.3092
 11
-136.551
 21
-17.3988
  0
LINE
  8
0
 10
-136.551
 20
-17.3988
 11
-136.511
 21
-17.491
  0
LINE
  8
0
 10
-136.511
 20
-17.491
 11
-136.477
 21
-17.5856
  0
LINE
  8
0
 10
-136.477
 20
-17.5856
 11
-136.449
 21
-17.6821
  0
LINE
  8
0
 10
-136.449
 20
-17.6821
 11
-136.427
 21
-17.7802
  0
LINE
  8
0
 10
-136.427
 20
-17.7802
 11
-136.412
 21
-17.8795
  0
LINE
  8
0
 10
-136.412
 20
-17.8795
 11
-136.402
 21
-17.9796
  0
LINE
  8
0
 10
-136.402
 20
-17.9796
 11
-136.399
 21
-18.08
  0
LINE
  8
0
 10
-136.399
 20
-18.08
 11
-136.402
 21
-18.1805
  0
LINE
  8
0
 10
-136.402
 20
-18.1805
 11
-136.412
 21
-18.2805
  0
LINE
  8
0
 10
-136.412
 20
-18.2805
 11
-136.427
 21
-18.3798
  0
LINE
  8
0
 10
-136.427
 20
-18.3798
 11
-136.449
 21
-18.4779
  0
LINE
  8
0
 10
-136.449
 20
-18.4779
 11
-136.477
 21
-18.5744
  0
LINE
  8
0
 10
-136.477
 20
-18.5744
 11
-136.511
 21
-18.669
  0
LINE
  8
0
 10
-136.511
 20
-18.669
 11
-136.551
 21
-18.7613
  0
LINE
  8
0
 10
-136.551
 20
-18.7613
 11
-136.597
 21
-18.8508
  0
LINE
  8
0
 10
-136.597
 20
-18.8508
 11
-136.648
 21
-18.9373
  0
LINE
  8
0
 10
-136.648
 20
-18.9373
 11
-136.705
 21
-19.0205
  0
LINE
  8
0
 10
-136.705
 20
-19.0205
 11
-136.766
 21
-19.0999
  0
LINE
  8
0
 10
-136.766
 20
-19.0999
 11
-136.833
 21
-19.1753
  0
LINE
  8
0
 10
-136.833
 20
-19.1753
 11
-136.904
 21
-19.2464
  0
LINE
  8
0
 10
-136.904
 20
-19.2464
 11
-136.979
 21
-19.3128
  0
LINE
  8
0
 10
-136.979
 20
-19.3128
 11
-137.058
 21
-19.3744
  0
LINE
  8
0
 10
-137.058
 20
-19.3744
 11
-137.142
 21
-19.4309
  0
LINE
  8
0
 10
-137.142
 20
-19.4309
 11
-137.228
 21
-19.4821
  0
LINE
  8
0
 10
-137.228
 20
-19.4821
 11
-137.318
 21
-19.5277
  0
LINE
  8
0
 10
-137.318
 20
-19.5277
 11
-137.41
 21
-19.5677
  0
LINE
  8
0
 10
-137.41
 20
-19.5677
 11
-137.505
 21
-19.6017
  0
LINE
  8
0
 10
-137.505
 20
-19.6017
 11
-137.601
 21
-19.6297
  0
LINE
  8
0
 10
-137.601
 20
-19.6297
 11
-137.699
 21
-19.6517
  0
LINE
  8
0
 10
-137.699
 20
-19.6517
 11
-137.798
 21
-19.6674
  0
LINE
  8
0
 10
-137.798
 20
-19.6674
 11
-137.898
 21
-19.6768
  0
LINE
  8
0
 10
-137.898
 20
-19.6768
 11
-137.999
 21
-19.68
  0
LINE
  8
0
 10
-137.999
 20
-19.68
 11
-138.099
 21
-19.6768
  0
LINE
  8
0
 10
-103.38
 20
-54.3958
 11
-103.481
 21
-54.3863
  0
LINE
  8
0
 10
-103.481
 20
-54.3863
 11
-103.58
 21
-54.3706
  0
LINE
  8
0
 10
-103.58
 20
-54.3706
 11
-103.678
 21
-54.3487
  0
LINE
  8
0
 10
-103.678
 20
-54.3487
 11
-103.774
 21
-54.3206
  0
LINE
  8
0
 10
-103.774
 20
-54.3206
 11
-103.869
 21
-54.2866
  0
LINE
  8
0
 10
-103.869
 20
-54.2866
 11
-103.961
 21
-54.2467
  0
LINE
  8
0
 10
-103.961
 20
-54.2467
 11
-104.051
 21
-54.201
  0
LINE
  8
0
 10
-104.051
 20
-54.201
 11
-104.137
 21
-54.1499
  0
LINE
  8
0
 10
-104.137
 20
-54.1499
 11
-104.22
 21
-54.0934
  0
LINE
  8
0
 10
-104.22
 20
-54.0934
 11
-104.3
 21
-54.0318
  0
LINE
  8
0
 10
-104.3
 20
-54.0318
 11
-104.375
 21
-53.9653
  0
LINE
  8
0
 10
-104.375
 20
-53.9653
 11
-104.446
 21
-53.8942
  0
LINE
  8
0
 10
-104.446
 20
-53.8942
 11
-104.513
 21
-53.8188
  0
LINE
  8
0
 10
-104.513
 20
-53.8188
 11
-104.574
 21
-53.7394
  0
LINE
  8
0
 10
-104.574
 20
-53.7394
 11
-104.631
 21
-53.6563
  0
LINE
  8
0
 10
-104.631
 20
-53.6563
 11
-104.682
 21
-53.5698
  0
LINE
  8
0
 10
-104.682
 20
-53.5698
 11
-104.728
 21
-53.4802
  0
LINE
  8
0
 10
-104.728
 20
-53.4802
 11
-104.768
 21
-53.388
  0
LINE
  8
0
 10
-104.768
 20
-53.388
 11
-104.802
 21
-53.2934
  0
LINE
  8
0
 10
-104.802
 20
-53.2934
 11
-104.83
 21
-53.1969
  0
LINE
  8
0
 10
-104.83
 20
-53.1969
 11
-104.852
 21
-53.0988
  0
LINE
  8
0
 10
-104.852
 20
-53.0988
 11
-104.867
 21
-52.9995
  0
LINE
  8
0
 10
-104.867
 20
-52.9995
 11
-104.877
 21
-52.8994
  0
LINE
  8
0
 10
-104.877
 20
-52.8994
 11
-104.88
 21
-52.799
  0
LINE
  8
0
 10
-104.88
 20
-52.799
 11
-104.877
 21
-52.6985
  0
LINE
  8
0
 10
-104.877
 20
-52.6985
 11
-104.867
 21
-52.5984
  0
LINE
  8
0
 10
-104.867
 20
-52.5984
 11
-104.852
 21
-52.4991
  0
LINE
  8
0
 10
-104.852
 20
-52.4991
 11
-104.83
 21
-52.401
  0
LINE
  8
0
 10
-104.83
 20
-52.401
 11
-104.802
 21
-52.3045
  0
LINE
  8
0
 10
-104.802
 20
-52.3045
 11
-104.768
 21
-52.21
  0
LINE
  8
0
 10
-104.768
 20
-52.21
 11
-104.728
 21
-52.1177
  0
LINE
  8
0
 10
-104.728
 20
-52.1177
 11
-104.682
 21
-52.0282
  0
LINE
  8
0
 10
-104.682
 20
-52.0282
 11
-104.631
 21
-51.9416
  0
LINE
  8
0
 10
-104.631
 20
-51.9416
 11
-104.574
 21
-51.8585
  0
LINE
  8
0
 10
-104.574
 20
-51.8585
 11
-104.513
 21
-51.7791
  0
LINE
  8
0
 10
-104.513
 20
-51.7791
 11
-104.446
 21
-51.7037
  0
LINE
  8
0
 10
-104.446
 20
-51.7037
 11
-104.375
 21
-51.6326
  0
LINE
  8
0
 10
-104.375
 20
-51.6326
 11
-104.3
 21
-51.5661
  0
LINE
  8
0
 10
-104.3
 20
-51.5661
 11
-104.22
 21
-51.5045
  0
LINE
  8
0
 10
-104.22
 20
-51.5045
 11
-104.137
 21
-51.448
  0
LINE
  8
0
 10
-104.137
 20
-51.448
 11
-104.051
 21
-51.3969
  0
LINE
  8
0
 10
-104.051
 20
-51.3969
 11
-103.961
 21
-51.3512
  0
LINE
  8
0
 10
-103.961
 20
-51.3512
 11
-103.869
 21
-51.3113
  0
LINE
  8
0
 10
-103.869
 20
-51.3113
 11
-103.774
 21
-51.2773
  0
LINE
  8
0
 10
-103.774
 20
-51.2773
 11
-103.678
 21
-51.2492
  0
LINE
  8
0
 10
-103.678
 20
-51.2492
 11
-103.58
 21
-51.2273
  0
LINE
  8
0
 10
-103.58
 20
-51.2273
 11
-103.481
 21
-51.2116
  0
LINE
  8
0
 10
-103.481
 20
-51.2116
 11
-103.38
 21
-51.2021
  0
LINE
  8
0
 10
-103.38
 20
-51.2021
 11
-103.28
 21
-51.199
  0
LINE
  8
0
 10
-103.28
 20
-51.199
 11
-103.18
 21
-51.2021
  0
LINE
  8
0
 10
-103.18
 20
-51.2021
 11
-103.079
 21
-51.2116
  0
LINE
  8
0
 10
-103.079
 20
-51.2116
 11
-102.98
 21
-51.2273
  0
LINE
  8
0
 10
-102.98
 20
-51.2273
 11
-102.882
 21
-51.2492
  0
LINE
  8
0
 10
-102.882
 20
-51.2492
 11
-102.786
 21
-51.2773
  0
LINE
  8
0
 10
-102.786
 20
-51.2773
 11
-102.691
 21
-51.3113
  0
LINE
  8
0
 10
-102.691
 20
-51.3113
 11
-102.599
 21
-51.3512
  0
LINE
  8
0
 10
-102.599
 20
-51.3512
 11
-102.509
 21
-51.3969
  0
LINE
  8
0
 10
-102.509
 20
-51.3969
 11
-102.423
 21
-51.448
  0
LINE
  8
0
 10
-102.423
 20
-51.448
 11
-102.34
 21
-51.5045
  0
LINE
  8
0
 10
-102.34
 20
-51.5045
 11
-102.26
 21
-51.5661
  0
LINE
  8
0
 10
-102.26
 20
-51.5661
 11
-102.185
 21
-51.6326
  0
LINE
  8
0
 10
-102.185
 20
-51.6326
 11
-102.114
 21
-51.7037
  0
LINE
  8
0
 10
-102.114
 20
-51.7037
 11
-102.047
 21
-51.7791
  0
LINE
  8
0
 10
-102.047
 20
-51.7791
 11
-101.986
 21
-51.8585
  0
LINE
  8
0
 10
-101.986
 20
-51.8585
 11
-101.929
 21
-51.9416
  0
LINE
  8
0
 10
-101.929
 20
-51.9416
 11
-101.878
 21
-52.0282
  0
LINE
  8
0
 10
-101.878
 20
-52.0282
 11
-101.832
 21
-52.1177
  0
LINE
  8
0
 10
-101.832
 20
-52.1177
 11
-101.792
 21
-52.21
  0
LINE
  8
0
 10
-101.792
 20
-52.21
 11
-101.758
 21
-52.3045
  0
LINE
  8
0
 10
-101.758
 20
-52.3045
 11
-101.73
 21
-52.401
  0
LINE
  8
0
 10
-101.73
 20
-52.401
 11
-101.708
 21
-52.4991
  0
LINE
  8
0
 10
-101.708
 20
-52.4991
 11
-101.693
 21
-52.5984
  0
LINE
  8
0
 10
-101.693
 20
-52.5984
 11
-101.683
 21
-52.6985
  0
LINE
  8
0
 10
-101.683
 20
-52.6985
 11
-101.68
 21
-52.799
  0
LINE
  8
0
 10
-101.68
 20
-52.799
 11
-101.683
 21
-52.8994
  0
LINE
  8
0
 10
-101.683
 20
-52.8994
 11
-101.693
 21
-52.9995
  0
LINE
  8
0
 10
-101.693
 20
-52.9995
 11
-101.708
 21
-53.0988
  0
LINE
  8
0
 10
-101.708
 20
-53.0988
 11
-101.73
 21
-53.1969
  0
LINE
  8
0
 10
-101.73
 20
-53.1969
 11
-101.758
 21
-53.2934
  0
LINE
  8
0
 10
-101.758
 20
-53.2934
 11
-101.792
 21
-53.388
  0
LINE
  8
0
 10
-101.792
 20
-53.388
 11
-101.832
 21
-53.4802
  0
LINE
  8
0
 10
-101.832
 20
-53.4802
 11
-101.878
 21
-53.5698
  0
LINE
  8
0
 10
-101.878
 20
-53.5698
 11
-101.929
 21
-53.6563
  0
LINE
  8
0
 10
-101.929
 20
-53.6563
 11
-101.986
 21
-53.7394
  0
LINE
  8
0
 10
-101.986
 20
-53.7394
 11
-102.047
 21
-53.8188
  0
LINE
  8
0
 10
-102.047
 20
-53.8188
 11
-102.114
 21
-53.8942
  0
LINE
  8
0
 10
-102.114
 20
-53.8942
 11
-102.185
 21
-53.9653
  0
LINE
  8
0
 10
-102.185
 20
-53.9653
 11
-102.26
 21
-54.0318
  0
LINE
  8
0
 10
-102.26
 20
-54.0318
 11
-102.34
 21
-54.0934
  0
LINE
  8
0
 10
-102.34
 20
-54.0934
 11
-102.423
 21
-54.1499
  0
LINE
  8
0
 10
-102.423
 20
-54.1499
 11
-102.509
 21
-54.201
  0
LINE
  8
0
 10
-102.509
 20
-54.201
 11
-102.599
 21
-54.2467
  0
LINE
  8
0
 10
-102.599
 20
-54.2467
 11
-102.691
 21
-54.2866
  0
LINE
  8
0
 10
-102.691
 20
-54.2866
 11
-102.786
 21
-54.3206
  0
LINE
  8
0
 10
-102.786
 20
-54.3206
 11
-102.882
 21
-54.3487
  0
LINE
  8
0
 10
-102.882
 20
-54.3487
 11
-102.98
 21
-54.3706
  0
LINE
  8
0
 10
-102.98
 20
-54.3706
 11
-103.079
 21
-54.3863
  0
LINE
  8
0
 10
-103.079
 20
-54.3863
 11
-103.18
 21
-54.3958
  0
LINE
  8
0
 10
-103.18
 20
-54.3958
 11
-103.28
 21
-54.399
  0
LINE
  8
0
 10
-103.28
 20
-54.399
 11
-103.38
 21
-54.3958
  0
ENDSEC
  0
SECTION
  2
OBJECTS
  0
DICTIONARY
  0
ENDSEC
  0
EOF
