  0
SECTION
  2
BLOCKS
  0
ENDSEC
  0
SECTION
  2
ENTITIES
  0
LINE
  8
0
 10
-47.8043
 20
-77.9174
 11
-47.6796
 21
-77.9016
  0
LINE
  8
0
 10
-47.6796
 20
-77.9016
 11
-47.5562
 21
-77.8781
  0
LINE
  8
0
 10
-47.5562
 20
-77.8781
 11
-47.4345
 21
-77.8468
  0
LINE
  8
0
 10
-47.4345
 20
-77.8468
 11
-47.315
 21
-77.808
  0
LINE
  8
0
 10
-47.315
 20
-77.808
 11
-47.1982
 21
-77.7618
  0
LINE
  8
0
 10
-47.1982
 20
-77.7618
 11
-47.0845
 21
-77.7083
  0
LINE
  8
0
 10
-47.0845
 20
-77.7083
 11
-46.9744
 21
-77.6477
  0
LINE
  8
0
 10
-46.9744
 20
-77.6477
 11
-46.8683
 21
-77.5804
  0
LINE
  8
0
 10
-46.8683
 20
-77.5804
 11
-46.7667
 21
-77.5066
  0
LINE
  8
0
 10
-46.7667
 20
-77.5066
 11
-46.6699
 21
-77.4265
  0
LINE
  8
0
 10
-46.6699
 20
-77.4265
 11
-46.5783
 21
-77.3405
  0
LINE
  8
0
 10
-46.5783
 20
-77.3405
 11
-34.982
 21
-65.7442
  0
LINE
  8
0
 10
-34.982
 20
-65.7442
 11
-31.9899
 21
-62.9344
  0
LINE
  8
0
 10
-31.9899
 20
-62.9344
 11
-28.9232
 21
-60.3974
  0
LINE
  8
0
 10
-28.9232
 20
-60.3974
 11
-25.7042
 21
-58.0587
  0
LINE
  8
0
 10
-25.7042
 20
-58.0587
 11
-22.3442
 21
-55.9263
  0
LINE
  8
0
 10
-22.3442
 20
-55.9263
 11
-18.8567
 21
-54.0091
  0
LINE
  8
0
 10
-18.8567
 20
-54.0091
 11
-15.2562
 21
-52.3148
  0
LINE
  8
0
 10
-15.2562
 20
-52.3148
 11
-11.5561
 21
-50.8499
  0
LINE
  8
0
 10
-11.5561
 20
-50.8499
 11
-7.77149
 21
-49.6202
  0
LINE
  8
0
 10
-7.77149
 20
-49.6202
 11
-3.91677
 21
-48.6304
  0
LINE
  8
0
 10
-3.91677
 20
-48.6304
 11
-0.00795593
 21
-47.8848
  0
LINE
  8
0
 10
-0.00795593
 20
-47.8848
 11
3.94003
 21
-47.386
  0
LINE
  8
0
 10
3.94003
 20
-47.386
 11
7.91161
 21
-47.1362
  0
LINE
  8
0
 10
7.91161
 20
-47.1362
 11
11.0104
 21
-47.1362
  0
LINE
  8
0
 10
11.0104
 20
-47.1362
 11
11.1359
 21
-47.1322
  0
LINE
  8
0
 10
11.1359
 20
-47.1322
 11
11.261
 21
-47.1204
  0
LINE
  8
0
 10
11.261
 20
-47.1204
 11
11.3838
 21
-47.101
  0
LINE
  8
0
 10
11.3838
 20
-47.101
 11
45.4765
 21
-47.101
  0
LINE
  8
0
 10
45.4765
 20
-47.101
 11
45.6021
 21
-47.097
  0
LINE
  8
0
 10
45.6021
 20
-47.097
 11
45.7272
 21
-47.0852
  0
LINE
  8
0
 10
45.7272
 20
-47.0852
 11
45.8513
 21
-47.0655
  0
LINE
  8
0
 10
45.8513
 20
-47.0655
 11
45.9739
 21
-47.0381
  0
LINE
  8
0
 10
45.9739
 20
-47.0381
 11
46.0945
 21
-47.0031
  0
LINE
  8
0
 10
46.0945
 20
-47.0031
 11
46.2128
 21
-46.9605
  0
LINE
  8
0
 10
46.2128
 20
-46.9605
 11
46.3281
 21
-46.9106
  0
LINE
  8
0
 10
46.3281
 20
-46.9106
 11
46.44
 21
-46.8536
  0
LINE
  8
0
 10
46.44
 20
-46.8536
 11
46.5482
 21
-46.7896
  0
LINE
  8
0
 10
46.5482
 20
-46.7896
 11
46.6521
 21
-46.719
  0
LINE
  8
0
 10
46.6521
 20
-46.719
 11
46.7514
 21
-46.642
  0
LINE
  8
0
 10
46.7514
 20
-46.642
 11
46.8456
 21
-46.5589
  0
LINE
  8
0
 10
46.8456
 20
-46.5589
 11
46.9344
 21
-46.4701
  0
LINE
  8
0
 10
46.9344
 20
-46.4701
 11
47.0175
 21
-46.3758
  0
LINE
  8
0
 10
47.0175
 20
-46.3758
 11
47.0945
 21
-46.2765
  0
LINE
  8
0
 10
47.0945
 20
-46.2765
 11
47.1652
 21
-46.1726
  0
LINE
  8
0
 10
47.1652
 20
-46.1726
 11
47.2291
 21
-46.0645
  0
LINE
  8
0
 10
47.2291
 20
-46.0645
 11
47.2862
 21
-45.9525
  0
LINE
  8
0
 10
47.2862
 20
-45.9525
 11
47.3361
 21
-45.8372
  0
LINE
  8
0
 10
47.3361
 20
-45.8372
 11
47.3786
 21
-45.719
  0
LINE
  8
0
 10
47.3786
 20
-45.719
 11
47.4137
 21
-45.5983
  0
LINE
  8
0
 10
47.4137
 20
-45.5983
 11
47.4411
 21
-45.4757
  0
LINE
  8
0
 10
47.4411
 20
-45.4757
 11
47.4607
 21
-45.3516
  0
LINE
  8
0
 10
47.4607
 20
-45.3516
 11
47.4726
 21
-45.2265
  0
LINE
  8
0
 10
47.4726
 20
-45.2265
 11
47.4765
 21
-45.101
  0
LINE
  8
0
 10
47.4765
 20
-45.101
 11
47.4765
 21
-39.531
  0
LINE
  8
0
 10
47.4765
 20
-39.531
 11
69.9375
 21
-39.531
  0
LINE
  8
0
 10
69.9375
 20
-39.531
 11
70.0631
 21
-39.527
  0
LINE
  8
0
 10
70.0631
 20
-39.527
 11
70.1882
 21
-39.5152
  0
LINE
  8
0
 10
70.1882
 20
-39.5152
 11
70.3122
 21
-39.4955
  0
LINE
  8
0
 10
70.3122
 20
-39.4955
 11
70.4349
 21
-39.4681
  0
LINE
  8
0
 10
70.4349
 20
-39.4681
 11
70.5555
 21
-39.4331
  0
LINE
  8
0
 10
70.5555
 20
-39.4331
 11
70.6737
 21
-39.3905
  0
LINE
  8
0
 10
70.6737
 20
-39.3905
 11
70.7891
 21
-39.3406
  0
LINE
  8
0
 10
70.7891
 20
-39.3406
 11
70.901
 21
-39.2836
  0
LINE
  8
0
 10
70.901
 20
-39.2836
 11
71.0091
 21
-39.2196
  0
LINE
  8
0
 10
71.0091
 20
-39.2196
 11
71.1131
 21
-39.149
  0
LINE
  8
0
 10
71.1131
 20
-39.149
 11
71.2123
 21
-39.072
  0
LINE
  8
0
 10
71.2123
 20
-39.072
 11
71.3066
 21
-38.9889
  0
LINE
  8
0
 10
71.3066
 20
-38.9889
 11
71.3954
 21
-38.9001
  0
LINE
  8
0
 10
71.3954
 20
-38.9001
 11
71.4785
 21
-38.8058
  0
LINE
  8
0
 10
71.4785
 20
-38.8058
 11
71.5555
 21
-38.7065
  0
LINE
  8
0
 10
71.5555
 20
-38.7065
 11
71.6262
 21
-38.6026
  0
LINE
  8
0
 10
71.6262
 20
-38.6026
 11
71.6901
 21
-38.4945
  0
LINE
  8
0
 10
71.6901
 20
-38.4945
 11
71.7471
 21
-38.3825
  0
LINE
  8
0
 10
71.7471
 20
-38.3825
 11
71.7971
 21
-38.2672
  0
LINE
  8
0
 10
71.7971
 20
-38.2672
 11
71.8396
 21
-38.149
  0
LINE
  8
0
 10
71.8396
 20
-38.149
 11
71.8747
 21
-38.0283
  0
LINE
  8
0
 10
71.8747
 20
-38.0283
 11
71.9021
 21
-37.9057
  0
LINE
  8
0
 10
71.9021
 20
-37.9057
 11
71.9217
 21
-37.7816
  0
LINE
  8
0
 10
71.9217
 20
-37.7816
 11
71.9335
 21
-37.6566
  0
LINE
  8
0
 10
71.9335
 20
-37.6566
 11
71.9375
 21
-37.531
  0
LINE
  8
0
 10
71.9375
 20
-37.531
 11
71.9375
 21
41.2079
  0
LINE
  8
0
 10
71.9375
 20
41.2079
 11
71.9335
 21
41.3335
  0
LINE
  8
0
 10
71.9335
 20
41.3335
 11
71.9217
 21
41.4586
  0
LINE
  8
0
 10
71.9217
 20
41.4586
 11
71.9021
 21
41.5827
  0
LINE
  8
0
 10
71.9021
 20
41.5827
 11
71.8747
 21
41.7053
  0
LINE
  8
0
 10
71.8747
 20
41.7053
 11
71.8396
 21
41.8259
  0
LINE
  8
0
 10
71.8396
 20
41.8259
 11
71.7971
 21
41.9442
  0
LINE
  8
0
 10
71.7971
 20
41.9442
 11
71.7471
 21
42.0595
  0
LINE
  8
0
 10
71.7471
 20
42.0595
 11
71.6901
 21
42.1714
  0
LINE
  8
0
 10
71.6901
 20
42.1714
 11
71.6262
 21
42.2796
  0
LINE
  8
0
 10
71.6262
 20
42.2796
 11
71.5555
 21
42.3835
  0
LINE
  8
0
 10
71.5555
 20
42.3835
 11
71.4785
 21
42.4828
  0
LINE
  8
0
 10
71.4785
 20
42.4828
 11
71.3954
 21
42.577
  0
LINE
  8
0
 10
71.3954
 20
42.577
 11
71.3066
 21
42.6659
  0
LINE
  8
0
 10
71.3066
 20
42.6659
 11
71.2123
 21
42.7489
  0
LINE
  8
0
 10
71.2123
 20
42.7489
 11
71.1131
 21
42.8259
  0
LINE
  8
0
 10
71.1131
 20
42.8259
 11
71.0091
 21
42.8966
  0
LINE
  8
0
 10
71.0091
 20
42.8966
 11
70.901
 21
42.9605
  0
LINE
  8
0
 10
70.901
 20
42.9605
 11
70.7891
 21
43.0176
  0
LINE
  8
0
 10
70.7891
 20
43.0176
 11
70.6737
 21
43.0675
  0
LINE
  8
0
 10
70.6737
 20
43.0675
 11
70.615
 21
43.0897
  0
LINE
  8
0
 10
70.615
 20
43.0897
 11
60.9824
 21
46.5576
  0
LINE
  8
0
 10
60.9824
 20
46.5576
 11
60.8629
 21
46.5964
  0
LINE
  8
0
 10
60.8629
 20
46.5964
 11
51.023
 21
49.4552
  0
LINE
  8
0
 10
51.023
 20
49.4552
 11
50.9013
 21
49.4864
  0
LINE
  8
0
 10
50.9013
 20
49.4864
 11
40.9014
 21
51.7217
  0
LINE
  8
0
 10
40.9014
 20
51.7217
 11
40.7779
 21
51.7452
  0
LINE
  8
0
 10
40.7779
 20
51.7452
 11
30.6573
 21
53.3482
  0
LINE
  8
0
 10
30.6573
 20
53.3482
 11
30.5327
 21
53.3639
  0
LINE
  8
0
 10
30.5327
 20
53.3639
 11
20.3314
 21
54.3282
  0
LINE
  8
0
 10
20.3314
 20
54.3282
 11
20.206
 21
54.3361
  0
LINE
  8
0
 10
20.206
 20
54.3361
 11
9.96433
 21
54.658
  0
LINE
  8
0
 10
9.96433
 20
54.658
 11
9.83869
 21
54.658
  0
LINE
  8
0
 10
9.83869
 20
54.658
 11
-0.403006
 21
54.3361
  0
LINE
  8
0
 10
-0.403006
 20
54.3361
 11
-0.528403
 21
54.3282
  0
LINE
  8
0
 10
-0.528403
 20
54.3282
 11
-10.7297
 21
53.3639
  0
LINE
  8
0
 10
-10.7297
 20
53.3639
 11
-10.8543
 21
53.3482
  0
LINE
  8
0
 10
-10.8543
 20
53.3482
 11
-20.9749
 21
51.7452
  0
LINE
  8
0
 10
-20.9749
 20
51.7452
 11
-21.0984
 21
51.7217
  0
LINE
  8
0
 10
-21.0984
 20
51.7217
 11
-31.0983
 21
49.4864
  0
LINE
  8
0
 10
-31.0983
 20
49.4864
 11
-31.22
 21
49.4552
  0
LINE
  8
0
 10
-31.22
 20
49.4552
 11
-41.0599
 21
46.5964
  0
LINE
  8
0
 10
-41.0599
 20
46.5964
 11
-41.1794
 21
46.5576
  0
LINE
  8
0
 10
-41.1794
 20
46.5576
 11
-50.8204
 21
43.0866
  0
LINE
  8
0
 10
-50.8204
 20
43.0866
 11
-50.9372
 21
43.0404
  0
LINE
  8
0
 10
-50.9372
 20
43.0404
 11
-60.3412
 21
38.9709
  0
LINE
  8
0
 10
-60.3412
 20
38.9709
 11
-60.4549
 21
38.9174
  0
LINE
  8
0
 10
-60.4549
 20
38.9174
 11
-70.8455
 21
33.6232
  0
LINE
  8
0
 10
-70.8455
 20
33.6232
 11
-70.9556
 21
33.5627
  0
LINE
  8
0
 10
-70.9556
 20
33.5627
 11
-71.0617
 21
33.4953
  0
LINE
  8
0
 10
-71.0617
 20
33.4953
 11
-71.1633
 21
33.4215
  0
LINE
  8
0
 10
-71.1633
 20
33.4215
 11
-71.2601
 21
33.3414
  0
LINE
  8
0
 10
-71.2601
 20
33.3414
 11
-71.3517
 21
33.2554
  0
LINE
  8
0
 10
-71.3517
 20
33.2554
 11
-71.4377
 21
33.1638
  0
LINE
  8
0
 10
-71.4377
 20
33.1638
 11
-71.5178
 21
33.067
  0
LINE
  8
0
 10
-71.5178
 20
33.067
 11
-71.5917
 21
32.9654
  0
LINE
  8
0
 10
-71.5917
 20
32.9654
 11
-71.659
 21
32.8593
  0
LINE
  8
0
 10
-71.659
 20
32.8593
 11
-71.7195
 21
32.7492
  0
LINE
  8
0
 10
-71.7195
 20
32.7492
 11
-71.773
 21
32.6355
  0
LINE
  8
0
 10
-71.773
 20
32.6355
 11
-71.8193
 21
32.5186
  0
LINE
  8
0
 10
-71.8193
 20
32.5186
 11
-71.8581
 21
32.3992
  0
LINE
  8
0
 10
-71.8581
 20
32.3992
 11
-71.8893
 21
32.2775
  0
LINE
  8
0
 10
-71.8893
 20
32.2775
 11
-71.9129
 21
32.154
  0
LINE
  8
0
 10
-71.9129
 20
32.154
 11
-71.9286
 21
32.0294
  0
LINE
  8
0
 10
-71.9286
 20
32.0294
 11
-71.9365
 21
31.904
  0
LINE
  8
0
 10
-71.9365
 20
31.904
 11
-71.9375
 21
31.8412
  0
LINE
  8
0
 10
-71.9375
 20
31.8412
 11
-71.9375
 21
-23.3623
  0
LINE
  8
0
 10
-71.9375
 20
-23.3623
 11
-86.247
 21
-37.6718
  0
LINE
  8
0
 10
-86.247
 20
-37.6718
 11
-86.333
 21
-37.7634
  0
LINE
  8
0
 10
-86.333
 20
-37.7634
 11
-86.4131
 21
-37.8602
  0
LINE
  8
0
 10
-86.4131
 20
-37.8602
 11
-86.4869
 21
-37.9618
  0
LINE
  8
0
 10
-86.4869
 20
-37.9618
 11
-86.5542
 21
-38.0679
  0
LINE
  8
0
 10
-86.5542
 20
-38.0679
 11
-86.6148
 21
-38.178
  0
LINE
  8
0
 10
-86.6148
 20
-38.178
 11
-86.6683
 21
-38.2917
  0
LINE
  8
0
 10
-86.6683
 20
-38.2917
 11
-86.7145
 21
-38.4085
  0
LINE
  8
0
 10
-86.7145
 20
-38.4085
 11
-86.7533
 21
-38.528
  0
LINE
  8
0
 10
-86.7533
 20
-38.528
 11
-86.7846
 21
-38.6497
  0
LINE
  8
0
 10
-86.7846
 20
-38.6497
 11
-86.8081
 21
-38.7731
  0
LINE
  8
0
 10
-86.8081
 20
-38.7731
 11
-86.8239
 21
-38.8978
  0
LINE
  8
0
 10
-86.8239
 20
-38.8978
 11
-86.8318
 21
-39.0232
  0
LINE
  8
0
 10
-86.8318
 20
-39.0232
 11
-86.8318
 21
-39.1488
  0
LINE
  8
0
 10
-86.8318
 20
-39.1488
 11
-86.8239
 21
-39.2742
  0
LINE
  8
0
 10
-86.8239
 20
-39.2742
 11
-86.8081
 21
-39.3989
  0
LINE
  8
0
 10
-86.8081
 20
-39.3989
 11
-86.7846
 21
-39.5223
  0
LINE
  8
0
 10
-86.7846
 20
-39.5223
 11
-86.7533
 21
-39.644
  0
LINE
  8
0
 10
-86.7533
 20
-39.644
 11
-86.7145
 21
-39.7635
  0
LINE
  8
0
 10
-86.7145
 20
-39.7635
 11
-86.6683
 21
-39.8803
  0
LINE
  8
0
 10
-86.6683
 20
-39.8803
 11
-86.6148
 21
-39.994
  0
LINE
  8
0
 10
-86.6148
 20
-39.994
 11
-86.5542
 21
-40.1041
  0
LINE
  8
0
 10
-86.5542
 20
-40.1041
 11
-86.4869
 21
-40.2102
  0
LINE
  8
0
 10
-86.4869
 20
-40.2102
 11
-86.4131
 21
-40.3118
  0
LINE
  8
0
 10
-86.4131
 20
-40.3118
 11
-86.333
 21
-40.4086
  0
LINE
  8
0
 10
-86.333
 20
-40.4086
 11
-86.247
 21
-40.5002
  0
LINE
  8
0
 10
-86.247
 20
-40.5002
 11
-49.4067
 21
-77.3405
  0
LINE
  8
0
 10
-49.4067
 20
-77.3405
 11
-49.3151
 21
-77.4265
  0
LINE
  8
0
 10
-49.3151
 20
-77.4265
 11
-49.2183
 21
-77.5066
  0
LINE
  8
0
 10
-49.2183
 20
-77.5066
 11
-49.1167
 21
-77.5804
  0
LINE
  8
0
 10
-49.1167
 20
-77.5804
 11
-49.0106
 21
-77.6477
  0
LINE
  8
0
 10
-49.0106
 20
-77.6477
 11
-48.9005
 21
-77.7083
  0
LINE
  8
0
 10
-48.9005
 20
-77.7083
 11
-48.7868
 21
-77.7618
  0
LINE
  8
0
 10
-48.7868
 20
-77.7618
 11
-48.67
 21
-77.808
  0
LINE
  8
0
 10
-48.67
 20
-77.808
 11
-48.5505
 21
-77.8468
  0
LINE
  8
0
 10
-48.5505
 20
-77.8468
 11
-48.4288
 21
-77.8781
  0
LINE
  8
0
 10
-48.4288
 20
-77.8781
 11
-48.3054
 21
-77.9016
  0
LINE
  8
0
 10
-48.3054
 20
-77.9016
 11
-48.1807
 21
-77.9174
  0
LINE
  8
0
 10
-48.1807
 20
-77.9174
 11
-48.0553
 21
-77.9253
  0
LINE
  8
0
 10
-48.0553
 20
-77.9253
 11
-47.9297
 21
-77.9253
  0
LINE
  8
0
 10
-47.9297
 20
-77.9253
 11
-47.8043
 21
-77.9174
  0
LINE
  8
0
 10
2.75514
 20
49.505
 11
2.66131
 21
49.5139
  0
LINE
  8
0
 10
2.66131
 20
49.5139
 11
2.56825
 21
49.5286
  0
LINE
  8
0
 10
2.56825
 20
49.5286
 11
2.47628
 21
49.5492
  0
LINE
  8
0
 10
2.47628
 20
49.5492
 11
2.38578
 21
49.5755
  0
LINE
  8
0
 10
2.38578
 20
49.5755
 11
2.29713
 21
49.6074
  0
LINE
  8
0
 10
2.29713
 20
49.6074
 11
2.21064
 21
49.6448
  0
LINE
  8
0
 10
2.21064
 20
49.6448
 11
2.12669
 21
49.6876
  0
LINE
  8
0
 10
2.12669
 20
49.6876
 11
2.04557
 21
49.7356
  0
LINE
  8
0
 10
2.04557
 20
49.7356
 11
1.96763
 21
49.7885
  0
LINE
  8
0
 10
1.96763
 20
49.7885
 11
1.89318
 21
49.8463
  0
LINE
  8
0
 10
1.89318
 20
49.8463
 11
1.82249
 21
49.9086
  0
LINE
  8
0
 10
1.82249
 20
49.9086
 11
1.75587
 21
49.9753
  0
LINE
  8
0
 10
1.75587
 20
49.9753
 11
1.69355
 21
50.0459
  0
LINE
  8
0
 10
1.69355
 20
50.0459
 11
1.63578
 21
50.1204
  0
LINE
  8
0
 10
1.63578
 20
50.1204
 11
1.58282
 21
50.1983
  0
LINE
  8
0
 10
1.58282
 20
50.1983
 11
1.53486
 21
50.2794
  0
LINE
  8
0
 10
1.53486
 20
50.2794
 11
1.49207
 21
50.3634
  0
LINE
  8
0
 10
1.49207
 20
50.3634
 11
1.45464
 21
50.4499
  0
LINE
  8
0
 10
1.45464
 20
50.4499
 11
1.42272
 21
50.5385
  0
LINE
  8
0
 10
1.42272
 20
50.5385
 11
1.39643
 21
50.629
  0
LINE
  8
0
 10
1.39643
 20
50.629
 11
1.37588
 21
50.721
  0
LINE
  8
0
 10
1.37588
 20
50.721
 11
1.36114
 21
50.8141
  0
LINE
  8
0
 10
1.36114
 20
50.8141
 11
1.35227
 21
50.9079
  0
LINE
  8
0
 10
1.35227
 20
50.9079
 11
1.34931
 21
51.0021
  0
LINE
  8
0
 10
1.34931
 20
51.0021
 11
1.35227
 21
51.0963
  0
LINE
  8
0
 10
1.35227
 20
51.0963
 11
1.36114
 21
51.1901
  0
LINE
  8
0
 10
1.36114
 20
51.1901
 11
1.37588
 21
51.2831
  0
LINE
  8
0
 10
1.37588
 20
51.2831
 11
1.39643
 21
51.3751
  0
LINE
  8
0
 10
1.39643
 20
51.3751
 11
1.42272
 21
51.4656
  0
LINE
  8
0
 10
1.42272
 20
51.4656
 11
1.45464
 21
51.5542
  0
LINE
  8
0
 10
1.45464
 20
51.5542
 11
1.49207
 21
51.6407
  0
LINE
  8
0
 10
1.49207
 20
51.6407
 11
1.53486
 21
51.7247
  0
LINE
  8
0
 10
1.53486
 20
51.7247
 11
1.58282
 21
51.8058
  0
LINE
  8
0
 10
1.58282
 20
51.8058
 11
1.63578
 21
51.8837
  0
LINE
  8
0
 10
1.63578
 20
51.8837
 11
1.69355
 21
51.9582
  0
LINE
  8
0
 10
1.69355
 20
51.9582
 11
1.75587
 21
52.0289
  0
LINE
  8
0
 10
1.75587
 20
52.0289
 11
1.82249
 21
52.0955
  0
LINE
  8
0
 10
1.82249
 20
52.0955
 11
1.89318
 21
52.1578
  0
LINE
  8
0
 10
1.89318
 20
52.1578
 11
1.96763
 21
52.2156
  0
LINE
  8
0
 10
1.96763
 20
52.2156
 11
2.04557
 21
52.2686
  0
LINE
  8
0
 10
2.04557
 20
52.2686
 11
2.12669
 21
52.3165
  0
LINE
  8
0
 10
2.12669
 20
52.3165
 11
2.21064
 21
52.3593
  0
LINE
  8
0
 10
2.21064
 20
52.3593
 11
2.29713
 21
52.3967
  0
LINE
  8
0
 10
2.29713
 20
52.3967
 11
2.38578
 21
52.4287
  0
LINE
  8
0
 10
2.38578
 20
52.4287
 11
2.47628
 21
52.4549
  0
LINE
  8
0
 10
2.47628
 20
52.4549
 11
2.56825
 21
52.4755
  0
LINE
  8
0
 10
2.56825
 20
52.4755
 11
2.66131
 21
52.4902
  0
LINE
  8
0
 10
2.66131
 20
52.4902
 11
2.75514
 21
52.4991
  0
LINE
  8
0
 10
2.75514
 20
52.4991
 11
2.84931
 21
52.5021
  0
LINE
  8
0
 10
2.84931
 20
52.5021
 11
2.94351
 21
52.4991
  0
LINE
  8
0
 10
2.94351
 20
52.4991
 11
3.03732
 21
52.4902
  0
LINE
  8
0
 10
3.03732
 20
52.4902
 11
3.13038
 21
52.4755
  0
LINE
  8
0
 10
3.13038
 20
52.4755
 11
3.22234
 21
52.4549
  0
LINE
  8
0
 10
3.22234
 20
52.4549
 11
3.31284
 21
52.4287
  0
LINE
  8
0
 10
3.31284
 20
52.4287
 11
3.4015
 21
52.3967
  0
LINE
  8
0
 10
3.4015
 20
52.3967
 11
3.48799
 21
52.3593
  0
LINE
  8
0
 10
3.48799
 20
52.3593
 11
3.57194
 21
52.3165
  0
LINE
  8
0
 10
3.57194
 20
52.3165
 11
3.65305
 21
52.2686
  0
LINE
  8
0
 10
3.65305
 20
52.2686
 11
3.731
 21
52.2156
  0
LINE
  8
0
 10
3.731
 20
52.2156
 11
3.80544
 21
52.1578
  0
LINE
  8
0
 10
3.80544
 20
52.1578
 11
3.87614
 21
52.0955
  0
LINE
  8
0
 10
3.87614
 20
52.0955
 11
3.94277
 21
52.0289
  0
LINE
  8
0
 10
3.94277
 20
52.0289
 11
4.00509
 21
51.9582
  0
LINE
  8
0
 10
4.00509
 20
51.9582
 11
4.06284
 21
51.8837
  0
LINE
  8
0
 10
4.06284
 20
51.8837
 11
4.11581
 21
51.8058
  0
LINE
  8
0
 10
4.11581
 20
51.8058
 11
4.16378
 21
51.7247
  0
LINE
  8
0
 10
4.16378
 20
51.7247
 11
4.20655
 21
51.6407
  0
LINE
  8
0
 10
4.20655
 20
51.6407
 11
4.24398
 21
51.5542
  0
LINE
  8
0
 10
4.24398
 20
51.5542
 11
4.2759
 21
51.4656
  0
LINE
  8
0
 10
4.2759
 20
51.4656
 11
4.30219
 21
51.3751
  0
LINE
  8
0
 10
4.30219
 20
51.3751
 11
4.32275
 21
51.2831
  0
LINE
  8
0
 10
4.32275
 20
51.2831
 11
4.33749
 21
51.1901
  0
LINE
  8
0
 10
4.33749
 20
51.1901
 11
4.34635
 21
51.0963
  0
LINE
  8
0
 10
4.34635
 20
51.0963
 11
4.34931
 21
51.0021
  0
LINE
  8
0
 10
4.34931
 20
51.0021
 11
4.34635
 21
50.9079
  0
LINE
  8
0
 10
4.34635
 20
50.9079
 11
4.33749
 21
50.8141
  0
LINE
  8
0
 10
4.33749
 20
50.8141
 11
4.32275
 21
50.721
  0
LINE
  8
0
 10
4.32275
 20
50.721
 11
4.30219
 21
50.629
  0
LINE
  8
0
 10
4.30219
 20
50.629
 11
4.2759
 21
50.5385
  0
LINE
  8
0
 10
4.2759
 20
50.5385
 11
4.24398
 21
50.4499
  0
LINE
  8
0
 10
4.24398
 20
50.4499
 11
4.20655
 21
50.3634
  0
LINE
  8
0
 10
4.20655
 20
50.3634
 11
4.16378
 21
50.2794
  0
LINE
  8
0
 10
4.16378
 20
50.2794
 11
4.11581
 21
50.1983
  0
LINE
  8
0
 10
4.11581
 20
50.1983
 11
4.06284
 21
50.1204
  0
LINE
  8
0
 10
4.06284
 20
50.1204
 11
4.00509
 21
50.0459
  0
LINE
  8
0
 10
4.00509
 20
50.0459
 11
3.94277
 21
49.9753
  0
LINE
  8
0
 10
3.94277
 20
49.9753
 11
3.87614
 21
49.9086
  0
LINE
  8
0
 10
3.87614
 20
49.9086
 11
3.80544
 21
49.8463
  0
LINE
  8
0
 10
3.80544
 20
49.8463
 11
3.731
 21
49.7885
  0
LINE
  8
0
 10
3.731
 20
49.7885
 11
3.65305
 21
49.7356
  0
LINE
  8
0
 10
3.65305
 20
49.7356
 11
3.57194
 21
49.6876
  0
LINE
  8
0
 10
3.57194
 20
49.6876
 11
3.48799
 21
49.6448
  0
LINE
  8
0
 10
3.48799
 20
49.6448
 11
3.4015
 21
49.6074
  0
LINE
  8
0
 10
3.4015
 20
49.6074
 11
3.31284
 21
49.5755
  0
LINE
  8
0
 10
3.31284
 20
49.5755
 11
3.22234
 21
49.5492
  0
LINE
  8
0
 10
3.22234
 20
49.5492
 11
3.13038
 21
49.5286
  0
LINE
  8
0
 10
3.13038
 20
49.5286
 11
3.03732
 21
49.5139
  0
LINE
  8
0
 10
3.03732
 20
49.5139
 11
2.94351
 21
49.505
  0
LINE
  8
0
 10
2.94351
 20
49.505
 11
2.84931
 21
49.5021
  0
LINE
  8
0
 10
2.84931
 20
49.5021
 11
2.75514
 21
49.505
  0
LINE
  8
0
 10
36.077
 20
46.9549
 11
35.9488
 21
46.9671
  0
LINE
  8
0
 10
35.9488
 20
46.9671
 11
35.8216
 21
46.9872
  0
LINE
  8
0
 10
35.8216
 20
46.9872
 11
35.6959
 21
47.0153
  0
LINE
  8
0
 10
35.6959
 20
47.0153
 11
35.5723
 21
47.0512
  0
LINE
  8
0
 10
35.5723
 20
47.0512
 11
35.4511
 21
47.0949
  0
LINE
  8
0
 10
35.4511
 20
47.0949
 11
35.3329
 21
47.146
  0
LINE
  8
0
 10
35.3329
 20
47.146
 11
35.2182
 21
47.2045
  0
LINE
  8
0
 10
35.2182
 20
47.2045
 11
35.1073
 21
47.27
  0
LINE
  8
0
 10
35.1073
 20
47.27
 11
35.0008
 21
47.3424
  0
LINE
  8
0
 10
35.0008
 20
47.3424
 11
34.899
 21
47.4213
  0
LINE
  8
0
 10
34.899
 20
47.4213
 11
34.8024
 21
47.5065
  0
LINE
  8
0
 10
34.8024
 20
47.5065
 11
34.7114
 21
47.5976
  0
LINE
  8
0
 10
34.7114
 20
47.5976
 11
34.6262
 21
47.6942
  0
LINE
  8
0
 10
34.6262
 20
47.6942
 11
34.5473
 21
47.7959
  0
LINE
  8
0
 10
34.5473
 20
47.7959
 11
34.4749
 21
47.9025
  0
LINE
  8
0
 10
34.4749
 20
47.9025
 11
34.4093
 21
48.0133
  0
LINE
  8
0
 10
34.4093
 20
48.0133
 11
34.3509
 21
48.1281
  0
LINE
  8
0
 10
34.3509
 20
48.1281
 11
34.2997
 21
48.2462
  0
LINE
  8
0
 10
34.2997
 20
48.2462
 11
34.2561
 21
48.3674
  0
LINE
  8
0
 10
34.2561
 20
48.3674
 11
34.2202
 21
48.4911
  0
LINE
  8
0
 10
34.2202
 20
48.4911
 11
34.1921
 21
48.6168
  0
LINE
  8
0
 10
34.1921
 20
48.6168
 11
34.1719
 21
48.744
  0
LINE
  8
0
 10
34.1719
 20
48.744
 11
34.1598
 21
48.8722
  0
LINE
  8
0
 10
34.1598
 20
48.8722
 11
34.1558
 21
49.0009
  0
LINE
  8
0
 10
34.1558
 20
49.0009
 11
34.1598
 21
49.1296
  0
LINE
  8
0
 10
34.1598
 20
49.1296
 11
34.1719
 21
49.2578
  0
LINE
  8
0
 10
34.1719
 20
49.2578
 11
34.1921
 21
49.385
  0
LINE
  8
0
 10
34.1921
 20
49.385
 11
34.2202
 21
49.5107
  0
LINE
  8
0
 10
34.2202
 20
49.5107
 11
34.2561
 21
49.6344
  0
LINE
  8
0
 10
34.2561
 20
49.6344
 11
34.2997
 21
49.7556
  0
LINE
  8
0
 10
34.2997
 20
49.7556
 11
34.3509
 21
49.8738
  0
LINE
  8
0
 10
34.3509
 20
49.8738
 11
34.4093
 21
49.9885
  0
LINE
  8
0
 10
34.4093
 20
49.9885
 11
34.4749
 21
50.0994
  0
LINE
  8
0
 10
34.4749
 20
50.0994
 11
34.5473
 21
50.2059
  0
LINE
  8
0
 10
34.5473
 20
50.2059
 11
34.6262
 21
50.3076
  0
LINE
  8
0
 10
34.6262
 20
50.3076
 11
34.7114
 21
50.4042
  0
LINE
  8
0
 10
34.7114
 20
50.4042
 11
34.8024
 21
50.4953
  0
LINE
  8
0
 10
34.8024
 20
50.4953
 11
34.899
 21
50.5804
  0
LINE
  8
0
 10
34.899
 20
50.5804
 11
35.0008
 21
50.6594
  0
LINE
  8
0
 10
35.0008
 20
50.6594
 11
35.1073
 21
50.7318
  0
LINE
  8
0
 10
35.1073
 20
50.7318
 11
35.2182
 21
50.7973
  0
LINE
  8
0
 10
35.2182
 20
50.7973
 11
35.3329
 21
50.8558
  0
LINE
  8
0
 10
35.3329
 20
50.8558
 11
35.4511
 21
50.9069
  0
LINE
  8
0
 10
35.4511
 20
50.9069
 11
35.5723
 21
50.9506
  0
LINE
  8
0
 10
35.5723
 20
50.9506
 11
35.6959
 21
50.9865
  0
LINE
  8
0
 10
35.6959
 20
50.9865
 11
35.8216
 21
51.0146
  0
LINE
  8
0
 10
35.8216
 20
51.0146
 11
35.9488
 21
51.0347
  0
LINE
  8
0
 10
35.9488
 20
51.0347
 11
36.077
 21
51.0469
  0
LINE
  8
0
 10
36.077
 20
51.0469
 11
36.2058
 21
51.0509
  0
LINE
  8
0
 10
36.2058
 20
51.0509
 11
36.3345
 21
51.0469
  0
LINE
  8
0
 10
36.3345
 20
51.0469
 11
36.4627
 21
51.0347
  0
LINE
  8
0
 10
36.4627
 20
51.0347
 11
36.5899
 21
51.0146
  0
LINE
  8
0
 10
36.5899
 20
51.0146
 11
36.7156
 21
50.9865
  0
LINE
  8
0
 10
36.7156
 20
50.9865
 11
36.8392
 21
50.9506
  0
LINE
  8
0
 10
36.8392
 20
50.9506
 11
36.9604
 21
50.9069
  0
LINE
  8
0
 10
36.9604
 20
50.9069
 11
37.0786
 21
50.8558
  0
LINE
  8
0
 10
37.0786
 20
50.8558
 11
37.1934
 21
50.7973
  0
LINE
  8
0
 10
37.1934
 20
50.7973
 11
37.3042
 21
50.7318
  0
LINE
  8
0
 10
37.3042
 20
50.7318
 11
37.4107
 21
50.6594
  0
LINE
  8
0
 10
37.4107
 20
50.6594
 11
37.5125
 21
50.5804
  0
LINE
  8
0
 10
37.5125
 20
50.5804
 11
37.6091
 21
50.4953
  0
LINE
  8
0
 10
37.6091
 20
50.4953
 11
37.7001
 21
50.4042
  0
LINE
  8
0
 10
37.7001
 20
50.4042
 11
37.7853
 21
50.3076
  0
LINE
  8
0
 10
37.7853
 20
50.3076
 11
37.8642
 21
50.2059
  0
LINE
  8
0
 10
37.8642
 20
50.2059
 11
37.9366
 21
50.0994
  0
LINE
  8
0
 10
37.9366
 20
50.0994
 11
38.0022
 21
49.9885
  0
LINE
  8
0
 10
38.0022
 20
49.9885
 11
38.0606
 21
49.8738
  0
LINE
  8
0
 10
38.0606
 20
49.8738
 11
38.1118
 21
49.7556
  0
LINE
  8
0
 10
38.1118
 20
49.7556
 11
38.1554
 21
49.6344
  0
LINE
  8
0
 10
38.1554
 20
49.6344
 11
38.1914
 21
49.5107
  0
LINE
  8
0
 10
38.1914
 20
49.5107
 11
38.2194
 21
49.385
  0
LINE
  8
0
 10
38.2194
 20
49.385
 11
38.2396
 21
49.2578
  0
LINE
  8
0
 10
38.2396
 20
49.2578
 11
38.2517
 21
49.1296
  0
LINE
  8
0
 10
38.2517
 20
49.1296
 11
38.2557
 21
49.0009
  0
LINE
  8
0
 10
38.2557
 20
49.0009
 11
38.2517
 21
48.8722
  0
LINE
  8
0
 10
38.2517
 20
48.8722
 11
38.2396
 21
48.744
  0
LINE
  8
0
 10
38.2396
 20
48.744
 11
38.2194
 21
48.6168
  0
LINE
  8
0
 10
38.2194
 20
48.6168
 11
38.1914
 21
48.4911
  0
LINE
  8
0
 10
38.1914
 20
48.4911
 11
38.1554
 21
48.3674
  0
LINE
  8
0
 10
38.1554
 20
48.3674
 11
38.1118
 21
48.2462
  0
LINE
  8
0
 10
38.1118
 20
48.2462
 11
38.0606
 21
48.1281
  0
LINE
  8
0
 10
38.0606
 20
48.1281
 11
38.0022
 21
48.0133
  0
LINE
  8
0
 10
38.0022
 20
48.0133
 11
37.9366
 21
47.9025
  0
LINE
  8
0
 10
37.9366
 20
47.9025
 11
37.8642
 21
47.7959
  0
LINE
  8
0
 10
37.8642
 20
47.7959
 11
37.7853
 21
47.6942
  0
LINE
  8
0
 10
37.7853
 20
47.6942
 11
37.7001
 21
47.5976
  0
LINE
  8
0
 10
37.7001
 20
47.5976
 11
37.6091
 21
47.5065
  0
LINE
  8
0
 10
37.6091
 20
47.5065
 11
37.5125
 21
47.4213
  0
LINE
  8
0
 10
37.5125
 20
47.4213
 11
37.4107
 21
47.3424
  0
LINE
  8
0
 10
37.4107
 20
47.3424
 11
37.3042
 21
47.27
  0
LINE
  8
0
 10
37.3042
 20
47.27
 11
37.1934
 21
47.2045
  0
LINE
  8
0
 10
37.1934
 20
47.2045
 11
37.0786
 21
47.146
  0
LINE
  8
0
 10
37.0786
 20
47.146
 11
36.9604
 21
47.0949
  0
LINE
  8
0
 10
36.9604
 20
47.0949
 11
36.8392
 21
47.0512
  0
LINE
  8
0
 10
36.8392
 20
47.0512
 11
36.7156
 21
47.0153
  0
LINE
  8
0
 10
36.7156
 20
47.0153
 11
36.5899
 21
46.9872
  0
LINE
  8
0
 10
36.5899
 20
46.9872
 11
36.4627
 21
46.9671
  0
LINE
  8
0
 10
36.4627
 20
46.9671
 11
36.3345
 21
46.9549
  0
LINE
  8
0
 10
36.3345
 20
46.9549
 11
36.2058
 21
46.9509
  0
LINE
  8
0
 10
36.2058
 20
46.9509
 11
36.077
 21
46.9549
  0
LINE
  8
0
 10
-31.3162
 20
43.7993
 11
-31.4444
 21
43.8114
  0
LINE
  8
0
 10
-31.4444
 20
43.8114
 11
-31.5716
 21
43.8315
  0
LINE
  8
0
 10
-31.5716
 20
43.8315
 11
-31.6973
 21
43.8596
  0
LINE
  8
0
 10
-31.6973
 20
43.8596
 11
-31.821
 21
43.8956
  0
LINE
  8
0
 10
-31.821
 20
43.8956
 11
-31.9421
 21
43.9392
  0
LINE
  8
0
 10
-31.9421
 20
43.9392
 11
-32.0603
 21
43.9903
  0
LINE
  8
0
 10
-32.0603
 20
43.9903
 11
-32.1751
 21
44.0488
  0
LINE
  8
0
 10
-32.1751
 20
44.0488
 11
-32.2859
 21
44.1144
  0
LINE
  8
0
 10
-32.2859
 20
44.1144
 11
-32.3924
 21
44.1867
  0
LINE
  8
0
 10
-32.3924
 20
44.1867
 11
-32.4942
 21
44.2657
  0
LINE
  8
0
 10
-32.4942
 20
44.2657
 11
-32.5908
 21
44.3508
  0
LINE
  8
0
 10
-32.5908
 20
44.3508
 11
-32.6819
 21
44.4419
  0
LINE
  8
0
 10
-32.6819
 20
44.4419
 11
-32.7671
 21
44.5385
  0
LINE
  8
0
 10
-32.7671
 20
44.5385
 11
-32.846
 21
44.6403
  0
LINE
  8
0
 10
-32.846
 20
44.6403
 11
-32.9184
 21
44.7468
  0
LINE
  8
0
 10
-32.9184
 20
44.7468
 11
-32.9839
 21
44.8576
  0
LINE
  8
0
 10
-32.9839
 20
44.8576
 11
-33.0424
 21
44.9724
  0
LINE
  8
0
 10
-33.0424
 20
44.9724
 11
-33.0935
 21
45.0906
  0
LINE
  8
0
 10
-33.0935
 20
45.0906
 11
-33.1372
 21
45.2117
  0
LINE
  8
0
 10
-33.1372
 20
45.2117
 11
-33.1731
 21
45.3354
  0
LINE
  8
0
 10
-33.1731
 20
45.3354
 11
-33.2012
 21
45.4611
  0
LINE
  8
0
 10
-33.2012
 20
45.4611
 11
-33.2213
 21
45.5883
  0
LINE
  8
0
 10
-33.2213
 20
45.5883
 11
-33.2335
 21
45.7165
  0
LINE
  8
0
 10
-33.2335
 20
45.7165
 11
-33.2375
 21
45.8452
  0
LINE
  8
0
 10
-33.2375
 20
45.8452
 11
-33.2335
 21
45.9739
  0
LINE
  8
0
 10
-33.2335
 20
45.9739
 11
-33.2213
 21
46.1022
  0
LINE
  8
0
 10
-33.2213
 20
46.1022
 11
-33.2012
 21
46.2294
  0
LINE
  8
0
 10
-33.2012
 20
46.2294
 11
-33.1731
 21
46.355
  0
LINE
  8
0
 10
-33.1731
 20
46.355
 11
-33.1372
 21
46.4787
  0
LINE
  8
0
 10
-33.1372
 20
46.4787
 11
-33.0935
 21
46.5999
  0
LINE
  8
0
 10
-33.0935
 20
46.5999
 11
-33.0424
 21
46.7181
  0
LINE
  8
0
 10
-33.0424
 20
46.7181
 11
-32.9839
 21
46.8328
  0
LINE
  8
0
 10
-32.9839
 20
46.8328
 11
-32.9184
 21
46.9437
  0
LINE
  8
0
 10
-32.9184
 20
46.9437
 11
-32.846
 21
47.0502
  0
LINE
  8
0
 10
-32.846
 20
47.0502
 11
-32.7671
 21
47.1519
  0
LINE
  8
0
 10
-32.7671
 20
47.1519
 11
-32.6819
 21
47.2486
  0
LINE
  8
0
 10
-32.6819
 20
47.2486
 11
-32.5908
 21
47.3396
  0
LINE
  8
0
 10
-32.5908
 20
47.3396
 11
-32.4942
 21
47.4248
  0
LINE
  8
0
 10
-32.4942
 20
47.4248
 11
-32.3924
 21
47.5037
  0
LINE
  8
0
 10
-32.3924
 20
47.5037
 11
-32.2859
 21
47.5761
  0
LINE
  8
0
 10
-32.2859
 20
47.5761
 11
-32.1751
 21
47.6417
  0
LINE
  8
0
 10
-32.1751
 20
47.6417
 11
-32.0603
 21
47.7001
  0
LINE
  8
0
 10
-32.0603
 20
47.7001
 11
-31.9421
 21
47.7513
  0
LINE
  8
0
 10
-31.9421
 20
47.7513
 11
-31.821
 21
47.7949
  0
LINE
  8
0
 10
-31.821
 20
47.7949
 11
-31.6973
 21
47.8308
  0
LINE
  8
0
 10
-31.6973
 20
47.8308
 11
-31.5716
 21
47.8589
  0
LINE
  8
0
 10
-31.5716
 20
47.8589
 11
-31.4444
 21
47.8791
  0
LINE
  8
0
 10
-31.4444
 20
47.8791
 11
-31.3162
 21
47.8912
  0
LINE
  8
0
 10
-31.3162
 20
47.8912
 11
-31.1875
 21
47.8952
  0
LINE
  8
0
 10
-31.1875
 20
47.8952
 11
-31.0588
 21
47.8912
  0
LINE
  8
0
 10
-31.0588
 20
47.8912
 11
-30.9306
 21
47.8791
  0
LINE
  8
0
 10
-30.9306
 20
47.8791
 11
-30.8034
 21
47.8589
  0
LINE
  8
0
 10
-30.8034
 20
47.8589
 11
-30.6777
 21
47.8308
  0
LINE
  8
0
 10
-30.6777
 20
47.8308
 11
-30.554
 21
47.7949
  0
LINE
  8
0
 10
-30.554
 20
47.7949
 11
-30.4328
 21
47.7513
  0
LINE
  8
0
 10
-30.4328
 20
47.7513
 11
-30.3146
 21
47.7001
  0
LINE
  8
0
 10
-30.3146
 20
47.7001
 11
-30.1999
 21
47.6417
  0
LINE
  8
0
 10
-30.1999
 20
47.6417
 11
-30.089
 21
47.5761
  0
LINE
  8
0
 10
-30.089
 20
47.5761
 11
-29.9825
 21
47.5037
  0
LINE
  8
0
 10
-29.9825
 20
47.5037
 11
-29.8808
 21
47.4248
  0
LINE
  8
0
 10
-29.8808
 20
47.4248
 11
-29.7842
 21
47.3396
  0
LINE
  8
0
 10
-29.7842
 20
47.3396
 11
-29.6931
 21
47.2486
  0
LINE
  8
0
 10
-29.6931
 20
47.2486
 11
-29.6079
 21
47.1519
  0
LINE
  8
0
 10
-29.6079
 20
47.1519
 11
-29.529
 21
47.0502
  0
LINE
  8
0
 10
-29.529
 20
47.0502
 11
-29.4566
 21
46.9437
  0
LINE
  8
0
 10
-29.4566
 20
46.9437
 11
-29.3911
 21
46.8328
  0
LINE
  8
0
 10
-29.3911
 20
46.8328
 11
-29.3326
 21
46.7181
  0
LINE
  8
0
 10
-29.3326
 20
46.7181
 11
-29.2815
 21
46.5999
  0
LINE
  8
0
 10
-29.2815
 20
46.5999
 11
-29.2378
 21
46.4787
  0
LINE
  8
0
 10
-29.2378
 20
46.4787
 11
-29.2019
 21
46.355
  0
LINE
  8
0
 10
-29.2019
 20
46.355
 11
-29.1738
 21
46.2294
  0
LINE
  8
0
 10
-29.1738
 20
46.2294
 11
-29.1537
 21
46.1022
  0
LINE
  8
0
 10
-29.1537
 20
46.1022
 11
-29.1415
 21
45.9739
  0
LINE
  8
0
 10
-29.1415
 20
45.9739
 11
-29.1375
 21
45.8452
  0
LINE
  8
0
 10
-29.1375
 20
45.8452
 11
-29.1415
 21
45.7165
  0
LINE
  8
0
 10
-29.1415
 20
45.7165
 11
-29.1537
 21
45.5883
  0
LINE
  8
0
 10
-29.1537
 20
45.5883
 11
-29.1738
 21
45.4611
  0
LINE
  8
0
 10
-29.1738
 20
45.4611
 11
-29.2019
 21
45.3354
  0
LINE
  8
0
 10
-29.2019
 20
45.3354
 11
-29.2378
 21
45.2117
  0
LINE
  8
0
 10
-29.2378
 20
45.2117
 11
-29.2815
 21
45.0906
  0
LINE
  8
0
 10
-29.2815
 20
45.0906
 11
-29.3326
 21
44.9724
  0
LINE
  8
0
 10
-29.3326
 20
44.9724
 11
-29.3911
 21
44.8576
  0
LINE
  8
0
 10
-29.3911
 20
44.8576
 11
-29.4566
 21
44.7468
  0
LINE
  8
0
 10
-29.4566
 20
44.7468
 11
-29.529
 21
44.6403
  0
LINE
  8
0
 10
-29.529
 20
44.6403
 11
-29.6079
 21
44.5385
  0
LINE
  8
0
 10
-29.6079
 20
44.5385
 11
-29.6931
 21
44.4419
  0
LINE
  8
0
 10
-29.6931
 20
44.4419
 11
-29.7842
 21
44.3508
  0
LINE
  8
0
 10
-29.7842
 20
44.3508
 11
-29.8808
 21
44.2657
  0
LINE
  8
0
 10
-29.8808
 20
44.2657
 11
-29.9825
 21
44.1867
  0
LINE
  8
0
 10
-29.9825
 20
44.1867
 11
-30.089
 21
44.1144
  0
LINE
  8
0
 10
-30.089
 20
44.1144
 11
-30.1999
 21
44.0488
  0
LINE
  8
0
 10
-30.1999
 20
44.0488
 11
-30.3146
 21
43.9903
  0
LINE
  8
0
 10
-30.3146
 20
43.9903
 11
-30.4328
 21
43.9392
  0
LINE
  8
0
 10
-30.4328
 20
43.9392
 11
-30.554
 21
43.8956
  0
LINE
  8
0
 10
-30.554
 20
43.8956
 11
-30.6777
 21
43.8596
  0
LINE
  8
0
 10
-30.6777
 20
43.8596
 11
-30.8034
 21
43.8315
  0
LINE
  8
0
 10
-30.8034
 20
43.8315
 11
-30.9306
 21
43.8114
  0
LINE
  8
0
 10
-30.9306
 20
43.8114
 11
-31.0588
 21
43.7993
  0
LINE
  8
0
 10
-31.0588
 20
43.7993
 11
-31.1875
 21
43.7952
  0
LINE
  8
0
 10
-31.1875
 20
43.7952
 11
-31.3162
 21
43.7993
  0
LINE
  8
0
 10
-77.7617
 20
-39.086
 11
-64.9375
 21
-26.2618
  0
LINE
  8
0
 10
-64.9375
 20
-26.2618
 11
-64.9375
 21
-26.2986
  0
LINE
  8
0
 10
-64.9375
 20
-26.2986
 11
-61.9173
 21
-23.636
  0
LINE
  8
0
 10
-61.9173
 20
-23.636
 11
-56.3245
 21
-19.2977
  0
LINE
  8
0
 10
-56.3245
 20
-19.2977
 11
-50.4703
 21
-15.3192
  0
LINE
  8
0
 10
-50.4703
 20
-15.3192
 11
-44.3779
 21
-11.7162
  0
LINE
  8
0
 10
-44.3779
 20
-11.7162
 11
-38.0712
 21
-8.50277
  0
LINE
  8
0
 10
-38.0712
 20
-8.50277
 11
-31.5752
 21
-5.69171
  0
LINE
  8
0
 10
-31.5752
 20
-5.69171
 11
-31.1875
 21
-5.55211
  0
LINE
  8
0
 10
-31.1875
 20
-5.55211
 11
-31.1875
 21
42.1752
  0
LINE
  8
0
 10
-31.1875
 20
42.1752
 11
-29.418
 21
42.6893
  0
LINE
  8
0
 10
-29.418
 20
42.6893
 11
-19.7247
 21
44.856
  0
LINE
  8
0
 10
-19.7247
 20
44.856
 11
-9.9145
 21
46.4098
  0
LINE
  8
0
 10
-9.9145
 20
46.4098
 11
-0.0260834
 21
47.3445
  0
LINE
  8
0
 10
-0.0260834
 20
47.3445
 11
9.90151
 21
47.6565
  0
LINE
  8
0
 10
9.90151
 20
47.6565
 11
19.8291
 21
47.3445
  0
LINE
  8
0
 10
19.8291
 20
47.3445
 11
29.7175
 21
46.4098
  0
LINE
  8
0
 10
29.7175
 20
46.4098
 11
39.5277
 21
44.856
  0
LINE
  8
0
 10
39.5277
 20
44.856
 11
49.221
 21
42.6893
  0
LINE
  8
0
 10
49.221
 20
42.6893
 11
58.7591
 21
39.9182
  0
LINE
  8
0
 10
58.7591
 20
39.9182
 11
64.9375
 21
37.6939
  0
LINE
  8
0
 10
64.9375
 20
37.6939
 11
64.9375
 21
-32.531
  0
LINE
  8
0
 10
64.9375
 20
-32.531
 11
40.4765
 21
-32.531
  0
LINE
  8
0
 10
40.4765
 20
-32.531
 11
40.4765
 21
-40.101
  0
LINE
  8
0
 10
40.4765
 20
-40.101
 11
10.1005
 21
-40.101
  0
LINE
  8
0
 10
10.1005
 20
-40.101
 11
10.0155
 21
-40.1362
  0
LINE
  8
0
 10
10.0155
 20
-40.1362
 11
7.69183
 21
-40.1362
  0
LINE
  8
0
 10
7.69183
 20
-40.1362
 11
3.28089
 21
-40.4137
  0
LINE
  8
0
 10
3.28089
 20
-40.4137
 11
-1.10355
 21
-40.9676
  0
LINE
  8
0
 10
-1.10355
 20
-40.9676
 11
-5.44469
 21
-41.7957
  0
LINE
  8
0
 10
-5.44469
 20
-41.7957
 11
-9.72536
 21
-42.8948
  0
LINE
  8
0
 10
-9.72536
 20
-42.8948
 11
-13.9284
 21
-44.2604
  0
LINE
  8
0
 10
-13.9284
 20
-44.2604
 11
-18.0375
 21
-45.8873
  0
LINE
  8
0
 10
-18.0375
 20
-45.8873
 11
-22.0364
 21
-47.7691
  0
LINE
  8
0
 10
-22.0364
 20
-47.7691
 11
-25.9091
 21
-49.8981
  0
LINE
  8
0
 10
-25.9091
 20
-49.8981
 11
-29.6406
 21
-52.2662
  0
LINE
  8
0
 10
-29.6406
 20
-52.2662
 11
-33.2161
 21
-54.8639
  0
LINE
  8
0
 10
-33.2161
 20
-54.8639
 11
-36.621
 21
-57.6808
  0
LINE
  8
0
 10
-36.621
 20
-57.6808
 11
-39.8545
 21
-60.7172
  0
LINE
  8
0
 10
-39.8545
 20
-60.7172
 11
-47.9925
 21
-68.8552
  0
LINE
  8
0
 10
-47.9925
 20
-68.8552
 11
-77.7617
 21
-39.086
  0
LINE
  8
0
 10
68.337
 20
38.5853
 11
68.237
 21
38.5947
  0
LINE
  8
0
 10
68.237
 20
38.5947
 11
68.1377
 21
38.6105
  0
LINE
  8
0
 10
68.1377
 20
38.6105
 11
68.0396
 21
38.6324
  0
LINE
  8
0
 10
68.0396
 20
38.6324
 11
67.9431
 21
38.6604
  0
LINE
  8
0
 10
67.9431
 20
38.6604
 11
67.8485
 21
38.6945
  0
LINE
  8
0
 10
67.8485
 20
38.6945
 11
67.7562
 21
38.7344
  0
LINE
  8
0
 10
67.7562
 20
38.7344
 11
67.6667
 21
38.78
  0
LINE
  8
0
 10
67.6667
 20
38.78
 11
67.5802
 21
38.8312
  0
LINE
  8
0
 10
67.5802
 20
38.8312
 11
67.497
 21
38.8877
  0
LINE
  8
0
 10
67.497
 20
38.8877
 11
67.4176
 21
38.9493
  0
LINE
  8
0
 10
67.4176
 20
38.9493
 11
67.3422
 21
39.0158
  0
LINE
  8
0
 10
67.3422
 20
39.0158
 11
67.2711
 21
39.0869
  0
LINE
  8
0
 10
67.2711
 20
39.0869
 11
67.2047
 21
39.1622
  0
LINE
  8
0
 10
67.2047
 20
39.1622
 11
67.1431
 21
39.2417
  0
LINE
  8
0
 10
67.1431
 20
39.2417
 11
67.0866
 21
39.3248
  0
LINE
  8
0
 10
67.0866
 20
39.3248
 11
67.0354
 21
39.4113
  0
LINE
  8
0
 10
67.0354
 20
39.4113
 11
66.9898
 21
39.5009
  0
LINE
  8
0
 10
66.9898
 20
39.5009
 11
66.9499
 21
39.5931
  0
LINE
  8
0
 10
66.9499
 20
39.5931
 11
66.9158
 21
39.6877
  0
LINE
  8
0
 10
66.9158
 20
39.6877
 11
66.8878
 21
39.7842
  0
LINE
  8
0
 10
66.8878
 20
39.7842
 11
66.8658
 21
39.8823
  0
LINE
  8
0
 10
66.8658
 20
39.8823
 11
66.8501
 21
39.9816
  0
LINE
  8
0
 10
66.8501
 20
39.9816
 11
66.8406
 21
40.0817
  0
LINE
  8
0
 10
66.8406
 20
40.0817
 11
66.8375
 21
40.1821
  0
LINE
  8
0
 10
66.8375
 20
40.1821
 11
66.8406
 21
40.2826
  0
LINE
  8
0
 10
66.8406
 20
40.2826
 11
66.8501
 21
40.3827
  0
LINE
  8
0
 10
66.8501
 20
40.3827
 11
66.8658
 21
40.482
  0
LINE
  8
0
 10
66.8658
 20
40.482
 11
66.8878
 21
40.58
  0
LINE
  8
0
 10
66.8878
 20
40.58
 11
66.9158
 21
40.6766
  0
LINE
  8
0
 10
66.9158
 20
40.6766
 11
66.9499
 21
40.7711
  0
LINE
  8
0
 10
66.9499
 20
40.7711
 11
66.9898
 21
40.8634
  0
LINE
  8
0
 10
66.9898
 20
40.8634
 11
67.0354
 21
40.9529
  0
LINE
  8
0
 10
67.0354
 20
40.9529
 11
67.0866
 21
41.0395
  0
LINE
  8
0
 10
67.0866
 20
41.0395
 11
67.1431
 21
41.1226
  0
LINE
  8
0
 10
67.1431
 20
41.1226
 11
67.2047
 21
41.202
  0
LINE
  8
0
 10
67.2047
 20
41.202
 11
67.2711
 21
41.2774
  0
LINE
  8
0
 10
67.2711
 20
41.2774
 11
67.3422
 21
41.3485
  0
LINE
  8
0
 10
67.3422
 20
41.3485
 11
67.4176
 21
41.415
  0
LINE
  8
0
 10
67.4176
 20
41.415
 11
67.497
 21
41.4766
  0
LINE
  8
0
 10
67.497
 20
41.4766
 11
67.5802
 21
41.5331
  0
LINE
  8
0
 10
67.5802
 20
41.5331
 11
67.6667
 21
41.5842
  0
LINE
  8
0
 10
67.6667
 20
41.5842
 11
67.7562
 21
41.6299
  0
LINE
  8
0
 10
67.7562
 20
41.6299
 11
67.8485
 21
41.6698
  0
LINE
  8
0
 10
67.8485
 20
41.6698
 11
67.9431
 21
41.7038
  0
LINE
  8
0
 10
67.9431
 20
41.7038
 11
68.0396
 21
41.7319
  0
LINE
  8
0
 10
68.0396
 20
41.7319
 11
68.1377
 21
41.7538
  0
LINE
  8
0
 10
68.1377
 20
41.7538
 11
68.237
 21
41.7695
  0
LINE
  8
0
 10
68.237
 20
41.7695
 11
68.337
 21
41.779
  0
LINE
  8
0
 10
68.337
 20
41.779
 11
68.4375
 21
41.7821
  0
LINE
  8
0
 10
68.4375
 20
41.7821
 11
68.538
 21
41.779
  0
LINE
  8
0
 10
68.538
 20
41.779
 11
68.638
 21
41.7695
  0
LINE
  8
0
 10
68.638
 20
41.7695
 11
68.7373
 21
41.7538
  0
LINE
  8
0
 10
68.7373
 20
41.7538
 11
68.8354
 21
41.7319
  0
LINE
  8
0
 10
68.8354
 20
41.7319
 11
68.9319
 21
41.7038
  0
LINE
  8
0
 10
68.9319
 20
41.7038
 11
69.0265
 21
41.6698
  0
LINE
  8
0
 10
69.0265
 20
41.6698
 11
69.1187
 21
41.6299
  0
LINE
  8
0
 10
69.1187
 20
41.6299
 11
69.2083
 21
41.5842
  0
LINE
  8
0
 10
69.2083
 20
41.5842
 11
69.2948
 21
41.5331
  0
LINE
  8
0
 10
69.2948
 20
41.5331
 11
69.378
 21
41.4766
  0
LINE
  8
0
 10
69.378
 20
41.4766
 11
69.4574
 21
41.415
  0
LINE
  8
0
 10
69.4574
 20
41.415
 11
69.5328
 21
41.3485
  0
LINE
  8
0
 10
69.5328
 20
41.3485
 11
69.6038
 21
41.2774
  0
LINE
  8
0
 10
69.6038
 20
41.2774
 11
69.6703
 21
41.202
  0
LINE
  8
0
 10
69.6703
 20
41.202
 11
69.7319
 21
41.1226
  0
LINE
  8
0
 10
69.7319
 20
41.1226
 11
69.7884
 21
41.0395
  0
LINE
  8
0
 10
69.7884
 20
41.0395
 11
69.8396
 21
40.9529
  0
LINE
  8
0
 10
69.8396
 20
40.9529
 11
69.8852
 21
40.8634
  0
LINE
  8
0
 10
69.8852
 20
40.8634
 11
69.9251
 21
40.7711
  0
LINE
  8
0
 10
69.9251
 20
40.7711
 11
69.9592
 21
40.6766
  0
LINE
  8
0
 10
69.9592
 20
40.6766
 11
69.9872
 21
40.58
  0
LINE
  8
0
 10
69.9872
 20
40.58
 11
70.0091
 21
40.482
  0
LINE
  8
0
 10
70.0091
 20
40.482
 11
70.0249
 21
40.3827
  0
LINE
  8
0
 10
70.0249
 20
40.3827
 11
70.0343
 21
40.2826
  0
LINE
  8
0
 10
70.0343
 20
40.2826
 11
70.0375
 21
40.1821
  0
LINE
  8
0
 10
70.0375
 20
40.1821
 11
70.0343
 21
40.0817
  0
LINE
  8
0
 10
70.0343
 20
40.0817
 11
70.0249
 21
39.9816
  0
LINE
  8
0
 10
70.0249
 20
39.9816
 11
70.0091
 21
39.8823
  0
LINE
  8
0
 10
70.0091
 20
39.8823
 11
69.9872
 21
39.7842
  0
LINE
  8
0
 10
69.9872
 20
39.7842
 11
69.9592
 21
39.6877
  0
LINE
  8
0
 10
69.9592
 20
39.6877
 11
69.9251
 21
39.5931
  0
LINE
  8
0
 10
69.9251
 20
39.5931
 11
69.8852
 21
39.5009
  0
LINE
  8
0
 10
69.8852
 20
39.5009
 11
69.8396
 21
39.4113
  0
LINE
  8
0
 10
69.8396
 20
39.4113
 11
69.7884
 21
39.3248
  0
LINE
  8
0
 10
69.7884
 20
39.3248
 11
69.7319
 21
39.2417
  0
LINE
  8
0
 10
69.7319
 20
39.2417
 11
69.6703
 21
39.1622
  0
LINE
  8
0
 10
69.6703
 20
39.1622
 11
69.6038
 21
39.0869
  0
LINE
  8
0
 10
69.6038
 20
39.0869
 11
69.5328
 21
39.0158
  0
LINE
  8
0
 10
69.5328
 20
39.0158
 11
69.4574
 21
38.9493
  0
LINE
  8
0
 10
69.4574
 20
38.9493
 11
69.378
 21
38.8877
  0
LINE
  8
0
 10
69.378
 20
38.8877
 11
69.2948
 21
38.8312
  0
LINE
  8
0
 10
69.2948
 20
38.8312
 11
69.2083
 21
38.78
  0
LINE
  8
0
 10
69.2083
 20
38.78
 11
69.1187
 21
38.7344
  0
LINE
  8
0
 10
69.1187
 20
38.7344
 11
69.0265
 21
38.6945
  0
LINE
  8
0
 10
69.0265
 20
38.6945
 11
68.9319
 21
38.6604
  0
LINE
  8
0
 10
68.9319
 20
38.6604
 11
68.8354
 21
38.6324
  0
LINE
  8
0
 10
68.8354
 20
38.6324
 11
68.7373
 21
38.6105
  0
LINE
  8
0
 10
68.7373
 20
38.6105
 11
68.638
 21
38.5947
  0
LINE
  8
0
 10
68.638
 20
38.5947
 11
68.538
 21
38.5853
  0
LINE
  8
0
 10
68.538
 20
38.5853
 11
68.4375
 21
38.5821
  0
LINE
  8
0
 10
68.4375
 20
38.5821
 11
68.337
 21
38.5853
  0
LINE
  8
0
 10
-68.538
 20
29.302
 11
-68.638
 21
29.3115
  0
LINE
  8
0
 10
-68.638
 20
29.3115
 11
-68.7373
 21
29.3272
  0
LINE
  8
0
 10
-68.7373
 20
29.3272
 11
-68.8354
 21
29.3491
  0
LINE
  8
0
 10
-68.8354
 20
29.3491
 11
-68.9319
 21
29.3772
  0
LINE
  8
0
 10
-68.9319
 20
29.3772
 11
-69.0265
 21
29.4112
  0
LINE
  8
0
 10
-69.0265
 20
29.4112
 11
-69.1187
 21
29.4511
  0
LINE
  8
0
 10
-69.1187
 20
29.4511
 11
-69.2083
 21
29.4968
  0
LINE
  8
0
 10
-69.2083
 20
29.4968
 11
-69.2948
 21
29.5479
  0
LINE
  8
0
 10
-69.2948
 20
29.5479
 11
-69.378
 21
29.6044
  0
LINE
  8
0
 10
-69.378
 20
29.6044
 11
-69.4574
 21
29.666
  0
LINE
  8
0
 10
-69.4574
 20
29.666
 11
-69.5328
 21
29.7325
  0
LINE
  8
0
 10
-69.5328
 20
29.7325
 11
-69.6038
 21
29.8036
  0
LINE
  8
0
 10
-69.6038
 20
29.8036
 11
-69.6703
 21
29.879
  0
LINE
  8
0
 10
-69.6703
 20
29.879
 11
-69.7319
 21
29.9584
  0
LINE
  8
0
 10
-69.7319
 20
29.9584
 11
-69.7884
 21
30.0416
  0
LINE
  8
0
 10
-69.7884
 20
30.0416
 11
-69.8396
 21
30.1281
  0
LINE
  8
0
 10
-69.8396
 20
30.1281
 11
-69.8852
 21
30.2176
  0
LINE
  8
0
 10
-69.8852
 20
30.2176
 11
-69.9251
 21
30.3099
  0
LINE
  8
0
 10
-69.9251
 20
30.3099
 11
-69.9592
 21
30.4045
  0
LINE
  8
0
 10
-69.9592
 20
30.4045
 11
-69.9872
 21
30.501
  0
LINE
  8
0
 10
-69.9872
 20
30.501
 11
-70.0091
 21
30.5991
  0
LINE
  8
0
 10
-70.0091
 20
30.5991
 11
-70.0249
 21
30.6983
  0
LINE
  8
0
 10
-70.0249
 20
30.6983
 11
-70.0343
 21
30.7984
  0
LINE
  8
0
 10
-70.0343
 20
30.7984
 11
-70.0375
 21
30.8989
  0
LINE
  8
0
 10
-70.0375
 20
30.8989
 11
-70.0343
 21
30.9993
  0
LINE
  8
0
 10
-70.0343
 20
30.9993
 11
-70.0249
 21
31.0994
  0
LINE
  8
0
 10
-70.0249
 20
31.0994
 11
-70.0091
 21
31.1987
  0
LINE
  8
0
 10
-70.0091
 20
31.1987
 11
-69.9872
 21
31.2968
  0
LINE
  8
0
 10
-69.9872
 20
31.2968
 11
-69.9592
 21
31.3933
  0
LINE
  8
0
 10
-69.9592
 20
31.3933
 11
-69.9251
 21
31.4879
  0
LINE
  8
0
 10
-69.9251
 20
31.4879
 11
-69.8852
 21
31.5801
  0
LINE
  8
0
 10
-69.8852
 20
31.5801
 11
-69.8396
 21
31.6697
  0
LINE
  8
0
 10
-69.8396
 20
31.6697
 11
-69.7884
 21
31.7562
  0
LINE
  8
0
 10
-69.7884
 20
31.7562
 11
-69.7319
 21
31.8393
  0
LINE
  8
0
 10
-69.7319
 20
31.8393
 11
-69.6703
 21
31.9187
  0
LINE
  8
0
 10
-69.6703
 20
31.9187
 11
-69.6038
 21
31.9941
  0
LINE
  8
0
 10
-69.6038
 20
31.9941
 11
-69.5328
 21
32.0652
  0
LINE
  8
0
 10
-69.5328
 20
32.0652
 11
-69.4574
 21
32.1317
  0
LINE
  8
0
 10
-69.4574
 20
32.1317
 11
-69.378
 21
32.1933
  0
LINE
  8
0
 10
-69.378
 20
32.1933
 11
-69.2948
 21
32.2498
  0
LINE
  8
0
 10
-69.2948
 20
32.2498
 11
-69.2083
 21
32.301
  0
LINE
  8
0
 10
-69.2083
 20
32.301
 11
-69.1187
 21
32.3466
  0
LINE
  8
0
 10
-69.1187
 20
32.3466
 11
-69.0265
 21
32.3865
  0
LINE
  8
0
 10
-69.0265
 20
32.3865
 11
-68.9319
 21
32.4206
  0
LINE
  8
0
 10
-68.9319
 20
32.4206
 11
-68.8354
 21
32.4486
  0
LINE
  8
0
 10
-68.8354
 20
32.4486
 11
-68.7373
 21
32.4705
  0
LINE
  8
0
 10
-68.7373
 20
32.4705
 11
-68.638
 21
32.4863
  0
LINE
  8
0
 10
-68.638
 20
32.4863
 11
-68.538
 21
32.4957
  0
LINE
  8
0
 10
-68.538
 20
32.4957
 11
-68.4375
 21
32.4989
  0
LINE
  8
0
 10
-68.4375
 20
32.4989
 11
-68.337
 21
32.4957
  0
LINE
  8
0
 10
-68.337
 20
32.4957
 11
-68.237
 21
32.4863
  0
LINE
  8
0
 10
-68.237
 20
32.4863
 11
-68.1377
 21
32.4705
  0
LINE
  8
0
 10
-68.1377
 20
32.4705
 11
-68.0396
 21
32.4486
  0
LINE
  8
0
 10
-68.0396
 20
32.4486
 11
-67.9431
 21
32.4206
  0
LINE
  8
0
 10
-67.9431
 20
32.4206
 11
-67.8485
 21
32.3865
  0
LINE
  8
0
 10
-67.8485
 20
32.3865
 11
-67.7562
 21
32.3466
  0
LINE
  8
0
 10
-67.7562
 20
32.3466
 11
-67.6667
 21
32.301
  0
LINE
  8
0
 10
-67.6667
 20
32.301
 11
-67.5802
 21
32.2498
  0
LINE
  8
0
 10
-67.5802
 20
32.2498
 11
-67.497
 21
32.1933
  0
LINE
  8
0
 10
-67.497
 20
32.1933
 11
-67.4176
 21
32.1317
  0
LINE
  8
0
 10
-67.4176
 20
32.1317
 11
-67.3422
 21
32.0652
  0
LINE
  8
0
 10
-67.3422
 20
32.0652
 11
-67.2711
 21
31.9941
  0
LINE
  8
0
 10
-67.2711
 20
31.9941
 11
-67.2047
 21
31.9187
  0
LINE
  8
0
 10
-67.2047
 20
31.9187
 11
-67.1431
 21
31.8393
  0
LINE
  8
0
 10
-67.1431
 20
31.8393
 11
-67.0866
 21
31.7562
  0
LINE
  8
0
 10
-67.0866
 20
31.7562
 11
-67.0354
 21
31.6697
  0
LINE
  8
0
 10
-67.0354
 20
31.6697
 11
-66.9898
 21
31.5801
  0
LINE
  8
0
 10
-66.9898
 20
31.5801
 11
-66.9499
 21
31.4879
  0
LINE
  8
0
 10
-66.9499
 20
31.4879
 11
-66.9158
 21
31.3933
  0
LINE
  8
0
 10
-66.9158
 20
31.3933
 11
-66.8878
 21
31.2968
  0
LINE
  8
0
 10
-66.8878
 20
31.2968
 11
-66.8658
 21
31.1987
  0
LINE
  8
0
 10
-66.8658
 20
31.1987
 11
-66.8501
 21
31.0994
  0
LINE
  8
0
 10
-66.8501
 20
31.0994
 11
-66.8406
 21
30.9993
  0
LINE
  8
0
 10
-66.8406
 20
30.9993
 11
-66.8375
 21
30.8989
  0
LINE
  8
0
 10
-66.8375
 20
30.8989
 11
-66.8406
 21
30.7984
  0
LINE
  8
0
 10
-66.8406
 20
30.7984
 11
-66.8501
 21
30.6983
  0
LINE
  8
0
 10
-66.8501
 20
30.6983
 11
-66.8658
 21
30.5991
  0
LINE
  8
0
 10
-66.8658
 20
30.5991
 11
-66.8878
 21
30.501
  0
LINE
  8
0
 10
-66.8878
 20
30.501
 11
-66.9158
 21
30.4045
  0
LINE
  8
0
 10
-66.9158
 20
30.4045
 11
-66.9499
 21
30.3099
  0
LINE
  8
0
 10
-66.9499
 20
30.3099
 11
-66.9898
 21
30.2176
  0
LINE
  8
0
 10
-66.9898
 20
30.2176
 11
-67.0354
 21
30.1281
  0
LINE
  8
0
 10
-67.0354
 20
30.1281
 11
-67.0866
 21
30.0416
  0
LINE
  8
0
 10
-67.0866
 20
30.0416
 11
-67.1431
 21
29.9584
  0
LINE
  8
0
 10
-67.1431
 20
29.9584
 11
-67.2047
 21
29.879
  0
LINE
  8
0
 10
-67.2047
 20
29.879
 11
-67.2711
 21
29.8036
  0
LINE
  8
0
 10
-67.2711
 20
29.8036
 11
-67.3422
 21
29.7325
  0
LINE
  8
0
 10
-67.3422
 20
29.7325
 11
-67.4176
 21
29.666
  0
LINE
  8
0
 10
-67.4176
 20
29.666
 11
-67.497
 21
29.6044
  0
LINE
  8
0
 10
-67.497
 20
29.6044
 11
-67.5802
 21
29.5479
  0
LINE
  8
0
 10
-67.5802
 20
29.5479
 11
-67.6667
 21
29.4968
  0
LINE
  8
0
 10
-67.6667
 20
29.4968
 11
-67.7562
 21
29.4511
  0
LINE
  8
0
 10
-67.7562
 20
29.4511
 11
-67.8485
 21
29.4112
  0
LINE
  8
0
 10
-67.8485
 20
29.4112
 11
-67.9431
 21
29.3772
  0
LINE
  8
0
 10
-67.9431
 20
29.3772
 11
-68.0396
 21
29.3491
  0
LINE
  8
0
 10
-68.0396
 20
29.3491
 11
-68.1377
 21
29.3272
  0
LINE
  8
0
 10
-68.1377
 20
29.3272
 11
-68.237
 21
29.3115
  0
LINE
  8
0
 10
-68.237
 20
29.3115
 11
-68.337
 21
29.302
  0
LINE
  8
0
 10
-68.337
 20
29.302
 11
-68.4375
 21
29.2989
  0
LINE
  8
0
 10
-68.4375
 20
29.2989
 11
-68.538
 21
29.302
  0
LINE
  8
0
 10
-49.9875
 20
0.10097
 11
-49.9875
 21
29.451
  0
LINE
  8
0
 10
-49.9875
 20
29.451
 11
-35.9875
 21
29.451
  0
LINE
  8
0
 10
-35.9875
 20
29.451
 11
-35.9875
 21
0.10097
  0
LINE
  8
0
 10
-35.9875
 20
0.10097
 11
-49.9875
 21
0.10097
  0
LINE
  8
0
 10
-62.9375
 20
19.2226
 11
-62.9375
 21
27.2226
  0
LINE
  8
0
 10
-62.9375
 20
27.2226
 11
-54.9375
 21
27.2226
  0
LINE
  8
0
 10
-54.9375
 20
27.2226
 11
-54.9375
 21
19.2226
  0
LINE
  8
0
 10
-54.9375
 20
19.2226
 11
-62.9375
 21
19.2226
  0
LINE
  8
0
 10
68.3088
 20
19.0829
 11
68.1806
 21
19.095
  0
LINE
  8
0
 10
68.1806
 20
19.095
 11
68.0534
 21
19.1152
  0
LINE
  8
0
 10
68.0534
 20
19.1152
 11
67.9277
 21
19.1433
  0
LINE
  8
0
 10
67.9277
 20
19.1433
 11
67.804
 21
19.1792
  0
LINE
  8
0
 10
67.804
 20
19.1792
 11
67.6828
 21
19.2228
  0
LINE
  8
0
 10
67.6828
 20
19.2228
 11
67.5646
 21
19.274
  0
LINE
  8
0
 10
67.5646
 20
19.274
 11
67.4499
 21
19.3324
  0
LINE
  8
0
 10
67.4499
 20
19.3324
 11
67.339
 21
19.398
  0
LINE
  8
0
 10
67.339
 20
19.398
 11
67.2325
 21
19.4704
  0
LINE
  8
0
 10
67.2325
 20
19.4704
 11
67.1308
 21
19.5493
  0
LINE
  8
0
 10
67.1308
 20
19.5493
 11
67.0342
 21
19.6345
  0
LINE
  8
0
 10
67.0342
 20
19.6345
 11
66.9431
 21
19.7255
  0
LINE
  8
0
 10
66.9431
 20
19.7255
 11
66.8579
 21
19.8221
  0
LINE
  8
0
 10
66.8579
 20
19.8221
 11
66.779
 21
19.9239
  0
LINE
  8
0
 10
66.779
 20
19.9239
 11
66.7066
 21
20.0304
  0
LINE
  8
0
 10
66.7066
 20
20.0304
 11
66.6411
 21
20.1413
  0
LINE
  8
0
 10
66.6411
 20
20.1413
 11
66.5826
 21
20.256
  0
LINE
  8
0
 10
66.5826
 20
20.256
 11
66.5315
 21
20.3742
  0
LINE
  8
0
 10
66.5315
 20
20.3742
 11
66.4878
 21
20.4954
  0
LINE
  8
0
 10
66.4878
 20
20.4954
 11
66.4519
 21
20.619
  0
LINE
  8
0
 10
66.4519
 20
20.619
 11
66.4238
 21
20.7447
  0
LINE
  8
0
 10
66.4238
 20
20.7447
 11
66.4036
 21
20.8719
  0
LINE
  8
0
 10
66.4036
 20
20.8719
 11
66.3915
 21
21.0001
  0
LINE
  8
0
 10
66.3915
 20
21.0001
 11
66.3875
 21
21.1288
  0
LINE
  8
0
 10
66.3875
 20
21.1288
 11
66.3915
 21
21.2576
  0
LINE
  8
0
 10
66.3915
 20
21.2576
 11
66.4036
 21
21.3858
  0
LINE
  8
0
 10
66.4036
 20
21.3858
 11
66.4238
 21
21.513
  0
LINE
  8
0
 10
66.4238
 20
21.513
 11
66.4519
 21
21.6387
  0
LINE
  8
0
 10
66.4519
 20
21.6387
 11
66.4878
 21
21.7623
  0
LINE
  8
0
 10
66.4878
 20
21.7623
 11
66.5315
 21
21.8835
  0
LINE
  8
0
 10
66.5315
 20
21.8835
 11
66.5826
 21
22.0017
  0
LINE
  8
0
 10
66.5826
 20
22.0017
 11
66.6411
 21
22.1164
  0
LINE
  8
0
 10
66.6411
 20
22.1164
 11
66.7066
 21
22.2273
  0
LINE
  8
0
 10
66.7066
 20
22.2273
 11
66.779
 21
22.3338
  0
LINE
  8
0
 10
66.779
 20
22.3338
 11
66.8579
 21
22.4356
  0
LINE
  8
0
 10
66.8579
 20
22.4356
 11
66.9431
 21
22.5322
  0
LINE
  8
0
 10
66.9431
 20
22.5322
 11
67.0342
 21
22.6232
  0
LINE
  8
0
 10
67.0342
 20
22.6232
 11
67.1308
 21
22.7084
  0
LINE
  8
0
 10
67.1308
 20
22.7084
 11
67.2325
 21
22.7873
  0
LINE
  8
0
 10
67.2325
 20
22.7873
 11
67.339
 21
22.8597
  0
LINE
  8
0
 10
67.339
 20
22.8597
 11
67.4499
 21
22.9253
  0
LINE
  8
0
 10
67.4499
 20
22.9253
 11
67.5646
 21
22.9838
  0
LINE
  8
0
 10
67.5646
 20
22.9838
 11
67.6828
 21
23.0349
  0
LINE
  8
0
 10
67.6828
 20
23.0349
 11
67.804
 21
23.0785
  0
LINE
  8
0
 10
67.804
 20
23.0785
 11
67.9277
 21
23.1144
  0
LINE
  8
0
 10
67.9277
 20
23.1144
 11
68.0534
 21
23.1426
  0
LINE
  8
0
 10
68.0534
 20
23.1426
 11
68.1806
 21
23.1627
  0
LINE
  8
0
 10
68.1806
 20
23.1627
 11
68.3088
 21
23.1748
  0
LINE
  8
0
 10
68.3088
 20
23.1748
 11
68.4375
 21
23.1789
  0
LINE
  8
0
 10
68.4375
 20
23.1789
 11
68.5662
 21
23.1748
  0
LINE
  8
0
 10
68.5662
 20
23.1748
 11
68.6944
 21
23.1627
  0
LINE
  8
0
 10
68.6944
 20
23.1627
 11
68.8216
 21
23.1426
  0
LINE
  8
0
 10
68.8216
 20
23.1426
 11
68.9473
 21
23.1144
  0
LINE
  8
0
 10
68.9473
 20
23.1144
 11
69.071
 21
23.0785
  0
LINE
  8
0
 10
69.071
 20
23.0785
 11
69.1921
 21
23.0349
  0
LINE
  8
0
 10
69.1921
 20
23.0349
 11
69.3103
 21
22.9838
  0
LINE
  8
0
 10
69.3103
 20
22.9838
 11
69.4251
 21
22.9253
  0
LINE
  8
0
 10
69.4251
 20
22.9253
 11
69.5359
 21
22.8597
  0
LINE
  8
0
 10
69.5359
 20
22.8597
 11
69.6424
 21
22.7873
  0
LINE
  8
0
 10
69.6424
 20
22.7873
 11
69.7442
 21
22.7084
  0
LINE
  8
0
 10
69.7442
 20
22.7084
 11
69.8408
 21
22.6232
  0
LINE
  8
0
 10
69.8408
 20
22.6232
 11
69.9319
 21
22.5322
  0
LINE
  8
0
 10
69.9319
 20
22.5322
 11
70.017
 21
22.4356
  0
LINE
  8
0
 10
70.017
 20
22.4356
 11
70.096
 21
22.3338
  0
LINE
  8
0
 10
70.096
 20
22.3338
 11
70.1684
 21
22.2273
  0
LINE
  8
0
 10
70.1684
 20
22.2273
 11
70.2339
 21
22.1164
  0
LINE
  8
0
 10
70.2339
 20
22.1164
 11
70.2924
 21
22.0017
  0
LINE
  8
0
 10
70.2924
 20
22.0017
 11
70.3435
 21
21.8835
  0
LINE
  8
0
 10
70.3435
 20
21.8835
 11
70.3872
 21
21.7623
  0
LINE
  8
0
 10
70.3872
 20
21.7623
 11
70.4231
 21
21.6387
  0
LINE
  8
0
 10
70.4231
 20
21.6387
 11
70.4512
 21
21.513
  0
LINE
  8
0
 10
70.4512
 20
21.513
 11
70.4713
 21
21.3858
  0
LINE
  8
0
 10
70.4713
 20
21.3858
 11
70.4835
 21
21.2576
  0
LINE
  8
0
 10
70.4835
 20
21.2576
 11
70.4875
 21
21.1288
  0
LINE
  8
0
 10
70.4875
 20
21.1288
 11
70.4835
 21
21.0001
  0
LINE
  8
0
 10
70.4835
 20
21.0001
 11
70.4713
 21
20.8719
  0
LINE
  8
0
 10
70.4713
 20
20.8719
 11
70.4512
 21
20.7447
  0
LINE
  8
0
 10
70.4512
 20
20.7447
 11
70.4231
 21
20.619
  0
LINE
  8
0
 10
70.4231
 20
20.619
 11
70.3872
 21
20.4954
  0
LINE
  8
0
 10
70.3872
 20
20.4954
 11
70.3435
 21
20.3742
  0
LINE
  8
0
 10
70.3435
 20
20.3742
 11
70.2924
 21
20.256
  0
LINE
  8
0
 10
70.2924
 20
20.256
 11
70.2339
 21
20.1413
  0
LINE
  8
0
 10
70.2339
 20
20.1413
 11
70.1684
 21
20.0304
  0
LINE
  8
0
 10
70.1684
 20
20.0304
 11
70.096
 21
19.9239
  0
LINE
  8
0
 10
70.096
 20
19.9239
 11
70.017
 21
19.8221
  0
LINE
  8
0
 10
70.017
 20
19.8221
 11
69.9319
 21
19.7255
  0
LINE
  8
0
 10
69.9319
 20
19.7255
 11
69.8408
 21
19.6345
  0
LINE
  8
0
 10
69.8408
 20
19.6345
 11
69.7442
 21
19.5493
  0
LINE
  8
0
 10
69.7442
 20
19.5493
 11
69.6424
 21
19.4704
  0
LINE
  8
0
 10
69.6424
 20
19.4704
 11
69.5359
 21
19.398
  0
LINE
  8
0
 10
69.5359
 20
19.398
 11
69.4251
 21
19.3324
  0
LINE
  8
0
 10
69.4251
 20
19.3324
 11
69.3103
 21
19.274
  0
LINE
  8
0
 10
69.3103
 20
19.274
 11
69.1921
 21
19.2228
  0
LINE
  8
0
 10
69.1921
 20
19.2228
 11
69.071
 21
19.1792
  0
LINE
  8
0
 10
69.071
 20
19.1792
 11
68.9473
 21
19.1433
  0
LINE
  8
0
 10
68.9473
 20
19.1433
 11
68.8216
 21
19.1152
  0
LINE
  8
0
 10
68.8216
 20
19.1152
 11
68.6944
 21
19.095
  0
LINE
  8
0
 10
68.6944
 20
19.095
 11
68.5662
 21
19.0829
  0
LINE
  8
0
 10
68.5662
 20
19.0829
 11
68.4375
 21
19.0789
  0
LINE
  8
0
 10
68.4375
 20
19.0789
 11
68.3088
 21
19.0829
  0
LINE
  8
0
 10
-68.5662
 20
1.65647
 11
-68.6944
 21
1.66858
  0
LINE
  8
0
 10
-68.6944
 20
1.66858
 11
-68.8216
 21
1.68872
  0
LINE
  8
0
 10
-68.8216
 20
1.68872
 11
-68.9473
 21
1.71681
  0
LINE
  8
0
 10
-68.9473
 20
1.71681
 11
-69.071
 21
1.75275
  0
LINE
  8
0
 10
-69.071
 20
1.75275
 11
-69.1921
 21
1.79637
  0
LINE
  8
0
 10
-69.1921
 20
1.79637
 11
-69.3103
 21
1.84752
  0
LINE
  8
0
 10
-69.3103
 20
1.84752
 11
-69.4251
 21
1.90599
  0
LINE
  8
0
 10
-69.4251
 20
1.90599
 11
-69.5359
 21
1.97155
  0
LINE
  8
0
 10
-69.5359
 20
1.97155
 11
-69.6424
 21
2.04393
  0
LINE
  8
0
 10
-69.6424
 20
2.04393
 11
-69.7442
 21
2.12287
  0
LINE
  8
0
 10
-69.7442
 20
2.12287
 11
-69.8408
 21
2.20803
  0
LINE
  8
0
 10
-69.8408
 20
2.20803
 11
-69.9319
 21
2.29909
  0
LINE
  8
0
 10
-69.9319
 20
2.29909
 11
-70.0171
 21
2.39569
  0
LINE
  8
0
 10
-70.0171
 20
2.39569
 11
-70.096
 21
2.49745
  0
LINE
  8
0
 10
-70.096
 20
2.49745
 11
-70.1684
 21
2.60398
  0
LINE
  8
0
 10
-70.1684
 20
2.60398
 11
-70.2339
 21
2.71482
  0
LINE
  8
0
 10
-70.2339
 20
2.71482
 11
-70.2924
 21
2.82956
  0
LINE
  8
0
 10
-70.2924
 20
2.82956
 11
-70.3435
 21
2.94776
  0
LINE
  8
0
 10
-70.3435
 20
2.94776
 11
-70.3872
 21
3.06893
  0
LINE
  8
0
 10
-70.3872
 20
3.06893
 11
-70.4231
 21
3.1926
  0
LINE
  8
0
 10
-70.4231
 20
3.1926
 11
-70.4512
 21
3.31829
  0
LINE
  8
0
 10
-70.4512
 20
3.31829
 11
-70.4713
 21
3.44548
  0
LINE
  8
0
 10
-70.4713
 20
3.44548
 11
-70.4835
 21
3.5737
  0
LINE
  8
0
 10
-70.4835
 20
3.5737
 11
-70.4875
 21
3.70241
  0
LINE
  8
0
 10
-70.4875
 20
3.70241
 11
-70.4835
 21
3.83113
  0
LINE
  8
0
 10
-70.4835
 20
3.83113
 11
-70.4713
 21
3.95935
  0
LINE
  8
0
 10
-70.4713
 20
3.95935
 11
-70.4512
 21
4.08655
  0
LINE
  8
0
 10
-70.4512
 20
4.08655
 11
-70.4231
 21
4.21224
  0
LINE
  8
0
 10
-70.4231
 20
4.21224
 11
-70.3872
 21
4.33589
  0
LINE
  8
0
 10
-70.3872
 20
4.33589
 11
-70.3435
 21
4.45706
  0
LINE
  8
0
 10
-70.3435
 20
4.45706
 11
-70.2924
 21
4.57526
  0
LINE
  8
0
 10
-70.2924
 20
4.57526
 11
-70.2339
 21
4.69001
  0
LINE
  8
0
 10
-70.2339
 20
4.69001
 11
-70.1684
 21
4.80086
  0
LINE
  8
0
 10
-70.1684
 20
4.80086
 11
-70.096
 21
4.90738
  0
LINE
  8
0
 10
-70.096
 20
4.90738
 11
-70.0171
 21
5.00914
  0
LINE
  8
0
 10
-70.0171
 20
5.00914
 11
-69.9319
 21
5.10573
  0
LINE
  8
0
 10
-69.9319
 20
5.10573
 11
-69.8408
 21
5.1968
  0
LINE
  8
0
 10
-69.8408
 20
5.1968
 11
-69.7442
 21
5.28197
  0
LINE
  8
0
 10
-69.7442
 20
5.28197
 11
-69.6424
 21
5.3609
  0
LINE
  8
0
 10
-69.6424
 20
5.3609
 11
-69.5359
 21
5.43329
  0
LINE
  8
0
 10
-69.5359
 20
5.43329
 11
-69.4251
 21
5.49884
  0
LINE
  8
0
 10
-69.4251
 20
5.49884
 11
-69.3103
 21
5.55731
  0
LINE
  8
0
 10
-69.3103
 20
5.55731
 11
-69.1921
 21
5.60846
  0
LINE
  8
0
 10
-69.1921
 20
5.60846
 11
-69.071
 21
5.65209
  0
LINE
  8
0
 10
-69.071
 20
5.65209
 11
-68.9473
 21
5.68801
  0
LINE
  8
0
 10
-68.9473
 20
5.68801
 11
-68.8216
 21
5.7161
  0
LINE
  8
0
 10
-68.8216
 20
5.7161
 11
-68.6944
 21
5.73625
  0
LINE
  8
0
 10
-68.6944
 20
5.73625
 11
-68.5662
 21
5.74837
  0
LINE
  8
0
 10
-68.5662
 20
5.74837
 11
-68.4375
 21
5.75241
  0
LINE
  8
0
 10
-68.4375
 20
5.75241
 11
-68.3088
 21
5.74837
  0
LINE
  8
0
 10
-68.3088
 20
5.74837
 11
-68.1806
 21
5.73625
  0
LINE
  8
0
 10
-68.1806
 20
5.73625
 11
-68.0534
 21
5.7161
  0
LINE
  8
0
 10
-68.0534
 20
5.7161
 11
-67.9277
 21
5.68801
  0
LINE
  8
0
 10
-67.9277
 20
5.68801
 11
-67.804
 21
5.65209
  0
LINE
  8
0
 10
-67.804
 20
5.65209
 11
-67.6828
 21
5.60846
  0
LINE
  8
0
 10
-67.6828
 20
5.60846
 11
-67.5646
 21
5.55731
  0
LINE
  8
0
 10
-67.5646
 20
5.55731
 11
-67.4499
 21
5.49884
  0
LINE
  8
0
 10
-67.4499
 20
5.49884
 11
-67.339
 21
5.43329
  0
LINE
  8
0
 10
-67.339
 20
5.43329
 11
-67.2325
 21
5.3609
  0
LINE
  8
0
 10
-67.2325
 20
5.3609
 11
-67.1308
 21
5.28197
  0
LINE
  8
0
 10
-67.1308
 20
5.28197
 11
-67.0342
 21
5.1968
  0
LINE
  8
0
 10
-67.0342
 20
5.1968
 11
-66.9431
 21
5.10573
  0
LINE
  8
0
 10
-66.9431
 20
5.10573
 11
-66.8579
 21
5.00914
  0
LINE
  8
0
 10
-66.8579
 20
5.00914
 11
-66.779
 21
4.90738
  0
LINE
  8
0
 10
-66.779
 20
4.90738
 11
-66.7066
 21
4.80086
  0
LINE
  8
0
 10
-66.7066
 20
4.80086
 11
-66.6411
 21
4.69001
  0
LINE
  8
0
 10
-66.6411
 20
4.69001
 11
-66.5826
 21
4.57526
  0
LINE
  8
0
 10
-66.5826
 20
4.57526
 11
-66.5315
 21
4.45706
  0
LINE
  8
0
 10
-66.5315
 20
4.45706
 11
-66.4878
 21
4.33589
  0
LINE
  8
0
 10
-66.4878
 20
4.33589
 11
-66.4519
 21
4.21224
  0
LINE
  8
0
 10
-66.4519
 20
4.21224
 11
-66.4238
 21
4.08655
  0
LINE
  8
0
 10
-66.4238
 20
4.08655
 11
-66.4037
 21
3.95935
  0
LINE
  8
0
 10
-66.4037
 20
3.95935
 11
-66.3915
 21
3.83113
  0
LINE
  8
0
 10
-66.3915
 20
3.83113
 11
-66.3875
 21
3.70241
  0
LINE
  8
0
 10
-66.3875
 20
3.70241
 11
-66.3915
 21
3.5737
  0
LINE
  8
0
 10
-66.3915
 20
3.5737
 11
-66.4037
 21
3.44548
  0
LINE
  8
0
 10
-66.4037
 20
3.44548
 11
-66.4238
 21
3.31829
  0
LINE
  8
0
 10
-66.4238
 20
3.31829
 11
-66.4519
 21
3.1926
  0
LINE
  8
0
 10
-66.4519
 20
3.1926
 11
-66.4878
 21
3.06893
  0
LINE
  8
0
 10
-66.4878
 20
3.06893
 11
-66.5315
 21
2.94776
  0
LINE
  8
0
 10
-66.5315
 20
2.94776
 11
-66.5826
 21
2.82956
  0
LINE
  8
0
 10
-66.5826
 20
2.82956
 11
-66.6411
 21
2.71482
  0
LINE
  8
0
 10
-66.6411
 20
2.71482
 11
-66.7066
 21
2.60398
  0
LINE
  8
0
 10
-66.7066
 20
2.60398
 11
-66.779
 21
2.49745
  0
LINE
  8
0
 10
-66.779
 20
2.49745
 11
-66.8579
 21
2.39569
  0
LINE
  8
0
 10
-66.8579
 20
2.39569
 11
-66.9431
 21
2.29909
  0
LINE
  8
0
 10
-66.9431
 20
2.29909
 11
-67.0342
 21
2.20803
  0
LINE
  8
0
 10
-67.0342
 20
2.20803
 11
-67.1308
 21
2.12287
  0
LINE
  8
0
 10
-67.1308
 20
2.12287
 11
-67.2325
 21
2.04393
  0
LINE
  8
0
 10
-67.2325
 20
2.04393
 11
-67.339
 21
1.97155
  0
LINE
  8
0
 10
-67.339
 20
1.97155
 11
-67.4499
 21
1.90599
  0
LINE
  8
0
 10
-67.4499
 20
1.90599
 11
-67.5646
 21
1.84752
  0
LINE
  8
0
 10
-67.5646
 20
1.84752
 11
-67.6828
 21
1.79637
  0
LINE
  8
0
 10
-67.6828
 20
1.79637
 11
-67.804
 21
1.75275
  0
LINE
  8
0
 10
-67.804
 20
1.75275
 11
-67.9277
 21
1.71681
  0
LINE
  8
0
 10
-67.9277
 20
1.71681
 11
-68.0534
 21
1.68872
  0
LINE
  8
0
 10
-68.0534
 20
1.68872
 11
-68.1806
 21
1.66858
  0
LINE
  8
0
 10
-68.1806
 20
1.66858
 11
-68.3088
 21
1.65647
  0
LINE
  8
0
 10
-68.3088
 20
1.65647
 11
-68.4375
 21
1.65242
  0
LINE
  8
0
 10
-68.4375
 20
1.65242
 11
-68.5662
 21
1.65647
  0
LINE
  8
0
 10
68.3433
 20
0.57854
 11
68.2495
 21
0.587405
  0
LINE
  8
0
 10
68.2495
 20
0.587405
 11
68.1564
 21
0.602145
  0
LINE
  8
0
 10
68.1564
 20
0.602145
 11
68.0645
 21
0.622699
  0
LINE
  8
0
 10
68.0645
 20
0.622699
 11
67.974
 21
0.64899
  0
LINE
  8
0
 10
67.974
 20
0.64899
 11
67.8853
 21
0.680911
  0
LINE
  8
0
 10
67.8853
 20
0.680911
 11
67.7988
 21
0.718341
  0
LINE
  8
0
 10
67.7988
 20
0.718341
 11
67.7149
 21
0.761111
  0
LINE
  8
0
 10
67.7149
 20
0.761111
 11
67.6338
 21
0.809085
  0
LINE
  8
0
 10
67.6338
 20
0.809085
 11
67.5558
 21
0.862048
  0
LINE
  8
0
 10
67.5558
 20
0.862048
 11
67.4814
 21
0.919803
  0
LINE
  8
0
 10
67.4814
 20
0.919803
 11
67.4107
 21
0.98212
  0
LINE
  8
0
 10
67.4107
 20
0.98212
 11
67.344
 21
1.04875
  0
LINE
  8
0
 10
67.344
 20
1.04875
 11
67.2817
 21
1.11943
  0
LINE
  8
0
 10
67.2817
 20
1.11943
 11
67.224
 21
1.1939
  0
LINE
  8
0
 10
67.224
 20
1.1939
 11
67.171
 21
1.27184
  0
LINE
  8
0
 10
67.171
 20
1.27184
 11
67.123
 21
1.35294
  0
LINE
  8
0
 10
67.123
 20
1.35294
 11
67.0803
 21
1.43691
  0
LINE
  8
0
 10
67.0803
 20
1.43691
 11
67.0428
 21
1.52339
  0
LINE
  8
0
 10
67.0428
 20
1.52339
 11
67.0109
 21
1.61205
  0
LINE
  8
0
 10
67.0109
 20
1.61205
 11
66.9846
 21
1.70253
  0
LINE
  8
0
 10
66.9846
 20
1.70253
 11
66.9641
 21
1.7945
  0
LINE
  8
0
 10
66.9641
 20
1.7945
 11
66.9493
 21
1.88758
  0
LINE
  8
0
 10
66.9493
 20
1.88758
 11
66.9405
 21
1.98139
  0
LINE
  8
0
 10
66.9405
 20
1.98139
 11
66.9375
 21
2.07558
  0
LINE
  8
0
 10
66.9375
 20
2.07558
 11
66.9405
 21
2.16976
  0
LINE
  8
0
 10
66.9405
 20
2.16976
 11
66.9493
 21
2.26357
  0
LINE
  8
0
 10
66.9493
 20
2.26357
 11
66.9641
 21
2.35665
  0
LINE
  8
0
 10
66.9641
 20
2.35665
 11
66.9846
 21
2.44861
  0
LINE
  8
0
 10
66.9846
 20
2.44861
 11
67.0109
 21
2.5391
  0
LINE
  8
0
 10
67.0109
 20
2.5391
 11
67.0428
 21
2.62776
  0
LINE
  8
0
 10
67.0428
 20
2.62776
 11
67.0803
 21
2.71424
  0
LINE
  8
0
 10
67.0803
 20
2.71424
 11
67.123
 21
2.79821
  0
LINE
  8
0
 10
67.123
 20
2.79821
 11
67.171
 21
2.87932
  0
LINE
  8
0
 10
67.171
 20
2.87932
 11
67.224
 21
2.95725
  0
LINE
  8
0
 10
67.224
 20
2.95725
 11
67.2817
 21
3.03171
  0
LINE
  8
0
 10
67.2817
 20
3.03171
 11
67.344
 21
3.10239
  0
LINE
  8
0
 10
67.344
 20
3.10239
 11
67.4107
 21
3.16902
  0
LINE
  8
0
 10
67.4107
 20
3.16902
 11
67.4814
 21
3.23134
  0
LINE
  8
0
 10
67.4814
 20
3.23134
 11
67.5558
 21
3.2891
  0
LINE
  8
0
 10
67.5558
 20
3.2891
 11
67.6338
 21
3.34206
  0
LINE
  8
0
 10
67.6338
 20
3.34206
 11
67.7149
 21
3.39003
  0
LINE
  8
0
 10
67.7149
 20
3.39003
 11
67.7988
 21
3.43282
  0
LINE
  8
0
 10
67.7988
 20
3.43282
 11
67.8853
 21
3.47023
  0
LINE
  8
0
 10
67.8853
 20
3.47023
 11
67.974
 21
3.50215
  0
LINE
  8
0
 10
67.974
 20
3.50215
 11
68.0645
 21
3.52845
  0
LINE
  8
0
 10
68.0645
 20
3.52845
 11
68.1564
 21
3.549
  0
LINE
  8
0
 10
68.1564
 20
3.549
 11
68.2495
 21
3.56374
  0
LINE
  8
0
 10
68.2495
 20
3.56374
 11
68.3433
 21
3.57262
  0
LINE
  8
0
 10
68.3433
 20
3.57262
 11
68.4375
 21
3.57558
  0
LINE
  8
0
 10
68.4375
 20
3.57558
 11
68.5317
 21
3.57262
  0
LINE
  8
0
 10
68.5317
 20
3.57262
 11
68.6255
 21
3.56374
  0
LINE
  8
0
 10
68.6255
 20
3.56374
 11
68.7186
 21
3.549
  0
LINE
  8
0
 10
68.7186
 20
3.549
 11
68.8105
 21
3.52845
  0
LINE
  8
0
 10
68.8105
 20
3.52845
 11
68.901
 21
3.50215
  0
LINE
  8
0
 10
68.901
 20
3.50215
 11
68.9897
 21
3.47023
  0
LINE
  8
0
 10
68.9897
 20
3.47023
 11
69.0762
 21
3.43282
  0
LINE
  8
0
 10
69.0762
 20
3.43282
 11
69.1601
 21
3.39003
  0
LINE
  8
0
 10
69.1601
 20
3.39003
 11
69.2412
 21
3.34206
  0
LINE
  8
0
 10
69.2412
 20
3.34206
 11
69.3192
 21
3.2891
  0
LINE
  8
0
 10
69.3192
 20
3.2891
 11
69.3936
 21
3.23134
  0
LINE
  8
0
 10
69.3936
 20
3.23134
 11
69.4643
 21
3.16902
  0
LINE
  8
0
 10
69.4643
 20
3.16902
 11
69.5309
 21
3.10239
  0
LINE
  8
0
 10
69.5309
 20
3.10239
 11
69.5933
 21
3.03171
  0
LINE
  8
0
 10
69.5933
 20
3.03171
 11
69.651
 21
2.95725
  0
LINE
  8
0
 10
69.651
 20
2.95725
 11
69.704
 21
2.87932
  0
LINE
  8
0
 10
69.704
 20
2.87932
 11
69.7519
 21
2.79821
  0
LINE
  8
0
 10
69.7519
 20
2.79821
 11
69.7947
 21
2.71424
  0
LINE
  8
0
 10
69.7947
 20
2.71424
 11
69.8322
 21
2.62776
  0
LINE
  8
0
 10
69.8322
 20
2.62776
 11
69.8641
 21
2.5391
  0
LINE
  8
0
 10
69.8641
 20
2.5391
 11
69.8904
 21
2.44861
  0
LINE
  8
0
 10
69.8904
 20
2.44861
 11
69.9109
 21
2.35665
  0
LINE
  8
0
 10
69.9109
 20
2.35665
 11
69.9257
 21
2.26357
  0
LINE
  8
0
 10
69.9257
 20
2.26357
 11
69.9345
 21
2.16976
  0
LINE
  8
0
 10
69.9345
 20
2.16976
 11
69.9375
 21
2.07558
  0
LINE
  8
0
 10
69.9375
 20
2.07558
 11
69.9345
 21
1.98139
  0
LINE
  8
0
 10
69.9345
 20
1.98139
 11
69.9257
 21
1.88758
  0
LINE
  8
0
 10
69.9257
 20
1.88758
 11
69.9109
 21
1.7945
  0
LINE
  8
0
 10
69.9109
 20
1.7945
 11
69.8904
 21
1.70253
  0
LINE
  8
0
 10
69.8904
 20
1.70253
 11
69.8641
 21
1.61205
  0
LINE
  8
0
 10
69.8641
 20
1.61205
 11
69.8322
 21
1.52339
  0
LINE
  8
0
 10
69.8322
 20
1.52339
 11
69.7947
 21
1.43691
  0
LINE
  8
0
 10
69.7947
 20
1.43691
 11
69.7519
 21
1.35294
  0
LINE
  8
0
 10
69.7519
 20
1.35294
 11
69.704
 21
1.27184
  0
LINE
  8
0
 10
69.704
 20
1.27184
 11
69.651
 21
1.1939
  0
LINE
  8
0
 10
69.651
 20
1.1939
 11
69.5933
 21
1.11943
  0
LINE
  8
0
 10
69.5933
 20
1.11943
 11
69.5309
 21
1.04875
  0
LINE
  8
0
 10
69.5309
 20
1.04875
 11
69.4643
 21
0.98212
  0
LINE
  8
0
 10
69.4643
 20
0.98212
 11
69.3936
 21
0.919803
  0
LINE
  8
0
 10
69.3936
 20
0.919803
 11
69.3192
 21
0.862048
  0
LINE
  8
0
 10
69.3192
 20
0.862048
 11
69.2412
 21
0.809085
  0
LINE
  8
0
 10
69.2412
 20
0.809085
 11
69.1601
 21
0.761111
  0
LINE
  8
0
 10
69.1601
 20
0.761111
 11
69.0762
 21
0.718341
  0
LINE
  8
0
 10
69.0762
 20
0.718341
 11
68.9897
 21
0.680911
  0
LINE
  8
0
 10
68.9897
 20
0.680911
 11
68.901
 21
0.64899
  0
LINE
  8
0
 10
68.901
 20
0.64899
 11
68.8105
 21
0.622699
  0
LINE
  8
0
 10
68.8105
 20
0.622699
 11
68.7186
 21
0.602145
  0
LINE
  8
0
 10
68.7186
 20
0.602145
 11
68.6255
 21
0.587405
  0
LINE
  8
0
 10
68.6255
 20
0.587405
 11
68.5317
 21
0.57854
  0
LINE
  8
0
 10
68.5317
 20
0.57854
 11
68.4375
 21
0.57558
  0
LINE
  8
0
 10
68.4375
 20
0.57558
 11
68.3433
 21
0.57854
  0
LINE
  8
0
 10
68.3088
 20
-19.0237
 11
68.1806
 21
-19.0115
  0
LINE
  8
0
 10
68.1806
 20
-19.0115
 11
68.0534
 21
-18.9914
  0
LINE
  8
0
 10
68.0534
 20
-18.9914
 11
67.9277
 21
-18.9633
  0
LINE
  8
0
 10
67.9277
 20
-18.9633
 11
67.804
 21
-18.9274
  0
LINE
  8
0
 10
67.804
 20
-18.9274
 11
67.6828
 21
-18.8837
  0
LINE
  8
0
 10
67.6828
 20
-18.8837
 11
67.5646
 21
-18.8326
  0
LINE
  8
0
 10
67.5646
 20
-18.8326
 11
67.4499
 21
-18.7741
  0
LINE
  8
0
 10
67.4499
 20
-18.7741
 11
67.339
 21
-18.7086
  0
LINE
  8
0
 10
67.339
 20
-18.7086
 11
67.2325
 21
-18.6362
  0
LINE
  8
0
 10
67.2325
 20
-18.6362
 11
67.1308
 21
-18.5573
  0
LINE
  8
0
 10
67.1308
 20
-18.5573
 11
67.0342
 21
-18.4721
  0
LINE
  8
0
 10
67.0342
 20
-18.4721
 11
66.9431
 21
-18.381
  0
LINE
  8
0
 10
66.9431
 20
-18.381
 11
66.8579
 21
-18.2844
  0
LINE
  8
0
 10
66.8579
 20
-18.2844
 11
66.779
 21
-18.1827
  0
LINE
  8
0
 10
66.779
 20
-18.1827
 11
66.7066
 21
-18.0762
  0
LINE
  8
0
 10
66.7066
 20
-18.0762
 11
66.6411
 21
-17.9653
  0
LINE
  8
0
 10
66.6411
 20
-17.9653
 11
66.5826
 21
-17.8506
  0
LINE
  8
0
 10
66.5826
 20
-17.8506
 11
66.5315
 21
-17.7324
  0
LINE
  8
0
 10
66.5315
 20
-17.7324
 11
66.4878
 21
-17.6112
  0
LINE
  8
0
 10
66.4878
 20
-17.6112
 11
66.4519
 21
-17.4875
  0
LINE
  8
0
 10
66.4519
 20
-17.4875
 11
66.4238
 21
-17.3618
  0
LINE
  8
0
 10
66.4238
 20
-17.3618
 11
66.4036
 21
-17.2346
  0
LINE
  8
0
 10
66.4036
 20
-17.2346
 11
66.3915
 21
-17.1064
  0
LINE
  8
0
 10
66.3915
 20
-17.1064
 11
66.3875
 21
-16.9777
  0
LINE
  8
0
 10
66.3875
 20
-16.9777
 11
66.3915
 21
-16.849
  0
LINE
  8
0
 10
66.3915
 20
-16.849
 11
66.4036
 21
-16.7208
  0
LINE
  8
0
 10
66.4036
 20
-16.7208
 11
66.4238
 21
-16.5936
  0
LINE
  8
0
 10
66.4238
 20
-16.5936
 11
66.4519
 21
-16.4679
  0
LINE
  8
0
 10
66.4519
 20
-16.4679
 11
66.4878
 21
-16.3442
  0
LINE
  8
0
 10
66.4878
 20
-16.3442
 11
66.5315
 21
-16.2231
  0
LINE
  8
0
 10
66.5315
 20
-16.2231
 11
66.5826
 21
-16.1049
  0
LINE
  8
0
 10
66.5826
 20
-16.1049
 11
66.6411
 21
-15.9901
  0
LINE
  8
0
 10
66.6411
 20
-15.9901
 11
66.7066
 21
-15.8793
  0
LINE
  8
0
 10
66.7066
 20
-15.8793
 11
66.779
 21
-15.7727
  0
LINE
  8
0
 10
66.779
 20
-15.7727
 11
66.8579
 21
-15.671
  0
LINE
  8
0
 10
66.8579
 20
-15.671
 11
66.9431
 21
-15.5744
  0
LINE
  8
0
 10
66.9431
 20
-15.5744
 11
67.0342
 21
-15.4833
  0
LINE
  8
0
 10
67.0342
 20
-15.4833
 11
67.1308
 21
-15.3982
  0
LINE
  8
0
 10
67.1308
 20
-15.3982
 11
67.2325
 21
-15.3192
  0
LINE
  8
0
 10
67.2325
 20
-15.3192
 11
67.339
 21
-15.2468
  0
LINE
  8
0
 10
67.339
 20
-15.2468
 11
67.4499
 21
-15.1813
  0
LINE
  8
0
 10
67.4499
 20
-15.1813
 11
67.5646
 21
-15.1228
  0
LINE
  8
0
 10
67.5646
 20
-15.1228
 11
67.6828
 21
-15.0717
  0
LINE
  8
0
 10
67.6828
 20
-15.0717
 11
67.804
 21
-15.028
  0
LINE
  8
0
 10
67.804
 20
-15.028
 11
67.9277
 21
-14.9921
  0
LINE
  8
0
 10
67.9277
 20
-14.9921
 11
68.0534
 21
-14.964
  0
LINE
  8
0
 10
68.0534
 20
-14.964
 11
68.1806
 21
-14.9439
  0
LINE
  8
0
 10
68.1806
 20
-14.9439
 11
68.3088
 21
-14.9317
  0
LINE
  8
0
 10
68.3088
 20
-14.9317
 11
68.4375
 21
-14.9277
  0
LINE
  8
0
 10
68.4375
 20
-14.9277
 11
68.5662
 21
-14.9317
  0
LINE
  8
0
 10
68.5662
 20
-14.9317
 11
68.6944
 21
-14.9439
  0
LINE
  8
0
 10
68.6944
 20
-14.9439
 11
68.8216
 21
-14.964
  0
LINE
  8
0
 10
68.8216
 20
-14.964
 11
68.9473
 21
-14.9921
  0
LINE
  8
0
 10
68.9473
 20
-14.9921
 11
69.071
 21
-15.028
  0
LINE
  8
0
 10
69.071
 20
-15.028
 11
69.1921
 21
-15.0717
  0
LINE
  8
0
 10
69.1921
 20
-15.0717
 11
69.3103
 21
-15.1228
  0
LINE
  8
0
 10
69.3103
 20
-15.1228
 11
69.4251
 21
-15.1813
  0
LINE
  8
0
 10
69.4251
 20
-15.1813
 11
69.5359
 21
-15.2468
  0
LINE
  8
0
 10
69.5359
 20
-15.2468
 11
69.6424
 21
-15.3192
  0
LINE
  8
0
 10
69.6424
 20
-15.3192
 11
69.7442
 21
-15.3982
  0
LINE
  8
0
 10
69.7442
 20
-15.3982
 11
69.8408
 21
-15.4833
  0
LINE
  8
0
 10
69.8408
 20
-15.4833
 11
69.9319
 21
-15.5744
  0
LINE
  8
0
 10
69.9319
 20
-15.5744
 11
70.017
 21
-15.671
  0
LINE
  8
0
 10
70.017
 20
-15.671
 11
70.096
 21
-15.7727
  0
LINE
  8
0
 10
70.096
 20
-15.7727
 11
70.1684
 21
-15.8793
  0
LINE
  8
0
 10
70.1684
 20
-15.8793
 11
70.2339
 21
-15.9901
  0
LINE
  8
0
 10
70.2339
 20
-15.9901
 11
70.2924
 21
-16.1049
  0
LINE
  8
0
 10
70.2924
 20
-16.1049
 11
70.3435
 21
-16.2231
  0
LINE
  8
0
 10
70.3435
 20
-16.2231
 11
70.3872
 21
-16.3442
  0
LINE
  8
0
 10
70.3872
 20
-16.3442
 11
70.4231
 21
-16.4679
  0
LINE
  8
0
 10
70.4231
 20
-16.4679
 11
70.4512
 21
-16.5936
  0
LINE
  8
0
 10
70.4512
 20
-16.5936
 11
70.4713
 21
-16.7208
  0
LINE
  8
0
 10
70.4713
 20
-16.7208
 11
70.4835
 21
-16.849
  0
LINE
  8
0
 10
70.4835
 20
-16.849
 11
70.4875
 21
-16.9777
  0
LINE
  8
0
 10
70.4875
 20
-16.9777
 11
70.4835
 21
-17.1064
  0
LINE
  8
0
 10
70.4835
 20
-17.1064
 11
70.4713
 21
-17.2346
  0
LINE
  8
0
 10
70.4713
 20
-17.2346
 11
70.4512
 21
-17.3618
  0
LINE
  8
0
 10
70.4512
 20
-17.3618
 11
70.4231
 21
-17.4875
  0
LINE
  8
0
 10
70.4231
 20
-17.4875
 11
70.3872
 21
-17.6112
  0
LINE
  8
0
 10
70.3872
 20
-17.6112
 11
70.3435
 21
-17.7324
  0
LINE
  8
0
 10
70.3435
 20
-17.7324
 11
70.2924
 21
-17.8506
  0
LINE
  8
0
 10
70.2924
 20
-17.8506
 11
70.2339
 21
-17.9653
  0
LINE
  8
0
 10
70.2339
 20
-17.9653
 11
70.1684
 21
-18.0762
  0
LINE
  8
0
 10
70.1684
 20
-18.0762
 11
70.096
 21
-18.1827
  0
LINE
  8
0
 10
70.096
 20
-18.1827
 11
70.017
 21
-18.2844
  0
LINE
  8
0
 10
70.017
 20
-18.2844
 11
69.9319
 21
-18.381
  0
LINE
  8
0
 10
69.9319
 20
-18.381
 11
69.8408
 21
-18.4721
  0
LINE
  8
0
 10
69.8408
 20
-18.4721
 11
69.7442
 21
-18.5573
  0
LINE
  8
0
 10
69.7442
 20
-18.5573
 11
69.6424
 21
-18.6362
  0
LINE
  8
0
 10
69.6424
 20
-18.6362
 11
69.5359
 21
-18.7086
  0
LINE
  8
0
 10
69.5359
 20
-18.7086
 11
69.4251
 21
-18.7741
  0
LINE
  8
0
 10
69.4251
 20
-18.7741
 11
69.3103
 21
-18.8326
  0
LINE
  8
0
 10
69.3103
 20
-18.8326
 11
69.1921
 21
-18.8837
  0
LINE
  8
0
 10
69.1921
 20
-18.8837
 11
69.071
 21
-18.9274
  0
LINE
  8
0
 10
69.071
 20
-18.9274
 11
68.9473
 21
-18.9633
  0
LINE
  8
0
 10
68.9473
 20
-18.9633
 11
68.8216
 21
-18.9914
  0
LINE
  8
0
 10
68.8216
 20
-18.9914
 11
68.6944
 21
-19.0115
  0
LINE
  8
0
 10
68.6944
 20
-19.0115
 11
68.5662
 21
-19.0237
  0
LINE
  8
0
 10
68.5662
 20
-19.0237
 11
68.4375
 21
-19.0277
  0
LINE
  8
0
 10
68.4375
 20
-19.0277
 11
68.3088
 21
-19.0237
  0
LINE
  8
0
 10
-68.5317
 20
-24.9911
 11
-68.6255
 21
-24.9822
  0
LINE
  8
0
 10
-68.6255
 20
-24.9822
 11
-68.7186
 21
-24.9675
  0
LINE
  8
0
 10
-68.7186
 20
-24.9675
 11
-68.8105
 21
-24.9469
  0
LINE
  8
0
 10
-68.8105
 20
-24.9469
 11
-68.901
 21
-24.9206
  0
LINE
  8
0
 10
-68.901
 20
-24.9206
 11
-68.9897
 21
-24.8887
  0
LINE
  8
0
 10
-68.9897
 20
-24.8887
 11
-69.0762
 21
-24.8513
  0
LINE
  8
0
 10
-69.0762
 20
-24.8513
 11
-69.1601
 21
-24.8085
  0
LINE
  8
0
 10
-69.1601
 20
-24.8085
 11
-69.2412
 21
-24.7605
  0
LINE
  8
0
 10
-69.2412
 20
-24.7605
 11
-69.3192
 21
-24.7075
  0
LINE
  8
0
 10
-69.3192
 20
-24.7075
 11
-69.3936
 21
-24.6498
  0
LINE
  8
0
 10
-69.3936
 20
-24.6498
 11
-69.4643
 21
-24.5875
  0
LINE
  8
0
 10
-69.4643
 20
-24.5875
 11
-69.531
 21
-24.5208
  0
LINE
  8
0
 10
-69.531
 20
-24.5208
 11
-69.5933
 21
-24.4502
  0
LINE
  8
0
 10
-69.5933
 20
-24.4502
 11
-69.651
 21
-24.3757
  0
LINE
  8
0
 10
-69.651
 20
-24.3757
 11
-69.704
 21
-24.2978
  0
LINE
  8
0
 10
-69.704
 20
-24.2978
 11
-69.752
 21
-24.2167
  0
LINE
  8
0
 10
-69.752
 20
-24.2167
 11
-69.7947
 21
-24.1327
  0
LINE
  8
0
 10
-69.7947
 20
-24.1327
 11
-69.8322
 21
-24.0462
  0
LINE
  8
0
 10
-69.8322
 20
-24.0462
 11
-69.8641
 21
-23.9575
  0
LINE
  8
0
 10
-69.8641
 20
-23.9575
 11
-69.8904
 21
-23.8671
  0
LINE
  8
0
 10
-69.8904
 20
-23.8671
 11
-69.9109
 21
-23.7751
  0
LINE
  8
0
 10
-69.9109
 20
-23.7751
 11
-69.9257
 21
-23.682
  0
LINE
  8
0
 10
-69.9257
 20
-23.682
 11
-69.9345
 21
-23.5882
  0
LINE
  8
0
 10
-69.9345
 20
-23.5882
 11
-69.9375
 21
-23.494
  0
LINE
  8
0
 10
-69.9375
 20
-23.494
 11
-69.9345
 21
-23.3998
  0
LINE
  8
0
 10
-69.9345
 20
-23.3998
 11
-69.9257
 21
-23.306
  0
LINE
  8
0
 10
-69.9257
 20
-23.306
 11
-69.9109
 21
-23.2129
  0
LINE
  8
0
 10
-69.9109
 20
-23.2129
 11
-69.8904
 21
-23.121
  0
LINE
  8
0
 10
-69.8904
 20
-23.121
 11
-69.8641
 21
-23.0305
  0
LINE
  8
0
 10
-69.8641
 20
-23.0305
 11
-69.8322
 21
-22.9418
  0
LINE
  8
0
 10
-69.8322
 20
-22.9418
 11
-69.7947
 21
-22.8554
  0
LINE
  8
0
 10
-69.7947
 20
-22.8554
 11
-69.752
 21
-22.7714
  0
LINE
  8
0
 10
-69.752
 20
-22.7714
 11
-69.704
 21
-22.6903
  0
LINE
  8
0
 10
-69.704
 20
-22.6903
 11
-69.651
 21
-22.6123
  0
LINE
  8
0
 10
-69.651
 20
-22.6123
 11
-69.5933
 21
-22.5379
  0
LINE
  8
0
 10
-69.5933
 20
-22.5379
 11
-69.531
 21
-22.4672
  0
LINE
  8
0
 10
-69.531
 20
-22.4672
 11
-69.4643
 21
-22.4006
  0
LINE
  8
0
 10
-69.4643
 20
-22.4006
 11
-69.3936
 21
-22.3383
  0
LINE
  8
0
 10
-69.3936
 20
-22.3383
 11
-69.3192
 21
-22.2805
  0
LINE
  8
0
 10
-69.3192
 20
-22.2805
 11
-69.2412
 21
-22.2275
  0
LINE
  8
0
 10
-69.2412
 20
-22.2275
 11
-69.1601
 21
-22.1796
  0
LINE
  8
0
 10
-69.1601
 20
-22.1796
 11
-69.0762
 21
-22.1368
  0
LINE
  8
0
 10
-69.0762
 20
-22.1368
 11
-68.9897
 21
-22.0994
  0
LINE
  8
0
 10
-68.9897
 20
-22.0994
 11
-68.901
 21
-22.0674
  0
LINE
  8
0
 10
-68.901
 20
-22.0674
 11
-68.8105
 21
-22.0412
  0
LINE
  8
0
 10
-68.8105
 20
-22.0412
 11
-68.7186
 21
-22.0206
  0
LINE
  8
0
 10
-68.7186
 20
-22.0206
 11
-68.6255
 21
-22.0059
  0
LINE
  8
0
 10
-68.6255
 20
-22.0059
 11
-68.5317
 21
-21.997
  0
LINE
  8
0
 10
-68.5317
 20
-21.997
 11
-68.4375
 21
-21.994
  0
LINE
  8
0
 10
-68.4375
 20
-21.994
 11
-68.3433
 21
-21.997
  0
LINE
  8
0
 10
-68.3433
 20
-21.997
 11
-68.2495
 21
-22.0059
  0
LINE
  8
0
 10
-68.2495
 20
-22.0059
 11
-68.1564
 21
-22.0206
  0
LINE
  8
0
 10
-68.1564
 20
-22.0206
 11
-68.0645
 21
-22.0412
  0
LINE
  8
0
 10
-68.0645
 20
-22.0412
 11
-67.974
 21
-22.0674
  0
LINE
  8
0
 10
-67.974
 20
-22.0674
 11
-67.8853
 21
-22.0994
  0
LINE
  8
0
 10
-67.8853
 20
-22.0994
 11
-67.7988
 21
-22.1368
  0
LINE
  8
0
 10
-67.7988
 20
-22.1368
 11
-67.7149
 21
-22.1796
  0
LINE
  8
0
 10
-67.7149
 20
-22.1796
 11
-67.6337
 21
-22.2275
  0
LINE
  8
0
 10
-67.6337
 20
-22.2275
 11
-67.5558
 21
-22.2805
  0
LINE
  8
0
 10
-67.5558
 20
-22.2805
 11
-67.4814
 21
-22.3383
  0
LINE
  8
0
 10
-67.4814
 20
-22.3383
 11
-67.4107
 21
-22.4006
  0
LINE
  8
0
 10
-67.4107
 20
-22.4006
 11
-67.344
 21
-22.4672
  0
LINE
  8
0
 10
-67.344
 20
-22.4672
 11
-67.2817
 21
-22.5379
  0
LINE
  8
0
 10
-67.2817
 20
-22.5379
 11
-67.224
 21
-22.6123
  0
LINE
  8
0
 10
-67.224
 20
-22.6123
 11
-67.171
 21
-22.6903
  0
LINE
  8
0
 10
-67.171
 20
-22.6903
 11
-67.123
 21
-22.7714
  0
LINE
  8
0
 10
-67.123
 20
-22.7714
 11
-67.0803
 21
-22.8554
  0
LINE
  8
0
 10
-67.0803
 20
-22.8554
 11
-67.0428
 21
-22.9418
  0
LINE
  8
0
 10
-67.0428
 20
-22.9418
 11
-67.0109
 21
-23.0305
  0
LINE
  8
0
 10
-67.0109
 20
-23.0305
 11
-66.9846
 21
-23.121
  0
LINE
  8
0
 10
-66.9846
 20
-23.121
 11
-66.9641
 21
-23.2129
  0
LINE
  8
0
 10
-66.9641
 20
-23.2129
 11
-66.9493
 21
-23.306
  0
LINE
  8
0
 10
-66.9493
 20
-23.306
 11
-66.9405
 21
-23.3998
  0
LINE
  8
0
 10
-66.9405
 20
-23.3998
 11
-66.9375
 21
-23.494
  0
LINE
  8
0
 10
-66.9375
 20
-23.494
 11
-66.9405
 21
-23.5882
  0
LINE
  8
0
 10
-66.9405
 20
-23.5882
 11
-66.9493
 21
-23.682
  0
LINE
  8
0
 10
-66.9493
 20
-23.682
 11
-66.9641
 21
-23.7751
  0
LINE
  8
0
 10
-66.9641
 20
-23.7751
 11
-66.9846
 21
-23.8671
  0
LINE
  8
0
 10
-66.9846
 20
-23.8671
 11
-67.0109
 21
-23.9575
  0
LINE
  8
0
 10
-67.0109
 20
-23.9575
 11
-67.0428
 21
-24.0462
  0
LINE
  8
0
 10
-67.0428
 20
-24.0462
 11
-67.0803
 21
-24.1327
  0
LINE
  8
0
 10
-67.0803
 20
-24.1327
 11
-67.123
 21
-24.2167
  0
LINE
  8
0
 10
-67.123
 20
-24.2167
 11
-67.171
 21
-24.2978
  0
LINE
  8
0
 10
-67.171
 20
-24.2978
 11
-67.224
 21
-24.3757
  0
LINE
  8
0
 10
-67.224
 20
-24.3757
 11
-67.2817
 21
-24.4502
  0
LINE
  8
0
 10
-67.2817
 20
-24.4502
 11
-67.344
 21
-24.5208
  0
LINE
  8
0
 10
-67.344
 20
-24.5208
 11
-67.4107
 21
-24.5875
  0
LINE
  8
0
 10
-67.4107
 20
-24.5875
 11
-67.4814
 21
-24.6498
  0
LINE
  8
0
 10
-67.4814
 20
-24.6498
 11
-67.5558
 21
-24.7075
  0
LINE
  8
0
 10
-67.5558
 20
-24.7075
 11
-67.6337
 21
-24.7605
  0
LINE
  8
0
 10
-67.6337
 20
-24.7605
 11
-67.7149
 21
-24.8085
  0
LINE
  8
0
 10
-67.7149
 20
-24.8085
 11
-67.7988
 21
-24.8513
  0
LINE
  8
0
 10
-67.7988
 20
-24.8513
 11
-67.8853
 21
-24.8887
  0
LINE
  8
0
 10
-67.8853
 20
-24.8887
 11
-67.974
 21
-24.9206
  0
LINE
  8
0
 10
-67.974
 20
-24.9206
 11
-68.0645
 21
-24.9469
  0
LINE
  8
0
 10
-68.0645
 20
-24.9469
 11
-68.1564
 21
-24.9675
  0
LINE
  8
0
 10
-68.1564
 20
-24.9675
 11
-68.2495
 21
-24.9822
  0
LINE
  8
0
 10
-68.2495
 20
-24.9822
 11
-68.3433
 21
-24.9911
  0
LINE
  8
0
 10
-68.3433
 20
-24.9911
 11
-68.4375
 21
-24.994
  0
LINE
  8
0
 10
-68.4375
 20
-24.994
 11
-68.5317
 21
-24.9911
  0
LINE
  8
0
 10
68.337
 20
-37.6278
 11
68.237
 21
-37.6184
  0
LINE
  8
0
 10
68.237
 20
-37.6184
 11
68.1377
 21
-37.6026
  0
LINE
  8
0
 10
68.1377
 20
-37.6026
 11
68.0396
 21
-37.5807
  0
LINE
  8
0
 10
68.0396
 20
-37.5807
 11
67.9431
 21
-37.5527
  0
LINE
  8
0
 10
67.9431
 20
-37.5527
 11
67.8485
 21
-37.5186
  0
LINE
  8
0
 10
67.8485
 20
-37.5186
 11
67.7562
 21
-37.4787
  0
LINE
  8
0
 10
67.7562
 20
-37.4787
 11
67.6667
 21
-37.4331
  0
LINE
  8
0
 10
67.6667
 20
-37.4331
 11
67.5802
 21
-37.3819
  0
LINE
  8
0
 10
67.5802
 20
-37.3819
 11
67.497
 21
-37.3254
  0
LINE
  8
0
 10
67.497
 20
-37.3254
 11
67.4176
 21
-37.2638
  0
LINE
  8
0
 10
67.4176
 20
-37.2638
 11
67.3422
 21
-37.1973
  0
LINE
  8
0
 10
67.3422
 20
-37.1973
 11
67.2711
 21
-37.1262
  0
LINE
  8
0
 10
67.2711
 20
-37.1262
 11
67.2047
 21
-37.0509
  0
LINE
  8
0
 10
67.2047
 20
-37.0509
 11
67.1431
 21
-36.9714
  0
LINE
  8
0
 10
67.1431
 20
-36.9714
 11
67.0866
 21
-36.8883
  0
LINE
  8
0
 10
67.0866
 20
-36.8883
 11
67.0354
 21
-36.8018
  0
LINE
  8
0
 10
67.0354
 20
-36.8018
 11
66.9898
 21
-36.7122
  0
LINE
  8
0
 10
66.9898
 20
-36.7122
 11
66.9499
 21
-36.62
  0
LINE
  8
0
 10
66.9499
 20
-36.62
 11
66.9158
 21
-36.5254
  0
LINE
  8
0
 10
66.9158
 20
-36.5254
 11
66.8878
 21
-36.4289
  0
LINE
  8
0
 10
66.8878
 20
-36.4289
 11
66.8658
 21
-36.3308
  0
LINE
  8
0
 10
66.8658
 20
-36.3308
 11
66.8501
 21
-36.2315
  0
LINE
  8
0
 10
66.8501
 20
-36.2315
 11
66.8406
 21
-36.1314
  0
LINE
  8
0
 10
66.8406
 20
-36.1314
 11
66.8375
 21
-36.031
  0
LINE
  8
0
 10
66.8375
 20
-36.031
 11
66.8406
 21
-35.9305
  0
LINE
  8
0
 10
66.8406
 20
-35.9305
 11
66.8501
 21
-35.8304
  0
LINE
  8
0
 10
66.8501
 20
-35.8304
 11
66.8658
 21
-35.7312
  0
LINE
  8
0
 10
66.8658
 20
-35.7312
 11
66.8878
 21
-35.6331
  0
LINE
  8
0
 10
66.8878
 20
-35.6331
 11
66.9158
 21
-35.5365
  0
LINE
  8
0
 10
66.9158
 20
-35.5365
 11
66.9499
 21
-35.442
  0
LINE
  8
0
 10
66.9499
 20
-35.442
 11
66.9898
 21
-35.3497
  0
LINE
  8
0
 10
66.9898
 20
-35.3497
 11
67.0354
 21
-35.2602
  0
LINE
  8
0
 10
67.0354
 20
-35.2602
 11
67.0866
 21
-35.1736
  0
LINE
  8
0
 10
67.0866
 20
-35.1736
 11
67.1431
 21
-35.0905
  0
LINE
  8
0
 10
67.1431
 20
-35.0905
 11
67.2047
 21
-35.0111
  0
LINE
  8
0
 10
67.2047
 20
-35.0111
 11
67.2711
 21
-34.9357
  0
LINE
  8
0
 10
67.2711
 20
-34.9357
 11
67.3422
 21
-34.8646
  0
LINE
  8
0
 10
67.3422
 20
-34.8646
 11
67.4176
 21
-34.7982
  0
LINE
  8
0
 10
67.4176
 20
-34.7982
 11
67.497
 21
-34.7365
  0
LINE
  8
0
 10
67.497
 20
-34.7365
 11
67.5802
 21
-34.6801
  0
LINE
  8
0
 10
67.5802
 20
-34.6801
 11
67.6667
 21
-34.6289
  0
LINE
  8
0
 10
67.6667
 20
-34.6289
 11
67.7562
 21
-34.5832
  0
LINE
  8
0
 10
67.7562
 20
-34.5832
 11
67.8485
 21
-34.5433
  0
LINE
  8
0
 10
67.8485
 20
-34.5433
 11
67.9431
 21
-34.5093
  0
LINE
  8
0
 10
67.9431
 20
-34.5093
 11
68.0396
 21
-34.4812
  0
LINE
  8
0
 10
68.0396
 20
-34.4812
 11
68.1377
 21
-34.4593
  0
LINE
  8
0
 10
68.1377
 20
-34.4593
 11
68.237
 21
-34.4436
  0
LINE
  8
0
 10
68.237
 20
-34.4436
 11
68.337
 21
-34.4341
  0
LINE
  8
0
 10
68.337
 20
-34.4341
 11
68.4375
 21
-34.431
  0
LINE
  8
0
 10
68.4375
 20
-34.431
 11
68.538
 21
-34.4341
  0
LINE
  8
0
 10
68.538
 20
-34.4341
 11
68.638
 21
-34.4436
  0
LINE
  8
0
 10
68.638
 20
-34.4436
 11
68.7373
 21
-34.4593
  0
LINE
  8
0
 10
68.7373
 20
-34.4593
 11
68.8354
 21
-34.4812
  0
LINE
  8
0
 10
68.8354
 20
-34.4812
 11
68.9319
 21
-34.5093
  0
LINE
  8
0
 10
68.9319
 20
-34.5093
 11
69.0265
 21
-34.5433
  0
LINE
  8
0
 10
69.0265
 20
-34.5433
 11
69.1187
 21
-34.5832
  0
LINE
  8
0
 10
69.1187
 20
-34.5832
 11
69.2083
 21
-34.6289
  0
LINE
  8
0
 10
69.2083
 20
-34.6289
 11
69.2948
 21
-34.6801
  0
LINE
  8
0
 10
69.2948
 20
-34.6801
 11
69.378
 21
-34.7365
  0
LINE
  8
0
 10
69.378
 20
-34.7365
 11
69.4574
 21
-34.7982
  0
LINE
  8
0
 10
69.4574
 20
-34.7982
 11
69.5328
 21
-34.8646
  0
LINE
  8
0
 10
69.5328
 20
-34.8646
 11
69.6038
 21
-34.9357
  0
LINE
  8
0
 10
69.6038
 20
-34.9357
 11
69.6703
 21
-35.0111
  0
LINE
  8
0
 10
69.6703
 20
-35.0111
 11
69.7319
 21
-35.0905
  0
LINE
  8
0
 10
69.7319
 20
-35.0905
 11
69.7884
 21
-35.1736
  0
LINE
  8
0
 10
69.7884
 20
-35.1736
 11
69.8396
 21
-35.2602
  0
LINE
  8
0
 10
69.8396
 20
-35.2602
 11
69.8852
 21
-35.3497
  0
LINE
  8
0
 10
69.8852
 20
-35.3497
 11
69.9251
 21
-35.442
  0
LINE
  8
0
 10
69.9251
 20
-35.442
 11
69.9592
 21
-35.5365
  0
LINE
  8
0
 10
69.9592
 20
-35.5365
 11
69.9872
 21
-35.6331
  0
LINE
  8
0
 10
69.9872
 20
-35.6331
 11
70.0091
 21
-35.7312
  0
LINE
  8
0
 10
70.0091
 20
-35.7312
 11
70.0249
 21
-35.8304
  0
LINE
  8
0
 10
70.0249
 20
-35.8304
 11
70.0343
 21
-35.9305
  0
LINE
  8
0
 10
70.0343
 20
-35.9305
 11
70.0375
 21
-36.031
  0
LINE
  8
0
 10
70.0375
 20
-36.031
 11
70.0343
 21
-36.1314
  0
LINE
  8
0
 10
70.0343
 20
-36.1314
 11
70.0249
 21
-36.2315
  0
LINE
  8
0
 10
70.0249
 20
-36.2315
 11
70.0091
 21
-36.3308
  0
LINE
  8
0
 10
70.0091
 20
-36.3308
 11
69.9872
 21
-36.4289
  0
LINE
  8
0
 10
69.9872
 20
-36.4289
 11
69.9592
 21
-36.5254
  0
LINE
  8
0
 10
69.9592
 20
-36.5254
 11
69.9251
 21
-36.62
  0
LINE
  8
0
 10
69.9251
 20
-36.62
 11
69.8852
 21
-36.7122
  0
LINE
  8
0
 10
69.8852
 20
-36.7122
 11
69.8396
 21
-36.8018
  0
LINE
  8
0
 10
69.8396
 20
-36.8018
 11
69.7884
 21
-36.8883
  0
LINE
  8
0
 10
69.7884
 20
-36.8883
 11
69.7319
 21
-36.9714
  0
LINE
  8
0
 10
69.7319
 20
-36.9714
 11
69.6703
 21
-37.0509
  0
LINE
  8
0
 10
69.6703
 20
-37.0509
 11
69.6038
 21
-37.1262
  0
LINE
  8
0
 10
69.6038
 20
-37.1262
 11
69.5328
 21
-37.1973
  0
LINE
  8
0
 10
69.5328
 20
-37.1973
 11
69.4574
 21
-37.2638
  0
LINE
  8
0
 10
69.4574
 20
-37.2638
 11
69.378
 21
-37.3254
  0
LINE
  8
0
 10
69.378
 20
-37.3254
 11
69.2948
 21
-37.3819
  0
LINE
  8
0
 10
69.2948
 20
-37.3819
 11
69.2083
 21
-37.4331
  0
LINE
  8
0
 10
69.2083
 20
-37.4331
 11
69.1187
 21
-37.4787
  0
LINE
  8
0
 10
69.1187
 20
-37.4787
 11
69.0265
 21
-37.5186
  0
LINE
  8
0
 10
69.0265
 20
-37.5186
 11
68.9319
 21
-37.5527
  0
LINE
  8
0
 10
68.9319
 20
-37.5527
 11
68.8354
 21
-37.5807
  0
LINE
  8
0
 10
68.8354
 20
-37.5807
 11
68.7373
 21
-37.6026
  0
LINE
  8
0
 10
68.7373
 20
-37.6026
 11
68.638
 21
-37.6184
  0
LINE
  8
0
 10
68.638
 20
-37.6184
 11
68.538
 21
-37.6278
  0
LINE
  8
0
 10
68.538
 20
-37.6278
 11
68.4375
 21
-37.631
  0
LINE
  8
0
 10
68.4375
 20
-37.631
 11
68.337
 21
-37.6278
  0
LINE
  8
0
 10
43.8823
 20
-37.528
 11
43.7885
 21
-37.5191
  0
LINE
  8
0
 10
43.7885
 20
-37.5191
 11
43.6954
 21
-37.5044
  0
LINE
  8
0
 10
43.6954
 20
-37.5044
 11
43.6035
 21
-37.4838
  0
LINE
  8
0
 10
43.6035
 20
-37.4838
 11
43.513
 21
-37.4576
  0
LINE
  8
0
 10
43.513
 20
-37.4576
 11
43.4243
 21
-37.4256
  0
LINE
  8
0
 10
43.4243
 20
-37.4256
 11
43.3378
 21
-37.3882
  0
LINE
  8
0
 10
43.3378
 20
-37.3882
 11
43.2539
 21
-37.3454
  0
LINE
  8
0
 10
43.2539
 20
-37.3454
 11
43.1728
 21
-37.2975
  0
LINE
  8
0
 10
43.1728
 20
-37.2975
 11
43.0948
 21
-37.2445
  0
LINE
  8
0
 10
43.0948
 20
-37.2445
 11
43.0204
 21
-37.1867
  0
LINE
  8
0
 10
43.0204
 20
-37.1867
 11
42.9497
 21
-37.1244
  0
LINE
  8
0
 10
42.9497
 20
-37.1244
 11
42.8831
 21
-37.0578
  0
LINE
  8
0
 10
42.8831
 20
-37.0578
 11
42.8207
 21
-36.9871
  0
LINE
  8
0
 10
42.8207
 20
-36.9871
 11
42.763
 21
-36.9127
  0
LINE
  8
0
 10
42.763
 20
-36.9127
 11
42.71
 21
-36.8347
  0
LINE
  8
0
 10
42.71
 20
-36.8347
 11
42.662
 21
-36.7536
  0
LINE
  8
0
 10
42.662
 20
-36.7536
 11
42.6193
 21
-36.6696
  0
LINE
  8
0
 10
42.6193
 20
-36.6696
 11
42.5818
 21
-36.5832
  0
LINE
  8
0
 10
42.5818
 20
-36.5832
 11
42.5499
 21
-36.4945
  0
LINE
  8
0
 10
42.5499
 20
-36.4945
 11
42.5236
 21
-36.404
  0
LINE
  8
0
 10
42.5236
 20
-36.404
 11
42.5031
 21
-36.312
  0
LINE
  8
0
 10
42.5031
 20
-36.312
 11
42.4883
 21
-36.219
  0
LINE
  8
0
 10
42.4883
 20
-36.219
 11
42.4795
 21
-36.1251
  0
LINE
  8
0
 10
42.4795
 20
-36.1251
 11
42.4765
 21
-36.031
  0
LINE
  8
0
 10
42.4765
 20
-36.031
 11
42.4795
 21
-35.9368
  0
LINE
  8
0
 10
42.4795
 20
-35.9368
 11
42.4883
 21
-35.843
  0
LINE
  8
0
 10
42.4883
 20
-35.843
 11
42.5031
 21
-35.7499
  0
LINE
  8
0
 10
42.5031
 20
-35.7499
 11
42.5236
 21
-35.6579
  0
LINE
  8
0
 10
42.5236
 20
-35.6579
 11
42.5499
 21
-35.5674
  0
LINE
  8
0
 10
42.5499
 20
-35.5674
 11
42.5818
 21
-35.4788
  0
LINE
  8
0
 10
42.5818
 20
-35.4788
 11
42.6193
 21
-35.3923
  0
LINE
  8
0
 10
42.6193
 20
-35.3923
 11
42.662
 21
-35.3083
  0
LINE
  8
0
 10
42.662
 20
-35.3083
 11
42.71
 21
-35.2272
  0
LINE
  8
0
 10
42.71
 20
-35.2272
 11
42.763
 21
-35.1493
  0
LINE
  8
0
 10
42.763
 20
-35.1493
 11
42.8207
 21
-35.0748
  0
LINE
  8
0
 10
42.8207
 20
-35.0748
 11
42.8831
 21
-35.0041
  0
LINE
  8
0
 10
42.8831
 20
-35.0041
 11
42.9497
 21
-34.9375
  0
LINE
  8
0
 10
42.9497
 20
-34.9375
 11
43.0204
 21
-34.8752
  0
LINE
  8
0
 10
43.0204
 20
-34.8752
 11
43.0948
 21
-34.8174
  0
LINE
  8
0
 10
43.0948
 20
-34.8174
 11
43.1728
 21
-34.7645
  0
LINE
  8
0
 10
43.1728
 20
-34.7645
 11
43.2539
 21
-34.7165
  0
LINE
  8
0
 10
43.2539
 20
-34.7165
 11
43.3378
 21
-34.6737
  0
LINE
  8
0
 10
43.3378
 20
-34.6737
 11
43.4243
 21
-34.6363
  0
LINE
  8
0
 10
43.4243
 20
-34.6363
 11
43.513
 21
-34.6044
  0
LINE
  8
0
 10
43.513
 20
-34.6044
 11
43.6035
 21
-34.5781
  0
LINE
  8
0
 10
43.6035
 20
-34.5781
 11
43.6954
 21
-34.5575
  0
LINE
  8
0
 10
43.6954
 20
-34.5575
 11
43.7885
 21
-34.5428
  0
LINE
  8
0
 10
43.7885
 20
-34.5428
 11
43.8823
 21
-34.5339
  0
LINE
  8
0
 10
43.8823
 20
-34.5339
 11
43.9765
 21
-34.531
  0
LINE
  8
0
 10
43.9765
 20
-34.531
 11
44.0707
 21
-34.5339
  0
LINE
  8
0
 10
44.0707
 20
-34.5339
 11
44.1645
 21
-34.5428
  0
LINE
  8
0
 10
44.1645
 20
-34.5428
 11
44.2576
 21
-34.5575
  0
LINE
  8
0
 10
44.2576
 20
-34.5575
 11
44.3495
 21
-34.5781
  0
LINE
  8
0
 10
44.3495
 20
-34.5781
 11
44.44
 21
-34.6044
  0
LINE
  8
0
 10
44.44
 20
-34.6044
 11
44.5287
 21
-34.6363
  0
LINE
  8
0
 10
44.5287
 20
-34.6363
 11
44.6152
 21
-34.6737
  0
LINE
  8
0
 10
44.6152
 20
-34.6737
 11
44.6991
 21
-34.7165
  0
LINE
  8
0
 10
44.6991
 20
-34.7165
 11
44.7803
 21
-34.7645
  0
LINE
  8
0
 10
44.7803
 20
-34.7645
 11
44.8582
 21
-34.8174
  0
LINE
  8
0
 10
44.8582
 20
-34.8174
 11
44.9326
 21
-34.8752
  0
LINE
  8
0
 10
44.9326
 20
-34.8752
 11
45.0033
 21
-34.9375
  0
LINE
  8
0
 10
45.0033
 20
-34.9375
 11
45.07
 21
-35.0041
  0
LINE
  8
0
 10
45.07
 20
-35.0041
 11
45.1323
 21
-35.0748
  0
LINE
  8
0
 10
45.1323
 20
-35.0748
 11
45.19
 21
-35.1493
  0
LINE
  8
0
 10
45.19
 20
-35.1493
 11
45.243
 21
-35.2272
  0
LINE
  8
0
 10
45.243
 20
-35.2272
 11
45.291
 21
-35.3083
  0
LINE
  8
0
 10
45.291
 20
-35.3083
 11
45.3337
 21
-35.3923
  0
LINE
  8
0
 10
45.3337
 20
-35.3923
 11
45.3712
 21
-35.4788
  0
LINE
  8
0
 10
45.3712
 20
-35.4788
 11
45.4031
 21
-35.5674
  0
LINE
  8
0
 10
45.4031
 20
-35.5674
 11
45.4294
 21
-35.6579
  0
LINE
  8
0
 10
45.4294
 20
-35.6579
 11
45.4499
 21
-35.7499
  0
LINE
  8
0
 10
45.4499
 20
-35.7499
 11
45.4647
 21
-35.843
  0
LINE
  8
0
 10
45.4647
 20
-35.843
 11
45.4736
 21
-35.9368
  0
LINE
  8
0
 10
45.4736
 20
-35.9368
 11
45.4765
 21
-36.031
  0
LINE
  8
0
 10
45.4765
 20
-36.031
 11
45.4736
 21
-36.1251
  0
LINE
  8
0
 10
45.4736
 20
-36.1251
 11
45.4647
 21
-36.219
  0
LINE
  8
0
 10
45.4647
 20
-36.219
 11
45.4499
 21
-36.312
  0
LINE
  8
0
 10
45.4499
 20
-36.312
 11
45.4294
 21
-36.404
  0
LINE
  8
0
 10
45.4294
 20
-36.404
 11
45.4031
 21
-36.4945
  0
LINE
  8
0
 10
45.4031
 20
-36.4945
 11
45.3712
 21
-36.5832
  0
LINE
  8
0
 10
45.3712
 20
-36.5832
 11
45.3337
 21
-36.6696
  0
LINE
  8
0
 10
45.3337
 20
-36.6696
 11
45.291
 21
-36.7536
  0
LINE
  8
0
 10
45.291
 20
-36.7536
 11
45.243
 21
-36.8347
  0
LINE
  8
0
 10
45.243
 20
-36.8347
 11
45.19
 21
-36.9127
  0
LINE
  8
0
 10
45.19
 20
-36.9127
 11
45.1323
 21
-36.9871
  0
LINE
  8
0
 10
45.1323
 20
-36.9871
 11
45.07
 21
-37.0578
  0
LINE
  8
0
 10
45.07
 20
-37.0578
 11
45.0033
 21
-37.1244
  0
LINE
  8
0
 10
45.0033
 20
-37.1244
 11
44.9326
 21
-37.1867
  0
LINE
  8
0
 10
44.9326
 20
-37.1867
 11
44.8582
 21
-37.2445
  0
LINE
  8
0
 10
44.8582
 20
-37.2445
 11
44.7803
 21
-37.2975
  0
LINE
  8
0
 10
44.7803
 20
-37.2975
 11
44.6991
 21
-37.3454
  0
LINE
  8
0
 10
44.6991
 20
-37.3454
 11
44.6152
 21
-37.3882
  0
LINE
  8
0
 10
44.6152
 20
-37.3882
 11
44.5287
 21
-37.4256
  0
LINE
  8
0
 10
44.5287
 20
-37.4256
 11
44.44
 21
-37.4576
  0
LINE
  8
0
 10
44.44
 20
-37.4576
 11
44.3495
 21
-37.4838
  0
LINE
  8
0
 10
44.3495
 20
-37.4838
 11
44.2576
 21
-37.5044
  0
LINE
  8
0
 10
44.2576
 20
-37.5044
 11
44.1645
 21
-37.5191
  0
LINE
  8
0
 10
44.1645
 20
-37.5191
 11
44.0707
 21
-37.528
  0
LINE
  8
0
 10
44.0707
 20
-37.528
 11
43.9765
 21
-37.531
  0
LINE
  8
0
 10
43.9765
 20
-37.531
 11
43.8823
 21
-37.528
  0
LINE
  8
0
 10
-82.8119
 20
-40.6828
 11
-82.912
 21
-40.6734
  0
LINE
  8
0
 10
-82.912
 20
-40.6734
 11
-83.0113
 21
-40.6577
  0
LINE
  8
0
 10
-83.0113
 20
-40.6577
 11
-83.1093
 21
-40.6357
  0
LINE
  8
0
 10
-83.1093
 20
-40.6357
 11
-83.2059
 21
-40.6077
  0
LINE
  8
0
 10
-83.2059
 20
-40.6077
 11
-83.3004
 21
-40.5736
  0
LINE
  8
0
 10
-83.3004
 20
-40.5736
 11
-83.3927
 21
-40.5337
  0
LINE
  8
0
 10
-83.3927
 20
-40.5337
 11
-83.4822
 21
-40.4881
  0
LINE
  8
0
 10
-83.4822
 20
-40.4881
 11
-83.5688
 21
-40.4369
  0
LINE
  8
0
 10
-83.5688
 20
-40.4369
 11
-83.6519
 21
-40.3804
  0
LINE
  8
0
 10
-83.6519
 20
-40.3804
 11
-83.7313
 21
-40.3188
  0
LINE
  8
0
 10
-83.7313
 20
-40.3188
 11
-83.8067
 21
-40.2523
  0
LINE
  8
0
 10
-83.8067
 20
-40.2523
 11
-83.8778
 21
-40.1813
  0
LINE
  8
0
 10
-83.8778
 20
-40.1813
 11
-83.9443
 21
-40.1059
  0
LINE
  8
0
 10
-83.9443
 20
-40.1059
 11
-84.0059
 21
-40.0264
  0
LINE
  8
0
 10
-84.0059
 20
-40.0264
 11
-84.0624
 21
-39.9433
  0
LINE
  8
0
 10
-84.0624
 20
-39.9433
 11
-84.1135
 21
-39.8568
  0
LINE
  8
0
 10
-84.1135
 20
-39.8568
 11
-84.1592
 21
-39.7672
  0
LINE
  8
0
 10
-84.1592
 20
-39.7672
 11
-84.1991
 21
-39.675
  0
LINE
  8
0
 10
-84.1991
 20
-39.675
 11
-84.2331
 21
-39.5804
  0
LINE
  8
0
 10
-84.2331
 20
-39.5804
 11
-84.2612
 21
-39.4839
  0
LINE
  8
0
 10
-84.2612
 20
-39.4839
 11
-84.2831
 21
-39.3858
  0
LINE
  8
0
 10
-84.2831
 20
-39.3858
 11
-84.2988
 21
-39.2865
  0
LINE
  8
0
 10
-84.2988
 20
-39.2865
 11
-84.3083
 21
-39.1865
  0
LINE
  8
0
 10
-84.3083
 20
-39.1865
 11
-84.3114
 21
-39.086
  0
LINE
  8
0
 10
-84.3114
 20
-39.086
 11
-84.3083
 21
-38.9855
  0
LINE
  8
0
 10
-84.3083
 20
-38.9855
 11
-84.2988
 21
-38.8854
  0
LINE
  8
0
 10
-84.2988
 20
-38.8854
 11
-84.2831
 21
-38.7862
  0
LINE
  8
0
 10
-84.2831
 20
-38.7862
 11
-84.2612
 21
-38.6881
  0
LINE
  8
0
 10
-84.2612
 20
-38.6881
 11
-84.2331
 21
-38.5916
  0
LINE
  8
0
 10
-84.2331
 20
-38.5916
 11
-84.1991
 21
-38.497
  0
LINE
  8
0
 10
-84.1991
 20
-38.497
 11
-84.1592
 21
-38.4047
  0
LINE
  8
0
 10
-84.1592
 20
-38.4047
 11
-84.1135
 21
-38.3152
  0
LINE
  8
0
 10
-84.1135
 20
-38.3152
 11
-84.0624
 21
-38.2287
  0
LINE
  8
0
 10
-84.0624
 20
-38.2287
 11
-84.0059
 21
-38.1455
  0
LINE
  8
0
 10
-84.0059
 20
-38.1455
 11
-83.9443
 21
-38.0661
  0
LINE
  8
0
 10
-83.9443
 20
-38.0661
 11
-83.8778
 21
-37.9907
  0
LINE
  8
0
 10
-83.8778
 20
-37.9907
 11
-83.8067
 21
-37.9196
  0
LINE
  8
0
 10
-83.8067
 20
-37.9196
 11
-83.7313
 21
-37.8532
  0
LINE
  8
0
 10
-83.7313
 20
-37.8532
 11
-83.6519
 21
-37.7916
  0
LINE
  8
0
 10
-83.6519
 20
-37.7916
 11
-83.5688
 21
-37.7351
  0
LINE
  8
0
 10
-83.5688
 20
-37.7351
 11
-83.4822
 21
-37.6839
  0
LINE
  8
0
 10
-83.4822
 20
-37.6839
 11
-83.3927
 21
-37.6383
  0
LINE
  8
0
 10
-83.3927
 20
-37.6383
 11
-83.3004
 21
-37.5983
  0
LINE
  8
0
 10
-83.3004
 20
-37.5983
 11
-83.2059
 21
-37.5643
  0
LINE
  8
0
 10
-83.2059
 20
-37.5643
 11
-83.1093
 21
-37.5363
  0
LINE
  8
0
 10
-83.1093
 20
-37.5363
 11
-83.0113
 21
-37.5143
  0
LINE
  8
0
 10
-83.0113
 20
-37.5143
 11
-82.912
 21
-37.4986
  0
LINE
  8
0
 10
-82.912
 20
-37.4986
 11
-82.8119
 21
-37.4891
  0
LINE
  8
0
 10
-82.8119
 20
-37.4891
 11
-82.7114
 21
-37.486
  0
LINE
  8
0
 10
-82.7114
 20
-37.486
 11
-82.611
 21
-37.4891
  0
LINE
  8
0
 10
-82.611
 20
-37.4891
 11
-82.5109
 21
-37.4986
  0
LINE
  8
0
 10
-82.5109
 20
-37.4986
 11
-82.4116
 21
-37.5143
  0
LINE
  8
0
 10
-82.4116
 20
-37.5143
 11
-82.3135
 21
-37.5363
  0
LINE
  8
0
 10
-82.3135
 20
-37.5363
 11
-82.217
 21
-37.5643
  0
LINE
  8
0
 10
-82.217
 20
-37.5643
 11
-82.1224
 21
-37.5983
  0
LINE
  8
0
 10
-82.1224
 20
-37.5983
 11
-82.0302
 21
-37.6383
  0
LINE
  8
0
 10
-82.0302
 20
-37.6383
 11
-81.9406
 21
-37.6839
  0
LINE
  8
0
 10
-81.9406
 20
-37.6839
 11
-81.8541
 21
-37.7351
  0
LINE
  8
0
 10
-81.8541
 20
-37.7351
 11
-81.771
 21
-37.7916
  0
LINE
  8
0
 10
-81.771
 20
-37.7916
 11
-81.6915
 21
-37.8532
  0
LINE
  8
0
 10
-81.6915
 20
-37.8532
 11
-81.6162
 21
-37.9196
  0
LINE
  8
0
 10
-81.6162
 20
-37.9196
 11
-81.5451
 21
-37.9907
  0
LINE
  8
0
 10
-81.5451
 20
-37.9907
 11
-81.4786
 21
-38.0661
  0
LINE
  8
0
 10
-81.4786
 20
-38.0661
 11
-81.417
 21
-38.1455
  0
LINE
  8
0
 10
-81.417
 20
-38.1455
 11
-81.3605
 21
-38.2287
  0
LINE
  8
0
 10
-81.3605
 20
-38.2287
 11
-81.3093
 21
-38.3152
  0
LINE
  8
0
 10
-81.3093
 20
-38.3152
 11
-81.2637
 21
-38.4047
  0
LINE
  8
0
 10
-81.2637
 20
-38.4047
 11
-81.2238
 21
-38.497
  0
LINE
  8
0
 10
-81.2238
 20
-38.497
 11
-81.1897
 21
-38.5916
  0
LINE
  8
0
 10
-81.1897
 20
-38.5916
 11
-81.1617
 21
-38.6881
  0
LINE
  8
0
 10
-81.1617
 20
-38.6881
 11
-81.1398
 21
-38.7862
  0
LINE
  8
0
 10
-81.1398
 20
-38.7862
 11
-81.124
 21
-38.8854
  0
LINE
  8
0
 10
-81.124
 20
-38.8854
 11
-81.1146
 21
-38.9855
  0
LINE
  8
0
 10
-81.1146
 20
-38.9855
 11
-81.1114
 21
-39.086
  0
LINE
  8
0
 10
-81.1114
 20
-39.086
 11
-81.1146
 21
-39.1865
  0
LINE
  8
0
 10
-81.1146
 20
-39.1865
 11
-81.124
 21
-39.2865
  0
LINE
  8
0
 10
-81.124
 20
-39.2865
 11
-81.1398
 21
-39.3858
  0
LINE
  8
0
 10
-81.1398
 20
-39.3858
 11
-81.1617
 21
-39.4839
  0
LINE
  8
0
 10
-81.1617
 20
-39.4839
 11
-81.1897
 21
-39.5804
  0
LINE
  8
0
 10
-81.1897
 20
-39.5804
 11
-81.2238
 21
-39.675
  0
LINE
  8
0
 10
-81.2238
 20
-39.675
 11
-81.2637
 21
-39.7672
  0
LINE
  8
0
 10
-81.2637
 20
-39.7672
 11
-81.3093
 21
-39.8568
  0
LINE
  8
0
 10
-81.3093
 20
-39.8568
 11
-81.3605
 21
-39.9433
  0
LINE
  8
0
 10
-81.3605
 20
-39.9433
 11
-81.417
 21
-40.0264
  0
LINE
  8
0
 10
-81.417
 20
-40.0264
 11
-81.4786
 21
-40.1059
  0
LINE
  8
0
 10
-81.4786
 20
-40.1059
 11
-81.5451
 21
-40.1813
  0
LINE
  8
0
 10
-81.5451
 20
-40.1813
 11
-81.6162
 21
-40.2523
  0
LINE
  8
0
 10
-81.6162
 20
-40.2523
 11
-81.6915
 21
-40.3188
  0
LINE
  8
0
 10
-81.6915
 20
-40.3188
 11
-81.771
 21
-40.3804
  0
LINE
  8
0
 10
-81.771
 20
-40.3804
 11
-81.8541
 21
-40.4369
  0
LINE
  8
0
 10
-81.8541
 20
-40.4369
 11
-81.9406
 21
-40.4881
  0
LINE
  8
0
 10
-81.9406
 20
-40.4881
 11
-82.0302
 21
-40.5337
  0
LINE
  8
0
 10
-82.0302
 20
-40.5337
 11
-82.1224
 21
-40.5736
  0
LINE
  8
0
 10
-82.1224
 20
-40.5736
 11
-82.217
 21
-40.6077
  0
LINE
  8
0
 10
-82.217
 20
-40.6077
 11
-82.3135
 21
-40.6357
  0
LINE
  8
0
 10
-82.3135
 20
-40.6357
 11
-82.4116
 21
-40.6577
  0
LINE
  8
0
 10
-82.4116
 20
-40.6577
 11
-82.5109
 21
-40.6734
  0
LINE
  8
0
 10
-82.5109
 20
-40.6734
 11
-82.611
 21
-40.6828
  0
LINE
  8
0
 10
-82.611
 20
-40.6828
 11
-82.7114
 21
-40.686
  0
LINE
  8
0
 10
-82.7114
 20
-40.686
 11
-82.8119
 21
-40.6828
  0
LINE
  8
0
 10
18.2915
 20
-45.6465
 11
18.1633
 21
-45.6344
  0
LINE
  8
0
 10
18.1633
 20
-45.6344
 11
18.0361
 21
-45.6142
  0
LINE
  8
0
 10
18.0361
 20
-45.6142
 11
17.9104
 21
-45.5861
  0
LINE
  8
0
 10
17.9104
 20
-45.5861
 11
17.7868
 21
-45.5502
  0
LINE
  8
0
 10
17.7868
 20
-45.5502
 11
17.6656
 21
-45.5066
  0
LINE
  8
0
 10
17.6656
 20
-45.5066
 11
17.5474
 21
-45.4554
  0
LINE
  8
0
 10
17.5474
 20
-45.4554
 11
17.4327
 21
-45.397
  0
LINE
  8
0
 10
17.4327
 20
-45.397
 11
17.3218
 21
-45.3314
  0
LINE
  8
0
 10
17.3218
 20
-45.3314
 11
17.2153
 21
-45.259
  0
LINE
  8
0
 10
17.2153
 20
-45.259
 11
17.1135
 21
-45.1801
  0
LINE
  8
0
 10
17.1135
 20
-45.1801
 11
17.0169
 21
-45.0949
  0
LINE
  8
0
 10
17.0169
 20
-45.0949
 11
16.9259
 21
-45.0038
  0
LINE
  8
0
 10
16.9259
 20
-45.0038
 11
16.8407
 21
-44.9072
  0
LINE
  8
0
 10
16.8407
 20
-44.9072
 11
16.7618
 21
-44.8055
  0
LINE
  8
0
 10
16.7618
 20
-44.8055
 11
16.6894
 21
-44.699
  0
LINE
  8
0
 10
16.6894
 20
-44.699
 11
16.6238
 21
-44.5881
  0
LINE
  8
0
 10
16.6238
 20
-44.5881
 11
16.5654
 21
-44.4734
  0
LINE
  8
0
 10
16.5654
 20
-44.4734
 11
16.5142
 21
-44.3552
  0
LINE
  8
0
 10
16.5142
 20
-44.3552
 11
16.4706
 21
-44.234
  0
LINE
  8
0
 10
16.4706
 20
-44.234
 11
16.4347
 21
-44.1103
  0
LINE
  8
0
 10
16.4347
 20
-44.1103
 11
16.4066
 21
-43.9846
  0
LINE
  8
0
 10
16.4066
 20
-43.9846
 11
16.3864
 21
-43.8574
  0
LINE
  8
0
 10
16.3864
 20
-43.8574
 11
16.3743
 21
-43.7292
  0
LINE
  8
0
 10
16.3743
 20
-43.7292
 11
16.3703
 21
-43.6005
  0
LINE
  8
0
 10
16.3703
 20
-43.6005
 11
16.3743
 21
-43.4718
  0
LINE
  8
0
 10
16.3743
 20
-43.4718
 11
16.3864
 21
-43.3436
  0
LINE
  8
0
 10
16.3864
 20
-43.3436
 11
16.4066
 21
-43.2164
  0
LINE
  8
0
 10
16.4066
 20
-43.2164
 11
16.4347
 21
-43.0907
  0
LINE
  8
0
 10
16.4347
 20
-43.0907
 11
16.4706
 21
-42.967
  0
LINE
  8
0
 10
16.4706
 20
-42.967
 11
16.5142
 21
-42.8459
  0
LINE
  8
0
 10
16.5142
 20
-42.8459
 11
16.5654
 21
-42.7277
  0
LINE
  8
0
 10
16.5654
 20
-42.7277
 11
16.6238
 21
-42.6129
  0
LINE
  8
0
 10
16.6238
 20
-42.6129
 11
16.6894
 21
-42.5021
  0
LINE
  8
0
 10
16.6894
 20
-42.5021
 11
16.7618
 21
-42.3956
  0
LINE
  8
0
 10
16.7618
 20
-42.3956
 11
16.8407
 21
-42.2938
  0
LINE
  8
0
 10
16.8407
 20
-42.2938
 11
16.9259
 21
-42.1972
  0
LINE
  8
0
 10
16.9259
 20
-42.1972
 11
17.0169
 21
-42.1061
  0
LINE
  8
0
 10
17.0169
 20
-42.1061
 11
17.1135
 21
-42.021
  0
LINE
  8
0
 10
17.1135
 20
-42.021
 11
17.2153
 21
-41.942
  0
LINE
  8
0
 10
17.2153
 20
-41.942
 11
17.3218
 21
-41.8696
  0
LINE
  8
0
 10
17.3218
 20
-41.8696
 11
17.4327
 21
-41.8041
  0
LINE
  8
0
 10
17.4327
 20
-41.8041
 11
17.5474
 21
-41.7456
  0
LINE
  8
0
 10
17.5474
 20
-41.7456
 11
17.6656
 21
-41.6945
  0
LINE
  8
0
 10
17.6656
 20
-41.6945
 11
17.7868
 21
-41.6509
  0
LINE
  8
0
 10
17.7868
 20
-41.6509
 11
17.9104
 21
-41.6149
  0
LINE
  8
0
 10
17.9104
 20
-41.6149
 11
18.0361
 21
-41.5868
  0
LINE
  8
0
 10
18.0361
 20
-41.5868
 11
18.1633
 21
-41.5667
  0
LINE
  8
0
 10
18.1633
 20
-41.5667
 11
18.2915
 21
-41.5546
  0
LINE
  8
0
 10
18.2915
 20
-41.5546
 11
18.4203
 21
-41.5505
  0
LINE
  8
0
 10
18.4203
 20
-41.5505
 11
18.549
 21
-41.5546
  0
LINE
  8
0
 10
18.549
 20
-41.5546
 11
18.6772
 21
-41.5667
  0
LINE
  8
0
 10
18.6772
 20
-41.5667
 11
18.8044
 21
-41.5868
  0
LINE
  8
0
 10
18.8044
 20
-41.5868
 11
18.9301
 21
-41.6149
  0
LINE
  8
0
 10
18.9301
 20
-41.6149
 11
19.0537
 21
-41.6509
  0
LINE
  8
0
 10
19.0537
 20
-41.6509
 11
19.1749
 21
-41.6945
  0
LINE
  8
0
 10
19.1749
 20
-41.6945
 11
19.2931
 21
-41.7456
  0
LINE
  8
0
 10
19.2931
 20
-41.7456
 11
19.4078
 21
-41.8041
  0
LINE
  8
0
 10
19.4078
 20
-41.8041
 11
19.5187
 21
-41.8696
  0
LINE
  8
0
 10
19.5187
 20
-41.8696
 11
19.6252
 21
-41.942
  0
LINE
  8
0
 10
19.6252
 20
-41.942
 11
19.727
 21
-42.021
  0
LINE
  8
0
 10
19.727
 20
-42.021
 11
19.8236
 21
-42.1061
  0
LINE
  8
0
 10
19.8236
 20
-42.1061
 11
19.9146
 21
-42.1972
  0
LINE
  8
0
 10
19.9146
 20
-42.1972
 11
19.9998
 21
-42.2938
  0
LINE
  8
0
 10
19.9998
 20
-42.2938
 11
20.0787
 21
-42.3956
  0
LINE
  8
0
 10
20.0787
 20
-42.3956
 11
20.1511
 21
-42.5021
  0
LINE
  8
0
 10
20.1511
 20
-42.5021
 11
20.2167
 21
-42.6129
  0
LINE
  8
0
 10
20.2167
 20
-42.6129
 11
20.2752
 21
-42.7277
  0
LINE
  8
0
 10
20.2752
 20
-42.7277
 11
20.3263
 21
-42.8459
  0
LINE
  8
0
 10
20.3263
 20
-42.8459
 11
20.3699
 21
-42.967
  0
LINE
  8
0
 10
20.3699
 20
-42.967
 11
20.4058
 21
-43.0907
  0
LINE
  8
0
 10
20.4058
 20
-43.0907
 11
20.434
 21
-43.2164
  0
LINE
  8
0
 10
20.434
 20
-43.2164
 11
20.4541
 21
-43.3436
  0
LINE
  8
0
 10
20.4541
 20
-43.3436
 11
20.4662
 21
-43.4718
  0
LINE
  8
0
 10
20.4662
 20
-43.4718
 11
20.4703
 21
-43.6005
  0
LINE
  8
0
 10
20.4703
 20
-43.6005
 11
20.4662
 21
-43.7292
  0
LINE
  8
0
 10
20.4662
 20
-43.7292
 11
20.4541
 21
-43.8574
  0
LINE
  8
0
 10
20.4541
 20
-43.8574
 11
20.434
 21
-43.9846
  0
LINE
  8
0
 10
20.434
 20
-43.9846
 11
20.4058
 21
-44.1103
  0
LINE
  8
0
 10
20.4058
 20
-44.1103
 11
20.3699
 21
-44.234
  0
LINE
  8
0
 10
20.3699
 20
-44.234
 11
20.3263
 21
-44.3552
  0
LINE
  8
0
 10
20.3263
 20
-44.3552
 11
20.2752
 21
-44.4734
  0
LINE
  8
0
 10
20.2752
 20
-44.4734
 11
20.2167
 21
-44.5881
  0
LINE
  8
0
 10
20.2167
 20
-44.5881
 11
20.1511
 21
-44.699
  0
LINE
  8
0
 10
20.1511
 20
-44.699
 11
20.0787
 21
-44.8055
  0
LINE
  8
0
 10
20.0787
 20
-44.8055
 11
19.9998
 21
-44.9072
  0
LINE
  8
0
 10
19.9998
 20
-44.9072
 11
19.9146
 21
-45.0038
  0
LINE
  8
0
 10
19.9146
 20
-45.0038
 11
19.8236
 21
-45.0949
  0
LINE
  8
0
 10
19.8236
 20
-45.0949
 11
19.727
 21
-45.1801
  0
LINE
  8
0
 10
19.727
 20
-45.1801
 11
19.6252
 21
-45.259
  0
LINE
  8
0
 10
19.6252
 20
-45.259
 11
19.5187
 21
-45.3314
  0
LINE
  8
0
 10
19.5187
 20
-45.3314
 11
19.4078
 21
-45.397
  0
LINE
  8
0
 10
19.4078
 20
-45.397
 11
19.2931
 21
-45.4554
  0
LINE
  8
0
 10
19.2931
 20
-45.4554
 11
19.1749
 21
-45.5066
  0
LINE
  8
0
 10
19.1749
 20
-45.5066
 11
19.0537
 21
-45.5502
  0
LINE
  8
0
 10
19.0537
 20
-45.5502
 11
18.9301
 21
-45.5861
  0
LINE
  8
0
 10
18.9301
 20
-45.5861
 11
18.8044
 21
-45.6142
  0
LINE
  8
0
 10
18.8044
 20
-45.6142
 11
18.6772
 21
-45.6344
  0
LINE
  8
0
 10
18.6772
 20
-45.6344
 11
18.549
 21
-45.6465
  0
LINE
  8
0
 10
18.549
 20
-45.6465
 11
18.4203
 21
-45.6505
  0
LINE
  8
0
 10
18.4203
 20
-45.6505
 11
18.2915
 21
-45.6465
  0
LINE
  8
0
 10
-8.05746
 20
-47.5287
 11
-8.15127
 21
-47.5198
  0
LINE
  8
0
 10
-8.15127
 20
-47.5198
 11
-8.24435
 21
-47.5051
  0
LINE
  8
0
 10
-8.24435
 20
-47.5051
 11
-8.33631
 21
-47.4845
  0
LINE
  8
0
 10
-8.33631
 20
-47.4845
 11
-8.42679
 21
-47.4582
  0
LINE
  8
0
 10
-8.42679
 20
-47.4582
 11
-8.51546
 21
-47.4263
  0
LINE
  8
0
 10
-8.51546
 20
-47.4263
 11
-8.60193
 21
-47.3889
  0
LINE
  8
0
 10
-8.60193
 20
-47.3889
 11
-8.6859
 21
-47.3461
  0
LINE
  8
0
 10
-8.6859
 20
-47.3461
 11
-8.767
 21
-47.2982
  0
LINE
  8
0
 10
-8.767
 20
-47.2982
 11
-8.84495
 21
-47.2452
  0
LINE
  8
0
 10
-8.84495
 20
-47.2452
 11
-8.91941
 21
-47.1874
  0
LINE
  8
0
 10
-8.91941
 20
-47.1874
 11
-8.99009
 21
-47.1251
  0
LINE
  8
0
 10
-8.99009
 20
-47.1251
 11
-9.05672
 21
-47.0585
  0
LINE
  8
0
 10
-9.05672
 20
-47.0585
 11
-9.11904
 21
-46.9878
  0
LINE
  8
0
 10
-9.11904
 20
-46.9878
 11
-9.17679
 21
-46.9133
  0
LINE
  8
0
 10
-9.17679
 20
-46.9133
 11
-9.22976
 21
-46.8354
  0
LINE
  8
0
 10
-9.22976
 20
-46.8354
 11
-9.27773
 21
-46.7543
  0
LINE
  8
0
 10
-9.27773
 20
-46.7543
 11
-9.32052
 21
-46.6703
  0
LINE
  8
0
 10
-9.32052
 20
-46.6703
 11
-9.35793
 21
-46.5838
  0
LINE
  8
0
 10
-9.35793
 20
-46.5838
 11
-9.38985
 21
-46.4952
  0
LINE
  8
0
 10
-9.38985
 20
-46.4952
 11
-9.41614
 21
-46.4047
  0
LINE
  8
0
 10
-9.41614
 20
-46.4047
 11
-9.4367
 21
-46.3127
  0
LINE
  8
0
 10
-9.4367
 20
-46.3127
 11
-9.45144
 21
-46.2197
  0
LINE
  8
0
 10
-9.45144
 20
-46.2197
 11
-9.46032
 21
-46.1259
  0
LINE
  8
0
 10
-9.46032
 20
-46.1259
 11
-9.46328
 21
-46.0317
  0
LINE
  8
0
 10
-9.46328
 20
-46.0317
 11
-9.46032
 21
-45.9375
  0
LINE
  8
0
 10
-9.46032
 20
-45.9375
 11
-9.45144
 21
-45.8437
  0
LINE
  8
0
 10
-9.45144
 20
-45.8437
 11
-9.4367
 21
-45.7506
  0
LINE
  8
0
 10
-9.4367
 20
-45.7506
 11
-9.41614
 21
-45.6586
  0
LINE
  8
0
 10
-9.41614
 20
-45.6586
 11
-9.38985
 21
-45.5681
  0
LINE
  8
0
 10
-9.38985
 20
-45.5681
 11
-9.35793
 21
-45.4795
  0
LINE
  8
0
 10
-9.35793
 20
-45.4795
 11
-9.32052
 21
-45.393
  0
LINE
  8
0
 10
-9.32052
 20
-45.393
 11
-9.27773
 21
-45.309
  0
LINE
  8
0
 10
-9.27773
 20
-45.309
 11
-9.22976
 21
-45.2279
  0
LINE
  8
0
 10
-9.22976
 20
-45.2279
 11
-9.17679
 21
-45.15
  0
LINE
  8
0
 10
-9.17679
 20
-45.15
 11
-9.11904
 21
-45.0755
  0
LINE
  8
0
 10
-9.11904
 20
-45.0755
 11
-9.05672
 21
-45.0048
  0
LINE
  8
0
 10
-9.05672
 20
-45.0048
 11
-8.99009
 21
-44.9382
  0
LINE
  8
0
 10
-8.99009
 20
-44.9382
 11
-8.91941
 21
-44.8759
  0
LINE
  8
0
 10
-8.91941
 20
-44.8759
 11
-8.84495
 21
-44.8181
  0
LINE
  8
0
 10
-8.84495
 20
-44.8181
 11
-8.767
 21
-44.7652
  0
LINE
  8
0
 10
-8.767
 20
-44.7652
 11
-8.6859
 21
-44.7172
  0
LINE
  8
0
 10
-8.6859
 20
-44.7172
 11
-8.60193
 21
-44.6744
  0
LINE
  8
0
 10
-8.60193
 20
-44.6744
 11
-8.51546
 21
-44.637
  0
LINE
  8
0
 10
-8.51546
 20
-44.637
 11
-8.42679
 21
-44.6051
  0
LINE
  8
0
 10
-8.42679
 20
-44.6051
 11
-8.33631
 21
-44.5788
  0
LINE
  8
0
 10
-8.33631
 20
-44.5788
 11
-8.24435
 21
-44.5582
  0
LINE
  8
0
 10
-8.24435
 20
-44.5582
 11
-8.15127
 21
-44.5435
  0
LINE
  8
0
 10
-8.15127
 20
-44.5435
 11
-8.05746
 21
-44.5346
  0
LINE
  8
0
 10
-8.05746
 20
-44.5346
 11
-7.96328
 21
-44.5317
  0
LINE
  8
0
 10
-7.96328
 20
-44.5317
 11
-7.86909
 21
-44.5346
  0
LINE
  8
0
 10
-7.86909
 20
-44.5346
 11
-7.77527
 21
-44.5435
  0
LINE
  8
0
 10
-7.77527
 20
-44.5435
 11
-7.6822
 21
-44.5582
  0
LINE
  8
0
 10
-7.6822
 20
-44.5582
 11
-7.59023
 21
-44.5788
  0
LINE
  8
0
 10
-7.59023
 20
-44.5788
 11
-7.49975
 21
-44.6051
  0
LINE
  8
0
 10
-7.49975
 20
-44.6051
 11
-7.41108
 21
-44.637
  0
LINE
  8
0
 10
-7.41108
 20
-44.637
 11
-7.32461
 21
-44.6744
  0
LINE
  8
0
 10
-7.32461
 20
-44.6744
 11
-7.24064
 21
-44.7172
  0
LINE
  8
0
 10
-7.24064
 20
-44.7172
 11
-7.15954
 21
-44.7652
  0
LINE
  8
0
 10
-7.15954
 20
-44.7652
 11
-7.08159
 21
-44.8181
  0
LINE
  8
0
 10
-7.08159
 20
-44.8181
 11
-7.00713
 21
-44.8759
  0
LINE
  8
0
 10
-7.00713
 20
-44.8759
 11
-6.93645
 21
-44.9382
  0
LINE
  8
0
 10
-6.93645
 20
-44.9382
 11
-6.86982
 21
-45.0048
  0
LINE
  8
0
 10
-6.86982
 20
-45.0048
 11
-6.8075
 21
-45.0755
  0
LINE
  8
0
 10
-6.8075
 20
-45.0755
 11
-6.74975
 21
-45.15
  0
LINE
  8
0
 10
-6.74975
 20
-45.15
 11
-6.69678
 21
-45.2279
  0
LINE
  8
0
 10
-6.69678
 20
-45.2279
 11
-6.64881
 21
-45.309
  0
LINE
  8
0
 10
-6.64881
 20
-45.309
 11
-6.60602
 21
-45.393
  0
LINE
  8
0
 10
-6.60602
 20
-45.393
 11
-6.56861
 21
-45.4795
  0
LINE
  8
0
 10
-6.56861
 20
-45.4795
 11
-6.53669
 21
-45.5681
  0
LINE
  8
0
 10
-6.53669
 20
-45.5681
 11
-6.5104
 21
-45.6586
  0
LINE
  8
0
 10
-6.5104
 20
-45.6586
 11
-6.48984
 21
-45.7506
  0
LINE
  8
0
 10
-6.48984
 20
-45.7506
 11
-6.4751
 21
-45.8437
  0
LINE
  8
0
 10
-6.4751
 20
-45.8437
 11
-6.46624
 21
-45.9375
  0
LINE
  8
0
 10
-6.46624
 20
-45.9375
 11
-6.46328
 21
-46.0317
  0
LINE
  8
0
 10
-6.46328
 20
-46.0317
 11
-6.46624
 21
-46.1259
  0
LINE
  8
0
 10
-6.46624
 20
-46.1259
 11
-6.4751
 21
-46.2197
  0
LINE
  8
0
 10
-6.4751
 20
-46.2197
 11
-6.48984
 21
-46.3127
  0
LINE
  8
0
 10
-6.48984
 20
-46.3127
 11
-6.5104
 21
-46.4047
  0
LINE
  8
0
 10
-6.5104
 20
-46.4047
 11
-6.53669
 21
-46.4952
  0
LINE
  8
0
 10
-6.53669
 20
-46.4952
 11
-6.56861
 21
-46.5838
  0
LINE
  8
0
 10
-6.56861
 20
-46.5838
 11
-6.60602
 21
-46.6703
  0
LINE
  8
0
 10
-6.60602
 20
-46.6703
 11
-6.64881
 21
-46.7543
  0
LINE
  8
0
 10
-6.64881
 20
-46.7543
 11
-6.69678
 21
-46.8354
  0
LINE
  8
0
 10
-6.69678
 20
-46.8354
 11
-6.74975
 21
-46.9133
  0
LINE
  8
0
 10
-6.74975
 20
-46.9133
 11
-6.8075
 21
-46.9878
  0
LINE
  8
0
 10
-6.8075
 20
-46.9878
 11
-6.86982
 21
-47.0585
  0
LINE
  8
0
 10
-6.86982
 20
-47.0585
 11
-6.93645
 21
-47.1251
  0
LINE
  8
0
 10
-6.93645
 20
-47.1251
 11
-7.00713
 21
-47.1874
  0
LINE
  8
0
 10
-7.00713
 20
-47.1874
 11
-7.08159
 21
-47.2452
  0
LINE
  8
0
 10
-7.08159
 20
-47.2452
 11
-7.15954
 21
-47.2982
  0
LINE
  8
0
 10
-7.15954
 20
-47.2982
 11
-7.24064
 21
-47.3461
  0
LINE
  8
0
 10
-7.24064
 20
-47.3461
 11
-7.32461
 21
-47.3889
  0
LINE
  8
0
 10
-7.32461
 20
-47.3889
 11
-7.41108
 21
-47.4263
  0
LINE
  8
0
 10
-7.41108
 20
-47.4263
 11
-7.49975
 21
-47.4582
  0
LINE
  8
0
 10
-7.49975
 20
-47.4582
 11
-7.59023
 21
-47.4845
  0
LINE
  8
0
 10
-7.59023
 20
-47.4845
 11
-7.6822
 21
-47.5051
  0
LINE
  8
0
 10
-7.6822
 20
-47.5051
 11
-7.77527
 21
-47.5198
  0
LINE
  8
0
 10
-7.77527
 20
-47.5198
 11
-7.86909
 21
-47.5287
  0
LINE
  8
0
 10
-7.86909
 20
-47.5287
 11
-7.96328
 21
-47.5317
  0
LINE
  8
0
 10
-7.96328
 20
-47.5317
 11
-8.05746
 21
-47.5287
  0
LINE
  8
0
 10
-29.5204
 20
-58.4135
 11
-29.6486
 21
-58.4013
  0
LINE
  8
0
 10
-29.6486
 20
-58.4013
 11
-29.7758
 21
-58.3812
  0
LINE
  8
0
 10
-29.7758
 20
-58.3812
 11
-29.9015
 21
-58.3531
  0
LINE
  8
0
 10
-29.9015
 20
-58.3531
 11
-30.0252
 21
-58.3172
  0
LINE
  8
0
 10
-30.0252
 20
-58.3172
 11
-30.1464
 21
-58.2736
  0
LINE
  8
0
 10
-30.1464
 20
-58.2736
 11
-30.2645
 21
-58.2224
  0
LINE
  8
0
 10
-30.2645
 20
-58.2224
 11
-30.3793
 21
-58.1639
  0
LINE
  8
0
 10
-30.3793
 20
-58.1639
 11
-30.4901
 21
-58.0984
  0
LINE
  8
0
 10
-30.4901
 20
-58.0984
 11
-30.5967
 21
-58.026
  0
LINE
  8
0
 10
-30.5967
 20
-58.026
 11
-30.6984
 21
-57.9471
  0
LINE
  8
0
 10
-30.6984
 20
-57.9471
 11
-30.795
 21
-57.8619
  0
LINE
  8
0
 10
-30.795
 20
-57.8619
 11
-30.8861
 21
-57.7708
  0
LINE
  8
0
 10
-30.8861
 20
-57.7708
 11
-30.9713
 21
-57.6742
  0
LINE
  8
0
 10
-30.9713
 20
-57.6742
 11
-31.0502
 21
-57.5725
  0
LINE
  8
0
 10
-31.0502
 20
-57.5725
 11
-31.1226
 21
-57.466
  0
LINE
  8
0
 10
-31.1226
 20
-57.466
 11
-31.1881
 21
-57.3551
  0
LINE
  8
0
 10
-31.1881
 20
-57.3551
 11
-31.2466
 21
-57.2404
  0
LINE
  8
0
 10
-31.2466
 20
-57.2404
 11
-31.2977
 21
-57.1222
  0
LINE
  8
0
 10
-31.2977
 20
-57.1222
 11
-31.3414
 21
-57.001
  0
LINE
  8
0
 10
-31.3414
 20
-57.001
 11
-31.3773
 21
-56.8773
  0
LINE
  8
0
 10
-31.3773
 20
-56.8773
 11
-31.4054
 21
-56.7516
  0
LINE
  8
0
 10
-31.4054
 20
-56.7516
 11
-31.4255
 21
-56.6244
  0
LINE
  8
0
 10
-31.4255
 20
-56.6244
 11
-31.4377
 21
-56.4962
  0
LINE
  8
0
 10
-31.4377
 20
-56.4962
 11
-31.4417
 21
-56.3675
  0
LINE
  8
0
 10
-31.4417
 20
-56.3675
 11
-31.4377
 21
-56.2388
  0
LINE
  8
0
 10
-31.4377
 20
-56.2388
 11
-31.4255
 21
-56.1106
  0
LINE
  8
0
 10
-31.4255
 20
-56.1106
 11
-31.4054
 21
-55.9834
  0
LINE
  8
0
 10
-31.4054
 20
-55.9834
 11
-31.3773
 21
-55.8577
  0
LINE
  8
0
 10
-31.3773
 20
-55.8577
 11
-31.3414
 21
-55.734
  0
LINE
  8
0
 10
-31.3414
 20
-55.734
 11
-31.2977
 21
-55.6129
  0
LINE
  8
0
 10
-31.2977
 20
-55.6129
 11
-31.2466
 21
-55.4947
  0
LINE
  8
0
 10
-31.2466
 20
-55.4947
 11
-31.1881
 21
-55.3799
  0
LINE
  8
0
 10
-31.1881
 20
-55.3799
 11
-31.1226
 21
-55.2691
  0
LINE
  8
0
 10
-31.1226
 20
-55.2691
 11
-31.0502
 21
-55.1625
  0
LINE
  8
0
 10
-31.0502
 20
-55.1625
 11
-30.9713
 21
-55.0608
  0
LINE
  8
0
 10
-30.9713
 20
-55.0608
 11
-30.8861
 21
-54.9642
  0
LINE
  8
0
 10
-30.8861
 20
-54.9642
 11
-30.795
 21
-54.8731
  0
LINE
  8
0
 10
-30.795
 20
-54.8731
 11
-30.6984
 21
-54.788
  0
LINE
  8
0
 10
-30.6984
 20
-54.788
 11
-30.5967
 21
-54.709
  0
LINE
  8
0
 10
-30.5967
 20
-54.709
 11
-30.4901
 21
-54.6366
  0
LINE
  8
0
 10
-30.4901
 20
-54.6366
 11
-30.3793
 21
-54.5711
  0
LINE
  8
0
 10
-30.3793
 20
-54.5711
 11
-30.2645
 21
-54.5126
  0
LINE
  8
0
 10
-30.2645
 20
-54.5126
 11
-30.1464
 21
-54.4615
  0
LINE
  8
0
 10
-30.1464
 20
-54.4615
 11
-30.0252
 21
-54.4178
  0
LINE
  8
0
 10
-30.0252
 20
-54.4178
 11
-29.9015
 21
-54.3819
  0
LINE
  8
0
 10
-29.9015
 20
-54.3819
 11
-29.7758
 21
-54.3538
  0
LINE
  8
0
 10
-29.7758
 20
-54.3538
 11
-29.6486
 21
-54.3337
  0
LINE
  8
0
 10
-29.6486
 20
-54.3337
 11
-29.5204
 21
-54.3216
  0
LINE
  8
0
 10
-29.5204
 20
-54.3216
 11
-29.3917
 21
-54.3175
  0
LINE
  8
0
 10
-29.3917
 20
-54.3175
 11
-29.263
 21
-54.3216
  0
LINE
  8
0
 10
-29.263
 20
-54.3216
 11
-29.1348
 21
-54.3337
  0
LINE
  8
0
 10
-29.1348
 20
-54.3337
 11
-29.0076
 21
-54.3538
  0
LINE
  8
0
 10
-29.0076
 20
-54.3538
 11
-28.8819
 21
-54.3819
  0
LINE
  8
0
 10
-28.8819
 20
-54.3819
 11
-28.7582
 21
-54.4178
  0
LINE
  8
0
 10
-28.7582
 20
-54.4178
 11
-28.637
 21
-54.4615
  0
LINE
  8
0
 10
-28.637
 20
-54.4615
 11
-28.5189
 21
-54.5126
  0
LINE
  8
0
 10
-28.5189
 20
-54.5126
 11
-28.4041
 21
-54.5711
  0
LINE
  8
0
 10
-28.4041
 20
-54.5711
 11
-28.2932
 21
-54.6366
  0
LINE
  8
0
 10
-28.2932
 20
-54.6366
 11
-28.1867
 21
-54.709
  0
LINE
  8
0
 10
-28.1867
 20
-54.709
 11
-28.085
 21
-54.788
  0
LINE
  8
0
 10
-28.085
 20
-54.788
 11
-27.9884
 21
-54.8731
  0
LINE
  8
0
 10
-27.9884
 20
-54.8731
 11
-27.8973
 21
-54.9642
  0
LINE
  8
0
 10
-27.8973
 20
-54.9642
 11
-27.8122
 21
-55.0608
  0
LINE
  8
0
 10
-27.8122
 20
-55.0608
 11
-27.7332
 21
-55.1625
  0
LINE
  8
0
 10
-27.7332
 20
-55.1625
 11
-27.6608
 21
-55.2691
  0
LINE
  8
0
 10
-27.6608
 20
-55.2691
 11
-27.5953
 21
-55.3799
  0
LINE
  8
0
 10
-27.5953
 20
-55.3799
 11
-27.5368
 21
-55.4947
  0
LINE
  8
0
 10
-27.5368
 20
-55.4947
 11
-27.4857
 21
-55.6129
  0
LINE
  8
0
 10
-27.4857
 20
-55.6129
 11
-27.442
 21
-55.734
  0
LINE
  8
0
 10
-27.442
 20
-55.734
 11
-27.4061
 21
-55.8577
  0
LINE
  8
0
 10
-27.4061
 20
-55.8577
 11
-27.378
 21
-55.9834
  0
LINE
  8
0
 10
-27.378
 20
-55.9834
 11
-27.3579
 21
-56.1106
  0
LINE
  8
0
 10
-27.3579
 20
-56.1106
 11
-27.3457
 21
-56.2388
  0
LINE
  8
0
 10
-27.3457
 20
-56.2388
 11
-27.3417
 21
-56.3675
  0
LINE
  8
0
 10
-27.3417
 20
-56.3675
 11
-27.3457
 21
-56.4962
  0
LINE
  8
0
 10
-27.3457
 20
-56.4962
 11
-27.3579
 21
-56.6244
  0
LINE
  8
0
 10
-27.3579
 20
-56.6244
 11
-27.378
 21
-56.7516
  0
LINE
  8
0
 10
-27.378
 20
-56.7516
 11
-27.4061
 21
-56.8773
  0
LINE
  8
0
 10
-27.4061
 20
-56.8773
 11
-27.442
 21
-57.001
  0
LINE
  8
0
 10
-27.442
 20
-57.001
 11
-27.4857
 21
-57.1222
  0
LINE
  8
0
 10
-27.4857
 20
-57.1222
 11
-27.5368
 21
-57.2404
  0
LINE
  8
0
 10
-27.5368
 20
-57.2404
 11
-27.5953
 21
-57.3551
  0
LINE
  8
0
 10
-27.5953
 20
-57.3551
 11
-27.6608
 21
-57.466
  0
LINE
  8
0
 10
-27.6608
 20
-57.466
 11
-27.7332
 21
-57.5725
  0
LINE
  8
0
 10
-27.7332
 20
-57.5725
 11
-27.8122
 21
-57.6742
  0
LINE
  8
0
 10
-27.8122
 20
-57.6742
 11
-27.8973
 21
-57.7708
  0
LINE
  8
0
 10
-27.8973
 20
-57.7708
 11
-27.9884
 21
-57.8619
  0
LINE
  8
0
 10
-27.9884
 20
-57.8619
 11
-28.085
 21
-57.9471
  0
LINE
  8
0
 10
-28.085
 20
-57.9471
 11
-28.1867
 21
-58.026
  0
LINE
  8
0
 10
-28.1867
 20
-58.026
 11
-28.2932
 21
-58.0984
  0
LINE
  8
0
 10
-28.2932
 20
-58.0984
 11
-28.4041
 21
-58.1639
  0
LINE
  8
0
 10
-28.4041
 20
-58.1639
 11
-28.5189
 21
-58.2224
  0
LINE
  8
0
 10
-28.5189
 20
-58.2224
 11
-28.637
 21
-58.2736
  0
LINE
  8
0
 10
-28.637
 20
-58.2736
 11
-28.7582
 21
-58.3172
  0
LINE
  8
0
 10
-28.7582
 20
-58.3172
 11
-28.8819
 21
-58.3531
  0
LINE
  8
0
 10
-28.8819
 20
-58.3531
 11
-29.0076
 21
-58.3812
  0
LINE
  8
0
 10
-29.0076
 20
-58.3812
 11
-29.1348
 21
-58.4013
  0
LINE
  8
0
 10
-29.1348
 20
-58.4013
 11
-29.263
 21
-58.4135
  0
LINE
  8
0
 10
-29.263
 20
-58.4135
 11
-29.3917
 21
-58.4175
  0
LINE
  8
0
 10
-29.3917
 20
-58.4175
 11
-29.5204
 21
-58.4135
  0
LINE
  8
0
 10
-65.4807
 20
-58.4914
 11
-65.6089
 21
-58.4793
  0
LINE
  8
0
 10
-65.6089
 20
-58.4793
 11
-65.7361
 21
-58.4591
  0
LINE
  8
0
 10
-65.7361
 20
-58.4591
 11
-65.8618
 21
-58.4311
  0
LINE
  8
0
 10
-65.8618
 20
-58.4311
 11
-65.9854
 21
-58.3951
  0
LINE
  8
0
 10
-65.9854
 20
-58.3951
 11
-66.1066
 21
-58.3515
  0
LINE
  8
0
 10
-66.1066
 20
-58.3515
 11
-66.2248
 21
-58.3004
  0
LINE
  8
0
 10
-66.2248
 20
-58.3004
 11
-66.3396
 21
-58.2419
  0
LINE
  8
0
 10
-66.3396
 20
-58.2419
 11
-66.4504
 21
-58.1763
  0
LINE
  8
0
 10
-66.4504
 20
-58.1763
 11
-66.5569
 21
-58.1039
  0
LINE
  8
0
 10
-66.5569
 20
-58.1039
 11
-66.6587
 21
-58.025
  0
LINE
  8
0
 10
-66.6587
 20
-58.025
 11
-66.7553
 21
-57.9398
  0
LINE
  8
0
 10
-66.7553
 20
-57.9398
 11
-66.8464
 21
-57.8488
  0
LINE
  8
0
 10
-66.8464
 20
-57.8488
 11
-66.9315
 21
-57.7522
  0
LINE
  8
0
 10
-66.9315
 20
-57.7522
 11
-67.0104
 21
-57.6504
  0
LINE
  8
0
 10
-67.0104
 20
-57.6504
 11
-67.0828
 21
-57.5439
  0
LINE
  8
0
 10
-67.0828
 20
-57.5439
 11
-67.1484
 21
-57.4331
  0
LINE
  8
0
 10
-67.1484
 20
-57.4331
 11
-67.2069
 21
-57.3183
  0
LINE
  8
0
 10
-67.2069
 20
-57.3183
 11
-67.258
 21
-57.2001
  0
LINE
  8
0
 10
-67.258
 20
-57.2001
 11
-67.3016
 21
-57.0789
  0
LINE
  8
0
 10
-67.3016
 20
-57.0789
 11
-67.3376
 21
-56.9553
  0
LINE
  8
0
 10
-67.3376
 20
-56.9553
 11
-67.3657
 21
-56.8296
  0
LINE
  8
0
 10
-67.3657
 20
-56.8296
 11
-67.3858
 21
-56.7024
  0
LINE
  8
0
 10
-67.3858
 20
-56.7024
 11
-67.3979
 21
-56.5742
  0
LINE
  8
0
 10
-67.3979
 20
-56.5742
 11
-67.402
 21
-56.4455
  0
LINE
  8
0
 10
-67.402
 20
-56.4455
 11
-67.3979
 21
-56.3167
  0
LINE
  8
0
 10
-67.3979
 20
-56.3167
 11
-67.3858
 21
-56.1885
  0
LINE
  8
0
 10
-67.3858
 20
-56.1885
 11
-67.3657
 21
-56.0613
  0
LINE
  8
0
 10
-67.3657
 20
-56.0613
 11
-67.3376
 21
-55.9357
  0
LINE
  8
0
 10
-67.3376
 20
-55.9357
 11
-67.3016
 21
-55.812
  0
LINE
  8
0
 10
-67.3016
 20
-55.812
 11
-67.258
 21
-55.6908
  0
LINE
  8
0
 10
-67.258
 20
-55.6908
 11
-67.2069
 21
-55.5726
  0
LINE
  8
0
 10
-67.2069
 20
-55.5726
 11
-67.1484
 21
-55.4579
  0
LINE
  8
0
 10
-67.1484
 20
-55.4579
 11
-67.0828
 21
-55.347
  0
LINE
  8
0
 10
-67.0828
 20
-55.347
 11
-67.0104
 21
-55.2405
  0
LINE
  8
0
 10
-67.0104
 20
-55.2405
 11
-66.9315
 21
-55.1387
  0
LINE
  8
0
 10
-66.9315
 20
-55.1387
 11
-66.8464
 21
-55.0421
  0
LINE
  8
0
 10
-66.8464
 20
-55.0421
 11
-66.7553
 21
-54.9511
  0
LINE
  8
0
 10
-66.7553
 20
-54.9511
 11
-66.6587
 21
-54.8659
  0
LINE
  8
0
 10
-66.6587
 20
-54.8659
 11
-66.5569
 21
-54.787
  0
LINE
  8
0
 10
-66.5569
 20
-54.787
 11
-66.4504
 21
-54.7146
  0
LINE
  8
0
 10
-66.4504
 20
-54.7146
 11
-66.3396
 21
-54.649
  0
LINE
  8
0
 10
-66.3396
 20
-54.649
 11
-66.2248
 21
-54.5906
  0
LINE
  8
0
 10
-66.2248
 20
-54.5906
 11
-66.1066
 21
-54.5394
  0
LINE
  8
0
 10
-66.1066
 20
-54.5394
 11
-65.9854
 21
-54.4958
  0
LINE
  8
0
 10
-65.9854
 20
-54.4958
 11
-65.8618
 21
-54.4599
  0
LINE
  8
0
 10
-65.8618
 20
-54.4599
 11
-65.7361
 21
-54.4318
  0
LINE
  8
0
 10
-65.7361
 20
-54.4318
 11
-65.6089
 21
-54.4116
  0
LINE
  8
0
 10
-65.6089
 20
-54.4116
 11
-65.4807
 21
-54.3995
  0
LINE
  8
0
 10
-65.4807
 20
-54.3995
 11
-65.352
 21
-54.3955
  0
LINE
  8
0
 10
-65.352
 20
-54.3955
 11
-65.2232
 21
-54.3995
  0
LINE
  8
0
 10
-65.2232
 20
-54.3995
 11
-65.095
 21
-54.4116
  0
LINE
  8
0
 10
-65.095
 20
-54.4116
 11
-64.9678
 21
-54.4318
  0
LINE
  8
0
 10
-64.9678
 20
-54.4318
 11
-64.8422
 21
-54.4599
  0
LINE
  8
0
 10
-64.8422
 20
-54.4599
 11
-64.7185
 21
-54.4958
  0
LINE
  8
0
 10
-64.7185
 20
-54.4958
 11
-64.5973
 21
-54.5394
  0
LINE
  8
0
 10
-64.5973
 20
-54.5394
 11
-64.4791
 21
-54.5906
  0
LINE
  8
0
 10
-64.4791
 20
-54.5906
 11
-64.3644
 21
-54.649
  0
LINE
  8
0
 10
-64.3644
 20
-54.649
 11
-64.2535
 21
-54.7146
  0
LINE
  8
0
 10
-64.2535
 20
-54.7146
 11
-64.147
 21
-54.787
  0
LINE
  8
0
 10
-64.147
 20
-54.787
 11
-64.0452
 21
-54.8659
  0
LINE
  8
0
 10
-64.0452
 20
-54.8659
 11
-63.9486
 21
-54.9511
  0
LINE
  8
0
 10
-63.9486
 20
-54.9511
 11
-63.8576
 21
-55.0421
  0
LINE
  8
0
 10
-63.8576
 20
-55.0421
 11
-63.7724
 21
-55.1387
  0
LINE
  8
0
 10
-63.7724
 20
-55.1387
 11
-63.6935
 21
-55.2405
  0
LINE
  8
0
 10
-63.6935
 20
-55.2405
 11
-63.6211
 21
-55.347
  0
LINE
  8
0
 10
-63.6211
 20
-55.347
 11
-63.5555
 21
-55.4579
  0
LINE
  8
0
 10
-63.5555
 20
-55.4579
 11
-63.4971
 21
-55.5726
  0
LINE
  8
0
 10
-63.4971
 20
-55.5726
 11
-63.4459
 21
-55.6908
  0
LINE
  8
0
 10
-63.4459
 20
-55.6908
 11
-63.4023
 21
-55.812
  0
LINE
  8
0
 10
-63.4023
 20
-55.812
 11
-63.3664
 21
-55.9357
  0
LINE
  8
0
 10
-63.3664
 20
-55.9357
 11
-63.3383
 21
-56.0613
  0
LINE
  8
0
 10
-63.3383
 20
-56.0613
 11
-63.3181
 21
-56.1885
  0
LINE
  8
0
 10
-63.3181
 20
-56.1885
 11
-63.306
 21
-56.3167
  0
LINE
  8
0
 10
-63.306
 20
-56.3167
 11
-63.302
 21
-56.4455
  0
LINE
  8
0
 10
-63.302
 20
-56.4455
 11
-63.306
 21
-56.5742
  0
LINE
  8
0
 10
-63.306
 20
-56.5742
 11
-63.3181
 21
-56.7024
  0
LINE
  8
0
 10
-63.3181
 20
-56.7024
 11
-63.3383
 21
-56.8296
  0
LINE
  8
0
 10
-63.3383
 20
-56.8296
 11
-63.3664
 21
-56.9553
  0
LINE
  8
0
 10
-63.3664
 20
-56.9553
 11
-63.4023
 21
-57.0789
  0
LINE
  8
0
 10
-63.4023
 20
-57.0789
 11
-63.4459
 21
-57.2001
  0
LINE
  8
0
 10
-63.4459
 20
-57.2001
 11
-63.4971
 21
-57.3183
  0
LINE
  8
0
 10
-63.4971
 20
-57.3183
 11
-63.5555
 21
-57.4331
  0
LINE
  8
0
 10
-63.5555
 20
-57.4331
 11
-63.6211
 21
-57.5439
  0
LINE
  8
0
 10
-63.6211
 20
-57.5439
 11
-63.6935
 21
-57.6504
  0
LINE
  8
0
 10
-63.6935
 20
-57.6504
 11
-63.7724
 21
-57.7522
  0
LINE
  8
0
 10
-63.7724
 20
-57.7522
 11
-63.8576
 21
-57.8488
  0
LINE
  8
0
 10
-63.8576
 20
-57.8488
 11
-63.9486
 21
-57.9398
  0
LINE
  8
0
 10
-63.9486
 20
-57.9398
 11
-64.0452
 21
-58.025
  0
LINE
  8
0
 10
-64.0452
 20
-58.025
 11
-64.147
 21
-58.1039
  0
LINE
  8
0
 10
-64.147
 20
-58.1039
 11
-64.2535
 21
-58.1763
  0
LINE
  8
0
 10
-64.2535
 20
-58.1763
 11
-64.3644
 21
-58.2419
  0
LINE
  8
0
 10
-64.3644
 20
-58.2419
 11
-64.4791
 21
-58.3004
  0
LINE
  8
0
 10
-64.4791
 20
-58.3004
 11
-64.5973
 21
-58.3515
  0
LINE
  8
0
 10
-64.5973
 20
-58.3515
 11
-64.7185
 21
-58.3951
  0
LINE
  8
0
 10
-64.7185
 20
-58.3951
 11
-64.8422
 21
-58.4311
  0
LINE
  8
0
 10
-64.8422
 20
-58.4311
 11
-64.9678
 21
-58.4591
  0
LINE
  8
0
 10
-64.9678
 20
-58.4591
 11
-65.095
 21
-58.4793
  0
LINE
  8
0
 10
-65.095
 20
-58.4793
 11
-65.2232
 21
-58.4914
  0
LINE
  8
0
 10
-65.2232
 20
-58.4914
 11
-65.352
 21
-58.4955
  0
LINE
  8
0
 10
-65.352
 20
-58.4955
 11
-65.4807
 21
-58.4914
  0
LINE
  8
0
 10
-48.093
 20
-75.4018
 11
-48.193
 21
-75.3923
  0
LINE
  8
0
 10
-48.193
 20
-75.3923
 11
-48.2923
 21
-75.3766
  0
LINE
  8
0
 10
-48.2923
 20
-75.3766
 11
-48.3904
 21
-75.3547
  0
LINE
  8
0
 10
-48.3904
 20
-75.3547
 11
-48.4869
 21
-75.3266
  0
LINE
  8
0
 10
-48.4869
 20
-75.3266
 11
-48.5815
 21
-75.2926
  0
LINE
  8
0
 10
-48.5815
 20
-75.2926
 11
-48.6737
 21
-75.2527
  0
LINE
  8
0
 10
-48.6737
 20
-75.2527
 11
-48.7633
 21
-75.207
  0
LINE
  8
0
 10
-48.7633
 20
-75.207
 11
-48.8498
 21
-75.1559
  0
LINE
  8
0
 10
-48.8498
 20
-75.1559
 11
-48.9329
 21
-75.0994
  0
LINE
  8
0
 10
-48.9329
 20
-75.0994
 11
-49.0124
 21
-75.0377
  0
LINE
  8
0
 10
-49.0124
 20
-75.0377
 11
-49.0878
 21
-74.9713
  0
LINE
  8
0
 10
-49.0878
 20
-74.9713
 11
-49.1588
 21
-74.9002
  0
LINE
  8
0
 10
-49.1588
 20
-74.9002
 11
-49.2253
 21
-74.8248
  0
LINE
  8
0
 10
-49.2253
 20
-74.8248
 11
-49.2869
 21
-74.7454
  0
LINE
  8
0
 10
-49.2869
 20
-74.7454
 11
-49.3434
 21
-74.6623
  0
LINE
  8
0
 10
-49.3434
 20
-74.6623
 11
-49.3946
 21
-74.5757
  0
LINE
  8
0
 10
-49.3946
 20
-74.5757
 11
-49.4402
 21
-74.4862
  0
LINE
  8
0
 10
-49.4402
 20
-74.4862
 11
-49.4801
 21
-74.3939
  0
LINE
  8
0
 10
-49.4801
 20
-74.3939
 11
-49.5142
 21
-74.2994
  0
LINE
  8
0
 10
-49.5142
 20
-74.2994
 11
-49.5422
 21
-74.2028
  0
LINE
  8
0
 10
-49.5422
 20
-74.2028
 11
-49.5642
 21
-74.1047
  0
LINE
  8
0
 10
-49.5642
 20
-74.1047
 11
-49.5799
 21
-74.0055
  0
LINE
  8
0
 10
-49.5799
 20
-74.0055
 11
-49.5893
 21
-73.9054
  0
LINE
  8
0
 10
-49.5893
 20
-73.9054
 11
-49.5925
 21
-73.8049
  0
LINE
  8
0
 10
-49.5925
 20
-73.8049
 11
-49.5893
 21
-73.7045
  0
LINE
  8
0
 10
-49.5893
 20
-73.7045
 11
-49.5799
 21
-73.6044
  0
LINE
  8
0
 10
-49.5799
 20
-73.6044
 11
-49.5642
 21
-73.5051
  0
LINE
  8
0
 10
-49.5642
 20
-73.5051
 11
-49.5422
 21
-73.407
  0
LINE
  8
0
 10
-49.5422
 20
-73.407
 11
-49.5142
 21
-73.3105
  0
LINE
  8
0
 10
-49.5142
 20
-73.3105
 11
-49.4801
 21
-73.2159
  0
LINE
  8
0
 10
-49.4801
 20
-73.2159
 11
-49.4402
 21
-73.1237
  0
LINE
  8
0
 10
-49.4402
 20
-73.1237
 11
-49.3946
 21
-73.0341
  0
LINE
  8
0
 10
-49.3946
 20
-73.0341
 11
-49.3434
 21
-72.9476
  0
LINE
  8
0
 10
-49.3434
 20
-72.9476
 11
-49.2869
 21
-72.8645
  0
LINE
  8
0
 10
-49.2869
 20
-72.8645
 11
-49.2253
 21
-72.785
  0
LINE
  8
0
 10
-49.2253
 20
-72.785
 11
-49.1588
 21
-72.7097
  0
LINE
  8
0
 10
-49.1588
 20
-72.7097
 11
-49.0878
 21
-72.6386
  0
LINE
  8
0
 10
-49.0878
 20
-72.6386
 11
-49.0124
 21
-72.5721
  0
LINE
  8
0
 10
-49.0124
 20
-72.5721
 11
-48.9329
 21
-72.5105
  0
LINE
  8
0
 10
-48.9329
 20
-72.5105
 11
-48.8498
 21
-72.454
  0
LINE
  8
0
 10
-48.8498
 20
-72.454
 11
-48.7633
 21
-72.4028
  0
LINE
  8
0
 10
-48.7633
 20
-72.4028
 11
-48.6737
 21
-72.3572
  0
LINE
  8
0
 10
-48.6737
 20
-72.3572
 11
-48.5815
 21
-72.3173
  0
LINE
  8
0
 10
-48.5815
 20
-72.3173
 11
-48.4869
 21
-72.2832
  0
LINE
  8
0
 10
-48.4869
 20
-72.2832
 11
-48.3904
 21
-72.2552
  0
LINE
  8
0
 10
-48.3904
 20
-72.2552
 11
-48.2923
 21
-72.2333
  0
LINE
  8
0
 10
-48.2923
 20
-72.2333
 11
-48.193
 21
-72.2175
  0
LINE
  8
0
 10
-48.193
 20
-72.2175
 11
-48.093
 21
-72.2081
  0
LINE
  8
0
 10
-48.093
 20
-72.2081
 11
-47.9925
 21
-72.2049
  0
LINE
  8
0
 10
-47.9925
 20
-72.2049
 11
-47.892
 21
-72.2081
  0
LINE
  8
0
 10
-47.892
 20
-72.2081
 11
-47.792
 21
-72.2175
  0
LINE
  8
0
 10
-47.792
 20
-72.2175
 11
-47.6927
 21
-72.2333
  0
LINE
  8
0
 10
-47.6927
 20
-72.2333
 11
-47.5946
 21
-72.2552
  0
LINE
  8
0
 10
-47.5946
 20
-72.2552
 11
-47.4981
 21
-72.2832
  0
LINE
  8
0
 10
-47.4981
 20
-72.2832
 11
-47.4035
 21
-72.3173
  0
LINE
  8
0
 10
-47.4035
 20
-72.3173
 11
-47.3112
 21
-72.3572
  0
LINE
  8
0
 10
-47.3112
 20
-72.3572
 11
-47.2217
 21
-72.4028
  0
LINE
  8
0
 10
-47.2217
 20
-72.4028
 11
-47.1352
 21
-72.454
  0
LINE
  8
0
 10
-47.1352
 20
-72.454
 11
-47.052
 21
-72.5105
  0
LINE
  8
0
 10
-47.052
 20
-72.5105
 11
-46.9726
 21
-72.5721
  0
LINE
  8
0
 10
-46.9726
 20
-72.5721
 11
-46.8972
 21
-72.6386
  0
LINE
  8
0
 10
-46.8972
 20
-72.6386
 11
-46.8261
 21
-72.7097
  0
LINE
  8
0
 10
-46.8261
 20
-72.7097
 11
-46.7597
 21
-72.785
  0
LINE
  8
0
 10
-46.7597
 20
-72.785
 11
-46.6981
 21
-72.8645
  0
LINE
  8
0
 10
-46.6981
 20
-72.8645
 11
-46.6416
 21
-72.9476
  0
LINE
  8
0
 10
-46.6416
 20
-72.9476
 11
-46.5904
 21
-73.0341
  0
LINE
  8
0
 10
-46.5904
 20
-73.0341
 11
-46.5448
 21
-73.1237
  0
LINE
  8
0
 10
-46.5448
 20
-73.1237
 11
-46.5048
 21
-73.2159
  0
LINE
  8
0
 10
-46.5048
 20
-73.2159
 11
-46.4708
 21
-73.3105
  0
LINE
  8
0
 10
-46.4708
 20
-73.3105
 11
-46.4428
 21
-73.407
  0
LINE
  8
0
 10
-46.4428
 20
-73.407
 11
-46.4208
 21
-73.5051
  0
LINE
  8
0
 10
-46.4208
 20
-73.5051
 11
-46.4051
 21
-73.6044
  0
LINE
  8
0
 10
-46.4051
 20
-73.6044
 11
-46.3957
 21
-73.7045
  0
LINE
  8
0
 10
-46.3957
 20
-73.7045
 11
-46.3925
 21
-73.8049
  0
LINE
  8
0
 10
-46.3925
 20
-73.8049
 11
-46.3957
 21
-73.9054
  0
LINE
  8
0
 10
-46.3957
 20
-73.9054
 11
-46.4051
 21
-74.0055
  0
LINE
  8
0
 10
-46.4051
 20
-74.0055
 11
-46.4208
 21
-74.1047
  0
LINE
  8
0
 10
-46.4208
 20
-74.1047
 11
-46.4428
 21
-74.2028
  0
LINE
  8
0
 10
-46.4428
 20
-74.2028
 11
-46.4708
 21
-74.2994
  0
LINE
  8
0
 10
-46.4708
 20
-74.2994
 11
-46.5048
 21
-74.3939
  0
LINE
  8
0
 10
-46.5048
 20
-74.3939
 11
-46.5448
 21
-74.4862
  0
LINE
  8
0
 10
-46.5448
 20
-74.4862
 11
-46.5904
 21
-74.5757
  0
LINE
  8
0
 10
-46.5904
 20
-74.5757
 11
-46.6416
 21
-74.6623
  0
LINE
  8
0
 10
-46.6416
 20
-74.6623
 11
-46.6981
 21
-74.7454
  0
LINE
  8
0
 10
-46.6981
 20
-74.7454
 11
-46.7597
 21
-74.8248
  0
LINE
  8
0
 10
-46.7597
 20
-74.8248
 11
-46.8261
 21
-74.9002
  0
LINE
  8
0
 10
-46.8261
 20
-74.9002
 11
-46.8972
 21
-74.9713
  0
LINE
  8
0
 10
-46.8972
 20
-74.9713
 11
-46.9726
 21
-75.0377
  0
LINE
  8
0
 10
-46.9726
 20
-75.0377
 11
-47.052
 21
-75.0994
  0
LINE
  8
0
 10
-47.052
 20
-75.0994
 11
-47.1352
 21
-75.1559
  0
LINE
  8
0
 10
-47.1352
 20
-75.1559
 11
-47.2217
 21
-75.207
  0
LINE
  8
0
 10
-47.2217
 20
-75.207
 11
-47.3112
 21
-75.2527
  0
LINE
  8
0
 10
-47.3112
 20
-75.2527
 11
-47.4035
 21
-75.2926
  0
LINE
  8
0
 10
-47.4035
 20
-75.2926
 11
-47.4981
 21
-75.3266
  0
LINE
  8
0
 10
-47.4981
 20
-75.3266
 11
-47.5946
 21
-75.3547
  0
LINE
  8
0
 10
-47.5946
 20
-75.3547
 11
-47.6927
 21
-75.3766
  0
LINE
  8
0
 10
-47.6927
 20
-75.3766
 11
-47.792
 21
-75.3923
  0
LINE
  8
0
 10
-47.792
 20
-75.3923
 11
-47.892
 21
-75.4018
  0
LINE
  8
0
 10
-47.892
 20
-75.4018
 11
-47.9925
 21
-75.4049
  0
LINE
  8
0
 10
-47.9925
 20
-75.4049
 11
-48.093
 21
-75.4018
  0
ENDSEC
  0
SECTION
  2
OBJECTS
  0
DICTIONARY
  0
ENDSEC
  0
EOF
