  0
SECTION
  2
BLOCKS
  0
ENDSEC
  0
SECTION
  2
ENTITIES
  0
LINE
  8
0
 10
-103.092
 20
-56.9114
 11
-102.967
 21
-56.8956
  0
LINE
  8
0
 10
-102.967
 20
-56.8956
 11
-102.844
 21
-56.8721
  0
LINE
  8
0
 10
-102.844
 20
-56.8721
 11
-102.722
 21
-56.8409
  0
LINE
  8
0
 10
-102.722
 20
-56.8409
 11
-102.603
 21
-56.802
  0
LINE
  8
0
 10
-102.603
 20
-56.802
 11
-102.486
 21
-56.7558
  0
LINE
  8
0
 10
-102.486
 20
-56.7558
 11
-102.372
 21
-56.7023
  0
LINE
  8
0
 10
-102.372
 20
-56.7023
 11
-102.262
 21
-56.6418
  0
LINE
  8
0
 10
-102.262
 20
-56.6418
 11
-102.156
 21
-56.5744
  0
LINE
  8
0
 10
-102.156
 20
-56.5744
 11
-102.054
 21
-56.5006
  0
LINE
  8
0
 10
-102.054
 20
-56.5006
 11
-101.957
 21
-56.4205
  0
LINE
  8
0
 10
-101.957
 20
-56.4205
 11
-101.866
 21
-56.3345
  0
LINE
  8
0
 10
-101.866
 20
-56.3345
 11
-90.2695
 21
-44.7382
  0
LINE
  8
0
 10
-90.2695
 20
-44.7382
 11
-87.2774
 21
-41.9284
  0
LINE
  8
0
 10
-87.2774
 20
-41.9284
 11
-84.2107
 21
-39.3915
  0
LINE
  8
0
 10
-84.2107
 20
-39.3915
 11
-80.9917
 21
-37.0527
  0
LINE
  8
0
 10
-80.9917
 20
-37.0527
 11
-77.6317
 21
-34.9204
  0
LINE
  8
0
 10
-77.6317
 20
-34.9204
 11
-74.1442
 21
-33.0031
  0
LINE
  8
0
 10
-74.1442
 20
-33.0031
 11
-70.5437
 21
-31.3088
  0
LINE
  8
0
 10
-70.5437
 20
-31.3088
 11
-66.8436
 21
-29.8439
  0
LINE
  8
0
 10
-66.8436
 20
-29.8439
 11
-63.059
 21
-28.6142
  0
LINE
  8
0
 10
-63.059
 20
-28.6142
 11
-59.2043
 21
-27.6245
  0
LINE
  8
0
 10
-59.2043
 20
-27.6245
 11
-55.2955
 21
-26.8788
  0
LINE
  8
0
 10
-55.2955
 20
-26.8788
 11
-51.3475
 21
-26.3801
  0
LINE
  8
0
 10
-51.3475
 20
-26.3801
 11
-47.3759
 21
-26.1302
  0
LINE
  8
0
 10
-47.3759
 20
-26.1302
 11
-44.2771
 21
-26.1302
  0
LINE
  8
0
 10
-44.2771
 20
-26.1302
 11
-44.1516
 21
-26.1263
  0
LINE
  8
0
 10
-44.1516
 20
-26.1263
 11
-44.0265
 21
-26.1144
  0
LINE
  8
0
 10
-44.0265
 20
-26.1144
 11
-43.9037
 21
-26.095
  0
LINE
  8
0
 10
-43.9037
 20
-26.095
 11
-9.81099
 21
-26.095
  0
LINE
  8
0
 10
-9.81099
 20
-26.095
 11
-9.68541
 21
-26.091
  0
LINE
  8
0
 10
-9.68541
 20
-26.091
 11
-9.56032
 21
-26.0792
  0
LINE
  8
0
 10
-9.56032
 20
-26.0792
 11
-9.43623
 21
-26.0596
  0
LINE
  8
0
 10
-9.43623
 20
-26.0596
 11
-9.31361
 21
-26.0322
  0
LINE
  8
0
 10
-9.31361
 20
-26.0322
 11
-9.19296
 21
-25.9971
  0
LINE
  8
0
 10
-9.19296
 20
-25.9971
 11
-9.07474
 21
-25.9545
  0
LINE
  8
0
 10
-9.07474
 20
-25.9545
 11
-8.95943
 21
-25.9046
  0
LINE
  8
0
 10
-8.95943
 20
-25.9046
 11
-8.84749
 21
-25.8476
  0
LINE
  8
0
 10
-8.84749
 20
-25.8476
 11
-8.73933
 21
-25.7836
  0
LINE
  8
0
 10
-8.73933
 20
-25.7836
 11
-8.63542
 21
-25.713
  0
LINE
  8
0
 10
-8.63542
 20
-25.713
 11
-8.53615
 21
-25.636
  0
LINE
  8
0
 10
-8.53615
 20
-25.636
 11
-8.44189
 21
-25.5529
  0
LINE
  8
0
 10
-8.44189
 20
-25.5529
 11
-8.35306
 21
-25.4641
  0
LINE
  8
0
 10
-8.35306
 20
-25.4641
 11
-8.26996
 21
-25.3698
  0
LINE
  8
0
 10
-8.26996
 20
-25.3698
 11
-8.19296
 21
-25.2706
  0
LINE
  8
0
 10
-8.19296
 20
-25.2706
 11
-8.12233
 21
-25.1666
  0
LINE
  8
0
 10
-8.12233
 20
-25.1666
 11
-8.05838
 21
-25.0585
  0
LINE
  8
0
 10
-8.05838
 20
-25.0585
 11
-8.00134
 21
-24.9465
  0
LINE
  8
0
 10
-8.00134
 20
-24.9465
 11
-7.95143
 21
-24.8312
  0
LINE
  8
0
 10
-7.95143
 20
-24.8312
 11
-7.90887
 21
-24.713
  0
LINE
  8
0
 10
-7.90887
 20
-24.713
 11
-7.87383
 21
-24.5924
  0
LINE
  8
0
 10
-7.87383
 20
-24.5924
 11
-7.84642
 21
-24.4697
  0
LINE
  8
0
 10
-7.84642
 20
-24.4697
 11
-7.82677
 21
-24.3457
  0
LINE
  8
0
 10
-7.82677
 20
-24.3457
 11
-7.81494
 21
-24.2206
  0
LINE
  8
0
 10
-7.81494
 20
-24.2206
 11
-7.81099
 21
-24.095
  0
LINE
  8
0
 10
-7.81099
 20
-24.095
 11
-7.81099
 21
-18.525
  0
LINE
  8
0
 10
-7.81099
 20
-18.525
 11
14.65
 21
-18.525
  0
LINE
  8
0
 10
14.65
 20
-18.525
 11
14.7756
 21
-18.521
  0
LINE
  8
0
 10
14.7756
 20
-18.521
 11
14.9007
 21
-18.5092
  0
LINE
  8
0
 10
14.9007
 20
-18.5092
 11
15.0247
 21
-18.4896
  0
LINE
  8
0
 10
15.0247
 20
-18.4896
 11
15.1474
 21
-18.4622
  0
LINE
  8
0
 10
15.1474
 20
-18.4622
 11
15.268
 21
-18.4271
  0
LINE
  8
0
 10
15.268
 20
-18.4271
 11
15.3862
 21
-18.3846
  0
LINE
  8
0
 10
15.3862
 20
-18.3846
 11
15.5016
 21
-18.3346
  0
LINE
  8
0
 10
15.5016
 20
-18.3346
 11
15.6135
 21
-18.2776
  0
LINE
  8
0
 10
15.6135
 20
-18.2776
 11
15.7216
 21
-18.2137
  0
LINE
  8
0
 10
15.7216
 20
-18.2137
 11
15.8256
 21
-18.143
  0
LINE
  8
0
 10
15.8256
 20
-18.143
 11
15.9248
 21
-18.066
  0
LINE
  8
0
 10
15.9248
 20
-18.066
 11
16.0191
 21
-17.9829
  0
LINE
  8
0
 10
16.0191
 20
-17.9829
 11
16.1079
 21
-17.8941
  0
LINE
  8
0
 10
16.1079
 20
-17.8941
 11
16.191
 21
-17.7998
  0
LINE
  8
0
 10
16.191
 20
-17.7998
 11
16.268
 21
-17.7006
  0
LINE
  8
0
 10
16.268
 20
-17.7006
 11
16.3387
 21
-17.5966
  0
LINE
  8
0
 10
16.3387
 20
-17.5966
 11
16.4026
 21
-17.4885
  0
LINE
  8
0
 10
16.4026
 20
-17.4885
 11
16.4596
 21
-17.3766
  0
LINE
  8
0
 10
16.4596
 20
-17.3766
 11
16.5096
 21
-17.2612
  0
LINE
  8
0
 10
16.5096
 20
-17.2612
 11
16.5521
 21
-17.143
  0
LINE
  8
0
 10
16.5521
 20
-17.143
 11
16.5872
 21
-17.0224
  0
LINE
  8
0
 10
16.5872
 20
-17.0224
 11
16.6146
 21
-16.8997
  0
LINE
  8
0
 10
16.6146
 20
-16.8997
 11
16.6342
 21
-16.7757
  0
LINE
  8
0
 10
16.6342
 20
-16.7757
 11
16.646
 21
-16.6506
  0
LINE
  8
0
 10
16.646
 20
-16.6506
 11
16.65
 21
-16.525
  0
LINE
  8
0
 10
16.65
 20
-16.525
 11
16.65
 21
62.2139
  0
LINE
  8
0
 10
16.65
 20
62.2139
 11
16.646
 21
62.3395
  0
LINE
  8
0
 10
16.646
 20
62.3395
 11
16.6342
 21
62.4646
  0
LINE
  8
0
 10
16.6342
 20
62.4646
 11
16.6146
 21
62.5887
  0
LINE
  8
0
 10
16.6146
 20
62.5887
 11
16.5872
 21
62.7113
  0
LINE
  8
0
 10
16.5872
 20
62.7113
 11
16.5521
 21
62.8319
  0
LINE
  8
0
 10
16.5521
 20
62.8319
 11
16.5096
 21
62.9501
  0
LINE
  8
0
 10
16.5096
 20
62.9501
 11
16.4596
 21
63.0655
  0
LINE
  8
0
 10
16.4596
 20
63.0655
 11
16.4026
 21
63.1774
  0
LINE
  8
0
 10
16.4026
 20
63.1774
 11
16.3387
 21
63.2856
  0
LINE
  8
0
 10
16.3387
 20
63.2856
 11
16.268
 21
63.3895
  0
LINE
  8
0
 10
16.268
 20
63.3895
 11
16.191
 21
63.4887
  0
LINE
  8
0
 10
16.191
 20
63.4887
 11
16.1079
 21
63.583
  0
LINE
  8
0
 10
16.1079
 20
63.583
 11
16.0191
 21
63.6718
  0
LINE
  8
0
 10
16.0191
 20
63.6718
 11
15.9248
 21
63.7549
  0
LINE
  8
0
 10
15.9248
 20
63.7549
 11
15.8256
 21
63.8319
  0
LINE
  8
0
 10
15.8256
 20
63.8319
 11
15.7216
 21
63.9026
  0
LINE
  8
0
 10
15.7216
 20
63.9026
 11
15.6135
 21
63.9665
  0
LINE
  8
0
 10
15.6135
 20
63.9665
 11
15.5016
 21
64.0235
  0
LINE
  8
0
 10
15.5016
 20
64.0235
 11
15.3862
 21
64.0735
  0
LINE
  8
0
 10
15.3862
 20
64.0735
 11
15.3275
 21
64.0957
  0
LINE
  8
0
 10
15.3275
 20
64.0957
 11
5.6949
 21
67.5636
  0
LINE
  8
0
 10
5.6949
 20
67.5636
 11
5.57541
 21
67.6024
  0
LINE
  8
0
 10
5.57541
 20
67.6024
 11
-4.26447
 21
70.4612
  0
LINE
  8
0
 10
-4.26447
 20
70.4612
 11
-4.38615
 21
70.4924
  0
LINE
  8
0
 10
-4.38615
 20
70.4924
 11
-14.3861
 21
72.7277
  0
LINE
  8
0
 10
-14.3861
 20
72.7277
 11
-14.5096
 21
72.7512
  0
LINE
  8
0
 10
-14.5096
 20
72.7512
 11
-24.6302
 21
74.3542
  0
LINE
  8
0
 10
-24.6302
 20
74.3542
 11
-24.7548
 21
74.3699
  0
LINE
  8
0
 10
-24.7548
 20
74.3699
 11
-34.9561
 21
75.3342
  0
LINE
  8
0
 10
-34.9561
 20
75.3342
 11
-35.0815
 21
75.3421
  0
LINE
  8
0
 10
-35.0815
 20
75.3421
 11
-45.3232
 21
75.664
  0
LINE
  8
0
 10
-45.3232
 20
75.664
 11
-45.4488
 21
75.664
  0
LINE
  8
0
 10
-45.4488
 20
75.664
 11
-55.6905
 21
75.3421
  0
LINE
  8
0
 10
-55.6905
 20
75.3421
 11
-55.8159
 21
75.3342
  0
LINE
  8
0
 10
-55.8159
 20
75.3342
 11
-66.0172
 21
74.3699
  0
LINE
  8
0
 10
-66.0172
 20
74.3699
 11
-66.1418
 21
74.3542
  0
LINE
  8
0
 10
-66.1418
 20
74.3542
 11
-76.2624
 21
72.7512
  0
LINE
  8
0
 10
-76.2624
 20
72.7512
 11
-76.3859
 21
72.7277
  0
LINE
  8
0
 10
-76.3859
 20
72.7277
 11
-86.3858
 21
70.4924
  0
LINE
  8
0
 10
-86.3858
 20
70.4924
 11
-86.5075
 21
70.4612
  0
LINE
  8
0
 10
-86.5075
 20
70.4612
 11
-96.3474
 21
67.6024
  0
LINE
  8
0
 10
-96.3474
 20
67.6024
 11
-96.4669
 21
67.5636
  0
LINE
  8
0
 10
-96.4669
 20
67.5636
 11
-106.108
 21
64.0926
  0
LINE
  8
0
 10
-106.108
 20
64.0926
 11
-106.225
 21
64.0464
  0
LINE
  8
0
 10
-106.225
 20
64.0464
 11
-115.629
 21
59.9769
  0
LINE
  8
0
 10
-115.629
 20
59.9769
 11
-115.742
 21
59.9234
  0
LINE
  8
0
 10
-115.742
 20
59.9234
 11
-126.133
 21
54.6292
  0
LINE
  8
0
 10
-126.133
 20
54.6292
 11
-126.243
 21
54.5686
  0
LINE
  8
0
 10
-126.243
 20
54.5686
 11
-126.349
 21
54.5013
  0
LINE
  8
0
 10
-126.349
 20
54.5013
 11
-126.451
 21
54.4275
  0
LINE
  8
0
 10
-126.451
 20
54.4275
 11
-126.548
 21
54.3474
  0
LINE
  8
0
 10
-126.548
 20
54.3474
 11
-126.639
 21
54.2614
  0
LINE
  8
0
 10
-126.639
 20
54.2614
 11
-126.725
 21
54.1698
  0
LINE
  8
0
 10
-126.725
 20
54.1698
 11
-126.805
 21
54.073
  0
LINE
  8
0
 10
-126.805
 20
54.073
 11
-126.879
 21
53.9713
  0
LINE
  8
0
 10
-126.879
 20
53.9713
 11
-126.946
 21
53.8652
  0
LINE
  8
0
 10
-126.946
 20
53.8652
 11
-127.007
 21
53.7551
  0
LINE
  8
0
 10
-127.007
 20
53.7551
 11
-127.061
 21
53.6414
  0
LINE
  8
0
 10
-127.061
 20
53.6414
 11
-127.107
 21
53.5246
  0
LINE
  8
0
 10
-127.107
 20
53.5246
 11
-127.146
 21
53.4051
  0
LINE
  8
0
 10
-127.146
 20
53.4051
 11
-127.177
 21
53.2834
  0
LINE
  8
0
 10
-127.177
 20
53.2834
 11
-127.2
 21
53.16
  0
LINE
  8
0
 10
-127.2
 20
53.16
 11
-127.216
 21
53.0354
  0
LINE
  8
0
 10
-127.216
 20
53.0354
 11
-127.224
 21
52.91
  0
LINE
  8
0
 10
-127.224
 20
52.91
 11
-127.225
 21
52.8472
  0
LINE
  8
0
 10
-127.225
 20
52.8472
 11
-127.225
 21
-2.35631
  0
LINE
  8
0
 10
-127.225
 20
-2.35631
 11
-141.534
 21
-16.6658
  0
LINE
  8
0
 10
-141.534
 20
-16.6658
 11
-141.62
 21
-16.7574
  0
LINE
  8
0
 10
-141.62
 20
-16.7574
 11
-141.701
 21
-16.8542
  0
LINE
  8
0
 10
-141.701
 20
-16.8542
 11
-141.774
 21
-16.9559
  0
LINE
  8
0
 10
-141.774
 20
-16.9559
 11
-141.842
 21
-17.0619
  0
LINE
  8
0
 10
-141.842
 20
-17.0619
 11
-141.902
 21
-17.172
  0
LINE
  8
0
 10
-141.902
 20
-17.172
 11
-141.956
 21
-17.2857
  0
LINE
  8
0
 10
-141.956
 20
-17.2857
 11
-142.002
 21
-17.4025
  0
LINE
  8
0
 10
-142.002
 20
-17.4025
 11
-142.041
 21
-17.522
  0
LINE
  8
0
 10
-142.041
 20
-17.522
 11
-142.072
 21
-17.6437
  0
LINE
  8
0
 10
-142.072
 20
-17.6437
 11
-142.096
 21
-17.7672
  0
LINE
  8
0
 10
-142.096
 20
-17.7672
 11
-142.111
 21
-17.8918
  0
LINE
  8
0
 10
-142.111
 20
-17.8918
 11
-142.119
 21
-18.0172
  0
LINE
  8
0
 10
-142.119
 20
-18.0172
 11
-142.119
 21
-18.1428
  0
LINE
  8
0
 10
-142.119
 20
-18.1428
 11
-142.111
 21
-18.2682
  0
LINE
  8
0
 10
-142.111
 20
-18.2682
 11
-142.096
 21
-18.3929
  0
LINE
  8
0
 10
-142.096
 20
-18.3929
 11
-142.072
 21
-18.5163
  0
LINE
  8
0
 10
-142.072
 20
-18.5163
 11
-142.041
 21
-18.638
  0
LINE
  8
0
 10
-142.041
 20
-18.638
 11
-142.002
 21
-18.7575
  0
LINE
  8
0
 10
-142.002
 20
-18.7575
 11
-141.956
 21
-18.8743
  0
LINE
  8
0
 10
-141.956
 20
-18.8743
 11
-141.902
 21
-18.988
  0
LINE
  8
0
 10
-141.902
 20
-18.988
 11
-141.842
 21
-19.0981
  0
LINE
  8
0
 10
-141.842
 20
-19.0981
 11
-141.774
 21
-19.2042
  0
LINE
  8
0
 10
-141.774
 20
-19.2042
 11
-141.701
 21
-19.3058
  0
LINE
  8
0
 10
-141.701
 20
-19.3058
 11
-141.62
 21
-19.4026
  0
LINE
  8
0
 10
-141.62
 20
-19.4026
 11
-141.534
 21
-19.4942
  0
LINE
  8
0
 10
-141.534
 20
-19.4942
 11
-104.694
 21
-56.3345
  0
LINE
  8
0
 10
-104.694
 20
-56.3345
 11
-104.603
 21
-56.4205
  0
LINE
  8
0
 10
-104.603
 20
-56.4205
 11
-104.506
 21
-56.5006
  0
LINE
  8
0
 10
-104.506
 20
-56.5006
 11
-104.404
 21
-56.5744
  0
LINE
  8
0
 10
-104.404
 20
-56.5744
 11
-104.298
 21
-56.6418
  0
LINE
  8
0
 10
-104.298
 20
-56.6418
 11
-104.188
 21
-56.7023
  0
LINE
  8
0
 10
-104.188
 20
-56.7023
 11
-104.074
 21
-56.7558
  0
LINE
  8
0
 10
-104.074
 20
-56.7558
 11
-103.957
 21
-56.802
  0
LINE
  8
0
 10
-103.957
 20
-56.802
 11
-103.838
 21
-56.8409
  0
LINE
  8
0
 10
-103.838
 20
-56.8409
 11
-103.716
 21
-56.8721
  0
LINE
  8
0
 10
-103.716
 20
-56.8721
 11
-103.593
 21
-56.8956
  0
LINE
  8
0
 10
-103.593
 20
-56.8956
 11
-103.468
 21
-56.9114
  0
LINE
  8
0
 10
-103.468
 20
-56.9114
 11
-103.343
 21
-56.9193
  0
LINE
  8
0
 10
-103.343
 20
-56.9193
 11
-103.217
 21
-56.9193
  0
LINE
  8
0
 10
-103.217
 20
-56.9193
 11
-103.092
 21
-56.9114
  0
LINE
  8
0
 10
-52.5324
 20
70.511
 11
-52.6262
 21
70.5199
  0
LINE
  8
0
 10
-52.6262
 20
70.5199
 11
-52.7193
 21
70.5346
  0
LINE
  8
0
 10
-52.7193
 20
70.5346
 11
-52.8112
 21
70.5552
  0
LINE
  8
0
 10
-52.8112
 20
70.5552
 11
-52.9017
 21
70.5815
  0
LINE
  8
0
 10
-52.9017
 20
70.5815
 11
-52.9904
 21
70.6134
  0
LINE
  8
0
 10
-52.9904
 20
70.6134
 11
-53.0769
 21
70.6508
  0
LINE
  8
0
 10
-53.0769
 20
70.6508
 11
-53.1608
 21
70.6936
  0
LINE
  8
0
 10
-53.1608
 20
70.6936
 11
-53.2419
 21
70.7416
  0
LINE
  8
0
 10
-53.2419
 20
70.7416
 11
-53.3199
 21
70.7945
  0
LINE
  8
0
 10
-53.3199
 20
70.7945
 11
-53.3943
 21
70.8523
  0
LINE
  8
0
 10
-53.3943
 20
70.8523
 11
-53.465
 21
70.9146
  0
LINE
  8
0
 10
-53.465
 20
70.9146
 11
-53.5316
 21
70.9812
  0
LINE
  8
0
 10
-53.5316
 20
70.9812
 11
-53.5939
 21
71.0519
  0
LINE
  8
0
 10
-53.5939
 20
71.0519
 11
-53.6517
 21
71.1264
  0
LINE
  8
0
 10
-53.6517
 20
71.1264
 11
-53.7047
 21
71.2043
  0
LINE
  8
0
 10
-53.7047
 20
71.2043
 11
-53.7526
 21
71.2854
  0
LINE
  8
0
 10
-53.7526
 20
71.2854
 11
-53.7954
 21
71.3694
  0
LINE
  8
0
 10
-53.7954
 20
71.3694
 11
-53.8329
 21
71.4559
  0
LINE
  8
0
 10
-53.8329
 20
71.4559
 11
-53.8648
 21
71.5445
  0
LINE
  8
0
 10
-53.8648
 20
71.5445
 11
-53.8911
 21
71.635
  0
LINE
  8
0
 10
-53.8911
 20
71.635
 11
-53.9116
 21
71.727
  0
LINE
  8
0
 10
-53.9116
 20
71.727
 11
-53.9264
 21
71.8201
  0
LINE
  8
0
 10
-53.9264
 20
71.8201
 11
-53.9352
 21
71.9139
  0
LINE
  8
0
 10
-53.9352
 20
71.9139
 11
-53.9382
 21
72.008
  0
LINE
  8
0
 10
-53.9382
 20
72.008
 11
-53.9352
 21
72.1022
  0
LINE
  8
0
 10
-53.9352
 20
72.1022
 11
-53.9264
 21
72.196
  0
LINE
  8
0
 10
-53.9264
 20
72.196
 11
-53.9116
 21
72.2891
  0
LINE
  8
0
 10
-53.9116
 20
72.2891
 11
-53.8911
 21
72.3811
  0
LINE
  8
0
 10
-53.8911
 20
72.3811
 11
-53.8648
 21
72.4716
  0
LINE
  8
0
 10
-53.8648
 20
72.4716
 11
-53.8329
 21
72.5602
  0
LINE
  8
0
 10
-53.8329
 20
72.5602
 11
-53.7954
 21
72.6467
  0
LINE
  8
0
 10
-53.7954
 20
72.6467
 11
-53.7526
 21
72.7307
  0
LINE
  8
0
 10
-53.7526
 20
72.7307
 11
-53.7047
 21
72.8118
  0
LINE
  8
0
 10
-53.7047
 20
72.8118
 11
-53.6517
 21
72.8897
  0
LINE
  8
0
 10
-53.6517
 20
72.8897
 11
-53.5939
 21
72.9642
  0
LINE
  8
0
 10
-53.5939
 20
72.9642
 11
-53.5316
 21
73.0349
  0
LINE
  8
0
 10
-53.5316
 20
73.0349
 11
-53.465
 21
73.1015
  0
LINE
  8
0
 10
-53.465
 20
73.1015
 11
-53.3943
 21
73.1638
  0
LINE
  8
0
 10
-53.3943
 20
73.1638
 11
-53.3199
 21
73.2216
  0
LINE
  8
0
 10
-53.3199
 20
73.2216
 11
-53.2419
 21
73.2745
  0
LINE
  8
0
 10
-53.2419
 20
73.2745
 11
-53.1608
 21
73.3225
  0
LINE
  8
0
 10
-53.1608
 20
73.3225
 11
-53.0769
 21
73.3653
  0
LINE
  8
0
 10
-53.0769
 20
73.3653
 11
-52.9904
 21
73.4027
  0
LINE
  8
0
 10
-52.9904
 20
73.4027
 11
-52.9017
 21
73.4346
  0
LINE
  8
0
 10
-52.9017
 20
73.4346
 11
-52.8112
 21
73.4609
  0
LINE
  8
0
 10
-52.8112
 20
73.4609
 11
-52.7193
 21
73.4815
  0
LINE
  8
0
 10
-52.7193
 20
73.4815
 11
-52.6262
 21
73.4962
  0
LINE
  8
0
 10
-52.6262
 20
73.4962
 11
-52.5324
 21
73.5051
  0
LINE
  8
0
 10
-52.5324
 20
73.5051
 11
-52.4382
 21
73.508
  0
LINE
  8
0
 10
-52.4382
 20
73.508
 11
-52.344
 21
73.5051
  0
LINE
  8
0
 10
-52.344
 20
73.5051
 11
-52.2502
 21
73.4962
  0
LINE
  8
0
 10
-52.2502
 20
73.4962
 11
-52.1571
 21
73.4815
  0
LINE
  8
0
 10
-52.1571
 20
73.4815
 11
-52.0652
 21
73.4609
  0
LINE
  8
0
 10
-52.0652
 20
73.4609
 11
-51.9747
 21
73.4346
  0
LINE
  8
0
 10
-51.9747
 20
73.4346
 11
-51.886
 21
73.4027
  0
LINE
  8
0
 10
-51.886
 20
73.4027
 11
-51.7995
 21
73.3653
  0
LINE
  8
0
 10
-51.7995
 20
73.3653
 11
-51.7156
 21
73.3225
  0
LINE
  8
0
 10
-51.7156
 20
73.3225
 11
-51.6344
 21
73.2745
  0
LINE
  8
0
 10
-51.6344
 20
73.2745
 11
-51.5565
 21
73.2216
  0
LINE
  8
0
 10
-51.5565
 20
73.2216
 11
-51.4821
 21
73.1638
  0
LINE
  8
0
 10
-51.4821
 20
73.1638
 11
-51.4114
 21
73.1015
  0
LINE
  8
0
 10
-51.4114
 20
73.1015
 11
-51.3447
 21
73.0349
  0
LINE
  8
0
 10
-51.3447
 20
73.0349
 11
-51.2824
 21
72.9642
  0
LINE
  8
0
 10
-51.2824
 20
72.9642
 11
-51.2247
 21
72.8897
  0
LINE
  8
0
 10
-51.2247
 20
72.8897
 11
-51.1717
 21
72.8118
  0
LINE
  8
0
 10
-51.1717
 20
72.8118
 11
-51.1237
 21
72.7307
  0
LINE
  8
0
 10
-51.1237
 20
72.7307
 11
-51.0809
 21
72.6467
  0
LINE
  8
0
 10
-51.0809
 20
72.6467
 11
-51.0435
 21
72.5602
  0
LINE
  8
0
 10
-51.0435
 20
72.5602
 11
-51.0116
 21
72.4716
  0
LINE
  8
0
 10
-51.0116
 20
72.4716
 11
-50.9853
 21
72.3811
  0
LINE
  8
0
 10
-50.9853
 20
72.3811
 11
-50.9648
 21
72.2891
  0
LINE
  8
0
 10
-50.9648
 20
72.2891
 11
-50.95
 21
72.196
  0
LINE
  8
0
 10
-50.95
 20
72.196
 11
-50.9411
 21
72.1022
  0
LINE
  8
0
 10
-50.9411
 20
72.1022
 11
-50.9382
 21
72.008
  0
LINE
  8
0
 10
-50.9382
 20
72.008
 11
-50.9411
 21
71.9139
  0
LINE
  8
0
 10
-50.9411
 20
71.9139
 11
-50.95
 21
71.8201
  0
LINE
  8
0
 10
-50.95
 20
71.8201
 11
-50.9648
 21
71.727
  0
LINE
  8
0
 10
-50.9648
 20
71.727
 11
-50.9853
 21
71.635
  0
LINE
  8
0
 10
-50.9853
 20
71.635
 11
-51.0116
 21
71.5445
  0
LINE
  8
0
 10
-51.0116
 20
71.5445
 11
-51.0435
 21
71.4559
  0
LINE
  8
0
 10
-51.0435
 20
71.4559
 11
-51.0809
 21
71.3694
  0
LINE
  8
0
 10
-51.0809
 20
71.3694
 11
-51.1237
 21
71.2854
  0
LINE
  8
0
 10
-51.1237
 20
71.2854
 11
-51.1717
 21
71.2043
  0
LINE
  8
0
 10
-51.1717
 20
71.2043
 11
-51.2247
 21
71.1264
  0
LINE
  8
0
 10
-51.2247
 20
71.1264
 11
-51.2824
 21
71.0519
  0
LINE
  8
0
 10
-51.2824
 20
71.0519
 11
-51.3447
 21
70.9812
  0
LINE
  8
0
 10
-51.3447
 20
70.9812
 11
-51.4114
 21
70.9146
  0
LINE
  8
0
 10
-51.4114
 20
70.9146
 11
-51.4821
 21
70.8523
  0
LINE
  8
0
 10
-51.4821
 20
70.8523
 11
-51.5565
 21
70.7945
  0
LINE
  8
0
 10
-51.5565
 20
70.7945
 11
-51.6344
 21
70.7416
  0
LINE
  8
0
 10
-51.6344
 20
70.7416
 11
-51.7156
 21
70.6936
  0
LINE
  8
0
 10
-51.7156
 20
70.6936
 11
-51.7995
 21
70.6508
  0
LINE
  8
0
 10
-51.7995
 20
70.6508
 11
-51.886
 21
70.6134
  0
LINE
  8
0
 10
-51.886
 20
70.6134
 11
-51.9747
 21
70.5815
  0
LINE
  8
0
 10
-51.9747
 20
70.5815
 11
-52.0652
 21
70.5552
  0
LINE
  8
0
 10
-52.0652
 20
70.5552
 11
-52.1571
 21
70.5346
  0
LINE
  8
0
 10
-52.1571
 20
70.5346
 11
-52.2502
 21
70.5199
  0
LINE
  8
0
 10
-52.2502
 20
70.5199
 11
-52.344
 21
70.511
  0
LINE
  8
0
 10
-52.344
 20
70.511
 11
-52.4382
 21
70.508
  0
LINE
  8
0
 10
-52.4382
 20
70.508
 11
-52.5324
 21
70.511
  0
LINE
  8
0
 10
-19.2387
 20
67.5118
 11
-19.3951
 21
67.5266
  0
LINE
  8
0
 10
-19.3951
 20
67.5266
 11
-19.5502
 21
67.5512
  0
LINE
  8
0
 10
-19.5502
 20
67.5512
 11
-19.7035
 21
67.5854
  0
LINE
  8
0
 10
-19.7035
 20
67.5854
 11
-19.8543
 21
67.6292
  0
LINE
  8
0
 10
-19.8543
 20
67.6292
 11
-20.0021
 21
67.6824
  0
LINE
  8
0
 10
-20.0021
 20
67.6824
 11
-20.1462
 21
67.7448
  0
LINE
  8
0
 10
-20.1462
 20
67.7448
 11
-20.2861
 21
67.8161
  0
LINE
  8
0
 10
-20.2861
 20
67.8161
 11
-20.4213
 21
67.8961
  0
LINE
  8
0
 10
-20.4213
 20
67.8961
 11
-20.5512
 21
67.9843
  0
LINE
  8
0
 10
-20.5512
 20
67.9843
 11
-20.6753
 21
68.0806
  0
LINE
  8
0
 10
-20.6753
 20
68.0806
 11
-20.7931
 21
68.1845
  0
LINE
  8
0
 10
-20.7931
 20
68.1845
 11
-20.9042
 21
68.2955
  0
LINE
  8
0
 10
-20.9042
 20
68.2955
 11
-21.008
 21
68.4133
  0
LINE
  8
0
 10
-21.008
 20
68.4133
 11
-21.1043
 21
68.5374
  0
LINE
  8
0
 10
-21.1043
 20
68.5374
 11
-21.1926
 21
68.6673
  0
LINE
  8
0
 10
-21.1926
 20
68.6673
 11
-21.2725
 21
68.8025
  0
LINE
  8
0
 10
-21.2725
 20
68.8025
 11
-21.3438
 21
68.9424
  0
LINE
  8
0
 10
-21.3438
 20
68.9424
 11
-21.4062
 21
69.0866
  0
LINE
  8
0
 10
-21.4062
 20
69.0866
 11
-21.4594
 21
69.2343
  0
LINE
  8
0
 10
-21.4594
 20
69.2343
 11
-21.5032
 21
69.3852
  0
LINE
  8
0
 10
-21.5032
 20
69.3852
 11
-21.5375
 21
69.5384
  0
LINE
  8
0
 10
-21.5375
 20
69.5384
 11
-21.562
 21
69.6935
  0
LINE
  8
0
 10
-21.562
 20
69.6935
 11
-21.5768
 21
69.8499
  0
LINE
  8
0
 10
-21.5768
 20
69.8499
 11
-21.5817
 21
70.0069
  0
LINE
  8
0
 10
-21.5817
 20
70.0069
 11
-21.5768
 21
70.1639
  0
LINE
  8
0
 10
-21.5768
 20
70.1639
 11
-21.562
 21
70.3202
  0
LINE
  8
0
 10
-21.562
 20
70.3202
 11
-21.5375
 21
70.4753
  0
LINE
  8
0
 10
-21.5375
 20
70.4753
 11
-21.5032
 21
70.6286
  0
LINE
  8
0
 10
-21.5032
 20
70.6286
 11
-21.4594
 21
70.7794
  0
LINE
  8
0
 10
-21.4594
 20
70.7794
 11
-21.4062
 21
70.9272
  0
LINE
  8
0
 10
-21.4062
 20
70.9272
 11
-21.3438
 21
71.0713
  0
LINE
  8
0
 10
-21.3438
 20
71.0713
 11
-21.2725
 21
71.2113
  0
LINE
  8
0
 10
-21.2725
 20
71.2113
 11
-21.1926
 21
71.3465
  0
LINE
  8
0
 10
-21.1926
 20
71.3465
 11
-21.1043
 21
71.4763
  0
LINE
  8
0
 10
-21.1043
 20
71.4763
 11
-21.008
 21
71.6004
  0
LINE
  8
0
 10
-21.008
 20
71.6004
 11
-20.9042
 21
71.7182
  0
LINE
  8
0
 10
-20.9042
 20
71.7182
 11
-20.7931
 21
71.8293
  0
LINE
  8
0
 10
-20.7931
 20
71.8293
 11
-20.6753
 21
71.9332
  0
LINE
  8
0
 10
-20.6753
 20
71.9332
 11
-20.5512
 21
72.0294
  0
LINE
  8
0
 10
-20.5512
 20
72.0294
 11
-20.4213
 21
72.1177
  0
LINE
  8
0
 10
-20.4213
 20
72.1177
 11
-20.2861
 21
72.1976
  0
LINE
  8
0
 10
-20.2861
 20
72.1976
 11
-20.1462
 21
72.269
  0
LINE
  8
0
 10
-20.1462
 20
72.269
 11
-20.0021
 21
72.3313
  0
LINE
  8
0
 10
-20.0021
 20
72.3313
 11
-19.8543
 21
72.3845
  0
LINE
  8
0
 10
-19.8543
 20
72.3845
 11
-19.7035
 21
72.4283
  0
LINE
  8
0
 10
-19.7035
 20
72.4283
 11
-19.5502
 21
72.4626
  0
LINE
  8
0
 10
-19.5502
 20
72.4626
 11
-19.3951
 21
72.4872
  0
LINE
  8
0
 10
-19.3951
 20
72.4872
 11
-19.2387
 21
72.502
  0
LINE
  8
0
 10
-19.2387
 20
72.502
 11
-19.0817
 21
72.5069
  0
LINE
  8
0
 10
-19.0817
 20
72.5069
 11
-18.9248
 21
72.502
  0
LINE
  8
0
 10
-18.9248
 20
72.502
 11
-18.7684
 21
72.4872
  0
LINE
  8
0
 10
-18.7684
 20
72.4872
 11
-18.6133
 21
72.4626
  0
LINE
  8
0
 10
-18.6133
 20
72.4626
 11
-18.46
 21
72.4283
  0
LINE
  8
0
 10
-18.46
 20
72.4283
 11
-18.3092
 21
72.3845
  0
LINE
  8
0
 10
-18.3092
 20
72.3845
 11
-18.1614
 21
72.3313
  0
LINE
  8
0
 10
-18.1614
 20
72.3313
 11
-18.0173
 21
72.269
  0
LINE
  8
0
 10
-18.0173
 20
72.269
 11
-17.8774
 21
72.1976
  0
LINE
  8
0
 10
-17.8774
 20
72.1976
 11
-17.7422
 21
72.1177
  0
LINE
  8
0
 10
-17.7422
 20
72.1177
 11
-17.6123
 21
72.0294
  0
LINE
  8
0
 10
-17.6123
 20
72.0294
 11
-17.4882
 21
71.9332
  0
LINE
  8
0
 10
-17.4882
 20
71.9332
 11
-17.3704
 21
71.8293
  0
LINE
  8
0
 10
-17.3704
 20
71.8293
 11
-17.2593
 21
71.7182
  0
LINE
  8
0
 10
-17.2593
 20
71.7182
 11
-17.1555
 21
71.6004
  0
LINE
  8
0
 10
-17.1555
 20
71.6004
 11
-17.0592
 21
71.4763
  0
LINE
  8
0
 10
-17.0592
 20
71.4763
 11
-16.9709
 21
71.3465
  0
LINE
  8
0
 10
-16.9709
 20
71.3465
 11
-16.891
 21
71.2113
  0
LINE
  8
0
 10
-16.891
 20
71.2113
 11
-16.8197
 21
71.0713
  0
LINE
  8
0
 10
-16.8197
 20
71.0713
 11
-16.7573
 21
70.9272
  0
LINE
  8
0
 10
-16.7573
 20
70.9272
 11
-16.7041
 21
70.7794
  0
LINE
  8
0
 10
-16.7041
 20
70.7794
 11
-16.6603
 21
70.6286
  0
LINE
  8
0
 10
-16.6603
 20
70.6286
 11
-16.626
 21
70.4753
  0
LINE
  8
0
 10
-16.626
 20
70.4753
 11
-16.6015
 21
70.3202
  0
LINE
  8
0
 10
-16.6015
 20
70.3202
 11
-16.5867
 21
70.1639
  0
LINE
  8
0
 10
-16.5867
 20
70.1639
 11
-16.5817
 21
70.0069
  0
LINE
  8
0
 10
-16.5817
 20
70.0069
 11
-16.5867
 21
69.8499
  0
LINE
  8
0
 10
-16.5867
 20
69.8499
 11
-16.6015
 21
69.6935
  0
LINE
  8
0
 10
-16.6015
 20
69.6935
 11
-16.626
 21
69.5384
  0
LINE
  8
0
 10
-16.626
 20
69.5384
 11
-16.6603
 21
69.3852
  0
LINE
  8
0
 10
-16.6603
 20
69.3852
 11
-16.7041
 21
69.2343
  0
LINE
  8
0
 10
-16.7041
 20
69.2343
 11
-16.7573
 21
69.0866
  0
LINE
  8
0
 10
-16.7573
 20
69.0866
 11
-16.8197
 21
68.9424
  0
LINE
  8
0
 10
-16.8197
 20
68.9424
 11
-16.891
 21
68.8025
  0
LINE
  8
0
 10
-16.891
 20
68.8025
 11
-16.9709
 21
68.6673
  0
LINE
  8
0
 10
-16.9709
 20
68.6673
 11
-17.0592
 21
68.5374
  0
LINE
  8
0
 10
-17.0592
 20
68.5374
 11
-17.1555
 21
68.4133
  0
LINE
  8
0
 10
-17.1555
 20
68.4133
 11
-17.2593
 21
68.2955
  0
LINE
  8
0
 10
-17.2593
 20
68.2955
 11
-17.3704
 21
68.1845
  0
LINE
  8
0
 10
-17.3704
 20
68.1845
 11
-17.4882
 21
68.0806
  0
LINE
  8
0
 10
-17.4882
 20
68.0806
 11
-17.6123
 21
67.9843
  0
LINE
  8
0
 10
-17.6123
 20
67.9843
 11
-17.7422
 21
67.8961
  0
LINE
  8
0
 10
-17.7422
 20
67.8961
 11
-17.8774
 21
67.8161
  0
LINE
  8
0
 10
-17.8774
 20
67.8161
 11
-18.0173
 21
67.7448
  0
LINE
  8
0
 10
-18.0173
 20
67.7448
 11
-18.1614
 21
67.6824
  0
LINE
  8
0
 10
-18.1614
 20
67.6824
 11
-18.3092
 21
67.6292
  0
LINE
  8
0
 10
-18.3092
 20
67.6292
 11
-18.46
 21
67.5854
  0
LINE
  8
0
 10
-18.46
 20
67.5854
 11
-18.6133
 21
67.5512
  0
LINE
  8
0
 10
-18.6133
 20
67.5512
 11
-18.7684
 21
67.5266
  0
LINE
  8
0
 10
-18.7684
 20
67.5266
 11
-18.9248
 21
67.5118
  0
LINE
  8
0
 10
-18.9248
 20
67.5118
 11
-19.0817
 21
67.5069
  0
LINE
  8
0
 10
-19.0817
 20
67.5069
 11
-19.2387
 21
67.5118
  0
LINE
  8
0
 10
-86.632
 20
64.3561
 11
-86.7883
 21
64.3709
  0
LINE
  8
0
 10
-86.7883
 20
64.3709
 11
-86.9435
 21
64.3955
  0
LINE
  8
0
 10
-86.9435
 20
64.3955
 11
-87.0967
 21
64.4297
  0
LINE
  8
0
 10
-87.0967
 20
64.4297
 11
-87.2475
 21
64.4736
  0
LINE
  8
0
 10
-87.2475
 20
64.4736
 11
-87.3953
 21
64.5268
  0
LINE
  8
0
 10
-87.3953
 20
64.5268
 11
-87.5394
 21
64.5891
  0
LINE
  8
0
 10
-87.5394
 20
64.5891
 11
-87.6794
 21
64.6604
  0
LINE
  8
0
 10
-87.6794
 20
64.6604
 11
-87.8146
 21
64.7404
  0
LINE
  8
0
 10
-87.8146
 20
64.7404
 11
-87.9445
 21
64.8287
  0
LINE
  8
0
 10
-87.9445
 20
64.8287
 11
-88.0686
 21
64.9249
  0
LINE
  8
0
 10
-88.0686
 20
64.9249
 11
-88.1864
 21
65.0288
  0
LINE
  8
0
 10
-88.1864
 20
65.0288
 11
-88.2974
 21
65.1398
  0
LINE
  8
0
 10
-88.2974
 20
65.1398
 11
-88.4013
 21
65.2576
  0
LINE
  8
0
 10
-88.4013
 20
65.2576
 11
-88.4975
 21
65.3817
  0
LINE
  8
0
 10
-88.4975
 20
65.3817
 11
-88.5858
 21
65.5116
  0
LINE
  8
0
 10
-88.5858
 20
65.5116
 11
-88.6658
 21
65.6468
  0
LINE
  8
0
 10
-88.6658
 20
65.6468
 11
-88.7371
 21
65.7868
  0
LINE
  8
0
 10
-88.7371
 20
65.7868
 11
-88.7994
 21
65.9309
  0
LINE
  8
0
 10
-88.7994
 20
65.9309
 11
-88.8526
 21
66.0787
  0
LINE
  8
0
 10
-88.8526
 20
66.0787
 11
-88.8965
 21
66.2295
  0
LINE
  8
0
 10
-88.8965
 20
66.2295
 11
-88.9307
 21
66.3828
  0
LINE
  8
0
 10
-88.9307
 20
66.3828
 11
-88.9553
 21
66.5379
  0
LINE
  8
0
 10
-88.9553
 20
66.5379
 11
-88.9701
 21
66.6942
  0
LINE
  8
0
 10
-88.9701
 20
66.6942
 11
-88.975
 21
66.8512
  0
LINE
  8
0
 10
-88.975
 20
66.8512
 11
-88.9701
 21
67.0082
  0
LINE
  8
0
 10
-88.9701
 20
67.0082
 11
-88.9553
 21
67.1645
  0
LINE
  8
0
 10
-88.9553
 20
67.1645
 11
-88.9307
 21
67.3197
  0
LINE
  8
0
 10
-88.9307
 20
67.3197
 11
-88.8965
 21
67.4729
  0
LINE
  8
0
 10
-88.8965
 20
67.4729
 11
-88.8526
 21
67.6237
  0
LINE
  8
0
 10
-88.8526
 20
67.6237
 11
-88.7994
 21
67.7715
  0
LINE
  8
0
 10
-88.7994
 20
67.7715
 11
-88.7371
 21
67.9156
  0
LINE
  8
0
 10
-88.7371
 20
67.9156
 11
-88.6658
 21
68.0556
  0
LINE
  8
0
 10
-88.6658
 20
68.0556
 11
-88.5858
 21
68.1908
  0
LINE
  8
0
 10
-88.5858
 20
68.1908
 11
-88.4975
 21
68.3207
  0
LINE
  8
0
 10
-88.4975
 20
68.3207
 11
-88.4013
 21
68.4448
  0
LINE
  8
0
 10
-88.4013
 20
68.4448
 11
-88.2974
 21
68.5626
  0
LINE
  8
0
 10
-88.2974
 20
68.5626
 11
-88.1864
 21
68.6736
  0
LINE
  8
0
 10
-88.1864
 20
68.6736
 11
-88.0686
 21
68.7775
  0
LINE
  8
0
 10
-88.0686
 20
68.7775
 11
-87.9445
 21
68.8737
  0
LINE
  8
0
 10
-87.9445
 20
68.8737
 11
-87.8146
 21
68.962
  0
LINE
  8
0
 10
-87.8146
 20
68.962
 11
-87.6794
 21
69.042
  0
LINE
  8
0
 10
-87.6794
 20
69.042
 11
-87.5394
 21
69.1133
  0
LINE
  8
0
 10
-87.5394
 20
69.1133
 11
-87.3953
 21
69.1756
  0
LINE
  8
0
 10
-87.3953
 20
69.1756
 11
-87.2475
 21
69.2289
  0
LINE
  8
0
 10
-87.2475
 20
69.2289
 11
-87.0967
 21
69.2727
  0
LINE
  8
0
 10
-87.0967
 20
69.2727
 11
-86.9435
 21
69.3069
  0
LINE
  8
0
 10
-86.9435
 20
69.3069
 11
-86.7883
 21
69.3315
  0
LINE
  8
0
 10
-86.7883
 20
69.3315
 11
-86.632
 21
69.3463
  0
LINE
  8
0
 10
-86.632
 20
69.3463
 11
-86.475
 21
69.3512
  0
LINE
  8
0
 10
-86.475
 20
69.3512
 11
-86.318
 21
69.3463
  0
LINE
  8
0
 10
-86.318
 20
69.3463
 11
-86.1617
 21
69.3315
  0
LINE
  8
0
 10
-86.1617
 20
69.3315
 11
-86.0065
 21
69.3069
  0
LINE
  8
0
 10
-86.0065
 20
69.3069
 11
-85.8533
 21
69.2727
  0
LINE
  8
0
 10
-85.8533
 20
69.2727
 11
-85.7025
 21
69.2289
  0
LINE
  8
0
 10
-85.7025
 20
69.2289
 11
-85.5547
 21
69.1756
  0
LINE
  8
0
 10
-85.5547
 20
69.1756
 11
-85.4105
 21
69.1133
  0
LINE
  8
0
 10
-85.4105
 20
69.1133
 11
-85.2706
 21
69.042
  0
LINE
  8
0
 10
-85.2706
 20
69.042
 11
-85.1354
 21
68.962
  0
LINE
  8
0
 10
-85.1354
 20
68.962
 11
-85.0055
 21
68.8737
  0
LINE
  8
0
 10
-85.0055
 20
68.8737
 11
-84.8814
 21
68.7775
  0
LINE
  8
0
 10
-84.8814
 20
68.7775
 11
-84.7636
 21
68.6736
  0
LINE
  8
0
 10
-84.7636
 20
68.6736
 11
-84.6526
 21
68.5626
  0
LINE
  8
0
 10
-84.6526
 20
68.5626
 11
-84.5487
 21
68.4448
  0
LINE
  8
0
 10
-84.5487
 20
68.4448
 11
-84.4525
 21
68.3207
  0
LINE
  8
0
 10
-84.4525
 20
68.3207
 11
-84.3642
 21
68.1908
  0
LINE
  8
0
 10
-84.3642
 20
68.1908
 11
-84.2842
 21
68.0556
  0
LINE
  8
0
 10
-84.2842
 20
68.0556
 11
-84.2129
 21
67.9156
  0
LINE
  8
0
 10
-84.2129
 20
67.9156
 11
-84.1506
 21
67.7715
  0
LINE
  8
0
 10
-84.1506
 20
67.7715
 11
-84.0974
 21
67.6237
  0
LINE
  8
0
 10
-84.0974
 20
67.6237
 11
-84.0535
 21
67.4729
  0
LINE
  8
0
 10
-84.0535
 20
67.4729
 11
-84.0193
 21
67.3197
  0
LINE
  8
0
 10
-84.0193
 20
67.3197
 11
-83.9947
 21
67.1645
  0
LINE
  8
0
 10
-83.9947
 20
67.1645
 11
-83.9799
 21
67.0082
  0
LINE
  8
0
 10
-83.9799
 20
67.0082
 11
-83.975
 21
66.8512
  0
LINE
  8
0
 10
-83.975
 20
66.8512
 11
-83.9799
 21
66.6942
  0
LINE
  8
0
 10
-83.9799
 20
66.6942
 11
-83.9947
 21
66.5379
  0
LINE
  8
0
 10
-83.9947
 20
66.5379
 11
-84.0193
 21
66.3828
  0
LINE
  8
0
 10
-84.0193
 20
66.3828
 11
-84.0535
 21
66.2295
  0
LINE
  8
0
 10
-84.0535
 20
66.2295
 11
-84.0974
 21
66.0787
  0
LINE
  8
0
 10
-84.0974
 20
66.0787
 11
-84.1506
 21
65.9309
  0
LINE
  8
0
 10
-84.1506
 20
65.9309
 11
-84.2129
 21
65.7868
  0
LINE
  8
0
 10
-84.2129
 20
65.7868
 11
-84.2842
 21
65.6468
  0
LINE
  8
0
 10
-84.2842
 20
65.6468
 11
-84.3642
 21
65.5116
  0
LINE
  8
0
 10
-84.3642
 20
65.5116
 11
-84.4525
 21
65.3817
  0
LINE
  8
0
 10
-84.4525
 20
65.3817
 11
-84.5487
 21
65.2576
  0
LINE
  8
0
 10
-84.5487
 20
65.2576
 11
-84.6526
 21
65.1398
  0
LINE
  8
0
 10
-84.6526
 20
65.1398
 11
-84.7636
 21
65.0288
  0
LINE
  8
0
 10
-84.7636
 20
65.0288
 11
-84.8814
 21
64.9249
  0
LINE
  8
0
 10
-84.8814
 20
64.9249
 11
-85.0055
 21
64.8287
  0
LINE
  8
0
 10
-85.0055
 20
64.8287
 11
-85.1354
 21
64.7404
  0
LINE
  8
0
 10
-85.1354
 20
64.7404
 11
-85.2706
 21
64.6604
  0
LINE
  8
0
 10
-85.2706
 20
64.6604
 11
-85.4105
 21
64.5891
  0
LINE
  8
0
 10
-85.4105
 20
64.5891
 11
-85.5547
 21
64.5268
  0
LINE
  8
0
 10
-85.5547
 20
64.5268
 11
-85.7025
 21
64.4736
  0
LINE
  8
0
 10
-85.7025
 20
64.4736
 11
-85.8533
 21
64.4297
  0
LINE
  8
0
 10
-85.8533
 20
64.4297
 11
-86.0065
 21
64.3955
  0
LINE
  8
0
 10
-86.0065
 20
64.3955
 11
-86.1617
 21
64.3709
  0
LINE
  8
0
 10
-86.1617
 20
64.3709
 11
-86.318
 21
64.3561
  0
LINE
  8
0
 10
-86.318
 20
64.3561
 11
-86.475
 21
64.3512
  0
LINE
  8
0
 10
-86.475
 20
64.3512
 11
-86.632
 21
64.3561
  0
LINE
  8
0
 10
-133.049
 20
-18.08
 11
-120.225
 21
-5.25581
  0
LINE
  8
0
 10
-120.225
 20
-5.25581
 11
-120.225
 21
-5.29263
  0
LINE
  8
0
 10
-120.225
 20
-5.29263
 11
-117.205
 21
-2.62997
  0
LINE
  8
0
 10
-117.205
 20
-2.62997
 11
-111.612
 21
1.70825
  0
LINE
  8
0
 10
-111.612
 20
1.70825
 11
-105.758
 21
5.68675
  0
LINE
  8
0
 10
-105.758
 20
5.68675
 11
-99.6654
 21
9.28981
  0
LINE
  8
0
 10
-99.6654
 20
9.28981
 11
-93.3587
 21
12.5032
  0
LINE
  8
0
 10
-93.3587
 20
12.5032
 11
-86.8627
 21
15.3143
  0
LINE
  8
0
 10
-86.8627
 20
15.3143
 11
-86.475
 21
15.4539
  0
LINE
  8
0
 10
-86.475
 20
15.4539
 11
-86.475
 21
63.1812
  0
LINE
  8
0
 10
-86.475
 20
63.1812
 11
-84.7055
 21
63.6953
  0
LINE
  8
0
 10
-84.7055
 20
63.6953
 11
-75.0122
 21
65.862
  0
LINE
  8
0
 10
-75.0122
 20
65.862
 11
-65.202
 21
67.4158
  0
LINE
  8
0
 10
-65.202
 20
67.4158
 11
-55.3136
 21
68.3505
  0
LINE
  8
0
 10
-55.3136
 20
68.3505
 11
-45.386
 21
68.6625
  0
LINE
  8
0
 10
-45.386
 20
68.6625
 11
-35.4584
 21
68.3505
  0
LINE
  8
0
 10
-35.4584
 20
68.3505
 11
-25.57
 21
67.4158
  0
LINE
  8
0
 10
-25.57
 20
67.4158
 11
-15.7598
 21
65.862
  0
LINE
  8
0
 10
-15.7598
 20
65.862
 11
-6.06651
 21
63.6953
  0
LINE
  8
0
 10
-6.06651
 20
63.6953
 11
3.47159
 21
60.9242
  0
LINE
  8
0
 10
3.47159
 20
60.9242
 11
9.64999
 21
58.6998
  0
LINE
  8
0
 10
9.64999
 20
58.6998
 11
9.64999
 21
-11.525
  0
LINE
  8
0
 10
9.64999
 20
-11.525
 11
-14.811
 21
-11.525
  0
LINE
  8
0
 10
-14.811
 20
-11.525
 11
-14.811
 21
-19.095
  0
LINE
  8
0
 10
-14.811
 20
-19.095
 11
-45.187
 21
-19.095
  0
LINE
  8
0
 10
-45.187
 20
-19.095
 11
-45.272
 21
-19.1302
  0
LINE
  8
0
 10
-45.272
 20
-19.1302
 11
-47.5957
 21
-19.1302
  0
LINE
  8
0
 10
-47.5957
 20
-19.1302
 11
-52.0066
 21
-19.4077
  0
LINE
  8
0
 10
-52.0066
 20
-19.4077
 11
-56.3911
 21
-19.9616
  0
LINE
  8
0
 10
-56.3911
 20
-19.9616
 11
-60.7322
 21
-20.7897
  0
LINE
  8
0
 10
-60.7322
 20
-20.7897
 11
-65.0129
 21
-21.8888
  0
LINE
  8
0
 10
-65.0129
 20
-21.8888
 11
-69.2159
 21
-23.2544
  0
LINE
  8
0
 10
-69.2159
 20
-23.2544
 11
-73.325
 21
-24.8813
  0
LINE
  8
0
 10
-73.325
 20
-24.8813
 11
-77.3239
 21
-26.7631
  0
LINE
  8
0
 10
-77.3239
 20
-26.7631
 11
-81.1966
 21
-28.8922
  0
LINE
  8
0
 10
-81.1966
 20
-28.8922
 11
-84.9281
 21
-31.2602
  0
LINE
  8
0
 10
-84.9281
 20
-31.2602
 11
-88.5036
 21
-33.858
  0
LINE
  8
0
 10
-88.5036
 20
-33.858
 11
-91.9085
 21
-36.6748
  0
LINE
  8
0
 10
-91.9085
 20
-36.6748
 11
-95.142
 21
-39.7112
  0
LINE
  8
0
 10
-95.142
 20
-39.7112
 11
-103.28
 21
-47.8492
  0
LINE
  8
0
 10
-103.28
 20
-47.8492
 11
-133.049
 21
-18.08
  0
LINE
  8
0
 10
13.0495
 20
59.5913
 11
12.9495
 21
59.6007
  0
LINE
  8
0
 10
12.9495
 20
59.6007
 11
12.8502
 21
59.6165
  0
LINE
  8
0
 10
12.8502
 20
59.6165
 11
12.7521
 21
59.6384
  0
LINE
  8
0
 10
12.7521
 20
59.6384
 11
12.6556
 21
59.6664
  0
LINE
  8
0
 10
12.6556
 20
59.6664
 11
12.561
 21
59.7005
  0
LINE
  8
0
 10
12.561
 20
59.7005
 11
12.4688
 21
59.7404
  0
LINE
  8
0
 10
12.4688
 20
59.7404
 11
12.3792
 21
59.786
  0
LINE
  8
0
 10
12.3792
 20
59.786
 11
12.2927
 21
59.8372
  0
LINE
  8
0
 10
12.2927
 20
59.8372
 11
12.2095
 21
59.8937
  0
LINE
  8
0
 10
12.2095
 20
59.8937
 11
12.1301
 21
59.9553
  0
LINE
  8
0
 10
12.1301
 20
59.9553
 11
12.0547
 21
60.0218
  0
LINE
  8
0
 10
12.0547
 20
60.0218
 11
11.9836
 21
60.0928
  0
LINE
  8
0
 10
11.9836
 20
60.0928
 11
11.9172
 21
60.1682
  0
LINE
  8
0
 10
11.9172
 20
60.1682
 11
11.8556
 21
60.2477
  0
LINE
  8
0
 10
11.8556
 20
60.2477
 11
11.7991
 21
60.3308
  0
LINE
  8
0
 10
11.7991
 20
60.3308
 11
11.7479
 21
60.4173
  0
LINE
  8
0
 10
11.7479
 20
60.4173
 11
11.7023
 21
60.5069
  0
LINE
  8
0
 10
11.7023
 20
60.5069
 11
11.6624
 21
60.5991
  0
LINE
  8
0
 10
11.6624
 20
60.5991
 11
11.6283
 21
60.6937
  0
LINE
  8
0
 10
11.6283
 20
60.6937
 11
11.6003
 21
60.7902
  0
LINE
  8
0
 10
11.6003
 20
60.7902
 11
11.5783
 21
60.8883
  0
LINE
  8
0
 10
11.5783
 20
60.8883
 11
11.5626
 21
60.9876
  0
LINE
  8
0
 10
11.5626
 20
60.9876
 11
11.5531
 21
61.0876
  0
LINE
  8
0
 10
11.5531
 20
61.0876
 11
11.55
 21
61.1881
  0
LINE
  8
0
 10
11.55
 20
61.1881
 11
11.5531
 21
61.2886
  0
LINE
  8
0
 10
11.5531
 20
61.2886
 11
11.5626
 21
61.3886
  0
LINE
  8
0
 10
11.5626
 20
61.3886
 11
11.5783
 21
61.4879
  0
LINE
  8
0
 10
11.5783
 20
61.4879
 11
11.6003
 21
61.586
  0
LINE
  8
0
 10
11.6003
 20
61.586
 11
11.6283
 21
61.6825
  0
LINE
  8
0
 10
11.6283
 20
61.6825
 11
11.6624
 21
61.7771
  0
LINE
  8
0
 10
11.6624
 20
61.7771
 11
11.7023
 21
61.8694
  0
LINE
  8
0
 10
11.7023
 20
61.8694
 11
11.7479
 21
61.9589
  0
LINE
  8
0
 10
11.7479
 20
61.9589
 11
11.7991
 21
62.0454
  0
LINE
  8
0
 10
11.7991
 20
62.0454
 11
11.8556
 21
62.1286
  0
LINE
  8
0
 10
11.8556
 20
62.1286
 11
11.9172
 21
62.208
  0
LINE
  8
0
 10
11.9172
 20
62.208
 11
11.9836
 21
62.2834
  0
LINE
  8
0
 10
11.9836
 20
62.2834
 11
12.0547
 21
62.3545
  0
LINE
  8
0
 10
12.0547
 20
62.3545
 11
12.1301
 21
62.4209
  0
LINE
  8
0
 10
12.1301
 20
62.4209
 11
12.2095
 21
62.4825
  0
LINE
  8
0
 10
12.2095
 20
62.4825
 11
12.2927
 21
62.539
  0
LINE
  8
0
 10
12.2927
 20
62.539
 11
12.3792
 21
62.5902
  0
LINE
  8
0
 10
12.3792
 20
62.5902
 11
12.4688
 21
62.6358
  0
LINE
  8
0
 10
12.4688
 20
62.6358
 11
12.561
 21
62.6758
  0
LINE
  8
0
 10
12.561
 20
62.6758
 11
12.6556
 21
62.7098
  0
LINE
  8
0
 10
12.6556
 20
62.7098
 11
12.7521
 21
62.7379
  0
LINE
  8
0
 10
12.7521
 20
62.7379
 11
12.8502
 21
62.7598
  0
LINE
  8
0
 10
12.8502
 20
62.7598
 11
12.9495
 21
62.7755
  0
LINE
  8
0
 10
12.9495
 20
62.7755
 11
13.0495
 21
62.785
  0
LINE
  8
0
 10
13.0495
 20
62.785
 11
13.15
 21
62.7881
  0
LINE
  8
0
 10
13.15
 20
62.7881
 11
13.2505
 21
62.785
  0
LINE
  8
0
 10
13.2505
 20
62.785
 11
13.3505
 21
62.7755
  0
LINE
  8
0
 10
13.3505
 20
62.7755
 11
13.4498
 21
62.7598
  0
LINE
  8
0
 10
13.4498
 20
62.7598
 11
13.5479
 21
62.7379
  0
LINE
  8
0
 10
13.5479
 20
62.7379
 11
13.6444
 21
62.7098
  0
LINE
  8
0
 10
13.6444
 20
62.7098
 11
13.739
 21
62.6758
  0
LINE
  8
0
 10
13.739
 20
62.6758
 11
13.8312
 21
62.6358
  0
LINE
  8
0
 10
13.8312
 20
62.6358
 11
13.9208
 21
62.5902
  0
LINE
  8
0
 10
13.9208
 20
62.5902
 11
14.0073
 21
62.539
  0
LINE
  8
0
 10
14.0073
 20
62.539
 11
14.0905
 21
62.4825
  0
LINE
  8
0
 10
14.0905
 20
62.4825
 11
14.1699
 21
62.4209
  0
LINE
  8
0
 10
14.1699
 20
62.4209
 11
14.2453
 21
62.3545
  0
LINE
  8
0
 10
14.2453
 20
62.3545
 11
14.3163
 21
62.2834
  0
LINE
  8
0
 10
14.3163
 20
62.2834
 11
14.3828
 21
62.208
  0
LINE
  8
0
 10
14.3828
 20
62.208
 11
14.4444
 21
62.1286
  0
LINE
  8
0
 10
14.4444
 20
62.1286
 11
14.5009
 21
62.0454
  0
LINE
  8
0
 10
14.5009
 20
62.0454
 11
14.5521
 21
61.9589
  0
LINE
  8
0
 10
14.5521
 20
61.9589
 11
14.5977
 21
61.8694
  0
LINE
  8
0
 10
14.5977
 20
61.8694
 11
14.6376
 21
61.7771
  0
LINE
  8
0
 10
14.6376
 20
61.7771
 11
14.6717
 21
61.6825
  0
LINE
  8
0
 10
14.6717
 20
61.6825
 11
14.6997
 21
61.586
  0
LINE
  8
0
 10
14.6997
 20
61.586
 11
14.7216
 21
61.4879
  0
LINE
  8
0
 10
14.7216
 20
61.4879
 11
14.7374
 21
61.3886
  0
LINE
  8
0
 10
14.7374
 20
61.3886
 11
14.7468
 21
61.2886
  0
LINE
  8
0
 10
14.7468
 20
61.2886
 11
14.75
 21
61.1881
  0
LINE
  8
0
 10
14.75
 20
61.1881
 11
14.7468
 21
61.0876
  0
LINE
  8
0
 10
14.7468
 20
61.0876
 11
14.7374
 21
60.9876
  0
LINE
  8
0
 10
14.7374
 20
60.9876
 11
14.7216
 21
60.8883
  0
LINE
  8
0
 10
14.7216
 20
60.8883
 11
14.6997
 21
60.7902
  0
LINE
  8
0
 10
14.6997
 20
60.7902
 11
14.6717
 21
60.6937
  0
LINE
  8
0
 10
14.6717
 20
60.6937
 11
14.6376
 21
60.5991
  0
LINE
  8
0
 10
14.6376
 20
60.5991
 11
14.5977
 21
60.5069
  0
LINE
  8
0
 10
14.5977
 20
60.5069
 11
14.5521
 21
60.4173
  0
LINE
  8
0
 10
14.5521
 20
60.4173
 11
14.5009
 21
60.3308
  0
LINE
  8
0
 10
14.5009
 20
60.3308
 11
14.4444
 21
60.2477
  0
LINE
  8
0
 10
14.4444
 20
60.2477
 11
14.3828
 21
60.1682
  0
LINE
  8
0
 10
14.3828
 20
60.1682
 11
14.3163
 21
60.0928
  0
LINE
  8
0
 10
14.3163
 20
60.0928
 11
14.2453
 21
60.0218
  0
LINE
  8
0
 10
14.2453
 20
60.0218
 11
14.1699
 21
59.9553
  0
LINE
  8
0
 10
14.1699
 20
59.9553
 11
14.0905
 21
59.8937
  0
LINE
  8
0
 10
14.0905
 20
59.8937
 11
14.0073
 21
59.8372
  0
LINE
  8
0
 10
14.0073
 20
59.8372
 11
13.9208
 21
59.786
  0
LINE
  8
0
 10
13.9208
 20
59.786
 11
13.8312
 21
59.7404
  0
LINE
  8
0
 10
13.8312
 20
59.7404
 11
13.739
 21
59.7005
  0
LINE
  8
0
 10
13.739
 20
59.7005
 11
13.6444
 21
59.6664
  0
LINE
  8
0
 10
13.6444
 20
59.6664
 11
13.5479
 21
59.6384
  0
LINE
  8
0
 10
13.5479
 20
59.6384
 11
13.4498
 21
59.6165
  0
LINE
  8
0
 10
13.4498
 20
59.6165
 11
13.3505
 21
59.6007
  0
LINE
  8
0
 10
13.3505
 20
59.6007
 11
13.2505
 21
59.5913
  0
LINE
  8
0
 10
13.2505
 20
59.5913
 11
13.15
 21
59.5881
  0
LINE
  8
0
 10
13.15
 20
59.5881
 11
13.0495
 21
59.5913
  0
LINE
  8
0
 10
-110
 20
20
 11
-110
 21
56
  0
LINE
  8
0
 10
-110
 20
56
 11
-96
 21
56
  0
LINE
  8
0
 10
-96
 20
56
 11
-96
 21
20
  0
LINE
  8
0
 10
-96
 20
20
 11
-110
 21
20
  0
LINE
  8
0
 10
-123.825
 20
50.308
 11
-123.926
 21
50.3175
  0
LINE
  8
0
 10
-123.926
 20
50.3175
 11
-124.025
 21
50.3332
  0
LINE
  8
0
 10
-124.025
 20
50.3332
 11
-124.123
 21
50.3551
  0
LINE
  8
0
 10
-124.123
 20
50.3551
 11
-124.219
 21
50.3832
  0
LINE
  8
0
 10
-124.219
 20
50.3832
 11
-124.314
 21
50.4172
  0
LINE
  8
0
 10
-124.314
 20
50.4172
 11
-124.406
 21
50.4571
  0
LINE
  8
0
 10
-124.406
 20
50.4571
 11
-124.496
 21
50.5028
  0
LINE
  8
0
 10
-124.496
 20
50.5028
 11
-124.582
 21
50.5539
  0
LINE
  8
0
 10
-124.582
 20
50.5539
 11
-124.665
 21
50.6104
  0
LINE
  8
0
 10
-124.665
 20
50.6104
 11
-124.745
 21
50.672
  0
LINE
  8
0
 10
-124.745
 20
50.672
 11
-124.82
 21
50.7385
  0
LINE
  8
0
 10
-124.82
 20
50.7385
 11
-124.891
 21
50.8096
  0
LINE
  8
0
 10
-124.891
 20
50.8096
 11
-124.958
 21
50.885
  0
LINE
  8
0
 10
-124.958
 20
50.885
 11
-125.019
 21
50.9644
  0
LINE
  8
0
 10
-125.019
 20
50.9644
 11
-125.076
 21
51.0475
  0
LINE
  8
0
 10
-125.076
 20
51.0475
 11
-125.127
 21
51.134
  0
LINE
  8
0
 10
-125.127
 20
51.134
 11
-125.173
 21
51.2236
  0
LINE
  8
0
 10
-125.173
 20
51.2236
 11
-125.213
 21
51.3159
  0
LINE
  8
0
 10
-125.213
 20
51.3159
 11
-125.247
 21
51.4104
  0
LINE
  8
0
 10
-125.247
 20
51.4104
 11
-125.275
 21
51.5069
  0
LINE
  8
0
 10
-125.275
 20
51.5069
 11
-125.297
 21
51.605
  0
LINE
  8
0
 10
-125.297
 20
51.605
 11
-125.312
 21
51.7043
  0
LINE
  8
0
 10
-125.312
 20
51.7043
 11
-125.322
 21
51.8044
  0
LINE
  8
0
 10
-125.322
 20
51.8044
 11
-125.325
 21
51.9048
  0
LINE
  8
0
 10
-125.325
 20
51.9048
 11
-125.322
 21
52.0053
  0
LINE
  8
0
 10
-125.322
 20
52.0053
 11
-125.312
 21
52.1054
  0
LINE
  8
0
 10
-125.312
 20
52.1054
 11
-125.297
 21
52.2047
  0
LINE
  8
0
 10
-125.297
 20
52.2047
 11
-125.275
 21
52.3027
  0
LINE
  8
0
 10
-125.275
 20
52.3027
 11
-125.247
 21
52.3993
  0
LINE
  8
0
 10
-125.247
 20
52.3993
 11
-125.213
 21
52.4939
  0
LINE
  8
0
 10
-125.213
 20
52.4939
 11
-125.173
 21
52.5861
  0
LINE
  8
0
 10
-125.173
 20
52.5861
 11
-125.127
 21
52.6757
  0
LINE
  8
0
 10
-125.127
 20
52.6757
 11
-125.076
 21
52.7622
  0
LINE
  8
0
 10
-125.076
 20
52.7622
 11
-125.019
 21
52.8453
  0
LINE
  8
0
 10
-125.019
 20
52.8453
 11
-124.958
 21
52.9247
  0
LINE
  8
0
 10
-124.958
 20
52.9247
 11
-124.891
 21
53.0001
  0
LINE
  8
0
 10
-124.891
 20
53.0001
 11
-124.82
 21
53.0712
  0
LINE
  8
0
 10
-124.82
 20
53.0712
 11
-124.745
 21
53.1377
  0
LINE
  8
0
 10
-124.745
 20
53.1377
 11
-124.665
 21
53.1993
  0
LINE
  8
0
 10
-124.665
 20
53.1993
 11
-124.582
 21
53.2558
  0
LINE
  8
0
 10
-124.582
 20
53.2558
 11
-124.496
 21
53.3069
  0
LINE
  8
0
 10
-124.496
 20
53.3069
 11
-124.406
 21
53.3526
  0
LINE
  8
0
 10
-124.406
 20
53.3526
 11
-124.314
 21
53.3925
  0
LINE
  8
0
 10
-124.314
 20
53.3925
 11
-124.219
 21
53.4265
  0
LINE
  8
0
 10
-124.219
 20
53.4265
 11
-124.123
 21
53.4546
  0
LINE
  8
0
 10
-124.123
 20
53.4546
 11
-124.025
 21
53.4765
  0
LINE
  8
0
 10
-124.025
 20
53.4765
 11
-123.926
 21
53.4922
  0
LINE
  8
0
 10
-123.926
 20
53.4922
 11
-123.825
 21
53.5017
  0
LINE
  8
0
 10
-123.825
 20
53.5017
 11
-123.725
 21
53.5049
  0
LINE
  8
0
 10
-123.725
 20
53.5049
 11
-123.625
 21
53.5017
  0
LINE
  8
0
 10
-123.625
 20
53.5017
 11
-123.524
 21
53.4922
  0
LINE
  8
0
 10
-123.524
 20
53.4922
 11
-123.425
 21
53.4765
  0
LINE
  8
0
 10
-123.425
 20
53.4765
 11
-123.327
 21
53.4546
  0
LINE
  8
0
 10
-123.327
 20
53.4546
 11
-123.231
 21
53.4265
  0
LINE
  8
0
 10
-123.231
 20
53.4265
 11
-123.136
 21
53.3925
  0
LINE
  8
0
 10
-123.136
 20
53.3925
 11
-123.044
 21
53.3526
  0
LINE
  8
0
 10
-123.044
 20
53.3526
 11
-122.954
 21
53.3069
  0
LINE
  8
0
 10
-122.954
 20
53.3069
 11
-122.868
 21
53.2558
  0
LINE
  8
0
 10
-122.868
 20
53.2558
 11
-122.785
 21
53.1993
  0
LINE
  8
0
 10
-122.785
 20
53.1993
 11
-122.705
 21
53.1377
  0
LINE
  8
0
 10
-122.705
 20
53.1377
 11
-122.63
 21
53.0712
  0
LINE
  8
0
 10
-122.63
 20
53.0712
 11
-122.559
 21
53.0001
  0
LINE
  8
0
 10
-122.559
 20
53.0001
 11
-122.492
 21
52.9247
  0
LINE
  8
0
 10
-122.492
 20
52.9247
 11
-122.431
 21
52.8453
  0
LINE
  8
0
 10
-122.431
 20
52.8453
 11
-122.374
 21
52.7622
  0
LINE
  8
0
 10
-122.374
 20
52.7622
 11
-122.323
 21
52.6757
  0
LINE
  8
0
 10
-122.323
 20
52.6757
 11
-122.277
 21
52.5861
  0
LINE
  8
0
 10
-122.277
 20
52.5861
 11
-122.237
 21
52.4939
  0
LINE
  8
0
 10
-122.237
 20
52.4939
 11
-122.203
 21
52.3993
  0
LINE
  8
0
 10
-122.203
 20
52.3993
 11
-122.175
 21
52.3027
  0
LINE
  8
0
 10
-122.175
 20
52.3027
 11
-122.153
 21
52.2047
  0
LINE
  8
0
 10
-122.153
 20
52.2047
 11
-122.138
 21
52.1054
  0
LINE
  8
0
 10
-122.138
 20
52.1054
 11
-122.128
 21
52.0053
  0
LINE
  8
0
 10
-122.128
 20
52.0053
 11
-122.125
 21
51.9048
  0
LINE
  8
0
 10
-122.125
 20
51.9048
 11
-122.128
 21
51.8044
  0
LINE
  8
0
 10
-122.128
 20
51.8044
 11
-122.138
 21
51.7043
  0
LINE
  8
0
 10
-122.138
 20
51.7043
 11
-122.153
 21
51.605
  0
LINE
  8
0
 10
-122.153
 20
51.605
 11
-122.175
 21
51.5069
  0
LINE
  8
0
 10
-122.175
 20
51.5069
 11
-122.203
 21
51.4104
  0
LINE
  8
0
 10
-122.203
 20
51.4104
 11
-122.237
 21
51.3159
  0
LINE
  8
0
 10
-122.237
 20
51.3159
 11
-122.277
 21
51.2236
  0
LINE
  8
0
 10
-122.277
 20
51.2236
 11
-122.323
 21
51.134
  0
LINE
  8
0
 10
-122.323
 20
51.134
 11
-122.374
 21
51.0475
  0
LINE
  8
0
 10
-122.374
 20
51.0475
 11
-122.431
 21
50.9644
  0
LINE
  8
0
 10
-122.431
 20
50.9644
 11
-122.492
 21
50.885
  0
LINE
  8
0
 10
-122.492
 20
50.885
 11
-122.559
 21
50.8096
  0
LINE
  8
0
 10
-122.559
 20
50.8096
 11
-122.63
 21
50.7385
  0
LINE
  8
0
 10
-122.63
 20
50.7385
 11
-122.705
 21
50.672
  0
LINE
  8
0
 10
-122.705
 20
50.672
 11
-122.785
 21
50.6104
  0
LINE
  8
0
 10
-122.785
 20
50.6104
 11
-122.868
 21
50.5539
  0
LINE
  8
0
 10
-122.868
 20
50.5539
 11
-122.954
 21
50.5028
  0
LINE
  8
0
 10
-122.954
 20
50.5028
 11
-123.044
 21
50.4571
  0
LINE
  8
0
 10
-123.044
 20
50.4571
 11
-123.136
 21
50.4172
  0
LINE
  8
0
 10
-123.136
 20
50.4172
 11
-123.231
 21
50.3832
  0
LINE
  8
0
 10
-123.231
 20
50.3832
 11
-123.327
 21
50.3551
  0
LINE
  8
0
 10
-123.327
 20
50.3551
 11
-123.425
 21
50.3332
  0
LINE
  8
0
 10
-123.425
 20
50.3332
 11
-123.524
 21
50.3175
  0
LINE
  8
0
 10
-123.524
 20
50.3175
 11
-123.625
 21
50.308
  0
LINE
  8
0
 10
-123.625
 20
50.308
 11
-123.725
 21
50.3049
  0
LINE
  8
0
 10
-123.725
 20
50.3049
 11
-123.825
 21
50.308
  0
LINE
  8
0
 10
12.993
 20
39.6398
 11
12.8367
 21
39.6545
  0
LINE
  8
0
 10
12.8367
 20
39.6545
 11
12.6815
 21
39.6791
  0
LINE
  8
0
 10
12.6815
 20
39.6791
 11
12.5283
 21
39.7134
  0
LINE
  8
0
 10
12.5283
 20
39.7134
 11
12.3775
 21
39.7572
  0
LINE
  8
0
 10
12.3775
 20
39.7572
 11
12.2297
 21
39.8104
  0
LINE
  8
0
 10
12.2297
 20
39.8104
 11
12.0855
 21
39.8728
  0
LINE
  8
0
 10
12.0855
 20
39.8728
 11
11.9456
 21
39.9441
  0
LINE
  8
0
 10
11.9456
 20
39.9441
 11
11.8104
 21
40.024
  0
LINE
  8
0
 10
11.8104
 20
40.024
 11
11.6805
 21
40.1123
  0
LINE
  8
0
 10
11.6805
 20
40.1123
 11
11.5564
 21
40.2086
  0
LINE
  8
0
 10
11.5564
 20
40.2086
 11
11.4386
 21
40.3124
  0
LINE
  8
0
 10
11.4386
 20
40.3124
 11
11.3276
 21
40.4235
  0
LINE
  8
0
 10
11.3276
 20
40.4235
 11
11.2237
 21
40.5413
  0
LINE
  8
0
 10
11.2237
 20
40.5413
 11
11.1275
 21
40.6654
  0
LINE
  8
0
 10
11.1275
 20
40.6654
 11
11.0392
 21
40.7953
  0
LINE
  8
0
 10
11.0392
 20
40.7953
 11
10.9592
 21
40.9305
  0
LINE
  8
0
 10
10.9592
 20
40.9305
 11
10.8879
 21
41.0704
  0
LINE
  8
0
 10
10.8879
 20
41.0704
 11
10.8255
 21
41.2145
  0
LINE
  8
0
 10
10.8255
 20
41.2145
 11
10.7724
 21
41.3623
  0
LINE
  8
0
 10
10.7724
 20
41.3623
 11
10.7285
 21
41.5131
  0
LINE
  8
0
 10
10.7285
 20
41.5131
 11
10.6943
 21
41.6664
  0
LINE
  8
0
 10
10.6943
 20
41.6664
 11
10.6697
 21
41.8215
  0
LINE
  8
0
 10
10.6697
 20
41.8215
 11
10.6549
 21
41.9779
  0
LINE
  8
0
 10
10.6549
 20
41.9779
 11
10.65
 21
42.1348
  0
LINE
  8
0
 10
10.65
 20
42.1348
 11
10.6549
 21
42.2918
  0
LINE
  8
0
 10
10.6549
 20
42.2918
 11
10.6697
 21
42.4482
  0
LINE
  8
0
 10
10.6697
 20
42.4482
 11
10.6943
 21
42.6033
  0
LINE
  8
0
 10
10.6943
 20
42.6033
 11
10.7285
 21
42.7566
  0
LINE
  8
0
 10
10.7285
 20
42.7566
 11
10.7724
 21
42.9074
  0
LINE
  8
0
 10
10.7724
 20
42.9074
 11
10.8255
 21
43.0551
  0
LINE
  8
0
 10
10.8255
 20
43.0551
 11
10.8879
 21
43.1993
  0
LINE
  8
0
 10
10.8879
 20
43.1993
 11
10.9592
 21
43.3392
  0
LINE
  8
0
 10
10.9592
 20
43.3392
 11
11.0392
 21
43.4744
  0
LINE
  8
0
 10
11.0392
 20
43.4744
 11
11.1275
 21
43.6043
  0
LINE
  8
0
 10
11.1275
 20
43.6043
 11
11.2237
 21
43.7284
  0
LINE
  8
0
 10
11.2237
 20
43.7284
 11
11.3276
 21
43.8462
  0
LINE
  8
0
 10
11.3276
 20
43.8462
 11
11.4386
 21
43.9573
  0
LINE
  8
0
 10
11.4386
 20
43.9573
 11
11.5564
 21
44.0611
  0
LINE
  8
0
 10
11.5564
 20
44.0611
 11
11.6805
 21
44.1574
  0
LINE
  8
0
 10
11.6805
 20
44.1574
 11
11.8104
 21
44.2457
  0
LINE
  8
0
 10
11.8104
 20
44.2457
 11
11.9456
 21
44.3256
  0
LINE
  8
0
 10
11.9456
 20
44.3256
 11
12.0855
 21
44.3969
  0
LINE
  8
0
 10
12.0855
 20
44.3969
 11
12.2297
 21
44.4593
  0
LINE
  8
0
 10
12.2297
 20
44.4593
 11
12.3775
 21
44.5125
  0
LINE
  8
0
 10
12.3775
 20
44.5125
 11
12.5283
 21
44.5563
  0
LINE
  8
0
 10
12.5283
 20
44.5563
 11
12.6815
 21
44.5905
  0
LINE
  8
0
 10
12.6815
 20
44.5905
 11
12.8367
 21
44.6151
  0
LINE
  8
0
 10
12.8367
 20
44.6151
 11
12.993
 21
44.6299
  0
LINE
  8
0
 10
12.993
 20
44.6299
 11
13.15
 21
44.6348
  0
LINE
  8
0
 10
13.15
 20
44.6348
 11
13.307
 21
44.6299
  0
LINE
  8
0
 10
13.307
 20
44.6299
 11
13.4633
 21
44.6151
  0
LINE
  8
0
 10
13.4633
 20
44.6151
 11
13.6184
 21
44.5905
  0
LINE
  8
0
 10
13.6184
 20
44.5905
 11
13.7717
 21
44.5563
  0
LINE
  8
0
 10
13.7717
 20
44.5563
 11
13.9225
 21
44.5125
  0
LINE
  8
0
 10
13.9225
 20
44.5125
 11
14.0703
 21
44.4593
  0
LINE
  8
0
 10
14.0703
 20
44.4593
 11
14.2144
 21
44.3969
  0
LINE
  8
0
 10
14.2144
 20
44.3969
 11
14.3544
 21
44.3256
  0
LINE
  8
0
 10
14.3544
 20
44.3256
 11
14.4896
 21
44.2457
  0
LINE
  8
0
 10
14.4896
 20
44.2457
 11
14.6195
 21
44.1574
  0
LINE
  8
0
 10
14.6195
 20
44.1574
 11
14.7435
 21
44.0611
  0
LINE
  8
0
 10
14.7435
 20
44.0611
 11
14.8614
 21
43.9573
  0
LINE
  8
0
 10
14.8614
 20
43.9573
 11
14.9724
 21
43.8462
  0
LINE
  8
0
 10
14.9724
 20
43.8462
 11
15.0763
 21
43.7284
  0
LINE
  8
0
 10
15.0763
 20
43.7284
 11
15.1725
 21
43.6043
  0
LINE
  8
0
 10
15.1725
 20
43.6043
 11
15.2608
 21
43.4744
  0
LINE
  8
0
 10
15.2608
 20
43.4744
 11
15.3408
 21
43.3392
  0
LINE
  8
0
 10
15.3408
 20
43.3392
 11
15.4121
 21
43.1993
  0
LINE
  8
0
 10
15.4121
 20
43.1993
 11
15.4744
 21
43.0551
  0
LINE
  8
0
 10
15.4744
 20
43.0551
 11
15.5276
 21
42.9074
  0
LINE
  8
0
 10
15.5276
 20
42.9074
 11
15.5715
 21
42.7566
  0
LINE
  8
0
 10
15.5715
 20
42.7566
 11
15.6057
 21
42.6033
  0
LINE
  8
0
 10
15.6057
 20
42.6033
 11
15.6303
 21
42.4482
  0
LINE
  8
0
 10
15.6303
 20
42.4482
 11
15.6451
 21
42.2918
  0
LINE
  8
0
 10
15.6451
 20
42.2918
 11
15.65
 21
42.1348
  0
LINE
  8
0
 10
15.65
 20
42.1348
 11
15.6451
 21
41.9779
  0
LINE
  8
0
 10
15.6451
 20
41.9779
 11
15.6303
 21
41.8215
  0
LINE
  8
0
 10
15.6303
 20
41.8215
 11
15.6057
 21
41.6664
  0
LINE
  8
0
 10
15.6057
 20
41.6664
 11
15.5715
 21
41.5131
  0
LINE
  8
0
 10
15.5715
 20
41.5131
 11
15.5276
 21
41.3623
  0
LINE
  8
0
 10
15.5276
 20
41.3623
 11
15.4744
 21
41.2145
  0
LINE
  8
0
 10
15.4744
 20
41.2145
 11
15.4121
 21
41.0704
  0
LINE
  8
0
 10
15.4121
 20
41.0704
 11
15.3408
 21
40.9305
  0
LINE
  8
0
 10
15.3408
 20
40.9305
 11
15.2608
 21
40.7953
  0
LINE
  8
0
 10
15.2608
 20
40.7953
 11
15.1725
 21
40.6654
  0
LINE
  8
0
 10
15.1725
 20
40.6654
 11
15.0763
 21
40.5413
  0
LINE
  8
0
 10
15.0763
 20
40.5413
 11
14.9724
 21
40.4235
  0
LINE
  8
0
 10
14.9724
 20
40.4235
 11
14.8614
 21
40.3124
  0
LINE
  8
0
 10
14.8614
 20
40.3124
 11
14.7435
 21
40.2086
  0
LINE
  8
0
 10
14.7435
 20
40.2086
 11
14.6195
 21
40.1123
  0
LINE
  8
0
 10
14.6195
 20
40.1123
 11
14.4896
 21
40.024
  0
LINE
  8
0
 10
14.4896
 20
40.024
 11
14.3544
 21
39.9441
  0
LINE
  8
0
 10
14.3544
 20
39.9441
 11
14.2144
 21
39.8728
  0
LINE
  8
0
 10
14.2144
 20
39.8728
 11
14.0703
 21
39.8104
  0
LINE
  8
0
 10
14.0703
 20
39.8104
 11
13.9225
 21
39.7572
  0
LINE
  8
0
 10
13.9225
 20
39.7572
 11
13.7717
 21
39.7134
  0
LINE
  8
0
 10
13.7717
 20
39.7134
 11
13.6184
 21
39.6791
  0
LINE
  8
0
 10
13.6184
 20
39.6791
 11
13.4633
 21
39.6545
  0
LINE
  8
0
 10
13.4633
 20
39.6545
 11
13.307
 21
39.6398
  0
LINE
  8
0
 10
13.307
 20
39.6398
 11
13.15
 21
39.6348
  0
LINE
  8
0
 10
13.15
 20
39.6348
 11
12.993
 21
39.6398
  0
LINE
  8
0
 10
-123.882
 20
22.2133
 11
-124.038
 21
22.2281
  0
LINE
  8
0
 10
-124.038
 20
22.2281
 11
-124.193
 21
22.2527
  0
LINE
  8
0
 10
-124.193
 20
22.2527
 11
-124.347
 21
22.2869
  0
LINE
  8
0
 10
-124.347
 20
22.2869
 11
-124.498
 21
22.3307
  0
LINE
  8
0
 10
-124.498
 20
22.3307
 11
-124.645
 21
22.384
  0
LINE
  8
0
 10
-124.645
 20
22.384
 11
-124.789
 21
22.4463
  0
LINE
  8
0
 10
-124.789
 20
22.4463
 11
-124.929
 21
22.5176
  0
LINE
  8
0
 10
-124.929
 20
22.5176
 11
-125.065
 21
22.5976
  0
LINE
  8
0
 10
-125.065
 20
22.5976
 11
-125.194
 21
22.6859
  0
LINE
  8
0
 10
-125.194
 20
22.6859
 11
-125.319
 21
22.7821
  0
LINE
  8
0
 10
-125.319
 20
22.7821
 11
-125.436
 21
22.886
  0
LINE
  8
0
 10
-125.436
 20
22.886
 11
-125.547
 21
22.997
  0
LINE
  8
0
 10
-125.547
 20
22.997
 11
-125.651
 21
23.1148
  0
LINE
  8
0
 10
-125.651
 20
23.1148
 11
-125.748
 21
23.2389
  0
LINE
  8
0
 10
-125.748
 20
23.2389
 11
-125.836
 21
23.3688
  0
LINE
  8
0
 10
-125.836
 20
23.3688
 11
-125.916
 21
23.504
  0
LINE
  8
0
 10
-125.916
 20
23.504
 11
-125.987
 21
23.644
  0
LINE
  8
0
 10
-125.987
 20
23.644
 11
-126.049
 21
23.7881
  0
LINE
  8
0
 10
-126.049
 20
23.7881
 11
-126.103
 21
23.9359
  0
LINE
  8
0
 10
-126.103
 20
23.9359
 11
-126.146
 21
24.0867
  0
LINE
  8
0
 10
-126.146
 20
24.0867
 11
-126.181
 21
24.2399
  0
LINE
  8
0
 10
-126.181
 20
24.2399
 11
-126.205
 21
24.3951
  0
LINE
  8
0
 10
-126.205
 20
24.3951
 11
-126.22
 21
24.5514
  0
LINE
  8
0
 10
-126.22
 20
24.5514
 11
-126.225
 21
24.7084
  0
LINE
  8
0
 10
-126.225
 20
24.7084
 11
-126.22
 21
24.8654
  0
LINE
  8
0
 10
-126.22
 20
24.8654
 11
-126.205
 21
25.0217
  0
LINE
  8
0
 10
-126.205
 20
25.0217
 11
-126.181
 21
25.1768
  0
LINE
  8
0
 10
-126.181
 20
25.1768
 11
-126.146
 21
25.3301
  0
LINE
  8
0
 10
-126.146
 20
25.3301
 11
-126.103
 21
25.4809
  0
LINE
  8
0
 10
-126.103
 20
25.4809
 11
-126.049
 21
25.6287
  0
LINE
  8
0
 10
-126.049
 20
25.6287
 11
-125.987
 21
25.7728
  0
LINE
  8
0
 10
-125.987
 20
25.7728
 11
-125.916
 21
25.9128
  0
LINE
  8
0
 10
-125.916
 20
25.9128
 11
-125.836
 21
26.048
  0
LINE
  8
0
 10
-125.836
 20
26.048
 11
-125.748
 21
26.1779
  0
LINE
  8
0
 10
-125.748
 20
26.1779
 11
-125.651
 21
26.302
  0
LINE
  8
0
 10
-125.651
 20
26.302
 11
-125.547
 21
26.4198
  0
LINE
  8
0
 10
-125.547
 20
26.4198
 11
-125.436
 21
26.5308
  0
LINE
  8
0
 10
-125.436
 20
26.5308
 11
-125.319
 21
26.6347
  0
LINE
  8
0
 10
-125.319
 20
26.6347
 11
-125.194
 21
26.7309
  0
LINE
  8
0
 10
-125.194
 20
26.7309
 11
-125.065
 21
26.8192
  0
LINE
  8
0
 10
-125.065
 20
26.8192
 11
-124.929
 21
26.8992
  0
LINE
  8
0
 10
-124.929
 20
26.8992
 11
-124.789
 21
26.9705
  0
LINE
  8
0
 10
-124.789
 20
26.9705
 11
-124.645
 21
27.0328
  0
LINE
  8
0
 10
-124.645
 20
27.0328
 11
-124.498
 21
27.086
  0
LINE
  8
0
 10
-124.498
 20
27.086
 11
-124.347
 21
27.1299
  0
LINE
  8
0
 10
-124.347
 20
27.1299
 11
-124.193
 21
27.1641
  0
LINE
  8
0
 10
-124.193
 20
27.1641
 11
-124.038
 21
27.1887
  0
LINE
  8
0
 10
-124.038
 20
27.1887
 11
-123.882
 21
27.2035
  0
LINE
  8
0
 10
-123.882
 20
27.2035
 11
-123.725
 21
27.2084
  0
LINE
  8
0
 10
-123.725
 20
27.2084
 11
-123.568
 21
27.2035
  0
LINE
  8
0
 10
-123.568
 20
27.2035
 11
-123.412
 21
27.1887
  0
LINE
  8
0
 10
-123.412
 20
27.1887
 11
-123.257
 21
27.1641
  0
LINE
  8
0
 10
-123.257
 20
27.1641
 11
-123.103
 21
27.1299
  0
LINE
  8
0
 10
-123.103
 20
27.1299
 11
-122.952
 21
27.086
  0
LINE
  8
0
 10
-122.952
 20
27.086
 11
-122.805
 21
27.0328
  0
LINE
  8
0
 10
-122.805
 20
27.0328
 11
-122.661
 21
26.9705
  0
LINE
  8
0
 10
-122.661
 20
26.9705
 11
-122.521
 21
26.8992
  0
LINE
  8
0
 10
-122.521
 20
26.8992
 11
-122.385
 21
26.8192
  0
LINE
  8
0
 10
-122.385
 20
26.8192
 11
-122.256
 21
26.7309
  0
LINE
  8
0
 10
-122.256
 20
26.7309
 11
-122.131
 21
26.6347
  0
LINE
  8
0
 10
-122.131
 20
26.6347
 11
-122.014
 21
26.5308
  0
LINE
  8
0
 10
-122.014
 20
26.5308
 11
-121.903
 21
26.4198
  0
LINE
  8
0
 10
-121.903
 20
26.4198
 11
-121.799
 21
26.302
  0
LINE
  8
0
 10
-121.799
 20
26.302
 11
-121.702
 21
26.1779
  0
LINE
  8
0
 10
-121.702
 20
26.1779
 11
-121.614
 21
26.048
  0
LINE
  8
0
 10
-121.614
 20
26.048
 11
-121.534
 21
25.9128
  0
LINE
  8
0
 10
-121.534
 20
25.9128
 11
-121.463
 21
25.7728
  0
LINE
  8
0
 10
-121.463
 20
25.7728
 11
-121.401
 21
25.6287
  0
LINE
  8
0
 10
-121.401
 20
25.6287
 11
-121.347
 21
25.4809
  0
LINE
  8
0
 10
-121.347
 20
25.4809
 11
-121.304
 21
25.3301
  0
LINE
  8
0
 10
-121.304
 20
25.3301
 11
-121.269
 21
25.1768
  0
LINE
  8
0
 10
-121.269
 20
25.1768
 11
-121.245
 21
25.0217
  0
LINE
  8
0
 10
-121.245
 20
25.0217
 11
-121.23
 21
24.8654
  0
LINE
  8
0
 10
-121.23
 20
24.8654
 11
-121.225
 21
24.7084
  0
LINE
  8
0
 10
-121.225
 20
24.7084
 11
-121.23
 21
24.5514
  0
LINE
  8
0
 10
-121.23
 20
24.5514
 11
-121.245
 21
24.3951
  0
LINE
  8
0
 10
-121.245
 20
24.3951
 11
-121.269
 21
24.2399
  0
LINE
  8
0
 10
-121.269
 20
24.2399
 11
-121.304
 21
24.0867
  0
LINE
  8
0
 10
-121.304
 20
24.0867
 11
-121.347
 21
23.9359
  0
LINE
  8
0
 10
-121.347
 20
23.9359
 11
-121.401
 21
23.7881
  0
LINE
  8
0
 10
-121.401
 20
23.7881
 11
-121.463
 21
23.644
  0
LINE
  8
0
 10
-121.463
 20
23.644
 11
-121.534
 21
23.504
  0
LINE
  8
0
 10
-121.534
 20
23.504
 11
-121.614
 21
23.3688
  0
LINE
  8
0
 10
-121.614
 20
23.3688
 11
-121.702
 21
23.2389
  0
LINE
  8
0
 10
-121.702
 20
23.2389
 11
-121.799
 21
23.1148
  0
LINE
  8
0
 10
-121.799
 20
23.1148
 11
-121.903
 21
22.997
  0
LINE
  8
0
 10
-121.903
 20
22.997
 11
-122.014
 21
22.886
  0
LINE
  8
0
 10
-122.014
 20
22.886
 11
-122.131
 21
22.7821
  0
LINE
  8
0
 10
-122.131
 20
22.7821
 11
-122.256
 21
22.6859
  0
LINE
  8
0
 10
-122.256
 20
22.6859
 11
-122.385
 21
22.5976
  0
LINE
  8
0
 10
-122.385
 20
22.5976
 11
-122.521
 21
22.5176
  0
LINE
  8
0
 10
-122.521
 20
22.5176
 11
-122.661
 21
22.4463
  0
LINE
  8
0
 10
-122.661
 20
22.4463
 11
-122.805
 21
22.384
  0
LINE
  8
0
 10
-122.805
 20
22.384
 11
-122.952
 21
22.3307
  0
LINE
  8
0
 10
-122.952
 20
22.3307
 11
-123.103
 21
22.2869
  0
LINE
  8
0
 10
-123.103
 20
22.2869
 11
-123.257
 21
22.2527
  0
LINE
  8
0
 10
-123.257
 20
22.2527
 11
-123.412
 21
22.2281
  0
LINE
  8
0
 10
-123.412
 20
22.2281
 11
-123.568
 21
22.2133
  0
LINE
  8
0
 10
-123.568
 20
22.2133
 11
-123.725
 21
22.2084
  0
LINE
  8
0
 10
-123.725
 20
22.2084
 11
-123.882
 21
22.2133
  0
LINE
  8
0
 10
13.0558
 20
21.5845
 11
12.962
 21
21.5934
  0
LINE
  8
0
 10
12.962
 20
21.5934
 11
12.8689
 21
21.6081
  0
LINE
  8
0
 10
12.8689
 20
21.6081
 11
12.777
 21
21.6287
  0
LINE
  8
0
 10
12.777
 20
21.6287
 11
12.6865
 21
21.655
  0
LINE
  8
0
 10
12.6865
 20
21.655
 11
12.5978
 21
21.6869
  0
LINE
  8
0
 10
12.5978
 20
21.6869
 11
12.5113
 21
21.7243
  0
LINE
  8
0
 10
12.5113
 20
21.7243
 11
12.4274
 21
21.7671
  0
LINE
  8
0
 10
12.4274
 20
21.7671
 11
12.3463
 21
21.8151
  0
LINE
  8
0
 10
12.3463
 20
21.8151
 11
12.2683
 21
21.868
  0
LINE
  8
0
 10
12.2683
 20
21.868
 11
12.1939
 21
21.9258
  0
LINE
  8
0
 10
12.1939
 20
21.9258
 11
12.1232
 21
21.9881
  0
LINE
  8
0
 10
12.1232
 20
21.9881
 11
12.0565
 21
22.0547
  0
LINE
  8
0
 10
12.0565
 20
22.0547
 11
11.9942
 21
22.1254
  0
LINE
  8
0
 10
11.9942
 20
22.1254
 11
11.9365
 21
22.1999
  0
LINE
  8
0
 10
11.9365
 20
22.1999
 11
11.8835
 21
22.2778
  0
LINE
  8
0
 10
11.8835
 20
22.2778
 11
11.8355
 21
22.3589
  0
LINE
  8
0
 10
11.8355
 20
22.3589
 11
11.7928
 21
22.4429
  0
LINE
  8
0
 10
11.7928
 20
22.4429
 11
11.7553
 21
22.5294
  0
LINE
  8
0
 10
11.7553
 20
22.5294
 11
11.7234
 21
22.618
  0
LINE
  8
0
 10
11.7234
 20
22.618
 11
11.6971
 21
22.7085
  0
LINE
  8
0
 10
11.6971
 20
22.7085
 11
11.6766
 21
22.8005
  0
LINE
  8
0
 10
11.6766
 20
22.8005
 11
11.6618
 21
22.8936
  0
LINE
  8
0
 10
11.6618
 20
22.8936
 11
11.653
 21
22.9874
  0
LINE
  8
0
 10
11.653
 20
22.9874
 11
11.65
 21
23.0816
  0
LINE
  8
0
 10
11.65
 20
23.0816
 11
11.653
 21
23.1757
  0
LINE
  8
0
 10
11.653
 20
23.1757
 11
11.6618
 21
23.2695
  0
LINE
  8
0
 10
11.6618
 20
23.2695
 11
11.6766
 21
23.3626
  0
LINE
  8
0
 10
11.6766
 20
23.3626
 11
11.6971
 21
23.4546
  0
LINE
  8
0
 10
11.6971
 20
23.4546
 11
11.7234
 21
23.5451
  0
LINE
  8
0
 10
11.7234
 20
23.5451
 11
11.7553
 21
23.6337
  0
LINE
  8
0
 10
11.7553
 20
23.6337
 11
11.7928
 21
23.7202
  0
LINE
  8
0
 10
11.7928
 20
23.7202
 11
11.8355
 21
23.8042
  0
LINE
  8
0
 10
11.8355
 20
23.8042
 11
11.8835
 21
23.8853
  0
LINE
  8
0
 10
11.8835
 20
23.8853
 11
11.9365
 21
23.9632
  0
LINE
  8
0
 10
11.9365
 20
23.9632
 11
11.9942
 21
24.0377
  0
LINE
  8
0
 10
11.9942
 20
24.0377
 11
12.0565
 21
24.1084
  0
LINE
  8
0
 10
12.0565
 20
24.1084
 11
12.1232
 21
24.175
  0
LINE
  8
0
 10
12.1232
 20
24.175
 11
12.1939
 21
24.2373
  0
LINE
  8
0
 10
12.1939
 20
24.2373
 11
12.2683
 21
24.2951
  0
LINE
  8
0
 10
12.2683
 20
24.2951
 11
12.3463
 21
24.348
  0
LINE
  8
0
 10
12.3463
 20
24.348
 11
12.4274
 21
24.396
  0
LINE
  8
0
 10
12.4274
 20
24.396
 11
12.5113
 21
24.4388
  0
LINE
  8
0
 10
12.5113
 20
24.4388
 11
12.5978
 21
24.4762
  0
LINE
  8
0
 10
12.5978
 20
24.4762
 11
12.6865
 21
24.5081
  0
LINE
  8
0
 10
12.6865
 20
24.5081
 11
12.777
 21
24.5344
  0
LINE
  8
0
 10
12.777
 20
24.5344
 11
12.8689
 21
24.555
  0
LINE
  8
0
 10
12.8689
 20
24.555
 11
12.962
 21
24.5697
  0
LINE
  8
0
 10
12.962
 20
24.5697
 11
13.0558
 21
24.5786
  0
LINE
  8
0
 10
13.0558
 20
24.5786
 11
13.15
 21
24.5816
  0
LINE
  8
0
 10
13.15
 20
24.5816
 11
13.2442
 21
24.5786
  0
LINE
  8
0
 10
13.2442
 20
24.5786
 11
13.338
 21
24.5697
  0
LINE
  8
0
 10
13.338
 20
24.5697
 11
13.4311
 21
24.555
  0
LINE
  8
0
 10
13.4311
 20
24.555
 11
13.523
 21
24.5344
  0
LINE
  8
0
 10
13.523
 20
24.5344
 11
13.6135
 21
24.5081
  0
LINE
  8
0
 10
13.6135
 20
24.5081
 11
13.7022
 21
24.4762
  0
LINE
  8
0
 10
13.7022
 20
24.4762
 11
13.7887
 21
24.4388
  0
LINE
  8
0
 10
13.7887
 20
24.4388
 11
13.8726
 21
24.396
  0
LINE
  8
0
 10
13.8726
 20
24.396
 11
13.9537
 21
24.348
  0
LINE
  8
0
 10
13.9537
 20
24.348
 11
14.0317
 21
24.2951
  0
LINE
  8
0
 10
14.0317
 20
24.2951
 11
14.1061
 21
24.2373
  0
LINE
  8
0
 10
14.1061
 20
24.2373
 11
14.1768
 21
24.175
  0
LINE
  8
0
 10
14.1768
 20
24.175
 11
14.2434
 21
24.1084
  0
LINE
  8
0
 10
14.2434
 20
24.1084
 11
14.3058
 21
24.0377
  0
LINE
  8
0
 10
14.3058
 20
24.0377
 11
14.3635
 21
23.9632
  0
LINE
  8
0
 10
14.3635
 20
23.9632
 11
14.4165
 21
23.8853
  0
LINE
  8
0
 10
14.4165
 20
23.8853
 11
14.4644
 21
23.8042
  0
LINE
  8
0
 10
14.4644
 20
23.8042
 11
14.5072
 21
23.7202
  0
LINE
  8
0
 10
14.5072
 20
23.7202
 11
14.5447
 21
23.6337
  0
LINE
  8
0
 10
14.5447
 20
23.6337
 11
14.5766
 21
23.5451
  0
LINE
  8
0
 10
14.5766
 20
23.5451
 11
14.6029
 21
23.4546
  0
LINE
  8
0
 10
14.6029
 20
23.4546
 11
14.6234
 21
23.3626
  0
LINE
  8
0
 10
14.6234
 20
23.3626
 11
14.6382
 21
23.2695
  0
LINE
  8
0
 10
14.6382
 20
23.2695
 11
14.647
 21
23.1757
  0
LINE
  8
0
 10
14.647
 20
23.1757
 11
14.65
 21
23.0816
  0
LINE
  8
0
 10
14.65
 20
23.0816
 11
14.647
 21
22.9874
  0
LINE
  8
0
 10
14.647
 20
22.9874
 11
14.6382
 21
22.8936
  0
LINE
  8
0
 10
14.6382
 20
22.8936
 11
14.6234
 21
22.8005
  0
LINE
  8
0
 10
14.6234
 20
22.8005
 11
14.6029
 21
22.7085
  0
LINE
  8
0
 10
14.6029
 20
22.7085
 11
14.5766
 21
22.618
  0
LINE
  8
0
 10
14.5766
 20
22.618
 11
14.5447
 21
22.5294
  0
LINE
  8
0
 10
14.5447
 20
22.5294
 11
14.5072
 21
22.4429
  0
LINE
  8
0
 10
14.5072
 20
22.4429
 11
14.4644
 21
22.3589
  0
LINE
  8
0
 10
14.4644
 20
22.3589
 11
14.4165
 21
22.2778
  0
LINE
  8
0
 10
14.4165
 20
22.2778
 11
14.3635
 21
22.1999
  0
LINE
  8
0
 10
14.3635
 20
22.1999
 11
14.3058
 21
22.1254
  0
LINE
  8
0
 10
14.3058
 20
22.1254
 11
14.2434
 21
22.0547
  0
LINE
  8
0
 10
14.2434
 20
22.0547
 11
14.1768
 21
21.9881
  0
LINE
  8
0
 10
14.1768
 20
21.9881
 11
14.1061
 21
21.9258
  0
LINE
  8
0
 10
14.1061
 20
21.9258
 11
14.0317
 21
21.868
  0
LINE
  8
0
 10
14.0317
 20
21.868
 11
13.9537
 21
21.8151
  0
LINE
  8
0
 10
13.9537
 20
21.8151
 11
13.8726
 21
21.7671
  0
LINE
  8
0
 10
13.8726
 20
21.7671
 11
13.7887
 21
21.7243
  0
LINE
  8
0
 10
13.7887
 20
21.7243
 11
13.7022
 21
21.6869
  0
LINE
  8
0
 10
13.7022
 20
21.6869
 11
13.6135
 21
21.655
  0
LINE
  8
0
 10
13.6135
 20
21.655
 11
13.523
 21
21.6287
  0
LINE
  8
0
 10
13.523
 20
21.6287
 11
13.4311
 21
21.6081
  0
LINE
  8
0
 10
13.4311
 20
21.6081
 11
13.338
 21
21.5934
  0
LINE
  8
0
 10
13.338
 20
21.5934
 11
13.2442
 21
21.5845
  0
LINE
  8
0
 10
13.2442
 20
21.5845
 11
13.15
 21
21.5816
  0
LINE
  8
0
 10
13.15
 20
21.5816
 11
13.0558
 21
21.5845
  0
LINE
  8
0
 10
-115
 20
10
 11
-115
 21
15
  0
LINE
  8
0
 10
-115
 20
15
 11
-111
 21
15
  0
LINE
  8
0
 10
-111
 20
15
 11
-111
 21
10
  0
LINE
  8
0
 10
-111
 20
10
 11
-115
 21
10
  0
LINE
  8
0
 10
12.993
 20
1.5332
 11
12.8367
 21
1.54799
  0
LINE
  8
0
 10
12.8367
 20
1.54799
 11
12.6815
 21
1.57256
  0
LINE
  8
0
 10
12.6815
 20
1.57256
 11
12.5283
 21
1.60681
  0
LINE
  8
0
 10
12.5283
 20
1.60681
 11
12.3775
 21
1.65063
  0
LINE
  8
0
 10
12.3775
 20
1.65063
 11
12.2297
 21
1.70383
  0
LINE
  8
0
 10
12.2297
 20
1.70383
 11
12.0855
 21
1.7662
  0
LINE
  8
0
 10
12.0855
 20
1.7662
 11
11.9456
 21
1.83751
  0
LINE
  8
0
 10
11.9456
 20
1.83751
 11
11.8104
 21
1.91745
  0
LINE
  8
0
 10
11.8104
 20
1.91745
 11
11.6805
 21
2.00574
  0
LINE
  8
0
 10
11.6805
 20
2.00574
 11
11.5564
 21
2.10199
  0
LINE
  8
0
 10
11.5564
 20
2.10199
 11
11.4386
 21
2.20586
  0
LINE
  8
0
 10
11.4386
 20
2.20586
 11
11.3276
 21
2.31691
  0
LINE
  8
0
 10
11.3276
 20
2.31691
 11
11.2237
 21
2.43471
  0
LINE
  8
0
 10
11.2237
 20
2.43471
 11
11.1275
 21
2.55881
  0
LINE
  8
0
 10
11.1275
 20
2.55881
 11
11.0392
 21
2.68871
  0
LINE
  8
0
 10
11.0392
 20
2.68871
 11
10.9592
 21
2.82388
  0
LINE
  8
0
 10
10.9592
 20
2.82388
 11
10.8879
 21
2.96382
  0
LINE
  8
0
 10
10.8879
 20
2.96382
 11
10.8255
 21
3.10796
  0
LINE
  8
0
 10
10.8255
 20
3.10796
 11
10.7724
 21
3.25574
  0
LINE
  8
0
 10
10.7724
 20
3.25574
 11
10.7285
 21
3.40656
  0
LINE
  8
0
 10
10.7285
 20
3.40656
 11
10.6943
 21
3.55981
  0
LINE
  8
0
 10
10.6943
 20
3.55981
 11
10.6697
 21
3.71494
  0
LINE
  8
0
 10
10.6697
 20
3.71494
 11
10.6549
 21
3.87129
  0
LINE
  8
0
 10
10.6549
 20
3.87129
 11
10.65
 21
4.02827
  0
LINE
  8
0
 10
10.65
 20
4.02827
 11
10.6549
 21
4.18524
  0
LINE
  8
0
 10
10.6549
 20
4.18524
 11
10.6697
 21
4.3416
  0
LINE
  8
0
 10
10.6697
 20
4.3416
 11
10.6943
 21
4.49672
  0
LINE
  8
0
 10
10.6943
 20
4.49672
 11
10.7285
 21
4.64999
  0
LINE
  8
0
 10
10.7285
 20
4.64999
 11
10.7724
 21
4.80081
  0
LINE
  8
0
 10
10.7724
 20
4.80081
 11
10.8255
 21
4.94858
  0
LINE
  8
0
 10
10.8255
 20
4.94858
 11
10.8879
 21
5.09273
  0
LINE
  8
0
 10
10.8879
 20
5.09273
 11
10.9592
 21
5.23265
  0
LINE
  8
0
 10
10.9592
 20
5.23265
 11
11.0392
 21
5.36784
  0
LINE
  8
0
 10
11.0392
 20
5.36784
 11
11.1275
 21
5.49774
  0
LINE
  8
0
 10
11.1275
 20
5.49774
 11
11.2237
 21
5.62183
  0
LINE
  8
0
 10
11.2237
 20
5.62183
 11
11.3276
 21
5.73964
  0
LINE
  8
0
 10
11.3276
 20
5.73964
 11
11.4386
 21
5.85069
  0
LINE
  8
0
 10
11.4386
 20
5.85069
 11
11.5564
 21
5.95456
  0
LINE
  8
0
 10
11.5564
 20
5.95456
 11
11.6805
 21
6.05081
  0
LINE
  8
0
 10
11.6805
 20
6.05081
 11
11.8104
 21
6.1391
  0
LINE
  8
0
 10
11.8104
 20
6.1391
 11
11.9456
 21
6.21904
  0
LINE
  8
0
 10
11.9456
 20
6.21904
 11
12.0855
 21
6.29034
  0
LINE
  8
0
 10
12.0855
 20
6.29034
 11
12.2297
 21
6.35271
  0
LINE
  8
0
 10
12.2297
 20
6.35271
 11
12.3775
 21
6.40591
  0
LINE
  8
0
 10
12.3775
 20
6.40591
 11
12.5283
 21
6.44974
  0
LINE
  8
0
 10
12.5283
 20
6.44974
 11
12.6815
 21
6.48399
  0
LINE
  8
0
 10
12.6815
 20
6.48399
 11
12.8367
 21
6.50856
  0
LINE
  8
0
 10
12.8367
 20
6.50856
 11
12.993
 21
6.52335
  0
LINE
  8
0
 10
12.993
 20
6.52335
 11
13.15
 21
6.52827
  0
LINE
  8
0
 10
13.15
 20
6.52827
 11
13.307
 21
6.52335
  0
LINE
  8
0
 10
13.307
 20
6.52335
 11
13.4633
 21
6.50856
  0
LINE
  8
0
 10
13.4633
 20
6.50856
 11
13.6184
 21
6.48399
  0
LINE
  8
0
 10
13.6184
 20
6.48399
 11
13.7717
 21
6.44974
  0
LINE
  8
0
 10
13.7717
 20
6.44974
 11
13.9225
 21
6.40591
  0
LINE
  8
0
 10
13.9225
 20
6.40591
 11
14.0703
 21
6.35271
  0
LINE
  8
0
 10
14.0703
 20
6.35271
 11
14.2144
 21
6.29034
  0
LINE
  8
0
 10
14.2144
 20
6.29034
 11
14.3544
 21
6.21904
  0
LINE
  8
0
 10
14.3544
 20
6.21904
 11
14.4896
 21
6.1391
  0
LINE
  8
0
 10
14.4896
 20
6.1391
 11
14.6195
 21
6.05081
  0
LINE
  8
0
 10
14.6195
 20
6.05081
 11
14.7435
 21
5.95456
  0
LINE
  8
0
 10
14.7435
 20
5.95456
 11
14.8614
 21
5.85069
  0
LINE
  8
0
 10
14.8614
 20
5.85069
 11
14.9724
 21
5.73964
  0
LINE
  8
0
 10
14.9724
 20
5.73964
 11
15.0763
 21
5.62183
  0
LINE
  8
0
 10
15.0763
 20
5.62183
 11
15.1725
 21
5.49774
  0
LINE
  8
0
 10
15.1725
 20
5.49774
 11
15.2608
 21
5.36784
  0
LINE
  8
0
 10
15.2608
 20
5.36784
 11
15.3408
 21
5.23265
  0
LINE
  8
0
 10
15.3408
 20
5.23265
 11
15.4121
 21
5.09273
  0
LINE
  8
0
 10
15.4121
 20
5.09273
 11
15.4744
 21
4.94858
  0
LINE
  8
0
 10
15.4744
 20
4.94858
 11
15.5276
 21
4.80081
  0
LINE
  8
0
 10
15.5276
 20
4.80081
 11
15.5715
 21
4.64999
  0
LINE
  8
0
 10
15.5715
 20
4.64999
 11
15.6057
 21
4.49672
  0
LINE
  8
0
 10
15.6057
 20
4.49672
 11
15.6303
 21
4.3416
  0
LINE
  8
0
 10
15.6303
 20
4.3416
 11
15.6451
 21
4.18524
  0
LINE
  8
0
 10
15.6451
 20
4.18524
 11
15.65
 21
4.02827
  0
LINE
  8
0
 10
15.65
 20
4.02827
 11
15.6451
 21
3.87129
  0
LINE
  8
0
 10
15.6451
 20
3.87129
 11
15.6303
 21
3.71494
  0
LINE
  8
0
 10
15.6303
 20
3.71494
 11
15.6057
 21
3.55981
  0
LINE
  8
0
 10
15.6057
 20
3.55981
 11
15.5715
 21
3.40656
  0
LINE
  8
0
 10
15.5715
 20
3.40656
 11
15.5276
 21
3.25574
  0
LINE
  8
0
 10
15.5276
 20
3.25574
 11
15.4744
 21
3.10796
  0
LINE
  8
0
 10
15.4744
 20
3.10796
 11
15.4121
 21
2.96382
  0
LINE
  8
0
 10
15.4121
 20
2.96382
 11
15.3408
 21
2.82388
  0
LINE
  8
0
 10
15.3408
 20
2.82388
 11
15.2608
 21
2.68871
  0
LINE
  8
0
 10
15.2608
 20
2.68871
 11
15.1725
 21
2.55881
  0
LINE
  8
0
 10
15.1725
 20
2.55881
 11
15.0763
 21
2.43471
  0
LINE
  8
0
 10
15.0763
 20
2.43471
 11
14.9724
 21
2.31691
  0
LINE
  8
0
 10
14.9724
 20
2.31691
 11
14.8614
 21
2.20586
  0
LINE
  8
0
 10
14.8614
 20
2.20586
 11
14.7435
 21
2.10199
  0
LINE
  8
0
 10
14.7435
 20
2.10199
 11
14.6195
 21
2.00574
  0
LINE
  8
0
 10
14.6195
 20
2.00574
 11
14.4896
 21
1.91745
  0
LINE
  8
0
 10
14.4896
 20
1.91745
 11
14.3544
 21
1.83751
  0
LINE
  8
0
 10
14.3544
 20
1.83751
 11
14.2144
 21
1.7662
  0
LINE
  8
0
 10
14.2144
 20
1.7662
 11
14.0703
 21
1.70383
  0
LINE
  8
0
 10
14.0703
 20
1.70383
 11
13.9225
 21
1.65063
  0
LINE
  8
0
 10
13.9225
 20
1.65063
 11
13.7717
 21
1.60681
  0
LINE
  8
0
 10
13.7717
 20
1.60681
 11
13.6184
 21
1.57256
  0
LINE
  8
0
 10
13.6184
 20
1.57256
 11
13.4633
 21
1.54799
  0
LINE
  8
0
 10
13.4633
 20
1.54799
 11
13.307
 21
1.5332
  0
LINE
  8
0
 10
13.307
 20
1.5332
 11
13.15
 21
1.52827
  0
LINE
  8
0
 10
13.15
 20
1.52827
 11
12.993
 21
1.5332
  0
LINE
  8
0
 10
-123.819
 20
-3.98509
 11
-123.913
 21
-3.97623
  0
LINE
  8
0
 10
-123.913
 20
-3.97623
 11
-124.006
 21
-3.96147
  0
LINE
  8
0
 10
-124.006
 20
-3.96147
 11
-124.098
 21
-3.94092
  0
LINE
  8
0
 10
-124.098
 20
-3.94092
 11
-124.189
 21
-3.91463
  0
LINE
  8
0
 10
-124.189
 20
-3.91463
 11
-124.277
 21
-3.88271
  0
LINE
  8
0
 10
-124.277
 20
-3.88271
 11
-124.364
 21
-3.84529
  0
LINE
  8
0
 10
-124.364
 20
-3.84529
 11
-124.448
 21
-3.80251
  0
LINE
  8
0
 10
-124.448
 20
-3.80251
 11
-124.529
 21
-3.75455
  0
LINE
  8
0
 10
-124.529
 20
-3.75455
 11
-124.607
 21
-3.70157
  0
LINE
  8
0
 10
-124.607
 20
-3.70157
 11
-124.681
 21
-3.64381
  0
LINE
  8
0
 10
-124.681
 20
-3.64381
 11
-124.752
 21
-3.5815
  0
LINE
  8
0
 10
-124.752
 20
-3.5815
 11
-124.818
 21
-3.51486
  0
LINE
  8
0
 10
-124.818
 20
-3.51486
 11
-124.881
 21
-3.44418
  0
LINE
  8
0
 10
-124.881
 20
-3.44418
 11
-124.939
 21
-3.36972
  0
LINE
  8
0
 10
-124.939
 20
-3.36972
 11
-124.991
 21
-3.29179
  0
LINE
  8
0
 10
-124.991
 20
-3.29179
 11
-125.039
 21
-3.21068
  0
LINE
  8
0
 10
-125.039
 20
-3.21068
 11
-125.082
 21
-3.12672
  0
LINE
  8
0
 10
-125.082
 20
-3.12672
 11
-125.12
 21
-3.04024
  0
LINE
  8
0
 10
-125.12
 20
-3.04024
 11
-125.152
 21
-2.95157
  0
LINE
  8
0
 10
-125.152
 20
-2.95157
 11
-125.178
 21
-2.86108
  0
LINE
  8
0
 10
-125.178
 20
-2.86108
 11
-125.198
 21
-2.76912
  0
LINE
  8
0
 10
-125.198
 20
-2.76912
 11
-125.213
 21
-2.67604
  0
LINE
  8
0
 10
-125.213
 20
-2.67604
 11
-125.222
 21
-2.58223
  0
LINE
  8
0
 10
-125.222
 20
-2.58223
 11
-125.225
 21
-2.48805
  0
LINE
  8
0
 10
-125.225
 20
-2.48805
 11
-125.222
 21
-2.39386
  0
LINE
  8
0
 10
-125.222
 20
-2.39386
 11
-125.213
 21
-2.30005
  0
LINE
  8
0
 10
-125.213
 20
-2.30005
 11
-125.198
 21
-2.20697
  0
LINE
  8
0
 10
-125.198
 20
-2.20697
 11
-125.178
 21
-2.11502
  0
LINE
  8
0
 10
-125.178
 20
-2.11502
 11
-125.152
 21
-2.02452
  0
LINE
  8
0
 10
-125.152
 20
-2.02452
 11
-125.12
 21
-1.93587
  0
LINE
  8
0
 10
-125.12
 20
-1.93587
 11
-125.082
 21
-1.84938
  0
LINE
  8
0
 10
-125.082
 20
-1.84938
 11
-125.039
 21
-1.76541
  0
LINE
  8
0
 10
-125.039
 20
-1.76541
 11
-124.991
 21
-1.68431
  0
LINE
  8
0
 10
-124.991
 20
-1.68431
 11
-124.939
 21
-1.60637
  0
LINE
  8
0
 10
-124.939
 20
-1.60637
 11
-124.881
 21
-1.53191
  0
LINE
  8
0
 10
-124.881
 20
-1.53191
 11
-124.818
 21
-1.46123
  0
LINE
  8
0
 10
-124.818
 20
-1.46123
 11
-124.752
 21
-1.39459
  0
LINE
  8
0
 10
-124.752
 20
-1.39459
 11
-124.681
 21
-1.33228
  0
LINE
  8
0
 10
-124.681
 20
-1.33228
 11
-124.607
 21
-1.27452
  0
LINE
  8
0
 10
-124.607
 20
-1.27452
 11
-124.529
 21
-1.22156
  0
LINE
  8
0
 10
-124.529
 20
-1.22156
 11
-124.448
 21
-1.17358
  0
LINE
  8
0
 10
-124.448
 20
-1.17358
 11
-124.364
 21
-1.13081
  0
LINE
  8
0
 10
-124.364
 20
-1.13081
 11
-124.277
 21
-1.09338
  0
LINE
  8
0
 10
-124.277
 20
-1.09338
 11
-124.189
 21
-1.06146
  0
LINE
  8
0
 10
-124.189
 20
-1.06146
 11
-124.098
 21
-1.03517
  0
LINE
  8
0
 10
-124.098
 20
-1.03517
 11
-124.006
 21
-1.01462
  0
LINE
  8
0
 10
-124.006
 20
-1.01462
 11
-123.913
 21
-0.999878
  0
LINE
  8
0
 10
-123.913
 20
-0.999878
 11
-123.819
 21
-0.991013
  0
LINE
  8
0
 10
-123.819
 20
-0.991013
 11
-123.725
 21
-0.988052
  0
LINE
  8
0
 10
-123.725
 20
-0.988052
 11
-123.631
 21
-0.991013
  0
LINE
  8
0
 10
-123.631
 20
-0.991013
 11
-123.537
 21
-0.999878
  0
LINE
  8
0
 10
-123.537
 20
-0.999878
 11
-123.444
 21
-1.01462
  0
LINE
  8
0
 10
-123.444
 20
-1.01462
 11
-123.352
 21
-1.03517
  0
LINE
  8
0
 10
-123.352
 20
-1.03517
 11
-123.261
 21
-1.06146
  0
LINE
  8
0
 10
-123.261
 20
-1.06146
 11
-123.173
 21
-1.09338
  0
LINE
  8
0
 10
-123.173
 20
-1.09338
 11
-123.086
 21
-1.13081
  0
LINE
  8
0
 10
-123.086
 20
-1.13081
 11
-123.002
 21
-1.17358
  0
LINE
  8
0
 10
-123.002
 20
-1.17358
 11
-122.921
 21
-1.22156
  0
LINE
  8
0
 10
-122.921
 20
-1.22156
 11
-122.843
 21
-1.27452
  0
LINE
  8
0
 10
-122.843
 20
-1.27452
 11
-122.769
 21
-1.33228
  0
LINE
  8
0
 10
-122.769
 20
-1.33228
 11
-122.698
 21
-1.39459
  0
LINE
  8
0
 10
-122.698
 20
-1.39459
 11
-122.632
 21
-1.46123
  0
LINE
  8
0
 10
-122.632
 20
-1.46123
 11
-122.569
 21
-1.53191
  0
LINE
  8
0
 10
-122.569
 20
-1.53191
 11
-122.511
 21
-1.60637
  0
LINE
  8
0
 10
-122.511
 20
-1.60637
 11
-122.458
 21
-1.68431
  0
LINE
  8
0
 10
-122.458
 20
-1.68431
 11
-122.411
 21
-1.76541
  0
LINE
  8
0
 10
-122.411
 20
-1.76541
 11
-122.368
 21
-1.84938
  0
LINE
  8
0
 10
-122.368
 20
-1.84938
 11
-122.33
 21
-1.93587
  0
LINE
  8
0
 10
-122.33
 20
-1.93587
 11
-122.298
 21
-2.02452
  0
LINE
  8
0
 10
-122.298
 20
-2.02452
 11
-122.272
 21
-2.11502
  0
LINE
  8
0
 10
-122.272
 20
-2.11502
 11
-122.252
 21
-2.20697
  0
LINE
  8
0
 10
-122.252
 20
-2.20697
 11
-122.237
 21
-2.30005
  0
LINE
  8
0
 10
-122.237
 20
-2.30005
 11
-122.228
 21
-2.39386
  0
LINE
  8
0
 10
-122.228
 20
-2.39386
 11
-122.225
 21
-2.48805
  0
LINE
  8
0
 10
-122.225
 20
-2.48805
 11
-122.228
 21
-2.58223
  0
LINE
  8
0
 10
-122.228
 20
-2.58223
 11
-122.237
 21
-2.67604
  0
LINE
  8
0
 10
-122.237
 20
-2.67604
 11
-122.252
 21
-2.76912
  0
LINE
  8
0
 10
-122.252
 20
-2.76912
 11
-122.272
 21
-2.86108
  0
LINE
  8
0
 10
-122.272
 20
-2.86108
 11
-122.298
 21
-2.95157
  0
LINE
  8
0
 10
-122.298
 20
-2.95157
 11
-122.33
 21
-3.04024
  0
LINE
  8
0
 10
-122.33
 20
-3.04024
 11
-122.368
 21
-3.12672
  0
LINE
  8
0
 10
-122.368
 20
-3.12672
 11
-122.411
 21
-3.21068
  0
LINE
  8
0
 10
-122.411
 20
-3.21068
 11
-122.458
 21
-3.29179
  0
LINE
  8
0
 10
-122.458
 20
-3.29179
 11
-122.511
 21
-3.36972
  0
LINE
  8
0
 10
-122.511
 20
-3.36972
 11
-122.569
 21
-3.44418
  0
LINE
  8
0
 10
-122.569
 20
-3.44418
 11
-122.632
 21
-3.51486
  0
LINE
  8
0
 10
-122.632
 20
-3.51486
 11
-122.698
 21
-3.5815
  0
LINE
  8
0
 10
-122.698
 20
-3.5815
 11
-122.769
 21
-3.64381
  0
LINE
  8
0
 10
-122.769
 20
-3.64381
 11
-122.843
 21
-3.70157
  0
LINE
  8
0
 10
-122.843
 20
-3.70157
 11
-122.921
 21
-3.75455
  0
LINE
  8
0
 10
-122.921
 20
-3.75455
 11
-123.002
 21
-3.80251
  0
LINE
  8
0
 10
-123.002
 20
-3.80251
 11
-123.086
 21
-3.84529
  0
LINE
  8
0
 10
-123.086
 20
-3.84529
 11
-123.173
 21
-3.88271
  0
LINE
  8
0
 10
-123.173
 20
-3.88271
 11
-123.261
 21
-3.91463
  0
LINE
  8
0
 10
-123.261
 20
-3.91463
 11
-123.352
 21
-3.94092
  0
LINE
  8
0
 10
-123.352
 20
-3.94092
 11
-123.444
 21
-3.96147
  0
LINE
  8
0
 10
-123.444
 20
-3.96147
 11
-123.537
 21
-3.97623
  0
LINE
  8
0
 10
-123.537
 20
-3.97623
 11
-123.631
 21
-3.98509
  0
LINE
  8
0
 10
-123.631
 20
-3.98509
 11
-123.725
 21
-3.98805
  0
LINE
  8
0
 10
-123.725
 20
-3.98805
 11
-123.819
 21
-3.98509
  0
LINE
  8
0
 10
13.0495
 20
-16.6218
 11
12.9495
 21
-16.6124
  0
LINE
  8
0
 10
12.9495
 20
-16.6124
 11
12.8502
 21
-16.5966
  0
LINE
  8
0
 10
12.8502
 20
-16.5966
 11
12.7521
 21
-16.5747
  0
LINE
  8
0
 10
12.7521
 20
-16.5747
 11
12.6556
 21
-16.5467
  0
LINE
  8
0
 10
12.6556
 20
-16.5467
 11
12.561
 21
-16.5126
  0
LINE
  8
0
 10
12.561
 20
-16.5126
 11
12.4688
 21
-16.4727
  0
LINE
  8
0
 10
12.4688
 20
-16.4727
 11
12.3792
 21
-16.4271
  0
LINE
  8
0
 10
12.3792
 20
-16.4271
 11
12.2927
 21
-16.3759
  0
LINE
  8
0
 10
12.2927
 20
-16.3759
 11
12.2095
 21
-16.3194
  0
LINE
  8
0
 10
12.2095
 20
-16.3194
 11
12.1301
 21
-16.2578
  0
LINE
  8
0
 10
12.1301
 20
-16.2578
 11
12.0547
 21
-16.1913
  0
LINE
  8
0
 10
12.0547
 20
-16.1913
 11
11.9836
 21
-16.1203
  0
LINE
  8
0
 10
11.9836
 20
-16.1203
 11
11.9172
 21
-16.0449
  0
LINE
  8
0
 10
11.9172
 20
-16.0449
 11
11.8556
 21
-15.9655
  0
LINE
  8
0
 10
11.8556
 20
-15.9655
 11
11.7991
 21
-15.8823
  0
LINE
  8
0
 10
11.7991
 20
-15.8823
 11
11.7479
 21
-15.7958
  0
LINE
  8
0
 10
11.7479
 20
-15.7958
 11
11.7023
 21
-15.7062
  0
LINE
  8
0
 10
11.7023
 20
-15.7062
 11
11.6624
 21
-15.614
  0
LINE
  8
0
 10
11.6624
 20
-15.614
 11
11.6283
 21
-15.5194
  0
LINE
  8
0
 10
11.6283
 20
-15.5194
 11
11.6003
 21
-15.4229
  0
LINE
  8
0
 10
11.6003
 20
-15.4229
 11
11.5783
 21
-15.3248
  0
LINE
  8
0
 10
11.5783
 20
-15.3248
 11
11.5626
 21
-15.2255
  0
LINE
  8
0
 10
11.5626
 20
-15.2255
 11
11.5531
 21
-15.1255
  0
LINE
  8
0
 10
11.5531
 20
-15.1255
 11
11.55
 21
-15.025
  0
LINE
  8
0
 10
11.55
 20
-15.025
 11
11.5531
 21
-14.9245
  0
LINE
  8
0
 10
11.5531
 20
-14.9245
 11
11.5626
 21
-14.8245
  0
LINE
  8
0
 10
11.5626
 20
-14.8245
 11
11.5783
 21
-14.7252
  0
LINE
  8
0
 10
11.5783
 20
-14.7252
 11
11.6003
 21
-14.6271
  0
LINE
  8
0
 10
11.6003
 20
-14.6271
 11
11.6283
 21
-14.5306
  0
LINE
  8
0
 10
11.6283
 20
-14.5306
 11
11.6624
 21
-14.436
  0
LINE
  8
0
 10
11.6624
 20
-14.436
 11
11.7023
 21
-14.3438
  0
LINE
  8
0
 10
11.7023
 20
-14.3438
 11
11.7479
 21
-14.2542
  0
LINE
  8
0
 10
11.7479
 20
-14.2542
 11
11.7991
 21
-14.1677
  0
LINE
  8
0
 10
11.7991
 20
-14.1677
 11
11.8556
 21
-14.0845
  0
LINE
  8
0
 10
11.8556
 20
-14.0845
 11
11.9172
 21
-14.0051
  0
LINE
  8
0
 10
11.9172
 20
-14.0051
 11
11.9836
 21
-13.9297
  0
LINE
  8
0
 10
11.9836
 20
-13.9297
 11
12.0547
 21
-13.8586
  0
LINE
  8
0
 10
12.0547
 20
-13.8586
 11
12.1301
 21
-13.7922
  0
LINE
  8
0
 10
12.1301
 20
-13.7922
 11
12.2095
 21
-13.7306
  0
LINE
  8
0
 10
12.2095
 20
-13.7306
 11
12.2927
 21
-13.6741
  0
LINE
  8
0
 10
12.2927
 20
-13.6741
 11
12.3792
 21
-13.6229
  0
LINE
  8
0
 10
12.3792
 20
-13.6229
 11
12.4688
 21
-13.5773
  0
LINE
  8
0
 10
12.4688
 20
-13.5773
 11
12.561
 21
-13.5374
  0
LINE
  8
0
 10
12.561
 20
-13.5374
 11
12.6556
 21
-13.5033
  0
LINE
  8
0
 10
12.6556
 20
-13.5033
 11
12.7521
 21
-13.4753
  0
LINE
  8
0
 10
12.7521
 20
-13.4753
 11
12.8502
 21
-13.4533
  0
LINE
  8
0
 10
12.8502
 20
-13.4533
 11
12.9495
 21
-13.4376
  0
LINE
  8
0
 10
12.9495
 20
-13.4376
 11
13.0495
 21
-13.4281
  0
LINE
  8
0
 10
13.0495
 20
-13.4281
 11
13.15
 21
-13.425
  0
LINE
  8
0
 10
13.15
 20
-13.425
 11
13.2505
 21
-13.4281
  0
LINE
  8
0
 10
13.2505
 20
-13.4281
 11
13.3505
 21
-13.4376
  0
LINE
  8
0
 10
13.3505
 20
-13.4376
 11
13.4498
 21
-13.4533
  0
LINE
  8
0
 10
13.4498
 20
-13.4533
 11
13.5479
 21
-13.4753
  0
LINE
  8
0
 10
13.5479
 20
-13.4753
 11
13.6444
 21
-13.5033
  0
LINE
  8
0
 10
13.6444
 20
-13.5033
 11
13.739
 21
-13.5374
  0
LINE
  8
0
 10
13.739
 20
-13.5374
 11
13.8312
 21
-13.5773
  0
LINE
  8
0
 10
13.8312
 20
-13.5773
 11
13.9208
 21
-13.6229
  0
LINE
  8
0
 10
13.9208
 20
-13.6229
 11
14.0073
 21
-13.6741
  0
LINE
  8
0
 10
14.0073
 20
-13.6741
 11
14.0905
 21
-13.7306
  0
LINE
  8
0
 10
14.0905
 20
-13.7306
 11
14.1699
 21
-13.7922
  0
LINE
  8
0
 10
14.1699
 20
-13.7922
 11
14.2453
 21
-13.8586
  0
LINE
  8
0
 10
14.2453
 20
-13.8586
 11
14.3163
 21
-13.9297
  0
LINE
  8
0
 10
14.3163
 20
-13.9297
 11
14.3828
 21
-14.0051
  0
LINE
  8
0
 10
14.3828
 20
-14.0051
 11
14.4444
 21
-14.0845
  0
LINE
  8
0
 10
14.4444
 20
-14.0845
 11
14.5009
 21
-14.1677
  0
LINE
  8
0
 10
14.5009
 20
-14.1677
 11
14.5521
 21
-14.2542
  0
LINE
  8
0
 10
14.5521
 20
-14.2542
 11
14.5977
 21
-14.3438
  0
LINE
  8
0
 10
14.5977
 20
-14.3438
 11
14.6376
 21
-14.436
  0
LINE
  8
0
 10
14.6376
 20
-14.436
 11
14.6717
 21
-14.5306
  0
LINE
  8
0
 10
14.6717
 20
-14.5306
 11
14.6997
 21
-14.6271
  0
LINE
  8
0
 10
14.6997
 20
-14.6271
 11
14.7216
 21
-14.7252
  0
LINE
  8
0
 10
14.7216
 20
-14.7252
 11
14.7374
 21
-14.8245
  0
LINE
  8
0
 10
14.7374
 20
-14.8245
 11
14.7468
 21
-14.9245
  0
LINE
  8
0
 10
14.7468
 20
-14.9245
 11
14.75
 21
-15.025
  0
LINE
  8
0
 10
14.75
 20
-15.025
 11
14.7468
 21
-15.1255
  0
LINE
  8
0
 10
14.7468
 20
-15.1255
 11
14.7374
 21
-15.2255
  0
LINE
  8
0
 10
14.7374
 20
-15.2255
 11
14.7216
 21
-15.3248
  0
LINE
  8
0
 10
14.7216
 20
-15.3248
 11
14.6997
 21
-15.4229
  0
LINE
  8
0
 10
14.6997
 20
-15.4229
 11
14.6717
 21
-15.5194
  0
LINE
  8
0
 10
14.6717
 20
-15.5194
 11
14.6376
 21
-15.614
  0
LINE
  8
0
 10
14.6376
 20
-15.614
 11
14.5977
 21
-15.7062
  0
LINE
  8
0
 10
14.5977
 20
-15.7062
 11
14.5521
 21
-15.7958
  0
LINE
  8
0
 10
14.5521
 20
-15.7958
 11
14.5009
 21
-15.8823
  0
LINE
  8
0
 10
14.5009
 20
-15.8823
 11
14.4444
 21
-15.9655
  0
LINE
  8
0
 10
14.4444
 20
-15.9655
 11
14.3828
 21
-16.0449
  0
LINE
  8
0
 10
14.3828
 20
-16.0449
 11
14.3163
 21
-16.1203
  0
LINE
  8
0
 10
14.3163
 20
-16.1203
 11
14.2453
 21
-16.1913
  0
LINE
  8
0
 10
14.2453
 20
-16.1913
 11
14.1699
 21
-16.2578
  0
LINE
  8
0
 10
14.1699
 20
-16.2578
 11
14.0905
 21
-16.3194
  0
LINE
  8
0
 10
14.0905
 20
-16.3194
 11
14.0073
 21
-16.3759
  0
LINE
  8
0
 10
14.0073
 20
-16.3759
 11
13.9208
 21
-16.4271
  0
LINE
  8
0
 10
13.9208
 20
-16.4271
 11
13.8312
 21
-16.4727
  0
LINE
  8
0
 10
13.8312
 20
-16.4727
 11
13.739
 21
-16.5126
  0
LINE
  8
0
 10
13.739
 20
-16.5126
 11
13.6444
 21
-16.5467
  0
LINE
  8
0
 10
13.6444
 20
-16.5467
 11
13.5479
 21
-16.5747
  0
LINE
  8
0
 10
13.5479
 20
-16.5747
 11
13.4498
 21
-16.5966
  0
LINE
  8
0
 10
13.4498
 20
-16.5966
 11
13.3505
 21
-16.6124
  0
LINE
  8
0
 10
13.3505
 20
-16.6124
 11
13.2505
 21
-16.6218
  0
LINE
  8
0
 10
13.2505
 20
-16.6218
 11
13.15
 21
-16.625
  0
LINE
  8
0
 10
13.15
 20
-16.625
 11
13.0495
 21
-16.6218
  0
LINE
  8
0
 10
-11.4052
 20
-16.522
 11
-11.499
 21
-16.5132
  0
LINE
  8
0
 10
-11.499
 20
-16.5132
 11
-11.5921
 21
-16.4984
  0
LINE
  8
0
 10
-11.5921
 20
-16.4984
 11
-11.684
 21
-16.4779
  0
LINE
  8
0
 10
-11.684
 20
-16.4779
 11
-11.7745
 21
-16.4516
  0
LINE
  8
0
 10
-11.7745
 20
-16.4516
 11
-11.8632
 21
-16.4197
  0
LINE
  8
0
 10
-11.8632
 20
-16.4197
 11
-11.9497
 21
-16.3822
  0
LINE
  8
0
 10
-11.9497
 20
-16.3822
 11
-12.0336
 21
-16.3394
  0
LINE
  8
0
 10
-12.0336
 20
-16.3394
 11
-12.1147
 21
-16.2915
  0
LINE
  8
0
 10
-12.1147
 20
-16.2915
 11
-12.1927
 21
-16.2385
  0
LINE
  8
0
 10
-12.1927
 20
-16.2385
 11
-12.2671
 21
-16.1808
  0
LINE
  8
0
 10
-12.2671
 20
-16.1808
 11
-12.3378
 21
-16.1184
  0
LINE
  8
0
 10
-12.3378
 20
-16.1184
 11
-12.4044
 21
-16.0518
  0
LINE
  8
0
 10
-12.4044
 20
-16.0518
 11
-12.4668
 21
-15.9811
  0
LINE
  8
0
 10
-12.4668
 20
-15.9811
 11
-12.5245
 21
-15.9067
  0
LINE
  8
0
 10
-12.5245
 20
-15.9067
 11
-12.5775
 21
-15.8287
  0
LINE
  8
0
 10
-12.5775
 20
-15.8287
 11
-12.6255
 21
-15.7476
  0
LINE
  8
0
 10
-12.6255
 20
-15.7476
 11
-12.6682
 21
-15.6637
  0
LINE
  8
0
 10
-12.6682
 20
-15.6637
 11
-12.7057
 21
-15.5772
  0
LINE
  8
0
 10
-12.7057
 20
-15.5772
 11
-12.7376
 21
-15.4885
  0
LINE
  8
0
 10
-12.7376
 20
-15.4885
 11
-12.7639
 21
-15.398
  0
LINE
  8
0
 10
-12.7639
 20
-15.398
 11
-12.7844
 21
-15.3061
  0
LINE
  8
0
 10
-12.7844
 20
-15.3061
 11
-12.7992
 21
-15.213
  0
LINE
  8
0
 10
-12.7992
 20
-15.213
 11
-12.808
 21
-15.1192
  0
LINE
  8
0
 10
-12.808
 20
-15.1192
 11
-12.811
 21
-15.025
  0
LINE
  8
0
 10
-12.811
 20
-15.025
 11
-12.808
 21
-14.9308
  0
LINE
  8
0
 10
-12.808
 20
-14.9308
 11
-12.7992
 21
-14.837
  0
LINE
  8
0
 10
-12.7992
 20
-14.837
 11
-12.7844
 21
-14.7439
  0
LINE
  8
0
 10
-12.7844
 20
-14.7439
 11
-12.7639
 21
-14.652
  0
LINE
  8
0
 10
-12.7639
 20
-14.652
 11
-12.7376
 21
-14.5615
  0
LINE
  8
0
 10
-12.7376
 20
-14.5615
 11
-12.7057
 21
-14.4728
  0
LINE
  8
0
 10
-12.7057
 20
-14.4728
 11
-12.6682
 21
-14.3863
  0
LINE
  8
0
 10
-12.6682
 20
-14.3863
 11
-12.6255
 21
-14.3024
  0
LINE
  8
0
 10
-12.6255
 20
-14.3024
 11
-12.5775
 21
-14.2213
  0
LINE
  8
0
 10
-12.5775
 20
-14.2213
 11
-12.5245
 21
-14.1433
  0
LINE
  8
0
 10
-12.5245
 20
-14.1433
 11
-12.4668
 21
-14.0689
  0
LINE
  8
0
 10
-12.4668
 20
-14.0689
 11
-12.4044
 21
-13.9982
  0
LINE
  8
0
 10
-12.4044
 20
-13.9982
 11
-12.3378
 21
-13.9315
  0
LINE
  8
0
 10
-12.3378
 20
-13.9315
 11
-12.2671
 21
-13.8692
  0
LINE
  8
0
 10
-12.2671
 20
-13.8692
 11
-12.1927
 21
-13.8115
  0
LINE
  8
0
 10
-12.1927
 20
-13.8115
 11
-12.1147
 21
-13.7585
  0
LINE
  8
0
 10
-12.1147
 20
-13.7585
 11
-12.0336
 21
-13.7105
  0
LINE
  8
0
 10
-12.0336
 20
-13.7105
 11
-11.9497
 21
-13.6678
  0
LINE
  8
0
 10
-11.9497
 20
-13.6678
 11
-11.8632
 21
-13.6303
  0
LINE
  8
0
 10
-11.8632
 20
-13.6303
 11
-11.7745
 21
-13.5984
  0
LINE
  8
0
 10
-11.7745
 20
-13.5984
 11
-11.684
 21
-13.5721
  0
LINE
  8
0
 10
-11.684
 20
-13.5721
 11
-11.5921
 21
-13.5516
  0
LINE
  8
0
 10
-11.5921
 20
-13.5516
 11
-11.499
 21
-13.5368
  0
LINE
  8
0
 10
-11.499
 20
-13.5368
 11
-11.4052
 21
-13.528
  0
LINE
  8
0
 10
-11.4052
 20
-13.528
 11
-11.311
 21
-13.525
  0
LINE
  8
0
 10
-11.311
 20
-13.525
 11
-11.2168
 21
-13.528
  0
LINE
  8
0
 10
-11.2168
 20
-13.528
 11
-11.123
 21
-13.5368
  0
LINE
  8
0
 10
-11.123
 20
-13.5368
 11
-11.0299
 21
-13.5516
  0
LINE
  8
0
 10
-11.0299
 20
-13.5516
 11
-10.938
 21
-13.5721
  0
LINE
  8
0
 10
-10.938
 20
-13.5721
 11
-10.8475
 21
-13.5984
  0
LINE
  8
0
 10
-10.8475
 20
-13.5984
 11
-10.7588
 21
-13.6303
  0
LINE
  8
0
 10
-10.7588
 20
-13.6303
 11
-10.6723
 21
-13.6678
  0
LINE
  8
0
 10
-10.6723
 20
-13.6678
 11
-10.5884
 21
-13.7105
  0
LINE
  8
0
 10
-10.5884
 20
-13.7105
 11
-10.5072
 21
-13.7585
  0
LINE
  8
0
 10
-10.5072
 20
-13.7585
 11
-10.4293
 21
-13.8115
  0
LINE
  8
0
 10
-10.4293
 20
-13.8115
 11
-10.3549
 21
-13.8692
  0
LINE
  8
0
 10
-10.3549
 20
-13.8692
 11
-10.2842
 21
-13.9315
  0
LINE
  8
0
 10
-10.2842
 20
-13.9315
 11
-10.2175
 21
-13.9982
  0
LINE
  8
0
 10
-10.2175
 20
-13.9982
 11
-10.1552
 21
-14.0689
  0
LINE
  8
0
 10
-10.1552
 20
-14.0689
 11
-10.0975
 21
-14.1433
  0
LINE
  8
0
 10
-10.0975
 20
-14.1433
 11
-10.0445
 21
-14.2213
  0
LINE
  8
0
 10
-10.0445
 20
-14.2213
 11
-9.99654
 21
-14.3024
  0
LINE
  8
0
 10
-9.99654
 20
-14.3024
 11
-9.95375
 21
-14.3863
  0
LINE
  8
0
 10
-9.95375
 20
-14.3863
 11
-9.91632
 21
-14.4728
  0
LINE
  8
0
 10
-9.91632
 20
-14.4728
 11
-9.88441
 21
-14.5615
  0
LINE
  8
0
 10
-9.88441
 20
-14.5615
 11
-9.85812
 21
-14.652
  0
LINE
  8
0
 10
-9.85812
 20
-14.652
 11
-9.83755
 21
-14.7439
  0
LINE
  8
0
 10
-9.83755
 20
-14.7439
 11
-9.82281
 21
-14.837
  0
LINE
  8
0
 10
-9.82281
 20
-14.837
 11
-9.81395
 21
-14.9308
  0
LINE
  8
0
 10
-9.81395
 20
-14.9308
 11
-9.81099
 21
-15.025
  0
LINE
  8
0
 10
-9.81099
 20
-15.025
 11
-9.81395
 21
-15.1192
  0
LINE
  8
0
 10
-9.81395
 20
-15.1192
 11
-9.82281
 21
-15.213
  0
LINE
  8
0
 10
-9.82281
 20
-15.213
 11
-9.83755
 21
-15.3061
  0
LINE
  8
0
 10
-9.83755
 20
-15.3061
 11
-9.85812
 21
-15.398
  0
LINE
  8
0
 10
-9.85812
 20
-15.398
 11
-9.88441
 21
-15.4885
  0
LINE
  8
0
 10
-9.88441
 20
-15.4885
 11
-9.91632
 21
-15.5772
  0
LINE
  8
0
 10
-9.91632
 20
-15.5772
 11
-9.95375
 21
-15.6637
  0
LINE
  8
0
 10
-9.95375
 20
-15.6637
 11
-9.99654
 21
-15.7476
  0
LINE
  8
0
 10
-9.99654
 20
-15.7476
 11
-10.0445
 21
-15.8287
  0
LINE
  8
0
 10
-10.0445
 20
-15.8287
 11
-10.0975
 21
-15.9067
  0
LINE
  8
0
 10
-10.0975
 20
-15.9067
 11
-10.1552
 21
-15.9811
  0
LINE
  8
0
 10
-10.1552
 20
-15.9811
 11
-10.2175
 21
-16.0518
  0
LINE
  8
0
 10
-10.2175
 20
-16.0518
 11
-10.2842
 21
-16.1184
  0
LINE
  8
0
 10
-10.2842
 20
-16.1184
 11
-10.3549
 21
-16.1808
  0
LINE
  8
0
 10
-10.3549
 20
-16.1808
 11
-10.4293
 21
-16.2385
  0
LINE
  8
0
 10
-10.4293
 20
-16.2385
 11
-10.5072
 21
-16.2915
  0
LINE
  8
0
 10
-10.5072
 20
-16.2915
 11
-10.5884
 21
-16.3394
  0
LINE
  8
0
 10
-10.5884
 20
-16.3394
 11
-10.6723
 21
-16.3822
  0
LINE
  8
0
 10
-10.6723
 20
-16.3822
 11
-10.7588
 21
-16.4197
  0
LINE
  8
0
 10
-10.7588
 20
-16.4197
 11
-10.8475
 21
-16.4516
  0
LINE
  8
0
 10
-10.8475
 20
-16.4516
 11
-10.938
 21
-16.4779
  0
LINE
  8
0
 10
-10.938
 20
-16.4779
 11
-11.0299
 21
-16.4984
  0
LINE
  8
0
 10
-11.0299
 20
-16.4984
 11
-11.123
 21
-16.5132
  0
LINE
  8
0
 10
-11.123
 20
-16.5132
 11
-11.2168
 21
-16.522
  0
LINE
  8
0
 10
-11.2168
 20
-16.522
 11
-11.311
 21
-16.525
  0
LINE
  8
0
 10
-11.311
 20
-16.525
 11
-11.4052
 21
-16.522
  0
LINE
  8
0
 10
-138.099
 20
-19.6768
 11
-138.199
 21
-19.6674
  0
LINE
  8
0
 10
-138.199
 20
-19.6674
 11
-138.299
 21
-19.6517
  0
LINE
  8
0
 10
-138.299
 20
-19.6517
 11
-138.397
 21
-19.6297
  0
LINE
  8
0
 10
-138.397
 20
-19.6297
 11
-138.493
 21
-19.6017
  0
LINE
  8
0
 10
-138.493
 20
-19.6017
 11
-138.588
 21
-19.5677
  0
LINE
  8
0
 10
-138.588
 20
-19.5677
 11
-138.68
 21
-19.5277
  0
LINE
  8
0
 10
-138.68
 20
-19.5277
 11
-138.77
 21
-19.4821
  0
LINE
  8
0
 10
-138.77
 20
-19.4821
 11
-138.856
 21
-19.4309
  0
LINE
  8
0
 10
-138.856
 20
-19.4309
 11
-138.939
 21
-19.3744
  0
LINE
  8
0
 10
-138.939
 20
-19.3744
 11
-139.019
 21
-19.3128
  0
LINE
  8
0
 10
-139.019
 20
-19.3128
 11
-139.094
 21
-19.2464
  0
LINE
  8
0
 10
-139.094
 20
-19.2464
 11
-139.165
 21
-19.1753
  0
LINE
  8
0
 10
-139.165
 20
-19.1753
 11
-139.232
 21
-19.0999
  0
LINE
  8
0
 10
-139.232
 20
-19.0999
 11
-139.293
 21
-19.0205
  0
LINE
  8
0
 10
-139.293
 20
-19.0205
 11
-139.35
 21
-18.9373
  0
LINE
  8
0
 10
-139.35
 20
-18.9373
 11
-139.401
 21
-18.8508
  0
LINE
  8
0
 10
-139.401
 20
-18.8508
 11
-139.447
 21
-18.7613
  0
LINE
  8
0
 10
-139.447
 20
-18.7613
 11
-139.487
 21
-18.669
  0
LINE
  8
0
 10
-139.487
 20
-18.669
 11
-139.521
 21
-18.5744
  0
LINE
  8
0
 10
-139.521
 20
-18.5744
 11
-139.549
 21
-18.4779
  0
LINE
  8
0
 10
-139.549
 20
-18.4779
 11
-139.571
 21
-18.3798
  0
LINE
  8
0
 10
-139.571
 20
-18.3798
 11
-139.586
 21
-18.2805
  0
LINE
  8
0
 10
-139.586
 20
-18.2805
 11
-139.596
 21
-18.1805
  0
LINE
  8
0
 10
-139.596
 20
-18.1805
 11
-139.599
 21
-18.08
  0
LINE
  8
0
 10
-139.599
 20
-18.08
 11
-139.596
 21
-17.9796
  0
LINE
  8
0
 10
-139.596
 20
-17.9796
 11
-139.586
 21
-17.8795
  0
LINE
  8
0
 10
-139.586
 20
-17.8795
 11
-139.571
 21
-17.7802
  0
LINE
  8
0
 10
-139.571
 20
-17.7802
 11
-139.549
 21
-17.6821
  0
LINE
  8
0
 10
-139.549
 20
-17.6821
 11
-139.521
 21
-17.5856
  0
LINE
  8
0
 10
-139.521
 20
-17.5856
 11
-139.487
 21
-17.491
  0
LINE
  8
0
 10
-139.487
 20
-17.491
 11
-139.447
 21
-17.3988
  0
LINE
  8
0
 10
-139.447
 20
-17.3988
 11
-139.401
 21
-17.3092
  0
LINE
  8
0
 10
-139.401
 20
-17.3092
 11
-139.35
 21
-17.2227
  0
LINE
  8
0
 10
-139.35
 20
-17.2227
 11
-139.293
 21
-17.1396
  0
LINE
  8
0
 10
-139.293
 20
-17.1396
 11
-139.232
 21
-17.0601
  0
LINE
  8
0
 10
-139.232
 20
-17.0601
 11
-139.165
 21
-16.9847
  0
LINE
  8
0
 10
-139.165
 20
-16.9847
 11
-139.094
 21
-16.9137
  0
LINE
  8
0
 10
-139.094
 20
-16.9137
 11
-139.019
 21
-16.8472
  0
LINE
  8
0
 10
-139.019
 20
-16.8472
 11
-138.939
 21
-16.7856
  0
LINE
  8
0
 10
-138.939
 20
-16.7856
 11
-138.856
 21
-16.7291
  0
LINE
  8
0
 10
-138.856
 20
-16.7291
 11
-138.77
 21
-16.6779
  0
LINE
  8
0
 10
-138.77
 20
-16.6779
 11
-138.68
 21
-16.6323
  0
LINE
  8
0
 10
-138.68
 20
-16.6323
 11
-138.588
 21
-16.5924
  0
LINE
  8
0
 10
-138.588
 20
-16.5924
 11
-138.493
 21
-16.5583
  0
LINE
  8
0
 10
-138.493
 20
-16.5583
 11
-138.397
 21
-16.5303
  0
LINE
  8
0
 10
-138.397
 20
-16.5303
 11
-138.299
 21
-16.5083
  0
LINE
  8
0
 10
-138.299
 20
-16.5083
 11
-138.199
 21
-16.4926
  0
LINE
  8
0
 10
-138.199
 20
-16.4926
 11
-138.099
 21
-16.4832
  0
LINE
  8
0
 10
-138.099
 20
-16.4832
 11
-137.999
 21
-16.48
  0
LINE
  8
0
 10
-137.999
 20
-16.48
 11
-137.898
 21
-16.4832
  0
LINE
  8
0
 10
-137.898
 20
-16.4832
 11
-137.798
 21
-16.4926
  0
LINE
  8
0
 10
-137.798
 20
-16.4926
 11
-137.699
 21
-16.5083
  0
LINE
  8
0
 10
-137.699
 20
-16.5083
 11
-137.601
 21
-16.5303
  0
LINE
  8
0
 10
-137.601
 20
-16.5303
 11
-137.505
 21
-16.5583
  0
LINE
  8
0
 10
-137.505
 20
-16.5583
 11
-137.41
 21
-16.5924
  0
LINE
  8
0
 10
-137.41
 20
-16.5924
 11
-137.318
 21
-16.6323
  0
LINE
  8
0
 10
-137.318
 20
-16.6323
 11
-137.228
 21
-16.6779
  0
LINE
  8
0
 10
-137.228
 20
-16.6779
 11
-137.142
 21
-16.7291
  0
LINE
  8
0
 10
-137.142
 20
-16.7291
 11
-137.058
 21
-16.7856
  0
LINE
  8
0
 10
-137.058
 20
-16.7856
 11
-136.979
 21
-16.8472
  0
LINE
  8
0
 10
-136.979
 20
-16.8472
 11
-136.904
 21
-16.9137
  0
LINE
  8
0
 10
-136.904
 20
-16.9137
 11
-136.833
 21
-16.9847
  0
LINE
  8
0
 10
-136.833
 20
-16.9847
 11
-136.766
 21
-17.0601
  0
LINE
  8
0
 10
-136.766
 20
-17.0601
 11
-136.705
 21
-17.1396
  0
LINE
  8
0
 10
-136.705
 20
-17.1396
 11
-136.648
 21
-17.2227
  0
LINE
  8
0
 10
-136.648
 20
-17.2227
 11
-136.597
 21
-17.3092
  0
LINE
  8
0
 10
-136.597
 20
-17.3092
 11
-136.551
 21
-17.3988
  0
LINE
  8
0
 10
-136.551
 20
-17.3988
 11
-136.511
 21
-17.491
  0
LINE
  8
0
 10
-136.511
 20
-17.491
 11
-136.477
 21
-17.5856
  0
LINE
  8
0
 10
-136.477
 20
-17.5856
 11
-136.449
 21
-17.6821
  0
LINE
  8
0
 10
-136.449
 20
-17.6821
 11
-136.427
 21
-17.7802
  0
LINE
  8
0
 10
-136.427
 20
-17.7802
 11
-136.412
 21
-17.8795
  0
LINE
  8
0
 10
-136.412
 20
-17.8795
 11
-136.402
 21
-17.9796
  0
LINE
  8
0
 10
-136.402
 20
-17.9796
 11
-136.399
 21
-18.08
  0
LINE
  8
0
 10
-136.399
 20
-18.08
 11
-136.402
 21
-18.1805
  0
LINE
  8
0
 10
-136.402
 20
-18.1805
 11
-136.412
 21
-18.2805
  0
LINE
  8
0
 10
-136.412
 20
-18.2805
 11
-136.427
 21
-18.3798
  0
LINE
  8
0
 10
-136.427
 20
-18.3798
 11
-136.449
 21
-18.4779
  0
LINE
  8
0
 10
-136.449
 20
-18.4779
 11
-136.477
 21
-18.5744
  0
LINE
  8
0
 10
-136.477
 20
-18.5744
 11
-136.511
 21
-18.669
  0
LINE
  8
0
 10
-136.511
 20
-18.669
 11
-136.551
 21
-18.7613
  0
LINE
  8
0
 10
-136.551
 20
-18.7613
 11
-136.597
 21
-18.8508
  0
LINE
  8
0
 10
-136.597
 20
-18.8508
 11
-136.648
 21
-18.9373
  0
LINE
  8
0
 10
-136.648
 20
-18.9373
 11
-136.705
 21
-19.0205
  0
LINE
  8
0
 10
-136.705
 20
-19.0205
 11
-136.766
 21
-19.0999
  0
LINE
  8
0
 10
-136.766
 20
-19.0999
 11
-136.833
 21
-19.1753
  0
LINE
  8
0
 10
-136.833
 20
-19.1753
 11
-136.904
 21
-19.2464
  0
LINE
  8
0
 10
-136.904
 20
-19.2464
 11
-136.979
 21
-19.3128
  0
LINE
  8
0
 10
-136.979
 20
-19.3128
 11
-137.058
 21
-19.3744
  0
LINE
  8
0
 10
-137.058
 20
-19.3744
 11
-137.142
 21
-19.4309
  0
LINE
  8
0
 10
-137.142
 20
-19.4309
 11
-137.228
 21
-19.4821
  0
LINE
  8
0
 10
-137.228
 20
-19.4821
 11
-137.318
 21
-19.5277
  0
LINE
  8
0
 10
-137.318
 20
-19.5277
 11
-137.41
 21
-19.5677
  0
LINE
  8
0
 10
-137.41
 20
-19.5677
 11
-137.505
 21
-19.6017
  0
LINE
  8
0
 10
-137.505
 20
-19.6017
 11
-137.601
 21
-19.6297
  0
LINE
  8
0
 10
-137.601
 20
-19.6297
 11
-137.699
 21
-19.6517
  0
LINE
  8
0
 10
-137.699
 20
-19.6517
 11
-137.798
 21
-19.6674
  0
LINE
  8
0
 10
-137.798
 20
-19.6674
 11
-137.898
 21
-19.6768
  0
LINE
  8
0
 10
-137.898
 20
-19.6768
 11
-137.999
 21
-19.68
  0
LINE
  8
0
 10
-137.999
 20
-19.68
 11
-138.099
 21
-19.6768
  0
LINE
  8
0
 10
-37.0242
 20
-25.0896
 11
-37.1806
 21
-25.0748
  0
LINE
  8
0
 10
-37.1806
 20
-25.0748
 11
-37.3357
 21
-25.0503
  0
LINE
  8
0
 10
-37.3357
 20
-25.0503
 11
-37.489
 21
-25.016
  0
LINE
  8
0
 10
-37.489
 20
-25.016
 11
-37.6398
 21
-24.9722
  0
LINE
  8
0
 10
-37.6398
 20
-24.9722
 11
-37.7876
 21
-24.919
  0
LINE
  8
0
 10
-37.7876
 20
-24.919
 11
-37.9317
 21
-24.8566
  0
LINE
  8
0
 10
-37.9317
 20
-24.8566
 11
-38.0716
 21
-24.7853
  0
LINE
  8
0
 10
-38.0716
 20
-24.7853
 11
-38.2068
 21
-24.7054
  0
LINE
  8
0
 10
-38.2068
 20
-24.7054
 11
-38.3367
 21
-24.6171
  0
LINE
  8
0
 10
-38.3367
 20
-24.6171
 11
-38.4608
 21
-24.5208
  0
LINE
  8
0
 10
-38.4608
 20
-24.5208
 11
-38.5786
 21
-24.417
  0
LINE
  8
0
 10
-38.5786
 20
-24.417
 11
-38.6897
 21
-24.3059
  0
LINE
  8
0
 10
-38.6897
 20
-24.3059
 11
-38.7935
 21
-24.1881
  0
LINE
  8
0
 10
-38.7935
 20
-24.1881
 11
-38.8898
 21
-24.064
  0
LINE
  8
0
 10
-38.8898
 20
-24.064
 11
-38.9781
 21
-23.9341
  0
LINE
  8
0
 10
-38.9781
 20
-23.9341
 11
-39.058
 21
-23.7989
  0
LINE
  8
0
 10
-39.058
 20
-23.7989
 11
-39.1293
 21
-23.659
  0
LINE
  8
0
 10
-39.1293
 20
-23.659
 11
-39.1917
 21
-23.5148
  0
LINE
  8
0
 10
-39.1917
 20
-23.5148
 11
-39.2449
 21
-23.3671
  0
LINE
  8
0
 10
-39.2449
 20
-23.3671
 11
-39.2887
 21
-23.2163
  0
LINE
  8
0
 10
-39.2887
 20
-23.2163
 11
-39.323
 21
-23.063
  0
LINE
  8
0
 10
-39.323
 20
-23.063
 11
-39.3475
 21
-22.9079
  0
LINE
  8
0
 10
-39.3475
 20
-22.9079
 11
-39.3623
 21
-22.7515
  0
LINE
  8
0
 10
-39.3623
 20
-22.7515
 11
-39.3672
 21
-22.5945
  0
LINE
  8
0
 10
-39.3672
 20
-22.5945
 11
-39.3623
 21
-22.4376
  0
LINE
  8
0
 10
-39.3623
 20
-22.4376
 11
-39.3475
 21
-22.2812
  0
LINE
  8
0
 10
-39.3475
 20
-22.2812
 11
-39.323
 21
-22.1261
  0
LINE
  8
0
 10
-39.323
 20
-22.1261
 11
-39.2887
 21
-21.9728
  0
LINE
  8
0
 10
-39.2887
 20
-21.9728
 11
-39.2449
 21
-21.822
  0
LINE
  8
0
 10
-39.2449
 20
-21.822
 11
-39.1917
 21
-21.6742
  0
LINE
  8
0
 10
-39.1917
 20
-21.6742
 11
-39.1293
 21
-21.5301
  0
LINE
  8
0
 10
-39.1293
 20
-21.5301
 11
-39.058
 21
-21.3902
  0
LINE
  8
0
 10
-39.058
 20
-21.3902
 11
-38.9781
 21
-21.255
  0
LINE
  8
0
 10
-38.9781
 20
-21.255
 11
-38.8898
 21
-21.1251
  0
LINE
  8
0
 10
-38.8898
 20
-21.1251
 11
-38.7935
 21
-21.001
  0
LINE
  8
0
 10
-38.7935
 20
-21.001
 11
-38.6897
 21
-20.8832
  0
LINE
  8
0
 10
-38.6897
 20
-20.8832
 11
-38.5786
 21
-20.7721
  0
LINE
  8
0
 10
-38.5786
 20
-20.7721
 11
-38.4608
 21
-20.6683
  0
LINE
  8
0
 10
-38.4608
 20
-20.6683
 11
-38.3367
 21
-20.572
  0
LINE
  8
0
 10
-38.3367
 20
-20.572
 11
-38.2068
 21
-20.4837
  0
LINE
  8
0
 10
-38.2068
 20
-20.4837
 11
-38.0716
 21
-20.4038
  0
LINE
  8
0
 10
-38.0716
 20
-20.4038
 11
-37.9317
 21
-20.3325
  0
LINE
  8
0
 10
-37.9317
 20
-20.3325
 11
-37.7876
 21
-20.2701
  0
LINE
  8
0
 10
-37.7876
 20
-20.2701
 11
-37.6398
 21
-20.2169
  0
LINE
  8
0
 10
-37.6398
 20
-20.2169
 11
-37.489
 21
-20.1731
  0
LINE
  8
0
 10
-37.489
 20
-20.1731
 11
-37.3357
 21
-20.1388
  0
LINE
  8
0
 10
-37.3357
 20
-20.1388
 11
-37.1806
 21
-20.1143
  0
LINE
  8
0
 10
-37.1806
 20
-20.1143
 11
-37.0242
 21
-20.0995
  0
LINE
  8
0
 10
-37.0242
 20
-20.0995
 11
-36.8672
 21
-20.0945
  0
LINE
  8
0
 10
-36.8672
 20
-20.0945
 11
-36.7103
 21
-20.0995
  0
LINE
  8
0
 10
-36.7103
 20
-20.0995
 11
-36.5539
 21
-20.1143
  0
LINE
  8
0
 10
-36.5539
 20
-20.1143
 11
-36.3988
 21
-20.1388
  0
LINE
  8
0
 10
-36.3988
 20
-20.1388
 11
-36.2455
 21
-20.1731
  0
LINE
  8
0
 10
-36.2455
 20
-20.1731
 11
-36.0947
 21
-20.2169
  0
LINE
  8
0
 10
-36.0947
 20
-20.2169
 11
-35.9469
 21
-20.2701
  0
LINE
  8
0
 10
-35.9469
 20
-20.2701
 11
-35.8028
 21
-20.3325
  0
LINE
  8
0
 10
-35.8028
 20
-20.3325
 11
-35.6629
 21
-20.4038
  0
LINE
  8
0
 10
-35.6629
 20
-20.4038
 11
-35.5277
 21
-20.4837
  0
LINE
  8
0
 10
-35.5277
 20
-20.4837
 11
-35.3978
 21
-20.572
  0
LINE
  8
0
 10
-35.3978
 20
-20.572
 11
-35.2737
 21
-20.6683
  0
LINE
  8
0
 10
-35.2737
 20
-20.6683
 11
-35.1559
 21
-20.7721
  0
LINE
  8
0
 10
-35.1559
 20
-20.7721
 11
-35.0448
 21
-20.8832
  0
LINE
  8
0
 10
-35.0448
 20
-20.8832
 11
-34.941
 21
-21.001
  0
LINE
  8
0
 10
-34.941
 20
-21.001
 11
-34.8447
 21
-21.1251
  0
LINE
  8
0
 10
-34.8447
 20
-21.1251
 11
-34.7564
 21
-21.255
  0
LINE
  8
0
 10
-34.7564
 20
-21.255
 11
-34.6765
 21
-21.3902
  0
LINE
  8
0
 10
-34.6765
 20
-21.3902
 11
-34.6052
 21
-21.5301
  0
LINE
  8
0
 10
-34.6052
 20
-21.5301
 11
-34.5428
 21
-21.6742
  0
LINE
  8
0
 10
-34.5428
 20
-21.6742
 11
-34.4896
 21
-21.822
  0
LINE
  8
0
 10
-34.4896
 20
-21.822
 11
-34.4458
 21
-21.9728
  0
LINE
  8
0
 10
-34.4458
 20
-21.9728
 11
-34.4115
 21
-22.1261
  0
LINE
  8
0
 10
-34.4115
 20
-22.1261
 11
-34.387
 21
-22.2812
  0
LINE
  8
0
 10
-34.387
 20
-22.2812
 11
-34.3722
 21
-22.4376
  0
LINE
  8
0
 10
-34.3722
 20
-22.4376
 11
-34.3672
 21
-22.5945
  0
LINE
  8
0
 10
-34.3672
 20
-22.5945
 11
-34.3722
 21
-22.7515
  0
LINE
  8
0
 10
-34.3722
 20
-22.7515
 11
-34.387
 21
-22.9079
  0
LINE
  8
0
 10
-34.387
 20
-22.9079
 11
-34.4115
 21
-23.063
  0
LINE
  8
0
 10
-34.4115
 20
-23.063
 11
-34.4458
 21
-23.2163
  0
LINE
  8
0
 10
-34.4458
 20
-23.2163
 11
-34.4896
 21
-23.3671
  0
LINE
  8
0
 10
-34.4896
 20
-23.3671
 11
-34.5428
 21
-23.5148
  0
LINE
  8
0
 10
-34.5428
 20
-23.5148
 11
-34.6052
 21
-23.659
  0
LINE
  8
0
 10
-34.6052
 20
-23.659
 11
-34.6765
 21
-23.7989
  0
LINE
  8
0
 10
-34.6765
 20
-23.7989
 11
-34.7564
 21
-23.9341
  0
LINE
  8
0
 10
-34.7564
 20
-23.9341
 11
-34.8447
 21
-24.064
  0
LINE
  8
0
 10
-34.8447
 20
-24.064
 11
-34.941
 21
-24.1881
  0
LINE
  8
0
 10
-34.941
 20
-24.1881
 11
-35.0448
 21
-24.3059
  0
LINE
  8
0
 10
-35.0448
 20
-24.3059
 11
-35.1559
 21
-24.417
  0
LINE
  8
0
 10
-35.1559
 20
-24.417
 11
-35.2737
 21
-24.5208
  0
LINE
  8
0
 10
-35.2737
 20
-24.5208
 11
-35.3978
 21
-24.6171
  0
LINE
  8
0
 10
-35.3978
 20
-24.6171
 11
-35.5277
 21
-24.7054
  0
LINE
  8
0
 10
-35.5277
 20
-24.7054
 11
-35.6629
 21
-24.7853
  0
LINE
  8
0
 10
-35.6629
 20
-24.7853
 11
-35.8028
 21
-24.8566
  0
LINE
  8
0
 10
-35.8028
 20
-24.8566
 11
-35.9469
 21
-24.919
  0
LINE
  8
0
 10
-35.9469
 20
-24.919
 11
-36.0947
 21
-24.9722
  0
LINE
  8
0
 10
-36.0947
 20
-24.9722
 11
-36.2455
 21
-25.016
  0
LINE
  8
0
 10
-36.2455
 20
-25.016
 11
-36.3988
 21
-25.0503
  0
LINE
  8
0
 10
-36.3988
 20
-25.0503
 11
-36.5539
 21
-25.0748
  0
LINE
  8
0
 10
-36.5539
 20
-25.0748
 11
-36.7103
 21
-25.0896
  0
LINE
  8
0
 10
-36.7103
 20
-25.0896
 11
-36.8672
 21
-25.0945
  0
LINE
  8
0
 10
-36.8672
 20
-25.0945
 11
-37.0242
 21
-25.0896
  0
LINE
  8
0
 10
-60.5181
 20
-25.8048
 11
-60.6119
 21
-25.7959
  0
LINE
  8
0
 10
-60.6119
 20
-25.7959
 11
-60.705
 21
-25.7812
  0
LINE
  8
0
 10
-60.705
 20
-25.7812
 11
-60.7969
 21
-25.7606
  0
LINE
  8
0
 10
-60.7969
 20
-25.7606
 11
-60.8874
 21
-25.7343
  0
LINE
  8
0
 10
-60.8874
 20
-25.7343
 11
-60.9761
 21
-25.7024
  0
LINE
  8
0
 10
-60.9761
 20
-25.7024
 11
-61.0625
 21
-25.665
  0
LINE
  8
0
 10
-61.0625
 20
-25.665
 11
-61.1465
 21
-25.6222
  0
LINE
  8
0
 10
-61.1465
 20
-25.6222
 11
-61.2276
 21
-25.5742
  0
LINE
  8
0
 10
-61.2276
 20
-25.5742
 11
-61.3056
 21
-25.5213
  0
LINE
  8
0
 10
-61.3056
 20
-25.5213
 11
-61.38
 21
-25.4635
  0
LINE
  8
0
 10
-61.38
 20
-25.4635
 11
-61.4507
 21
-25.4012
  0
LINE
  8
0
 10
-61.4507
 20
-25.4012
 11
-61.5173
 21
-25.3346
  0
LINE
  8
0
 10
-61.5173
 20
-25.3346
 11
-61.5797
 21
-25.2639
  0
LINE
  8
0
 10
-61.5797
 20
-25.2639
 11
-61.6374
 21
-25.1894
  0
LINE
  8
0
 10
-61.6374
 20
-25.1894
 11
-61.6904
 21
-25.1115
  0
LINE
  8
0
 10
-61.6904
 20
-25.1115
 11
-61.7383
 21
-25.0304
  0
LINE
  8
0
 10
-61.7383
 20
-25.0304
 11
-61.7811
 21
-24.9464
  0
LINE
  8
0
 10
-61.7811
 20
-24.9464
 11
-61.8185
 21
-24.8599
  0
LINE
  8
0
 10
-61.8185
 20
-24.8599
 11
-61.8505
 21
-24.7713
  0
LINE
  8
0
 10
-61.8505
 20
-24.7713
 11
-61.8768
 21
-24.6808
  0
LINE
  8
0
 10
-61.8768
 20
-24.6808
 11
-61.8973
 21
-24.5888
  0
LINE
  8
0
 10
-61.8973
 20
-24.5888
 11
-61.912
 21
-24.4957
  0
LINE
  8
0
 10
-61.912
 20
-24.4957
 11
-61.9209
 21
-24.4019
  0
LINE
  8
0
 10
-61.9209
 20
-24.4019
 11
-61.9239
 21
-24.3077
  0
LINE
  8
0
 10
-61.9239
 20
-24.3077
 11
-61.9209
 21
-24.2136
  0
LINE
  8
0
 10
-61.9209
 20
-24.2136
 11
-61.912
 21
-24.1198
  0
LINE
  8
0
 10
-61.912
 20
-24.1198
 11
-61.8973
 21
-24.0267
  0
LINE
  8
0
 10
-61.8973
 20
-24.0267
 11
-61.8768
 21
-23.9347
  0
LINE
  8
0
 10
-61.8768
 20
-23.9347
 11
-61.8505
 21
-23.8442
  0
LINE
  8
0
 10
-61.8505
 20
-23.8442
 11
-61.8185
 21
-23.7556
  0
LINE
  8
0
 10
-61.8185
 20
-23.7556
 11
-61.7811
 21
-23.6691
  0
LINE
  8
0
 10
-61.7811
 20
-23.6691
 11
-61.7383
 21
-23.5851
  0
LINE
  8
0
 10
-61.7383
 20
-23.5851
 11
-61.6904
 21
-23.504
  0
LINE
  8
0
 10
-61.6904
 20
-23.504
 11
-61.6374
 21
-23.4261
  0
LINE
  8
0
 10
-61.6374
 20
-23.4261
 11
-61.5797
 21
-23.3516
  0
LINE
  8
0
 10
-61.5797
 20
-23.3516
 11
-61.5173
 21
-23.2809
  0
LINE
  8
0
 10
-61.5173
 20
-23.2809
 11
-61.4507
 21
-23.2143
  0
LINE
  8
0
 10
-61.4507
 20
-23.2143
 11
-61.38
 21
-23.152
  0
LINE
  8
0
 10
-61.38
 20
-23.152
 11
-61.3056
 21
-23.0942
  0
LINE
  8
0
 10
-61.3056
 20
-23.0942
 11
-61.2276
 21
-23.0412
  0
LINE
  8
0
 10
-61.2276
 20
-23.0412
 11
-61.1465
 21
-22.9933
  0
LINE
  8
0
 10
-61.1465
 20
-22.9933
 11
-61.0625
 21
-22.9505
  0
LINE
  8
0
 10
-61.0625
 20
-22.9505
 11
-60.9761
 21
-22.9131
  0
LINE
  8
0
 10
-60.9761
 20
-22.9131
 11
-60.8874
 21
-22.8812
  0
LINE
  8
0
 10
-60.8874
 20
-22.8812
 11
-60.7969
 21
-22.8549
  0
LINE
  8
0
 10
-60.7969
 20
-22.8549
 11
-60.705
 21
-22.8343
  0
LINE
  8
0
 10
-60.705
 20
-22.8343
 11
-60.6119
 21
-22.8196
  0
LINE
  8
0
 10
-60.6119
 20
-22.8196
 11
-60.5181
 21
-22.8107
  0
LINE
  8
0
 10
-60.5181
 20
-22.8107
 11
-60.4239
 21
-22.8077
  0
LINE
  8
0
 10
-60.4239
 20
-22.8077
 11
-60.3297
 21
-22.8107
  0
LINE
  8
0
 10
-60.3297
 20
-22.8107
 11
-60.2359
 21
-22.8196
  0
LINE
  8
0
 10
-60.2359
 20
-22.8196
 11
-60.1428
 21
-22.8343
  0
LINE
  8
0
 10
-60.1428
 20
-22.8343
 11
-60.0508
 21
-22.8549
  0
LINE
  8
0
 10
-60.0508
 20
-22.8549
 11
-59.9604
 21
-22.8812
  0
LINE
  8
0
 10
-59.9604
 20
-22.8812
 11
-59.8717
 21
-22.9131
  0
LINE
  8
0
 10
-59.8717
 20
-22.9131
 11
-59.7852
 21
-22.9505
  0
LINE
  8
0
 10
-59.7852
 20
-22.9505
 11
-59.7012
 21
-22.9933
  0
LINE
  8
0
 10
-59.7012
 20
-22.9933
 11
-59.6201
 21
-23.0412
  0
LINE
  8
0
 10
-59.6201
 20
-23.0412
 11
-59.5422
 21
-23.0942
  0
LINE
  8
0
 10
-59.5422
 20
-23.0942
 11
-59.4677
 21
-23.152
  0
LINE
  8
0
 10
-59.4677
 20
-23.152
 11
-59.3971
 21
-23.2143
  0
LINE
  8
0
 10
-59.3971
 20
-23.2143
 11
-59.3304
 21
-23.2809
  0
LINE
  8
0
 10
-59.3304
 20
-23.2809
 11
-59.2681
 21
-23.3516
  0
LINE
  8
0
 10
-59.2681
 20
-23.3516
 11
-59.2104
 21
-23.4261
  0
LINE
  8
0
 10
-59.2104
 20
-23.4261
 11
-59.1574
 21
-23.504
  0
LINE
  8
0
 10
-59.1574
 20
-23.504
 11
-59.1094
 21
-23.5851
  0
LINE
  8
0
 10
-59.1094
 20
-23.5851
 11
-59.0666
 21
-23.6691
  0
LINE
  8
0
 10
-59.0666
 20
-23.6691
 11
-59.0292
 21
-23.7556
  0
LINE
  8
0
 10
-59.0292
 20
-23.7556
 11
-58.9973
 21
-23.8442
  0
LINE
  8
0
 10
-58.9973
 20
-23.8442
 11
-58.971
 21
-23.9347
  0
LINE
  8
0
 10
-58.971
 20
-23.9347
 11
-58.9505
 21
-24.0267
  0
LINE
  8
0
 10
-58.9505
 20
-24.0267
 11
-58.9357
 21
-24.1198
  0
LINE
  8
0
 10
-58.9357
 20
-24.1198
 11
-58.9268
 21
-24.2136
  0
LINE
  8
0
 10
-58.9268
 20
-24.2136
 11
-58.9239
 21
-24.3077
  0
LINE
  8
0
 10
-58.9239
 20
-24.3077
 11
-58.9268
 21
-24.4019
  0
LINE
  8
0
 10
-58.9268
 20
-24.4019
 11
-58.9357
 21
-24.4957
  0
LINE
  8
0
 10
-58.9357
 20
-24.4957
 11
-58.9505
 21
-24.5888
  0
LINE
  8
0
 10
-58.9505
 20
-24.5888
 11
-58.971
 21
-24.6808
  0
LINE
  8
0
 10
-58.971
 20
-24.6808
 11
-58.9973
 21
-24.7713
  0
LINE
  8
0
 10
-58.9973
 20
-24.7713
 11
-59.0292
 21
-24.8599
  0
LINE
  8
0
 10
-59.0292
 20
-24.8599
 11
-59.0666
 21
-24.9464
  0
LINE
  8
0
 10
-59.0666
 20
-24.9464
 11
-59.1094
 21
-25.0304
  0
LINE
  8
0
 10
-59.1094
 20
-25.0304
 11
-59.1574
 21
-25.1115
  0
LINE
  8
0
 10
-59.1574
 20
-25.1115
 11
-59.2104
 21
-25.1894
  0
LINE
  8
0
 10
-59.2104
 20
-25.1894
 11
-59.2681
 21
-25.2639
  0
LINE
  8
0
 10
-59.2681
 20
-25.2639
 11
-59.3304
 21
-25.3346
  0
LINE
  8
0
 10
-59.3304
 20
-25.3346
 11
-59.3971
 21
-25.4012
  0
LINE
  8
0
 10
-59.3971
 20
-25.4012
 11
-59.4677
 21
-25.4635
  0
LINE
  8
0
 10
-59.4677
 20
-25.4635
 11
-59.5422
 21
-25.5213
  0
LINE
  8
0
 10
-59.5422
 20
-25.5213
 11
-59.6201
 21
-25.5742
  0
LINE
  8
0
 10
-59.6201
 20
-25.5742
 11
-59.7012
 21
-25.6222
  0
LINE
  8
0
 10
-59.7012
 20
-25.6222
 11
-59.7852
 21
-25.665
  0
LINE
  8
0
 10
-59.7852
 20
-25.665
 11
-59.8717
 21
-25.7024
  0
LINE
  8
0
 10
-59.8717
 20
-25.7024
 11
-59.9604
 21
-25.7343
  0
LINE
  8
0
 10
-59.9604
 20
-25.7343
 11
-60.0508
 21
-25.7606
  0
LINE
  8
0
 10
-60.0508
 20
-25.7606
 11
-60.1428
 21
-25.7812
  0
LINE
  8
0
 10
-60.1428
 20
-25.7812
 11
-60.2359
 21
-25.7959
  0
LINE
  8
0
 10
-60.2359
 20
-25.7959
 11
-60.3297
 21
-25.8048
  0
LINE
  8
0
 10
-60.3297
 20
-25.8048
 11
-60.4239
 21
-25.8077
  0
LINE
  8
0
 10
-60.4239
 20
-25.8077
 11
-60.5181
 21
-25.8048
  0
LINE
  8
0
 10
-80.9679
 20
-35.2474
 11
-81.1242
 21
-35.2326
  0
LINE
  8
0
 10
-81.1242
 20
-35.2326
 11
-81.2793
 21
-35.208
  0
LINE
  8
0
 10
-81.2793
 20
-35.208
 11
-81.4326
 21
-35.1738
  0
LINE
  8
0
 10
-81.4326
 20
-35.1738
 11
-81.5834
 21
-35.13
  0
LINE
  8
0
 10
-81.5834
 20
-35.13
 11
-81.7312
 21
-35.0768
  0
LINE
  8
0
 10
-81.7312
 20
-35.0768
 11
-81.8753
 21
-35.0144
  0
LINE
  8
0
 10
-81.8753
 20
-35.0144
 11
-82.0153
 21
-34.9431
  0
LINE
  8
0
 10
-82.0153
 20
-34.9431
 11
-82.1505
 21
-34.8631
  0
LINE
  8
0
 10
-82.1505
 20
-34.8631
 11
-82.2803
 21
-34.7749
  0
LINE
  8
0
 10
-82.2803
 20
-34.7749
 11
-82.4044
 21
-34.6786
  0
LINE
  8
0
 10
-82.4044
 20
-34.6786
 11
-82.5222
 21
-34.5747
  0
LINE
  8
0
 10
-82.5222
 20
-34.5747
 11
-82.6333
 21
-34.4637
  0
LINE
  8
0
 10
-82.6333
 20
-34.4637
 11
-82.7372
 21
-34.3459
  0
LINE
  8
0
 10
-82.7372
 20
-34.3459
 11
-82.8334
 21
-34.2218
  0
LINE
  8
0
 10
-82.8334
 20
-34.2218
 11
-82.9217
 21
-34.0919
  0
LINE
  8
0
 10
-82.9217
 20
-34.0919
 11
-83.0016
 21
-33.9567
  0
LINE
  8
0
 10
-83.0016
 20
-33.9567
 11
-83.073
 21
-33.8168
  0
LINE
  8
0
 10
-83.073
 20
-33.8168
 11
-83.1353
 21
-33.6726
  0
LINE
  8
0
 10
-83.1353
 20
-33.6726
 11
-83.1885
 21
-33.5249
  0
LINE
  8
0
 10
-83.1885
 20
-33.5249
 11
-83.2323
 21
-33.374
  0
LINE
  8
0
 10
-83.2323
 20
-33.374
 11
-83.2666
 21
-33.2208
  0
LINE
  8
0
 10
-83.2666
 20
-33.2208
 11
-83.2912
 21
-33.0656
  0
LINE
  8
0
 10
-83.2912
 20
-33.0656
 11
-83.306
 21
-32.9093
  0
LINE
  8
0
 10
-83.306
 20
-32.9093
 11
-83.3109
 21
-32.7523
  0
LINE
  8
0
 10
-83.3109
 20
-32.7523
 11
-83.306
 21
-32.5953
  0
LINE
  8
0
 10
-83.306
 20
-32.5953
 11
-83.2912
 21
-32.439
  0
LINE
  8
0
 10
-83.2912
 20
-32.439
 11
-83.2666
 21
-32.2839
  0
LINE
  8
0
 10
-83.2666
 20
-32.2839
 11
-83.2323
 21
-32.1306
  0
LINE
  8
0
 10
-83.2323
 20
-32.1306
 11
-83.1885
 21
-31.9798
  0
LINE
  8
0
 10
-83.1885
 20
-31.9798
 11
-83.1353
 21
-31.832
  0
LINE
  8
0
 10
-83.1353
 20
-31.832
 11
-83.073
 21
-31.6879
  0
LINE
  8
0
 10
-83.073
 20
-31.6879
 11
-83.0016
 21
-31.5479
  0
LINE
  8
0
 10
-83.0016
 20
-31.5479
 11
-82.9217
 21
-31.4128
  0
LINE
  8
0
 10
-82.9217
 20
-31.4128
 11
-82.8334
 21
-31.2829
  0
LINE
  8
0
 10
-82.8334
 20
-31.2829
 11
-82.7372
 21
-31.1588
  0
LINE
  8
0
 10
-82.7372
 20
-31.1588
 11
-82.6333
 21
-31.041
  0
LINE
  8
0
 10
-82.6333
 20
-31.041
 11
-82.5222
 21
-30.9299
  0
LINE
  8
0
 10
-82.5222
 20
-30.9299
 11
-82.4044
 21
-30.826
  0
LINE
  8
0
 10
-82.4044
 20
-30.826
 11
-82.2803
 21
-30.7298
  0
LINE
  8
0
 10
-82.2803
 20
-30.7298
 11
-82.1505
 21
-30.6415
  0
LINE
  8
0
 10
-82.1505
 20
-30.6415
 11
-82.0153
 21
-30.5616
  0
LINE
  8
0
 10
-82.0153
 20
-30.5616
 11
-81.8753
 21
-30.4902
  0
LINE
  8
0
 10
-81.8753
 20
-30.4902
 11
-81.7312
 21
-30.4279
  0
LINE
  8
0
 10
-81.7312
 20
-30.4279
 11
-81.5834
 21
-30.3747
  0
LINE
  8
0
 10
-81.5834
 20
-30.3747
 11
-81.4326
 21
-30.3309
  0
LINE
  8
0
 10
-81.4326
 20
-30.3309
 11
-81.2793
 21
-30.2966
  0
LINE
  8
0
 10
-81.2793
 20
-30.2966
 11
-81.1242
 21
-30.272
  0
LINE
  8
0
 10
-81.1242
 20
-30.272
 11
-80.9679
 21
-30.2572
  0
LINE
  8
0
 10
-80.9679
 20
-30.2572
 11
-80.8109
 21
-30.2523
  0
LINE
  8
0
 10
-80.8109
 20
-30.2523
 11
-80.6539
 21
-30.2572
  0
LINE
  8
0
 10
-80.6539
 20
-30.2572
 11
-80.4975
 21
-30.272
  0
LINE
  8
0
 10
-80.4975
 20
-30.272
 11
-80.3424
 21
-30.2966
  0
LINE
  8
0
 10
-80.3424
 20
-30.2966
 11
-80.1892
 21
-30.3309
  0
LINE
  8
0
 10
-80.1892
 20
-30.3309
 11
-80.0383
 21
-30.3747
  0
LINE
  8
0
 10
-80.0383
 20
-30.3747
 11
-79.8906
 21
-30.4279
  0
LINE
  8
0
 10
-79.8906
 20
-30.4279
 11
-79.7464
 21
-30.4902
  0
LINE
  8
0
 10
-79.7464
 20
-30.4902
 11
-79.6065
 21
-30.5616
  0
LINE
  8
0
 10
-79.6065
 20
-30.5616
 11
-79.4713
 21
-30.6415
  0
LINE
  8
0
 10
-79.4713
 20
-30.6415
 11
-79.3414
 21
-30.7298
  0
LINE
  8
0
 10
-79.3414
 20
-30.7298
 11
-79.2173
 21
-30.826
  0
LINE
  8
0
 10
-79.2173
 20
-30.826
 11
-79.0995
 21
-30.9299
  0
LINE
  8
0
 10
-79.0995
 20
-30.9299
 11
-78.9885
 21
-31.041
  0
LINE
  8
0
 10
-78.9885
 20
-31.041
 11
-78.8846
 21
-31.1588
  0
LINE
  8
0
 10
-78.8846
 20
-31.1588
 11
-78.7883
 21
-31.2829
  0
LINE
  8
0
 10
-78.7883
 20
-31.2829
 11
-78.7001
 21
-31.4128
  0
LINE
  8
0
 10
-78.7001
 20
-31.4128
 11
-78.6201
 21
-31.5479
  0
LINE
  8
0
 10
-78.6201
 20
-31.5479
 11
-78.5488
 21
-31.6879
  0
LINE
  8
0
 10
-78.5488
 20
-31.6879
 11
-78.4864
 21
-31.832
  0
LINE
  8
0
 10
-78.4864
 20
-31.832
 11
-78.4332
 21
-31.9798
  0
LINE
  8
0
 10
-78.4332
 20
-31.9798
 11
-78.3894
 21
-32.1306
  0
LINE
  8
0
 10
-78.3894
 20
-32.1306
 11
-78.3552
 21
-32.2839
  0
LINE
  8
0
 10
-78.3552
 20
-32.2839
 11
-78.3306
 21
-32.439
  0
LINE
  8
0
 10
-78.3306
 20
-32.439
 11
-78.3158
 21
-32.5953
  0
LINE
  8
0
 10
-78.3158
 20
-32.5953
 11
-78.3109
 21
-32.7523
  0
LINE
  8
0
 10
-78.3109
 20
-32.7523
 11
-78.3158
 21
-32.9093
  0
LINE
  8
0
 10
-78.3158
 20
-32.9093
 11
-78.3306
 21
-33.0656
  0
LINE
  8
0
 10
-78.3306
 20
-33.0656
 11
-78.3552
 21
-33.2208
  0
LINE
  8
0
 10
-78.3552
 20
-33.2208
 11
-78.3894
 21
-33.374
  0
LINE
  8
0
 10
-78.3894
 20
-33.374
 11
-78.4332
 21
-33.5249
  0
LINE
  8
0
 10
-78.4332
 20
-33.5249
 11
-78.4864
 21
-33.6726
  0
LINE
  8
0
 10
-78.4864
 20
-33.6726
 11
-78.5488
 21
-33.8168
  0
LINE
  8
0
 10
-78.5488
 20
-33.8168
 11
-78.6201
 21
-33.9567
  0
LINE
  8
0
 10
-78.6201
 20
-33.9567
 11
-78.7001
 21
-34.0919
  0
LINE
  8
0
 10
-78.7001
 20
-34.0919
 11
-78.7883
 21
-34.2218
  0
LINE
  8
0
 10
-78.7883
 20
-34.2218
 11
-78.8846
 21
-34.3459
  0
LINE
  8
0
 10
-78.8846
 20
-34.3459
 11
-78.9885
 21
-34.4637
  0
LINE
  8
0
 10
-78.9885
 20
-34.4637
 11
-79.0995
 21
-34.5747
  0
LINE
  8
0
 10
-79.0995
 20
-34.5747
 11
-79.2173
 21
-34.6786
  0
LINE
  8
0
 10
-79.2173
 20
-34.6786
 11
-79.3414
 21
-34.7749
  0
LINE
  8
0
 10
-79.3414
 20
-34.7749
 11
-79.4713
 21
-34.8631
  0
LINE
  8
0
 10
-79.4713
 20
-34.8631
 11
-79.6065
 21
-34.9431
  0
LINE
  8
0
 10
-79.6065
 20
-34.9431
 11
-79.7464
 21
-35.0144
  0
LINE
  8
0
 10
-79.7464
 20
-35.0144
 11
-79.8906
 21
-35.0768
  0
LINE
  8
0
 10
-79.8906
 20
-35.0768
 11
-80.0383
 21
-35.13
  0
LINE
  8
0
 10
-80.0383
 20
-35.13
 11
-80.1892
 21
-35.1738
  0
LINE
  8
0
 10
-80.1892
 20
-35.1738
 11
-80.3424
 21
-35.208
  0
LINE
  8
0
 10
-80.3424
 20
-35.208
 11
-80.4975
 21
-35.2326
  0
LINE
  8
0
 10
-80.4975
 20
-35.2326
 11
-80.6539
 21
-35.2474
  0
LINE
  8
0
 10
-80.6539
 20
-35.2474
 11
-80.8109
 21
-35.2523
  0
LINE
  8
0
 10
-80.8109
 20
-35.2523
 11
-80.9679
 21
-35.2474
  0
LINE
  8
0
 10
-120.796
 20
-37.9346
 11
-120.953
 21
-37.9198
  0
LINE
  8
0
 10
-120.953
 20
-37.9198
 11
-121.108
 21
-37.8952
  0
LINE
  8
0
 10
-121.108
 20
-37.8952
 11
-121.261
 21
-37.8609
  0
LINE
  8
0
 10
-121.261
 20
-37.8609
 11
-121.412
 21
-37.8171
  0
LINE
  8
0
 10
-121.412
 20
-37.8171
 11
-121.56
 21
-37.7639
  0
LINE
  8
0
 10
-121.56
 20
-37.7639
 11
-121.704
 21
-37.7016
  0
LINE
  8
0
 10
-121.704
 20
-37.7016
 11
-121.844
 21
-37.6302
  0
LINE
  8
0
 10
-121.844
 20
-37.6302
 11
-121.979
 21
-37.5503
  0
LINE
  8
0
 10
-121.979
 20
-37.5503
 11
-122.109
 21
-37.462
  0
LINE
  8
0
 10
-122.109
 20
-37.462
 11
-122.233
 21
-37.3658
  0
LINE
  8
0
 10
-122.233
 20
-37.3658
 11
-122.351
 21
-37.2619
  0
LINE
  8
0
 10
-122.351
 20
-37.2619
 11
-122.462
 21
-37.1508
  0
LINE
  8
0
 10
-122.462
 20
-37.1508
 11
-122.566
 21
-37.033
  0
LINE
  8
0
 10
-122.566
 20
-37.033
 11
-122.662
 21
-36.909
  0
LINE
  8
0
 10
-122.662
 20
-36.909
 11
-122.75
 21
-36.7791
  0
LINE
  8
0
 10
-122.75
 20
-36.7791
 11
-122.83
 21
-36.6439
  0
LINE
  8
0
 10
-122.83
 20
-36.6439
 11
-122.902
 21
-36.5039
  0
LINE
  8
0
 10
-122.902
 20
-36.5039
 11
-122.964
 21
-36.3598
  0
LINE
  8
0
 10
-122.964
 20
-36.3598
 11
-123.017
 21
-36.212
  0
LINE
  8
0
 10
-123.017
 20
-36.212
 11
-123.061
 21
-36.0612
  0
LINE
  8
0
 10
-123.061
 20
-36.0612
 11
-123.095
 21
-35.9079
  0
LINE
  8
0
 10
-123.095
 20
-35.9079
 11
-123.12
 21
-35.7528
  0
LINE
  8
0
 10
-123.12
 20
-35.7528
 11
-123.135
 21
-35.5965
  0
LINE
  8
0
 10
-123.135
 20
-35.5965
 11
-123.139
 21
-35.4395
  0
LINE
  8
0
 10
-123.139
 20
-35.4395
 11
-123.135
 21
-35.2825
  0
LINE
  8
0
 10
-123.135
 20
-35.2825
 11
-123.12
 21
-35.1261
  0
LINE
  8
0
 10
-123.12
 20
-35.1261
 11
-123.095
 21
-34.971
  0
LINE
  8
0
 10
-123.095
 20
-34.971
 11
-123.061
 21
-34.8178
  0
LINE
  8
0
 10
-123.061
 20
-34.8178
 11
-123.017
 21
-34.6669
  0
LINE
  8
0
 10
-123.017
 20
-34.6669
 11
-122.964
 21
-34.5192
  0
LINE
  8
0
 10
-122.964
 20
-34.5192
 11
-122.902
 21
-34.375
  0
LINE
  8
0
 10
-122.902
 20
-34.375
 11
-122.83
 21
-34.2351
  0
LINE
  8
0
 10
-122.83
 20
-34.2351
 11
-122.75
 21
-34.0999
  0
LINE
  8
0
 10
-122.75
 20
-34.0999
 11
-122.662
 21
-33.97
  0
LINE
  8
0
 10
-122.662
 20
-33.97
 11
-122.566
 21
-33.8459
  0
LINE
  8
0
 10
-122.566
 20
-33.8459
 11
-122.462
 21
-33.7281
  0
LINE
  8
0
 10
-122.462
 20
-33.7281
 11
-122.351
 21
-33.6171
  0
LINE
  8
0
 10
-122.351
 20
-33.6171
 11
-122.233
 21
-33.5132
  0
LINE
  8
0
 10
-122.233
 20
-33.5132
 11
-122.109
 21
-33.4169
  0
LINE
  8
0
 10
-122.109
 20
-33.4169
 11
-121.979
 21
-33.3287
  0
LINE
  8
0
 10
-121.979
 20
-33.3287
 11
-121.844
 21
-33.2487
  0
LINE
  8
0
 10
-121.844
 20
-33.2487
 11
-121.704
 21
-33.1774
  0
LINE
  8
0
 10
-121.704
 20
-33.1774
 11
-121.56
 21
-33.115
  0
LINE
  8
0
 10
-121.56
 20
-33.115
 11
-121.412
 21
-33.0618
  0
LINE
  8
0
 10
-121.412
 20
-33.0618
 11
-121.261
 21
-33.018
  0
LINE
  8
0
 10
-121.261
 20
-33.018
 11
-121.108
 21
-32.9838
  0
LINE
  8
0
 10
-121.108
 20
-32.9838
 11
-120.953
 21
-32.9592
  0
LINE
  8
0
 10
-120.953
 20
-32.9592
 11
-120.796
 21
-32.9444
  0
LINE
  8
0
 10
-120.796
 20
-32.9444
 11
-120.639
 21
-32.9395
  0
LINE
  8
0
 10
-120.639
 20
-32.9395
 11
-120.482
 21
-32.9444
  0
LINE
  8
0
 10
-120.482
 20
-32.9444
 11
-120.326
 21
-32.9592
  0
LINE
  8
0
 10
-120.326
 20
-32.9592
 11
-120.171
 21
-32.9838
  0
LINE
  8
0
 10
-120.171
 20
-32.9838
 11
-120.018
 21
-33.018
  0
LINE
  8
0
 10
-120.018
 20
-33.018
 11
-119.867
 21
-33.0618
  0
LINE
  8
0
 10
-119.867
 20
-33.0618
 11
-119.719
 21
-33.115
  0
LINE
  8
0
 10
-119.719
 20
-33.115
 11
-119.575
 21
-33.1774
  0
LINE
  8
0
 10
-119.575
 20
-33.1774
 11
-119.435
 21
-33.2487
  0
LINE
  8
0
 10
-119.435
 20
-33.2487
 11
-119.3
 21
-33.3287
  0
LINE
  8
0
 10
-119.3
 20
-33.3287
 11
-119.17
 21
-33.4169
  0
LINE
  8
0
 10
-119.17
 20
-33.4169
 11
-119.046
 21
-33.5132
  0
LINE
  8
0
 10
-119.046
 20
-33.5132
 11
-118.928
 21
-33.6171
  0
LINE
  8
0
 10
-118.928
 20
-33.6171
 11
-118.817
 21
-33.7281
  0
LINE
  8
0
 10
-118.817
 20
-33.7281
 11
-118.713
 21
-33.8459
  0
LINE
  8
0
 10
-118.713
 20
-33.8459
 11
-118.617
 21
-33.97
  0
LINE
  8
0
 10
-118.617
 20
-33.97
 11
-118.529
 21
-34.0999
  0
LINE
  8
0
 10
-118.529
 20
-34.0999
 11
-118.449
 21
-34.2351
  0
LINE
  8
0
 10
-118.449
 20
-34.2351
 11
-118.377
 21
-34.375
  0
LINE
  8
0
 10
-118.377
 20
-34.375
 11
-118.315
 21
-34.5192
  0
LINE
  8
0
 10
-118.315
 20
-34.5192
 11
-118.262
 21
-34.6669
  0
LINE
  8
0
 10
-118.262
 20
-34.6669
 11
-118.218
 21
-34.8178
  0
LINE
  8
0
 10
-118.218
 20
-34.8178
 11
-118.184
 21
-34.971
  0
LINE
  8
0
 10
-118.184
 20
-34.971
 11
-118.159
 21
-35.1261
  0
LINE
  8
0
 10
-118.159
 20
-35.1261
 11
-118.144
 21
-35.2825
  0
LINE
  8
0
 10
-118.144
 20
-35.2825
 11
-118.139
 21
-35.4395
  0
LINE
  8
0
 10
-118.139
 20
-35.4395
 11
-118.144
 21
-35.5965
  0
LINE
  8
0
 10
-118.144
 20
-35.5965
 11
-118.159
 21
-35.7528
  0
LINE
  8
0
 10
-118.159
 20
-35.7528
 11
-118.184
 21
-35.9079
  0
LINE
  8
0
 10
-118.184
 20
-35.9079
 11
-118.218
 21
-36.0612
  0
LINE
  8
0
 10
-118.218
 20
-36.0612
 11
-118.262
 21
-36.212
  0
LINE
  8
0
 10
-118.262
 20
-36.212
 11
-118.315
 21
-36.3598
  0
LINE
  8
0
 10
-118.315
 20
-36.3598
 11
-118.377
 21
-36.5039
  0
LINE
  8
0
 10
-118.377
 20
-36.5039
 11
-118.449
 21
-36.6439
  0
LINE
  8
0
 10
-118.449
 20
-36.6439
 11
-118.529
 21
-36.7791
  0
LINE
  8
0
 10
-118.529
 20
-36.7791
 11
-118.617
 21
-36.909
  0
LINE
  8
0
 10
-118.617
 20
-36.909
 11
-118.713
 21
-37.033
  0
LINE
  8
0
 10
-118.713
 20
-37.033
 11
-118.817
 21
-37.1508
  0
LINE
  8
0
 10
-118.817
 20
-37.1508
 11
-118.928
 21
-37.2619
  0
LINE
  8
0
 10
-118.928
 20
-37.2619
 11
-119.046
 21
-37.3658
  0
LINE
  8
0
 10
-119.046
 20
-37.3658
 11
-119.17
 21
-37.462
  0
LINE
  8
0
 10
-119.17
 20
-37.462
 11
-119.3
 21
-37.5503
  0
LINE
  8
0
 10
-119.3
 20
-37.5503
 11
-119.435
 21
-37.6302
  0
LINE
  8
0
 10
-119.435
 20
-37.6302
 11
-119.575
 21
-37.7016
  0
LINE
  8
0
 10
-119.575
 20
-37.7016
 11
-119.719
 21
-37.7639
  0
LINE
  8
0
 10
-119.719
 20
-37.7639
 11
-119.867
 21
-37.8171
  0
LINE
  8
0
 10
-119.867
 20
-37.8171
 11
-120.018
 21
-37.8609
  0
LINE
  8
0
 10
-120.018
 20
-37.8609
 11
-120.171
 21
-37.8952
  0
LINE
  8
0
 10
-120.171
 20
-37.8952
 11
-120.326
 21
-37.9198
  0
LINE
  8
0
 10
-120.326
 20
-37.9198
 11
-120.482
 21
-37.9346
  0
LINE
  8
0
 10
-120.482
 20
-37.9346
 11
-120.639
 21
-37.9395
  0
LINE
  8
0
 10
-120.639
 20
-37.9395
 11
-120.796
 21
-37.9346
  0
LINE
  8
0
 10
-103.38
 20
-54.3958
 11
-103.481
 21
-54.3863
  0
LINE
  8
0
 10
-103.481
 20
-54.3863
 11
-103.58
 21
-54.3706
  0
LINE
  8
0
 10
-103.58
 20
-54.3706
 11
-103.678
 21
-54.3487
  0
LINE
  8
0
 10
-103.678
 20
-54.3487
 11
-103.774
 21
-54.3206
  0
LINE
  8
0
 10
-103.774
 20
-54.3206
 11
-103.869
 21
-54.2866
  0
LINE
  8
0
 10
-103.869
 20
-54.2866
 11
-103.961
 21
-54.2467
  0
LINE
  8
0
 10
-103.961
 20
-54.2467
 11
-104.051
 21
-54.201
  0
LINE
  8
0
 10
-104.051
 20
-54.201
 11
-104.137
 21
-54.1499
  0
LINE
  8
0
 10
-104.137
 20
-54.1499
 11
-104.22
 21
-54.0934
  0
LINE
  8
0
 10
-104.22
 20
-54.0934
 11
-104.3
 21
-54.0318
  0
LINE
  8
0
 10
-104.3
 20
-54.0318
 11
-104.375
 21
-53.9653
  0
LINE
  8
0
 10
-104.375
 20
-53.9653
 11
-104.446
 21
-53.8942
  0
LINE
  8
0
 10
-104.446
 20
-53.8942
 11
-104.513
 21
-53.8188
  0
LINE
  8
0
 10
-104.513
 20
-53.8188
 11
-104.574
 21
-53.7394
  0
LINE
  8
0
 10
-104.574
 20
-53.7394
 11
-104.631
 21
-53.6563
  0
LINE
  8
0
 10
-104.631
 20
-53.6563
 11
-104.682
 21
-53.5698
  0
LINE
  8
0
 10
-104.682
 20
-53.5698
 11
-104.728
 21
-53.4802
  0
LINE
  8
0
 10
-104.728
 20
-53.4802
 11
-104.768
 21
-53.388
  0
LINE
  8
0
 10
-104.768
 20
-53.388
 11
-104.802
 21
-53.2934
  0
LINE
  8
0
 10
-104.802
 20
-53.2934
 11
-104.83
 21
-53.1969
  0
LINE
  8
0
 10
-104.83
 20
-53.1969
 11
-104.852
 21
-53.0988
  0
LINE
  8
0
 10
-104.852
 20
-53.0988
 11
-104.867
 21
-52.9995
  0
LINE
  8
0
 10
-104.867
 20
-52.9995
 11
-104.877
 21
-52.8994
  0
LINE
  8
0
 10
-104.877
 20
-52.8994
 11
-104.88
 21
-52.799
  0
LINE
  8
0
 10
-104.88
 20
-52.799
 11
-104.877
 21
-52.6985
  0
LINE
  8
0
 10
-104.877
 20
-52.6985
 11
-104.867
 21
-52.5984
  0
LINE
  8
0
 10
-104.867
 20
-52.5984
 11
-104.852
 21
-52.4991
  0
LINE
  8
0
 10
-104.852
 20
-52.4991
 11
-104.83
 21
-52.401
  0
LINE
  8
0
 10
-104.83
 20
-52.401
 11
-104.802
 21
-52.3045
  0
LINE
  8
0
 10
-104.802
 20
-52.3045
 11
-104.768
 21
-52.21
  0
LINE
  8
0
 10
-104.768
 20
-52.21
 11
-104.728
 21
-52.1177
  0
LINE
  8
0
 10
-104.728
 20
-52.1177
 11
-104.682
 21
-52.0282
  0
LINE
  8
0
 10
-104.682
 20
-52.0282
 11
-104.631
 21
-51.9416
  0
LINE
  8
0
 10
-104.631
 20
-51.9416
 11
-104.574
 21
-51.8585
  0
LINE
  8
0
 10
-104.574
 20
-51.8585
 11
-104.513
 21
-51.7791
  0
LINE
  8
0
 10
-104.513
 20
-51.7791
 11
-104.446
 21
-51.7037
  0
LINE
  8
0
 10
-104.446
 20
-51.7037
 11
-104.375
 21
-51.6326
  0
LINE
  8
0
 10
-104.375
 20
-51.6326
 11
-104.3
 21
-51.5661
  0
LINE
  8
0
 10
-104.3
 20
-51.5661
 11
-104.22
 21
-51.5045
  0
LINE
  8
0
 10
-104.22
 20
-51.5045
 11
-104.137
 21
-51.448
  0
LINE
  8
0
 10
-104.137
 20
-51.448
 11
-104.051
 21
-51.3969
  0
LINE
  8
0
 10
-104.051
 20
-51.3969
 11
-103.961
 21
-51.3512
  0
LINE
  8
0
 10
-103.961
 20
-51.3512
 11
-103.869
 21
-51.3113
  0
LINE
  8
0
 10
-103.869
 20
-51.3113
 11
-103.774
 21
-51.2773
  0
LINE
  8
0
 10
-103.774
 20
-51.2773
 11
-103.678
 21
-51.2492
  0
LINE
  8
0
 10
-103.678
 20
-51.2492
 11
-103.58
 21
-51.2273
  0
LINE
  8
0
 10
-103.58
 20
-51.2273
 11
-103.481
 21
-51.2116
  0
LINE
  8
0
 10
-103.481
 20
-51.2116
 11
-103.38
 21
-51.2021
  0
LINE
  8
0
 10
-103.38
 20
-51.2021
 11
-103.28
 21
-51.199
  0
LINE
  8
0
 10
-103.28
 20
-51.199
 11
-103.18
 21
-51.2021
  0
LINE
  8
0
 10
-103.18
 20
-51.2021
 11
-103.079
 21
-51.2116
  0
LINE
  8
0
 10
-103.079
 20
-51.2116
 11
-102.98
 21
-51.2273
  0
LINE
  8
0
 10
-102.98
 20
-51.2273
 11
-102.882
 21
-51.2492
  0
LINE
  8
0
 10
-102.882
 20
-51.2492
 11
-102.786
 21
-51.2773
  0
LINE
  8
0
 10
-102.786
 20
-51.2773
 11
-102.691
 21
-51.3113
  0
LINE
  8
0
 10
-102.691
 20
-51.3113
 11
-102.599
 21
-51.3512
  0
LINE
  8
0
 10
-102.599
 20
-51.3512
 11
-102.509
 21
-51.3969
  0
LINE
  8
0
 10
-102.509
 20
-51.3969
 11
-102.423
 21
-51.448
  0
LINE
  8
0
 10
-102.423
 20
-51.448
 11
-102.34
 21
-51.5045
  0
LINE
  8
0
 10
-102.34
 20
-51.5045
 11
-102.26
 21
-51.5661
  0
LINE
  8
0
 10
-102.26
 20
-51.5661
 11
-102.185
 21
-51.6326
  0
LINE
  8
0
 10
-102.185
 20
-51.6326
 11
-102.114
 21
-51.7037
  0
LINE
  8
0
 10
-102.114
 20
-51.7037
 11
-102.047
 21
-51.7791
  0
LINE
  8
0
 10
-102.047
 20
-51.7791
 11
-101.986
 21
-51.8585
  0
LINE
  8
0
 10
-101.986
 20
-51.8585
 11
-101.929
 21
-51.9416
  0
LINE
  8
0
 10
-101.929
 20
-51.9416
 11
-101.878
 21
-52.0282
  0
LINE
  8
0
 10
-101.878
 20
-52.0282
 11
-101.832
 21
-52.1177
  0
LINE
  8
0
 10
-101.832
 20
-52.1177
 11
-101.792
 21
-52.21
  0
LINE
  8
0
 10
-101.792
 20
-52.21
 11
-101.758
 21
-52.3045
  0
LINE
  8
0
 10
-101.758
 20
-52.3045
 11
-101.73
 21
-52.401
  0
LINE
  8
0
 10
-101.73
 20
-52.401
 11
-101.708
 21
-52.4991
  0
LINE
  8
0
 10
-101.708
 20
-52.4991
 11
-101.693
 21
-52.5984
  0
LINE
  8
0
 10
-101.693
 20
-52.5984
 11
-101.683
 21
-52.6985
  0
LINE
  8
0
 10
-101.683
 20
-52.6985
 11
-101.68
 21
-52.799
  0
LINE
  8
0
 10
-101.68
 20
-52.799
 11
-101.683
 21
-52.8994
  0
LINE
  8
0
 10
-101.683
 20
-52.8994
 11
-101.693
 21
-52.9995
  0
LINE
  8
0
 10
-101.693
 20
-52.9995
 11
-101.708
 21
-53.0988
  0
LINE
  8
0
 10
-101.708
 20
-53.0988
 11
-101.73
 21
-53.1969
  0
LINE
  8
0
 10
-101.73
 20
-53.1969
 11
-101.758
 21
-53.2934
  0
LINE
  8
0
 10
-101.758
 20
-53.2934
 11
-101.792
 21
-53.388
  0
LINE
  8
0
 10
-101.792
 20
-53.388
 11
-101.832
 21
-53.4802
  0
LINE
  8
0
 10
-101.832
 20
-53.4802
 11
-101.878
 21
-53.5698
  0
LINE
  8
0
 10
-101.878
 20
-53.5698
 11
-101.929
 21
-53.6563
  0
LINE
  8
0
 10
-101.929
 20
-53.6563
 11
-101.986
 21
-53.7394
  0
LINE
  8
0
 10
-101.986
 20
-53.7394
 11
-102.047
 21
-53.8188
  0
LINE
  8
0
 10
-102.047
 20
-53.8188
 11
-102.114
 21
-53.8942
  0
LINE
  8
0
 10
-102.114
 20
-53.8942
 11
-102.185
 21
-53.9653
  0
LINE
  8
0
 10
-102.185
 20
-53.9653
 11
-102.26
 21
-54.0318
  0
LINE
  8
0
 10
-102.26
 20
-54.0318
 11
-102.34
 21
-54.0934
  0
LINE
  8
0
 10
-102.34
 20
-54.0934
 11
-102.423
 21
-54.1499
  0
LINE
  8
0
 10
-102.423
 20
-54.1499
 11
-102.509
 21
-54.201
  0
LINE
  8
0
 10
-102.509
 20
-54.201
 11
-102.599
 21
-54.2467
  0
LINE
  8
0
 10
-102.599
 20
-54.2467
 11
-102.691
 21
-54.2866
  0
LINE
  8
0
 10
-102.691
 20
-54.2866
 11
-102.786
 21
-54.3206
  0
LINE
  8
0
 10
-102.786
 20
-54.3206
 11
-102.882
 21
-54.3487
  0
LINE
  8
0
 10
-102.882
 20
-54.3487
 11
-102.98
 21
-54.3706
  0
LINE
  8
0
 10
-102.98
 20
-54.3706
 11
-103.079
 21
-54.3863
  0
LINE
  8
0
 10
-103.079
 20
-54.3863
 11
-103.18
 21
-54.3958
  0
LINE
  8
0
 10
-103.18
 20
-54.3958
 11
-103.28
 21
-54.399
  0
LINE
  8
0
 10
-103.28
 20
-54.399
 11
-103.38
 21
-54.3958
  0
ENDSEC
  0
SECTION
  2
OBJECTS
  0
DICTIONARY
  0
ENDSEC
  0
EOF
